<svg width="18" height="14" viewBox="0 0 18 14" fill="none" xmlns="http://www.w3.org/2000/svg">
<path d="M6.125 7C8.03906 7 9.625 5.44141 9.625 3.5C9.625 1.58594 8.03906 0 6.125 0C4.18359 0 2.625 1.58594 2.625 3.5C2.625 5.44141 4.18359 7 6.125 7ZM7.49219 8.3125H4.73047C2.10547 8.3125 0 10.4453 0 13.0703C0 13.5898 0.410156 14 0.929688 14H11.293C11.8125 14 12.25 13.5898 12.25 13.0703C12.25 10.4453 10.1172 8.3125 7.49219 8.3125ZM13.0977 8.75H11.0742C12.332 9.78906 13.125 11.3477 13.125 13.0703C13.125 13.4258 13.0156 13.7266 12.8516 14H16.625C17.0898 14 17.5 13.6172 17.5 13.125C17.5 10.7188 15.5312 8.75 13.0977 8.75ZM11.8125 7C13.4805 7 14.875 5.63281 14.875 3.9375C14.875 2.26953 13.4805 0.875 11.8125 0.875C11.1016 0.875 10.4727 1.12109 9.98047 1.50391C10.2812 2.10547 10.5 2.78906 10.5 3.5C10.5 4.48438 10.1719 5.38672 9.625 6.09766C10.1719 6.67188 10.9375 7 11.8125 7Z" fill="#9E9E9E"/>
</svg>
