<svg width="28" height="26" viewBox="0 0 28 26" fill="none" xmlns="http://www.w3.org/2000/svg">
<path d="M27.335 3.207V16.673H25.2V3.207C25.1997 2.92356 25.087 2.65181 24.8866 2.4514C24.6862 2.25098 24.4144 2.13826 24.131 2.138H3.206C2.92256 2.13826 2.65081 2.25098 2.4504 2.4514C2.24998 2.65181 2.13726 2.92356 2.137 3.207V11.294L6.559 4.832L10.106 9.265L11.713 6.955L18.572 15.871V16.671H16.492L11.8 10.571L5.793 19.207L4.039 17.986L8.832 11.1L6.693 8.421L2.137 15.079V20.306C2.13726 20.5894 2.24998 20.8612 2.4504 21.0616C2.65081 21.262 2.92256 21.3747 3.206 21.375H14.136V23.513H3.206C2.35587 23.5119 1.54087 23.1737 0.939832 22.5725C0.338791 21.9712 0.000793857 21.1561 0 20.306L0 3.207C0.000793857 2.35687 0.338791 1.54177 0.939832 0.940539C1.54087 0.33931 2.35587 0.00105898 3.206 0L24.129 0C24.979 0.00105848 25.7938 0.339172 26.3948 0.940185C26.9958 1.5412 27.3339 2.35604 27.335 3.206V3.207ZM20.175 10.26C19.5409 10.26 18.9211 10.072 18.3938 9.71969C17.8666 9.36741 17.4557 8.8667 17.213 8.28088C16.9704 7.69506 16.9069 7.05044 17.0306 6.42854C17.1543 5.80664 17.4596 5.23538 17.908 4.78702C18.3564 4.33865 18.9276 4.03331 19.5495 3.9096C20.1714 3.7859 20.8161 3.84939 21.4019 4.09204C21.9877 4.3347 22.4884 4.74562 22.8407 5.27284C23.193 5.80007 23.381 6.41991 23.381 7.054C23.3799 7.90413 23.0417 8.71913 22.4405 9.32017C21.8392 9.92121 21.0241 10.2592 20.174 10.26H20.175ZM21.244 7.054C21.244 6.84257 21.1813 6.63589 21.0638 6.4601C20.9464 6.2843 20.7794 6.14728 20.5841 6.06637C20.3888 5.98546 20.1738 5.96429 19.9664 6.00554C19.7591 6.04679 19.5686 6.1486 19.4191 6.2981C19.2696 6.44761 19.1678 6.63808 19.1265 6.84545C19.0853 7.05281 19.1065 7.26775 19.1874 7.46309C19.2683 7.65842 19.4053 7.82538 19.5811 7.94284C19.7569 8.0603 19.9636 8.123 20.175 8.123C20.4583 8.12247 20.7298 8.00964 20.93 7.80925C21.1302 7.60886 21.2427 7.33726 21.243 7.054H21.244ZM22.844 14.321H20.709V18.81H16.22V20.947H20.709V25.436H22.847V20.947H27.336V18.81H22.846L22.844 14.321Z" fill="#9E9E9E"/>
</svg>
