<svg width="24" height="24" viewBox="0 0 24 24" fill="none" xmlns="http://www.w3.org/2000/svg">
<g opacity="0.5">
<path d="M20 18.5C18.75 18.5 17.55 18.3 16.43 17.93C16.2542 17.874 16.0664 17.8667 15.8868 17.909C15.7072 17.9513 15.5424 18.0415 15.41 18.17L13.21 20.37C10.3712 18.9262 8.06378 16.6188 6.62 13.78L8.82 11.57C8.95245 11.4443 9.04632 11.2835 9.0906 11.1064C9.13488 10.9293 9.12773 10.7432 9.07 10.57C8.69065 9.41806 8.49821 8.2128 8.5 7C8.5 6.45 8.05 6 7.5 6H4C3.45 6 3 6.45 3 7C3 16.39 10.61 24 20 24C20.55 24 21 23.55 21 23V19.5C21 18.95 20.55 18.5 20 18.5ZM21 9H18V6H16V9H13V11H16V14H18V11H21V9Z" fill="white"/>
</g>
</svg>
