<svg width="22" height="22" viewBox="0 0 22 22" fill="none" xmlns="http://www.w3.org/2000/svg">
<g clip-path="url(#clip0_3960_29035)">
<g filter="url(#filter0_d_3960_29035)">
<path d="M15.5833 10.0833C15.895 10.0833 16.1975 10.12 16.5 10.1658V5.7475L9.625 2.75L2.75 5.7475V10.2483C2.75 14.41 5.68333 18.3058 9.625 19.25C10.1292 19.1308 10.615 18.9567 11.0917 18.7458C10.4592 17.8475 10.0833 16.7567 10.0833 15.5833C10.0833 12.5492 12.5492 10.0833 15.5833 10.0833Z" fill="#1877F2"/>
<path d="M9.98333 15.5833C9.98333 16.7348 10.3388 17.808 10.9405 18.7026C10.5112 18.8866 10.0751 19.0392 9.62514 19.1472C5.74299 18.2048 2.85 14.3586 2.85 10.2483V5.81299L9.625 2.85909L16.4 5.81299V10.05C16.1331 10.012 15.8624 9.98333 15.5833 9.98333C12.4939 9.98333 9.98333 12.4939 9.98333 15.5833Z" stroke="white" stroke-width="0.2"/>
</g>
<g filter="url(#filter1_d_3960_29035)">
<path d="M15.5834 11.9167C13.5575 11.9167 11.9167 13.5576 11.9167 15.5834C11.9167 17.6092 13.5575 19.2501 15.5834 19.2501C17.6092 19.2501 19.25 17.6092 19.25 15.5834C19.25 13.5576 17.6092 11.9167 15.5834 11.9167ZM15.5834 13.1817C16.1517 13.1817 16.61 13.6492 16.61 14.2084C16.61 14.7676 16.1425 15.2351 15.5834 15.2351C15.0242 15.2351 14.5567 14.7676 14.5567 14.2084C14.5567 13.6492 15.015 13.1817 15.5834 13.1817ZM15.5834 18.1042C14.7309 18.1042 13.9884 17.6826 13.53 17.0317C13.5759 16.3717 14.9142 16.0417 15.5834 16.0417C16.2525 16.0417 17.5909 16.3717 17.6367 17.0317C17.1784 17.6826 16.4359 18.1042 15.5834 18.1042Z" fill="#1877F2"/>
<path d="M13.4303 17.0248L13.4278 17.0603L13.4483 17.0893C13.9243 17.7652 14.6965 18.2042 15.5834 18.2042C16.4702 18.2042 17.2424 17.7652 17.7184 17.0893L17.7389 17.0603L17.7364 17.0248C17.7225 16.8244 17.6107 16.6574 17.4562 16.5231C17.302 16.3891 17.098 16.2809 16.88 16.1961C16.4445 16.0265 15.9303 15.9417 15.5834 15.9417C15.2364 15.9417 14.7222 16.0265 14.2867 16.1961C14.0687 16.2809 13.8647 16.3891 13.7105 16.5231C13.556 16.6574 13.4442 16.8244 13.4303 17.0248ZM12.0167 15.5834C12.0167 13.6128 13.6127 12.0167 15.5834 12.0167C17.554 12.0167 19.15 13.6128 19.15 15.5834C19.15 17.554 17.554 19.1501 15.5834 19.1501C13.6127 19.1501 12.0167 17.554 12.0167 15.5834ZM16.71 14.2084C16.71 13.5946 16.2075 13.0817 15.5834 13.0817C14.9592 13.0817 14.4567 13.5946 14.4567 14.2084C14.4567 14.8228 14.969 15.3351 15.5834 15.3351C16.1977 15.3351 16.71 14.8228 16.71 14.2084Z" stroke="white" stroke-width="0.2"/>
</g>
</g>
<defs>
<filter id="filter0_d_3960_29035" x="-1.25" y="2.75" width="21.75" height="24.5" filterUnits="userSpaceOnUse" color-interpolation-filters="sRGB">
<feFlood flood-opacity="0" result="BackgroundImageFix"/>
<feColorMatrix in="SourceAlpha" type="matrix" values="0 0 0 0 0 0 0 0 0 0 0 0 0 0 0 0 0 0 127 0" result="hardAlpha"/>
<feOffset dy="4"/>
<feGaussianBlur stdDeviation="2"/>
<feComposite in2="hardAlpha" operator="out"/>
<feColorMatrix type="matrix" values="0 0 0 0 0 0 0 0 0 0 0 0 0 0 0 0 0 0 0.25 0"/>
<feBlend mode="normal" in2="BackgroundImageFix" result="effect1_dropShadow_3960_29035"/>
<feBlend mode="normal" in="SourceGraphic" in2="effect1_dropShadow_3960_29035" result="shape"/>
</filter>
<filter id="filter1_d_3960_29035" x="7.91669" y="11.9167" width="15.3333" height="15.3333" filterUnits="userSpaceOnUse" color-interpolation-filters="sRGB">
<feFlood flood-opacity="0" result="BackgroundImageFix"/>
<feColorMatrix in="SourceAlpha" type="matrix" values="0 0 0 0 0 0 0 0 0 0 0 0 0 0 0 0 0 0 127 0" result="hardAlpha"/>
<feOffset dy="4"/>
<feGaussianBlur stdDeviation="2"/>
<feComposite in2="hardAlpha" operator="out"/>
<feColorMatrix type="matrix" values="0 0 0 0 0 0 0 0 0 0 0 0 0 0 0 0 0 0 0.25 0"/>
<feBlend mode="normal" in2="BackgroundImageFix" result="effect1_dropShadow_3960_29035"/>
<feBlend mode="normal" in="SourceGraphic" in2="effect1_dropShadow_3960_29035" result="shape"/>
</filter>
<clipPath id="clip0_3960_29035">
<rect width="22" height="22" fill="white"/>
</clipPath>
</defs>
</svg>
