<svg width="48" height="48" viewBox="0 0 48 48" fill="none" xmlns="http://www.w3.org/2000/svg">
<g clip-path="url(#clip0_1414_40653)">
<g filter="url(#filter0_d_1414_40653)">
<path d="M38.5658 11.6583C38.8621 12.8804 38.8794 14.0673 38.6929 15.2069C36.8558 16.6638 34.8941 17.9149 33.0929 18.7721L32.9654 18.7293C35.2358 16.9289 37.2498 14.7824 38.5658 11.6583H38.5658ZM9.43397 11.6583C10.7501 14.7824 12.7641 16.9289 15.0343 18.7293C14.9917 18.7437 14.9492 18.7579 14.9068 18.7721C13.1057 17.9149 11.1441 16.6639 9.30694 15.2068C9.12038 14.0673 9.13772 12.8804 9.43407 11.6584L9.43397 11.6583ZM43.8423 12.7024C43.6428 13.853 43.3587 15.1195 43.0269 16.3582C40.8418 18.5779 38.413 19.4915 35.9999 19.4915C35.8336 19.4915 35.6507 19.4736 35.4539 19.4419C38.4428 17.7761 41.506 15.3637 43.8423 12.7024ZM4.15754 12.7024C6.49379 15.3638 9.55697 17.7761 12.5459 19.442C12.3491 19.4736 12.1662 19.4915 11.9999 19.4915C9.58679 19.4915 7.158 18.578 4.97288 16.3582C4.6411 15.1195 4.35694 13.853 4.15754 12.7024ZM46.6497 14.3791C45.9873 17.7042 44.6629 21.3137 42.6001 24.34C39.5349 28.8372 34.9333 35.0479 28.4999 34.5C26.9999 34.5 25.4999 28.5 23.9999 28.5C22.4999 28.5 20.9999 34.5 19.4999 34.5C13.0665 35.0479 8.46497 28.8371 5.39972 24.34C3.33694 21.3137 2.01254 17.7042 1.3501 14.3791C4.30754 19.0766 8.1375 21.179 11.9999 21.179C14.0543 21.179 15.7009 19.9953 17.7787 19.4653C18.8176 19.2005 19.7858 19.0924 20.5949 19.2625C21.3458 19.4203 22.5507 19.7978 23.9999 20.6235C25.4491 19.7979 26.654 19.4203 27.4049 19.2625C28.2141 19.0924 29.1822 19.2005 30.2212 19.4654C32.2989 19.9953 33.9456 21.179 35.9999 21.179C39.8624 21.179 43.6923 19.0766 46.6497 14.3791ZM32.8456 23.3355C30.1959 23.3274 26.9439 23.82 27.0007 24.5013C27.5455 31.0482 36.1744 26.0013 36.1859 24.155C36.1896 23.5808 34.6585 23.341 32.8456 23.3355ZM15.1542 23.3355C13.3413 23.341 11.8103 23.5808 11.8139 24.155C11.8254 26.0014 20.4543 31.0482 20.9992 24.5013C21.0559 23.82 17.804 23.3274 15.1542 23.3355Z" fill="#2C50ED"/>
</g>
</g>
<defs>
<filter id="filter0_d_1414_40653" x="-2.6499" y="11.6583" width="53.2996" height="30.8756" filterUnits="userSpaceOnUse" color-interpolation-filters="sRGB">
<feFlood flood-opacity="0" result="BackgroundImageFix"/>
<feColorMatrix in="SourceAlpha" type="matrix" values="0 0 0 0 0 0 0 0 0 0 0 0 0 0 0 0 0 0 127 0" result="hardAlpha"/>
<feOffset dy="4"/>
<feGaussianBlur stdDeviation="2"/>
<feComposite in2="hardAlpha" operator="out"/>
<feColorMatrix type="matrix" values="0 0 0 0 0 0 0 0 0 0 0 0 0 0 0 0 0 0 0.25 0"/>
<feBlend mode="normal" in2="BackgroundImageFix" result="effect1_dropShadow_1414_40653"/>
<feBlend mode="normal" in="SourceGraphic" in2="effect1_dropShadow_1414_40653" result="shape"/>
</filter>
<clipPath id="clip0_1414_40653">
<rect width="48" height="48" fill="white"/>
</clipPath>
</defs>
</svg>
