<svg width="99" height="99" viewBox="0 0 99 99" fill="none" xmlns="http://www.w3.org/2000/svg">
<path d="M49.5 93.8438C73.9904 93.8438 93.8438 73.9904 93.8438 49.5C93.8438 25.0096 73.9904 5.15625 49.5 5.15625C25.0096 5.15625 5.15625 25.0096 5.15625 49.5C5.15625 73.9904 25.0096 93.8438 49.5 93.8438Z" stroke="#2C50ED" stroke-width="2" stroke-linecap="round" stroke-linejoin="round"/>
<path d="M49.5 79.9342C52.5628 79.9342 77.1416 69.632 77.1416 55.3121V26.534L49.5 19.1296L21.8584 26.534V55.3121C21.8584 69.632 46.4372 79.9342 49.5 79.9342Z" stroke="#2C50ED" stroke-width="2" stroke-linecap="round" stroke-linejoin="round"/>
<path d="M41.4562 42.3473V38.4636C41.4562 37.4208 41.6616 36.3882 42.0607 35.4248C42.4597 34.4614 43.0446 33.5861 43.782 32.8487C44.5193 32.1113 45.3947 31.5264 46.3581 31.1274C47.3215 30.7283 48.3541 30.5229 49.3969 30.5229C50.4396 30.5229 51.4722 30.7283 52.4356 31.1274C53.399 31.5264 54.2744 32.1113 55.0117 32.8487C55.7491 33.5861 56.334 34.4614 56.733 35.4248C57.1321 36.3882 57.3375 37.4208 57.3375 38.4636V42.3473M36.6939 42.3473H62.537V61.7409C62.5082 62.7846 61.8069 63.4796 60.8004 63.4796H38.5832C37.4034 63.4796 36.4279 62.3576 36.4279 61.3243L36.6939 42.3473Z" stroke="#2C50ED" stroke-width="2" stroke-linecap="round" stroke-linejoin="round"/>
</svg>
