<svg width="18" height="18" viewBox="0 0 18 18" fill="none" xmlns="http://www.w3.org/2000/svg">
<g clip-path="url(#clip0_7904_26681)">
<g filter="url(#filter0_d_7904_26681)">
<path d="M13.7461 16.875C13.0598 16.875 12.0958 16.6268 10.6523 15.8203C8.89696 14.8359 7.53922 13.9271 5.79336 12.1858C4.11008 10.5036 3.29094 9.41447 2.1445 7.3283C0.849341 4.97283 1.07012 3.73814 1.31692 3.21045C1.61082 2.57974 2.04465 2.20252 2.6054 1.8281C2.92389 1.61943 3.26094 1.44055 3.61227 1.29373C3.64743 1.27861 3.68012 1.2642 3.7093 1.25119C3.88332 1.17279 4.147 1.05431 4.48098 1.18088C4.70387 1.26455 4.90286 1.43576 5.21434 1.74338C5.85313 2.37338 6.72606 3.77646 7.04809 4.46553C7.2643 4.92994 7.40739 5.2365 7.40774 5.58033C7.40774 5.98287 7.20524 6.2933 6.9595 6.62834C6.91344 6.69127 6.86774 6.75139 6.82344 6.80974C6.5559 7.16131 6.49719 7.26291 6.53586 7.44431C6.61426 7.80889 7.19891 8.89416 8.15973 9.85287C9.12055 10.8116 10.1745 11.3593 10.5405 11.4374C10.7297 11.4778 10.8334 11.4166 11.1962 11.1396C11.2482 11.0999 11.3016 11.0587 11.3575 11.0176C11.7323 10.7388 12.0283 10.5416 12.4214 10.5416H12.4235C12.7656 10.5416 13.0584 10.6899 13.5436 10.9346C14.1764 11.2538 15.6216 12.1155 16.2555 12.755C16.5638 13.0658 16.7357 13.2641 16.8198 13.4866C16.9463 13.8217 16.8272 14.0843 16.7495 14.2601C16.7364 14.2892 16.722 14.3212 16.7069 14.3567C16.5589 14.7074 16.379 15.0438 16.1694 15.3615C15.7957 15.9205 15.417 16.3533 14.7849 16.6475C14.4603 16.801 14.1051 16.8788 13.7461 16.875Z" fill="white"/>
</g>
</g>
<defs>
<filter id="filter0_d_7904_26681" x="-2.87158" y="1.12531" width="23.7468" height="23.7498" filterUnits="userSpaceOnUse" color-interpolation-filters="sRGB">
<feFlood flood-opacity="0" result="BackgroundImageFix"/>
<feColorMatrix in="SourceAlpha" type="matrix" values="0 0 0 0 0 0 0 0 0 0 0 0 0 0 0 0 0 0 127 0" result="hardAlpha"/>
<feOffset dy="4"/>
<feGaussianBlur stdDeviation="2"/>
<feComposite in2="hardAlpha" operator="out"/>
<feColorMatrix type="matrix" values="0 0 0 0 0 0 0 0 0 0 0 0 0 0 0 0 0 0 0.25 0"/>
<feBlend mode="normal" in2="BackgroundImageFix" result="effect1_dropShadow_7904_26681"/>
<feBlend mode="normal" in="SourceGraphic" in2="effect1_dropShadow_7904_26681" result="shape"/>
</filter>
<clipPath id="clip0_7904_26681">
<rect width="18" height="18" fill="white"/>
</clipPath>
</defs>
</svg>
