<svg width="375" height="15" viewBox="0 0 375 15" fill="none" xmlns="http://www.w3.org/2000/svg">
<rect y="4.27795" width="375" height="6" fill="#1877F2"/>
<rect y="4.27795" width="140" height="6" fill="white"/>
<circle cx="140" cy="6" r="6" fill="white"/>
<circle cx="140" cy="6" r="6" fill="white"/>
<circle cx="146.5" cy="11.5" r="1.5" fill="white"/>
<circle cx="146.5" cy="11.5" r="1.5" fill="white"/>
<circle cx="160" cy="8" r="1" fill="white"/>
<circle cx="160" cy="8" r="1" fill="white"/>
<circle cx="172" cy="4" r="1" fill="white"/>
<circle cx="172" cy="4" r="1" fill="white"/>
<circle cx="175.5" cy="7.5" r="1.5" fill="white"/>
<circle cx="175.5" cy="7.5" r="1.5" fill="white"/>
<circle cx="188.5" cy="4.5" r="1.5" fill="white"/>
<circle cx="188.5" cy="4.5" r="1.5" fill="white"/>
<circle cx="199.5" cy="4.5" r="1.5" fill="white"/>
<circle cx="199.5" cy="4.5" r="1.5" fill="white"/>
<circle cx="200.5" cy="7.5" r="1.5" fill="white"/>
<circle cx="200.5" cy="7.5" r="1.5" fill="white"/>
<circle cx="117" cy="9" r="1" fill="white"/>
<circle cx="117" cy="9" r="1" fill="white"/>
<circle cx="129.5" cy="8.5" r="1.5" fill="white"/>
<circle cx="129.5" cy="8.5" r="1.5" fill="white"/>
<circle cx="129.5" cy="1.5" r="1.5" fill="white"/>
<circle cx="129.5" cy="1.5" r="1.5" fill="white"/>
<circle cx="116.5" cy="13.5" r="1.5" fill="white"/>
<circle cx="116.5" cy="13.5" r="1.5" fill="white"/>
<circle cx="105.5" cy="11.5" r="1.5" fill="white"/>
<circle cx="105.5" cy="11.5" r="1.5" fill="white"/>
<circle cx="102.5" cy="5.5" r="1.5" fill="white"/>
<circle cx="102.5" cy="5.5" r="1.5" fill="white"/>
<circle cx="94" cy="8" r="1" fill="white"/>
<circle cx="94" cy="8" r="1" fill="white"/>
<circle cx="98.5" cy="2.5" r="1.5" fill="white"/>
<circle cx="98.5" cy="2.5" r="1.5" fill="white"/>
<circle cx="82" cy="10" r="1" fill="white"/>
<circle cx="82" cy="10" r="1" fill="white"/>
<circle cx="78.5" cy="4.5" r="1.5" fill="white"/>
<circle cx="78.5" cy="4.5" r="1.5" fill="white"/>
</svg>
