<svg width="40" height="40" viewBox="0 0 40 40" fill="none" xmlns="http://www.w3.org/2000/svg">
<g clip-path="url(#clip0_1414_36213)">
<path d="M24.6283 23.3967L29.045 16.8633C29.4816 16.22 28.6533 15.5217 28.02 15.9817L23.2566 19.34C23.0972 19.4509 22.9076 19.5103 22.7133 19.5103C22.5191 19.5103 22.3295 19.4509 22.17 19.34L18.6433 16.8783C17.5883 16.15 16.08 16.4167 15.3716 17.4367L10.955 23.97C10.5183 24.6133 11.3466 25.3133 11.98 24.8517L16.7433 21.4933C16.9028 21.3824 17.0924 21.323 17.2866 21.323C17.4809 21.323 17.6705 21.3824 17.83 21.4933L21.3566 23.9133C22.4116 24.6833 23.92 24.4167 24.6283 23.3967Z" fill="#2C50ED"/>
<g filter="url(#filter0_d_1414_36213)">
<path fill-rule="evenodd" clip-rule="evenodd" d="M20 3.75C15.6902 3.75 11.557 5.46205 8.50953 8.50952C5.46206 11.557 3.75001 15.6902 3.75001 20C3.74743 22.1911 4.18918 24.36 5.04858 26.3756C5.90797 28.3912 7.16716 30.2115 8.75001 31.7267V35.8333C8.7499 36.0314 8.79687 36.2267 8.88705 36.4031C8.97724 36.5795 9.10805 36.7319 9.26871 36.8478C9.42937 36.9637 9.61528 37.0398 9.8111 37.0697C10.0069 37.0996 10.2071 37.0826 10.395 37.02L15.0283 35.475C16.6352 35.99 18.3126 36.2515 20 36.25C28.975 36.25 36.25 28.975 36.25 20C36.25 11.025 28.975 3.75 20 3.75ZM6.25001 20C6.25114 17.0826 7.18014 14.2412 8.90268 11.8867C10.6252 9.53216 13.052 7.78652 15.8321 6.90221C18.6122 6.0179 21.6016 6.04076 24.3678 6.96749C27.1341 7.89421 29.5339 9.67676 31.2202 12.0574C32.9065 14.438 33.792 17.2933 33.7485 20.2103C33.705 23.1273 32.7348 25.9549 30.9783 28.2842C29.2217 30.6135 26.7698 32.3237 23.9772 33.1676C21.1845 34.0114 18.1959 33.9451 15.4433 32.9783C15.1816 32.8863 14.8966 32.8839 14.6333 32.9717L11.25 34.0983V31.1817C11.2502 31.0055 11.2132 30.8313 11.1414 30.6705C11.0696 30.5096 10.9646 30.3658 10.8333 30.2483C9.38961 28.9601 8.23483 27.381 7.4449 25.6147C6.65496 23.8484 6.24774 21.9349 6.25001 20Z" fill="#2C50ED"/>
</g>
</g>
<defs>
<filter id="filter0_d_1414_36213" x="-0.25" y="3.75" width="40.5" height="41.3341" filterUnits="userSpaceOnUse" color-interpolation-filters="sRGB">
<feFlood flood-opacity="0" result="BackgroundImageFix"/>
<feColorMatrix in="SourceAlpha" type="matrix" values="0 0 0 0 0 0 0 0 0 0 0 0 0 0 0 0 0 0 127 0" result="hardAlpha"/>
<feOffset dy="4"/>
<feGaussianBlur stdDeviation="2"/>
<feComposite in2="hardAlpha" operator="out"/>
<feColorMatrix type="matrix" values="0 0 0 0 0 0 0 0 0 0 0 0 0 0 0 0 0 0 0.25 0"/>
<feBlend mode="normal" in2="BackgroundImageFix" result="effect1_dropShadow_1414_36213"/>
<feBlend mode="normal" in="SourceGraphic" in2="effect1_dropShadow_1414_36213" result="shape"/>
</filter>
<clipPath id="clip0_1414_36213">
<rect width="40" height="40" fill="white"/>
</clipPath>
</defs>
</svg>
