<svg width="36" height="32" viewBox="0 0 36 32" fill="none" xmlns="http://www.w3.org/2000/svg">
<g clip-path="url(#clip0_1414_40657)">
<g filter="url(#filter0_d_1414_40657)">
<path d="M22.22 20.726C22.1419 20.7154 22.0623 20.7239 21.9883 20.7509C21.9142 20.7779 21.8479 20.8226 21.795 20.881C21.7411 20.9384 21.7017 21.0078 21.6798 21.0834C21.6579 21.159 21.6542 21.2387 21.669 21.316C21.945 22.766 22.874 24.756 25.726 25.995C26.064 26.141 26.586 26.255 27.248 26.398C29.726 26.934 33.87 27.832 34.888 31.63C34.905 31.6935 34.9345 31.753 34.9745 31.8051C35.0146 31.8573 35.0645 31.901 35.1215 31.9338C35.1785 31.9666 35.2414 31.9879 35.3065 31.9965C35.3717 32.005 35.438 32.0006 35.5015 31.9835C35.565 31.9664 35.6245 31.937 35.6766 31.897C35.7287 31.8569 35.7725 31.8069 35.8053 31.75C35.8381 31.693 35.8594 31.6301 35.8679 31.5649C35.8764 31.4997 35.872 31.4335 35.855 31.37C34.678 26.983 29.983 25.966 27.46 25.42C26.876 25.293 26.371 25.184 26.124 25.076C24.41 24.332 23.303 23.228 22.823 21.79C27.585 22.144 29.741 20.247 29.836 20.161C29.8945 20.108 29.9397 20.0418 29.9678 19.9679C29.9958 19.8941 30.006 19.8146 29.9974 19.7361C29.9888 19.6575 29.9617 19.5821 29.9184 19.5161C29.875 19.45 29.8166 19.3951 29.748 19.356C27 17.786 27 12.361 27 10.318C27 4.60501 23.152 0.0760142 18.219 0.00501416C18.172 0.00345005 18.125 0.00244998 18.078 0.00201416C13.073 0.0300142 8.99997 4.56401 8.99997 10.11C8.99997 12.153 8.99997 17.579 6.25197 19.148C6.18113 19.1892 6.12142 19.247 6.07801 19.3165C6.03461 19.3859 6.00883 19.465 6.00292 19.5467C5.997 19.6284 6.01113 19.7103 6.04408 19.7853C6.07703 19.8603 6.1278 19.9261 6.19197 19.977C6.32997 20.084 9.37997 22.418 13.133 21.709C12.631 23.087 11.539 24.147 9.87497 24.87C9.63397 24.975 9.15397 25.09 8.59797 25.222C6.05797 25.826 1.32897 26.951 0.144972 31.369C0.127966 31.4325 0.123632 31.4987 0.132219 31.5639C0.140805 31.6291 0.162144 31.6919 0.195015 31.7488C0.261403 31.8638 0.37074 31.9477 0.498972 31.982C0.627204 32.0164 0.763828 31.9984 0.878788 31.932C0.993748 31.8656 1.07763 31.7562 1.11197 31.628C2.14097 27.784 6.32897 26.789 8.82997 26.193C9.45697 26.044 9.95197 25.926 10.274 25.787C13.126 24.548 14.054 22.558 14.331 21.108C14.3474 21.0231 14.3414 20.9353 14.3135 20.8534C14.2856 20.7715 14.2368 20.6983 14.172 20.641C14.1076 20.5832 14.0293 20.5433 13.9448 20.525C13.8602 20.5068 13.7724 20.5109 13.69 20.537C10.983 21.389 8.48197 20.217 7.38897 19.567C9.99997 17.381 9.99997 12.35 9.99997 10.11C9.99997 5.11301 13.626 1.02701 18.12 1.00001L18.226 1.00601C22.658 1.06901 26 5.07201 26 10.318C26 12.559 26 17.601 28.622 19.787C27.719 20.303 25.66 21.138 22.22 20.726Z" fill="#2C50ED"/>
<path d="M25.5277 26.454L25.5267 26.4536C22.5015 25.1394 21.4802 22.9976 21.1779 21.41L25.5277 26.454ZM25.5277 26.454C25.9165 26.622 26.4873 26.7452 27.1171 26.8813L27.1423 26.8867C28.3893 27.1564 29.9801 27.5036 31.3847 28.2343C32.7761 28.9581 33.9432 30.0364 34.405 31.7595L34.4051 31.7598M25.5277 26.454L34.4051 31.7598M34.4051 31.7598C34.4392 31.8867 34.498 32.0057 34.5781 32.1099C34.6582 32.2141 34.758 32.3014 34.8719 32.3671C34.9857 32.4327 35.1114 32.4752 35.2417 32.4922C35.372 32.5093 35.5044 32.5005 35.6313 32.4664C35.7582 32.4322 35.8771 32.3735 35.9813 32.2934C36.0855 32.2133 36.1729 32.1135 36.2385 31.9996C36.3041 31.8857 36.3467 31.7601 36.3637 31.6298C36.3807 31.4996 36.372 31.3673 36.3379 31.2404M34.4051 31.7598L26.3231 24.6174M26.3231 24.6174L26.3243 24.6179C26.4046 24.653 26.5553 24.6988 26.7851 24.7554C27.0017 24.8087 27.2589 24.8646 27.5446 24.9267L27.5657 24.9313L27.5662 24.9314L27.5825 24.935C28.8377 25.2066 30.6988 25.6093 32.3971 26.5133C34.1159 27.4281 35.7033 28.8751 36.3379 31.2404M26.3231 24.6174C25.0143 24.0493 24.1196 23.2783 23.6009 22.3293M26.3231 24.6174L23.6009 22.3293M36.3379 31.2404L35.855 31.37M36.3379 31.2404C36.3379 31.2404 36.3378 31.2403 36.3378 31.2402L35.855 31.37M35.855 31.37C34.678 26.983 29.983 25.966 27.46 25.42M35.855 31.37C35.872 31.4335 35.8764 31.4997 35.8679 31.5649C35.8594 31.6301 35.8381 31.693 35.8053 31.75C35.7725 31.8069 35.7287 31.8569 35.6766 31.897C35.6245 31.937 35.565 31.9664 35.5015 31.9835C35.438 32.0006 35.3717 32.005 35.3065 31.9965C35.2414 31.9879 35.1785 31.9666 35.1215 31.9338C35.0645 31.901 35.0146 31.8573 34.9745 31.8051L27.46 25.42M27.46 25.42L27.4342 25.4144C26.8612 25.2898 26.3673 25.1824 26.124 25.076L27.46 25.42ZM18.2309 -0.494865C23.5008 -0.41619 27.5 4.40443 27.5 10.318C27.5 11.3422 27.5011 13.1653 27.8347 14.9211C28.1747 16.7104 28.8286 18.2546 29.9956 18.9216L18.2309 -0.494865ZM18.2309 -0.494865C18.1815 -0.496473 18.132 -0.497506 18.0826 -0.497964V-0.49802L18.0752 -0.497978C12.7486 -0.468179 8.49997 4.33792 8.49997 10.11C8.49997 11.1342 8.49887 12.9575 8.16526 14.7134C7.82523 16.5032 7.17117 18.0474 6.00405 18.7138L6.00085 18.7157C5.8596 18.7977 5.74052 18.913 5.65397 19.0515C5.56742 19.1901 5.51601 19.3476 5.50422 19.5106C5.49243 19.6735 5.52061 19.8368 5.58631 19.9864C5.65201 20.1359 5.75324 20.2672 5.88121 20.3687L5.88119 20.3687L5.8856 20.3722C6.02386 20.4794 8.74744 22.5723 12.2827 22.3222C11.7512 23.1798 10.8928 23.8826 9.67572 24.4114L9.67526 24.4116C9.48627 24.494 9.06424 24.5974 8.48248 24.7355L8.4823 24.7356L8.46527 24.7396C7.20131 25.0402 5.32927 25.4853 3.62145 26.4275C1.89441 27.3802 0.299456 28.861 -0.337986 31.2396L-0.338004 31.2397C-0.371998 31.3666 -0.380661 31.4989 -0.363497 31.6292C-0.346333 31.7595 -0.30368 31.8851 -0.237973 31.9989C-0.105268 32.2287 0.113285 32.3963 0.369612 32.465L0.369619 32.465C0.625936 32.5336 0.899033 32.4977 1.12883 32.365C1.35863 32.2323 1.52629 32.0137 1.59495 31.7574L1.59497 31.7573C2.06307 30.0086 3.24685 28.8938 4.65657 28.1325C6.07837 27.3646 7.68747 26.9793 8.94588 26.6794L8.98374 26.6704C9.57515 26.5299 10.1078 26.4033 10.4721 26.2461L10.4732 26.2456C13.4985 24.9313 14.5186 22.7896 14.822 21.2024C14.8548 21.0322 14.8427 20.8564 14.7868 20.6922C14.7313 20.5292 14.6346 20.3834 14.506 20.269C14.3769 20.1531 14.2198 20.0729 14.0502 20.0363C13.8809 19.9997 13.705 20.008 13.5399 20.0601C11.4298 20.7242 9.43249 20.0566 8.22539 19.454C9.32068 18.2469 9.87557 16.5572 10.1657 14.9474C10.5 13.0924 10.5 11.2385 10.5 10.1199V10.11C10.5 5.34069 13.9458 1.53442 18.1076 1.50011L18.1977 1.50522L18.2083 1.50581L18.2189 1.50596C22.3035 1.56403 25.5 5.26485 25.5 10.318V10.3279C25.5 11.447 25.5 13.304 25.8357 15.162C26.1253 16.765 26.6778 18.4471 27.765 19.6534C26.7454 20.0882 24.9595 20.55 22.2827 20.23C22.1256 20.2093 21.9659 20.2269 21.817 20.2812C21.6679 20.3356 21.5342 20.4251 21.4272 20.5422C21.321 20.6566 21.243 20.7943 21.1995 20.9443C21.1557 21.0955 21.1483 21.2549 21.1778 21.4095L18.2309 -0.494865ZM23.6009 22.3293C27.9629 22.437 30.0055 20.682 30.1715 20.5317L30.1716 20.5316C30.2887 20.4256 30.3791 20.2932 30.4352 20.1455C30.4913 19.9977 30.5116 19.8388 30.4944 19.6817C30.4773 19.5246 30.4231 19.3738 30.3364 19.2417C30.2498 19.1097 30.1331 19.0001 29.996 18.9219L23.6009 22.3293Z" stroke="#2C50ED"/>
</g>
</g>
<defs>
<filter id="filter0_d_1414_40657" x="-4.87207" y="-0.997986" width="45.7441" height="41.9987" filterUnits="userSpaceOnUse" color-interpolation-filters="sRGB">
<feFlood flood-opacity="0" result="BackgroundImageFix"/>
<feColorMatrix in="SourceAlpha" type="matrix" values="0 0 0 0 0 0 0 0 0 0 0 0 0 0 0 0 0 0 127 0" result="hardAlpha"/>
<feOffset dy="4"/>
<feGaussianBlur stdDeviation="2"/>
<feComposite in2="hardAlpha" operator="out"/>
<feColorMatrix type="matrix" values="0 0 0 0 0 0 0 0 0 0 0 0 0 0 0 0 0 0 0.25 0"/>
<feBlend mode="normal" in2="BackgroundImageFix" result="effect1_dropShadow_1414_40657"/>
<feBlend mode="normal" in="SourceGraphic" in2="effect1_dropShadow_1414_40657" result="shape"/>
</filter>
<clipPath id="clip0_1414_40657">
<rect width="36" height="32" fill="white"/>
</clipPath>
</defs>
</svg>
