<svg width="40" height="40" viewBox="0 0 40 40" fill="none" xmlns="http://www.w3.org/2000/svg">
<path d="M22.0318 5.99951V7.12451C26.5338 7.87451 30.0354 11.812 30.0354 16.4995V18.6245C30.0354 21.437 30.9733 24.187 32.7241 26.437L33.662 27.562C34.0372 28.062 34.0997 28.687 33.8496 29.187C33.5995 29.687 33.0992 29.9995 32.5365 29.9995H7.52531C6.90004 29.9995 6.39981 29.687 6.1497 29.187C5.89959 28.687 5.96212 28.062 6.33728 27.562L7.2752 26.437C9.02599 24.187 10.0264 21.437 10.0264 18.6245V16.4995C10.0264 11.812 13.4655 7.87451 18.03 7.12451V5.99951C18.03 4.93701 18.9054 3.99951 20.0309 3.99951C21.0939 3.99951 22.0318 4.93701 22.0318 5.99951ZM19.5307 9.99951C15.9041 9.99951 13.0278 12.937 13.0278 16.4995V18.6245C13.0278 21.6245 12.1524 24.4995 10.5267 26.9995H29.4726C27.8469 24.4995 27.034 21.6245 27.034 18.6245V16.4995C27.034 12.937 24.0952 9.99951 20.5311 9.99951H19.5307ZM24.0327 31.9995C24.0327 33.062 23.595 34.1245 22.8447 34.8745C22.0943 35.6245 21.0313 35.9995 20.0309 35.9995C18.9679 35.9995 17.9049 35.6245 17.1546 34.8745C16.4043 34.1245 16.0291 33.062 16.0291 31.9995H24.0327Z" fill="#2C50ED"/>
</svg>
