<svg width="18" height="18" viewBox="0 0 18 18" fill="none" xmlns="http://www.w3.org/2000/svg">
<g clip-path="url(#clip0_7904_26677)">
<g filter="url(#filter0_d_7904_26677)">
<path d="M14.625 9.00003C14.625 9.63453 14.5192 10.2454 14.3258 10.8147L13.41 9.8989C13.4699 9.60303 13.5001 9.30191 13.5 9.00003V7.87503C13.5 7.72584 13.5593 7.58277 13.6648 7.47728C13.7702 7.37179 13.9133 7.31253 14.0625 7.31253C14.2117 7.31253 14.3548 7.37179 14.4602 7.47728C14.5657 7.58277 14.625 7.72584 14.625 7.87503V9.00003ZM9 13.5C9.92025 13.5 10.7752 13.2244 11.4885 12.7497L12.2963 13.5585C11.4932 14.1409 10.5497 14.4993 9.5625 14.5969V16.875H12.9375C13.0867 16.875 13.2298 16.9343 13.3352 17.0398C13.4407 17.1453 13.5 17.2883 13.5 17.4375C13.5 17.5867 13.4407 17.7298 13.3352 17.8353C13.2298 17.9408 13.0867 18 12.9375 18H5.0625C4.91332 18 4.77024 17.9408 4.66475 17.8353C4.55926 17.7298 4.5 17.5867 4.5 17.4375C4.5 17.2883 4.55926 17.1453 4.66475 17.0398C4.77024 16.9343 4.91332 16.875 5.0625 16.875H8.4375V14.5969C7.05002 14.4575 5.7638 13.8076 4.82836 12.7734C3.89293 11.7393 3.37498 10.3945 3.375 9.00003V7.87503C3.375 7.72584 3.43426 7.58277 3.53975 7.47728C3.64524 7.37179 3.78832 7.31253 3.9375 7.31253C4.08668 7.31253 4.22976 7.37179 4.33525 7.47728C4.44074 7.58277 4.5 7.72584 4.5 7.87503V9.00003C4.5 10.1935 4.97411 11.3381 5.81802 12.182C6.66193 13.0259 7.80653 13.5 9 13.5ZM12.375 3.37503V8.8639L5.80275 2.29165C6.06031 1.5348 6.5781 0.893906 7.26394 0.483066C7.94978 0.0722269 8.75916 -0.0818959 9.54799 0.0481359C10.3368 0.178168 11.0539 0.583915 11.5716 1.19315C12.0893 1.80238 12.374 2.57555 12.375 3.37503Z" fill="white"/>
<path d="M10.6718 11.9329L5.62506 6.88506V9.00006C5.62488 9.59104 5.77989 10.1717 6.07458 10.684C6.36927 11.1962 6.7933 11.6222 7.30427 11.9191C7.81523 12.216 8.39521 12.3736 8.98619 12.376C9.57716 12.3785 10.1584 12.2257 10.6718 11.9329ZM1.85181 1.52331L15.3518 15.0233L16.1483 14.2268L2.64831 0.726807L1.85181 1.52331Z" fill="white"/>
</g>
</g>
<defs>
<filter id="filter0_d_7904_26677" x="-2.14819" y="0.00317383" width="22.2965" height="25.9968" filterUnits="userSpaceOnUse" color-interpolation-filters="sRGB">
<feFlood flood-opacity="0" result="BackgroundImageFix"/>
<feColorMatrix in="SourceAlpha" type="matrix" values="0 0 0 0 0 0 0 0 0 0 0 0 0 0 0 0 0 0 127 0" result="hardAlpha"/>
<feOffset dy="4"/>
<feGaussianBlur stdDeviation="2"/>
<feComposite in2="hardAlpha" operator="out"/>
<feColorMatrix type="matrix" values="0 0 0 0 0 0 0 0 0 0 0 0 0 0 0 0 0 0 0.25 0"/>
<feBlend mode="normal" in2="BackgroundImageFix" result="effect1_dropShadow_7904_26677"/>
<feBlend mode="normal" in="SourceGraphic" in2="effect1_dropShadow_7904_26677" result="shape"/>
</filter>
<clipPath id="clip0_7904_26677">
<rect width="18" height="18" fill="white"/>
</clipPath>
</defs>
</svg>
