<svg width="24" height="22" viewBox="0 0 24 22" fill="none" xmlns="http://www.w3.org/2000/svg">
<path d="M9.6 0C8.32696 0 7.10606 0.515078 6.20589 1.43192C5.30571 2.34877 4.8 3.59227 4.8 4.88889C4.8 6.1855 5.30571 7.42901 6.20589 8.34586C7.10606 9.2627 8.32696 9.77778 9.6 9.77778C10.873 9.77778 12.0939 9.2627 12.9941 8.34586C13.8943 7.42901 14.4 6.1855 14.4 4.88889C14.4 3.59227 13.8943 2.34877 12.9941 1.43192C12.0939 0.515078 10.873 0 9.6 0ZM18.6 11C15.6 11 13.2 13.4444 13.2 16.5C13.2 19.5556 15.6 22 18.6 22C21.6 22 24 19.5556 24 16.5C24 13.4444 21.6 11 18.6 11ZM9.6 12.2222C4.296 12.2222 0 14.41 0 17.1111V19.5556H11.4C11.0039 18.5874 10.8 17.5489 10.8 16.5C10.8051 15.0508 11.1994 13.6307 11.94 12.3933C11.184 12.2956 10.416 12.2222 9.6 12.2222ZM18.6 12.8333C20.592 12.8333 22.2 14.4711 22.2 16.5C22.2 17.1844 22.02 17.82 21.696 18.3333L16.8 13.3467C17.304 13.0167 17.928 12.8333 18.6 12.8333ZM15.504 14.6667L20.4 19.6533C19.896 19.9833 19.272 20.1667 18.6 20.1667C16.608 20.1667 15 18.5289 15 16.5C15 15.8156 15.18 15.18 15.504 14.6667Z" fill="white"/>
</svg>
