<svg width="48" height="44" viewBox="0 0 48 44" fill="none" xmlns="http://www.w3.org/2000/svg">
<g filter="url(#filter0_d_8028_26314)">
<path d="M31.414 9.55752C31.0731 9.55752 30.7781 9.43142 30.529 9.1792C30.2799 8.92699 30.1554 8.62832 30.1554 8.28319C30.1554 7.60619 30.2799 6.95575 30.529 6.33186C30.7781 5.70796 31.1452 5.15708 31.6303 4.6792L33.1839 3.08628C33.6821 2.58186 33.9312 1.97788 33.9312 1.27434C33.9312 0.929204 34.0557 0.630531 34.3048 0.378319C34.5539 0.126106 34.8489 0 35.1898 0C35.5306 0 35.8256 0.126106 36.0747 0.378319C36.3238 0.630531 36.4484 0.929204 36.4484 1.27434C36.4484 1.95133 36.3238 2.60177 36.0747 3.22566C35.8256 3.84956 35.4585 4.40044 34.9734 4.87832L33.4199 6.47124C32.9217 6.97566 32.6726 7.57965 32.6726 8.28319C32.6726 8.62832 32.548 8.92699 32.2989 9.1792C32.0498 9.43142 31.7548 9.55752 31.414 9.55752ZM23.8623 9.55752C23.5215 9.55752 23.2265 9.43142 22.9774 9.1792C22.7283 8.92699 22.6037 8.62832 22.6037 8.28319C22.6037 7.60619 22.7283 6.95575 22.9774 6.33186C23.2265 5.70796 23.5936 5.15708 24.0787 4.6792L25.6323 3.08628C26.1304 2.58186 26.3795 1.97788 26.3795 1.27434C26.3795 0.929204 26.5041 0.630531 26.7532 0.378319C27.0023 0.126106 27.2973 0 27.6382 0C27.979 0 28.274 0.126106 28.5231 0.378319C28.7722 0.630531 28.8968 0.929204 28.8968 1.27434C28.8968 1.95133 28.7722 2.60177 28.5231 3.22566C28.274 3.84956 27.9069 4.40044 27.4218 4.87832L25.8682 6.47124C25.37 6.97566 25.1209 7.57965 25.1209 8.28319C25.1209 8.62832 24.9964 8.92699 24.7473 9.1792C24.4982 9.43142 24.2032 9.55752 23.8623 9.55752ZM40.2242 13.0619C40.7486 13.0619 41.2402 13.1615 41.6991 13.3606C42.158 13.5597 42.5578 13.8319 42.8987 14.177C43.2396 14.5221 43.5084 14.927 43.705 15.3916C43.9017 15.8562 44 16.354 44 16.885V24.531C44 25.0619 43.9017 25.5597 43.705 26.0243C43.5084 26.4889 43.2396 26.8938 42.8987 27.2389C42.5578 27.5841 42.158 27.8562 41.6991 28.0553C41.2402 28.2544 40.7486 28.354 40.2242 28.354H39.1032C39.077 28.4469 39.0574 28.5332 39.0442 28.6128C39.0311 28.6925 39.0049 28.7721 38.9656 28.8518V29.6283C38.9656 30.5044 38.8017 31.3274 38.4739 32.0973C38.1462 32.8673 37.6939 33.5443 37.117 34.1283C36.5401 34.7124 35.8715 35.1704 35.1111 35.5022C34.3507 35.8341 33.5379 36 32.6726 36H25.1209C24.0983 36 23.1544 35.7677 22.2891 35.3031C21.4238 34.8385 20.7027 34.2212 20.1259 33.4513H10.293C9.42773 33.4513 8.61488 33.2854 7.85447 32.9535C7.09407 32.6217 6.42543 32.1704 5.84857 31.5996C5.27171 31.0288 4.8194 30.3518 4.49164 29.5686C4.16388 28.7854 4 27.9558 4 27.0796V25.8053H9.03441C9.03441 24.7566 9.23107 23.7677 9.62439 22.8385C10.0177 21.9093 10.5618 21.0996 11.2566 20.4093C11.9515 19.719 12.7512 19.1681 13.6559 18.7566C14.5605 18.3451 15.5372 18.146 16.586 18.1593C16.9794 18.1593 17.3596 18.1925 17.7266 18.2589C18.0937 18.3252 18.4608 18.4181 18.8279 18.5376V10.5133H38.9656V13.0619H40.2242ZM16.586 20.708C15.8912 20.708 15.2422 20.8407 14.6391 21.1062C14.0361 21.3717 13.4985 21.7367 13.0265 22.2013C12.5546 22.6659 12.194 23.2035 11.9449 23.8142C11.6958 24.4248 11.5647 25.0885 11.5516 25.8053H18.8279V21.2655C18.4871 21.0929 18.1331 20.9602 17.766 20.8673C17.3989 20.7743 17.0056 20.7212 16.586 20.708ZM10.293 30.9027H18.9656C18.8738 30.5177 18.8279 30.0929 18.8279 29.6283V28.354H6.73353C6.86463 28.7257 7.04818 29.0642 7.28417 29.3695C7.52016 29.6748 7.78892 29.9469 8.09046 30.1858C8.392 30.4248 8.73287 30.5973 9.11308 30.7035C9.49328 30.8097 9.88659 30.8761 10.293 30.9027ZM19.3982 32.2367V32.2566L19.4179 32.2965V32.2766L19.3982 32.2367ZM36.4484 29.6283V13.0619H21.3451V29.6283C21.3451 30.1593 21.4435 30.6571 21.6401 31.1217C21.8368 31.5863 22.1055 31.9912 22.4464 32.3363C22.7873 32.6814 23.1872 32.9535 23.646 33.1527C24.1049 33.3518 24.5965 33.4513 25.1209 33.4513H32.6726C33.197 33.4513 33.6886 33.3518 34.1475 33.1527C34.6064 32.9535 35.0062 32.6814 35.3471 32.3363C35.688 31.9912 35.9567 31.5863 36.1534 31.1217C36.35 30.6571 36.4484 30.1593 36.4484 29.6283ZM41.4828 24.531V16.885C41.4828 16.5398 41.3582 16.2412 41.1091 15.9889C40.86 15.7367 40.5651 15.6106 40.2242 15.6106H38.9656V25.8053H40.2242C40.5651 25.8053 40.86 25.6792 41.1091 25.427C41.3582 25.1748 41.4828 24.8761 41.4828 24.531Z" fill="#2C50ED"/>
</g>
<defs>
<filter id="filter0_d_8028_26314" x="0" y="0" width="48" height="44" filterUnits="userSpaceOnUse" color-interpolation-filters="sRGB">
<feFlood flood-opacity="0" result="BackgroundImageFix"/>
<feColorMatrix in="SourceAlpha" type="matrix" values="0 0 0 0 0 0 0 0 0 0 0 0 0 0 0 0 0 0 127 0" result="hardAlpha"/>
<feOffset dy="4"/>
<feGaussianBlur stdDeviation="2"/>
<feComposite in2="hardAlpha" operator="out"/>
<feColorMatrix type="matrix" values="0 0 0 0 0 0 0 0 0 0 0 0 0 0 0 0 0 0 0.25 0"/>
<feBlend mode="normal" in2="BackgroundImageFix" result="effect1_dropShadow_8028_26314"/>
<feBlend mode="normal" in="SourceGraphic" in2="effect1_dropShadow_8028_26314" result="shape"/>
</filter>
</defs>
</svg>
