<svg width="25" height="25" viewBox="0 0 25 25" fill="none" xmlns="http://www.w3.org/2000/svg">
<path d="M21.4286 1.78564H20.5357V0.91789C20.5357 0.43742 20.1663 0.0250302 19.6858 0.00103459C19.5651 -0.00478195 19.4445 0.0139722 19.3312 0.0561608C19.2179 0.0983493 19.1144 0.163094 19.0269 0.246471C18.9394 0.329849 18.8698 0.430123 18.8222 0.541218C18.7746 0.652313 18.75 0.771915 18.75 0.892779V1.78564H6.25V0.91789C6.25 0.43742 5.88058 0.0250302 5.40011 0.00103459C5.27939 -0.00478195 5.15874 0.0139722 5.04548 0.0561608C4.93222 0.0983493 4.8287 0.163094 4.74121 0.246471C4.65371 0.329849 4.58405 0.430123 4.53645 0.541218C4.48885 0.652313 4.4643 0.771915 4.46429 0.892779V1.78564H3.57143C2.62423 1.78564 1.71582 2.16191 1.04605 2.83169C0.376274 3.50146 0 4.40987 0 5.35708V6.02672C0 6.08592 0.0235172 6.1427 0.065378 6.18456C0.107239 6.22642 0.164014 6.24994 0.223214 6.24994H24.7768C24.836 6.24994 24.8928 6.22642 24.9346 6.18456C24.9765 6.1427 25 6.08592 25 6.02672V5.35708C25 4.40987 24.6237 3.50146 23.954 2.83169C23.2842 2.16191 22.3758 1.78564 21.4286 1.78564ZM24.7768 8.03566H0.223214C0.164014 8.03566 0.107239 8.05918 0.065378 8.10104C0.0235172 8.1429 0 8.19967 0 8.25887V21.4286C0 22.3758 0.376274 23.2842 1.04605 23.9539C1.71582 24.6237 2.62423 25 3.57143 25H21.4286C22.3758 25 23.2842 24.6237 23.954 23.9539C24.6237 23.2842 25 22.3758 25 21.4286V8.25887C25 8.19967 24.9765 8.1429 24.9346 8.10104C24.8928 8.05918 24.836 8.03566 24.7768 8.03566ZM11.5837 20.5971C10.9046 21.1334 9.97935 21.4286 8.97768 21.4286C7.42243 21.4286 6.27232 20.4152 5.76004 19.548C5.63942 19.344 5.60476 19.1005 5.66368 18.871C5.7226 18.6415 5.87027 18.4448 6.07422 18.3242C6.27816 18.2036 6.52167 18.1689 6.75117 18.2278C6.98067 18.2868 7.17737 18.4344 7.29799 18.6384C7.35826 18.7411 7.9202 19.6428 8.97768 19.6428C9.90737 19.6428 10.9933 19.236 10.9933 18.0904C10.9933 17.7416 10.9252 17.2561 10.6027 16.9252C10.1261 16.4375 9.33315 16.2182 8.92243 16.2182C8.68563 16.2182 8.45853 16.1241 8.29109 15.9566C8.12364 15.7892 8.02958 15.5621 8.02958 15.3253C8.02958 15.0885 8.12364 14.8614 8.29109 14.694C8.45853 14.5265 8.68563 14.4324 8.92243 14.4324C9.19308 14.4324 9.89397 14.2874 10.3331 13.8381C10.452 13.7213 10.5457 13.5815 10.6088 13.4272C10.6718 13.2729 10.7028 13.1074 10.6998 12.9408C10.6998 11.6445 9.10212 11.6071 8.9202 11.6071C7.95257 11.6071 7.59208 12.1992 7.57701 12.2243C7.519 12.3283 7.44077 12.4196 7.34693 12.493C7.25309 12.5663 7.14553 12.6201 7.03059 12.6512C6.91564 12.6823 6.79563 12.6901 6.67762 12.6742C6.5596 12.6582 6.44598 12.6188 6.34342 12.5583C6.24087 12.4978 6.15145 12.4173 6.08045 12.3217C6.00945 12.2261 5.95828 12.1173 5.92998 12.0016C5.90167 11.8859 5.89678 11.7658 5.91561 11.6482C5.93444 11.5306 5.97661 11.418 6.03962 11.3169C6.46596 10.5915 7.44699 9.82138 8.9202 9.82138C9.83761 9.82138 10.6925 10.0876 11.327 10.5703C12.0742 11.1395 12.4855 11.981 12.4855 12.9408C12.488 13.3387 12.4117 13.7332 12.2609 14.1015C12.1102 14.4698 11.888 14.8045 11.6071 15.0865C11.543 15.1523 11.4754 15.2137 11.4068 15.2734C11.5745 15.3945 11.7316 15.5295 11.8767 15.6769C12.466 16.2795 12.7773 17.1138 12.7773 18.0904C12.779 19.0982 12.3544 19.9883 11.5837 20.5971ZM18.75 20.3125C18.75 20.5493 18.6559 20.7764 18.4885 20.9438C18.321 21.1113 18.0939 21.2053 17.8571 21.2053C17.6203 21.2053 17.3932 21.1113 17.2258 20.9438C17.0584 20.7764 16.9643 20.5493 16.9643 20.3125V12.5161L15.7081 13.4419C15.6138 13.5115 15.5066 13.5619 15.3927 13.5901C15.2789 13.6183 15.1606 13.6238 15.0446 13.6063C14.9287 13.5888 14.8173 13.5486 14.7168 13.488C14.6164 13.4274 14.5289 13.3477 14.4593 13.2533C14.3896 13.1589 14.3393 13.0517 14.3111 12.9379C14.2829 12.8241 14.2774 12.7058 14.2949 12.5898C14.3124 12.4738 14.3526 12.3624 14.4132 12.262C14.4737 12.1616 14.5535 12.074 14.6479 12.0044L17.0709 10.2187C17.2243 10.1056 17.4099 10.0446 17.6004 10.0446H17.8571C18.0939 10.0446 18.321 10.1387 18.4885 10.3061C18.6559 10.4736 18.75 10.7007 18.75 10.9375V20.3125Z" fill="#2C50ED"/>
</svg>
