<svg width="34" height="34" viewBox="0 0 34 34" fill="none" xmlns="http://www.w3.org/2000/svg">
<path d="M28.5833 33.6667C24.9999 33.6667 21.5066 32.8678 18.1033 31.27C14.6999 29.6723 11.686 27.5612 9.06159 24.9367C6.43714 22.3123 4.32603 19.2984 2.72825 15.895C1.13048 12.4917 0.332142 8.99893 0.333253 5.41671V3.66671H10.1666L11.7083 12L6.99992 16.8334C8.16659 18.8334 9.62492 20.7084 11.3749 22.4584C13.1249 24.2084 15.0555 25.7223 17.1666 27L21.9999 22.1667L30.3333 23.8334V33.6667H28.5833ZM25.3333 17C23.0277 17 21.0621 16.1873 19.4366 14.5617C17.811 12.9362 16.9988 10.9712 16.9999 8.66671C16.9999 6.36115 17.8127 4.3956 19.4383 2.77004C21.0638 1.14449 23.0288 0.332264 25.3333 0.333375C27.6388 0.333375 29.6044 1.14615 31.2299 2.77171C32.8555 4.39726 33.6677 6.36226 33.6666 8.66671C33.6666 10.9723 32.8538 12.9378 31.2283 14.5634C29.6027 16.1889 27.6377 17.0012 25.3333 17ZM24.4999 13.6667H26.1666V7.00004H24.4999V13.6667ZM25.3333 5.33337C25.5555 5.33337 25.7499 5.25004 25.9166 5.08337C26.0833 4.91671 26.1666 4.72226 26.1666 4.50004C26.1666 4.27782 26.0833 4.08338 25.9166 3.91671C25.7499 3.75004 25.5555 3.66671 25.3333 3.66671C25.111 3.66671 24.9166 3.75004 24.7499 3.91671C24.5833 4.08338 24.4999 4.27782 24.4999 4.50004C24.4999 4.72226 24.5833 4.91671 24.7499 5.08337C24.9166 5.25004 25.111 5.33337 25.3333 5.33337Z" fill="#2C50ED"/>
</svg>
