<svg width="17" height="16" viewBox="0 0 17 16" fill="none" xmlns="http://www.w3.org/2000/svg">
<path d="M1.56799 1.18896L15.573 15.194" stroke="white" stroke-width="1.3" stroke-linecap="round" stroke-linejoin="round"/>
<path d="M14.3 14.5709C14.659 14.5709 14.95 14.2799 14.95 13.9209C14.95 13.5619 14.659 13.2709 14.3 13.2709V14.5709ZM2.84099 13.9209V13.2709H2.84099L2.84099 13.9209ZM1.56799 12.6469L2.21799 12.6474V12.6469H1.56799ZM1.56799 5.64691H2.218L2.21799 5.64589L1.56799 5.64691ZM2.84099 4.37191L2.84099 5.02191H2.84099V4.37191ZM4.75099 5.02191C5.10998 5.02191 5.40099 4.7309 5.40099 4.37191C5.40099 4.01293 5.10998 3.72191 4.75099 3.72191V5.02191ZM6.661 1.81191C6.30201 1.81191 6.01099 2.10293 6.01099 2.46191C6.01099 2.8209 6.30201 3.11191 6.661 3.11191V1.81191ZM10.481 2.46191L11.0219 2.10142C10.9013 1.92056 10.6984 1.81191 10.481 1.81191V2.46191ZM11.754 4.37191L11.2131 4.7324C11.3337 4.91327 11.5366 5.02191 11.754 5.02191V4.37191ZM14.3 4.37191L14.3025 3.72191H14.3V4.37191ZM15.568 5.64491L14.918 5.64491V5.64491H15.568ZM14.918 11.5909C14.918 11.9499 15.209 12.2409 15.568 12.2409C15.927 12.2409 16.218 11.9499 16.218 11.5909H14.918ZM11.1944 10.646C11.3971 10.3498 11.3214 9.94526 11.0251 9.74251C10.7289 9.53976 10.3243 9.61555 10.1216 9.9118L11.1944 10.646ZM7.48611 7.27632C7.78235 7.07357 7.85815 6.66905 7.6554 6.3728C7.45265 6.07656 7.04813 6.00076 6.75188 6.20351L7.48611 7.27632ZM14.3 13.2709H2.84099V14.5709H14.3V13.2709ZM2.84099 13.2709C2.67568 13.2709 2.51714 13.2052 2.40029 13.0883L1.48069 14.0071C1.84137 14.3681 2.33072 14.5709 2.84099 14.5709L2.84099 13.2709ZM2.40029 13.0883C2.28344 12.9713 2.21786 12.8127 2.21799 12.6474L0.917995 12.6464C0.917594 13.1567 1.12002 13.6462 1.48069 14.0071L2.40029 13.0883ZM2.21799 12.6469V5.64691H0.917995V12.6469H2.21799ZM2.21799 5.64589C2.21773 5.48049 2.28326 5.32178 2.40012 5.20473L1.48016 4.28622C1.11944 4.6475 0.917193 5.1374 0.917996 5.64794L2.21799 5.64589ZM2.40012 5.20473C2.51698 5.08769 2.67559 5.02191 2.84099 5.02191L2.841 3.72191C2.33046 3.72191 1.84088 3.92493 1.48016 4.28622L2.40012 5.20473ZM2.84099 5.02191H4.75099V3.72191H2.84099V5.02191ZM6.661 3.11191H10.481V1.81191H6.661V3.11191ZM9.94012 2.8224L11.2131 4.7324L12.2949 4.01142L11.0219 2.10142L9.94012 2.8224ZM11.754 5.02191H14.3V3.72191H11.754V5.02191ZM14.2974 5.02191C14.6406 5.02326 14.918 5.30179 14.918 5.64491L16.218 5.64492C16.218 4.58582 15.3616 3.72608 14.3025 3.72192L14.2974 5.02191ZM14.918 5.64491V11.5909H16.218V5.64491H14.918ZM10.1216 9.9118C9.69137 10.5404 8.92671 10.8505 8.18016 10.6992L7.92181 11.9732C9.18024 12.2284 10.4692 11.7057 11.1944 10.646L10.1216 9.9118ZM8.18016 10.6992C7.4336 10.5478 6.85014 9.9643 6.69876 9.21775L5.42469 9.4761C5.67986 10.7345 6.66338 11.7181 7.92181 11.9732L8.18016 10.6992ZM6.69876 9.21775C6.54738 8.4712 6.85749 7.70654 7.48611 7.27632L6.75188 6.20351C5.69225 6.92872 5.16951 8.21767 5.42469 9.4761L6.69876 9.21775Z" fill="white"/>
</svg>
