<svg width="40" height="40" viewBox="0 0 40 40" fill="none" xmlns="http://www.w3.org/2000/svg">
<g clip-path="url(#clip0_1414_40613)">
<g filter="url(#filter0_d_1414_40613)">
<path d="M27.0833 17.5L22.9166 21.6667L24.6666 23.4167L25.7499 22.3333C25.5833 23.8056 24.9583 25.0344 23.8749 26.02C22.7916 27.0056 21.4999 27.4989 19.9999 27.5C19.611 27.5 19.2499 27.465 18.9166 27.395C18.5833 27.325 18.2499 27.2211 17.9166 27.0833L16.0833 28.9167C16.6666 29.25 17.2849 29.5139 17.9383 29.7083C18.5916 29.9028 19.2788 30 19.9999 30C22.2221 30 24.1183 29.25 25.6883 27.75C27.2583 26.25 28.1121 24.4167 28.2499 22.25L29.4999 23.4167L31.2499 21.6667L27.0833 17.5ZM12.9166 25.8333L17.0833 21.6667L15.3333 19.9167L14.2499 21C14.4166 19.5278 15.0416 18.2989 16.1249 17.3133C17.2083 16.3278 18.4999 15.8344 19.9999 15.8333C20.3888 15.8333 20.7499 15.8683 21.0833 15.9383C21.4166 16.0083 21.7499 16.1122 22.0833 16.25L23.9166 14.4167C23.3333 14.0833 22.7149 13.8194 22.0616 13.625C21.4083 13.4306 20.721 13.3333 19.9999 13.3333C17.7777 13.3333 15.8816 14.0833 14.3116 15.5833C12.7416 17.0833 11.8877 18.9167 11.7499 21.0833L10.4999 19.9167L8.74992 21.6667L12.9166 25.8333ZM6.66659 35C5.74992 35 4.96492 34.6733 4.31159 34.02C3.65825 33.3667 3.33214 32.5822 3.33325 31.6667V11.6667C3.33325 10.75 3.65992 9.965 4.31325 9.31167C4.96659 8.65833 5.75103 8.33222 6.66659 8.33333H11.9166L14.9999 5H24.9999L28.0833 8.33333H33.3333C34.2499 8.33333 35.0349 8.66 35.6883 9.31333C36.3416 9.96667 36.6677 10.7511 36.6666 11.6667V31.6667C36.6666 32.5833 36.3399 33.3683 35.6866 34.0217C35.0333 34.675 34.2488 35.0011 33.3333 35H6.66659Z" fill="#2C50ED"/>
</g>
</g>
<defs>
<filter id="filter0_d_1414_40613" x="-0.666748" y="5" width="41.3333" height="38" filterUnits="userSpaceOnUse" color-interpolation-filters="sRGB">
<feFlood flood-opacity="0" result="BackgroundImageFix"/>
<feColorMatrix in="SourceAlpha" type="matrix" values="0 0 0 0 0 0 0 0 0 0 0 0 0 0 0 0 0 0 127 0" result="hardAlpha"/>
<feOffset dy="4"/>
<feGaussianBlur stdDeviation="2"/>
<feComposite in2="hardAlpha" operator="out"/>
<feColorMatrix type="matrix" values="0 0 0 0 0 0 0 0 0 0 0 0 0 0 0 0 0 0 0.25 0"/>
<feBlend mode="normal" in2="BackgroundImageFix" result="effect1_dropShadow_1414_40613"/>
<feBlend mode="normal" in="SourceGraphic" in2="effect1_dropShadow_1414_40613" result="shape"/>
</filter>
<clipPath id="clip0_1414_40613">
<rect width="40" height="40" fill="white"/>
</clipPath>
</defs>
</svg>
