<svg width="18" height="18" viewBox="0 0 18 18" fill="none" xmlns="http://www.w3.org/2000/svg">
<g clip-path="url(#clip0_1471_36477)">
<path d="M12.7157 18.875H11.634V17.1875C11.6331 16.4419 11.3479 15.727 10.8409 15.1997C10.334 14.6725 9.6466 14.3759 8.92963 14.375H5.68444C4.96747 14.3759 4.28011 14.6725 3.77314 15.1997C3.26617 15.727 2.98097 16.4419 2.98011 17.1875V18.875H1.89838V17.1875C1.89953 16.1436 2.29878 15.1427 3.00856 14.4046C3.71833 13.6664 4.68067 13.2512 5.68444 13.25H8.92963C9.9334 13.2512 10.8957 13.6664 11.6055 14.4046C12.3153 15.1427 12.7145 16.1436 12.7157 17.1875V18.875ZM1.35752 5.375C1.21407 5.375 1.0765 5.43426 0.975066 5.53975C0.873634 5.64524 0.81665 5.78832 0.81665 5.9375V11H1.89838V5.9375C1.89838 5.78832 1.8414 5.64524 1.73997 5.53975C1.63853 5.43426 1.50096 5.375 1.35752 5.375Z" fill="#2C50ED"/>
<path d="M0.81665 3.125V4.25H3.52098V8.1875C3.52098 9.23179 3.91986 10.2333 4.62989 10.9717C5.33991 11.7102 6.30291 12.125 7.30703 12.125C8.31116 12.125 9.27416 11.7102 9.98418 10.9717C10.6942 10.2333 11.0931 9.23179 11.0931 8.1875V4.25H13.7974V3.125H0.81665ZM4.60271 4.25H10.0114V5.9375H4.60271V4.25ZM7.30703 11C6.5898 11 5.90195 10.7037 5.39479 10.1762C4.88763 9.64879 4.60271 8.93342 4.60271 8.1875V7.0625H10.0114V8.1875C10.0114 8.93342 9.72644 9.64879 9.21928 10.1762C8.71212 10.7037 8.02427 11 7.30703 11Z" fill="#2C50ED"/>
</g>
<defs>
<clipPath id="clip0_1471_36477">
<rect width="17.3077" height="18" fill="white" transform="translate(0.576172)"/>
</clipPath>
</defs>
</svg>
