<svg width="7" height="9" viewBox="0 0 7 9" fill="none" xmlns="http://www.w3.org/2000/svg">
<path d="M6.14014 4.39325C6.06301 4.32024 5.94226 4.32024 5.86514 4.39325L5.76514 4.49325L5.66514 4.39325C5.58779 4.3267 5.47221 4.33102 5.40006 4.40318C5.32791 4.47533 5.32358 4.59091 5.39014 4.66825L5.49014 4.76825L5.39014 4.86825C5.33469 4.91597 5.31061 4.99071 5.32777 5.06182C5.34494 5.13293 5.40046 5.18845 5.47157 5.20562C5.54268 5.22278 5.61742 5.1987 5.66514 5.14325L5.76514 5.04325L5.86514 5.14325C5.91285 5.1987 5.98759 5.22278 6.0587 5.20562C6.12981 5.18845 6.18533 5.13293 6.2025 5.06182C6.21967 4.99071 6.19559 4.91597 6.14014 4.86825L6.04014 4.76825L6.14014 4.66825C6.21315 4.59113 6.21315 4.47038 6.14014 4.39325Z" fill="white"/>
<path d="M0.488104 3.24323C0.564167 3.31887 0.68704 3.31887 0.763104 3.24323L0.863104 3.14323L0.963104 3.24323C1.01082 3.29868 1.08556 3.32276 1.15667 3.30559C1.22778 3.28843 1.2833 3.23291 1.30047 3.16179C1.31763 3.09068 1.29355 3.01595 1.2381 2.96823L1.1381 2.86823L1.2381 2.76823C1.30466 2.69088 1.30034 2.57531 1.22818 2.50315C1.15603 2.431 1.04045 2.42667 0.963104 2.49323L0.863104 2.59323L0.763104 2.49323C0.685758 2.42667 0.570179 2.431 0.498025 2.50315C0.425872 2.57531 0.421546 2.69088 0.488104 2.76823L0.588104 2.86823L0.488104 2.96823C0.415086 3.04536 0.415086 3.1661 0.488104 3.24323Z" fill="white"/>
<path d="M1.87098 1.38223C1.94704 1.45787 2.06991 1.45787 2.14598 1.38223L2.24598 1.28223L2.34598 1.38223C2.42192 1.45955 2.54616 1.46067 2.62348 1.38473C2.7008 1.30879 2.70192 1.18455 2.62598 1.10723L2.52598 1.00723L2.62598 0.907227C2.68143 0.859512 2.70551 0.784775 2.68834 0.713663C2.67117 0.642552 2.61565 0.58703 2.54454 0.569864C2.47343 0.552699 2.39869 0.576778 2.35098 0.632227L2.25098 0.732227L2.15098 0.632227C2.10326 0.576778 2.02852 0.552699 1.95741 0.569864C1.8863 0.58703 1.83078 0.642552 1.81361 0.713663C1.79645 0.784775 1.82053 0.859512 1.87598 0.907227L1.97598 1.00723L1.87598 1.10723C1.80154 1.18302 1.79934 1.30378 1.87098 1.38223Z" fill="white"/>
<path d="M5.77504 3.25417C5.86738 3.26104 5.95859 3.2304 6.02804 3.16917C6.60698 2.58458 6.60698 1.64275 6.02804 1.05817C5.75175 0.779017 5.3753 0.621948 4.98254 0.621948C4.58978 0.621948 4.21333 0.779017 3.93704 1.05817C3.72104 1.27617 3.91004 1.95217 4.52704 2.57417C4.84859 2.94247 5.29124 3.18365 5.77504 3.25417Z" fill="white"/>
<path d="M3.159 2.40125L0.659004 5.46425C0.574882 5.5677 0.582657 5.71802 0.677004 5.81225L0.796004 5.93125L0.346004 6.38125C-0.0882188 6.78126 -0.117712 7.45692 0.280004 7.89325L0.819004 8.43225C0.92194 8.52324 1.0779 8.51844 1.17505 8.42129C1.2722 8.32414 1.277 8.16818 1.186 8.06525L0.647004 7.52625C0.457171 7.29088 0.486726 6.94769 0.714004 6.74825L1.164 6.29825L1.283 6.41724C1.37723 6.51159 1.52755 6.51937 1.631 6.43525L4.681 3.94425C4.30128 3.88104 3.95126 3.69938 3.681 3.42525C3.40264 3.14803 3.2198 2.78937 3.159 2.40125Z" fill="white"/>
<path d="M4.2651 2.83124C3.95382 2.52821 3.71459 2.15912 3.5651 1.75124L3.5551 1.71924C3.41387 2.23575 3.5587 2.78838 3.9351 3.16924C4.31108 3.5491 4.86341 3.69532 5.3781 3.55124C4.95565 3.40209 4.57432 3.15541 4.2651 2.83124Z" fill="white"/>
</svg>
