<svg width="66" height="55" viewBox="0 0 66 55" fill="none" xmlns="http://www.w3.org/2000/svg">
<path d="M12.9486 0C11.0339 0 9.57688 0.739784 8.34692 2.01595C7.11709 3.29226 6.15309 5.14522 5.50435 7.2681C4.6846 9.95092 4.39692 13.0503 4.54536 15.7917C4.65939 15.7796 4.77364 15.7701 4.88804 15.7633C6.05492 15.7018 7.16012 15.9295 8.15949 16.4065C10.1584 17.3604 11.7014 19.1818 12.9018 21.31C15.005 25.0382 16.1305 29.7782 16.3774 33.5514C32.2649 31.3908 33.7351 31.3908 49.6228 33.5514C49.8695 29.778 50.9951 25.0382 53.0982 21.3099C54.2985 19.1818 55.8417 17.3604 57.8405 16.4063C58.9371 15.8832 60.1618 15.6623 61.4547 15.7917C61.6031 13.0503 61.3154 9.95092 60.4957 7.2681C59.8469 5.14506 58.8829 3.29226 57.6531 2.01595C56.4232 0.739784 54.9661 0 53.0515 0H12.9486ZM5.28573 18.4569C5.19021 18.4557 5.09357 18.4578 4.99582 18.463C4.21312 18.5061 3.35271 18.7635 2.36936 19.2998C-0.890809 21.0782 -1.29964 29.2781 4.43299 31.3627L5.06029 31.5909L9.43819 48.3062H56.5618L60.9397 31.5909L61.5669 31.3627C67.2997 29.2781 66.8908 21.0782 63.6305 19.2998C61.6642 18.2272 60.1881 18.2707 58.8451 18.9117C57.502 19.5528 56.2601 20.9214 55.2326 22.7428C53.1776 26.3861 52.0767 31.7484 52.0767 35.0903V36.639L50.668 36.4469C32.8445 34.0164 33.1556 34.0164 15.3321 36.4469L13.9233 36.639V35.0903C13.9233 31.7484 12.8224 26.3861 10.7674 22.7429C9.73979 20.9214 8.498 19.5528 7.15497 18.9119C6.56735 18.6313 5.95411 18.4653 5.28573 18.4569ZM9.01168 51.0405L5.77114 54.5755C7.44126 55.0675 10.4707 55.1471 11.6954 54.3224C12.151 53.6092 12.6566 52.1143 13.1488 51.0405H9.01168ZM52.8514 51.0405C53.0594 51.9545 53.8194 53.9449 54.3047 54.3224C56.1427 55.1523 58.4687 55.1995 60.2289 54.5755L56.9884 51.0405H52.8514Z" fill="black"/>
</svg>
