<svg width="9" height="9" viewBox="0 0 9 9" fill="none" xmlns="http://www.w3.org/2000/svg">
<path fill-rule="evenodd" clip-rule="evenodd" d="M0.992088 4.43651C0.992088 2.17366 2.61663 0.332764 4.61304 0.332764C6.60974 0.332764 8.23399 2.17583 8.23399 4.43868C8.23399 6.70153 6.60974 8.54243 4.61304 8.54243C4.1068 8.54436 3.60504 8.42307 3.13535 8.18525C2.50656 8.59235 1.82889 8.86645 1.12945 8.99659C1.12391 8.9971 1.11834 8.9971 1.11279 8.99659C1.06381 8.99704 1.01947 8.96017 1.00057 8.90327C0.981663 8.84637 0.991937 8.78073 1.02657 8.73712C1.30418 8.38754 1.49557 7.65002 1.56684 6.6563C1.19471 6.01085 0.993595 5.23413 0.992088 4.43651ZM2.43755 4.43633C2.43755 4.7721 2.6537 5.04429 2.92034 5.04429C3.18685 5.04389 3.40282 4.77193 3.40314 4.43633C3.40314 4.10056 3.18698 3.82837 2.92034 3.82837C2.6537 3.82837 2.43755 4.10056 2.43755 4.43633ZM4.61288 5.04429C4.34624 5.04429 4.13009 4.7721 4.13009 4.43633C4.13009 4.10056 4.34624 3.82837 4.61288 3.82837C4.87952 3.82837 5.09568 4.10056 5.09568 4.43633C5.09536 4.77193 4.87939 5.04389 4.61288 5.04429ZM5.82244 4.43633C5.82244 4.7721 6.03859 5.04429 6.30523 5.04429H6.30552C6.57191 5.0437 6.78771 4.77179 6.78802 4.43633C6.78802 4.10056 6.57187 3.82837 6.30523 3.82837C6.03859 3.82837 5.82244 4.10056 5.82244 4.43633Z" fill="#2C50ED"/>
</svg>
