<svg width="30" height="20" viewBox="0 0 30 20" fill="none" xmlns="http://www.w3.org/2000/svg">
<path d="M8.93527 11.6819C7.12727 11.6819 3.49827 8.03594 2.06727 6.51895C2.76399 6.19593 3.08971 5.38707 2.81127 4.67137C2.53283 3.95567 1.74611 3.57959 1.01428 3.81235C0.28245 4.04511 -0.142482 4.80656 0.043672 5.55161C0.229826 6.29666 0.962964 6.76875 1.71827 6.62995L6.06127 19.7649H14.8393V1.41895C14.8393 1.41895 13.0813 11.6819 8.93527 11.6819Z" fill="white"/>
<path d="M11.2532 9.44999C10.4393 8.2834 9.69467 7.06998 9.0232 5.81599C9.53471 5.65667 9.83896 5.13213 9.72328 4.60902C9.60761 4.08591 9.11055 3.73857 8.57956 3.80978C8.04857 3.88099 7.6606 4.34703 7.68684 4.88213C7.71308 5.41723 8.14479 5.84307 8.6802 5.86199C8.54222 7.44387 8.16248 8.99523 7.5542 10.462C7.5542 10.462 9.4082 12.551 11.2532 9.44999Z" fill="white"/>
<path d="M22.1233 10.4591C21.5154 8.99228 21.136 7.44093 20.9983 5.85913C21.5292 5.83966 21.9569 5.41695 21.9826 4.88624C22.0083 4.35553 21.6234 3.89352 21.0968 3.82289C20.5702 3.75227 20.0771 4.09655 19.9621 4.61527C19.847 5.13398 20.1482 5.65445 20.6553 5.81313C19.9841 7.06706 19.2398 8.28048 18.4263 9.44713C20.2743 12.5511 22.1233 10.4591 22.1233 10.4591Z" fill="#DEDEDE"/>
<path d="M28.2114 3.81007C27.5502 3.81489 26.9799 4.27574 26.8365 4.92121C26.6931 5.56668 27.0145 6.22567 27.6114 6.51007C26.1804 8.03107 22.5484 11.6821 20.7484 11.6821C16.6024 11.6821 14.8484 1.42407 14.8484 1.42407V19.7651H23.6264L27.9694 6.63007C28.4986 6.72653 29.0369 6.51541 29.3595 6.08487C29.682 5.65434 29.7334 5.07842 29.4921 4.59761C29.2508 4.11679 28.7583 3.81377 28.2204 3.81507L28.2114 3.81007Z" fill="#DEDEDE"/>
<path d="M16.2583 1.419C16.2587 1.99343 15.9129 2.51152 15.3824 2.73162C14.8518 2.95173 14.2408 2.83048 13.8345 2.42445C13.4282 2.01841 13.3065 1.40756 13.5262 0.876821C13.746 0.34608 14.2638 1.42439e-07 14.8383 0C15.6221 -1.9437e-07 16.2577 0.635146 16.2583 1.419Z" fill="white"/>
</svg>
