<svg width="14" height="10" viewBox="0 0 14 10" fill="none" xmlns="http://www.w3.org/2000/svg">
<path fill-rule="evenodd" clip-rule="evenodd" d="M12.6108 3.46973C12.6196 3.4341 12.623 3.39736 12.6208 3.36073V3.35873C12.953 3.24193 13.1643 2.91538 13.1347 2.5645C13.1051 2.21361 12.8421 1.92708 12.495 1.8676C12.1479 1.80812 11.8045 1.99071 11.6598 2.31171C11.515 2.63271 11.6055 3.01098 11.8798 3.23173L10.8548 4.25573C10.5971 4.51337 10.2472 4.65738 9.88282 4.65573C9.4499 4.65432 9.04269 4.44997 8.78282 4.10373L7.12782 1.88873C7.42221 1.58147 7.41335 1.09418 7.10799 0.797823C6.80262 0.501464 6.31529 0.507197 6.01698 0.810658C5.71867 1.11412 5.72127 1.60148 6.02282 1.90173L4.35482 4.11073C4.11415 4.42894 3.74731 4.62712 3.34925 4.65398C2.95118 4.68084 2.56104 4.53372 2.27982 4.25073L1.26582 3.22873C1.5394 3.0036 1.62519 2.62146 1.4741 2.30099C1.32301 1.98052 0.973606 1.80356 0.625855 1.87138C0.278105 1.9392 0.0208017 2.23448 0.00119633 2.58824C-0.0184091 2.94199 0.20469 3.2639 0.542816 3.36973C0.540393 3.40735 0.543765 3.44513 0.552816 3.48173L1.36382 6.73673C1.40467 6.90065 1.55188 7.01569 1.72082 7.01573H6.58482L11.4468 6.99073C11.615 6.98978 11.7611 6.87493 11.8018 6.71173L12.6108 3.46973ZM11.3528 7.80073C11.5561 7.80073 11.7208 7.96549 11.7208 8.16873L11.7218 9.05273C11.7218 9.25597 11.5571 9.42073 11.3538 9.42073H1.82682C1.62358 9.42073 1.45882 9.25597 1.45882 9.05273V8.16873C1.45882 7.96549 1.62358 7.80073 1.82682 7.80073H11.3528Z" fill="white"/>
</svg>
