<svg width="37" height="37" viewBox="0 0 37 37" fill="none" xmlns="http://www.w3.org/2000/svg">
<path fill-rule="evenodd" clip-rule="evenodd" d="M9.25 5.39583C9.25 5.1914 9.33121 4.99533 9.47577 4.85077C9.62033 4.70621 9.8164 4.625 10.0208 4.625H26.9792C27.1836 4.625 27.3797 4.70621 27.5242 4.85077C27.6688 4.99533 27.75 5.1914 27.75 5.39583V6.16667H31.6042C31.8086 6.16667 32.0047 6.24788 32.1492 6.39244C32.2938 6.537 32.375 6.73306 32.375 6.9375V11.5625C32.375 12.5847 31.9689 13.565 31.2461 14.2878C30.5233 15.0106 29.543 15.4167 28.5208 15.4167H27.2235C26.6726 16.9715 25.7164 18.351 24.4538 19.4127C23.1912 20.4743 21.668 21.1795 20.0417 21.4554V26.2083H24.6667C24.8711 26.2083 25.0672 26.2895 25.2117 26.4341C25.3563 26.5787 25.4375 26.7747 25.4375 26.9792V31.6042C25.4375 31.8086 25.3563 32.0047 25.2117 32.1492C25.0672 32.2938 24.8711 32.375 24.6667 32.375H12.3333C12.1289 32.375 11.9328 32.2938 11.7883 32.1492C11.6437 32.0047 11.5625 31.8086 11.5625 31.6042V26.9792C11.5625 26.7747 11.6437 26.5787 11.7883 26.4341C11.9328 26.2895 12.1289 26.2083 12.3333 26.2083H16.9583V21.4554C15.332 21.1795 13.8088 20.4743 12.5462 19.4127C11.2836 18.351 10.3274 16.9715 9.77648 15.4167H8.47917C7.45698 15.4167 6.47666 15.0106 5.75386 14.2878C5.03106 13.565 4.625 12.5847 4.625 11.5625V6.9375C4.625 6.73306 4.70621 6.537 4.85077 6.39244C4.99533 6.24788 5.1914 6.16667 5.39583 6.16667H9.25V5.39583ZM27.75 12.3333V7.70833H30.8333V11.5625C30.8333 12.1758 30.5897 12.764 30.156 13.1977C29.7223 13.6314 29.1341 13.875 28.5208 13.875H27.75V12.3333ZM9.25 7.70833H6.16667V11.5625C6.16667 12.1758 6.4103 12.764 6.84398 13.1977C7.27766 13.6314 7.86585 13.875 8.47917 13.875H9.25V7.70833Z" fill="#2C50ED"/>
<g clip-path="url(#clip0_162_49205)">
<path d="M18.1145 16.1224L20.2979 17.4402L19.7185 14.9565L21.6475 13.2854L19.1073 13.0699L18.1145 10.7275L17.1218 13.0699L14.5815 13.2854L16.5106 14.9565L15.9311 17.4402L18.1145 16.1224Z" fill="white"/>
</g>
<defs>
<clipPath id="clip0_162_49205">
<rect width="8.47917" height="8.47917" fill="white" transform="translate(13.875 10.0205)"/>
</clipPath>
</defs>
</svg>
