<svg width="15" height="11" viewBox="0 0 15 11" fill="none" xmlns="http://www.w3.org/2000/svg">
<g opacity="0.9">
<path d="M11.7474 0.50766L12.434 2.80387H14.2481L11.7474 0.50766Z" fill="url(#paint0_linear_1827_26797)"/>
<path d="M11.7474 0.50766L12.434 2.80387H12.8958L11.7474 0.50766Z" fill="url(#paint1_linear_1827_26797)"/>
<path d="M12.433 2.80292L9.98254 7.63453L14.25 2.80292H12.433Z" fill="url(#paint2_linear_1827_26797)"/>
<path opacity="0.3" d="M12.433 2.80292L9.98254 7.63453L12.8948 2.80292H12.433Z" fill="url(#paint3_linear_1827_26797)"/>
<path opacity="0.3" d="M12.9622 4.2591L14.2472 2.80292H12.4321L12.1229 3.41237L12.9622 4.2591Z" fill="url(#paint4_linear_1827_26797)"/>
<path opacity="0.3" d="M11.3471 4.94125L9.98157 7.63452L11.8782 5.48086L11.3471 4.94125Z" fill="url(#paint5_linear_1827_26797)"/>
<path d="M12.433 2.80292L8.18079 7.90051L7.25049 10.5L9.98354 7.63453L12.433 2.80292Z" fill="url(#paint6_linear_1827_26797)"/>
<path opacity="0.3" d="M12.433 2.80292L8.17981 7.90051L10.4472 6.71891L12.433 2.80292Z" fill="url(#paint7_linear_1827_26797)"/>
<path opacity="0.3" d="M8.46809 7.55414L8.18359 7.89953L7.2533 10.499L9.31968 8.33294C8.97396 8.15183 8.68058 7.88353 8.46809 7.55414V7.55414Z" fill="url(#paint8_linear_1827_26797)"/>
<path opacity="0.3" d="M11.553 4.53943L12.4331 2.80292L11.1652 4.3232C11.3013 4.38196 11.4313 4.4544 11.553 4.53943Z" fill="url(#paint9_linear_1827_26797)"/>
<path d="M8.17981 7.89953L9.98161 2.80194H12.4321L8.17981 7.89953Z" fill="url(#paint10_linear_1827_26797)"/>
<path opacity="0.3" d="M8.17981 7.89953L9.98161 2.80194H10.7118L8.17981 7.89953Z" fill="url(#paint11_linear_1827_26797)"/>
<path opacity="0.3" d="M11.3776 2.80292V4.07253L12.4368 2.80292H11.3776Z" fill="url(#paint12_linear_1827_26797)"/>
<path opacity="0.3" d="M9.75587 3.44968L8.18262 7.89954L9.75587 6.01378V3.44968Z" fill="url(#paint13_linear_1827_26797)"/>
<path d="M9.9826 2.80289L9.29602 0.506683L12.4331 2.80289H9.9826Z" fill="url(#paint14_linear_1827_26797)"/>
<path d="M10.9774 1.73709C10.7738 2.18263 10.4399 2.55459 10.0205 2.80292H12.433L10.9774 1.73709Z" fill="url(#paint15_linear_1827_26797)"/>
<path d="M9.29602 0.50766H11.7465L12.4331 2.80387L9.29602 0.50766Z" fill="url(#paint16_linear_1827_26797)"/>
<path opacity="0.3" d="M9.29602 0.50766H9.84035L12.4321 2.80387L9.29602 0.50766Z" fill="url(#paint17_linear_1827_26797)"/>
<path d="M9.29696 0.50766L7.25049 2.80387H9.98354L9.29696 0.50766Z" fill="url(#paint18_linear_1827_26797)"/>
<path d="M7.25049 2.80289V0.506683H9.29696L7.25049 2.80289Z" fill="url(#paint19_linear_1827_26797)"/>
<path opacity="0.3" d="M7.25049 2.80289L8.61701 0.506683H9.29696L7.25049 2.80289Z" fill="url(#paint20_linear_1827_26797)"/>
<path d="M7.25049 2.80292L8.18079 7.90051L9.98259 2.80292H7.25049Z" fill="url(#paint21_linear_1827_26797)"/>
<path opacity="0.3" d="M9.28176 2.80292L8.17603 7.90051L9.97783 2.80292H9.28176Z" fill="url(#paint22_linear_1827_26797)"/>
<path opacity="0.3" d="M9.44681 4.31937L9.98356 2.80292H7.94373L9.44681 4.31937Z" fill="url(#paint23_linear_1827_26797)"/>
<path d="M7.25046 2.80292V10.5L8.18076 7.90051L7.25046 2.80292Z" fill="url(#paint24_linear_1827_26797)"/>
<path d="M2.75352 0.50766L2.06694 2.80387H0.252808L2.75352 0.50766Z" fill="url(#paint25_linear_1827_26797)"/>
<path d="M2.75263 0.50766L2.06604 2.80387H1.77112L2.75263 0.50766Z" fill="url(#paint26_linear_1827_26797)"/>
<path d="M2.06697 2.80292L4.51743 7.63453L0.25 2.80292H2.06697Z" fill="url(#paint27_linear_1827_26797)"/>
<path d="M2.06604 2.80292L4.51555 7.63453L1.77112 2.80292H2.06604Z" fill="url(#paint28_linear_1827_26797)"/>
<path opacity="0.2" d="M2.9594 4.56332C2.76822 4.78396 2.53632 4.96497 2.27661 5.09624L4.51748 7.63451L2.9594 4.56332Z" fill="url(#paint29_linear_1827_26797)"/>
<path d="M2.06702 2.80292L6.32022 7.90051L7.25052 10.5L4.51747 7.63453L2.06702 2.80292Z" fill="url(#paint30_linear_1827_26797)"/>
<path d="M2.06702 2.80292L6.32022 7.90051L7.25052 10.5L5.88399 8.21145L2.06702 2.80292Z" fill="url(#paint31_linear_1827_26797)"/>
<path opacity="0.3" d="M6.32018 7.90051C6.30229 8.38202 6.24039 8.86083 6.13525 9.33086L7.25047 10.5L6.32018 7.90051Z" fill="#FF80AD"/>
<path d="M6.31927 7.89953L4.51747 2.80194H2.06702L6.31927 7.89953Z" fill="url(#paint32_linear_1827_26797)"/>
<path opacity="0.3" d="M6.31927 7.89953L4.51747 2.80194H3.88684L6.31927 7.89953Z" fill="url(#paint33_linear_1827_26797)"/>
<path opacity="0.5" d="M4.249 2.80292H2.06787L3.0655 3.9979L4.249 2.80292Z" fill="url(#paint34_linear_1827_26797)"/>
<path opacity="0.5" d="M4.99536 6.31708L6.323 7.90434L5.56435 5.74973L4.99536 6.31708Z" fill="url(#paint35_linear_1827_26797)"/>
<path d="M4.51747 2.80289L5.20405 0.506683L2.06702 2.80289H4.51747Z" fill="url(#paint36_linear_1827_26797)"/>
<path d="M5.2031 0.50766H2.7536L2.06702 2.80387L5.2031 0.50766Z" fill="url(#paint37_linear_1827_26797)"/>
<path opacity="0.3" d="M5.20307 0.50766H4.65779L2.06604 2.80387L5.20307 0.50766Z" fill="url(#paint38_linear_1827_26797)"/>
<path opacity="0.3" d="M2.66822 0.789886L2.06604 2.79907L3.88491 1.46823C3.40973 1.40298 2.97583 1.16107 2.66822 0.789886Z" fill="url(#paint39_linear_1827_26797)"/>
<path d="M5.20306 0.50766L7.24953 2.80387H4.51648L5.20306 0.50766Z" fill="url(#paint40_linear_1827_26797)"/>
<path opacity="0.3" d="M7.24958 2.8029L6.54214 2.00975L5.75598 2.8029H7.24958Z" fill="url(#paint41_linear_1827_26797)"/>
<path opacity="0.3" d="M5.79768 1.16973L5.20308 0.5L4.66064 2.31783L5.79768 1.16973Z" fill="url(#paint42_linear_1827_26797)"/>
<path d="M7.24947 2.80289V0.506683H5.203L7.24947 2.80289Z" fill="url(#paint43_linear_1827_26797)"/>
<path opacity="0.3" d="M7.2495 2.80289V0.506683H6.91L7.2495 2.80289Z" fill="url(#paint44_linear_1827_26797)"/>
<path d="M7.24956 2.80292L6.31926 7.90051L4.51746 2.80292H7.24956Z" fill="url(#paint45_linear_1827_26797)"/>
<path opacity="0.3" d="M7.24949 2.80292L6.31919 7.90051L6.69283 2.80292H7.24949Z" fill="url(#paint46_linear_1827_26797)"/>
<path opacity="0.3" d="M6.19684 2.98661C6.26006 2.92283 6.32328 2.8616 6.3865 2.80292H4.51453L5.12335 4.52508C5.3907 3.95371 5.75387 3.43324 6.19684 2.98661Z" fill="url(#paint47_linear_1827_26797)"/>
<path d="M7.24949 2.80292V10.5L6.31919 7.90051L7.24949 2.80292Z" fill="url(#paint48_linear_1827_26797)"/>
<path d="M7.24949 2.80292V5.05512L6.31919 7.90051L7.24949 2.80292Z" fill="url(#paint49_linear_1827_26797)"/>
</g>
<defs>
<linearGradient id="paint0_linear_1827_26797" x1="10.1852" y1="1.00901" x2="11.6181" y2="3.93813" gradientUnits="userSpaceOnUse">
<stop stop-color="#FF80AD"/>
<stop offset="1" stop-color="#9C0F42"/>
</linearGradient>
<linearGradient id="paint1_linear_1827_26797" x1="8.37413" y1="5.62724" x2="13.4117" y2="6.08568" gradientUnits="userSpaceOnUse">
<stop stop-color="#FF80AD"/>
<stop offset="1" stop-color="#9C0F42"/>
</linearGradient>
<linearGradient id="paint2_linear_1827_26797" x1="9.98254" y1="7.63453" x2="14.25" y2="7.63453" gradientUnits="userSpaceOnUse">
<stop stop-color="#FF4084"/>
<stop offset="1" stop-color="#FF80AD"/>
</linearGradient>
<linearGradient id="paint3_linear_1827_26797" x1="9.98254" y1="7.63453" x2="12.8948" y2="7.63453" gradientUnits="userSpaceOnUse">
<stop stop-color="#FF4084"/>
<stop offset="1" stop-color="#FF80AD"/>
</linearGradient>
<linearGradient id="paint4_linear_1827_26797" x1="9.9817" y1="4.99301" x2="14.2472" y2="4.99301" gradientUnits="userSpaceOnUse">
<stop stop-color="#FF4084"/>
<stop offset="1" stop-color="#FF80AD"/>
</linearGradient>
<linearGradient id="paint5_linear_1827_26797" x1="9.98157" y1="9.30973" x2="14.2376" y2="9.30973" gradientUnits="userSpaceOnUse">
<stop stop-color="#FF4084"/>
<stop offset="1" stop-color="#FF80AD"/>
</linearGradient>
<linearGradient id="paint6_linear_1827_26797" x1="12.8694" y1="-5.48196" x2="0.488452" y2="-1.666" gradientUnits="userSpaceOnUse">
<stop stop-color="#FF80AD"/>
<stop offset="1" stop-color="#9C0F42"/>
</linearGradient>
<linearGradient id="paint7_linear_1827_26797" x1="10.9647" y1="-0.320764" x2="4.97637" y2="4.02819" gradientUnits="userSpaceOnUse">
<stop stop-color="#FF80AD"/>
<stop offset="1" stop-color="#9C0F42"/>
</linearGradient>
<linearGradient id="paint8_linear_1827_26797" x1="13.7456" y1="-4.5529" x2="2.18446" y2="-0.352545" gradientUnits="userSpaceOnUse">
<stop stop-color="#FF80AD"/>
<stop offset="1" stop-color="#9C0F42"/>
</linearGradient>
<linearGradient id="paint9_linear_1827_26797" x1="10.1833" y1="-3.67686" x2="-0.630724" y2="0.93224" gradientUnits="userSpaceOnUse">
<stop stop-color="#FF80AD"/>
<stop offset="1" stop-color="#9C0F42"/>
</linearGradient>
<linearGradient id="paint10_linear_1827_26797" x1="9.49577" y1="10.3577" x2="14.305" y2="6.2385" gradientUnits="userSpaceOnUse">
<stop stop-color="#FF4084"/>
<stop offset="1" stop-color="#FF80AD"/>
</linearGradient>
<linearGradient id="paint11_linear_1827_26797" x1="3.8271" y1="17.6266" x2="14.096" y2="16.5201" gradientUnits="userSpaceOnUse">
<stop stop-color="#FF4084"/>
<stop offset="1" stop-color="#FF80AD"/>
</linearGradient>
<linearGradient id="paint12_linear_1827_26797" x1="9.57797" y1="10.6617" x2="14.3864" y2="6.54504" gradientUnits="userSpaceOnUse">
<stop stop-color="#FF4084"/>
<stop offset="1" stop-color="#FF80AD"/>
</linearGradient>
<linearGradient id="paint13_linear_1827_26797" x1="2.25964" y1="39.7413" x2="24.9837" y2="39.1139" gradientUnits="userSpaceOnUse">
<stop stop-color="#FF4084"/>
<stop offset="1" stop-color="#FF80AD"/>
</linearGradient>
<linearGradient id="paint14_linear_1827_26797" x1="14.6947" y1="3.62945" x2="12.9996" y2="-1.06769" gradientUnits="userSpaceOnUse">
<stop stop-color="#FF80AD"/>
<stop offset="1" stop-color="#9C0F42"/>
</linearGradient>
<linearGradient id="paint15_linear_1827_26797" x1="25.0537" y1="6.69238" x2="24.4867" y2="-5.14103" gradientUnits="userSpaceOnUse">
<stop stop-color="#FF80AD"/>
<stop offset="1" stop-color="#9C0F42"/>
</linearGradient>
<linearGradient id="paint16_linear_1827_26797" x1="12.3578" y1="2.72121" x2="12.3578" y2="0.535215" gradientUnits="userSpaceOnUse">
<stop stop-color="#FF4084"/>
<stop offset="1" stop-color="#7D0C35"/>
</linearGradient>
<linearGradient id="paint17_linear_1827_26797" x1="12.3568" y1="2.72121" x2="12.3568" y2="0.535215" gradientUnits="userSpaceOnUse">
<stop stop-color="#FF4084"/>
<stop offset="1" stop-color="#7D0C35"/>
</linearGradient>
<linearGradient id="paint18_linear_1827_26797" x1="9.94635" y1="4.96095" x2="11.466" y2="1.5872" gradientUnits="userSpaceOnUse">
<stop stop-color="#FFE6EF"/>
<stop offset="1" stop-color="#FF80AD"/>
</linearGradient>
<linearGradient id="paint19_linear_1827_26797" x1="9.24784" y1="2.72023" x2="9.24784" y2="0.534238" gradientUnits="userSpaceOnUse">
<stop stop-color="#FF4084"/>
<stop offset="1" stop-color="#7D0C35"/>
</linearGradient>
<linearGradient id="paint20_linear_1827_26797" x1="9.24784" y1="2.72023" x2="9.24784" y2="0.534238" gradientUnits="userSpaceOnUse">
<stop stop-color="#FF4084"/>
<stop offset="1" stop-color="#7D0C35"/>
</linearGradient>
<linearGradient id="paint21_linear_1827_26797" x1="7.26005" y1="2.80292" x2="7.26005" y2="7.86482" gradientUnits="userSpaceOnUse">
<stop stop-color="#FF80AD"/>
<stop offset="1" stop-color="#9C0F42"/>
</linearGradient>
<linearGradient id="paint22_linear_1827_26797" x1="8.18233" y1="2.80292" x2="8.18233" y2="7.86482" gradientUnits="userSpaceOnUse">
<stop stop-color="#FF80AD"/>
<stop offset="1" stop-color="#9C0F42"/>
</linearGradient>
<linearGradient id="paint23_linear_1827_26797" x1="5.56018" y1="2.80292" x2="5.56018" y2="7.86333" gradientUnits="userSpaceOnUse">
<stop stop-color="#FF80AD"/>
<stop offset="1" stop-color="#9C0F42"/>
</linearGradient>
<linearGradient id="paint24_linear_1827_26797" x1="8.18408" y1="10.4538" x2="8.18408" y2="2.8491" gradientUnits="userSpaceOnUse">
<stop stop-color="#FF80AD"/>
<stop offset="1" stop-color="#FF4084"/>
</linearGradient>
<linearGradient id="paint25_linear_1827_26797" x1="0.252808" y1="2.80387" x2="2.75352" y2="2.80387" gradientUnits="userSpaceOnUse">
<stop stop-color="#FFE6EF"/>
<stop offset="1" stop-color="#FF80AD"/>
</linearGradient>
<linearGradient id="paint26_linear_1827_26797" x1="1.77112" y1="2.80387" x2="2.75263" y2="2.80387" gradientUnits="userSpaceOnUse">
<stop stop-color="#FFE6EF"/>
<stop offset="1" stop-color="#FF80AD"/>
</linearGradient>
<linearGradient id="paint27_linear_1827_26797" x1="0.25" y1="7.63453" x2="4.51743" y2="7.63453" gradientUnits="userSpaceOnUse">
<stop stop-color="#FF80AD"/>
<stop offset="1" stop-color="#9C0F42"/>
</linearGradient>
<linearGradient id="paint28_linear_1827_26797" x1="1.77112" y1="7.63453" x2="4.51555" y2="7.63453" gradientUnits="userSpaceOnUse">
<stop stop-color="#FF80AD"/>
<stop offset="1" stop-color="#9C0F42"/>
</linearGradient>
<linearGradient id="paint29_linear_1827_26797" x1="0.253104" y1="9.02115" x2="4.51748" y2="9.02115" gradientUnits="userSpaceOnUse">
<stop stop-color="#FF80AD"/>
<stop offset="1" stop-color="#9C0F42"/>
</linearGradient>
<linearGradient id="paint30_linear_1827_26797" x1="-3.77027" y1="11.2143" x2="8.87343" y2="15.0986" gradientUnits="userSpaceOnUse">
<stop stop-color="#FFE6EF"/>
<stop offset="1" stop-color="#FF80AD"/>
</linearGradient>
<linearGradient id="paint31_linear_1827_26797" x1="-3.1976" y1="11.0296" x2="9.4461" y2="14.9139" gradientUnits="userSpaceOnUse">
<stop stop-color="#FFE6EF"/>
<stop offset="1" stop-color="#FF80AD"/>
</linearGradient>
<linearGradient id="paint32_linear_1827_26797" x1="8.95751" y1="5.4507" x2="4.27717" y2="1.34293" gradientUnits="userSpaceOnUse">
<stop stop-color="#FF80AD"/>
<stop offset="1" stop-color="#FF4084"/>
</linearGradient>
<linearGradient id="paint33_linear_1827_26797" x1="12.7565" y1="-3.3109" x2="2.10003" y2="-4.31371" gradientUnits="userSpaceOnUse">
<stop stop-color="#FF80AD"/>
<stop offset="1" stop-color="#FF4084"/>
</linearGradient>
<linearGradient id="paint34_linear_1827_26797" x1="21.3492" y1="17.7812" x2="20.509" y2="0.863893" gradientUnits="userSpaceOnUse">
<stop stop-color="#FF80AD"/>
<stop offset="1" stop-color="#FF4084"/>
</linearGradient>
<linearGradient id="paint35_linear_1827_26797" x1="8.68231" y1="1.87625" x2="0.70632" y2="-0.203783" gradientUnits="userSpaceOnUse">
<stop stop-color="#FF80AD"/>
<stop offset="1" stop-color="#FF4084"/>
</linearGradient>
<linearGradient id="paint36_linear_1827_26797" x1="5.27622" y1="6.03722" x2="7.02714" y2="1.48792" gradientUnits="userSpaceOnUse">
<stop stop-color="#FFE6EF"/>
<stop offset="1" stop-color="#FF80AD"/>
</linearGradient>
<linearGradient id="paint37_linear_1827_26797" x1="5.12783" y1="2.72121" x2="5.12783" y2="0.535215" gradientUnits="userSpaceOnUse">
<stop stop-color="#FF4084"/>
<stop offset="1" stop-color="#7D0C35"/>
</linearGradient>
<linearGradient id="paint38_linear_1827_26797" x1="5.12778" y1="2.72121" x2="5.12778" y2="0.535215" gradientUnits="userSpaceOnUse">
<stop stop-color="#FF4084"/>
<stop offset="1" stop-color="#7D0C35"/>
</linearGradient>
<linearGradient id="paint39_linear_1827_26797" x1="3.96221" y1="2.71669" x2="3.96221" y2="0.536729" gradientUnits="userSpaceOnUse">
<stop stop-color="#FF4084"/>
<stop offset="1" stop-color="#7D0C35"/>
</linearGradient>
<linearGradient id="paint40_linear_1827_26797" x1="4.91398" y1="0.992611" x2="3.78856" y2="3.40797" gradientUnits="userSpaceOnUse">
<stop stop-color="#FF80AD"/>
<stop offset="1" stop-color="#FF4084"/>
</linearGradient>
<linearGradient id="paint41_linear_1827_26797" x1="3.32187" y1="1.66263" x2="2.69802" y2="6.44334" gradientUnits="userSpaceOnUse">
<stop stop-color="#FF80AD"/>
<stop offset="1" stop-color="#FF4084"/>
</linearGradient>
<linearGradient id="paint42_linear_1827_26797" x1="5.35126" y1="-2.11726" x2="1.47031" y2="-1.48069" gradientUnits="userSpaceOnUse">
<stop stop-color="#FF80AD"/>
<stop offset="1" stop-color="#FF4084"/>
</linearGradient>
<linearGradient id="paint43_linear_1827_26797" x1="7.19319" y1="2.65134" x2="7.19319" y2="0.481425" gradientUnits="userSpaceOnUse">
<stop stop-color="#FF80AD"/>
<stop offset="1" stop-color="#FF2472"/>
</linearGradient>
<linearGradient id="paint44_linear_1827_26797" x1="7.52783" y1="2.65134" x2="7.52783" y2="0.481425" gradientUnits="userSpaceOnUse">
<stop stop-color="#FF80AD"/>
<stop offset="1" stop-color="#FF2472"/>
</linearGradient>
<linearGradient id="paint45_linear_1827_26797" x1="4.52134" y1="5.10869" x2="8.57302" y2="7.5511" gradientUnits="userSpaceOnUse">
<stop stop-color="#FF80AD"/>
<stop offset="1" stop-color="#9C0F42"/>
</linearGradient>
<linearGradient id="paint46_linear_1827_26797" x1="-2.95223" y1="55.2098" x2="16.4975" y2="55.3772" gradientUnits="userSpaceOnUse">
<stop stop-color="#FF80AD"/>
<stop offset="1" stop-color="#9C0F42"/>
</linearGradient>
<linearGradient id="paint47_linear_1827_26797" x1="2.11806" y1="3.06124" x2="2.72114" y2="9.22744" gradientUnits="userSpaceOnUse">
<stop stop-color="#FF80AD"/>
<stop offset="1" stop-color="#9C0F42"/>
</linearGradient>
<linearGradient id="paint48_linear_1827_26797" x1="6.31966" y1="2.82601" x2="6.31966" y2="10.3692" gradientUnits="userSpaceOnUse">
<stop stop-color="#FFE6EF"/>
<stop offset="1" stop-color="#FF80AD"/>
</linearGradient>
<linearGradient id="paint49_linear_1827_26797" x1="6.31966" y1="2.81821" x2="6.31966" y2="7.81385" gradientUnits="userSpaceOnUse">
<stop stop-color="#FFE6EF"/>
<stop offset="1" stop-color="#FF80AD"/>
</linearGradient>
</defs>
</svg>
