<svg width="35" height="38" viewBox="0 0 35 38" fill="none" xmlns="http://www.w3.org/2000/svg">
<path fill-rule="evenodd" clip-rule="evenodd" d="M17.9011 0.193115C10.0711 0.193115 3.72314 9.81912 3.72314 20.0641C3.72314 30.3091 10.0711 37.2921 17.9011 37.2921C25.7311 37.2921 32.0791 30.3091 32.0791 20.0641C32.0791 9.81912 25.7311 0.193115 17.9011 0.193115Z" fill="url(#paint0_radial_7806_10696)"/>
<path fill-rule="evenodd" clip-rule="evenodd" d="M8.60547 24.8002C11.2145 22.8862 13.1995 23.4912 13.9475 23.9412C13.1103 23.3648 12.0678 23.1711 11.0795 23.4082C10.1505 23.6559 9.29939 24.1348 8.60547 24.8002H8.60547Z" fill="#9F5F2E"/>
<path fill-rule="evenodd" clip-rule="evenodd" d="M11.6534 23.7712C12.0534 24.1342 12.5274 25.0512 11.1224 26.5842C10.3734 24.6452 11.1494 23.9642 11.6534 23.7712Z" fill="#608627"/>
<path fill-rule="evenodd" clip-rule="evenodd" d="M11.2594 23.1443C11.6024 22.7283 11.9404 21.7523 10.3324 20.4363C9.86736 22.4623 10.7334 23.0273 11.2594 23.1443Z" fill="#608627"/>
<path fill-rule="evenodd" clip-rule="evenodd" d="M9.10143 26.8253C9.33352 26.7254 9.52172 26.545 9.63143 26.3173C9.83542 25.8724 9.72089 25.3462 9.35043 25.0263C9.35685 24.5713 9.09522 24.1549 8.68243 23.9633C8.37155 23.8109 8.00921 23.8036 7.69243 23.9433C7.15916 23.7333 6.55352 23.9621 6.29243 24.4723L6.28243 24.4943C6.08499 24.5984 5.92619 24.7632 5.82943 24.9643C5.67888 25.2851 5.69686 25.6595 5.87743 25.9643C5.80991 26.463 6.07618 26.9472 6.53343 27.1573C6.90279 27.1345 7.2623 27.2819 7.50943 27.5573C8.05983 27.8403 8.73545 27.6242 9.01943 27.0743C9.05722 26.9951 9.08477 26.9115 9.10143 26.8253Z" fill="#8BC7A3"/>
<path fill-rule="evenodd" clip-rule="evenodd" d="M9.47432 26.1834L9.32332 25.9704C9.3577 25.7803 9.32219 25.5843 9.22332 25.4184C9.45255 25.5396 9.57466 25.7972 9.52332 26.0514C9.51341 26.0972 9.49761 26.1416 9.47632 26.1834H9.47432ZM9.00732 25.5264L8.55732 24.8934C8.76779 24.937 8.93636 25.0944 8.99432 25.3014C9.01402 25.3747 9.01845 25.4513 9.00732 25.5264ZM8.16332 24.3394C8.3086 24.3591 8.44636 24.4159 8.56332 24.5044C8.73502 24.6275 8.85224 24.8125 8.89032 25.0204C9.02572 24.7673 8.95898 24.4535 8.73232 24.2774C8.54609 24.1423 8.29748 24.1305 8.09932 24.2474L8.16332 24.3394ZM8.09832 24.2474L8.16332 24.3394C8.10025 24.3311 8.03638 24.3311 7.97332 24.3394C8.01091 24.304 8.05253 24.2731 8.09732 24.2474H8.09832ZM8.55732 24.8934L9.00732 25.5264C8.9816 25.6886 8.89052 25.8331 8.75532 25.9264L8.74232 25.9094C8.90144 25.5479 8.79426 25.1246 8.48232 24.8824C8.50689 24.8847 8.53128 24.8887 8.55532 24.8944L8.55732 24.8934ZM9.32332 25.9704L9.47432 26.1834C9.40417 26.3179 9.28436 26.4198 9.14032 26.4674L9.10732 26.4214C9.21002 26.3086 9.28079 26.1706 9.31232 26.0214C9.31232 26.0044 9.31932 25.9864 9.32232 25.9694L9.32332 25.9704ZM8.15732 25.0834C8.17802 25.096 8.19805 25.1097 8.21732 25.1244C8.17099 25.0162 8.09465 24.9235 7.99732 24.8574L8.15732 25.0824V25.0834ZM7.78332 24.5574L7.56132 24.2444C7.74605 24.3161 7.89513 24.4576 7.97632 24.6384C7.91535 24.604 7.85058 24.5768 7.78332 24.5574ZM7.56132 24.2444L7.78332 24.5574C7.60677 24.51 7.42087 24.51 7.24432 24.5574L7.03532 24.2634C7.07045 24.2472 7.10692 24.2342 7.14432 24.2244C7.28197 24.1883 7.42749 24.1963 7.56032 24.2474L7.56132 24.2444ZM7.99732 24.8584L8.15732 25.0834C7.99676 24.9887 7.80907 24.9506 7.62432 24.9754C7.60032 24.9754 7.57632 24.9824 7.55232 24.9874L7.43432 24.8204C7.49162 24.7914 7.55356 24.7728 7.61732 24.7654C7.75105 24.7496 7.88599 24.7826 7.99732 24.8584ZM9.10832 26.4214L9.14132 26.4674C9.10521 26.4797 9.06806 26.4887 9.03032 26.4944C9.05803 26.4719 9.0841 26.4475 9.10832 26.4214ZM7.97032 25.5734L7.84832 25.4024C7.91142 25.4397 7.95548 25.5023 7.96932 25.5744L7.97032 25.5734ZM7.03632 24.2594L7.24532 24.5534H7.23332C7.14307 24.5755 7.05603 24.6091 6.97432 24.6534L6.80932 24.4214C6.87227 24.3497 6.94962 24.2921 7.03632 24.2524V24.2594ZM7.43632 24.8194L7.55432 24.9864C7.45794 25.0053 7.36557 25.0409 7.28132 25.0914L7.22132 25.0074C7.27591 24.9279 7.34946 24.8633 7.43532 24.8194H7.43632ZM7.85032 25.4014L7.97232 25.5724C7.99538 25.6892 7.93487 25.8065 7.82632 25.8554L7.53532 25.4464C7.61212 25.3637 7.73416 25.3413 7.83532 25.3914L7.85432 25.4014H7.85032ZM8.69232 26.5864L8.70532 26.6044C8.71092 26.7342 8.68303 26.8634 8.62432 26.9794L8.49932 26.8034C8.57483 26.7418 8.63999 26.6685 8.69232 26.5864ZM8.20832 26.3944L8.14732 26.3084C8.21293 26.2836 8.27484 26.25 8.33132 26.2084C8.3014 26.2778 8.25904 26.3412 8.20632 26.3954L8.20832 26.3944ZM6.81032 24.4274C6.67517 24.5819 6.60906 24.7849 6.62732 24.9894C6.71246 24.8509 6.83201 24.7369 6.97432 24.6584L6.80932 24.4264L6.81032 24.4274ZM7.22232 25.0064L7.28232 25.0904C7.22714 25.1235 7.1764 25.1635 7.13132 25.2094C7.1496 25.1377 7.18077 25.0699 7.22332 25.0094L7.22232 25.0064ZM7.53532 25.4464L7.82632 25.8554C7.72841 25.8988 7.6138 25.8767 7.53907 25.8C7.46434 25.7232 7.44529 25.6081 7.49132 25.5114C7.50273 25.4874 7.51792 25.4655 7.53632 25.4464H7.53532ZM8.14832 26.3084L8.20932 26.3944C8.09574 26.5121 7.9367 26.5749 7.77332 26.5664H7.74832L7.57032 26.3154C7.64533 26.3404 7.72336 26.3552 7.80232 26.3594C7.91978 26.3666 8.03748 26.3499 8.14832 26.3104V26.3084ZM8.49932 26.8024L8.62432 26.9784C8.5506 27.1255 8.42739 27.242 8.27632 27.3074L8.06632 27.0074L8.09632 27.0004C8.24236 26.9629 8.37872 26.8947 8.49632 26.8004L8.49932 26.8024ZM6.02432 24.9554C6.11774 24.8205 6.26228 24.7298 6.42432 24.7044C6.28947 24.816 6.19497 24.9688 6.15532 25.1394L6.02432 24.9544V24.9554ZM6.79632 25.2304L6.82032 25.2644C6.6836 25.6181 6.79351 26.0196 7.09132 26.2544C7.02962 26.2478 6.96927 26.232 6.91232 26.2074L6.56532 25.7204C6.55778 25.5294 6.64356 25.3466 6.79532 25.2304H6.79632ZM7.56632 26.3134C7.44211 26.2732 7.33024 26.2019 7.24132 26.1064C7.29441 26.3492 7.4947 26.5323 7.74132 26.5634L7.56332 26.3124L7.56632 26.3134ZM8.06632 27.0134L8.27632 27.3134C8.24653 27.3264 8.21577 27.3371 8.18432 27.3454C8.01174 27.3902 7.8285 27.3662 7.67332 27.2784L7.46232 26.9784C7.65416 27.0504 7.86324 27.0629 8.06232 27.0144L8.06632 27.0134ZM7.34932 26.8134L7.31232 26.7614C7.34827 26.7638 7.38436 26.7638 7.42032 26.7614C7.39734 26.7824 7.37295 26.8017 7.34732 26.8194L7.34932 26.8134ZM6.24932 25.7784C6.03331 25.6685 5.90816 25.4362 5.93532 25.1954C5.94613 25.1077 5.97804 25.024 6.02832 24.9514L6.15932 25.1364C6.15099 25.1693 6.14464 25.2027 6.14032 25.2364C6.11365 25.4234 6.15176 25.614 6.24832 25.7764L6.24932 25.7784ZM6.57232 25.7164L6.91932 26.2034C6.75718 26.136 6.6356 25.997 6.59032 25.8274C6.58093 25.791 6.57524 25.7538 6.57332 25.7164H6.57232ZM7.31532 26.7614C7.09508 26.7384 6.88832 26.6443 6.72632 26.4934C6.53215 26.3225 6.41172 26.0831 6.39032 25.8254C6.19022 26.1012 6.2178 26.481 6.45564 26.725C6.69348 26.969 7.07247 27.0063 7.35332 26.8134L7.31632 26.7614H7.31532ZM7.46432 26.9724L7.67532 27.2724C7.53425 27.193 7.42216 27.0708 7.35532 26.9234C7.3888 26.9436 7.42354 26.9616 7.45932 26.9774L7.46432 26.9724Z" fill="#457A5C"/>
<path fill-rule="evenodd" clip-rule="evenodd" d="M3.61914 19.6792C6.83414 23.7932 10.1811 23.7252 11.5421 23.3532C11.3711 23.7222 8.75614 23.9442 6.85314 22.9252C5.75914 22.3402 3.71714 20.3502 3.61914 19.6792Z" fill="#9F5F2E"/>
<path fill-rule="evenodd" clip-rule="evenodd" d="M8.8159 23.0693C9.1829 22.6193 9.5419 21.5692 7.7999 20.1562C7.3119 22.3433 8.2479 22.9453 8.8159 23.0693Z" fill="#ABC365"/>
<path fill-rule="evenodd" clip-rule="evenodd" d="M5.51416 21.1333C6.03416 20.8733 6.79416 20.0613 5.78616 18.0603C4.44216 19.8533 5.04816 20.7853 5.51416 21.1333Z" fill="#ABC365"/>
<path fill-rule="evenodd" clip-rule="evenodd" d="M4.00603 21.1594C3.62903 21.6024 2.65903 22.1464 0.957031 20.6904C3.01503 19.8124 3.77703 20.6234 4.00603 21.1594Z" fill="#ABC365"/>
<path fill-rule="evenodd" clip-rule="evenodd" d="M6.64612 22.9753C6.44612 23.5213 5.71812 24.3633 3.62012 23.5753C5.25512 22.0483 6.24612 22.5493 6.64612 22.9753Z" fill="#608627"/>
<path fill-rule="evenodd" clip-rule="evenodd" d="M1.09424 18.8312C1.11039 19.1308 1.23351 19.4147 1.44124 19.6312C1.85347 20.0442 2.48912 20.1347 3.00024 19.8532C3.50506 20.0502 4.07847 19.9328 4.46524 19.5532C4.76489 19.2685 4.92338 18.8658 4.89824 18.4532C5.3543 17.9445 5.34998 17.1728 4.88824 16.6692L4.86824 16.6492C4.83324 16.386 4.71518 16.1408 4.53124 15.9492C4.2345 15.6461 3.80657 15.51 3.38924 15.5862C2.8616 15.306 2.213 15.4021 1.78924 15.8232C1.61167 15.9931 1.4811 16.206 1.41024 16.4412C1.23337 16.5089 1.07162 16.6109 0.934236 16.7412C0.389818 17.2386 0.350894 18.0829 0.847236 18.6282C0.920533 18.7062 1.00355 18.7744 1.09424 18.8312Z" fill="#F6B86B"/>
<path fill-rule="evenodd" clip-rule="evenodd" d="M3.59201 15.9703C3.78895 15.8637 4.02576 15.8611 4.22501 15.9633C4.49534 16.1122 4.63629 16.4205 4.57201 16.7223C4.48883 16.4844 4.31632 16.2882 4.09101 16.1753C3.95567 16.1034 3.80608 16.0625 3.65301 16.0553L3.59201 15.9693V15.9703ZM4.81901 17.6963C4.83459 17.3054 4.58432 16.9532 4.21001 16.8393L4.81901 17.6963ZM3.44401 16.0723C3.48911 16.0331 3.53881 15.9995 3.59201 15.9723L3.65301 16.0583C3.58296 16.0558 3.51285 16.0611 3.44401 16.0743V16.0723ZM4.20901 16.8393L4.81801 17.6963C4.81801 17.7063 4.81801 17.7163 4.81801 17.7273C4.78434 18.0343 4.58452 18.2979 4.29801 18.4133L4.19801 18.2723C4.31619 18.0978 4.3881 17.8962 4.40701 17.6863C4.44285 17.3802 4.35821 17.0721 4.17101 16.8273L4.21101 16.8393H4.20901ZM4.01501 18.0173C4.0721 17.7385 3.95318 17.4531 3.71501 17.2973C3.77628 17.4301 3.80606 17.5752 3.80201 17.7213L4.01301 18.0213L4.01501 18.0173ZM3.06001 16.6743L2.92301 16.4823C3.02544 16.4387 3.13728 16.4218 3.24801 16.4333C3.55215 16.4726 3.79533 16.7052 3.84801 17.0073C3.68196 16.818 3.44896 16.7004 3.19801 16.6793C3.1504 16.676 3.10262 16.676 3.05501 16.6793L3.06001 16.6743ZM2.72401 16.2023C2.92353 16.1492 3.13377 16.1516 3.33201 16.2093C3.13641 15.9444 2.80901 15.8112 2.48401 15.8643L2.72401 16.2023ZM2.48401 15.8643L2.72401 16.2023C2.62801 16.2272 2.5351 16.2628 2.44701 16.3083C2.40285 16.3307 2.3601 16.3557 2.31901 16.3833L2.08801 16.0583C2.20022 15.9568 2.33892 15.8892 2.48801 15.8633L2.48401 15.8643ZM2.92301 16.4823L3.06001 16.6743C2.90309 16.6778 2.74935 16.7193 2.61201 16.7953L2.59401 16.7693C2.67107 16.6414 2.78607 16.5408 2.92301 16.4813V16.4823ZM3.80301 17.7213L4.01401 18.0213V18.0323C3.97724 18.1849 3.88761 18.3195 3.76101 18.4123L3.65101 18.2573C3.70792 18.1644 3.75009 18.0632 3.77601 17.9573C3.79389 17.8822 3.80361 17.8055 3.80501 17.7283L3.80301 17.7213ZM4.19501 18.2723L4.29501 18.4133C4.20291 18.4526 4.1049 18.4763 4.00501 18.4833C4.07767 18.422 4.14159 18.351 4.19501 18.2723ZM4.32901 19.2113L4.15901 18.9713C4.24632 18.8646 4.30821 18.7395 4.34001 18.6053C4.42452 18.7992 4.42087 19.0203 4.33001 19.2113H4.32901ZM3.31601 17.7863L3.11601 17.4983C3.23671 17.5426 3.3167 17.6578 3.31601 17.7863ZM2.08801 16.0593L2.31901 16.3843C2.22711 16.4457 2.14372 16.519 2.07101 16.6023L1.88601 16.3423C1.93166 16.235 1.99987 16.1389 2.08601 16.0603L2.08801 16.0593ZM3.11001 17.4983L3.31001 17.7863C3.30986 17.9141 3.23002 18.0283 3.11001 18.0723L2.76901 17.5923C2.7764 17.5831 2.78442 17.5744 2.79301 17.5663C2.87509 17.4852 2.9964 17.4584 3.10501 17.4973L3.11001 17.4983ZM3.64801 18.2543L3.75801 18.4093C3.66644 18.4768 3.56022 18.5217 3.44801 18.5403L3.42401 18.5063C3.51355 18.4368 3.58949 18.3514 3.64801 18.2543ZM4.15801 18.9713L4.32801 19.2113C4.27783 19.3144 4.20166 19.4026 4.10701 19.4673L3.90701 19.1923C4.00003 19.1319 4.08303 19.0573 4.15301 18.9713H4.15801ZM2.47001 17.1643L2.40101 17.0643C2.48772 17.0434 2.5775 17.0383 2.66601 17.0493C2.59668 17.0788 2.53147 17.1171 2.47201 17.1633L2.47001 17.1643ZM1.88501 16.3413L2.07001 16.6013C1.97417 16.71 1.90107 16.8369 1.85501 16.9743C1.78794 16.7666 1.7986 16.5417 1.88501 16.3413ZM2.40101 17.0673L2.47001 17.1673C2.33165 17.2738 2.22285 17.4139 2.15401 17.5743C2.12248 17.6462 2.09901 17.7213 2.08401 17.7983L1.90201 17.5423C1.91047 17.5127 1.92083 17.4836 1.93301 17.4553C2.01945 17.2607 2.19245 17.118 2.40001 17.0703L2.40101 17.0673ZM2.77401 17.5923L3.11501 18.0723C2.98577 18.12 2.84063 18.0751 2.76085 17.9628C2.68108 17.8505 2.68647 17.6987 2.77401 17.5923ZM3.91101 19.1923L4.11101 19.4673L4.09701 19.4763C3.80541 19.6598 3.42365 19.6038 3.19701 19.3443C3.44494 19.388 3.70015 19.3339 3.90901 19.1933L3.91101 19.1923ZM3.15201 19.2983L3.01301 19.0983C3.19304 19.0951 3.36862 19.0418 3.52001 18.9443C3.44381 19.1015 3.313 19.2255 3.15201 19.2933V19.2983ZM1.53801 17.0213L1.44701 16.8933C1.53198 16.8608 1.62127 16.8409 1.71201 16.8343C1.64653 16.8892 1.58808 16.952 1.53801 17.0213ZM1.44701 16.8933L1.53801 17.0213C1.40999 17.2007 1.33198 17.4109 1.31201 17.6303C1.27639 17.9364 1.361 18.2444 1.54801 18.4893C1.14199 18.3868 0.868803 18.0068 0.901011 17.5893C0.934775 17.271 1.14651 16.9996 1.44701 16.8893V16.8933ZM1.90501 17.5383C1.84031 17.7851 1.91503 18.0476 2.10001 18.2233C2.06276 18.0832 2.05831 17.9364 2.08701 17.7943L1.90501 17.5383ZM3.01701 19.1023L3.15601 19.3023C3.05679 19.3435 2.94895 19.3597 2.84201 19.3493C2.53569 19.3137 2.28878 19.0818 2.23401 18.7783C2.40127 18.9671 2.6355 19.0833 2.88701 19.1023C2.93064 19.1049 2.97438 19.1049 3.01801 19.1023H3.01701ZM1.49601 18.8893C1.42473 19.1807 1.55288 19.4845 1.81138 19.6368C2.06988 19.789 2.39765 19.7539 2.61801 19.5503C2.37001 19.595 2.11434 19.5416 1.90501 19.4013C1.71419 19.2821 1.5696 19.1016 1.49501 18.8893H1.49601Z" fill="#D68420"/>
<path fill-rule="evenodd" clip-rule="evenodd" d="M21.2695 24.2402C21.6337 24.6582 21.8347 25.1937 21.8355 25.7482C21.8163 26.823 21.0885 27.7556 20.0505 28.0352C19.6306 28.9415 18.7172 29.5165 17.7185 29.5032C16.9587 29.5094 16.2349 29.1801 15.7405 28.6032C14.4849 28.512 13.5036 27.4827 13.4725 26.2242V26.1722C13.1806 25.778 13.0229 25.3006 13.0225 24.8102C13.0284 24.0285 13.4223 23.3007 14.0735 22.8682C14.4143 21.8182 15.4007 21.1138 16.5045 21.1322C16.9569 21.1307 17.402 21.2465 17.7965 21.4682C18.1202 21.3346 18.4672 21.2666 18.8175 21.2682C20.1755 21.2318 21.3063 22.3022 21.3445 23.6602C21.3445 23.8559 21.3193 24.0509 21.2695 24.2402Z" fill="#F6B86B"/>
<path fill-rule="evenodd" clip-rule="evenodd" d="M18.5291 28.7652V28.1342C18.7683 28.0103 18.9741 27.8306 19.1291 27.6102C19.1442 28.0735 18.9168 28.5112 18.5291 28.7652ZM18.5291 27.5742C18.936 27.6188 19.3389 27.4616 19.6081 27.1532C19.9713 26.7152 20.0026 26.0903 19.6851 25.6182C19.7044 26.0821 19.5426 26.5353 19.2341 26.8822C19.0426 27.1073 18.8012 27.2847 18.5291 27.4002V27.5742ZM18.5291 24.0662V23.5522C18.9378 23.7942 19.18 24.2417 19.1591 24.7162C19.009 24.4486 18.7919 24.2246 18.5291 24.0662ZM18.5291 22.4382C18.8673 22.5284 19.1807 22.6939 19.4461 22.9222C19.885 23.2827 20.1665 23.7998 20.2311 24.3642C20.6379 23.7094 20.5147 22.8569 19.9391 22.3442C19.5484 22.0155 19.0197 21.903 18.5291 22.0442V22.4362V22.4382ZM20.8111 24.8282C21.2791 25.1231 21.4981 25.6901 21.3498 26.223C21.2015 26.7559 20.7211 27.1284 20.1681 27.1392C20.5544 26.8816 20.8255 26.4839 20.9241 26.0302C21.024 25.6283 20.9842 25.2044 20.8111 24.8282ZM18.5291 22.0472V22.4392C18.3237 22.385 18.111 22.3644 17.8991 22.3782C18.0832 22.2243 18.2979 22.1115 18.5291 22.0472ZM18.5291 23.5532V24.0672C18.4396 24.0125 18.346 23.9651 18.2491 23.9252C17.9796 23.8122 17.6877 23.763 17.3961 23.7812V23.5112C17.7585 23.3397 18.1817 23.3557 18.5301 23.5542L18.5291 23.5532ZM18.5291 27.4012V27.5752C18.4157 27.5641 18.3042 27.5389 18.1971 27.5002C18.3109 27.4786 18.4222 27.4451 18.5291 27.4002V27.4012ZM18.5291 28.1352V28.7662C18.4019 28.8466 18.2608 28.9026 18.1131 28.9312C17.8717 28.978 17.6218 28.9508 17.3961 28.8532V28.3452C17.7866 28.3898 18.1815 28.3167 18.5301 28.1352H18.5291ZM17.3951 27.0432V26.7882C17.5636 26.8072 17.734 26.7994 17.9001 26.7652C17.7535 26.8928 17.5813 26.9876 17.3951 27.0432ZM17.3951 25.8662V24.7432C17.696 24.7559 17.9334 25.0035 17.9334 25.3047C17.9334 25.6058 17.696 25.8535 17.3951 25.8662ZM17.3951 22.5732V22.1572C17.6015 22.3148 17.7685 22.5181 17.8831 22.7512C17.7296 22.6697 17.5658 22.6095 17.3961 22.5722L17.3951 22.5732ZM17.3951 22.1572V22.5732C17.2309 22.5371 17.0631 22.5204 16.8951 22.5232V21.8932C17.0757 21.949 17.245 22.0363 17.3951 22.1512V22.1572ZM17.3951 23.5122V23.7822C17.2277 23.7933 17.063 23.8304 16.9071 23.8922C17.0383 23.7293 17.2053 23.5989 17.3951 23.5112V23.5122ZM17.3951 24.7432V25.8662H17.3881C17.1785 25.8672 16.9858 25.7516 16.8881 25.5662V25.0342C16.9858 24.8488 17.1785 24.7331 17.3881 24.7342L17.3951 24.7432ZM17.3951 26.7892V27.0442C17.2332 27.0927 17.0632 27.1087 16.8951 27.0912V26.6592C17.0548 26.7258 17.2231 26.7696 17.3951 26.7892ZM17.3951 28.3462V28.8542C17.2002 28.7688 17.0287 28.6378 16.8951 28.4722V28.2102C17.054 28.2803 17.2225 28.3261 17.3951 28.3462ZM16.8951 21.8992V22.5242H16.8181V21.8762L16.8951 21.8972V21.8992ZM16.8951 25.0392V25.5712C16.806 25.405 16.806 25.2053 16.8951 25.0392ZM16.8951 26.6582V27.0902L16.8181 27.0792V26.6242L16.8951 26.6582ZM16.8951 27.5032V27.5522C16.8701 27.5712 16.8441 27.5892 16.8181 27.6062V27.5062L16.8951 27.5032ZM16.8951 28.2092V28.4712C16.8684 28.4378 16.8427 28.4045 16.8181 28.3712V28.1762L16.8951 28.2092ZM16.8181 21.8772V22.5252C16.6251 22.5356 16.4341 22.5692 16.2491 22.6252C16.1314 22.6604 16.0164 22.7042 15.9051 22.7562V21.9412C15.9461 21.9252 15.9891 21.9092 16.0321 21.8972C16.2878 21.8211 16.5593 21.8152 16.8181 21.8802V21.8772ZM16.8181 26.6242V27.0792C16.4099 27.0086 16.0657 26.735 15.9051 26.3532V25.7432C16.0582 26.0531 16.2943 26.3145 16.5871 26.4982C16.6612 26.5453 16.7383 26.5874 16.8181 26.6242ZM16.8181 27.5042V27.6042C16.548 27.7857 16.2305 27.8838 15.9051 27.8862V27.2762C16.1886 27.4189 16.5007 27.4958 16.8181 27.5012V27.5042ZM16.8181 28.1722V28.3672C16.7601 28.2799 16.7121 28.1863 16.6751 28.0882C16.7212 28.1187 16.769 28.1467 16.8181 28.1722ZM15.9051 23.8912V23.4392C16.1828 23.3523 16.4813 23.3586 16.7551 23.4572C16.4365 23.5218 16.1418 23.6726 15.9031 23.8932L15.9051 23.8912ZM14.6261 23.5852C14.5871 23.5852 14.5481 23.5902 14.5091 23.5952V23.6682C14.5471 23.6382 14.5861 23.6112 14.6261 23.5852ZM15.9051 21.9392V22.7542C15.5032 22.9374 15.1686 23.2415 14.9481 23.6242C14.8499 22.9108 15.2421 22.2202 15.9051 21.9392ZM15.9051 23.4392C15.6873 23.5084 15.4933 23.6373 15.3451 23.8112C14.9845 24.2515 14.9568 24.8767 15.2771 25.3472C15.2549 24.8835 15.4142 24.4294 15.7211 24.0812C15.778 24.0138 15.8395 23.9503 15.9051 23.8912V23.4392ZM15.9051 25.7392V26.3492C15.7986 26.0965 15.7724 25.8172 15.8301 25.5492C15.8513 25.6123 15.8764 25.6741 15.9051 25.7342V25.7392ZM15.9051 27.2752C15.7283 27.1875 15.5631 27.0783 15.4131 26.9502C14.9744 26.5899 14.6929 26.0732 14.6281 25.5092C14.5818 25.5871 14.542 25.6687 14.5091 25.7532V26.9612C14.5988 27.1803 14.7397 27.3748 14.9201 27.5282C15.1948 27.7617 15.5445 27.8884 15.9051 27.8852V27.2752ZM14.5051 23.5912C14.0185 23.6446 13.6062 23.9736 13.4461 24.4362C13.276 24.9786 13.4831 25.5683 13.9551 25.8852C13.7615 25.4634 13.7396 24.9828 13.8941 24.5452C14.0063 24.1979 14.2185 23.8914 14.5041 23.6642V23.5932L14.5051 23.5912ZM14.5051 25.7532V26.9612C14.3511 26.5741 14.3518 26.1427 14.5071 25.7562L14.5051 25.7532Z" fill="#D68420"/>
<path fill-rule="evenodd" clip-rule="evenodd" d="M26.3703 25.0124C23.8853 22.9404 21.8703 23.4194 21.0913 23.8224C21.9639 23.298 23.0184 23.1696 23.9913 23.4694C24.9016 23.7751 25.7199 24.3059 26.3703 25.0124Z" fill="#9F5F2E"/>
<path fill-rule="evenodd" clip-rule="evenodd" d="M23.3931 23.7974C22.9721 24.1344 22.4421 25.0204 23.7481 26.6374C24.6161 24.7484 23.8841 24.0204 23.3931 23.7974Z" fill="#608627"/>
<path fill-rule="evenodd" clip-rule="evenodd" d="M23.8261 23.1953C23.5091 22.7583 23.2331 21.7643 24.9201 20.5503C25.2571 22.6013 24.3591 23.1093 23.8261 23.1953Z" fill="#608627"/>
<path fill-rule="evenodd" clip-rule="evenodd" d="M25.7513 27.0032C25.525 26.8898 25.3474 26.6984 25.2513 26.4642C25.0754 26.0074 25.2225 25.4894 25.6123 25.1932C25.6342 24.739 25.9208 24.34 26.3443 24.1742C26.6644 24.0413 27.0269 24.0571 27.3343 24.2172C27.8797 24.0403 28.4704 24.3064 28.6993 24.8322L28.7073 24.8542C28.8981 24.9713 29.0464 25.1466 29.1303 25.3542C29.2619 25.6852 29.2203 26.0601 29.0193 26.3542C29.0554 26.8555 28.76 27.3217 28.2913 27.5032C27.9233 27.4581 27.555 27.5837 27.2913 27.8442C26.7243 28.0924 26.0635 27.8347 25.8143 27.2682C25.7815 27.1831 25.7603 27.094 25.7513 27.0032Z" fill="#8BC7A3"/>
<path fill-rule="evenodd" clip-rule="evenodd" d="M28.6671 26.1411C28.8891 26.0448 29.0282 25.8209 29.0161 25.5791C29.0106 25.4907 28.9839 25.4049 28.9381 25.3291L28.7951 25.5051C28.8013 25.5382 28.8056 25.5716 28.8081 25.6051C28.8227 25.793 28.773 25.9803 28.6671 26.1361V26.1411ZM27.1501 27.5411L27.3791 27.2571C27.4174 27.2448 27.4548 27.2297 27.4911 27.2121C27.4154 27.3553 27.2959 27.4706 27.1501 27.5411ZM27.5021 27.1061L27.5421 27.0571C27.7634 27.0477 27.9757 26.9666 28.1471 26.8261C28.3513 26.6679 28.4865 26.4368 28.5241 26.1811C28.7043 26.4687 28.6523 26.8441 28.4007 27.0719C28.1491 27.2996 27.7703 27.3141 27.5021 27.1061ZM27.9721 26.5251C28.1381 26.4678 28.2682 26.3367 28.3241 26.1701C28.3361 26.1344 28.3441 26.0976 28.3481 26.0601L27.9721 26.5251ZM28.9391 25.3301C28.8541 25.1898 28.7153 25.0904 28.5551 25.0551C28.6826 25.175 28.7672 25.3335 28.7961 25.5061L28.9391 25.3301ZM28.3491 26.0601L27.9731 26.5251C27.9145 26.546 27.8532 26.5582 27.7911 26.5611C28.1034 26.3458 28.2386 25.9518 28.1241 25.5901L28.1501 25.5571C28.2936 25.6817 28.3681 25.8679 28.3501 26.0571L28.3491 26.0601ZM27.5431 27.0601L27.5031 27.1091C27.4794 27.0928 27.4567 27.0751 27.4351 27.0561C27.471 27.0585 27.5071 27.0585 27.5431 27.0561V27.0601ZM27.3811 27.2601L27.1521 27.5441C26.9918 27.622 26.8075 27.6346 26.6381 27.5791C26.6072 27.569 26.5771 27.5567 26.5481 27.5421L26.7761 27.2601C26.9734 27.3215 27.1847 27.3215 27.3821 27.2601H27.3811ZM27.1211 26.8321C27.3705 26.8179 27.5835 26.6473 27.6521 26.4071C27.5573 26.4967 27.4413 26.5607 27.3151 26.5931L27.1221 26.8321H27.1211ZM28.3371 25.3301C28.2606 25.1866 28.1483 25.0653 28.0111 24.9781L28.1901 24.7561C28.3149 24.9188 28.368 25.1254 28.3371 25.3281V25.3301ZM27.3141 26.5941L27.1211 26.8331H27.0961C26.9324 26.831 26.7778 26.758 26.6721 26.6331L26.7381 26.5511C26.8461 26.5976 26.9625 26.6217 27.0801 26.6221C27.159 26.6229 27.2377 26.6132 27.3141 26.5931V26.5941ZM26.7751 27.2611L26.5471 27.5431C26.4004 27.4688 26.2848 27.3447 26.2211 27.1931L26.3571 27.0241C26.4693 27.1269 26.6023 27.2043 26.7471 27.2511L26.7761 27.2601L26.7751 27.2611ZM27.0871 26.1211L27.4031 25.7311C27.4197 25.7517 27.4332 25.7746 27.4431 25.7991C27.4834 25.8986 27.4574 26.0128 27.3779 26.0849C27.2983 26.1571 27.1822 26.172 27.0871 26.1221V26.1211ZM27.6771 25.3911L27.7421 25.3111C27.781 25.3753 27.8078 25.4462 27.8211 25.5201C27.7791 25.4694 27.7307 25.4244 27.6771 25.3861V25.3911ZM28.1891 24.7581L28.0101 24.9801C27.9316 24.9291 27.8469 24.8884 27.7581 24.8591H27.7471L27.9731 24.5791C28.0568 24.6242 28.1304 24.6862 28.1891 24.7611V24.7581ZM27.7421 25.3111L27.6771 25.3911C27.5961 25.3354 27.5061 25.2941 27.4111 25.2691L27.5401 25.1101C27.6222 25.1592 27.691 25.228 27.7401 25.3101L27.7421 25.3111ZM27.4031 25.7301L27.0871 26.1201C26.9818 26.0648 26.9287 25.9441 26.9591 25.8291L27.0911 25.6651L27.1101 25.6561C27.2132 25.6141 27.3317 25.6437 27.4031 25.7291V25.7301ZM26.7371 26.5531L26.6711 26.6351C26.6228 26.5793 26.5849 26.5153 26.5591 26.4461C26.6132 26.4901 26.6731 26.5265 26.7371 26.5541V26.5531ZM26.3561 27.0241L26.2201 27.1931C26.1689 27.0738 26.1493 26.9433 26.1631 26.8141L26.1771 26.7971C26.2247 26.88 26.2851 26.955 26.3561 27.0191V27.0241ZM27.9731 24.5761L27.7471 24.8561C27.5735 24.7991 27.3879 24.7888 27.2091 24.8261L27.4511 24.5261C27.5867 24.4825 27.7325 24.4825 27.8681 24.5261C27.9046 24.5382 27.94 24.5533 27.9741 24.5711L27.9731 24.5761ZM27.5411 25.1101L27.4121 25.2691C27.3891 25.2621 27.3651 25.2571 27.3411 25.2531C27.1581 25.2171 26.9683 25.2435 26.8021 25.3281L26.9761 25.1131C27.1503 25.0099 27.3669 25.0099 27.5411 25.1131V25.1101ZM27.0921 25.6651L26.9601 25.8291C26.9785 25.7581 27.0266 25.6983 27.0921 25.6651ZM25.7351 26.6471L25.7701 26.6031C25.7927 26.6306 25.8175 26.6564 25.8441 26.6801C25.8068 26.672 25.7703 26.6606 25.7351 26.6461V26.6471ZM27.4531 24.5311L27.2111 24.8311C27.142 24.8459 27.0749 24.8687 27.0111 24.8991C27.1038 24.7241 27.2614 24.5924 27.4501 24.5321L27.4531 24.5311ZM26.9791 25.1171L26.8051 25.3321C26.7841 25.3431 26.7631 25.3561 26.7431 25.3691C26.7961 25.2643 26.878 25.1769 26.9791 25.1171ZM26.1681 26.1171C26.0316 25.7465 26.1647 25.3306 26.4911 25.1081C26.4663 25.1088 26.4416 25.1111 26.4171 25.1151L25.9281 25.7151C25.9437 25.8782 26.0254 26.0278 26.1541 26.1291L26.1671 26.1121L26.1681 26.1171ZM25.7681 26.6061L25.7331 26.6501C25.5933 26.5945 25.4804 26.487 25.4181 26.3501L25.5821 26.1501C25.5821 26.1671 25.5821 26.1851 25.5891 26.2031C25.6114 26.3537 25.6736 26.4956 25.7691 26.6141L25.7681 26.6061ZM26.8401 24.5871L26.9111 24.4991C26.9543 24.5276 26.9939 24.5612 27.0291 24.5991C26.9675 24.5848 26.9043 24.5784 26.8411 24.5801L26.8401 24.5871ZM26.9111 24.4991L26.8401 24.5871C26.6943 24.598 26.5538 24.6462 26.4321 24.7271C26.253 24.8394 26.1246 25.0169 26.0741 25.2221C25.9542 24.9619 26.0385 24.6532 26.2741 24.4901C26.4684 24.3676 26.7167 24.3715 26.9071 24.5001L26.9111 24.4991ZM26.4111 25.1151C26.1979 25.1456 26.0196 25.2926 25.9491 25.4961C25.925 25.5678 25.9158 25.6437 25.9221 25.7191L26.4111 25.1191V25.1151ZM25.5801 26.1421L25.4161 26.3421C25.3972 26.299 25.3841 26.2536 25.3771 26.2071C25.3417 25.9502 25.4797 25.7007 25.7161 25.5941C25.6088 25.7532 25.5623 25.9456 25.5851 26.1361L25.5801 26.1421Z" fill="#457A5C"/>
<path fill-rule="evenodd" clip-rule="evenodd" d="M31.6663 20.2131C28.2023 24.1191 24.8663 23.8431 23.5303 23.3861C23.6783 23.7651 26.2733 24.1491 28.2363 23.2511C29.3643 22.7351 31.5243 20.8751 31.6663 20.2131Z" fill="#9F5F2E"/>
<path fill-rule="evenodd" clip-rule="evenodd" d="M26.2681 23.2722C25.9291 22.7992 25.6371 21.7262 27.4631 20.4282C27.8131 22.6412 26.8421 23.1832 26.2681 23.2722Z" fill="#ABC365"/>
<path fill-rule="evenodd" clip-rule="evenodd" d="M29.6831 21.5452C29.1831 21.2532 28.4721 20.3952 29.6031 18.4612C30.8331 20.3342 30.1711 21.2272 29.6831 21.5452Z" fill="#ABC365"/>
<path fill-rule="evenodd" clip-rule="evenodd" d="M31.186 21.6652C31.534 22.1312 32.469 22.7352 34.259 21.3862C32.261 20.3832 31.45 21.1452 31.186 21.6652Z" fill="#ABC365"/>
<path fill-rule="evenodd" clip-rule="evenodd" d="M28.4424 23.3131C28.6104 23.8701 29.2824 24.7561 31.4254 24.1011C29.8874 22.4741 28.8644 22.9131 28.4424 23.3131Z" fill="#608627"/>
<path fill-rule="evenodd" clip-rule="evenodd" d="M34.2383 19.5222C34.2032 19.8219 34.0612 20.0988 33.8383 20.3022C33.401 20.6886 32.7608 20.7392 32.2683 20.4262C31.7515 20.5904 31.1864 20.4357 30.8253 20.0312C30.5444 19.7288 30.4112 19.3179 30.4613 18.9082C30.0377 18.3721 30.0901 17.6021 30.5823 17.1282L30.6033 17.1092C30.6543 16.8481 30.7874 16.6102 30.9833 16.4302C31.2982 16.1461 31.7337 16.0371 32.1453 16.1392C32.6903 15.8905 33.3339 16.0268 33.7313 16.4752C33.835 16.9051 34.1297 17.264 34.5313 17.4492C35.0446 17.9791 35.0312 18.8248 34.5013 19.3382C34.422 19.4107 34.3336 19.4725 34.2383 19.5222Z" fill="#F6B86B"/>
<path fill-rule="evenodd" clip-rule="evenodd" d="M32.1535 19.8601L32.3045 19.6741C32.3481 19.6766 32.3919 19.6766 32.4355 19.6741C32.6874 19.6704 32.928 19.569 33.1065 19.3911C33.033 19.6905 32.7723 19.9065 32.4645 19.9231C32.3573 19.927 32.2508 19.9044 32.1545 19.8571L32.1535 19.8601ZM33.3135 18.4261L33.5135 18.1821C33.5626 18.4323 33.4718 18.6893 33.2765 18.8531C33.3222 18.7157 33.3356 18.5696 33.3155 18.4261H33.3135ZM33.9135 17.6891C34.0302 17.8761 34.0951 18.0908 34.1015 18.3111C34.1178 18.6186 34.0142 18.9205 33.8125 19.1531C34.2234 19.0754 34.5188 18.7133 34.5125 18.2951C34.4975 17.977 34.3039 17.6947 34.0125 17.5661L33.9125 17.6881L33.9135 17.6891ZM33.8395 19.5561C33.8926 19.8515 33.7458 20.1467 33.4783 20.2827C33.2108 20.4186 32.8858 20.3631 32.6785 20.1461C32.9227 20.2076 33.1812 20.1717 33.3995 20.0461C33.5965 19.9368 33.7502 19.7637 33.8355 19.5551L33.8395 19.5561ZM34.0125 17.5671L33.9125 17.6891C33.8671 17.6159 33.8127 17.5488 33.7505 17.4891C33.8407 17.501 33.9287 17.5263 34.0115 17.5641L34.0125 17.5671ZM33.5125 18.1821L33.3125 18.4261C33.3022 18.3483 33.2835 18.2719 33.2565 18.1981C33.1978 18.0342 33.0984 17.888 32.9675 17.7731L33.0425 17.6811C33.2466 17.7415 33.4104 17.8946 33.4845 18.0941C33.4953 18.1232 33.5039 18.1529 33.5105 18.1831L33.5125 18.1821ZM32.3055 19.6741L32.1545 19.8601C31.9976 19.7825 31.8746 19.6502 31.8085 19.4881C31.9545 19.5957 32.1277 19.6601 32.3085 19.6741H32.3055ZM31.1925 19.9741L31.4045 19.7121C31.6038 19.8652 31.8547 19.9351 32.1045 19.9071C31.8631 20.1485 31.4829 20.1806 31.2045 19.9831L31.1915 19.9731L31.1925 19.9741ZM32.2685 18.6431L32.6385 18.1851C32.7306 18.2951 32.7321 18.4548 32.6419 18.5664C32.5518 18.678 32.3953 18.7101 32.2685 18.6431ZM33.4035 17.2431L33.6035 16.9951C33.6775 17.2006 33.6743 17.4259 33.5945 17.6291C33.5587 17.4867 33.4944 17.353 33.4055 17.2361L33.4035 17.2431ZM33.6035 16.9951L33.4035 17.2431C33.3362 17.1554 33.2575 17.077 33.1695 17.0101L33.4205 16.7001C33.5026 16.7837 33.5657 16.884 33.6055 16.9941L33.6035 16.9951ZM33.0435 17.6881L32.9685 17.7801C32.9111 17.7309 32.8476 17.6892 32.7795 17.6561C32.8686 17.6504 32.9581 17.6609 33.0435 17.6871V17.6881ZM32.6385 18.1881L32.2685 18.6461C32.2304 18.629 32.1964 18.6042 32.1685 18.5731C32.1118 18.5125 32.0829 18.431 32.0885 18.3481L32.3105 18.0731C32.4212 18.041 32.5406 18.0753 32.6175 18.1611C32.626 18.1698 32.6337 18.1791 32.6405 18.1891L32.6385 18.1881ZM31.9385 19.0601L31.9125 19.0921C31.802 19.0661 31.6992 19.0144 31.6125 18.9411L31.7315 18.7941C31.7839 18.8948 31.8544 18.985 31.9395 19.0601H31.9385ZM31.4095 19.7151L31.1975 19.9771C31.1086 19.9059 31.0397 19.8129 30.9975 19.7071L31.1825 19.4781C31.247 19.5685 31.3253 19.6481 31.4145 19.7141L31.4095 19.7151ZM33.4255 16.7031L33.1745 17.0131C33.135 16.9833 33.094 16.9556 33.0515 16.9301C32.9664 16.8791 32.8758 16.8379 32.7815 16.8071L33.0425 16.4851C33.188 16.5212 33.3206 16.597 33.4255 16.7041V16.7031ZM32.8765 17.3811L32.8565 17.4051C32.7242 17.3209 32.5737 17.2698 32.4175 17.2561L32.5655 17.0731C32.6988 17.1408 32.8076 17.2485 32.8765 17.3811ZM32.3145 18.0751L32.0925 18.3501C32.1004 18.2206 32.1895 18.1102 32.3145 18.0751ZM31.7305 18.7971L31.6115 18.9441C31.4906 18.8438 31.4091 18.7039 31.3815 18.5491V18.5381L31.6105 18.2551C31.6074 18.3325 31.6124 18.4099 31.6255 18.4861C31.6444 18.5947 31.6802 18.6996 31.7315 18.7971H31.7305ZM31.1765 19.4811L30.9915 19.7101C30.9127 19.5136 30.923 19.2926 31.0195 19.1041C31.0422 19.2402 31.096 19.3692 31.1765 19.4811ZM31.0765 18.9151L31.1855 18.7801C31.2342 18.8618 31.2938 18.9364 31.3625 19.0021C31.2601 18.9865 31.161 18.9538 31.0695 18.9051L31.0765 18.9151ZM32.0765 16.6321C32.034 16.5897 31.9867 16.5524 31.9355 16.5211L31.8695 16.6031C31.9397 16.6047 32.0095 16.6144 32.0775 16.6321H32.0765ZM33.0475 16.4841L32.7865 16.8061C32.5904 16.7405 32.3802 16.7298 32.1785 16.7751C32.3903 16.5229 32.7253 16.4102 33.0465 16.4831L33.0475 16.4841ZM32.5705 17.0731C32.471 17.0234 32.3606 16.9997 32.2495 17.0041C31.9413 17.0221 31.6813 17.2399 31.6095 17.5401C31.7871 17.3612 32.0274 17.2583 32.2795 17.2531C32.3271 17.2499 32.3749 17.2499 32.4225 17.2531L32.5705 17.0701V17.0731ZM31.6145 18.2551L31.3855 18.5381C31.3473 18.2569 31.4828 17.9803 31.7285 17.8381C31.6588 17.9668 31.6198 18.1099 31.6145 18.2561V18.2551ZM31.1895 18.7801C31.0822 18.598 31.023 18.3915 31.0175 18.1801C31.0008 17.8726 31.1045 17.5706 31.3065 17.3381L31.2655 17.3481L30.6045 18.1651C30.6045 18.1761 30.6045 18.1861 30.6045 18.1961C30.6192 18.5045 30.802 18.7799 31.0805 18.9131L31.1895 18.7801ZM31.9355 16.5201C31.7453 16.4016 31.5089 16.3844 31.3035 16.4741C31.025 16.606 30.8655 16.9044 30.9105 17.2091C31.0085 16.977 31.1928 16.792 31.4245 16.6931C31.5642 16.63 31.7162 16.5986 31.8695 16.6011L31.9355 16.5191V16.5201ZM31.2655 17.3491L30.6045 18.1661C30.6077 17.7752 30.8744 17.4357 31.2535 17.3401L31.2655 17.3491Z" fill="#D68420"/>
<defs>
<radialGradient id="paint0_radial_7806_10696" cx="0" cy="0" r="1" gradientUnits="userSpaceOnUse" gradientTransform="translate(748.633 3889.32) scale(23.8116 31.1534)">
<stop stop-color="white"/>
<stop offset="1" stop-color="white"/>
</radialGradient>
</defs>
</svg>
