<svg width="43" height="43" viewBox="0 0 43 43" fill="none" xmlns="http://www.w3.org/2000/svg">
<g clip-path="url(#clip0_1414_36254)">
<g filter="url(#filter0_d_1414_36254)">
<path d="M21.5 1.34375C10.3677 1.34375 1.34375 10.3677 1.34375 21.5C1.34375 32.631 10.3677 41.6562 21.5 41.6562C32.6323 41.6562 41.6562 32.631 41.6562 21.5C41.6562 10.3677 32.6316 1.34375 21.5 1.34375ZM21.5 3.02881C27.176 3.02881 32.2581 5.60344 35.6504 9.64409C28.8982 6.63008 21.6477 4.88851 14.2632 4.50694C16.4871 3.55623 18.9328 3.02881 21.5 3.02881ZM12.5184 5.36761C20.8113 5.52617 29.3038 7.87639 36.8241 11.1981C38.4904 13.6663 39.5313 16.5028 39.857 19.4629C29.1856 13.9454 16.9944 11.1498 5.62494 12.0709C7.29581 9.27114 9.67298 6.95954 12.5184 5.36761ZM21.5 39.9712C11.315 39.9712 3.02881 31.6843 3.02881 21.5C3.02881 18.5263 3.73966 15.7165 4.99338 13.2259C11.9757 12.7264 18.9915 13.4564 25.7214 15.3826C26.3798 15.9893 27.0255 16.6108 27.6571 17.2443C26.6963 17.8349 26.0493 18.8783 26.0493 20.0884C26.0493 20.9822 26.4043 21.8394 27.0364 22.4714C27.6684 23.1034 28.5256 23.4585 29.4194 23.4585C30.4836 23.4585 31.4283 22.964 32.0451 22.1927C34.1306 24.8251 35.9789 27.6416 37.5397 30.6435C34.3536 36.21 28.3592 39.9712 21.5 39.9712ZM29.1728 16.4932C32.9301 17.8203 36.5467 19.5161 39.9698 21.5558C39.9645 24.0844 39.4363 26.5846 38.4185 28.8994C36.1052 24.1794 32.9353 20.0588 29.1728 16.4932Z" fill="#2C50ED"/>
</g>
<path d="M13.5806 23.4585C15.4418 23.4585 16.9507 21.9497 16.9507 20.0884C16.9507 18.2271 15.4418 16.7183 13.5806 16.7183C11.7193 16.7183 10.2104 18.2271 10.2104 20.0884C10.2104 21.9497 11.7193 23.4585 13.5806 23.4585Z" fill="#2C50ED"/>
<path d="M27.1404 28.7334C23.2536 27.69 19.0187 28.4452 15.7292 30.7645C14.9169 31.3504 16.4387 33.4789 17.247 32.889C19.4185 31.3611 22.8753 30.305 26.4544 31.2503C27.4118 31.5049 28.1623 29.0203 27.1404 28.7334Z" fill="#2C50ED"/>
</g>
<defs>
<filter id="filter0_d_1414_36254" x="-2.65625" y="1.34375" width="48.3125" height="48.3125" filterUnits="userSpaceOnUse" color-interpolation-filters="sRGB">
<feFlood flood-opacity="0" result="BackgroundImageFix"/>
<feColorMatrix in="SourceAlpha" type="matrix" values="0 0 0 0 0 0 0 0 0 0 0 0 0 0 0 0 0 0 127 0" result="hardAlpha"/>
<feOffset dy="4"/>
<feGaussianBlur stdDeviation="2"/>
<feComposite in2="hardAlpha" operator="out"/>
<feColorMatrix type="matrix" values="0 0 0 0 0 0 0 0 0 0 0 0 0 0 0 0 0 0 0.25 0"/>
<feBlend mode="normal" in2="BackgroundImageFix" result="effect1_dropShadow_1414_36254"/>
<feBlend mode="normal" in="SourceGraphic" in2="effect1_dropShadow_1414_36254" result="shape"/>
</filter>
<clipPath id="clip0_1414_36254">
<rect width="43" height="43" fill="white"/>
</clipPath>
</defs>
</svg>
