<svg width="23" height="24" viewBox="0 0 23 24" fill="none" xmlns="http://www.w3.org/2000/svg">
<path fill-rule="evenodd" clip-rule="evenodd" d="M0.660156 9.6C0.660156 5.0748 0.660156 2.8116 2.06656 1.4064C3.47176 -1.43051e-07 5.73496 0 10.2602 0H12.6602C17.1854 0 19.4486 -1.43051e-07 20.8538 1.4064C22.2602 2.8116 22.2602 5.0748 22.2602 9.6V14.4C22.2602 18.9252 22.2602 21.1884 20.8538 22.5936C19.4486 24 17.1854 24 12.6602 24H10.2602C5.73496 24 3.47176 24 2.06656 22.5936C0.660156 21.1884 0.660156 18.9252 0.660156 14.4V9.6ZM4.26016 12C4.26016 10.3032 4.26016 9.4548 4.78816 8.928C5.31376 8.4 6.16216 8.4 7.86016 8.4H15.0602C16.757 8.4 17.6054 8.4 18.1322 8.928C18.6602 9.4548 18.6602 10.3032 18.6602 12V16.8C18.6602 18.4968 18.6602 19.3452 18.1322 19.872C17.6054 20.4 16.757 20.4 15.0602 20.4H7.86016C6.16336 20.4 5.31496 20.4 4.78816 19.872C4.26016 19.3464 4.26016 18.498 4.26016 16.8V12ZM5.46016 3.9C5.22146 3.9 4.99254 3.99482 4.82376 4.1636C4.65498 4.33239 4.56016 4.56131 4.56016 4.8C4.56016 5.03869 4.65498 5.26761 4.82376 5.4364C4.99254 5.60518 5.22146 5.7 5.46016 5.7H11.4602C11.6989 5.7 11.9278 5.60518 12.0966 5.4364C12.2653 5.26761 12.3602 5.03869 12.3602 4.8C12.3602 4.56131 12.2653 4.33239 12.0966 4.1636C11.9278 3.99482 11.6989 3.9 11.4602 3.9H5.46016Z" fill="#7A8FA6"/>
</svg>
