<svg width="14" height="15" viewBox="0 0 14 15" fill="none" xmlns="http://www.w3.org/2000/svg">
<path fill-rule="evenodd" clip-rule="evenodd" d="M4.72366 7.50016C4.72366 8.74461 5.74236 9.75713 7.00008 9.75713C8.25211 9.75713 9.27081 8.74461 9.27081 7.50016C9.27081 6.25006 8.25211 5.23754 7.00008 5.23754C5.74236 5.23754 4.72366 6.25006 4.72366 7.50016ZM10.3464 4.02703C11.3424 4.79632 12.1903 5.92198 12.7993 7.33046C12.8448 7.43794 12.8448 7.56238 12.7993 7.6642C11.5814 10.4812 9.41309 12.1668 7.00008 12.1668H6.99439C4.58707 12.1668 2.41878 10.4812 1.20089 7.6642C1.15537 7.56238 1.15537 7.43794 1.20089 7.33046C2.41878 4.5135 4.58707 2.8335 6.99439 2.8335H7.00008C8.20659 2.8335 9.35049 3.25208 10.3464 4.02703ZM7.00076 8.9074C7.78044 8.9074 8.41784 8.27387 8.41784 7.49892C8.41784 6.71831 7.78044 6.08478 7.00076 6.08478C6.93247 6.08478 6.86418 6.09043 6.80158 6.10175C6.77881 6.72397 6.26662 7.22175 5.63491 7.22175H5.60646C5.58938 7.31225 5.578 7.40276 5.578 7.49892C5.578 8.27387 6.2154 8.9074 7.00076 8.9074Z" fill="white"/>
</svg>
