<svg width="85" height="85" viewBox="0 0 85 85" fill="none" xmlns="http://www.w3.org/2000/svg">
<path d="M42.5 85C65.9721 85 85 65.9721 85 42.5C85 19.0279 65.9721 0 42.5 0C19.0279 0 0 19.0279 0 42.5C0 65.9721 19.0279 85 42.5 85Z" fill="#33589D"/>
<path d="M51.141 42.46H45.535V63H37.04V42.46H33V35.242H37.04V30.57C37.04 27.229 38.627 21.999 45.61 21.999L51.902 22.025V29.036H47.337C47.0825 29.0231 46.8282 29.0665 46.5925 29.1633C46.3567 29.2601 46.1453 29.4078 45.9733 29.5959C45.8013 29.7839 45.6729 30.0077 45.5975 30.2511C45.5221 30.4946 45.5014 30.7517 45.537 31.004V35.252H51.888L51.141 42.46Z" fill="white"/>
</svg>
