<svg width="11" height="12" viewBox="0 0 11 12" fill="none" xmlns="http://www.w3.org/2000/svg">
<path fill-rule="evenodd" clip-rule="evenodd" d="M5.92769 2.17712C7.21571 2.80513 7.89897 4.23978 7.57481 5.6356C7.42017 6.30751 7.04287 6.90738 6.50421 7.33775L7.04905 8.20949L7.66045 7.82736C7.82952 7.72169 8.05224 7.77309 8.15791 7.94216C8.26358 8.11123 8.21218 8.33395 8.04311 8.43962L7.43086 8.82228L7.96987 9.6847C8.07554 9.85377 8.02414 10.0765 7.85507 10.1822C7.686 10.2878 7.46328 10.2364 7.35761 10.0674L6.8186 9.20494L6.20635 9.5876C6.03728 9.69327 5.81456 9.64187 5.70889 9.4728C5.60322 9.30373 5.65462 9.08101 5.82369 8.97534L6.43679 8.59215L5.89195 7.72041C4.59593 8.33176 3.04943 7.96654 2.16382 6.83999C1.27822 5.71345 1.28846 4.12443 2.18852 3.0094C3.08857 1.89436 4.63966 1.54912 5.92769 2.17712ZM2.29676 4.418C2.00522 5.68084 2.79249 6.94095 4.05529 7.2327C5.31849 7.52342 6.57842 6.73596 6.87065 5.4731C7.16176 4.21016 6.37406 2.95032 5.11117 2.65899C3.84827 2.36767 2.5883 3.15515 2.29676 4.418Z" fill="white"/>
<path d="M7.57481 5.6356L7.33129 5.57905L7.33117 5.57953L7.57481 5.6356ZM5.92769 2.17712L5.81812 2.40184L5.92769 2.17712ZM6.50421 7.33775L6.34816 7.14243L6.17419 7.28142L6.29221 7.47025L6.50421 7.33775ZM7.04905 8.20949L6.83705 8.34199L6.96955 8.55399L7.18155 8.42149L7.04905 8.20949ZM7.43086 8.82228L7.29836 8.61028L7.08636 8.74278L7.21886 8.95478L7.43086 8.82228ZM7.35761 10.0674L7.14561 10.1999L7.35761 10.0674ZM6.8186 9.20494L7.0306 9.07244L6.8981 8.86044L6.6861 8.99294L6.8186 9.20494ZM5.82369 8.97534L5.95619 9.18734L5.82369 8.97534ZM6.43679 8.59215L6.56929 8.80415L6.78129 8.67165L6.64879 8.45965L6.43679 8.59215ZM5.89195 7.72041L6.10395 7.58791L5.98621 7.39953L5.78529 7.4943L5.89195 7.72041ZM2.16382 6.83999L1.96728 6.9945L2.16382 6.83999ZM2.18852 3.0094L2.38305 3.16642L2.18852 3.0094ZM4.05529 7.2327L3.99901 7.47629L3.99922 7.47633L4.05529 7.2327ZM2.29676 4.418L2.54035 4.47423L2.29676 4.418ZM6.87065 5.4731L7.11421 5.52946L7.11426 5.52926L6.87065 5.4731ZM5.11117 2.65899L5.16736 2.41539L5.11117 2.65899ZM7.81832 5.69216C8.16886 4.18282 7.43003 2.63149 6.03725 1.95241L5.81812 2.40184C7.0014 2.97877 7.62909 4.29674 7.33129 5.57905L7.81832 5.69216ZM6.66026 7.53307C7.24298 7.06749 7.65115 6.41855 7.81844 5.69167L7.33117 5.57953C7.18919 6.19647 6.84275 6.74727 6.34816 7.14243L6.66026 7.53307ZM7.26105 8.07699L6.71621 7.20525L6.29221 7.47025L6.83705 8.34199L7.26105 8.07699ZM7.52795 7.61536L6.91655 7.99749L7.18155 8.42149L7.79295 8.03936L7.52795 7.61536ZM8.36991 7.80966C8.19107 7.52351 7.81411 7.43652 7.52795 7.61536L7.79295 8.03936C7.84494 8.00687 7.91342 8.02268 7.94591 8.07466L8.36991 7.80966ZM8.17561 8.65162C8.46177 8.47277 8.54876 8.09582 8.36991 7.80966L7.94591 8.07466C7.9784 8.12665 7.9626 8.19513 7.91061 8.22762L8.17561 8.65162ZM7.56336 9.03428L8.17561 8.65162L7.91061 8.22762L7.29836 8.61028L7.56336 9.03428ZM8.18187 9.5522L7.64286 8.68978L7.21886 8.95478L7.75787 9.8172L8.18187 9.5522ZM7.98757 10.3942C8.27372 10.2153 8.36071 9.83835 8.18187 9.5522L7.75787 9.8172C7.79036 9.86918 7.77456 9.93766 7.72257 9.97015L7.98757 10.3942ZM7.14561 10.1999C7.32446 10.486 7.70142 10.573 7.98757 10.3942L7.72257 9.97015C7.67058 10.0026 7.6021 9.98684 7.56961 9.93486L7.14561 10.1999ZM6.6066 9.33744L7.14561 10.1999L7.56961 9.93486L7.0306 9.07244L6.6066 9.33744ZM6.33885 9.7996L6.9511 9.41694L6.6861 8.99294L6.07385 9.3756L6.33885 9.7996ZM5.49689 9.6053C5.67573 9.89146 6.05269 9.97844 6.33885 9.7996L6.07385 9.3756C6.02186 9.40809 5.95338 9.39229 5.92089 9.3403L5.49689 9.6053ZM5.69119 8.76334C5.40503 8.94219 5.31804 9.31915 5.49689 9.6053L5.92089 9.3403C5.8884 9.28832 5.9042 9.21983 5.95619 9.18734L5.69119 8.76334ZM6.30429 8.38015L5.69119 8.76334L5.95619 9.18734L6.56929 8.80415L6.30429 8.38015ZM5.67995 7.85291L6.22479 8.72465L6.64879 8.45965L6.10395 7.58791L5.67995 7.85291ZM1.96728 6.9945C2.92491 8.21266 4.59719 8.60758 5.99861 7.94652L5.78529 7.4943C4.59468 8.05593 3.17394 7.72042 2.36036 6.68549L1.96728 6.9945ZM1.99399 2.85237C1.02073 4.05809 1.00965 5.77633 1.96728 6.9945L2.36036 6.68549C1.54678 5.65056 1.55619 4.19077 2.38305 3.16642L1.99399 2.85237ZM6.03725 1.95241C4.64447 1.27333 2.96724 1.64665 1.99399 2.85237L2.38305 3.16642C3.20991 2.14207 4.63485 1.8249 5.81812 2.40184L6.03725 1.95241ZM4.11156 6.98912C2.98328 6.72845 2.27987 5.60256 2.54035 4.47423L2.05316 4.36176C1.73057 5.75912 2.6017 7.15346 3.99901 7.47629L4.11156 6.98912ZM6.62708 5.41674C6.36596 6.54519 5.24012 7.24884 4.11136 6.98907L3.99922 7.47633C5.39686 7.79799 6.79089 6.92672 7.11421 5.52946L6.62708 5.41674ZM5.05497 2.90259C6.18334 3.16289 6.88714 4.28853 6.62704 5.41695L7.11426 5.52926C7.43638 4.13179 6.56478 2.73774 5.16736 2.41539L5.05497 2.90259ZM2.54035 4.47423C2.80083 3.3459 3.9266 2.6423 5.05497 2.90259L5.16736 2.41539C3.76994 2.09303 2.37576 2.9644 2.05316 4.36176L2.54035 4.47423Z" fill="white"/>
</svg>
