<svg width="18" height="16" viewBox="0 0 18 16" fill="none" xmlns="http://www.w3.org/2000/svg">
<path d="M0.873291 2.20766C0.873291 1.4383 1.4754 0.802734 2.24477 0.802734H16.5951C17.3645 0.802734 18.0001 1.4383 18.0001 2.20766C18.0001 2.54217 17.8662 2.84323 17.6655 3.07738L12.1127 9.93478V14.7182C12.1127 15.3203 11.611 15.7886 11.0089 15.7886C10.7747 15.7886 10.5405 15.7217 10.3398 15.5545L7.26238 13.1126C6.92787 12.845 6.76061 12.477 6.76061 12.0756V9.93478L1.17435 3.07738C0.973643 2.84323 0.873291 2.54217 0.873291 2.20766ZM2.67963 2.40837L8.16554 9.13196C8.29935 9.29921 8.36625 9.46647 8.36625 9.63372V11.9418L10.5071 13.6478V9.63372C10.5071 9.46647 10.5405 9.29921 10.6743 9.13196L16.1603 2.40837H2.67963Z" fill="white"/>
</svg>
