<svg width="14" height="13" viewBox="0 0 14 13" fill="none" xmlns="http://www.w3.org/2000/svg">
<path d="M1.85822 12.6667C1.50566 12.6667 1.20374 12.536 0.952455 12.2747C0.701173 12.0133 0.575746 11.6996 0.576173 11.3333V4C0.576173 3.63333 0.701814 3.31933 0.953096 3.058C1.20438 2.79667 1.50609 2.66622 1.85822 2.66667H4.42233V1.33333C4.42233 0.966668 4.54797 0.652668 4.79925 0.391334C5.05053 0.130001 5.35224 -0.000443313 5.70438 1.13186e-06H8.26848C8.62104 1.13186e-06 8.92297 0.130668 9.17425 0.392001C9.42553 0.653334 9.55096 0.967112 9.55053 1.33333V2.66667H12.1146C12.4672 2.66667 12.7691 2.79733 13.0204 3.05867C13.2717 3.32 13.3971 3.63378 13.3967 4V11.3333C13.3967 11.7 13.271 12.014 13.0198 12.2753C12.7685 12.5367 12.4668 12.6671 12.1146 12.6667H1.85822ZM1.85822 11.3333H12.1146V4H1.85822V11.3333ZM5.70438 2.66667H8.26848V1.33333H5.70438V2.66667Z" fill="#2C50ED"/>
</svg>
