<svg width="19" height="14" viewBox="0 0 19 14" fill="none" xmlns="http://www.w3.org/2000/svg">
<g clip-path="url(#clip0_162_47350)">
<path d="M19 10.5C19 10.9126 18.7776 11.3082 18.3817 11.6C17.9858 11.8917 17.4488 12.0556 16.8889 12.0556H2.11111C1.55121 12.0556 1.01424 11.8917 0.61833 11.6C0.22242 11.3082 0 10.9126 0 10.5V3.50001C0 3.08745 0.22242 2.69179 0.61833 2.40007C1.01424 2.10835 1.55121 1.94446 2.11111 1.94446H16.8889C17.4488 1.94446 17.9858 2.10835 18.3817 2.40007C18.7776 2.69179 19 3.08745 19 3.50001V10.5Z" fill="#EEEEEE"/>
<path d="M18.136 10.9375C17.177 10.9375 17.177 10.5245 16.217 10.5245C15.2575 10.5245 15.2575 10.9134 14.2679 10.9134C13.338 10.9134 13.338 10.5245 12.3637 10.5245C11.4195 10.5245 11.4195 10.9134 10.46 10.9134C9.50049 10.9134 9.50049 10.5245 8.54046 10.5245C7.58096 10.5245 7.58096 10.9134 6.62146 10.9134C5.66196 10.9134 5.66196 10.5245 4.70246 10.5245C3.74296 10.5245 3.74296 10.9134 2.78346 10.9134C1.82396 10.9134 1.82396 10.5245 0.863933 10.5245C0.461766 10.5245 0.230072 10.5937 0.0242383 10.6735C0.0617105 10.9216 0.170433 11.153 0.347766 11.3517C0.486572 11.3217 0.651238 11.3023 0.864461 11.3023C1.82396 11.3023 1.82396 11.6912 2.78399 11.6912C3.74349 11.6912 3.74349 11.3023 4.70299 11.3023C5.66249 11.3023 5.66249 11.6912 6.62199 11.6912C7.58149 11.6912 7.58149 11.3023 8.54099 11.3023C9.50049 11.3023 9.50049 11.6912 10.4605 11.6912C11.42 11.6912 11.42 11.3023 12.3758 11.3023C13.339 11.3023 13.339 11.6912 14.2969 11.6912C15.2585 11.6912 15.2585 11.3023 16.2175 11.3023C17.1781 11.3023 17.1781 11.6791 18.1376 11.6791C18.184 11.6791 18.2204 11.6752 18.2621 11.6733C18.626 11.4448 18.873 11.1316 18.962 10.7855C18.7582 10.8671 18.5287 10.9375 18.136 10.9375ZM19 9.87118V9.11518C18.7878 9.20384 18.5535 9.2824 18.136 9.2824C17.177 9.2824 17.177 8.8694 16.217 8.8694C15.2575 8.8694 15.2575 9.25829 14.2679 9.25829C13.338 9.25829 13.338 8.8694 12.3637 8.8694C11.4195 8.8694 11.4195 9.25829 10.46 9.25829C9.50049 9.25829 9.50049 8.8694 8.54046 8.8694C7.58096 8.8694 7.58096 9.25829 6.62146 9.25829C5.66196 9.25829 5.66196 8.8694 4.70246 8.8694C3.74296 8.8694 3.74296 9.25829 2.78346 9.25829C1.82396 9.25829 1.82396 8.8694 0.863933 8.8694C0.44646 8.8694 0.212655 8.94329 0.000488281 9.02651V9.80429C0.212655 9.72107 0.446988 9.64718 0.863933 9.64718C1.82343 9.64718 1.82343 10.0361 2.78346 10.0361C3.74296 10.0361 3.74296 9.64718 4.70246 9.64718C5.66196 9.64718 5.66196 10.0361 6.62146 10.0361C7.58096 10.0361 7.58096 9.64718 8.54046 9.64718C9.49996 9.64718 9.49996 10.0361 10.46 10.0361C11.4195 10.0361 11.4195 9.64718 12.3753 9.64718C13.3385 9.64718 13.3385 10.0361 14.2964 10.0361C15.258 10.0361 15.258 9.64718 16.217 9.64718C17.1775 9.64718 17.1775 10.024 18.137 10.024C18.5535 10.0232 18.7878 9.95168 19 9.87118ZM19 8.21568V7.45968C18.7878 7.54834 18.5535 7.6269 18.136 7.6269C17.177 7.6269 17.177 7.21351 16.217 7.21351C15.2575 7.21351 15.2575 7.6024 14.2679 7.6024C13.338 7.6024 13.338 7.21351 12.3637 7.21351C11.4195 7.21351 11.4195 7.6024 10.46 7.6024C9.50049 7.6024 9.50049 7.21351 8.54046 7.21351C7.58096 7.21351 7.58096 7.6024 6.62146 7.6024C5.66196 7.6024 5.66196 7.21351 4.70246 7.21351C3.74296 7.21351 3.74296 7.6024 2.78346 7.6024C1.82396 7.6024 1.82396 7.21351 0.863933 7.21351C0.44646 7.21351 0.212655 7.28779 0.000488281 7.37062V8.1484C0.212655 8.06518 0.446988 7.99129 0.863933 7.99129C1.82343 7.99129 1.82343 8.38018 2.78346 8.38018C3.74296 8.38018 3.74296 7.99129 4.70246 7.99129C5.66196 7.99129 5.66196 8.38018 6.62146 8.38018C7.58096 8.38018 7.58096 7.99129 8.54046 7.99129C9.49996 7.99129 9.49996 8.38018 10.46 8.38018C11.4195 8.38018 11.4195 7.99129 12.3753 7.99129C13.3385 7.99129 13.3385 8.38018 14.2964 8.38018C15.258 8.38018 15.258 7.99129 16.217 7.99129C17.1775 7.99129 17.1775 8.36812 18.137 8.36812C18.5535 8.36812 18.7878 8.29618 19 8.21568ZM19 6.56018V5.80418C18.7878 5.89284 18.5535 5.9714 18.136 5.9714C17.177 5.9714 17.177 5.5584 16.217 5.5584C15.2575 5.5584 15.2575 5.94729 14.2679 5.94729C13.338 5.94729 13.338 5.5584 12.3637 5.5584C11.4195 5.5584 11.4195 5.94729 10.46 5.94729C9.50049 5.94729 9.50049 5.5584 8.54046 5.5584C7.58096 5.5584 7.58096 5.94729 6.62146 5.94729C5.66196 5.94729 5.66196 5.5584 4.70246 5.5584C3.74296 5.5584 3.74296 5.94729 2.78346 5.94729C1.82396 5.94729 1.82396 5.5584 0.863933 5.5584C0.44646 5.5584 0.212655 5.63229 0.000488281 5.71551V6.49329C0.212655 6.41007 0.446988 6.33618 0.863933 6.33618C1.82343 6.33618 1.82343 6.72507 2.78346 6.72507C3.74296 6.72507 3.74296 6.33618 4.70246 6.33618C5.66196 6.33618 5.66196 6.72507 6.62146 6.72507C7.58096 6.72507 7.58096 6.33618 8.54046 6.33618C9.49996 6.33618 9.49996 6.72507 10.46 6.72507C11.4195 6.72507 11.4195 6.33618 12.3753 6.33618C13.3385 6.33618 13.3385 6.72507 14.2964 6.72507C15.258 6.72507 15.258 6.33618 16.217 6.33618C17.1775 6.33618 17.1775 6.71301 18.137 6.71301C18.5535 6.71223 18.7878 6.64068 19 6.56018ZM19 4.90429V4.14829C18.7878 4.23656 18.5535 4.31551 18.136 4.31551C17.177 4.31551 17.177 3.90251 16.217 3.90251C15.2575 3.90251 15.2575 4.2914 14.2679 4.2914C13.338 4.2914 13.338 3.90251 12.3637 3.90251C11.4195 3.90251 11.4195 4.2914 10.46 4.2914C9.50049 4.2914 9.50049 3.90251 8.54046 3.90251C7.58096 3.90251 7.58096 4.2914 6.62146 4.2914C5.66196 4.2914 5.66196 3.90251 4.70246 3.90251C3.74296 3.90251 3.74296 4.2914 2.78346 4.2914C1.82396 4.2914 1.82396 3.90251 0.863933 3.90251C0.44646 3.90251 0.212655 3.9764 0.000488281 4.05962V4.8374C0.212655 4.75418 0.446988 4.68029 0.863933 4.68029C1.82343 4.68029 1.82343 5.06918 2.78346 5.06918C3.74296 5.06918 3.74296 4.68029 4.70246 4.68029C5.66196 4.68029 5.66196 5.06918 6.62146 5.06918C7.58096 5.06918 7.58096 4.68029 8.54046 4.68029C9.49996 4.68029 9.49996 5.06918 10.46 5.06918C11.4195 5.06918 11.4195 4.68029 12.3753 4.68029C13.3385 4.68029 13.3385 5.06918 14.2964 5.06918C15.258 5.06918 15.258 4.68029 16.217 4.68029C17.1775 4.68029 17.1775 5.05712 18.137 5.05712C18.5535 5.05673 18.7878 4.98479 19 4.90429ZM18.9672 3.26045C18.9203 3.02823 18.8019 2.80701 18.621 2.61373C18.4631 2.64582 18.2998 2.6614 18.136 2.66001C17.177 2.66001 17.177 2.24701 16.217 2.24701C15.2575 2.24701 15.2575 2.6359 14.2679 2.6359C13.338 2.6359 13.338 2.24701 12.3637 2.24701C11.4195 2.24701 11.4195 2.6359 10.46 2.6359C9.50049 2.6359 9.50049 2.24701 8.54046 2.24701C7.58096 2.24701 7.58096 2.6359 6.62146 2.6359C5.66196 2.6359 5.66196 2.24701 4.70246 2.24701C3.74296 2.24701 3.74296 2.6359 2.78346 2.6359C1.82607 2.6359 1.8229 2.24934 0.870266 2.2474C0.45549 2.46889 0.164918 2.79447 0.0532661 3.16284C0.252238 3.08779 0.479711 3.0244 0.863405 3.0244C1.8229 3.0244 1.8229 3.41329 2.78293 3.41329C3.74243 3.41329 3.74243 3.0244 4.70193 3.0244C5.66143 3.0244 5.66143 3.41329 6.62093 3.41329C7.58043 3.41329 7.58043 3.0244 8.53993 3.0244C9.49943 3.0244 9.49943 3.41329 10.4595 3.41329C11.419 3.41329 11.419 3.0244 12.3748 3.0244C13.338 3.0244 13.338 3.41329 14.2959 3.41329C15.2575 3.41329 15.2575 3.0244 16.2165 3.0244C17.177 3.0244 17.177 3.40123 18.1365 3.40123C18.5329 3.40123 18.763 3.3359 18.9672 3.26045Z" fill="#00247D"/>
<path d="M14.3809 11.1522C14.3775 11.1838 14.3581 11.2133 14.3265 11.2348C14.2949 11.2563 14.2534 11.2683 14.2104 11.2683C14.1674 11.2683 14.1259 11.2563 14.0943 11.2348C14.0627 11.2133 14.0433 11.1838 14.0399 11.1522V4.98361C14.0399 4.91439 14.117 4.858 14.2109 4.858C14.3054 4.858 14.3809 4.91439 14.3809 4.98361V11.1522Z" fill="#C1694F"/>
<path d="M13.0129 7.91935C13.0129 7.91935 13.0862 7.78946 13.3438 7.78946C13.6024 7.78946 13.6642 7.88863 13.8193 7.93413C13.9745 7.98001 14.1708 8.00296 14.1708 8.00296V8.95457H12.7859C12.7859 8.95457 12.7337 8.59679 12.6514 8.42179C12.5685 8.24718 12.4962 8.01035 12.6719 7.93413C12.8482 7.85868 13.0129 7.91935 13.0129 7.91935Z" fill="#DD2E44"/>
<path d="M14.1655 7.672V7.80889C14.1655 7.80889 13.8093 7.78595 13.4989 7.62612C13.31 7.52889 12.9099 7.40873 12.6001 7.60356C12.3985 7.72878 12.4138 8.04923 12.5389 8.17445C12.6619 8.30006 12.7864 8.58589 12.5226 8.39184C12.2592 8.19739 12.1811 7.90028 12.2592 7.70623C12.3368 7.51217 12.5073 7.31812 12.9099 7.31812C13.3137 7.31812 13.5771 7.47795 13.7628 7.55806C13.9243 7.62689 14.1819 7.64867 14.1655 7.672Z" fill="#FFCC4D"/>
<path d="M12.6113 8.36071L12.8277 8.35332L12.7659 8.59677C12.7659 8.59677 12.9828 8.47544 12.9934 8.50538C13.0029 8.53649 13.0346 8.7566 13.0346 8.7566L12.7548 8.7111L12.92 8.88649L12.7036 8.96194C12.7036 8.96194 12.6208 8.7566 12.6002 8.65821C12.5791 8.55905 12.6113 8.36071 12.6113 8.36071ZM13.0652 8.4906L13.2715 8.47544C13.2715 8.47544 13.0931 8.17832 13.3544 8.18571C13.6441 8.19388 13.4473 8.46805 13.4473 8.46805H13.6647L13.6959 8.68855L13.4895 8.59716V8.72705L13.7164 8.88688L13.1169 8.93199L13.2715 8.74182L13.262 8.60532L13.1174 8.72705L13.0652 8.4906Z" fill="#FFCC4D"/>
<path d="M15.4138 7.91935C15.4138 7.91935 15.3409 7.78946 15.0828 7.78946C14.8248 7.78946 14.763 7.88863 14.6078 7.93413C14.4527 7.98001 14.2563 8.00296 14.2563 8.00296V8.95457H15.6418C15.6418 8.95457 15.693 8.59679 15.7758 8.42179C15.8587 8.24718 15.9305 8.01035 15.7552 7.93413C15.579 7.85868 15.4138 7.91935 15.4138 7.91935Z" fill="#DD2E44"/>
<path d="M14.261 7.672V7.80889C14.261 7.80889 14.6178 7.78595 14.9276 7.62612C15.1166 7.52889 15.5166 7.40873 15.8269 7.60356C16.0286 7.72878 16.0122 8.04923 15.8882 8.17445C15.7647 8.30006 15.6412 8.58589 15.904 8.39184C16.1674 8.19739 16.2455 7.90028 16.1674 7.70623C16.0903 7.51217 15.9193 7.31812 15.5166 7.31812C15.1129 7.31812 14.8495 7.47795 14.6643 7.55806C14.5033 7.62689 14.2457 7.64867 14.261 7.672Z" fill="#FFCC4D"/>
<path d="M15.817 8.36074L15.6001 8.35335L15.6618 8.59679C15.6618 8.59679 15.4449 8.47546 15.4344 8.5054C15.4243 8.53651 15.3932 8.75662 15.3932 8.75662L15.6713 8.71112L15.5061 8.88651L15.723 8.96196C15.723 8.96196 15.8059 8.75662 15.827 8.65824C15.8471 8.55907 15.817 8.36074 15.817 8.36074ZM15.3615 8.49062L15.1546 8.47546C15.1546 8.47546 15.3335 8.17835 15.0718 8.18574C14.7831 8.1939 14.9794 8.46807 14.9794 8.46807H14.7625L14.7303 8.68857L14.9377 8.59718V8.72707L14.7102 8.8869L15.3103 8.93201L15.1546 8.74185L15.1657 8.60535L15.3103 8.72707L15.3615 8.49062ZM14.5725 7.28701C14.5725 7.43868 14.4099 7.56079 14.211 7.56079C14.1628 7.56033 14.1152 7.55289 14.071 7.53888C14.0267 7.52488 13.9866 7.50458 13.953 7.47916C13.9194 7.45374 13.8929 7.42368 13.875 7.39071C13.8571 7.35775 13.8483 7.32251 13.8489 7.28701C13.8489 7.13574 14.0109 7.01285 14.211 7.01285C14.3082 7.01397 14.4009 7.04347 14.4686 7.09486C14.5364 7.14626 14.5738 7.21536 14.5725 7.28701ZM13.8859 6.68579H14.5361V6.87635H13.8859V6.68579Z" fill="#FFCC4D"/>
<path d="M14.0563 6.55627H14.3656V8.31522H14.0563V6.55627Z" fill="#FFCC4D"/>
<path d="M13.9545 8.23938H14.4395L14.3049 8.4906L14.6152 8.36888V8.70332L14.3149 8.62749L14.5735 8.91682H13.9022L14.1086 8.62749L13.8093 8.68038V8.38366L14.0885 8.48244L13.9545 8.23938Z" fill="#FFCC4D"/>
<path d="M14.2121 8.80249C14.8533 8.80249 15.256 8.84138 15.7109 8.96232C15.7109 8.96232 15.7426 9.16105 15.6798 9.25982C15.6186 9.35899 14.202 9.19099 14.202 9.19099L14.2121 8.80249Z" fill="#FFCC4D"/>
<path d="M14.2304 8.80249C13.5897 8.80249 13.1865 8.84138 12.7326 8.96232C12.7326 8.96232 12.7009 9.16105 12.7627 9.25982C12.825 9.35899 14.2405 9.19099 14.2405 9.19099L14.2304 8.80249Z" fill="#FFCC4D"/>
<path d="M15.8745 9.46168C15.8745 9.61101 15.1293 9.73118 14.211 9.73118C13.2926 9.73118 12.5469 9.61101 12.5469 9.46168C12.5469 9.31195 13.2926 9.19101 14.211 9.19101C15.1293 9.19101 15.8745 9.31195 15.8745 9.46168Z" fill="#EEEEEE"/>
<path d="M15.3282 9.56005C15.3282 9.6425 14.8279 9.70939 14.2109 9.70939C13.5934 9.70939 13.0925 9.6425 13.0925 9.56005C13.0925 9.47839 13.5934 9.4115 14.2109 9.4115C14.8279 9.4115 15.3282 9.47839 15.3282 9.56005Z" fill="#99AAB5"/>
<path d="M13.5401 2.67282L13.881 2.9851C13.881 2.9851 14.1191 2.87854 14.1296 2.90149C14.1402 2.92443 14.109 3.16049 14.109 3.16049L14.2742 3.19082L14.1396 3.5031C14.1396 3.5031 14.3471 3.41949 14.336 3.44982C14.3259 3.48015 14.2742 3.74693 14.2742 3.74693L14.3571 3.78504L14.3465 4.08215C14.3465 4.08215 14.4294 4.18832 14.4294 4.16577C14.4294 4.14321 14.5117 3.77765 14.5117 3.77765L14.6257 3.8461L14.6658 3.65593L14.7593 3.32849L14.8627 3.45021L15.0796 2.90927L15.1936 3.09982L15.4517 2.87893L15.6274 2.87115L15.8855 2.81788L15.9378 2.93182H16.1753C16.1753 2.93182 16.0518 3.00804 16.0618 3.0306C16.0713 3.05354 16.2888 3.13715 16.2576 3.14493C16.2265 3.15271 15.6992 3.11421 15.6992 3.11421L15.4005 3.3351L15.5863 3.38099L15.3066 3.50271L15.5446 3.55599L15.3277 3.67771L15.514 3.66254L15.2142 3.83015L15.514 3.87604L15.1108 4.0281L15.2036 4.10432L14.8009 4.27971L14.7487 4.40143L15.1313 4.18054C15.1313 4.18054 15.4417 4.0281 15.5963 3.95965C15.7515 3.89121 15.8755 3.76171 16.1346 3.70843C16.3938 3.65515 16.8888 3.71621 16.8888 3.71621L16.4233 3.89899L16.5168 4.00554L16.2175 4.07399L16.2587 4.2031L15.762 4.25677L15.7726 4.39365L15.3488 4.44732L15.2971 4.57682L15.0078 4.65304L15.1424 4.73665C15.1424 4.73665 14.8938 4.79771 14.9255 4.8051C14.9566 4.81288 15.287 4.83543 15.287 4.83543C15.287 4.83543 15.1213 4.94199 15.1519 4.94199C15.1836 4.94199 15.5963 4.95715 15.5963 4.95715L15.4206 5.04854L15.8349 5.06371L15.648 5.17027C15.648 5.17027 15.989 5.19321 15.989 5.21615C15.989 5.23871 15.8449 5.35304 15.8449 5.35304L16.1441 5.37599C16.1441 5.37599 16.0001 5.48993 16.0301 5.4981C16.0623 5.50549 16.4545 5.70343 16.4545 5.70343L15.989 5.65793C15.989 5.65793 15.8755 5.77188 15.8649 5.74893C15.8554 5.72638 15.742 5.5891 15.742 5.5891L15.628 5.68049L15.5045 5.49771C15.5045 5.49771 15.3599 5.55838 15.3694 5.53582C15.3799 5.51288 15.2042 5.36821 15.2042 5.36821L15.163 5.43704L15.0495 5.23132L14.9466 5.33788L14.7498 5.13954L14.6774 5.22315L14.4083 5.04815C14.4083 5.04815 14.3983 5.16249 14.4083 5.18543C14.4188 5.20838 14.6051 5.30715 14.6051 5.30715C14.6051 5.30715 14.4811 5.34527 14.4811 5.36782C14.4811 5.39077 14.7297 5.53543 14.7297 5.53543L14.6157 5.59649L14.8843 5.7641C14.8843 5.7641 14.6363 5.80221 14.6669 5.81738C14.6986 5.83254 14.8221 5.95427 14.8221 5.95427L14.7191 6.13704L14.5128 5.90099L14.3988 5.92393L14.3777 5.72599L14.2647 5.71821L14.3259 5.49771L14.2024 5.51288L14.1919 5.3301L14.1396 5.14732L14.0367 5.02521C14.0367 5.02521 13.9644 5.1166 13.9744 5.13915C13.985 5.1621 14.0684 5.30677 14.0684 5.30677C14.0684 5.30677 13.9544 5.35227 13.9744 5.37521C13.9956 5.39815 14.109 5.56538 14.109 5.56538C14.109 5.56538 13.861 5.60349 13.8921 5.60349C13.9238 5.60349 14.0061 5.71004 14.0061 5.71004L13.8715 5.74815L13.8098 5.86249C13.8098 5.86249 13.6551 5.73299 13.6652 5.75593C13.6757 5.77888 13.5723 5.99199 13.5723 5.99199L13.4176 5.86249L13.5723 5.41332L13.3854 5.37521L13.2514 5.58093C13.2514 5.58093 13.1379 5.48215 13.1274 5.50471C13.1168 5.52765 13.0033 5.6801 13.0033 5.6801C13.0033 5.6801 12.8703 5.51249 12.8804 5.53543C12.8904 5.55799 12.7247 5.80221 12.7247 5.80221C12.7247 5.80221 12.5801 5.58871 12.5801 5.61943C12.5801 5.64977 12.4771 5.91654 12.4771 5.91654C12.4771 5.91654 12.3125 5.71082 12.322 5.74893C12.3331 5.78704 12.2085 5.96243 12.2085 5.96243L12.1768 5.77188L11.9499 5.87065L12.208 5.59649L12.6423 5.29938L12.9733 5.11699L12.7548 5.09443C12.7548 5.09443 13.0698 5.01393 13.1057 5.01082C13.1997 5.00304 12.9622 4.94238 12.9622 4.94238L13.5406 4.81288C13.5406 4.81288 13.2825 4.71371 13.2514 4.73665C13.2203 4.7596 12.9099 4.8051 12.9099 4.8051L12.8688 4.6301L12.5489 4.72888C12.5489 4.72888 12.4967 4.56865 12.4866 4.5916C12.4766 4.61454 12.228 4.71332 12.228 4.71332L12.1051 4.61454L11.9599 4.78215L11.7942 4.69077L11.4955 4.75921L11.6396 4.59938L11.4744 4.53093L11.8153 4.3711L11.8876 4.26454L12.3531 4.28749C12.3531 4.28749 12.2286 4.16538 12.2497 4.18832C12.2708 4.21127 12.7247 4.26454 12.7247 4.26454L12.8598 4.24938L13.3142 4.3711L12.9421 4.15021L12.6218 4.10432L12.8286 3.9826L12.3426 3.85349L12.4465 3.73177L11.8048 3.61004L12.1985 3.53382L11.9293 3.1986L12.4872 3.44243L12.7352 3.38138L12.8598 3.61743L13.0873 3.7166L13.1279 3.8916L13.2419 3.85349L13.3448 4.05882L13.4799 4.0281L13.5517 4.17315L13.7491 4.18054L13.6963 3.98999L13.7786 3.8986L13.5512 3.76132L13.7486 3.69288L13.4583 3.51749L13.7063 3.49454L13.3548 3.24332L13.6346 3.2511L13.3548 3.01504L13.5828 2.97693L13.5401 2.67282Z" fill="#77B255"/>
<path d="M10.0278 7.00001V1.94446H2.11111C1.94222 1.94446 1.79233 1.96196 1.79233 1.96196L1.79022 2.64407L0.34939 2.64251C0.34939 2.64251 0.327224 2.66546 0.282363 2.72224C0.0969612 2.95866 -0.000441457 3.22696 1.50413e-06 3.50001V7.00001H10.0278Z" fill="#00247D"/>
<path d="M10.0278 1.94446H8.79753L6.33333 3.21574V1.94446H3.69444V2.94351L1.79233 1.96196C1.47506 1.99688 1.17304 2.08539 0.909889 2.22057L3.3915 3.50001H2.47528L0.510361 2.4854C0.452415 2.53531 0.398658 2.58778 0.349389 2.64251L2.01242 3.50001H0V5.44446H2.05042L0 6.52012V7.00001H1.75856L3.69444 6.00135V7.00001H6.33333V5.72874L8.797 7.00001H10.0278V6.21096L8.54208 5.44446H10.0278V3.50001H8.54261L10.0278 2.73351V1.94446Z" fill="#EEEEEE"/>
<path d="M5.80555 1.94446H4.22222V3.8889H0V5.05557H4.22222V7.00001H5.80555V5.05557H10.0278V3.8889H5.80555V1.94446Z" fill="#CF1B2B"/>
<path d="M10.0277 1.94446H9.25663L6.33327 3.45296V3.50001H7.16241L10.0277 2.02146V1.94446ZM0.909829 2.22057C0.76207 2.29612 0.627834 2.3851 0.510301 2.4854L2.47522 3.50001H3.39091L0.909829 2.22057ZM3.39725 5.44446L0.387329 7.00001H1.2988L3.69438 5.76412V5.44446H3.39725ZM10.0277 6.92301V6.44857L8.0818 5.44446H7.16188L10.0277 6.92301Z" fill="#CF1B2B"/>
</g>
<defs>
<clipPath id="clip0_162_47350">
<rect width="19" height="14" fill="white"/>
</clipPath>
</defs>
</svg>
