<svg width="9" height="12" viewBox="0 0 9 12" fill="none" xmlns="http://www.w3.org/2000/svg">
<path d="M0.145161 6.14116C0.499386 6.60583 0.943119 6.99482 1.45016 7.28516C1.45016 7.28516 0.810161 1.88016 4.98016 0.941162C3.91216 4.86216 6.33816 5.96816 7.22416 3.89616C8.09745 4.9345 8.23908 6.40416 7.58016 7.59016C8.18616 7.67716 8.69516 7.01516 8.69516 7.01516C8.69516 7.09716 8.70216 7.17916 8.70216 7.26116C8.69979 8.94983 7.72054 10.4846 6.19011 11.1983C4.65968 11.912 2.8545 11.6758 1.55931 10.5922C0.264114 9.50867 -0.287148 7.77356 0.145161 6.14116Z" fill="#FF6536"/>
<path d="M8.69507 7.01614C8.69507 7.01614 8.18607 7.67814 7.58007 7.59114C8.23899 6.40514 8.09736 4.93548 7.22407 3.89714C6.33907 5.96914 3.91207 4.86314 4.98007 0.942139C4.76629 0.989671 4.55611 1.05216 4.35107 1.12914V11.6131C6.75407 11.6131 8.70207 9.66513 8.70207 7.26214C8.70207 7.18014 8.70007 7.09814 8.69507 7.01614Z" fill="#FF421D"/>
<path d="M2.44312 9.7062C2.44338 10.5824 3.04035 11.3458 3.89063 11.5573C4.74092 11.7687 5.62594 11.3739 6.03659 10.5999C6.44724 9.8259 6.27796 8.8717 5.62612 8.2862C4.88812 9.2862 3.83712 7.7682 4.65612 6.6582C3.23292 6.93608 2.26668 8.2669 2.44312 9.7062Z" fill="#FBBF00"/>
<path d="M6.25922 9.7062C6.26014 9.1641 6.02946 8.64742 5.62522 8.2862C4.88722 9.2862 3.83622 7.7682 4.65522 6.6582C4.55343 6.67444 4.4531 6.69885 4.35522 6.7312V11.6152C5.40781 11.613 6.25978 10.7588 6.25922 9.7062Z" fill="#FFA900"/>
</svg>
