<svg width="40" height="31" viewBox="0 0 40 31" fill="none" xmlns="http://www.w3.org/2000/svg">
<path d="M10.6223 15.1524C11.9094 14.5249 13.3177 14.1854 14.7493 14.1574H32.1813V10.8054C32.166 8.21934 30.0734 6.12669 27.4873 6.1114H16.0903V5.4414C16.1061 4.19444 15.6056 2.99646 14.7073 2.1314C13.8422 1.23326 12.6443 0.732734 11.3973 0.748404H4.69732C3.45038 0.732734 2.25244 1.23326 1.38732 2.1314C0.487602 2.99577 -0.0144308 4.19385 0.000315956 5.4414V25.5544C0.000315956 25.6104 0.00398262 25.6977 0.011316 25.8164C0.018316 25.9354 0.022316 26.0224 0.022316 26.0784L0.122316 25.9534L7.18332 17.6534C8.13221 16.5775 9.30633 15.7236 10.6223 15.1524Z" fill="#3A3A3A"/>
<path d="M38.8123 17.1114C38.4167 16.9238 37.983 16.8304 37.5453 16.8384H14.7503C13.7065 16.8676 12.6812 17.1214 11.7443 17.5824C10.7794 17.9929 9.91742 18.6121 9.22029 19.3954L2.18029 27.6954C1.80203 28.0615 1.57083 28.5535 1.53029 29.0784C1.51045 29.4645 1.73135 29.8227 2.08529 29.9784C2.48121 30.166 2.91521 30.2595 3.35329 30.2514H26.1533C27.1971 30.222 28.2223 29.9682 29.1593 29.5074C30.1242 29.0968 30.9862 28.4777 31.6833 27.6944L38.7233 19.3944C39.1012 19.0281 39.3321 18.5361 39.3723 18.0114C39.3916 17.6239 39.1684 17.2652 38.8123 17.1114Z" fill="#3A3A3A"/>
</svg>
