<svg width="93" height="72" viewBox="0 0 93 72" fill="none" xmlns="http://www.w3.org/2000/svg">
<path d="M37.3233 18.0148C34.5346 18.0148 28.937 12.3895 26.7237 10.05C27.7976 9.55083 28.2986 8.30301 27.8681 7.19983C27.4376 6.09664 26.2238 5.51801 25.0957 5.87816C23.9676 6.23831 23.3136 7.41321 23.602 8.56178C23.8903 9.71034 25.0217 10.437 26.1861 10.2216L32.8841 30.4819H46.4237V2.19116C46.4237 2.19116 43.7209 18.0148 37.3233 18.0148Z" fill="#FE7738"/>
<path d="M40.9018 14.5767C39.6463 12.7774 38.4977 10.9058 37.462 8.97158C38.2508 8.72627 38.7204 7.91773 38.5425 7.11101C38.3646 6.30429 37.5986 5.76819 36.7797 5.87737C35.9609 5.98655 35.362 6.70463 35.4017 7.52977C35.4414 8.35491 36.1064 9.01219 36.932 9.04224C36.7187 11.4801 36.1331 13.8709 35.1957 16.1313C35.1957 16.1313 38.0475 19.3592 40.9018 14.5767Z" fill="#FE7738"/>
<path d="M57.6669 16.1356C56.7297 13.875 56.1442 11.4843 55.9306 9.04647C56.7491 9.01555 57.4078 8.36322 57.4466 7.54501C57.4854 6.72681 56.8915 6.01506 56.0795 5.9068C55.2676 5.79854 54.5079 6.32981 54.331 7.1296C54.1541 7.92939 54.6188 8.7315 55.4006 8.97581C54.3648 10.9099 53.2162 12.7815 51.9608 14.581C54.8151 19.3609 57.6669 16.1356 57.6669 16.1356Z" fill="#FDBF9E"/>
<path d="M67.0578 5.88335C66.0368 5.89057 65.1564 6.60309 64.9366 7.60025C64.7167 8.59742 65.2158 9.61406 66.1392 10.05C63.931 12.3895 58.3359 18.0148 55.5396 18.0148C49.1446 18.0148 46.4316 2.19116 46.4316 2.19116V30.4819H59.9713L66.6692 10.2216C67.4825 10.364 68.3067 10.0364 68.8004 9.37454C69.2941 8.71268 69.3731 7.82928 69.0048 7.09029C68.6365 6.35129 67.8835 5.88257 67.0578 5.8783V5.88335Z" fill="#FDBF9E"/>
<path d="M48.6194 2.19033C48.6194 3.07634 48.0857 3.8751 47.2671 4.21416C46.4485 4.55322 45.5063 4.36581 44.8798 3.73931C44.2533 3.11281 44.0659 2.1706 44.405 1.35204C44.744 0.533473 45.5428 -0.000244141 46.4288 -0.000244141C47.6386 -0.000244141 48.6194 0.980511 48.6194 2.19033Z" fill="#FE7738"/>
<path d="M50.739 19.9298C46.5241 19.6662 42.295 20.1193 38.2316 21.2699C34.8473 22.673 33.7621 21.9866 31.1652 24.5759C28.5683 27.1652 26.4004 27.7129 24.9998 31.0972C23.5991 34.4815 21.1486 36.9951 21.1486 40.657C21.1486 44.3189 19.7479 46.7593 21.1486 50.1411C22.5492 53.5228 21.3379 55.398 23.9247 57.9898C26.5115 60.5816 29.8327 65.6114 33.2169 67.0146C36.6012 68.4178 36.9697 69.8739 40.6316 69.8739C44.2935 69.8739 50.9182 70.3787 54.3025 68.9805C57.6868 67.5824 58.3228 68.7988 60.9146 66.2045C64.9207 61.2492 68.3569 55.8592 71.1584 50.136C72.559 46.7543 71.1584 47.4407 71.1584 43.7788C70.821 39.9259 69.771 36.1692 68.0618 32.6997C66.5311 29.5809 64.3709 26.8131 61.7172 24.5709C59.1278 21.9815 61.1695 23.6497 57.7852 22.2491C54.4009 20.8484 54.4009 19.9298 50.739 19.9298Z" fill="url(#paint0_linear_1549_40178)"/>
<path fill-rule="evenodd" clip-rule="evenodd" d="M19.9346 44.9659C19.9341 30.4793 31.6769 18.735 46.1635 18.7336C53.1213 18.733 59.7944 21.4967 64.7144 26.4166C69.6344 31.3366 72.3981 38.0097 72.3974 44.9676C72.396 59.4541 60.6517 71.1969 46.1651 71.1965C31.6786 71.196 19.935 59.4524 19.9346 44.9659ZM68.7522 35.6087C64.9679 26.4725 56.0526 20.5155 46.1637 20.5155C32.6674 20.5322 21.7307 31.4689 21.714 44.9652C21.714 54.8542 27.671 63.7694 36.8072 67.5537C45.9434 71.3381 56.4596 69.2463 63.4522 62.2537C70.4447 55.2612 72.5366 44.7449 68.7522 35.6087Z" fill="#333333"/>
<path d="M2.22329 26.5069C2.26367 26.57 2.31919 26.6684 2.38985 26.7946C2.53118 27.047 2.74065 27.4129 2.9804 27.8722C3.22015 28.3315 3.57095 28.864 3.9066 29.4722C4.09672 29.765 4.29693 30.0771 4.50724 30.4085C4.61324 30.57 4.71418 30.7366 4.82018 30.9133C4.92618 31.0899 5.05993 31.2464 5.18107 31.418C5.64039 32.1095 6.19055 32.8086 6.76596 33.5304L7.68459 34.6029C8.02277 34.9487 8.34075 35.3121 8.69407 35.6654L9.22657 36.1878C9.31743 36.2736 9.40323 36.362 9.47894 36.4402C9.55466 36.5184 9.66317 36.6118 9.75403 36.6926C10.1326 37.0307 10.496 37.3841 10.8973 37.702C11.0916 37.8661 11.291 38.0327 11.4853 38.2068L12.1061 38.6787C12.515 38.9992 12.9465 39.2996 13.368 39.5999C13.7894 39.9002 14.2513 40.1677 14.6803 40.4655C15.1093 40.7633 15.5712 41.0131 16.033 41.2579C16.4948 41.5027 16.934 41.7627 17.3933 41.9949C17.8526 42.2271 18.3018 42.4592 18.7485 42.6763C18.9681 42.7898 19.2003 42.8857 19.4223 42.9892L20.0836 43.2946C20.5303 43.4813 20.9568 43.6782 21.3858 43.8523C21.8148 44.0265 22.2262 44.1981 22.6325 44.3571C23.0388 44.5161 23.4325 44.6624 23.8086 44.8063L24.0786 44.9047C24.8104 46.7552 26.237 48.246 28.0534 49.0587C27.8175 50.0235 27.7771 51.0258 27.9348 52.0064L27.8541 52.5112H27.7354L27.3518 52.4733C27.0414 52.4354 26.5947 52.3825 26.0547 52.2966C25.5146 52.2108 24.8458 52.0821 24.1038 51.9055C23.3619 51.7288 22.5265 51.5017 21.6281 51.2266C20.7296 50.9515 19.7681 50.6007 18.7712 50.1843C17.7178 49.7528 16.6868 49.2685 15.6822 48.7332C15.1598 48.4505 14.6248 48.1704 14.1074 47.8398C13.5901 47.5092 13.0576 47.1861 12.5352 46.8303C12.0127 46.4745 11.5105 46.0858 10.9957 45.7123C10.4809 45.3388 9.98621 44.9173 9.5168 44.4807C9.04739 44.0441 8.55274 43.6277 8.11362 43.1533L7.44484 42.4618L6.81391 41.74C5.99555 40.7943 5.25853 39.7812 4.61071 38.7115C4.2902 38.2068 4.02774 37.6516 3.7577 37.1418C3.48766 36.632 3.29334 36.0843 3.0763 35.5796C2.97288 35.3279 2.88274 35.071 2.80626 34.8099C2.7255 34.5575 2.64474 34.3051 2.55389 34.0528C2.47315 33.8125 2.40824 33.5671 2.35957 33.3184C2.30657 33.066 2.25357 32.8389 2.2031 32.6042C2.15262 32.3695 2.1072 32.1448 2.06934 31.9228C2.03148 31.7007 2.00877 31.4761 1.98606 31.2615C1.94568 30.83 1.88511 30.4312 1.87249 30.0476C1.85987 29.664 1.87249 29.3082 1.87249 28.9801C1.86674 28.6803 1.87769 28.3803 1.9053 28.0817C1.96082 27.5366 2.02391 27.1151 2.06682 26.8198C2.08701 26.6785 2.10467 26.5674 2.11981 26.4968L2.14253 26.3857L2.20057 26.4867" fill="url(#paint1_linear_1549_40178)"/>
<path d="M1.26438 44.4026C1.66312 44.5641 2.13758 44.7559 2.6827 44.9528C3.22782 45.1496 3.83351 45.3642 4.4922 45.5686C5.15089 45.773 5.86005 45.9825 6.60707 46.1717C7.35408 46.361 8.13391 46.5377 8.93645 46.7017C9.34024 46.78 9.74403 46.8582 10.1579 46.9238C10.3649 46.9566 10.5693 46.997 10.7788 47.0298C10.9882 47.0626 11.1977 47.0803 11.4072 47.1156C12.24 47.2418 13.0955 47.3226 13.9309 47.4008L14.5694 47.4361C14.7814 47.4538 14.9908 47.474 15.2028 47.4765C15.6293 47.4765 16.0457 47.5144 16.4647 47.5144C16.8836 47.5144 17.295 47.5396 17.7063 47.5144C18.1177 47.4891 18.5215 47.5144 18.9228 47.4942L20.1013 47.4538C20.49 47.421 20.8584 47.4084 21.2345 47.3882C21.9714 47.3251 22.6705 47.2948 23.3216 47.2267C23.6446 47.1939 23.9576 47.1686 24.2554 47.1484C24.5531 47.1282 24.8358 47.0828 25.1008 47.0626L25.3708 47.0374C26.1056 47.9071 27.0292 48.5976 28.0712 49.0563C27.7473 50.3895 27.7945 51.7859 28.2075 53.0943L27.8491 53.2205C27.4251 53.3719 26.9027 53.5183 26.2945 53.6722C25.6863 53.8262 24.9973 53.9826 24.2352 54.1139L23.6598 54.2325L23.0465 54.3082C22.6301 54.3536 22.1985 54.4192 21.7518 54.4445C21.3051 54.4697 20.8458 54.505 20.3764 54.5202C19.907 54.5353 19.4224 54.5202 18.9328 54.5202C18.4433 54.5202 17.941 54.4697 17.4338 54.447C16.9265 54.4243 16.4243 54.3385 15.9044 54.2804C14.8649 54.1394 13.8344 53.9389 12.8179 53.6798C12.3132 53.5385 11.8084 53.3971 11.3037 53.2381C10.7989 53.0791 10.3093 52.9 9.83236 52.6981C8.89106 52.3171 7.97628 51.8736 7.09414 51.3706C6.27527 50.8982 5.49019 50.3694 4.74457 49.7882C4.07774 49.2736 3.44935 48.711 2.86441 48.1049C2.36919 47.6 1.90882 47.0621 1.48646 46.4948C1.16202 46.0582 0.864514 45.6023 0.595595 45.1295C0.357244 44.7191 0.157842 44.2874 0 43.8398C0 43.8398 0.466886 44.067 1.26185 44.3875" fill="url(#paint2_linear_1549_40178)"/>
<path d="M6.3801 53.8907C6.7309 53.9109 7.15488 53.9261 7.64196 53.9387C8.12903 53.9513 8.65144 53.9538 9.2218 53.9387C11.8676 53.9261 14.4995 53.5542 17.0453 52.8333L17.5349 52.6844L18.0169 52.5128C18.3374 52.4068 18.6504 52.2831 18.9608 52.157C19.5766 51.9046 20.1696 51.632 20.7274 51.3443C21.0151 51.2181 21.2775 51.044 21.5451 50.9052C21.8126 50.7664 22.0649 50.6074 22.3022 50.4585L22.6706 50.2389L23.0164 50.0093C23.2435 49.8553 23.4706 49.7241 23.6776 49.5752C24.0864 49.2724 24.4827 49.025 24.8082 48.7626C25.1338 48.5001 25.4442 48.3108 25.6713 48.1115C25.8429 47.9726 25.9893 47.8591 26.1079 47.7708C26.5529 48.1708 27.0434 48.5172 27.5691 48.8029L28.0285 49.3077C27.72 50.8156 27.8785 52.3818 28.4827 53.7974C28.084 54.1154 27.5969 54.4258 27.0821 54.774C26.8019 54.9507 26.4966 55.1223 26.1912 55.299L25.7117 55.5665L25.207 55.8189C24.4879 56.1754 23.748 56.4881 22.9911 56.7551C22.1834 57.0441 21.3571 57.2785 20.5179 57.4567C20.0914 57.5476 19.6599 57.6384 19.2232 57.694L18.5646 57.7848L17.9059 57.8429C17.0361 57.9123 16.1627 57.9241 15.2913 57.8782C14.4579 57.8325 13.6288 57.727 12.8105 57.5627C12.4143 57.4921 12.0307 57.3886 11.6547 57.2977C11.2786 57.2069 10.9203 57.0933 10.5796 56.9646C9.93282 56.7439 9.30064 56.4826 8.68677 56.1823C8.17254 55.9295 7.6729 55.6481 7.19021 55.3393C6.81992 55.1013 6.46272 54.8435 6.12016 54.5671C5.89841 54.3917 5.68612 54.2047 5.48419 54.0068C5.41057 53.9382 5.34065 53.8658 5.27472 53.7898C5.27472 53.7898 5.69365 53.8302 6.39272 53.8731" fill="url(#paint3_linear_1549_40178)"/>
<path d="M14.5443 61.3069C14.6882 61.2564 14.8951 61.1706 15.1475 61.0696C15.3999 60.9687 15.7002 60.84 16.0308 60.6583C16.3614 60.4766 16.7172 60.2949 17.0933 60.0904C17.28 59.9794 17.4693 59.8532 17.6636 59.7346L17.9564 59.5554L18.2466 59.3409C18.4435 59.2021 18.6403 59.0683 18.8372 58.922C19.034 58.7756 19.2233 58.6014 19.4227 58.45C19.6242 58.2932 19.8163 58.1247 19.9981 57.9453C20.1873 57.7711 20.3817 57.6046 20.5659 57.4178C20.7501 57.2311 20.9192 57.0241 21.0959 56.8298L21.3482 56.5396C21.4366 56.4412 21.5098 56.3251 21.6006 56.2216C21.9322 55.8127 22.2405 55.3855 22.5243 54.9421C22.6656 54.72 22.8019 54.5004 22.9432 54.2884C23.0088 54.1799 23.0846 54.084 23.1451 53.9679L23.3243 53.6297C23.559 53.1805 23.8013 52.7717 24.0057 52.3679C24.2101 51.9641 24.3792 51.5401 24.5534 51.1742C24.6392 50.9925 24.7325 50.8209 24.8057 50.6492C24.8789 50.4776 24.937 50.306 24.9975 50.1445L25.3256 49.342C25.5174 48.9028 25.6335 48.6555 25.6335 48.6555L27.9654 49.6019C27.6924 51.2855 27.9919 53.0121 28.8159 54.5055C28.8638 54.7099 28.9168 54.9143 28.9799 55.1112C28.932 55.1843 28.8891 55.255 28.8386 55.3257C28.4979 55.8052 28.0815 56.2822 27.6752 56.7844C26.7817 57.817 25.7771 58.748 24.6795 59.5605C24.5382 59.6639 24.407 59.775 24.2581 59.8683L23.8089 60.1485C23.5085 60.3327 23.2107 60.5144 22.918 60.686C22.6252 60.8576 22.2946 60.9889 21.9918 61.1327C21.6945 61.2815 21.3866 61.408 21.0706 61.5113C20.7602 61.6198 20.4498 61.7081 20.152 61.8015C19.8542 61.8949 19.5413 61.9277 19.251 61.9883L18.8195 62.0614C18.6756 62.0741 18.5318 62.0892 18.393 62.0968C18.1103 62.1094 17.8479 62.1372 17.5879 62.1321C17.1218 62.1276 16.6567 62.0854 16.1974 62.0059C15.8472 61.9448 15.5016 61.8605 15.1626 61.7536C14.9463 61.6831 14.7347 61.5988 14.5292 61.5012C14.4555 61.4683 14.3846 61.4295 14.3172 61.3851L14.5443 61.3069Z" fill="url(#paint4_linear_1549_40178)"/>
<path d="M19.1498 63.7192C19.2356 63.6612 19.3315 63.5779 19.4324 63.5072C19.5334 63.4365 19.6394 63.3583 19.7504 63.2548C19.8615 63.1514 19.9776 63.0656 20.0962 62.9747L20.4646 62.6618C20.717 62.4573 20.9694 62.1974 21.2218 61.9677C21.3479 61.8315 21.4741 61.7154 21.6028 61.5766L21.7946 61.3848L21.9763 61.1753C22.095 61.0314 22.2287 60.9053 22.3423 60.769C22.4558 60.6327 22.5719 60.4762 22.6855 60.3324C22.7436 60.2617 22.7991 60.1911 22.8596 60.1254C22.9202 60.0598 22.9631 59.9715 23.0161 59.8958C23.1196 59.7469 23.218 59.5955 23.3265 59.4541C23.435 59.3128 23.5108 59.1412 23.6016 58.9898L23.8716 58.5431C23.9448 58.3816 24.0205 58.2251 24.0988 58.0737C24.2452 57.8491 24.3865 57.6219 24.5177 57.3948C24.6489 57.1677 24.7701 56.9355 24.8937 56.7033C25.7502 54.736 26.4959 52.7223 27.1272 50.6716C28.7904 51.9082 27.9701 54.3966 29.4364 56.2591C29.5197 56.4333 29.6131 56.5973 29.709 56.7639C30.0019 57.2561 30.349 57.7141 30.7437 58.1292L30.5923 58.4371C30.4005 58.798 30.2137 59.1942 29.9588 59.5904C29.7039 59.9866 29.4011 60.393 29.0907 60.8018C28.7803 61.2106 28.3739 61.5917 27.9929 61.9753C27.6118 62.3589 27.1474 62.6971 26.6957 63.0176C26.466 63.1716 26.2237 63.3154 25.9916 63.4593C25.8755 63.5299 25.7594 63.6031 25.6408 63.6712C25.5222 63.7394 25.3884 63.7924 25.2698 63.8479C25.0174 63.9615 24.7827 64.075 24.5404 64.176C24.2982 64.2769 24.0357 64.3426 23.7985 64.4284C23.3333 64.5632 22.8582 64.6611 22.3776 64.7211C21.951 64.766 21.5216 64.7786 21.093 64.759C20.4593 64.7318 19.8324 64.6163 19.2305 64.4157C19.0583 64.359 18.8897 64.2916 18.7258 64.2138C18.6684 64.1889 18.6134 64.1584 18.5618 64.123C18.5618 64.123 18.7864 63.9741 19.1321 63.7242" fill="url(#paint5_linear_1549_40178)"/>
<path d="M32.9849 59.7595C32.9648 59.9185 32.942 60.0775 32.9168 60.2415C32.8285 60.615 32.725 60.9986 32.6089 61.3974C32.549 61.6022 32.4756 61.8029 32.3893 61.998C32.3061 62.1999 32.2177 62.4018 32.137 62.6012C32.0456 62.8064 31.9394 63.0046 31.819 63.1943L31.4682 63.7722C31.342 63.959 31.1906 64.1381 31.0543 64.3123C30.9202 64.4901 30.7743 64.6587 30.6177 64.817C30.3183 65.1296 29.9895 65.4127 29.636 65.6625C29.3144 65.8963 28.9703 66.0976 28.6088 66.2631C28.4448 66.3404 28.2762 66.4078 28.1041 66.465C27.9468 66.5243 27.7858 66.5732 27.6221 66.6114C27.3413 66.6856 27.0539 66.7321 26.764 66.7502C26.5423 66.7694 26.3194 66.7694 26.0977 66.7502C25.9534 66.7411 25.8099 66.7209 25.6687 66.6896C25.619 66.6822 25.57 66.6704 25.5223 66.6543C25.5223 66.6543 25.646 66.4751 25.8227 66.1849C25.8706 66.1142 25.9135 66.0259 25.9615 65.9325C26.0179 65.8438 26.0693 65.7519 26.1154 65.6574L26.2744 65.3495L26.4283 65.0088C26.5318 64.7766 26.6277 64.5243 26.7186 64.2744C26.7564 64.1432 26.7993 64.0221 26.8422 63.8883C26.8851 63.7545 26.9104 63.6233 26.9457 63.4921C27.0239 63.2397 27.0542 62.957 27.1098 62.7047C27.1653 62.4523 27.1779 62.1747 27.2006 61.9198V61.5286C27.5842 59.7847 26.9482 57.5084 27.988 56.4812C29.2246 54.8181 30.4789 57.3014 31.4026 58.7525C31.5616 58.8888 31.7256 59.0049 31.8947 59.1336C32.2392 59.3744 32.603 59.5863 32.9824 59.7671" fill="url(#paint6_linear_1549_40178)"/>
<path d="M8.38109 14.7214C8.51484 15.1681 8.63346 15.6097 8.72683 16.0463C8.77983 16.2659 8.82778 16.4829 8.87321 16.6999L9.04482 17.3435C9.15586 17.77 9.25934 18.194 9.35524 18.6053C9.45114 19.0167 9.60761 19.4407 9.70603 19.8546L9.87007 20.4754L10.0619 21.0861C10.1931 21.4925 10.2966 21.9013 10.4278 22.3001C10.7105 23.1001 10.9326 23.9026 11.248 24.6824C11.5004 25.4749 11.8487 26.2421 12.1641 27.0093C12.4796 27.7765 12.8354 28.5235 13.2317 29.2655C13.5824 30.0226 14.0115 30.7343 14.3951 31.4712C14.8191 32.1905 15.2304 32.9122 15.6796 33.6164L16.0103 34.1489L16.3585 34.6687C16.5907 35.0145 16.8077 35.3729 17.0551 35.7136L17.7819 36.7407L18.539 37.7502C19.0437 38.4139 19.5788 39.0751 20.1315 39.7136C20.4015 40.0392 20.6816 40.3547 20.9618 40.6701C21.2419 40.9856 21.522 41.301 21.8123 41.6115C22.1025 41.9219 22.3851 42.2373 22.6754 42.5478C22.9656 42.8582 23.2558 43.1686 23.5536 43.4714C24.1492 44.0771 24.7398 44.6954 25.353 45.286L26.2716 46.1819L27.2029 47.0677L28.1417 47.9434L29.5828 48.9655L29.5676 50.1643C29.5676 50.394 29.5424 50.611 29.5197 50.823C29.4969 51.035 29.5197 51.2545 29.4944 51.4665V52.0975L29.5449 52.7208C29.5701 52.9252 29.6105 53.1322 29.6408 53.3366C29.6711 53.541 29.7468 53.7379 29.7947 53.9372L30.0042 54.5227L30.2566 55.083L30.572 55.6155C30.6982 55.7796 30.8093 55.9512 30.9279 56.1203C31.0465 56.2893 31.1954 56.4332 31.3317 56.5846C31.468 56.736 31.627 56.8723 31.7784 57.0086C31.9298 57.1449 32.0989 57.261 32.2629 57.3872C32.427 57.5133 32.6087 57.6193 32.7677 57.7228C32.9267 57.8263 33.073 57.8894 33.2522 57.9752L33.9614 58.2705L32.8636 61.1121L32.1393 60.8598C31.8541 60.7336 31.5411 60.5796 31.2484 60.4333C30.9556 60.2869 30.7209 60.1102 30.456 59.9487C30.191 59.7872 29.9689 59.5702 29.7266 59.3809C29.4843 59.1916 29.2799 58.9594 29.0578 58.7449C28.8357 58.5304 28.654 58.2806 28.4547 58.0458C28.2553 57.8111 28.0963 57.5411 27.9247 57.2887C27.7531 57.0364 27.6244 56.7537 27.478 56.4811C27.3316 56.2086 27.2256 55.9209 27.1146 55.6357C27.0035 55.3505 26.9253 55.0527 26.842 54.76C26.7587 54.4672 26.7082 54.1619 26.6578 53.8615C26.6073 53.5612 26.5821 53.2558 26.5619 52.9505C26.5417 52.6451 26.5619 52.3397 26.5619 52.0369C26.5619 51.7341 26.6275 51.4287 26.6855 51.1334C26.7486 50.881 26.8142 50.6287 26.89 50.3763C26.7663 50.3132 26.6376 50.2501 26.519 50.182C26.1127 49.9675 25.7215 49.7353 25.3303 49.498C24.5429 49.0312 23.7934 48.5138 23.059 47.9838C22.693 47.7113 22.3246 47.4437 21.9662 47.1636L21.4236 46.7447L20.8987 46.3056C20.547 46.0145 20.2013 45.7167 19.8614 45.4122C19.5132 45.1169 19.1826 44.8014 18.8519 44.486L18.3472 44.0115L17.8677 43.5194C17.5447 43.1938 17.2267 42.8657 16.9213 42.5099C16.298 41.8386 15.6998 41.1421 15.1118 40.4354L14.2462 39.3603L13.4209 38.2499C13.1433 37.8814 12.8935 37.4928 12.6285 37.1117C12.3635 36.7306 12.1237 36.3394 11.8714 35.9407C11.3666 35.1634 10.9426 34.3356 10.5035 33.5205C10.0644 32.7053 9.70098 31.8447 9.35776 30.9766C9.18362 30.5475 9.01454 30.1135 8.86816 29.6693C8.72179 29.2251 8.56279 28.791 8.42399 28.3469C8.17162 27.4459 7.91925 26.555 7.74763 25.6389C7.56134 24.7294 7.42569 23.8102 7.34132 22.8856C7.30599 22.4237 7.29084 21.9594 7.27823 21.495L7.26056 20.8035L7.29084 20.1095C7.3186 19.6451 7.34384 19.1883 7.38674 18.7315C7.42965 18.2747 7.52302 17.8179 7.59874 17.3662C7.64416 17.1416 7.67697 16.9145 7.72744 16.6924C7.77792 16.4703 7.84354 16.2457 7.90663 16.0236C8.03281 15.5794 8.159 15.1403 8.32052 14.7087" fill="url(#paint7_linear_1549_40178)"/>
<path d="M89.8113 26.5071C89.7709 26.5702 89.7154 26.6686 89.6447 26.7948C89.5034 27.0472 89.2939 27.4131 89.0542 27.8724C88.8144 28.3318 88.4636 28.8643 88.128 29.4725C87.9379 29.7652 87.7376 30.0773 87.5273 30.4088C87.4213 30.5703 87.3204 30.7369 87.2144 30.9135C87.1084 31.0902 86.9746 31.2466 86.8535 31.4183C86.3942 32.1098 85.844 32.8088 85.2686 33.5306L84.35 34.6032C84.0118 34.9489 83.6938 35.3123 83.3405 35.6657L82.808 36.1881C82.7171 36.2739 82.6313 36.3622 82.5556 36.4404C82.4799 36.5187 82.3714 36.612 82.2805 36.6928C81.902 37.031 81.5386 37.3843 81.1373 37.7023C80.943 37.8663 80.7436 38.0329 80.5493 38.207L79.9284 38.679C79.5196 38.9995 79.0881 39.2998 78.6666 39.6001C78.2451 39.9004 77.7833 40.168 77.3543 40.4657C76.9252 40.7635 76.4634 41.0134 76.0016 41.2582C75.5397 41.503 75.1006 41.7629 74.6413 41.9951C74.182 42.2273 73.7327 42.4595 73.286 42.6765C73.0665 42.7901 72.8343 42.886 72.6122 42.9895L71.951 43.2948C71.5043 43.4816 71.0778 43.6784 70.6488 43.8526C70.2197 44.0267 69.8084 44.1983 69.4021 44.3573C68.9957 44.5163 68.602 44.6627 68.226 44.8065L67.956 44.9049C67.2241 46.7554 65.7976 48.2463 63.9811 49.059C64.2171 50.0238 64.2574 51.026 64.0998 52.0067L64.1805 52.5114H64.2991L64.6827 52.4735C64.9931 52.4357 65.4398 52.3827 65.9799 52.2969C66.52 52.2111 67.1888 52.0824 67.9307 51.9057C68.6727 51.7291 69.5081 51.5019 70.4065 51.2268C71.3049 50.9518 72.2665 50.601 73.2633 50.1845C74.3167 49.7531 75.3477 49.2687 76.3524 48.7334C76.8748 48.4508 77.4098 48.1706 77.9271 47.84C78.4445 47.5094 78.977 47.1864 79.4994 46.8305C80.0218 46.4747 80.524 46.086 81.0389 45.7125C81.5537 45.339 82.0484 44.9176 82.5178 44.481C82.9872 44.0444 83.4818 43.628 83.9209 43.1535L84.5897 42.462L85.2207 41.7402C86.039 40.7946 86.776 39.7815 87.4239 38.7118C87.7444 38.207 88.0068 37.6518 88.2769 37.142C88.5469 36.6322 88.7412 36.0846 88.9583 35.5799C89.0617 35.3282 89.1518 35.0712 89.2283 34.8101C89.3091 34.5578 89.3898 34.3054 89.4807 34.053C89.5614 33.8127 89.6263 33.5674 89.675 33.3186C89.728 33.0662 89.781 32.8391 89.834 32.6044C89.887 32.3697 89.9299 32.1451 89.9678 31.923C90.0056 31.7009 90.0283 31.4763 90.051 31.2618C90.0914 30.8302 90.152 30.4315 90.1646 30.0479C90.1772 29.6643 90.1646 29.3084 90.1646 28.9804C90.1704 28.6805 90.1594 28.3806 90.1318 28.0819C90.0763 27.5368 90.0132 27.1153 89.9703 26.8201C89.9501 26.6787 89.9324 26.5677 89.9173 26.497L89.8946 26.386L89.8365 26.4869" fill="url(#paint8_linear_1549_40178)"/>
<path d="M90.7825 44.4031C90.3838 44.5646 89.9093 44.7564 89.3642 44.9533C88.8191 45.1501 88.2134 45.3647 87.5547 45.5691C86.896 45.7735 86.1868 45.983 85.4398 46.1722C84.6928 46.3615 83.913 46.5382 83.1104 46.7022C82.7067 46.7805 82.3029 46.8587 81.889 46.9243C81.682 46.9571 81.4776 46.9975 81.2681 47.0303C81.0587 47.0631 80.8492 47.0808 80.6397 47.1161C79.8069 47.2423 78.9514 47.3231 78.116 47.4013L77.4775 47.4366C77.2655 47.4543 77.0561 47.4745 76.8441 47.477C76.4176 47.477 76.0012 47.5149 75.5822 47.5149C75.1633 47.5149 74.7519 47.5401 74.3406 47.5149C73.9292 47.4896 73.5254 47.5149 73.1241 47.4947L71.9456 47.4543C71.5569 47.4215 71.1885 47.4089 70.8124 47.3887C70.0755 47.3256 69.3764 47.2953 68.7253 47.2272C68.4023 47.1943 68.0893 47.1691 67.7915 47.1489C67.4937 47.1287 67.2111 47.0833 66.9461 47.0631L66.6761 47.0379C65.9413 47.9076 65.0177 48.5981 63.9757 49.0568C64.2996 50.39 64.2524 51.7864 63.8394 53.0948L64.1978 53.221C64.6218 53.3724 65.1442 53.5188 65.7524 53.6727C66.3606 53.8266 67.0496 53.9831 67.8117 54.1143L68.3972 54.2178L69.0105 54.2935C69.4269 54.339 69.8585 54.4046 70.3052 54.4298C70.7519 54.4551 71.2112 54.4904 71.6806 54.5055C72.15 54.5207 72.6345 54.5055 73.1241 54.5055C73.6137 54.5055 74.116 54.4551 74.6232 54.4323C75.1305 54.4096 75.6327 54.3238 76.1526 54.2658C77.1921 54.1248 78.2226 53.9242 79.2391 53.6651C79.7438 53.5238 80.2486 53.3825 80.7533 53.2235C81.258 53.0645 81.7476 52.8853 82.2246 52.6834C83.1659 52.3024 84.0807 51.8589 84.9628 51.3559C85.7817 50.8835 86.5668 50.3548 87.3124 49.7736C87.9792 49.2589 88.6076 48.6963 89.1926 48.0903C89.6878 47.5853 90.1482 47.0474 90.5705 46.4801C90.895 46.0436 91.1925 45.5876 91.4614 45.1148C91.6997 44.7045 91.8991 44.2727 92.057 43.8252C92.057 43.8252 91.5901 44.0523 90.7951 44.3728" fill="url(#paint9_linear_1549_40178)"/>
<path d="M85.6648 53.891C85.314 53.9112 84.89 53.9263 84.4029 53.9389C83.9158 53.9516 83.3934 53.9541 82.8231 53.9389C80.1772 53.9263 77.5453 53.5544 74.9996 52.8336L74.51 52.6847L74.0279 52.513C73.7074 52.407 73.3945 52.2834 73.0841 52.1572C72.4683 51.9048 71.8752 51.6323 71.3175 51.3446C71.0298 51.2184 70.7673 51.0442 70.4998 50.9054C70.2323 50.7666 69.9799 50.6076 69.7427 50.4587L69.3742 50.2392L69.0285 50.0095C68.8013 49.8556 68.5742 49.7243 68.3673 49.5754C67.9584 49.2726 67.5622 49.0253 67.2367 48.7628C66.9111 48.5003 66.6007 48.3111 66.3735 48.1117C66.2019 47.9729 66.0556 47.8593 65.9369 47.771C65.4919 48.171 65.0015 48.5175 64.4757 48.8032L64.0164 49.3079C64.3249 50.8159 64.1664 52.382 63.5621 53.7976C63.9609 54.1156 64.448 54.426 64.9628 54.7743C65.2429 54.9509 65.5483 55.1226 65.8537 55.2992L66.3332 55.5667L66.8379 55.8191C67.5569 56.1757 68.2969 56.4883 69.0537 56.7554C69.8615 57.0443 70.6878 57.2787 71.527 57.457C71.9535 57.5478 72.385 57.6387 72.8216 57.6942L73.4803 57.7851L74.139 57.8431C75.0088 57.9126 75.8822 57.9244 76.7536 57.8784C77.587 57.8327 78.416 57.7273 79.2344 57.563C79.6306 57.4923 80.0142 57.3888 80.3902 57.298C80.7662 57.2071 81.1246 57.0936 81.4653 56.9649C82.1121 56.7441 82.7442 56.4828 83.3581 56.1825C83.8723 55.9298 84.372 55.6484 84.8547 55.3396C85.2249 55.1016 85.5821 54.8438 85.9247 54.5673C86.1465 54.392 86.3587 54.205 86.5607 54.0071C86.6343 53.9385 86.7042 53.866 86.7701 53.79C86.7701 53.79 86.3512 53.8304 85.6521 53.8733" fill="url(#paint10_linear_1549_40178)"/>
<path d="M77.503 61.3071C77.3591 61.2566 77.1522 61.1708 76.8998 61.0699C76.6475 60.9689 76.3471 60.8402 76.0165 60.6585C75.6859 60.4768 75.3301 60.2951 74.954 60.0907C74.7673 59.9796 74.578 59.8534 74.3837 59.7348L74.0909 59.5557L73.8007 59.3411C73.6039 59.2023 73.407 59.0686 73.2102 58.9222C73.0133 58.7758 72.824 58.6017 72.6247 58.4503C72.4231 58.2934 72.231 58.1249 72.0493 57.9455C71.86 57.7714 71.6657 57.6048 71.4814 57.4181C71.2972 57.2313 71.1281 57.0244 70.9514 56.83L70.6991 56.5398C70.6107 56.4414 70.5376 56.3253 70.4467 56.2218C70.1152 55.8129 69.8068 55.3857 69.523 54.9423C69.3817 54.7202 69.2454 54.5007 69.1041 54.2887C69.0385 54.1802 68.9628 54.0843 68.9022 53.9682L68.723 53.63C68.4883 53.1808 68.246 52.7719 68.0416 52.3681C67.8372 51.9643 67.6681 51.5404 67.494 51.1744C67.4082 50.9927 67.3148 50.8211 67.2416 50.6495C67.1684 50.4779 67.1104 50.3063 67.0498 50.1447L66.7217 49.3422C66.5299 48.9031 66.4138 48.6558 66.4138 48.6558L64.0819 49.6022C64.3549 51.2858 64.0554 53.0123 63.2314 54.5057C63.1835 54.7101 63.1305 54.9146 63.0674 55.1114C63.1153 55.1846 63.1582 55.2553 63.2087 55.3259C63.5494 55.8054 63.9658 56.2824 64.3721 56.7846C65.2657 57.8172 66.2703 58.7482 67.3678 59.5607C67.5091 59.6642 67.6403 59.7752 67.7892 59.8686L68.2385 60.1487C68.5388 60.333 68.8366 60.5147 69.1293 60.6863C69.4221 60.8579 69.7527 60.9891 70.0555 61.133C70.3528 61.2817 70.6607 61.4083 70.9767 61.5115C71.2871 61.62 71.5975 61.7084 71.8953 61.8018C72.1931 61.8951 72.506 61.9279 72.7963 61.9885L73.2278 62.0617C73.3717 62.0743 73.5155 62.0895 73.6543 62.097C73.937 62.1096 74.1995 62.1374 74.4594 62.1324C74.9256 62.1279 75.3906 62.0857 75.85 62.0062C76.2001 61.9451 76.5457 61.8608 76.8847 61.7538C77.101 61.6834 77.3126 61.5991 77.5181 61.5014C77.5918 61.4686 77.6627 61.4297 77.7301 61.3853L77.503 61.3071Z" fill="url(#paint11_linear_1549_40178)"/>
<path d="M72.8945 63.7193C72.8087 63.6612 72.7128 63.5779 72.6118 63.5073C72.5109 63.4366 72.4049 63.3584 72.2938 63.2549C72.1828 63.1514 72.0667 63.0656 71.9481 62.9748L71.5695 62.6669C71.3172 62.4625 71.0648 62.2025 70.8124 61.9729C70.6862 61.8366 70.56 61.7205 70.4313 61.5817L70.2395 61.3899L70.0578 61.1804C69.9392 61.0366 69.8055 60.9104 69.6919 60.7741C69.5783 60.6378 69.4622 60.4814 69.3487 60.3375C69.2906 60.2668 69.2351 60.1962 69.1745 60.1306C69.114 60.0649 69.0711 59.9766 69.0181 59.9009C68.9146 59.752 68.8162 59.6006 68.7076 59.4593C68.5991 59.3179 68.5234 59.1463 68.4326 58.9949L68.1625 58.5482C68.0893 58.3867 68.0136 58.2302 67.9354 58.0788C67.789 57.8542 67.6477 57.627 67.5165 57.3999C67.3852 57.1728 67.2641 56.9406 67.1404 56.7084C66.284 54.7411 65.5383 52.7274 64.9069 50.6768C63.2438 51.9134 64.064 54.4017 62.5977 56.2642C62.5145 56.4384 62.4211 56.6024 62.3252 56.769C62.0322 57.2612 61.6852 57.7192 61.2905 58.1343L61.4419 58.4422C61.6337 58.8031 61.8204 59.1993 62.0753 59.5955C62.3302 59.9918 62.6331 60.3981 62.9435 60.8069C63.2539 61.2158 63.6602 61.5968 64.0413 61.9804C64.4224 62.364 64.8867 62.7022 65.3385 63.0227C65.5682 63.1767 65.8104 63.3205 66.0426 63.4644C66.1587 63.535 66.2748 63.6082 66.3934 63.6764C66.512 63.7445 66.6458 63.7975 66.7644 63.853C67.0168 63.9666 67.2515 64.0802 67.4937 64.1811C67.736 64.2821 67.9985 64.3477 68.2357 64.4335C68.7009 64.5683 69.176 64.6662 69.6566 64.7262C70.0832 64.7711 70.5126 64.7838 70.9411 64.7641C71.5749 64.7369 72.2018 64.6214 72.8036 64.4209C72.9759 64.3641 73.1445 64.2967 73.3084 64.219C73.3658 64.194 73.4207 64.1636 73.4724 64.1281C73.4724 64.1281 73.2478 63.9792 72.902 63.7294" fill="url(#paint12_linear_1549_40178)"/>
<path d="M59.0569 59.7598C59.0771 59.9187 59.0998 60.0777 59.1251 60.2418C59.2134 60.6153 59.3169 60.9989 59.433 61.3976C59.4929 61.6025 59.5663 61.8031 59.6525 61.9983C59.7358 62.2002 59.8242 62.4021 59.9049 62.6014C59.9962 62.8067 60.1025 63.0049 60.2229 63.1945L60.5737 63.7724C60.6999 63.9592 60.8513 64.1384 60.9876 64.3125C61.1217 64.4903 61.2676 64.6589 61.4242 64.8173C61.7236 65.1299 62.0524 65.413 62.4059 65.6627C62.7275 65.8966 63.0715 66.0978 63.4331 66.2633C63.5971 66.3407 63.7657 66.4081 63.9378 66.4652C64.0951 66.5246 64.2561 66.5734 64.4198 66.6116C64.7006 66.6859 64.988 66.7324 65.2779 66.7504C65.4996 66.7697 65.7225 66.7697 65.9441 66.7504C66.0885 66.7414 66.2319 66.7211 66.3732 66.6899C66.4229 66.6825 66.4719 66.6706 66.5195 66.6545C66.5195 66.6545 66.3959 66.4753 66.2192 66.1851C66.1713 66.1144 66.1284 66.0261 66.0804 65.9327C66.024 65.844 65.9726 65.7522 65.9265 65.6577L65.7675 65.3498L65.6135 65.0091C65.5101 64.7769 65.4142 64.5245 65.3233 64.2747C65.2855 64.1434 65.2426 64.0223 65.1996 63.8885C65.1567 63.7548 65.1315 63.6235 65.0962 63.4923C65.0179 63.2399 64.9877 62.9573 64.9321 62.7049C64.8766 62.4525 64.864 62.1749 64.8413 61.92V61.5289C64.4577 59.785 65.0937 57.5086 64.0539 56.4815C62.8173 54.8183 61.563 57.3017 60.6393 58.7528C60.4828 58.8891 60.3163 59.0052 60.1472 59.1339C59.8027 59.3747 59.4389 59.5866 59.0595 59.7673" fill="url(#paint13_linear_1549_40178)"/>
<path d="M83.6582 14.7214C83.5244 15.1681 83.4058 15.6097 83.3124 16.0463C83.2594 16.2659 83.2115 16.4829 83.1661 16.6999L82.9944 17.3435C82.8834 17.77 82.7799 18.194 82.684 18.6053C82.5881 19.0167 82.4317 19.4407 82.3332 19.8546L82.1692 20.4754L81.9774 21.0861C81.8462 21.4925 81.7427 21.9013 81.6115 22.3001C81.3288 23.1001 81.1067 23.9026 80.7912 24.6824C80.5389 25.4749 80.1906 26.2421 79.8751 27.0093C79.5597 27.7765 79.2038 28.5235 78.8076 29.2655C78.4568 30.0226 78.0278 30.7343 77.6442 31.4712C77.2202 32.1905 76.8088 32.9122 76.3596 33.6164L76.029 34.1489L75.6807 34.6687C75.4486 35.0145 75.2315 35.3729 74.9842 35.7136L74.2574 36.7407L73.5003 37.7502C72.9955 38.4139 72.4605 39.0751 71.9078 39.7136C71.6378 40.0392 71.3576 40.3547 71.0775 40.6701C70.7974 40.9856 70.5172 41.301 70.227 41.6115C69.9368 41.9219 69.6541 42.2373 69.3639 42.5478C69.0737 42.8582 68.7834 43.1686 68.4857 43.4714C67.8901 44.0771 67.2995 44.6954 66.6862 45.286L65.7676 46.1819L64.8364 47.0677L63.8976 47.9434L62.4565 48.9655L62.4717 50.1643C62.4717 50.394 62.4969 50.611 62.5196 50.823C62.5423 51.035 62.5196 51.2545 62.5448 51.4665V52.0975L62.4944 52.7208C62.4691 52.9252 62.4288 53.1322 62.3985 53.3366C62.3682 53.541 62.2925 53.7379 62.2445 53.9372L62.0351 54.5227L61.7827 55.083L61.4672 55.6155C61.341 55.7796 61.23 55.9512 61.1114 56.1203C60.9928 56.2893 60.8439 56.4332 60.7076 56.5846C60.5713 56.736 60.4123 56.8723 60.2609 57.0086C60.1095 57.1449 59.9404 57.261 59.7763 57.3872C59.6123 57.5133 59.4306 57.6193 59.2716 57.7228C59.1126 57.8263 58.9662 57.8894 58.787 57.9752L58.0779 58.2705L59.1757 61.1121L59.9 60.8598C60.1852 60.7336 60.4981 60.5796 60.7909 60.4333C61.0836 60.2869 61.3183 60.1102 61.5833 59.9487C61.8483 59.7872 62.0704 59.5702 62.3127 59.3809C62.5549 59.1916 62.7594 58.9594 62.9814 58.7449C63.2035 58.5304 63.3852 58.2806 63.5846 58.0458C63.784 57.8111 63.943 57.5411 64.1146 57.2887C64.2862 57.0364 64.4149 56.7537 64.5613 56.4811C64.7077 56.2086 64.8137 55.9209 64.9247 55.6357C65.0357 55.3505 65.114 55.0527 65.1973 54.76C65.2805 54.4672 65.331 54.1619 65.3815 53.8615C65.432 53.5612 65.4572 53.2558 65.4774 52.9505C65.4976 52.6451 65.4774 52.3397 65.4774 52.0369C65.4774 51.7341 65.4118 51.4287 65.3537 51.1334C65.2906 50.881 65.225 50.6287 65.1493 50.3763C65.273 50.3132 65.4017 50.2501 65.5203 50.182C65.9266 49.9675 66.3178 49.7353 66.709 49.498C67.4964 49.0312 68.2459 48.5138 68.9803 47.9838C69.3462 47.7113 69.7147 47.4437 70.0731 47.1636L70.6157 46.7447L71.1406 46.3056C71.4922 46.0145 71.838 45.7167 72.1778 45.4122C72.5261 45.1169 72.8567 44.8014 73.1873 44.486L73.6921 44.0115L74.1716 43.5194C74.4946 43.1938 74.8126 42.8657 75.118 42.5099C75.7413 41.8386 76.3394 41.1421 76.9275 40.4354L77.7931 39.3603L78.6183 38.2499C78.8959 37.8814 79.1458 37.4928 79.4108 37.1117C79.6758 36.7306 79.9155 36.3394 80.1679 35.9407C80.6726 35.1634 81.0966 34.3356 81.5357 33.5205C81.9749 32.7053 82.3383 31.8447 82.6815 30.9766C82.8556 30.5475 83.0247 30.1135 83.1711 29.6693C83.3175 29.2251 83.4765 28.791 83.6153 28.3469C83.8676 27.4459 84.12 26.555 84.2916 25.6389C84.4779 24.7294 84.6136 23.8102 84.6979 22.8856C84.7333 22.4237 84.7484 21.9594 84.761 21.495L84.7787 20.8035L84.7484 20.1095C84.7207 19.6451 84.6954 19.1883 84.6525 18.7315C84.6096 18.2747 84.5162 17.8179 84.4405 17.3662C84.3951 17.1416 84.3623 16.9145 84.3118 16.6924C84.2613 16.4703 84.1957 16.2457 84.1326 16.0236C84.0065 15.5794 83.8803 15.1403 83.7187 14.7087" fill="url(#paint14_linear_1549_40178)"/>
<path d="M69.2454 44.9646C69.2454 57.7124 58.9114 68.0465 46.1636 68.0465C33.4159 68.0465 23.0818 57.7124 23.0818 44.9646C23.0818 32.2169 33.4159 21.8828 46.1636 21.8828C58.9114 21.8828 69.2454 32.2169 69.2454 44.9646Z" fill="#E0E0E0"/>
<defs>
<linearGradient id="paint0_linear_1549_40178" x1="20.5261" y1="69.9627" x2="71.7809" y2="69.9627" gradientUnits="userSpaceOnUse">
<stop stop-color="#FE7738"/>
<stop offset="0.291" stop-color="#FFA06D"/>
<stop offset="0.342" stop-color="#FDBF9E"/>
<stop offset="0.435" stop-color="#FDBF9E"/>
<stop offset="0.485" stop-color="#FDBF9E"/>
<stop offset="0.533" stop-color="#FDBF9E"/>
<stop offset="0.598" stop-color="#FDBF9E"/>
<stop offset="0.667" stop-color="#FDBF9E"/>
<stop offset="0.73" stop-color="#FDBF9E"/>
<stop offset="0.847" stop-color="#FFA06D"/>
<stop offset="1" stop-color="#FE7738"/>
</linearGradient>
<linearGradient id="paint1_linear_1549_40178" x1="-11.193" y1="37.1383" x2="5.74787" y2="62.0843" gradientUnits="userSpaceOnUse">
<stop stop-color="#FDBF9E"/>
<stop offset="1" stop-color="#FE7738"/>
</linearGradient>
<linearGradient id="paint2_linear_1549_40178" x1="-69.5589" y1="34.1658" x2="-66.9718" y2="90.4795" gradientUnits="userSpaceOnUse">
<stop stop-color="#FDBF9E"/>
<stop offset="1" stop-color="#FE7738"/>
</linearGradient>
<linearGradient id="paint3_linear_1549_40178" x1="0.40293" y1="60.7505" x2="5.79053" y2="71.3167" gradientUnits="userSpaceOnUse">
<stop stop-color="#FDBF9E"/>
<stop offset="1" stop-color="#FE7738"/>
</linearGradient>
<linearGradient id="paint4_linear_1549_40178" x1="-8.52313" y1="126.956" x2="-19.6133" y2="142.491" gradientUnits="userSpaceOnUse">
<stop stop-color="#FDBF9E"/>
<stop offset="1" stop-color="#FE7738"/>
</linearGradient>
<linearGradient id="paint5_linear_1549_40178" x1="18.5618" y1="50.6716" x2="18.5618" y2="64.768" gradientUnits="userSpaceOnUse">
<stop stop-color="#FDBF9E"/>
<stop offset="1" stop-color="#FE7738"/>
</linearGradient>
<linearGradient id="paint6_linear_1549_40178" x1="25.5223" y1="55.9285" x2="25.5223" y2="66.7646" gradientUnits="userSpaceOnUse">
<stop stop-color="#FDBF9E"/>
<stop offset="1" stop-color="#FE7738"/>
</linearGradient>
<linearGradient id="paint7_linear_1549_40178" x1="7.26056" y1="14.7087" x2="7.26056" y2="61.1121" gradientUnits="userSpaceOnUse">
<stop stop-color="#FDBF9E"/>
<stop offset="1" stop-color="#FE7738"/>
</linearGradient>
<linearGradient id="paint8_linear_1549_40178" x1="78.259" y1="20.1811" x2="61.3188" y2="45.1334" gradientUnits="userSpaceOnUse">
<stop stop-color="#FDBF9E"/>
<stop offset="1" stop-color="#FE7738"/>
</linearGradient>
<linearGradient id="paint9_linear_1549_40178" x1="14.7455" y1="27.3944" x2="12.1594" y2="83.7475" gradientUnits="userSpaceOnUse">
<stop stop-color="#FDBF9E"/>
<stop offset="1" stop-color="#FE7738"/>
</linearGradient>
<linearGradient id="paint10_linear_1549_40178" x1="78.7421" y1="54.1732" x2="73.3545" y2="64.7394" gradientUnits="userSpaceOnUse">
<stop stop-color="#FDBF9E"/>
<stop offset="1" stop-color="#FE7738"/>
</linearGradient>
<linearGradient id="paint11_linear_1549_40178" x1="84.6551" y1="138.317" x2="95.7453" y2="153.853" gradientUnits="userSpaceOnUse">
<stop stop-color="#FDBF9E"/>
<stop offset="1" stop-color="#FE7738"/>
</linearGradient>
<linearGradient id="paint12_linear_1549_40178" x1="61.2905" y1="50.6768" x2="61.2905" y2="64.7731" gradientUnits="userSpaceOnUse">
<stop stop-color="#FDBF9E"/>
<stop offset="1" stop-color="#FE7738"/>
</linearGradient>
<linearGradient id="paint13_linear_1549_40178" x1="59.0569" y1="55.9287" x2="59.0569" y2="66.7649" gradientUnits="userSpaceOnUse">
<stop stop-color="#FDBF9E"/>
<stop offset="1" stop-color="#FE7738"/>
</linearGradient>
<linearGradient id="paint14_linear_1549_40178" x1="58.0779" y1="14.7087" x2="58.0779" y2="61.1121" gradientUnits="userSpaceOnUse">
<stop stop-color="#FDBF9E"/>
<stop offset="1" stop-color="#FE7738"/>
</linearGradient>
</defs>
</svg>
