<svg width="142" height="109" viewBox="0 0 142 109" fill="none" xmlns="http://www.w3.org/2000/svg">
<path d="M57.613 27.5798C53.3435 27.5798 44.7738 18.9676 41.3853 15.3859C43.0294 14.6217 43.7964 12.7113 43.1373 11.0224C42.4782 9.33344 40.62 8.44756 38.8928 8.99894C37.1657 9.55032 36.1645 11.3491 36.606 13.1075C37.0475 14.8659 38.7796 15.9784 40.5623 15.6486L50.8167 46.6667H71.5456V3.35425C71.5456 3.35425 67.4075 27.5798 57.613 27.5798Z" fill="#DB9C32"/>
<path d="M63.0917 22.3181C61.1697 19.5633 59.4112 16.6979 57.8255 13.7368C59.0331 13.3612 59.752 12.1233 59.4797 10.8883C59.2074 9.6532 58.0346 8.83245 56.7809 8.9996C55.5273 9.16675 54.6105 10.2661 54.6713 11.5294C54.7321 12.7927 55.7502 13.7989 57.0141 13.8449C56.6875 17.5772 55.791 21.2374 54.3558 24.6982C54.3558 24.6982 58.7219 29.6399 63.0917 22.3181Z" fill="#DB9C32"/>
<path d="M88.7588 24.7014C87.3241 21.2405 86.4276 17.5804 86.1006 13.8482C87.3538 13.8008 88.3621 12.8021 88.4216 11.5495C88.481 10.2968 87.5717 9.20716 86.3286 9.04142C85.0855 8.87568 83.9225 9.68903 83.6516 10.9135C83.3807 12.1379 84.0922 13.366 85.2892 13.74C83.7033 16.7011 81.9449 19.5665 80.0229 22.3213C84.3928 29.6392 88.7588 24.7014 88.7588 24.7014Z" fill="#E4BC67"/>
<path d="M103.136 9.00689C101.573 9.01795 100.225 10.1088 99.8885 11.6354C99.5519 13.1621 100.316 14.7185 101.73 15.3859C98.3489 18.9676 89.783 27.5798 85.502 27.5798C75.7113 27.5798 71.5578 3.35425 71.5578 3.35425V46.6667H92.2867L102.541 15.6486C103.786 15.8666 105.048 15.3651 105.804 14.3518C106.56 13.3385 106.681 11.9861 106.117 10.8547C105.553 9.7233 104.4 9.00571 103.136 8.99916V9.00689Z" fill="#E4BC67"/>
<path d="M74.9074 3.35372C74.9074 4.71017 74.0903 5.93306 72.8371 6.45215C71.5839 6.97124 70.1414 6.68431 69.1822 5.72516C68.2231 4.766 67.9361 3.3235 68.4552 2.07031C68.9743 0.817107 70.1972 0 71.5536 0C73.4059 0 74.9074 1.50151 74.9074 3.35372Z" fill="#DB9C32"/>
<path d="M78.1522 30.5119C71.6992 30.1083 65.2246 30.802 59.0036 32.5635C53.8223 34.7118 52.1609 33.6608 48.1851 37.625C44.2093 41.5892 40.8904 42.4276 38.746 47.6089C36.6016 52.7902 32.85 56.6385 32.85 62.2447C32.85 67.851 30.7056 71.5872 32.85 76.7646C34.9943 81.942 33.1397 84.8128 37.1001 88.7808C41.0604 92.7489 46.1451 100.449 51.3263 102.598C56.5076 104.746 57.0717 106.975 62.678 106.975C68.2842 106.975 78.4265 107.748 83.6078 105.607C88.7891 103.467 89.7627 105.329 93.7308 101.357C99.864 93.7709 105.125 85.5189 109.414 76.7569C111.558 71.5795 109.414 72.6304 109.414 67.0242C108.897 61.1255 107.29 55.374 104.673 50.0624C102.33 45.2876 99.0222 41.0501 94.9594 37.6173C90.9953 33.6531 94.121 36.207 88.9397 34.0627C83.7585 31.9183 83.7585 30.5119 78.1522 30.5119Z" fill="url(#paint0_linear_1549_40114)"/>
<path fill-rule="evenodd" clip-rule="evenodd" d="M30.9917 68.8413C30.991 46.6628 48.9689 28.6826 71.1475 28.6804C81.7998 28.6794 92.0161 32.9106 99.5485 40.4429C107.081 47.9752 111.312 58.1916 111.311 68.8439C111.309 91.0224 93.3286 109 71.15 109C48.9715 108.999 30.9924 91.0199 30.9917 68.8413ZM105.73 54.516C99.9362 40.5287 86.2872 31.4087 71.1475 31.4087C50.485 31.4342 33.7412 48.1781 33.7157 68.8405C33.7157 83.9803 42.8356 97.6293 56.8229 103.423C70.8102 109.217 86.9103 106.014 97.6158 95.3088C108.321 84.6034 111.524 68.5033 105.73 54.516Z" fill="#333333"/>
<path d="M138.365 40.5819C138.303 40.6785 138.218 40.8292 138.11 41.0224C137.893 41.4088 137.573 41.969 137.206 42.6722C136.839 43.3754 136.302 44.1907 135.788 45.1218C135.497 45.57 135.19 46.0478 134.868 46.5553C134.706 46.8025 134.551 47.0576 134.389 47.328C134.227 47.5985 134.022 47.838 133.837 48.1008C133.133 49.1594 132.291 50.2297 131.41 51.3347L130.004 52.9768C129.486 53.5061 128.999 54.0625 128.458 54.6034L127.643 55.4032C127.504 55.5346 127.373 55.6698 127.257 55.7896C127.141 55.9094 126.975 56.0523 126.835 56.176C126.256 56.6937 125.7 57.2346 125.085 57.7215C124.788 57.9726 124.482 58.2276 124.185 58.4942L123.234 59.2167C122.609 59.7074 121.948 60.1672 121.303 60.627C120.657 61.0868 119.95 61.4963 119.293 61.9522C118.637 62.4082 117.93 62.7907 117.222 63.1654C116.515 63.5402 115.843 63.9382 115.14 64.2937C114.437 64.6491 113.749 65.0046 113.065 65.3369C112.729 65.5107 112.374 65.6576 112.033 65.816L111.021 66.2835C110.341 66.5694 109.684 66.8708 109.028 67.1374C108.371 67.404 107.741 67.6667 107.119 67.9101C106.497 68.1535 105.894 68.3776 105.318 68.5979L104.901 68.7485C103.781 71.5816 101.597 73.8641 98.8157 75.1082C99.1769 76.5853 99.2387 78.1198 98.9973 79.6211L99.1209 80.3938H99.3025L99.8898 80.3359C100.365 80.2779 101.049 80.1968 101.876 80.0654C102.703 79.934 103.726 79.737 104.862 79.4665C105.998 79.1961 107.277 78.8483 108.653 78.4272C110.028 78.006 111.5 77.469 113.026 76.8315C114.639 76.1709 116.218 75.4294 117.756 74.6098C118.555 74.1771 119.375 73.7482 120.167 73.2421C120.959 72.7359 121.774 72.2414 122.574 71.6966C123.374 71.1518 124.142 70.5568 124.931 69.9849C125.719 69.4131 126.476 68.7679 127.195 68.0994C127.913 67.431 128.671 66.7935 129.343 66.0671L130.367 65.0084L131.333 63.9034C132.586 62.4557 133.714 60.9046 134.706 59.2669C135.197 58.4942 135.598 57.6442 136.012 56.8637C136.425 56.0832 136.723 55.2448 137.055 54.4721C137.213 54.0867 137.351 53.6934 137.468 53.2936C137.592 52.9072 137.72 52.5209 137.855 52.1345C137.978 51.7666 138.078 51.391 138.152 51.0102C138.232 50.6392 138.313 50.2748 138.396 49.9167C138.469 49.5574 138.543 49.2135 138.601 48.8735C138.658 48.5335 138.693 48.1896 138.728 47.8612C138.79 47.2005 138.883 46.59 138.902 46.0028C138.921 45.4155 138.902 44.8707 138.902 44.3684C138.911 43.9093 138.894 43.4501 138.852 42.9929C138.767 42.1583 138.67 41.5131 138.604 41.061C138.573 40.8447 138.546 40.6747 138.523 40.5665L138.492 40.3965L138.403 40.551" fill="url(#paint1_linear_1549_40114)"/>
<path d="M139.852 67.98C139.241 68.2273 138.515 68.5209 137.68 68.8223C136.846 69.1237 135.919 69.4521 134.91 69.7651C133.902 70.078 132.816 70.3987 131.672 70.6885C130.529 70.9783 129.335 71.2487 128.106 71.4999C127.488 71.6196 126.87 71.7394 126.236 71.8399C125.919 71.8901 125.606 71.9519 125.286 72.0022C124.965 72.0524 124.644 72.0794 124.324 72.1335C123.049 72.3267 121.743 72.4503 120.46 72.5701L119.482 72.6242C119.158 72.6513 118.837 72.6822 118.512 72.686C117.86 72.686 117.222 72.744 116.581 72.744C115.939 72.744 115.309 72.7826 114.676 72.744C114.042 72.7054 113.428 72.744 112.813 72.7131L111.009 72.6513C110.414 72.601 109.85 72.5817 109.274 72.5508C108.146 72.4542 107.076 72.4078 106.079 72.3035C105.584 72.2533 105.105 72.2147 104.649 72.1837C104.193 72.1528 103.761 72.0833 103.355 72.0524L102.942 72.0137C101.817 73.3453 100.403 74.4025 98.8075 75.1047C99.3033 77.1458 99.2311 79.2837 98.5988 81.2867L99.1475 81.4799C99.7966 81.7117 100.596 81.9358 101.528 82.1715C102.459 82.4072 103.513 82.6429 104.68 82.8476L105.577 83.0061L106.516 83.122C107.153 83.1915 107.814 83.292 108.498 83.3306C109.182 83.3693 109.885 83.4233 110.603 83.4465C111.322 83.4697 112.064 83.4465 112.813 83.4465C113.563 83.4465 114.332 83.3693 115.109 83.3345C115.885 83.2997 116.654 83.1683 117.45 83.0795C119.041 82.8636 120.619 82.5566 122.175 82.1599C122.948 81.9435 123.721 81.7272 124.494 81.4837C125.266 81.2403 126.016 80.966 126.746 80.6569C128.187 80.0737 129.588 79.3947 130.938 78.6246C132.192 77.9013 133.394 77.0919 134.535 76.202C135.556 75.4141 136.518 74.5528 137.414 73.6249C138.172 72.8519 138.877 72.0283 139.523 71.1599C140.02 70.4915 140.476 69.7935 140.887 69.0696C141.252 68.4413 141.558 67.7803 141.799 67.0952C141.799 67.0952 141.084 67.443 139.867 67.9336" fill="url(#paint2_linear_1549_40114)"/>
<path d="M132.017 82.5077C131.479 82.5386 130.83 82.5618 130.085 82.5811C129.339 82.6005 128.539 82.6043 127.666 82.5811C123.615 82.5618 119.586 81.9925 115.688 80.8888L114.939 80.6609L114.201 80.3981C113.71 80.2359 113.231 80.0465 112.756 79.8533C111.813 79.467 110.905 79.0497 110.051 78.6092C109.611 78.416 109.209 78.1494 108.799 77.9369C108.39 77.7244 108.003 77.481 107.64 77.2531L107.076 76.9169L106.547 76.5653C106.199 76.3296 105.851 76.1287 105.535 75.9008C104.909 75.4371 104.302 75.0585 103.804 74.6566C103.305 74.2548 102.83 73.965 102.482 73.6598C102.219 73.4473 101.995 73.2734 101.814 73.1382C101.132 73.7506 100.382 74.281 99.5766 74.7184L98.8735 75.4912C99.3457 77.7998 99.1031 80.1975 98.178 82.3648C98.7884 82.8516 99.5341 83.3268 100.322 83.86C100.751 84.1305 101.219 84.3932 101.686 84.6637L102.42 85.0732L103.193 85.4596C104.294 86.0056 105.427 86.4843 106.585 86.8931C107.822 87.3354 109.087 87.6942 110.372 87.9672C111.025 88.1063 111.686 88.2454 112.354 88.3304L113.362 88.4695L114.371 88.5583C115.702 88.6647 117.04 88.6827 118.374 88.6124C119.65 88.5424 120.919 88.381 122.172 88.1295C122.778 88.0213 123.366 87.8629 123.941 87.7238C124.517 87.5847 125.066 87.4108 125.587 87.2138C126.577 86.8758 127.545 86.4758 128.485 86.016C129.272 85.629 130.037 85.1982 130.776 84.7255C131.343 84.3612 131.89 83.9665 132.415 83.5432C132.754 83.2747 133.079 82.9884 133.388 82.6855C133.501 82.5804 133.608 82.4695 133.709 82.3532C133.709 82.3532 133.067 82.415 131.997 82.4807" fill="url(#paint3_linear_1549_40114)"/>
<path d="M119.521 93.8601C119.301 93.7828 118.984 93.6515 118.598 93.4969C118.211 93.3424 117.752 93.1453 117.246 92.8671C116.739 92.5889 116.195 92.3107 115.619 91.9978C115.333 91.8278 115.043 91.6346 114.746 91.453L114.297 91.1787L113.853 90.8503C113.552 90.6377 113.25 90.433 112.949 90.2089C112.648 89.9848 112.358 89.7182 112.053 89.4864C111.744 89.2462 111.45 88.9882 111.172 88.7136C110.882 88.447 110.584 88.192 110.302 87.9061C110.02 87.6202 109.761 87.3033 109.491 87.0058L109.105 86.5615C108.969 86.4108 108.857 86.2331 108.718 86.0747C108.211 85.4486 107.739 84.7946 107.304 84.1158C107.088 83.7758 106.879 83.4396 106.663 83.1151C106.562 82.9489 106.446 82.8021 106.354 82.6244L106.079 82.1066C105.72 81.4189 105.349 80.793 105.036 80.1748C104.723 79.5566 104.464 78.9075 104.198 78.3472C104.066 78.069 103.923 77.8063 103.811 77.5436C103.699 77.2808 103.61 77.0181 103.518 76.7708L103.015 75.5421C102.722 74.8699 102.544 74.4912 102.544 74.4912L98.9739 75.9401C99.3919 78.5177 98.9334 81.161 97.6719 83.4473C97.5984 83.7603 97.5173 84.0733 97.4207 84.3746C97.4941 84.4867 97.5598 84.5949 97.6371 84.7031C98.1587 85.4372 98.7962 86.1674 99.4183 86.9363C100.786 88.5172 102.324 89.9425 104.005 91.1864C104.221 91.3448 104.422 91.5148 104.65 91.6578L105.338 92.0866C105.797 92.3687 106.253 92.6469 106.701 92.9096C107.15 93.1724 107.656 93.3733 108.119 93.5935C108.574 93.8226 109.046 94.0176 109.53 94.1769C110.005 94.3431 110.48 94.4783 110.936 94.6213C111.392 94.7642 111.871 94.8144 112.315 94.9072L112.976 95.0192C113.196 95.0385 113.417 95.0617 113.629 95.0733C114.062 95.0926 114.464 95.1351 114.862 95.1274C115.575 95.1205 116.287 95.0559 116.991 94.9342C117.527 94.8407 118.056 94.7116 118.575 94.5478C118.906 94.44 119.23 94.3109 119.544 94.1615C119.657 94.1112 119.766 94.0517 119.869 93.9837L119.521 93.864" fill="url(#paint4_linear_1549_40114)"/>
<path d="M112.465 97.552C112.33 97.4631 112.187 97.3356 112.032 97.2274C111.878 97.1193 111.716 96.9995 111.546 96.8411C111.376 96.6827 111.198 96.5513 111.016 96.4122L110.437 95.9408C110.05 95.6279 109.664 95.2299 109.278 94.8783C109.084 94.6696 108.891 94.4919 108.694 94.2794L108.4 93.9858L108.122 93.6651C107.941 93.4448 107.736 93.2517 107.562 93.043C107.388 92.8344 107.21 92.5948 107.037 92.3746C106.948 92.2664 106.863 92.1582 106.77 92.0578C106.677 91.9573 106.612 91.8221 106.53 91.7062C106.372 91.4782 106.221 91.2464 106.055 91.03C105.889 90.8136 105.773 90.5509 105.634 90.3191L105.221 89.6352C105.109 89.3879 104.993 89.1484 104.873 88.9166C104.649 88.5727 104.432 88.2249 104.235 87.8772C104.038 87.5295 103.849 87.174 103.66 86.8185C102.348 83.8067 101.207 80.7237 100.24 77.5842C97.6941 79.4775 98.9498 83.2871 96.705 86.1385C96.5775 86.4051 96.4345 86.6563 96.2877 86.9113C95.8392 87.6649 95.3078 88.366 94.7036 89.0016L94.9354 89.4729C95.229 90.0254 95.5149 90.632 95.9052 91.2387C96.2954 91.8453 96.7591 92.4673 97.2343 93.0932C97.7095 93.7192 98.3316 94.3026 98.915 94.8899C99.4984 95.4772 100.209 95.9949 100.901 96.4856C101.253 96.7213 101.623 96.9415 101.979 97.1618C102.157 97.2699 102.334 97.382 102.516 97.4863C102.698 97.5906 102.902 97.6718 103.084 97.7568C103.47 97.9306 103.83 98.1045 104.201 98.2591C104.572 98.4136 104.973 98.5141 105.337 98.6454C106.049 98.8519 106.776 99.0018 107.512 99.0936C108.165 99.1624 108.822 99.1817 109.478 99.1516C110.027 99.1327 110.572 99.0654 111.109 98.9507C111.523 98.8692 111.931 98.7595 112.33 98.6222C112.594 98.5354 112.852 98.4322 113.103 98.3131C113.191 98.2749 113.275 98.2283 113.354 98.1741C113.354 98.1741 113.01 97.9461 112.481 97.5636" fill="url(#paint5_linear_1549_40114)"/>
<path d="M91.2809 91.4914C91.3118 91.7349 91.3466 91.9783 91.3852 92.2294C91.5204 92.8013 91.6788 93.3885 91.8566 93.999C91.9483 94.3126 92.0606 94.6198 92.1927 94.9186C92.3202 95.2277 92.4555 95.5368 92.5791 95.842C92.719 96.1561 92.8817 96.4596 93.0659 96.75L93.603 97.6348C93.7962 97.9207 94.028 98.195 94.2366 98.4616C94.442 98.7338 94.6653 98.9919 94.9051 99.2344C95.3635 99.7129 95.8668 100.146 96.4081 100.529C96.9003 100.887 97.4271 101.195 97.9806 101.448C98.2318 101.567 98.4898 101.67 98.7533 101.757C98.9942 101.848 99.2407 101.923 99.4913 101.981C99.9212 102.095 100.361 102.166 100.805 102.194C101.144 102.223 101.486 102.223 101.825 102.194C102.046 102.18 102.266 102.149 102.482 102.101C102.558 102.09 102.633 102.072 102.706 102.047C102.706 102.047 102.517 101.773 102.246 101.329C102.173 101.22 102.107 101.085 102.034 100.942C101.947 100.806 101.869 100.666 101.798 100.521L101.555 100.05L101.319 99.528C101.16 99.1725 101.014 98.7862 100.875 98.4037C100.817 98.2027 100.751 98.0173 100.685 97.8125C100.62 97.6077 100.581 97.4068 100.527 97.2059C100.407 96.8195 100.361 96.3868 100.276 96.0004C100.191 95.614 100.171 95.189 100.137 94.7988V94.1999C99.5493 91.5301 100.523 88.045 98.9311 86.4725C97.0378 83.9263 95.1214 87.7282 93.7034 89.9498C93.4639 90.1585 93.2089 90.3362 92.95 90.5332C92.4226 90.9019 91.8657 91.2263 91.2847 91.503" fill="url(#paint6_linear_1549_40114)"/>
<path d="M128.944 22.5379C128.74 23.2218 128.558 23.8979 128.415 24.5663C128.33 24.9025 128.26 25.2348 128.191 25.567L127.928 26.5523C127.758 27.2053 127.6 27.8544 127.453 28.4842C127.306 29.1139 127.067 29.763 126.916 30.3967L126.665 31.3472L126.371 32.2822C126.17 32.9043 126.012 33.5302 125.811 34.1407C125.378 35.3655 125.038 36.5941 124.555 37.788C124.169 39.0012 123.636 40.1758 123.153 41.3504C122.67 42.525 122.125 43.6686 121.518 44.8046C120.981 45.9637 120.324 47.0532 119.737 48.1815C119.088 49.2826 118.458 50.3876 117.77 51.4656L117.264 52.2809L116.731 53.0768C116.376 53.6061 116.043 54.1548 115.665 54.6764L114.552 56.2489L113.393 57.7944C112.62 58.8106 111.801 59.8229 110.955 60.8004C110.541 61.2988 110.112 61.7818 109.684 62.2648C109.255 62.7477 108.826 63.2307 108.382 63.7059C107.937 64.1812 107.504 64.6641 107.06 65.1394C106.616 65.6146 106.171 66.0898 105.716 66.5535C104.804 67.4808 103.9 68.4274 102.961 69.3315L101.554 70.7031L100.129 72.0593L98.6913 73.4L96.4851 74.9648L96.5083 76.8001C96.5083 77.1517 96.5469 77.484 96.5817 77.8085C96.6165 78.1331 96.5817 78.4692 96.6203 78.7938V79.7597L96.543 80.7141C96.5044 81.027 96.4426 81.3439 96.3962 81.6568C96.3499 81.9698 96.2339 82.2711 96.1605 82.5764L95.8398 83.4728L95.4535 84.3305L94.9705 85.1458C94.7773 85.3969 94.6073 85.6596 94.4257 85.9185C94.2441 86.1774 94.0162 86.3976 93.8075 86.6294C93.5989 86.8613 93.3555 87.0699 93.1236 87.2785C92.8918 87.4872 92.6329 87.6649 92.3818 87.8581C92.1307 88.0513 91.8525 88.2136 91.6091 88.372C91.3656 88.5304 91.1415 88.627 90.8672 88.7583L89.7776 89.2104L91.4584 93.561L92.5673 93.1746C93.0039 92.9814 93.483 92.7457 93.9312 92.5216C94.3794 92.2975 94.7387 92.0271 95.1444 91.7798C95.5501 91.5325 95.8901 91.2002 96.261 90.9105C96.6319 90.6207 96.9449 90.2652 97.2849 89.9368C97.6249 89.6084 97.9031 89.2259 98.2083 88.8665C98.5135 88.5072 98.757 88.0938 99.0197 87.7074C99.2824 87.321 99.4795 86.8883 99.7036 86.471C99.9277 86.0537 100.09 85.6133 100.26 85.1767C100.43 84.7401 100.55 84.2842 100.677 83.836C100.805 83.3878 100.882 82.9203 100.959 82.4605C101.037 82.0007 101.075 81.5332 101.106 81.0657C101.137 80.5982 101.106 80.1306 101.106 79.667C101.106 79.2034 101.006 78.7358 100.917 78.2838C100.82 77.8974 100.72 77.511 100.604 77.1247C100.793 77.0281 100.99 76.9315 101.172 76.8272C101.794 76.4987 102.393 76.1433 102.992 75.7801C104.197 75.0653 105.345 74.2732 106.469 73.4618C107.029 73.0446 107.593 72.635 108.142 72.2061L108.973 71.5648L109.776 70.8925C110.315 70.4468 110.844 69.9909 111.364 69.5247C111.898 69.0726 112.404 68.5897 112.91 68.1067L113.683 67.3803L114.417 66.6269C114.911 66.1285 115.398 65.6262 115.866 65.0814C116.82 64.0537 117.736 62.9873 118.636 61.9054L119.961 60.2595L121.225 58.5594C121.65 57.9953 122.032 57.4003 122.438 56.8169C122.843 56.2335 123.211 55.6346 123.597 55.0241C124.37 53.8341 125.019 52.5668 125.691 51.3188C126.363 50.0708 126.92 48.7533 127.445 47.4242C127.712 46.7673 127.971 46.1028 128.195 45.4228C128.419 44.7427 128.662 44.0782 128.875 43.3982C129.261 42.0188 129.647 40.6549 129.91 39.2524C130.195 37.8599 130.403 36.4526 130.532 35.037C130.586 34.33 130.61 33.6191 130.629 32.9081L130.656 31.8495L130.61 30.7869C130.567 30.076 130.528 29.3767 130.463 28.6773C130.397 27.978 130.254 27.2787 130.138 26.5871C130.069 26.2432 130.018 25.8955 129.941 25.5554C129.864 25.2154 129.763 24.8716 129.667 24.5316C129.474 23.8515 129.28 23.1793 129.033 22.5186" fill="url(#paint7_linear_1549_40114)"/>
<path d="M3.8753 40.5819C3.93712 40.6785 4.02212 40.8292 4.1303 41.0224C4.34667 41.4088 4.66736 41.969 5.03441 42.6722C5.40147 43.3754 5.93853 44.1907 6.4524 45.1218C6.74347 45.57 7.04999 46.0478 7.37197 46.5553C7.53425 46.8025 7.6888 47.0576 7.85107 47.328C8.01335 47.5985 8.21813 47.838 8.40359 48.1008C9.10679 49.1594 9.94908 50.2297 10.83 51.3347L12.2364 52.9768C12.7542 53.5061 13.241 54.0625 13.7819 54.6034L14.5971 55.4032C14.7362 55.5346 14.8676 55.6698 14.9835 55.7896C15.0994 55.9094 15.2656 56.0523 15.4047 56.176C15.9842 56.6937 16.5406 57.2346 17.1549 57.7215C17.4524 57.9726 17.7577 58.2276 18.0552 58.4942L19.0057 59.2167C19.6316 59.7074 20.2923 60.1672 20.9375 60.627C21.5828 61.0868 22.2898 61.4963 22.9467 61.9522C23.6035 62.4082 24.3106 62.7907 25.0176 63.1654C25.7247 63.5402 26.397 63.9382 27.1002 64.2937C27.8034 64.6491 28.4911 65.0046 29.175 65.3369C29.5112 65.5107 29.8666 65.6576 30.2066 65.816L31.2189 66.2835C31.9028 66.5694 32.5558 66.8708 33.2126 67.1374C33.8694 67.404 34.4992 67.6667 35.1213 67.9101C35.7433 68.1535 36.3461 68.3776 36.9218 68.5979L37.3352 68.7485C38.4556 71.5816 40.6397 73.8641 43.4206 75.1082C43.0593 76.5853 42.9976 78.1198 43.239 79.6211L43.1153 80.3938H42.9338L42.3465 80.3359C41.8712 80.2779 41.1873 80.1968 40.3605 80.0654C39.5337 79.934 38.5098 79.737 37.3738 79.4665C36.2379 79.1961 34.959 78.8483 33.5835 78.4272C32.208 78.006 30.736 77.469 29.2098 76.8315C27.597 76.1709 26.0186 75.4294 24.4806 74.6098C23.6808 74.1771 22.8617 73.7482 22.0696 73.2421C21.2775 72.7359 20.4623 72.2414 19.6625 71.6966C18.8627 71.1518 18.0938 70.5568 17.3056 69.9849C16.5174 69.4131 15.7601 68.7679 15.0415 68.0994C14.3228 67.431 13.5655 66.7935 12.8932 66.0671L11.8694 65.0084L10.9034 63.9034C9.65054 62.4557 8.52218 60.9046 7.53039 59.2669C7.03969 58.4942 6.63786 57.6442 6.22444 56.8637C5.81102 56.0832 5.51352 55.2448 5.18124 54.4721C5.02291 54.0867 4.88491 53.6934 4.76782 53.2936C4.64418 52.9072 4.52054 52.5209 4.38144 52.1345C4.25783 51.7666 4.15845 51.391 4.08394 51.0102C4.0028 50.6238 3.92166 50.276 3.84439 49.9167C3.76711 49.5574 3.69756 49.2135 3.63961 48.8735C3.58165 48.5335 3.54688 48.1896 3.5121 47.8612C3.45029 47.2005 3.35756 46.59 3.33824 46.0028C3.31892 45.4155 3.33824 44.8707 3.33824 44.3684C3.32943 43.9093 3.34619 43.4501 3.38847 42.9929C3.47347 42.1583 3.57006 41.5131 3.63574 41.061C3.66665 40.8447 3.6937 40.6747 3.71688 40.5665L3.75166 40.3965L3.84052 40.551" fill="url(#paint8_linear_1549_40114)"/>
<path d="M2.40771 67.9788C3.01818 68.2261 3.74456 68.5197 4.57913 68.8211C5.4137 69.1225 6.34099 69.4509 7.34943 69.7638C8.35786 70.0768 9.44357 70.3975 10.5872 70.6873C11.7309 70.9771 12.9248 71.2475 14.1535 71.4987C14.7717 71.6184 15.3899 71.7382 16.0235 71.8387C16.3403 71.8889 16.6533 71.9507 16.974 72.0009C17.2947 72.0512 17.6154 72.0782 17.936 72.1323C19.2111 72.3255 20.5209 72.4491 21.7998 72.5689L22.7773 72.623C23.1019 72.6501 23.4225 72.681 23.7471 72.6848C24.4001 72.6848 25.0376 72.7428 25.679 72.7428C26.3203 72.7428 26.9501 72.7814 27.5799 72.7428C28.2097 72.7041 28.8279 72.7428 29.4422 72.7119L31.2466 72.6501C31.8416 72.5998 32.4057 72.5805 32.9814 72.5496C34.1096 72.453 35.1799 72.4066 36.1767 72.3023C36.6713 72.2521 37.1504 72.2134 37.6063 72.1825C38.0622 72.1516 38.495 72.0821 38.9007 72.0512L39.3141 72.0125C40.4389 73.3441 41.8529 74.4012 43.4483 75.1035C42.9524 77.1446 43.0246 79.2825 43.6569 81.2855L43.1083 81.4787C42.4591 81.7105 41.6594 81.9346 40.7282 82.1703C39.797 82.406 38.7422 82.6455 37.5754 82.8464L36.6945 83.028L35.7556 83.1439C35.1181 83.2135 34.4574 83.3139 33.7735 83.3526C33.0896 83.3912 32.3864 83.4453 31.6677 83.4685C30.9491 83.4917 30.2073 83.4685 29.4577 83.4685C28.7081 83.4685 27.9392 83.3912 27.1626 83.3564C26.386 83.3217 25.6171 83.1903 24.8212 83.1014C23.2298 82.8856 21.6521 82.5785 20.0959 82.1819C19.3231 81.9655 18.5504 81.7491 17.7776 81.5057C17.0049 81.2623 16.2553 80.988 15.5251 80.6789C14.084 80.0956 12.6835 79.4167 11.3329 78.6466C10.0793 77.9233 8.87733 77.1138 7.7358 76.224C6.7149 75.4361 5.75285 74.5748 4.85732 73.6469C4.09916 72.8739 3.39434 72.0503 2.74772 71.1818C2.25101 70.5135 1.79553 69.8154 1.38383 69.0916C1.01892 68.4633 0.713638 67.8023 0.471985 67.1172C0.471985 67.1172 1.18678 67.4649 2.40385 67.9556" fill="url(#paint9_linear_1549_40114)"/>
<path d="M10.24 82.5077C10.7771 82.5386 11.4262 82.5618 12.1719 82.5811C12.9176 82.6005 13.7174 82.6043 14.5906 82.5811C18.6413 82.5618 22.6707 81.9925 26.5682 80.8888L27.3177 80.6609L28.0557 80.3981C28.5464 80.2359 29.0255 80.0465 29.5007 79.8533C30.4435 79.467 31.3515 79.0497 32.2054 78.6092C32.6458 78.416 33.0476 78.1494 33.4572 77.9369C33.8668 77.7244 34.2531 77.481 34.6163 77.2531L35.1804 76.9169L35.7098 76.5653C36.0575 76.3296 36.4052 76.1287 36.7221 75.9008C37.348 75.4371 37.9546 75.0585 38.453 74.6566C38.9514 74.2548 39.4267 73.965 39.7744 73.6598C40.0371 73.4473 40.2612 73.2734 40.4428 73.1382C41.1242 73.7506 41.875 74.281 42.6799 74.7184L43.3831 75.4912C42.9109 77.7998 43.1535 80.1975 44.0786 82.3648C43.4681 82.8516 42.7224 83.3268 41.9342 83.86C41.5054 84.1305 41.0378 84.3932 40.5703 84.6637L39.8362 85.0732L39.0635 85.4596C37.9627 86.0055 36.8298 86.4842 35.6711 86.8931C34.4344 87.3354 33.1694 87.6942 31.8847 87.9672C31.2317 88.1063 30.571 88.2454 29.9026 88.3304L28.8941 88.4695L27.8857 88.5583C26.5541 88.6647 25.2169 88.6827 23.8829 88.6124C22.6069 88.5424 21.3377 88.381 20.0848 88.1295C19.4782 88.0213 18.8909 87.8629 18.3152 87.7238C17.7395 87.5847 17.1909 87.4108 16.6693 87.2138C15.6792 86.8758 14.7113 86.4757 13.7715 86.016C12.9842 85.6291 12.2193 85.1982 11.4803 84.7255C10.9134 84.3611 10.3665 83.9664 9.84208 83.5432C9.50258 83.2747 9.17757 82.9884 8.86842 82.6855C8.75572 82.5805 8.64867 82.4695 8.54773 82.3532C8.54773 82.3532 9.18911 82.415 10.2594 82.4807" fill="url(#paint10_linear_1549_40114)"/>
<path d="M22.7389 93.8601C22.9591 93.7828 23.276 93.6515 23.6623 93.4969C24.0487 93.3424 24.5085 93.1453 25.0146 92.8671C25.5208 92.5889 26.0656 92.3107 26.6413 91.9978C26.9272 91.8278 27.217 91.6346 27.5145 91.453L27.9627 91.1787L28.407 90.8502C28.7084 90.6377 29.0097 90.433 29.3111 90.2089C29.6125 89.9848 29.9023 89.7182 30.2075 89.4864C30.516 89.2462 30.8102 88.9882 31.0884 88.7136C31.3782 88.447 31.6757 88.192 31.9578 87.9061C32.2398 87.6202 32.4987 87.3033 32.7692 87.0058L33.1555 86.5615C33.2908 86.4108 33.4028 86.2331 33.5419 86.0747C34.0495 85.4486 34.5216 84.7946 34.956 84.1158C35.1724 83.7758 35.381 83.4396 35.5974 83.1151C35.6979 82.9489 35.8138 82.8021 35.9065 82.6244L36.1808 82.1066C36.5402 81.4189 36.9111 80.793 37.224 80.1748C37.537 79.5566 37.7959 78.9075 38.0625 78.3472C38.1938 78.069 38.3368 77.8063 38.4488 77.5436C38.5609 77.2808 38.6498 77.0181 38.7425 76.7708L39.2448 75.5421C39.5384 74.8699 39.7161 74.4912 39.7161 74.4912L43.2862 75.9401C42.8683 78.5177 43.3268 81.161 44.5883 83.4473C44.6617 83.7603 44.7429 84.0733 44.8395 84.3746C44.766 84.4867 44.7004 84.5949 44.6231 84.7031C44.1015 85.4372 43.464 86.1674 42.8419 86.9363C41.474 88.5172 39.9359 89.9425 38.2557 91.1864C38.0393 91.3448 37.8384 91.5148 37.6104 91.6578L36.9227 92.0866C36.4629 92.3687 36.007 92.6469 35.5588 92.9096C35.1106 93.1723 34.6044 93.3733 34.1408 93.5935C33.6856 93.8212 33.2143 94.0149 32.7305 94.1731C32.2553 94.3392 31.78 94.4744 31.3241 94.6174C30.8682 94.7603 30.3891 94.8106 29.9448 94.9033L29.2841 95.0153C29.0638 95.0347 28.8436 95.0578 28.6311 95.0694C28.1984 95.0888 27.7965 95.1313 27.3986 95.1235C26.6849 95.1167 25.9729 95.0521 25.2697 94.9303C24.7336 94.8368 24.2044 94.7077 23.6855 94.544C23.3543 94.4361 23.0304 94.3071 22.7157 94.1576C22.6029 94.1073 22.4943 94.0479 22.3912 93.9799L22.7389 93.8601Z" fill="url(#paint11_linear_1549_40114)"/>
<path d="M29.7898 97.5524C29.9212 97.4635 30.068 97.336 30.2226 97.2278C30.3771 97.1197 30.5394 96.9999 30.7094 96.8415C30.8794 96.6831 31.0571 96.5517 31.2387 96.4126L31.8028 95.9335C32.1892 95.6205 32.5756 95.2226 32.962 94.871C33.1551 94.6623 33.3483 94.4846 33.5454 94.2721L33.839 93.9784L34.1172 93.6578C34.2988 93.4375 34.5036 93.2443 34.6775 93.0357C34.8513 92.8271 35.0291 92.5875 35.2029 92.3673C35.2918 92.2591 35.3768 92.1509 35.4695 92.0504C35.5623 91.95 35.6279 91.8148 35.7091 91.6988C35.8675 91.4709 36.0182 91.2391 36.1843 91.0227C36.3505 90.8063 36.4664 90.5436 36.6055 90.3118L37.0189 89.6279C37.1309 89.3806 37.2468 89.1411 37.3666 88.9092C37.5907 88.5654 37.8071 88.2176 38.008 87.8699C38.2089 87.5221 38.3944 87.1667 38.5837 86.8112C39.8949 83.7993 41.0365 80.7164 42.0031 77.5769C44.5493 79.4701 43.2936 83.2798 45.5384 86.1312C45.6659 86.3978 45.8089 86.6489 45.9557 86.904C46.4042 87.6576 46.9355 88.3587 47.5398 88.9942L47.308 89.4656C47.0144 90.0181 46.7284 90.6247 46.3382 91.2313C45.948 91.8379 45.4843 92.46 45.0091 93.0859C44.5338 93.7118 43.9118 94.2953 43.3284 94.8826C42.7449 95.4698 42.034 95.9876 41.3424 96.4783C40.9908 96.714 40.6199 96.9342 40.2644 97.1544C40.0867 97.2626 39.9089 97.3747 39.7274 97.479C39.5458 97.5833 39.341 97.6644 39.1594 97.7494C38.773 97.9233 38.4137 98.0972 38.0428 98.2517C37.6718 98.4063 37.27 98.5067 36.9068 98.6381C36.1947 98.8445 35.4673 98.9944 34.7315 99.0863C34.0784 99.155 33.421 99.1744 32.7649 99.1442C31.7946 99.1027 30.8349 98.9258 29.9135 98.6188C29.6497 98.5319 29.3916 98.4287 29.1407 98.3097C29.0528 98.2714 28.9687 98.2249 28.8896 98.1706C28.8896 98.1706 29.2335 97.9426 29.7628 97.5601" fill="url(#paint12_linear_1549_40114)"/>
<path d="M50.9708 91.4914C50.9399 91.7349 50.9051 91.9783 50.8664 92.2294C50.7312 92.8013 50.5728 93.3885 50.3951 93.999C50.3033 94.3126 50.191 94.6198 50.0589 94.9186C49.9314 95.2277 49.7962 95.5368 49.6726 95.842C49.5327 96.1562 49.37 96.4597 49.1857 96.75L48.6487 97.6348C48.4555 97.9207 48.2237 98.195 48.015 98.4616C47.8097 98.7338 47.5864 98.992 47.3466 99.2344C46.8882 99.7129 46.3849 100.146 45.8436 100.529C45.3513 100.887 44.8245 101.195 44.2711 101.448C44.0199 101.567 43.7618 101.67 43.4983 101.757C43.2575 101.848 43.011 101.923 42.7603 101.981C42.3305 102.095 41.8905 102.166 41.4467 102.194C41.1073 102.223 40.766 102.223 40.4266 102.194C40.2056 102.18 39.986 102.149 39.7698 102.101C39.6937 102.09 39.6187 102.072 39.5457 102.047C39.5457 102.047 39.735 101.773 40.0055 101.329C40.0789 101.22 40.1446 101.085 40.218 100.942C40.3044 100.806 40.3831 100.666 40.4537 100.521L40.6971 100.05L40.9328 99.528C41.0912 99.1725 41.238 98.7862 41.3771 98.4037C41.4351 98.2027 41.5008 98.0173 41.5664 97.8125C41.6321 97.6077 41.6708 97.4068 41.7249 97.2059C41.8446 96.8195 41.891 96.3868 41.976 96.0004C42.061 95.614 42.0803 95.189 42.1151 94.7988V94.1999C42.7024 91.5301 41.7287 88.045 43.3206 86.4725C45.2138 83.9263 47.1341 87.7282 48.5482 89.9498C48.7916 90.1585 49.0428 90.3362 49.3016 90.5332C49.829 90.9019 50.386 91.2263 50.9669 91.503" fill="url(#paint13_linear_1549_40114)"/>
<path d="M13.3033 22.5379C13.508 23.2218 13.6896 23.8979 13.8326 24.5663C13.9137 24.9025 13.9871 25.2348 14.0567 25.567L14.3194 26.5523C14.4894 27.2053 14.6478 27.8544 14.7947 28.4842C14.9415 29.1139 15.181 29.763 15.3317 30.3967L15.5829 31.3472L15.8765 32.2822C16.0774 32.9043 16.2358 33.5302 16.4368 34.1407C16.8695 35.3655 17.2095 36.5941 17.6925 37.788C18.0788 39.0012 18.612 40.1758 19.095 41.3504C19.578 42.525 20.1228 43.6686 20.7294 44.8046C21.2664 45.9637 21.9232 47.0532 22.5105 48.1815C23.1596 49.2826 23.7894 50.3876 24.4772 51.4656L24.9833 52.2809L25.5165 53.0768C25.872 53.6061 26.2043 54.1548 26.5829 54.6764L27.6957 56.2489L28.8548 57.7944C29.6275 58.8106 30.4466 59.8229 31.2928 60.8004C31.7062 61.2988 32.1351 61.7818 32.564 62.2648C32.9928 62.7477 33.4217 63.2307 33.866 63.7059C34.3104 64.1812 34.7431 64.6641 35.1874 65.1394C35.6318 65.6146 36.0761 66.0898 36.532 66.5535C37.4439 67.4808 38.348 68.4274 39.2869 69.3315L40.6933 70.7031L42.119 72.0593L43.5563 73.4L45.7625 74.9648L45.7393 76.8001C45.7393 77.1517 45.7006 77.484 45.6659 77.8085C45.6311 78.1331 45.6659 78.4692 45.6272 78.7938V79.7597L45.7045 80.7141C45.7431 81.027 45.805 81.3439 45.8513 81.6568C45.8977 81.9698 46.0136 82.2711 46.087 82.5764L46.4077 83.4728L46.7941 84.3305L47.2771 85.1458C47.4702 85.3969 47.6402 85.6596 47.8218 85.9185C48.0034 86.1774 48.2314 86.3976 48.44 86.6294C48.6487 86.8613 48.8921 87.0699 49.1239 87.2785C49.3557 87.4872 49.6146 87.6649 49.8657 87.8581C50.1169 88.0513 50.3951 88.2136 50.6385 88.372C50.8819 88.5304 51.106 88.627 51.3803 88.7583L52.466 89.2104L50.7853 93.561L49.6764 93.1746C49.2398 92.9814 48.7607 92.7457 48.3125 92.5216C47.8643 92.2975 47.505 92.0271 47.0993 91.7798C46.6936 91.5325 46.3536 91.2002 45.9827 90.9105C45.6118 90.6207 45.2988 90.2652 44.9588 89.9368C44.6188 89.6084 44.3406 89.2259 44.0354 88.8665C43.7301 88.5072 43.4867 88.0938 43.224 87.7074C42.9613 87.321 42.7642 86.8883 42.5401 86.471C42.316 86.0537 42.1537 85.6133 41.9837 85.1767C41.8137 84.7401 41.694 84.2842 41.5665 83.836C41.439 83.3878 41.3617 82.9203 41.2844 82.4605C41.2071 82.0007 41.1685 81.5332 41.1376 81.0657C41.1067 80.5982 41.1376 80.1306 41.1376 79.667C41.1376 79.2034 41.238 78.7358 41.3269 78.2838C41.4235 77.8974 41.524 77.511 41.6399 77.1247C41.4505 77.0281 41.2535 76.9315 41.0719 76.8272C40.4498 76.4987 39.851 76.1433 39.2521 75.7801C38.0466 75.0653 36.8991 74.2732 35.7747 73.4618C35.2145 73.0446 34.6504 72.635 34.1017 72.2061L33.271 71.5648L32.4674 70.8925C31.929 70.4468 31.3997 69.9909 30.8794 69.5247C30.3462 69.0726 29.84 68.5897 29.3339 68.1067L28.5611 67.3803L27.827 66.6269C27.3325 66.1285 26.8456 65.6262 26.3781 65.0814C25.4238 64.0537 24.5081 62.9873 23.6078 61.9054L22.2826 60.2595L21.0191 58.5594C20.5941 57.9953 20.2116 57.4003 19.8059 56.8169C19.4002 56.2335 19.0332 55.6346 18.6468 55.0241C17.8741 53.8341 17.225 52.5668 16.5527 51.3188C15.8804 50.0708 15.324 48.7533 14.7985 47.4242C14.5319 46.7673 14.2731 46.1028 14.049 45.4228C13.8249 44.7427 13.5815 44.0782 13.3689 43.3982C12.9826 42.0188 12.5962 40.6549 12.3335 39.2524C12.0483 37.8599 11.8406 36.4526 11.7114 35.037C11.6573 34.33 11.6341 33.6191 11.6148 32.9081L11.5878 31.8495L11.6341 30.7869C11.6766 30.076 11.7153 29.3767 11.781 28.6773C11.8466 27.978 11.9896 27.2787 12.1055 26.5871C12.1751 26.2432 12.2253 25.8955 12.3026 25.5554C12.3798 25.2154 12.4803 24.8716 12.5769 24.5316C12.7701 23.8515 12.9633 23.1793 13.2105 22.5186" fill="url(#paint14_linear_1549_40114)"/>
<path d="M106.485 68.8409C106.485 88.3573 90.6635 104.179 71.1471 104.179C51.6306 104.179 35.8094 88.3573 35.8094 68.8409C35.8094 49.3244 51.6306 33.5032 71.1471 33.5032C90.6635 33.5032 106.485 49.3244 106.485 68.8409Z" fill="#E0E0E0"/>
<defs>
<linearGradient id="paint0_linear_1549_40114" x1="31.8969" y1="107.111" x2="110.367" y2="107.111" gradientUnits="userSpaceOnUse">
<stop stop-color="#BA7418"/>
<stop offset="0.291" stop-color="#F9D876"/>
<stop offset="0.342" stop-color="#FADB82"/>
<stop offset="0.435" stop-color="#FDE3A4"/>
<stop offset="0.485" stop-color="#FFE9B9"/>
<stop offset="0.533" stop-color="#FDE5AC"/>
<stop offset="0.62" stop-color="#FADD8A"/>
<stop offset="0.667" stop-color="#F9D876"/>
<stop offset="0.73" stop-color="#F0CB69"/>
<stop offset="0.847" stop-color="#DBA94A"/>
<stop offset="1" stop-color="#BA7418"/>
</linearGradient>
<linearGradient id="paint1_linear_1549_40114" x1="120.675" y1="30.8969" x2="94.7397" y2="69.0983" gradientUnits="userSpaceOnUse">
<stop stop-color="#F3CC74"/>
<stop offset="0.556" stop-color="#F2BC53"/>
<stop offset="1" stop-color="#BC8821"/>
</linearGradient>
<linearGradient id="paint2_linear_1549_40114" x1="23.4373" y1="41.9401" x2="19.4781" y2="128.215" gradientUnits="userSpaceOnUse">
<stop stop-color="#F3C86C"/>
<stop offset="1" stop-color="#EFBF5F"/>
</linearGradient>
<linearGradient id="paint3_linear_1549_40114" x1="121.418" y1="82.9398" x2="113.17" y2="99.1164" gradientUnits="userSpaceOnUse">
<stop stop-color="#F2C86B"/>
<stop offset="1" stop-color="#DFA93D"/>
</linearGradient>
<linearGradient id="paint4_linear_1549_40114" x1="130.476" y1="211.742" x2="147.459" y2="235.52" gradientUnits="userSpaceOnUse">
<stop stop-color="#F3CC74"/>
<stop offset="1" stop-color="#F2B33F"/>
</linearGradient>
<linearGradient id="paint5_linear_1549_40114" x1="94.7036" y1="77.5842" x2="94.7036" y2="99.1654" gradientUnits="userSpaceOnUse">
<stop stop-color="#EA9E2A"/>
<stop offset="1" stop-color="#F2C668"/>
</linearGradient>
<linearGradient id="paint6_linear_1549_40114" x1="91.2809" y1="85.6262" x2="91.2809" y2="102.216" gradientUnits="userSpaceOnUse">
<stop stop-color="#EA9E2A"/>
<stop offset="1" stop-color="#E1B965"/>
</linearGradient>
<linearGradient id="paint7_linear_1549_40114" x1="89.7776" y1="22.5186" x2="89.7776" y2="93.561" gradientUnits="userSpaceOnUse">
<stop stop-color="#F3CC74"/>
<stop offset="1" stop-color="#F2B33F"/>
</linearGradient>
<linearGradient id="paint8_linear_1549_40114" x1="-16.6646" y1="56.8584" x2="9.27135" y2="95.0501" gradientUnits="userSpaceOnUse">
<stop stop-color="#F3CC74"/>
<stop offset="0.556" stop-color="#F2BC53"/>
<stop offset="1" stop-color="#BC8821"/>
</linearGradient>
<linearGradient id="paint9_linear_1549_40114" x1="-106.021" y1="52.3064" x2="-102.06" y2="138.521" gradientUnits="userSpaceOnUse">
<stop stop-color="#F3C86C"/>
<stop offset="1" stop-color="#EFBF5F"/>
</linearGradient>
<linearGradient id="paint10_linear_1549_40114" x1="1.08915" y1="93.0099" x2="9.33742" y2="109.186" gradientUnits="userSpaceOnUse">
<stop stop-color="#F2C86B"/>
<stop offset="1" stop-color="#DFA93D"/>
</linearGradient>
<linearGradient id="paint11_linear_1549_40114" x1="-12.5768" y1="194.367" x2="-29.5555" y2="218.151" gradientUnits="userSpaceOnUse">
<stop stop-color="#F3CC74"/>
<stop offset="1" stop-color="#F2B33F"/>
</linearGradient>
<linearGradient id="paint12_linear_1549_40114" x1="28.8896" y1="77.5769" x2="28.8896" y2="99.158" gradientUnits="userSpaceOnUse">
<stop stop-color="#EA9E2A"/>
<stop offset="1" stop-color="#F2C668"/>
</linearGradient>
<linearGradient id="paint13_linear_1549_40114" x1="39.5457" y1="85.6262" x2="39.5457" y2="102.216" gradientUnits="userSpaceOnUse">
<stop stop-color="#EA9E2A"/>
<stop offset="1" stop-color="#E1B965"/>
</linearGradient>
<linearGradient id="paint14_linear_1549_40114" x1="11.5878" y1="22.5186" x2="11.5878" y2="93.561" gradientUnits="userSpaceOnUse">
<stop stop-color="#F3CC74"/>
<stop offset="1" stop-color="#F2B33F"/>
</linearGradient>
</defs>
</svg>
