<svg width="93" height="72" viewBox="0 0 93 72" fill="none" xmlns="http://www.w3.org/2000/svg">
<path d="M37.3231 18.0148C34.5344 18.0148 28.9368 12.3895 26.7235 10.05C27.7974 9.55083 28.2984 8.30301 27.8679 7.19983C27.4374 6.09664 26.2236 5.51801 25.0955 5.87816C23.9674 6.23831 23.3134 7.41321 23.6018 8.56178C23.8901 9.71034 25.0215 10.437 26.186 10.2216L32.8839 30.4819H46.4236V2.19116C46.4236 2.19116 43.7207 18.0148 37.3231 18.0148Z" fill="#818181"/>
<path d="M40.9016 14.5767C39.6461 12.7774 38.4976 10.9058 37.4618 8.97158C38.2506 8.72627 38.7202 7.91773 38.5423 7.11101C38.3644 6.30429 37.5984 5.76819 36.7795 5.87737C35.9607 5.98655 35.3619 6.70463 35.4016 7.52977C35.4413 8.35491 36.1063 9.01219 36.9318 9.04224C36.7185 11.4801 36.1329 13.8709 35.1955 16.1313C35.1955 16.1313 38.0473 19.3592 40.9016 14.5767Z" fill="#818181"/>
<path d="M57.6669 16.1356C56.7297 13.875 56.1442 11.4843 55.9306 9.04647C56.7491 9.01555 57.4078 8.36322 57.4466 7.54501C57.4854 6.72681 56.8914 6.01506 56.0795 5.9068C55.2676 5.79854 54.5079 6.32981 54.331 7.1296C54.154 7.92939 54.6188 8.7315 55.4006 8.97581C54.3647 10.9099 53.2162 12.7815 51.9608 14.581C54.8151 19.3609 57.6669 16.1356 57.6669 16.1356Z" fill="#A1A1A1"/>
<path d="M67.0578 5.88335C66.0367 5.89057 65.1564 6.60309 64.9365 7.60025C64.7167 8.59742 65.2158 9.61406 66.1392 10.05C63.9309 12.3895 58.3359 18.0148 55.5396 18.0148C49.1445 18.0148 46.4315 2.19116 46.4315 2.19116V30.4819H59.9712L66.6692 10.2216C67.4825 10.364 68.3067 10.0364 68.8004 9.37454C69.294 8.71268 69.3731 7.82928 69.0048 7.09029C68.6364 6.35129 67.8835 5.88257 67.0578 5.8783V5.88335Z" fill="#A1A1A1"/>
<path d="M48.6193 2.19033C48.6193 3.07634 48.0856 3.8751 47.267 4.21416C46.4484 4.55322 45.5062 4.36581 44.8797 3.73931C44.2532 3.11281 44.0658 2.1706 44.4049 1.35204C44.7439 0.533473 45.5427 -0.000244141 46.4287 -0.000244141C47.6385 -0.000244141 48.6193 0.980511 48.6193 2.19033Z" fill="#818181"/>
<path d="M50.739 19.9298C46.5241 19.6662 42.295 20.1193 38.2316 21.2699C34.8473 22.673 33.7621 21.9866 31.1652 24.5759C28.5683 27.1652 26.4004 27.7129 24.9998 31.0972C23.5991 34.4815 21.1486 36.9951 21.1486 40.657C21.1486 44.3189 19.7479 46.7593 21.1486 50.1411C22.5492 53.5228 21.3379 55.398 23.9247 57.9898C26.5115 60.5816 29.8327 65.6114 33.2169 67.0146C36.6012 68.4178 36.9697 69.8739 40.6316 69.8739C44.2935 69.8739 50.9182 70.3787 54.3025 68.9805C57.6868 67.5824 58.3228 68.7988 60.9146 66.2045C64.9207 61.2492 68.3569 55.8592 71.1584 50.136C72.559 46.7543 71.1584 47.4407 71.1584 43.7788C70.821 39.9259 69.771 36.1692 68.0618 32.6997C66.5311 29.5809 64.3709 26.8131 61.7172 24.5709C59.1278 21.9815 61.1695 23.6497 57.7852 22.2491C54.4009 20.8484 54.4009 19.9298 50.739 19.9298Z" fill="url(#paint0_linear_1549_40147)"/>
<path fill-rule="evenodd" clip-rule="evenodd" d="M19.9346 44.9659C19.9341 30.4793 31.6769 18.735 46.1635 18.7336C53.1213 18.733 59.7944 21.4967 64.7144 26.4166C69.6344 31.3366 72.3981 38.0097 72.3974 44.9676C72.396 59.4541 60.6517 71.1969 46.1651 71.1965C31.6786 71.196 19.935 59.4524 19.9346 44.9659ZM68.7522 35.6087C64.9679 26.4725 56.0526 20.5155 46.1637 20.5155C32.6674 20.5322 21.7307 31.4689 21.714 44.9652C21.714 54.8542 27.671 63.7694 36.8072 67.5537C45.9434 71.3381 56.4596 69.2463 63.4522 62.2537C70.4447 55.2612 72.5366 44.7449 68.7522 35.6087Z" fill="#333333"/>
<path d="M2.22332 26.5069C2.2637 26.57 2.31922 26.6684 2.38988 26.7946C2.53121 27.047 2.74068 27.4129 2.98043 27.8722C3.22018 28.3315 3.57098 28.864 3.90663 29.4722C4.09675 29.765 4.29696 30.0771 4.50727 30.4085C4.61327 30.57 4.71422 30.7366 4.82021 30.9133C4.92621 31.0899 5.05996 31.2464 5.1811 31.418C5.64042 32.1095 6.19058 32.8086 6.76599 33.5304L7.68462 34.6029C8.0228 34.9487 8.34078 35.3121 8.6941 35.6654L9.2266 36.1878C9.31746 36.2736 9.40326 36.362 9.47897 36.4402C9.55469 36.5184 9.66321 36.6118 9.75406 36.6926C10.1326 37.0307 10.496 37.3841 10.8973 37.702C11.0916 37.8661 11.291 38.0327 11.4853 38.2068L12.1062 38.6787C12.515 38.9992 12.9465 39.2996 13.368 39.5999C13.7895 39.9002 14.2513 40.1677 14.6803 40.4655C15.1094 40.7633 15.5712 41.0131 16.033 41.2579C16.4949 41.5027 16.934 41.7627 17.3933 41.9949C17.8526 42.2271 18.3019 42.4592 18.7486 42.6763C18.9681 42.7898 19.2003 42.8857 19.4224 42.9892L20.0836 43.2946C20.5303 43.4813 20.9568 43.6782 21.3858 43.8523C21.8149 44.0265 22.2262 44.1981 22.6325 44.3571C23.0389 44.5161 23.4326 44.6624 23.8086 44.8063L24.0786 44.9047C24.8105 46.7552 26.237 48.246 28.0535 49.0587C27.8175 50.0235 27.7772 51.0258 27.9348 52.0064L27.8541 52.5112H27.7355L27.3519 52.4733C27.0415 52.4354 26.5948 52.3825 26.0547 52.2966C25.5146 52.2108 24.8458 52.0821 24.1039 51.9055C23.3619 51.7288 22.5265 51.5017 21.6281 51.2266C20.7297 50.9515 19.7681 50.6007 18.7713 50.1843C17.7179 49.7528 16.6869 49.2685 15.6822 48.7332C15.1598 48.4505 14.6248 48.1704 14.1075 47.8398C13.5901 47.5092 13.0576 47.1861 12.5352 46.8303C12.0128 46.4745 11.5106 46.0858 10.9957 45.7123C10.4809 45.3388 9.98624 44.9173 9.51683 44.4807C9.04742 44.0441 8.55277 43.6277 8.11365 43.1533L7.44487 42.4618L6.81394 41.74C5.99558 40.7943 5.25856 39.7812 4.61074 38.7115C4.29023 38.2068 4.02777 37.6516 3.75773 37.1418C3.48769 36.632 3.29337 36.0843 3.07633 35.5796C2.97291 35.3279 2.88278 35.071 2.80629 34.8099C2.72553 34.5575 2.64478 34.3051 2.55392 34.0528C2.47318 33.8125 2.40827 33.5671 2.3596 33.3184C2.3066 33.066 2.2536 32.8389 2.20313 32.6042C2.15265 32.3695 2.10723 32.1448 2.06937 31.9228C2.03151 31.7007 2.0088 31.4761 1.98609 31.2615C1.94571 30.83 1.88514 30.4312 1.87252 30.0476C1.8599 29.664 1.87252 29.3082 1.87252 28.9801C1.86677 28.6803 1.87772 28.3803 1.90533 28.0817C1.96085 27.5366 2.02394 27.1151 2.06685 26.8198C2.08704 26.6785 2.1047 26.5674 2.11984 26.4968L2.14256 26.3857L2.2006 26.4867" fill="url(#paint1_linear_1549_40147)"/>
<path d="M1.26438 44.4026C1.66312 44.5641 2.13758 44.7559 2.6827 44.9528C3.22782 45.1496 3.83351 45.3642 4.4922 45.5686C5.15089 45.773 5.86005 45.9825 6.60707 46.1717C7.35408 46.361 8.13391 46.5377 8.93645 46.7017C9.34024 46.78 9.74403 46.8582 10.1579 46.9238C10.3649 46.9566 10.5693 46.997 10.7788 47.0298C10.9882 47.0626 11.1977 47.0803 11.4072 47.1156C12.24 47.2418 13.0955 47.3226 13.9309 47.4008L14.5694 47.4361C14.7814 47.4538 14.9908 47.474 15.2028 47.4765C15.6293 47.4765 16.0457 47.5144 16.4647 47.5144C16.8836 47.5144 17.295 47.5396 17.7063 47.5144C18.1177 47.4891 18.5215 47.5144 18.9228 47.4942L20.1013 47.4538C20.49 47.421 20.8584 47.4084 21.2345 47.3882C21.9714 47.3251 22.6705 47.2948 23.3216 47.2267C23.6446 47.1939 23.9576 47.1686 24.2554 47.1484C24.5531 47.1282 24.8358 47.0828 25.1008 47.0626L25.3708 47.0374C26.1056 47.9071 27.0292 48.5976 28.0712 49.0563C27.7473 50.3895 27.7945 51.7859 28.2075 53.0943L27.8491 53.2205C27.4251 53.3719 26.9027 53.5183 26.2945 53.6722C25.6863 53.8262 24.9973 53.9826 24.2352 54.1139L23.6598 54.2325L23.0465 54.3082C22.6301 54.3536 22.1985 54.4192 21.7518 54.4445C21.3051 54.4697 20.8458 54.505 20.3764 54.5202C19.907 54.5353 19.4224 54.5202 18.9328 54.5202C18.4433 54.5202 17.941 54.4697 17.4338 54.447C16.9265 54.4243 16.4243 54.3385 15.9044 54.2804C14.8649 54.1394 13.8344 53.9389 12.8179 53.6798C12.3132 53.5385 11.8084 53.3971 11.3037 53.2381C10.7989 53.0791 10.3093 52.9 9.83236 52.6981C8.89106 52.3171 7.97628 51.8736 7.09414 51.3706C6.27527 50.8982 5.49019 50.3694 4.74457 49.7882C4.07774 49.2736 3.44935 48.711 2.86441 48.1049C2.36919 47.6 1.90882 47.0621 1.48646 46.4948C1.16202 46.0582 0.864514 45.6023 0.595595 45.1295C0.357244 44.7191 0.157842 44.2874 0 43.8398C0 43.8398 0.466886 44.067 1.26185 44.3875" fill="url(#paint2_linear_1549_40147)"/>
<path d="M6.38016 53.8907C6.73096 53.9109 7.15494 53.9261 7.64202 53.9387C8.12909 53.9513 8.6515 53.9538 9.22186 53.9387C11.8677 53.9261 14.4996 53.5542 17.0454 52.8333L17.5349 52.6844L18.017 52.5128C18.3375 52.4068 18.6504 52.2831 18.9608 52.157C19.5766 51.9046 20.1697 51.632 20.7274 51.3443C21.0151 51.2181 21.2776 51.044 21.5451 50.9052C21.8126 50.7664 22.065 50.6074 22.3022 50.4585L22.6707 50.2389L23.0164 50.0093C23.2436 49.8553 23.4707 49.7241 23.6777 49.5752C24.0865 49.2724 24.4827 49.025 24.8083 48.7626C25.1338 48.5001 25.4442 48.3108 25.6714 48.1115C25.843 47.9726 25.9894 47.8591 26.108 47.7708C26.553 48.1708 27.0434 48.5172 27.5692 48.8029L28.0285 49.3077C27.7201 50.8156 27.8785 52.3818 28.4828 53.7974C28.084 54.1154 27.597 54.4258 27.0821 54.774C26.802 54.9507 26.4966 55.1223 26.1913 55.299L25.7118 55.5665L25.207 55.8189C24.488 56.1754 23.748 56.4881 22.9912 56.7551C22.1834 57.0441 21.3571 57.2785 20.518 57.4567C20.0915 57.5476 19.6599 57.6384 19.2233 57.694L18.5646 57.7848L17.9059 57.8429C17.0361 57.9123 16.1627 57.9241 15.2914 57.8782C14.458 57.8325 13.6289 57.727 12.8106 57.5627C12.4143 57.4921 12.0307 57.3886 11.6547 57.2977C11.2787 57.2069 10.9203 57.0933 10.5796 56.9646C9.93288 56.7439 9.3007 56.4826 8.68683 56.1823C8.1726 55.9295 7.67296 55.6481 7.19027 55.3393C6.81998 55.1013 6.46278 54.8435 6.12022 54.5671C5.89847 54.3917 5.68618 54.2047 5.48425 54.0068C5.41064 53.9382 5.34071 53.8658 5.27478 53.7898C5.27478 53.7898 5.69372 53.8302 6.39278 53.8731" fill="url(#paint3_linear_1549_40147)"/>
<path d="M14.5444 61.3069C14.6882 61.2564 14.8952 61.1706 15.1475 61.0696C15.3999 60.9687 15.7002 60.84 16.0308 60.6583C16.3614 60.4766 16.7173 60.2949 17.0933 60.0904C17.2801 59.9794 17.4693 59.8532 17.6637 59.7346L17.9564 59.5554L18.2466 59.3409C18.4435 59.2021 18.6403 59.0683 18.8372 58.922C19.034 58.7756 19.2233 58.6014 19.4227 58.45C19.6242 58.2932 19.8163 58.1247 19.9981 57.9453C20.1874 57.7711 20.3817 57.6046 20.5659 57.4178C20.7502 57.2311 20.9192 57.0241 21.0959 56.8298L21.3483 56.5396C21.4366 56.4412 21.5098 56.3251 21.6006 56.2216C21.9322 55.8127 22.2406 55.3855 22.5243 54.9421C22.6657 54.72 22.8019 54.5004 22.9433 54.2884C23.0089 54.1799 23.0846 54.084 23.1452 53.9679L23.3243 53.6297C23.559 53.1805 23.8013 52.7717 24.0057 52.3679C24.2102 51.9641 24.3793 51.5401 24.5534 51.1742C24.6392 50.9925 24.7326 50.8209 24.8058 50.6492C24.8789 50.4776 24.937 50.306 24.9976 50.1445L25.3256 49.342C25.5174 48.9028 25.6335 48.6555 25.6335 48.6555L27.9654 49.6019C27.6925 51.2855 27.9919 53.0121 28.8159 54.5055C28.8639 54.7099 28.9169 54.9143 28.98 55.1112C28.932 55.1843 28.8891 55.255 28.8386 55.3257C28.4979 55.8052 28.0815 56.2822 27.6752 56.7844C26.7817 57.817 25.7771 58.748 24.6796 59.5605C24.5382 59.6639 24.407 59.775 24.2581 59.8683L23.8089 60.1485C23.5086 60.3327 23.2108 60.5144 22.918 60.686C22.6253 60.8576 22.2947 60.9889 21.9918 61.1327C21.6945 61.2815 21.3866 61.408 21.0707 61.5113C20.7603 61.6198 20.4498 61.7081 20.152 61.8015C19.8542 61.8949 19.5413 61.9277 19.2511 61.9883L18.8195 62.0614C18.6757 62.0741 18.5318 62.0892 18.393 62.0968C18.1104 62.1094 17.8479 62.1372 17.588 62.1321C17.1218 62.1276 16.6568 62.0854 16.1974 62.0059C15.8473 61.9448 15.5016 61.8605 15.1627 61.7536C14.9463 61.6831 14.7347 61.5988 14.5292 61.5012C14.4555 61.4683 14.3846 61.4295 14.3172 61.3851L14.5444 61.3069Z" fill="url(#paint4_linear_1549_40147)"/>
<path d="M19.1499 63.7192C19.2357 63.6612 19.3316 63.5779 19.4325 63.5072C19.5335 63.4365 19.6395 63.3583 19.7505 63.2548C19.8615 63.1514 19.9776 63.0656 20.0962 62.9747L20.4647 62.6618C20.7171 62.4573 20.9694 62.1974 21.2218 61.9677C21.348 61.8315 21.4742 61.7154 21.6029 61.5766L21.7947 61.3848L21.9764 61.1753C22.095 61.0314 22.2288 60.9053 22.3423 60.769C22.4559 60.6327 22.572 60.4762 22.6856 60.3324C22.7436 60.2617 22.7991 60.1911 22.8597 60.1254C22.9203 60.0598 22.9632 59.9715 23.0162 59.8958C23.1196 59.7469 23.2181 59.5955 23.3266 59.4541C23.4351 59.3128 23.5108 59.1412 23.6017 58.9898L23.8717 58.5431C23.9449 58.3816 24.0206 58.2251 24.0988 58.0737C24.2452 57.8491 24.3865 57.6219 24.5178 57.3948C24.649 57.1677 24.7701 56.9355 24.8938 56.7033C25.7503 54.736 26.4959 52.7223 27.1273 50.6716C28.7904 51.9082 27.9702 54.3966 29.4365 56.2591C29.5198 56.4333 29.6131 56.5973 29.709 56.7639C30.002 57.2561 30.349 57.7141 30.7438 58.1292L30.5923 58.4371C30.4005 58.798 30.2138 59.1942 29.9589 59.5904C29.704 59.9866 29.4012 60.393 29.0907 60.8018C28.7803 61.2106 28.374 61.5917 27.9929 61.9753C27.6118 62.3589 27.1475 62.6971 26.6957 63.0176C26.4661 63.1716 26.2238 63.3154 25.9916 63.4593C25.8755 63.5299 25.7594 63.6031 25.6408 63.6712C25.5222 63.7394 25.3885 63.7924 25.2698 63.8479C25.0175 63.9615 24.7828 64.075 24.5405 64.176C24.2982 64.2769 24.0357 64.3426 23.7985 64.4284C23.3334 64.5632 22.8583 64.6611 22.3777 64.7211C21.951 64.766 21.5216 64.7786 21.0931 64.759C20.4593 64.7318 19.8324 64.6163 19.2306 64.4157C19.0583 64.359 18.8898 64.2916 18.7259 64.2138C18.6684 64.1889 18.6135 64.1584 18.5618 64.123C18.5618 64.123 18.7864 63.9741 19.1322 63.7242" fill="url(#paint5_linear_1549_40147)"/>
<path d="M32.9849 59.7595C32.9648 59.9185 32.942 60.0775 32.9168 60.2415C32.8285 60.615 32.725 60.9986 32.6089 61.3974C32.549 61.6022 32.4756 61.8029 32.3893 61.998C32.3061 62.1999 32.2177 62.4018 32.137 62.6012C32.0456 62.8064 31.9394 63.0046 31.819 63.1943L31.4682 63.7722C31.342 63.959 31.1906 64.1381 31.0543 64.3123C30.9202 64.4901 30.7743 64.6587 30.6177 64.817C30.3183 65.1296 29.9895 65.4127 29.636 65.6625C29.3144 65.8963 28.9703 66.0976 28.6088 66.2631C28.4448 66.3404 28.2762 66.4078 28.1041 66.465C27.9468 66.5243 27.7858 66.5732 27.6221 66.6114C27.3413 66.6856 27.0539 66.7321 26.764 66.7502C26.5423 66.7694 26.3194 66.7694 26.0977 66.7502C25.9534 66.7411 25.8099 66.7209 25.6687 66.6896C25.619 66.6822 25.57 66.6704 25.5223 66.6543C25.5223 66.6543 25.646 66.4751 25.8227 66.1849C25.8706 66.1142 25.9135 66.0259 25.9615 65.9325C26.0179 65.8438 26.0693 65.7519 26.1154 65.6574L26.2744 65.3495L26.4283 65.0088C26.5318 64.7766 26.6277 64.5243 26.7186 64.2744C26.7564 64.1432 26.7993 64.0221 26.8422 63.8883C26.8851 63.7545 26.9104 63.6233 26.9457 63.4921C27.0239 63.2397 27.0542 62.957 27.1098 62.7047C27.1653 62.4523 27.1779 62.1747 27.2006 61.9198V61.5286C27.5842 59.7847 26.9482 57.5084 27.988 56.4812C29.2246 54.8181 30.4789 57.3014 31.4026 58.7525C31.5616 58.8888 31.7256 59.0049 31.8947 59.1336C32.2392 59.3744 32.603 59.5863 32.9824 59.7671" fill="url(#paint6_linear_1549_40147)"/>
<path d="M8.38112 14.7214C8.51487 15.1681 8.63349 15.6097 8.72686 16.0463C8.77986 16.2659 8.82781 16.4829 8.87324 16.6999L9.04485 17.3435C9.15589 17.77 9.25937 18.194 9.35527 18.6053C9.45117 19.0167 9.60764 19.4407 9.70606 19.8546L9.8701 20.4754L10.0619 21.0861C10.1931 21.4925 10.2966 21.9013 10.4278 22.3001C10.7105 23.1001 10.9326 23.9026 11.248 24.6824C11.5004 25.4749 11.8487 26.2421 12.1642 27.0093C12.4796 27.7765 12.8355 28.5235 13.2317 29.2655C13.5825 30.0226 14.0115 30.7343 14.3951 31.4712C14.8191 32.1905 15.2305 32.9122 15.6797 33.6164L16.0103 34.1489L16.3586 34.6687C16.5907 35.0145 16.8078 35.3729 17.0551 35.7136L17.7819 36.7407L18.539 37.7502C19.0438 38.4139 19.5788 39.0751 20.1315 39.7136C20.4015 40.0392 20.6817 40.3547 20.9618 40.6701C21.2419 40.9856 21.5221 41.301 21.8123 41.6115C22.1025 41.9219 22.3852 42.2373 22.6754 42.5478C22.9656 42.8582 23.2558 43.1686 23.5536 43.4714C24.1492 44.0771 24.7398 44.6954 25.353 45.286L26.2717 46.1819L27.2029 47.0677L28.1417 47.9434L29.5828 48.9655L29.5676 50.1643C29.5676 50.394 29.5424 50.611 29.5197 50.823C29.497 51.035 29.5197 51.2545 29.4945 51.4665V52.0975L29.5449 52.7208C29.5702 52.9252 29.6105 53.1322 29.6408 53.3366C29.6711 53.541 29.7468 53.7379 29.7948 53.9372L30.0042 54.5227L30.2566 55.083L30.5721 55.6155C30.6983 55.7796 30.8093 55.9512 30.9279 56.1203C31.0465 56.2893 31.1954 56.4332 31.3317 56.5846C31.468 56.736 31.627 56.8723 31.7784 57.0086C31.9298 57.1449 32.0989 57.261 32.263 57.3872C32.427 57.5133 32.6087 57.6193 32.7677 57.7228C32.9267 57.8263 33.0731 57.8894 33.2523 57.9752L33.9614 58.2705L32.8636 61.1121L32.1393 60.8598C31.8541 60.7336 31.5412 60.5796 31.2484 60.4333C30.9557 60.2869 30.721 60.1102 30.456 59.9487C30.191 59.7872 29.9689 59.5702 29.7266 59.3809C29.4844 59.1916 29.2799 58.9594 29.0578 58.7449C28.8358 58.5304 28.6541 58.2806 28.4547 58.0458C28.2553 57.8111 28.0963 57.5411 27.9247 57.2887C27.7531 57.0364 27.6244 56.7537 27.478 56.4811C27.3316 56.2086 27.2256 55.9209 27.1146 55.6357C27.0036 55.3505 26.9253 55.0527 26.842 54.76C26.7588 54.4672 26.7083 54.1619 26.6578 53.8615C26.6073 53.5612 26.5821 53.2558 26.5619 52.9505C26.5417 52.6451 26.5619 52.3397 26.5619 52.0369C26.5619 51.7341 26.6275 51.4287 26.6856 51.1334C26.7487 50.881 26.8143 50.6287 26.89 50.3763C26.7663 50.3132 26.6376 50.2501 26.519 50.182C26.1127 49.9675 25.7215 49.7353 25.3303 49.498C24.5429 49.0312 23.7934 48.5138 23.059 47.9838C22.6931 47.7113 22.3246 47.4437 21.9662 47.1636L21.4236 46.7447L20.8987 46.3056C20.5471 46.0145 20.2013 45.7167 19.8615 45.4122C19.5132 45.1169 19.1826 44.8014 18.852 44.486L18.3472 44.0115L17.8677 43.5194C17.5447 43.1938 17.2267 42.8657 16.9213 42.5099C16.298 41.8386 15.6999 41.1421 15.1118 40.4354L14.2462 39.3603L13.421 38.2499C13.1434 37.8814 12.8935 37.4928 12.6285 37.1117C12.3635 36.7306 12.1238 36.3394 11.8714 35.9407C11.3667 35.1634 10.9427 34.3356 10.5036 33.5205C10.0644 32.7053 9.70101 31.8447 9.35779 30.9766C9.18365 30.5475 9.01457 30.1135 8.86819 29.6693C8.72182 29.2251 8.56282 28.791 8.42402 28.3469C8.17165 27.4459 7.91928 26.555 7.74767 25.6389C7.56137 24.7294 7.42572 23.8102 7.34135 22.8856C7.30602 22.4237 7.29087 21.9594 7.27826 21.495L7.26059 20.8035L7.29087 20.1095C7.31863 19.6451 7.34387 19.1883 7.38677 18.7315C7.42968 18.2747 7.52306 17.8179 7.59877 17.3662C7.64419 17.1416 7.677 16.9145 7.72748 16.6924C7.77795 16.4703 7.84357 16.2457 7.90666 16.0236C8.03284 15.5794 8.15903 15.1403 8.32055 14.7087" fill="url(#paint7_linear_1549_40147)"/>
<path d="M89.8113 26.5071C89.7709 26.5702 89.7154 26.6686 89.6447 26.7948C89.5034 27.0472 89.294 27.4131 89.0542 27.8724C88.8144 28.3318 88.4637 28.8643 88.128 29.4725C87.9379 29.7652 87.7377 30.0773 87.5274 30.4088C87.4214 30.5703 87.3204 30.7369 87.2144 30.9135C87.1084 31.0902 86.9747 31.2466 86.8535 31.4183C86.3942 32.1098 85.844 32.8088 85.2686 33.5306L84.35 34.6032C84.0118 34.9489 83.6938 35.3123 83.3405 35.6657L82.808 36.1881C82.7172 36.2739 82.6314 36.3622 82.5557 36.4404C82.4799 36.5187 82.3714 36.612 82.2806 36.6928C81.902 37.031 81.5386 37.3843 81.1373 37.7023C80.943 37.8663 80.7436 38.0329 80.5493 38.207L79.9285 38.679C79.5196 38.9995 79.0881 39.2998 78.6666 39.6001C78.2452 39.9004 77.7833 40.168 77.3543 40.4657C76.9253 40.7635 76.4634 41.0134 76.0016 41.2582C75.5397 41.503 75.1006 41.7629 74.6413 41.9951C74.182 42.2273 73.7328 42.4595 73.2861 42.6765C73.0665 42.7901 72.8343 42.886 72.6122 42.9895L71.951 43.2948C71.5043 43.4816 71.0778 43.6784 70.6488 43.8526C70.2198 44.0267 69.8084 44.1983 69.4021 44.3573C68.9958 44.5163 68.6021 44.6627 68.226 44.8065L67.956 44.9049C67.2242 46.7554 65.7976 48.2463 63.9812 49.059C64.2171 50.0238 64.2575 51.026 64.0998 52.0067L64.1805 52.5114H64.2992L64.6828 52.4735C64.9932 52.4357 65.4399 52.3827 65.9799 52.2969C66.52 52.2111 67.1888 52.0824 67.9308 51.9057C68.6727 51.7291 69.5081 51.5019 70.4065 51.2268C71.305 50.9518 72.2665 50.601 73.2634 50.1845C74.3168 49.7531 75.3478 49.2687 76.3524 48.7334C76.8748 48.4508 77.4098 48.1706 77.9272 47.84C78.4445 47.5094 78.977 47.1864 79.4994 46.8305C80.0219 46.4747 80.5241 46.086 81.0389 45.7125C81.5537 45.339 82.0484 44.9176 82.5178 44.481C82.9872 44.0444 83.4819 43.628 83.921 43.1535L84.5898 42.462L85.2207 41.7402C86.039 40.7946 86.7761 39.7815 87.4239 38.7118C87.7444 38.207 88.0069 37.6518 88.2769 37.142C88.5469 36.6322 88.7413 36.0846 88.9583 35.5799C89.0617 35.3282 89.1519 35.0712 89.2283 34.8101C89.3091 34.5578 89.3899 34.3054 89.4807 34.053C89.5614 33.8127 89.6264 33.5674 89.675 33.3186C89.728 33.0662 89.781 32.8391 89.834 32.6044C89.887 32.3697 89.9299 32.1451 89.9678 31.923C90.0056 31.7009 90.0284 31.4763 90.0511 31.2618C90.0914 30.8302 90.152 30.4315 90.1646 30.0479C90.1773 29.6643 90.1646 29.3084 90.1646 28.9804C90.1704 28.6805 90.1594 28.3806 90.1318 28.0819C90.0763 27.5368 90.0132 27.1153 89.9703 26.8201C89.9501 26.6787 89.9325 26.5677 89.9173 26.497L89.8946 26.386L89.8365 26.4869" fill="url(#paint8_linear_1549_40147)"/>
<path d="M90.7826 44.4031C90.3838 44.5646 89.9094 44.7564 89.3643 44.9533C88.8191 45.1501 88.2134 45.3647 87.5548 45.5691C86.8961 45.7735 86.1869 45.983 85.4399 46.1722C84.6929 46.3615 83.913 46.5382 83.1105 46.7022C82.7067 46.7805 82.3029 46.8587 81.889 46.9243C81.6821 46.9571 81.4777 46.9975 81.2682 47.0303C81.0587 47.0631 80.8493 47.0808 80.6398 47.1161C79.807 47.2423 78.9514 47.3231 78.1161 47.4013L77.4776 47.4366C77.2656 47.4543 77.0561 47.4745 76.8441 47.477C76.4176 47.477 76.0012 47.5149 75.5823 47.5149C75.1634 47.5149 74.752 47.5401 74.3406 47.5149C73.9293 47.4896 73.5255 47.5149 73.1242 47.4947L71.9456 47.4543C71.557 47.4215 71.1885 47.4089 70.8125 47.3887C70.0756 47.3256 69.3765 47.2953 68.7254 47.2272C68.4023 47.1943 68.0894 47.1691 67.7916 47.1489C67.4938 47.1287 67.2112 47.0833 66.9462 47.0631L66.6761 47.0379C65.9414 47.9076 65.0178 48.5981 63.9758 49.0568C64.2996 50.39 64.2525 51.7864 63.8395 53.0948L64.1978 53.221C64.6218 53.3724 65.1442 53.5188 65.7524 53.6727C66.3607 53.8266 67.0496 53.9831 67.8118 54.1143L68.3973 54.2178L69.0106 54.2935C69.427 54.339 69.8585 54.4046 70.3052 54.4298C70.7519 54.4551 71.2112 54.4904 71.6806 54.5055C72.15 54.5207 72.6346 54.5055 73.1242 54.5055C73.6138 54.5055 74.116 54.4551 74.6233 54.4323C75.1305 54.4096 75.6328 54.3238 76.1526 54.2658C77.1921 54.1248 78.2226 53.9242 79.2391 53.6651C79.7439 53.5238 80.2486 53.3825 80.7534 53.2235C81.2581 53.0645 81.7477 52.8853 82.2247 52.6834C83.166 52.3024 84.0808 51.8589 84.9629 51.3559C85.7818 50.8835 86.5669 50.3548 87.3125 49.7736C87.9793 49.2589 88.6077 48.6963 89.1926 48.0903C89.6879 47.5853 90.1482 47.0474 90.5706 46.4801C90.895 46.0436 91.1925 45.5876 91.4615 45.1148C91.6998 44.7045 91.8992 44.2727 92.057 43.8252C92.057 43.8252 91.5902 44.0523 90.7952 44.3728" fill="url(#paint9_linear_1549_40147)"/>
<path d="M85.6648 53.891C85.314 53.9112 84.89 53.9263 84.403 53.9389C83.9159 53.9516 83.3935 53.9541 82.8231 53.9389C80.1773 53.9263 77.5454 53.5544 74.9996 52.8336L74.51 52.6847L74.028 52.513C73.7075 52.407 73.3946 52.2834 73.0841 52.1572C72.4684 51.9048 71.8753 51.6323 71.3175 51.3446C71.0298 51.2184 70.7674 51.0442 70.4999 50.9054C70.2324 50.7666 69.98 50.6076 69.7428 50.4587L69.3743 50.2392L69.0285 50.0095C68.8014 49.8556 68.5743 49.7243 68.3673 49.5754C67.9585 49.2726 67.5623 49.0253 67.2367 48.7628C66.9112 48.5003 66.6007 48.3111 66.3736 48.1117C66.202 47.9729 66.0556 47.8593 65.937 47.771C65.492 48.171 65.0015 48.5175 64.4758 48.8032L64.0165 49.3079C64.3249 50.8159 64.1665 52.382 63.5622 53.7976C63.9609 54.1156 64.448 54.426 64.9629 54.7743C65.243 54.9509 65.5484 55.1226 65.8537 55.2992L66.3332 55.5667L66.838 55.8191C67.557 56.1757 68.2969 56.4883 69.0538 56.7554C69.8616 57.0443 70.6878 57.2787 71.527 57.457C71.9535 57.5478 72.3851 57.6387 72.8217 57.6942L73.4804 57.7851L74.1391 57.8431C75.0088 57.9126 75.8823 57.9244 76.7536 57.8784C77.587 57.8327 78.4161 57.7273 79.2344 57.563C79.6306 57.4923 80.0142 57.3888 80.3903 57.298C80.7663 57.2071 81.1247 57.0936 81.4654 56.9649C82.1121 56.7441 82.7443 56.4828 83.3582 56.1825C83.8724 55.9298 84.372 55.6484 84.8547 55.3396C85.225 55.1016 85.5822 54.8438 85.9248 54.5673C86.1465 54.392 86.3588 54.205 86.5607 54.0071C86.6343 53.9385 86.7043 53.866 86.7702 53.79C86.7702 53.79 86.3513 53.8304 85.6522 53.8733" fill="url(#paint10_linear_1549_40147)"/>
<path d="M77.503 61.3071C77.3592 61.2566 77.1523 61.1708 76.8999 61.0699C76.6475 60.9689 76.3472 60.8402 76.0166 60.6585C75.686 60.4768 75.3301 60.2951 74.9541 60.0907C74.7674 59.9796 74.5781 59.8534 74.3837 59.7348L74.091 59.5557L73.8008 59.3411C73.6039 59.2023 73.4071 59.0686 73.2102 58.9222C73.0134 58.7758 72.8241 58.6017 72.6247 58.4503C72.4232 58.2934 72.2311 58.1249 72.0493 57.9455C71.86 57.7714 71.6657 57.6048 71.4815 57.4181C71.2973 57.2313 71.1282 57.0244 70.9515 56.83L70.6991 56.5398C70.6108 56.4414 70.5376 56.3253 70.4468 56.2218C70.1152 55.8129 69.8068 55.3857 69.5231 54.9423C69.3818 54.7202 69.2455 54.5007 69.1042 54.2887C69.0385 54.1802 68.9628 54.0843 68.9023 53.9682L68.7231 53.63C68.4884 53.1808 68.2461 52.7719 68.0417 52.3681C67.8373 51.9643 67.6682 51.5404 67.494 51.1744C67.4082 50.9927 67.3148 50.8211 67.2417 50.6495C67.1685 50.4779 67.1104 50.3063 67.0499 50.1447L66.7218 49.3422C66.53 48.9031 66.4139 48.6558 66.4139 48.6558L64.082 49.6022C64.355 51.2858 64.0555 53.0123 63.2315 54.5057C63.1835 54.7101 63.1305 54.9146 63.0674 55.1114C63.1154 55.1846 63.1583 55.2553 63.2088 55.3259C63.5495 55.8054 63.9659 56.2824 64.3722 56.7846C65.2657 57.8172 66.2703 58.7482 67.3678 59.5607C67.5092 59.6642 67.6404 59.7752 67.7893 59.8686L68.2385 60.1487C68.5388 60.333 68.8366 60.5147 69.1294 60.6863C69.4221 60.8579 69.7527 60.9891 70.0556 61.133C70.3529 61.2817 70.6608 61.4083 70.9767 61.5115C71.2872 61.62 71.5976 61.7084 71.8954 61.8018C72.1932 61.8951 72.5061 61.9279 72.7963 61.9885L73.2279 62.0617C73.3717 62.0743 73.5156 62.0895 73.6544 62.097C73.9371 62.1096 74.1995 62.1374 74.4595 62.1324C74.9256 62.1279 75.3907 62.0857 75.85 62.0062C76.2001 61.9451 76.5458 61.8608 76.8847 61.7538C77.1011 61.6834 77.3127 61.5991 77.5182 61.5014C77.5919 61.4686 77.6628 61.4297 77.7302 61.3853L77.503 61.3071Z" fill="url(#paint11_linear_1549_40147)"/>
<path d="M72.8945 63.7193C72.8087 63.6612 72.7128 63.5779 72.6118 63.5073C72.5109 63.4366 72.4049 63.3584 72.2939 63.2549C72.1828 63.1514 72.0667 63.0656 71.9481 62.9748L71.5696 62.6669C71.3172 62.4625 71.0648 62.2025 70.8124 61.9729C70.6863 61.8366 70.5601 61.7205 70.4314 61.5817L70.2396 61.3899L70.0579 61.1804C69.9392 61.0366 69.8055 60.9104 69.6919 60.7741C69.5784 60.6378 69.4623 60.4814 69.3487 60.3375C69.2906 60.2668 69.2351 60.1962 69.1746 60.1306C69.114 60.0649 69.0711 59.9766 69.0181 59.9009C68.9146 59.752 68.8162 59.6006 68.7077 59.4593C68.5992 59.3179 68.5234 59.1463 68.4326 58.9949L68.1626 58.5482C68.0894 58.3867 68.0137 58.2302 67.9354 58.0788C67.789 57.8542 67.6477 57.627 67.5165 57.3999C67.3852 57.1728 67.2641 56.9406 67.1405 56.7084C66.284 54.7411 65.5383 52.7274 64.907 50.6768C63.2438 51.9134 64.0641 54.4017 62.5978 56.2642C62.5145 56.4384 62.4211 56.6024 62.3252 56.769C62.0323 57.2612 61.6852 57.7192 61.2905 58.1343L61.4419 58.4422C61.6337 58.8031 61.8205 59.1993 62.0754 59.5955C62.3303 59.9918 62.6331 60.3981 62.9435 60.8069C63.2539 61.2158 63.6603 61.5968 64.0413 61.9804C64.4224 62.364 64.8868 62.7022 65.3385 63.0227C65.5682 63.1767 65.8105 63.3205 66.0426 63.4644C66.1587 63.535 66.2748 63.6082 66.3934 63.6764C66.512 63.7445 66.6458 63.7975 66.7644 63.853C67.0168 63.9666 67.2515 64.0802 67.4938 64.1811C67.736 64.2821 67.9985 64.3477 68.2357 64.4335C68.7009 64.5683 69.176 64.6662 69.6566 64.7262C70.0832 64.7711 70.5126 64.7838 70.9412 64.7641C71.5749 64.7369 72.2018 64.6214 72.8036 64.4209C72.9759 64.3641 73.1445 64.2967 73.3084 64.219C73.3658 64.194 73.4208 64.1636 73.4724 64.1281C73.4724 64.1281 73.2478 63.9792 72.9021 63.7294" fill="url(#paint12_linear_1549_40147)"/>
<path d="M59.057 59.7598C59.0772 59.9187 59.0999 60.0777 59.1251 60.2418C59.2135 60.6153 59.3169 60.9989 59.433 61.3976C59.493 61.6025 59.5663 61.8031 59.6526 61.9983C59.7359 62.2002 59.8242 62.4021 59.905 62.6014C59.9963 62.8067 60.1026 63.0049 60.223 63.1945L60.5738 63.7724C60.6999 63.9592 60.8514 64.1384 60.9876 64.3125C61.1218 64.4903 61.2676 64.6589 61.4242 64.8173C61.7237 65.1299 62.0524 65.413 62.406 65.6627C62.7275 65.8966 63.0716 66.0978 63.4331 66.2633C63.5972 66.3407 63.7657 66.4081 63.9379 66.4652C64.0951 66.5246 64.2562 66.5734 64.4199 66.6116C64.7007 66.6859 64.9881 66.7324 65.2779 66.7504C65.4996 66.7697 65.7225 66.7697 65.9442 66.7504C66.0886 66.7414 66.232 66.7211 66.3732 66.6899C66.423 66.6825 66.472 66.6706 66.5196 66.6545C66.5196 66.6545 66.3959 66.4753 66.2193 66.1851C66.1713 66.1144 66.1284 66.0261 66.0805 65.9327C66.0241 65.844 65.9727 65.7522 65.9265 65.6577L65.7675 65.3498L65.6136 65.0091C65.5101 64.7769 65.4142 64.5245 65.3234 64.2747C65.2855 64.1434 65.2426 64.0223 65.1997 63.8885C65.1568 63.7548 65.1316 63.6235 65.0962 63.4923C65.018 63.2399 64.9877 62.9573 64.9322 62.7049C64.8767 62.4525 64.8641 62.1749 64.8413 61.92V61.5289C64.4577 59.785 65.0937 57.5086 64.0539 56.4815C62.8173 54.8183 61.563 57.3017 60.6394 58.7528C60.4829 58.8891 60.3163 59.0052 60.1472 59.1339C59.8028 59.3747 59.439 59.5866 59.0595 59.7673" fill="url(#paint13_linear_1549_40147)"/>
<path d="M83.6582 14.7214C83.5245 15.1681 83.4058 15.6097 83.3125 16.0463C83.2595 16.2659 83.2115 16.4829 83.1661 16.6999L82.9945 17.3435C82.8834 17.77 82.78 18.194 82.6841 18.6053C82.5882 19.0167 82.4317 19.4407 82.3333 19.8546L82.1692 20.4754L81.9774 21.0861C81.8462 21.4925 81.7427 21.9013 81.6115 22.3001C81.3288 23.1001 81.1067 23.9026 80.7913 24.6824C80.5389 25.4749 80.1906 26.2421 79.8752 27.0093C79.5597 27.7765 79.2039 28.5235 78.8076 29.2655C78.4568 30.0226 78.0278 30.7343 77.6442 31.4712C77.2202 32.1905 76.8089 32.9122 76.3596 33.6164L76.029 34.1489L75.6808 34.6687C75.4486 35.0145 75.2316 35.3729 74.9842 35.7136L74.2574 36.7407L73.5003 37.7502C72.9955 38.4139 72.4605 39.0751 71.9078 39.7136C71.6378 40.0392 71.3577 40.3547 71.0775 40.6701C70.7974 40.9856 70.5173 41.301 70.227 41.6115C69.9368 41.9219 69.6542 42.2373 69.3639 42.5478C69.0737 42.8582 68.7835 43.1686 68.4857 43.4714C67.8901 44.0771 67.2995 44.6954 66.6863 45.286L65.7676 46.1819L64.8364 47.0677L63.8976 47.9434L62.4565 48.9655L62.4717 50.1643C62.4717 50.394 62.4969 50.611 62.5196 50.823C62.5423 51.035 62.5196 51.2545 62.5449 51.4665V52.0975L62.4944 52.7208C62.4692 52.9252 62.4288 53.1322 62.3985 53.3366C62.3682 53.541 62.2925 53.7379 62.2446 53.9372L62.0351 54.5227L61.7827 55.083L61.4673 55.6155C61.3411 55.7796 61.23 55.9512 61.1114 56.1203C60.9928 56.2893 60.8439 56.4332 60.7076 56.5846C60.5713 56.736 60.4123 56.8723 60.2609 57.0086C60.1095 57.1449 59.9404 57.261 59.7764 57.3872C59.6123 57.5133 59.4306 57.6193 59.2716 57.7228C59.1126 57.8263 58.9663 57.8894 58.7871 57.9752L58.0779 58.2705L59.1757 61.1121L59.9 60.8598C60.1852 60.7336 60.4981 60.5796 60.7909 60.4333C61.0836 60.2869 61.3184 60.1102 61.5833 59.9487C61.8483 59.7872 62.0704 59.5702 62.3127 59.3809C62.555 59.1916 62.7594 58.9594 62.9815 58.7449C63.2036 58.5304 63.3853 58.2806 63.5846 58.0458C63.784 57.8111 63.943 57.5411 64.1146 57.2887C64.2862 57.0364 64.4149 56.7537 64.5613 56.4811C64.7077 56.2086 64.8137 55.9209 64.9247 55.6357C65.0358 55.3505 65.114 55.0527 65.1973 54.76C65.2806 54.4672 65.331 54.1619 65.3815 53.8615C65.432 53.5612 65.4572 53.2558 65.4774 52.9505C65.4976 52.6451 65.4774 52.3397 65.4774 52.0369C65.4774 51.7341 65.4118 51.4287 65.3538 51.1334C65.2907 50.881 65.2251 50.6287 65.1493 50.3763C65.273 50.3132 65.4017 50.2501 65.5203 50.182C65.9266 49.9675 66.3178 49.7353 66.709 49.498C67.4964 49.0312 68.2459 48.5138 68.9803 47.9838C69.3463 47.7113 69.7147 47.4437 70.0731 47.1636L70.6157 46.7447L71.1406 46.3056C71.4923 46.0145 71.838 45.7167 72.1779 45.4122C72.5261 45.1169 72.8567 44.8014 73.1873 44.486L73.6921 44.0115L74.1716 43.5194C74.4946 43.1938 74.8126 42.8657 75.118 42.5099C75.7413 41.8386 76.3395 41.1421 76.9275 40.4354L77.7931 39.3603L78.6184 38.2499C78.896 37.8814 79.1458 37.4928 79.4108 37.1117C79.6758 36.7306 79.9156 36.3394 80.1679 35.9407C80.6727 35.1634 81.0966 34.3356 81.5358 33.5205C81.9749 32.7053 82.3383 31.8447 82.6815 30.9766C82.8557 30.5475 83.0248 30.1135 83.1711 29.6693C83.3175 29.2251 83.4765 28.791 83.6153 28.3469C83.8677 27.4459 84.12 26.555 84.2917 25.6389C84.478 24.7294 84.6136 23.8102 84.698 22.8856C84.7333 22.4237 84.7485 21.9594 84.7611 21.495L84.7787 20.8035L84.7485 20.1095C84.7207 19.6451 84.6955 19.1883 84.6525 18.7315C84.6096 18.2747 84.5163 17.8179 84.4406 17.3662C84.3951 17.1416 84.3623 16.9145 84.3119 16.6924C84.2614 16.4703 84.1958 16.2457 84.1327 16.0236C84.0065 15.5794 83.8803 15.1403 83.7188 14.7087" fill="url(#paint14_linear_1549_40147)"/>
<path d="M69.2455 44.9646C69.2455 57.7124 58.9114 68.0465 46.1636 68.0465C33.4159 68.0465 23.0818 57.7124 23.0818 44.9646C23.0818 32.2169 33.4159 21.8828 46.1636 21.8828C58.9114 21.8828 69.2455 32.2169 69.2455 44.9646Z" fill="#E0E0E0"/>
<path d="M72 44.7627C72 58.5698 60.8071 69.7627 47 69.7627C33.1929 69.7627 22 58.5698 22 44.7627C22 30.9556 33.1929 19.7627 47 19.7627C60.8071 19.7627 72 30.9556 72 44.7627Z" fill="#E0E0E0"/>
<defs>
<linearGradient id="paint0_linear_1549_40147" x1="20.5261" y1="69.9627" x2="71.7809" y2="69.9627" gradientUnits="userSpaceOnUse">
<stop stop-color="#818181"/>
<stop offset="0.291" stop-color="#C8C8C8"/>
<stop offset="0.342" stop-color="#D8D8D8"/>
<stop offset="0.435" stop-color="#D8D8D8"/>
<stop offset="0.485" stop-color="#D8D8D8"/>
<stop offset="0.533" stop-color="#D8D8D8"/>
<stop offset="0.62" stop-color="#D2D2D2"/>
<stop offset="0.667" stop-color="#DFDFDF"/>
<stop offset="0.73" stop-color="#DCDCDC"/>
<stop offset="0.847" stop-color="#B5B5B5"/>
<stop offset="1" stop-color="#818181"/>
</linearGradient>
<linearGradient id="paint1_linear_1549_40147" x1="-11.1929" y1="37.1383" x2="5.7479" y2="62.0843" gradientUnits="userSpaceOnUse">
<stop stop-color="#E3E3E3"/>
<stop offset="1" stop-color="#818181"/>
</linearGradient>
<linearGradient id="paint2_linear_1549_40147" x1="-69.5589" y1="34.1658" x2="-66.9718" y2="90.4795" gradientUnits="userSpaceOnUse">
<stop stop-color="#E3E3E3"/>
<stop offset="1" stop-color="#818181"/>
</linearGradient>
<linearGradient id="paint3_linear_1549_40147" x1="0.402991" y1="60.7505" x2="5.79059" y2="71.3167" gradientUnits="userSpaceOnUse">
<stop stop-color="#E3E3E3"/>
<stop offset="1" stop-color="#818181"/>
</linearGradient>
<linearGradient id="paint4_linear_1549_40147" x1="-8.5231" y1="126.956" x2="-19.6132" y2="142.491" gradientUnits="userSpaceOnUse">
<stop stop-color="#E3E3E3"/>
<stop offset="1" stop-color="#818181"/>
</linearGradient>
<linearGradient id="paint5_linear_1549_40147" x1="18.5618" y1="50.6716" x2="18.5618" y2="64.768" gradientUnits="userSpaceOnUse">
<stop stop-color="#E3E3E3"/>
<stop offset="1" stop-color="#818181"/>
</linearGradient>
<linearGradient id="paint6_linear_1549_40147" x1="25.5223" y1="55.9285" x2="25.5223" y2="66.7646" gradientUnits="userSpaceOnUse">
<stop stop-color="#E3E3E3"/>
<stop offset="1" stop-color="#818181"/>
</linearGradient>
<linearGradient id="paint7_linear_1549_40147" x1="7.26059" y1="14.7087" x2="7.26059" y2="61.1121" gradientUnits="userSpaceOnUse">
<stop stop-color="#E3E3E3"/>
<stop offset="1" stop-color="#818181"/>
</linearGradient>
<linearGradient id="paint8_linear_1549_40147" x1="78.2591" y1="20.1811" x2="61.3188" y2="45.1334" gradientUnits="userSpaceOnUse">
<stop stop-color="#E3E3E3"/>
<stop offset="1" stop-color="#818181"/>
</linearGradient>
<linearGradient id="paint9_linear_1549_40147" x1="14.7456" y1="27.3944" x2="12.1595" y2="83.7475" gradientUnits="userSpaceOnUse">
<stop stop-color="#E3E3E3"/>
<stop offset="1" stop-color="#818181"/>
</linearGradient>
<linearGradient id="paint10_linear_1549_40147" x1="78.7421" y1="54.1732" x2="73.3545" y2="64.7394" gradientUnits="userSpaceOnUse">
<stop stop-color="#E3E3E3"/>
<stop offset="1" stop-color="#818181"/>
</linearGradient>
<linearGradient id="paint11_linear_1549_40147" x1="84.6552" y1="138.317" x2="95.7454" y2="153.853" gradientUnits="userSpaceOnUse">
<stop stop-color="#E3E3E3"/>
<stop offset="1" stop-color="#818181"/>
</linearGradient>
<linearGradient id="paint12_linear_1549_40147" x1="61.2905" y1="50.6768" x2="61.2905" y2="64.7731" gradientUnits="userSpaceOnUse">
<stop stop-color="#E3E3E3"/>
<stop offset="1" stop-color="#818181"/>
</linearGradient>
<linearGradient id="paint13_linear_1549_40147" x1="59.057" y1="55.9287" x2="59.057" y2="66.7649" gradientUnits="userSpaceOnUse">
<stop stop-color="#E3E3E3"/>
<stop offset="1" stop-color="#818181"/>
</linearGradient>
<linearGradient id="paint14_linear_1549_40147" x1="58.0779" y1="14.7087" x2="58.0779" y2="61.1121" gradientUnits="userSpaceOnUse">
<stop stop-color="#E3E3E3"/>
<stop offset="1" stop-color="#818181"/>
</linearGradient>
</defs>
</svg>
