<svg width="36" height="35" viewBox="0 0 36 35" fill="none" xmlns="http://www.w3.org/2000/svg">
<g filter="url(#filter0_d_1414_36232)">
<path d="M19 7.50001H16.5V15H6.5C5.83696 15 5.20107 14.7366 4.73223 14.2678C4.26339 13.7989 4 13.163 4 12.5V10C4 9.33697 4.26339 8.70108 4.73223 8.23224C5.20107 7.7634 5.83696 7.50001 6.5 7.50001H9.67C9.04983 6.42612 8.85086 5.16008 9.11173 3.94772C9.3726 2.73537 10.0747 1.66322 11.0817 0.939448C12.0886 0.215679 13.3287 -0.108055 14.5609 0.0311058C15.7932 0.170267 16.9298 0.762393 17.75 1.69251C18.5702 0.762393 19.7068 0.170267 20.9391 0.0311058C22.1713 -0.108055 23.4113 0.215679 24.4183 0.939448C25.4253 1.66322 26.1274 2.73537 26.3883 3.94772C26.6491 5.16008 26.4502 6.42612 25.83 7.50001H29C29.663 7.50001 30.2989 7.7634 30.7678 8.23224C31.2366 8.70108 31.5 9.33697 31.5 10V12.5C31.5 13.163 31.2366 13.7989 30.7678 14.2678C30.2989 14.7366 29.663 15 29 15H19V7.50001ZM11.5 5.00001C11.5 5.66305 11.7634 6.29893 12.2322 6.76777C12.7011 7.23662 13.337 7.50001 14 7.50001H16.5V5.00001C16.5 4.33697 16.2366 3.70108 15.7678 3.23224C15.2989 2.7634 14.663 2.50001 14 2.50001C13.337 2.50001 12.7011 2.7634 12.2322 3.23224C11.7634 3.70108 11.5 4.33697 11.5 5.00001ZM19 7.50001H21.5C21.9945 7.50001 22.4778 7.35338 22.8889 7.07868C23.3 6.80398 23.6205 6.41353 23.8097 5.95672C23.9989 5.4999 24.0484 4.99723 23.952 4.51228C23.8555 4.02733 23.6174 3.58187 23.2678 3.23224C22.9181 2.88261 22.4727 2.64451 21.9877 2.54804C21.5028 2.45158 21.0001 2.50109 20.5433 2.69031C20.0865 2.87953 19.696 3.19996 19.4213 3.61108C19.1466 4.02221 19 4.50555 19 5.00001V7.50001ZM29 17.5H19V30H24C25.3261 30 26.5979 29.4732 27.5355 28.5355C28.4732 27.5979 29 26.3261 29 25V17.5ZM16.5 30V17.5H6.5V25C6.5 26.3261 7.02678 27.5979 7.96447 28.5355C8.90215 29.4732 10.1739 30 11.5 30H16.5Z" fill="#2C50ED"/>
</g>
<defs>
<filter id="filter0_d_1414_36232" x="0" y="-0.000488281" width="35.5" height="38.0005" filterUnits="userSpaceOnUse" color-interpolation-filters="sRGB">
<feFlood flood-opacity="0" result="BackgroundImageFix"/>
<feColorMatrix in="SourceAlpha" type="matrix" values="0 0 0 0 0 0 0 0 0 0 0 0 0 0 0 0 0 0 127 0" result="hardAlpha"/>
<feOffset dy="4"/>
<feGaussianBlur stdDeviation="2"/>
<feComposite in2="hardAlpha" operator="out"/>
<feColorMatrix type="matrix" values="0 0 0 0 0 0 0 0 0 0 0 0 0 0 0 0 0 0 0.25 0"/>
<feBlend mode="normal" in2="BackgroundImageFix" result="effect1_dropShadow_1414_36232"/>
<feBlend mode="normal" in="SourceGraphic" in2="effect1_dropShadow_1414_36232" result="shape"/>
</filter>
</defs>
</svg>
