<svg width="85" height="85" viewBox="0 0 85 85" fill="none" xmlns="http://www.w3.org/2000/svg">
<path d="M42.5 85C65.9721 85 85 65.9721 85 42.5C85 19.0279 65.9721 0 42.5 0C19.0279 0 0 19.0279 0 42.5C0 65.9721 19.0279 85 42.5 85Z" fill="white"/>
<path d="M32.2881 46.6011L30.9881 51.4611L26.2301 51.5611C24.7908 48.8807 24.0261 45.89 24.002 42.8477C23.978 39.8053 24.6954 36.803 26.0921 34.1001L30.3281 34.8771L32.1841 39.0871C31.3478 41.528 31.3831 44.1833 32.2841 46.6011H32.2881Z" fill="#FBBB00"/>
<path d="M61.0709 39.2061C61.7056 42.5403 61.4205 45.9845 60.2461 49.1691C59.0717 52.3536 57.0524 55.1582 54.4049 57.2821L49.0699 57.0101L48.3149 52.2961C50.5181 51.0046 52.2108 48.9955 53.1099 46.6051H43.1099V39.2051H61.0709V39.2061Z" fill="#518EF8"/>
<path d="M54.4041 57.2801C52.2642 58.9974 49.7727 60.2229 47.1062 60.8698C44.4398 61.5166 41.6637 61.5689 38.9748 61.0229C36.2859 60.477 33.7501 59.3461 31.547 57.7106C29.344 56.0751 27.5277 53.975 26.2271 51.5591L32.2871 46.5991C32.8562 48.1158 33.7498 49.4898 34.9054 50.625C36.061 51.7602 37.4506 52.6293 38.9771 53.1714C40.5036 53.7136 42.1302 53.9157 43.7429 53.7636C45.3557 53.6116 46.9158 53.109 48.3141 52.2911L54.4041 57.2801Z" fill="#28B446"/>
<path d="M54.6353 28.3001L48.5773 33.2641C47.1582 32.3802 45.5581 31.8278 43.896 31.6477C42.2339 31.4677 40.5526 31.6648 38.9772 32.2242C37.4018 32.7837 35.9728 33.6912 34.7966 34.8792C33.6203 36.0672 32.7271 37.5052 32.1833 39.0861L26.0923 34.1001C27.3765 31.6188 29.2004 29.4568 31.43 27.773C33.6595 26.0893 36.238 24.9265 38.9759 24.3701C41.7139 23.8138 44.5417 23.878 47.2516 24.5581C49.9614 25.2381 52.4845 26.5168 54.6353 28.3001Z" fill="#F14336"/>
</svg>
