<svg width="44" height="44" viewBox="0 0 44 44" fill="none" xmlns="http://www.w3.org/2000/svg">
<path d="M42.911 21.5819C42.9259 33.3312 33.4242 42.8736 21.675 42.9089H21.583C9.80387 42.9089 0.255005 33.3601 0.255005 21.5809C0.255005 9.8018 9.80387 0.25293 21.583 0.25293H21.675C33.4239 0.290973 42.9243 9.83303 42.911 21.5819Z" fill="#6E398D"/>
<path fill-rule="evenodd" clip-rule="evenodd" d="M0.150854 23.0055C0.850326 34.3347 10.2333 43.1701 21.584 43.188C23.3999 43.1891 25.2088 42.962 26.968 42.512C37.962 39.6886 44.8694 28.8077 42.7464 17.6573C40.6234 6.50682 30.2009 -1.07445 18.9385 0.339618C7.67619 1.75369 -0.548618 11.6763 0.150854 23.0055ZM0.682867 20.2091C1.36572 9.16207 10.5159 0.547343 21.584 0.531037C23.3537 0.529974 25.1165 0.751376 26.831 1.19004C37.5514 3.94288 44.287 14.5528 42.2168 25.4256C40.1466 36.2985 29.9833 43.6908 19.0015 42.3115C8.01957 40.9323 1.77249e-05 31.2562 0.682867 20.2091Z" fill="#6E398D"/>
<path d="M5.27996 15.0189L5.21696 15.1799L5.15396 15.3409C3.52929 19.5841 3.62256 24.2934 5.41396 28.4689L5.48396 28.6269L5.55296 28.7859C7.4042 32.9356 10.8003 36.2001 15.02 37.8859L15.181 37.9489L15.342 38.0119C19.5851 39.6367 24.2945 39.5434 28.47 37.7519L28.629 37.6819L28.788 37.6129C32.9375 35.7615 36.202 32.3654 37.888 28.1459L37.951 27.9849L38.014 27.8239C39.6387 23.5808 39.5455 18.8714 37.754 14.6959L37.688 14.5449L37.615 14.3779C35.7636 10.2283 32.3675 6.96384 28.148 5.27794L27.987 5.21494L27.826 5.15194C23.5827 3.52738 18.8733 3.62101 14.698 5.41294L14.532 5.48594L14.381 5.55194C10.2313 7.40326 6.96686 10.7994 5.28096 15.0189H5.27996Z" fill="white"/>
<path d="M36.7209 14.9929L21.7439 21.5479H38.0979C38.0912 19.2918 37.6226 17.061 36.7209 14.9929Z" fill="#829495"/>
<path d="M36.971 27.565C37.7107 25.6686 38.0925 23.6515 38.097 21.616H21.762L36.971 27.565Z" fill="#E9EFF0"/>
<path d="M27.628 6.21875L21.673 21.4438L33.236 9.87675C31.6371 8.28594 29.7283 7.04084 27.628 6.21875Z" fill="#9E6DAC"/>
<path d="M36.6949 14.9329C35.8751 13.0706 34.7187 11.3756 33.2839 9.93286L21.7339 21.4829L36.6949 14.9329Z" fill="#6E398D"/>
<path d="M6.4729 28.2319C7.29261 30.0942 8.44898 31.7893 9.8839 33.2319L21.4339 21.6819L6.4729 28.2319Z" fill="#6E398D"/>
<path d="M15.5389 36.946L21.4939 21.72L9.93091 33.283C11.5293 34.8756 13.4382 36.1225 15.5389 36.946Z" fill="#9E6DAC"/>
<path d="M28.234 36.6929C30.0962 35.8731 31.7912 34.7167 33.234 33.2819L21.684 21.7319L28.234 36.6929Z" fill="#6E398D"/>
<path d="M36.9479 27.6259L21.7229 21.6709L33.2859 33.2339C34.8783 31.6355 36.1248 29.7266 36.9479 27.6259Z" fill="#9E6DAC"/>
<path d="M14.934 6.46997C13.0717 7.28974 11.3766 8.4461 9.93396 9.88097L21.484 21.431L14.934 6.46997Z" fill="#6E398D"/>
<path d="M6.22095 15.5369L21.4459 21.4919L9.88395 9.92993C8.29137 11.528 7.04453 13.4365 6.22095 15.5369Z" fill="#9E6DAC"/>
<path d="M6.19692 15.5989C5.45708 17.4952 5.07529 19.5123 5.07092 21.5479H21.4059L6.19692 15.5989Z" fill="#E9EFF0"/>
<path d="M6.44595 28.17L21.4229 21.615H5.06995C5.07649 23.871 5.54477 26.1018 6.44595 28.17Z" fill="#829495"/>
<path d="M15.6 36.9688C17.4964 37.7085 19.5134 38.0902 21.549 38.0948V21.7598L15.6 36.9688Z" fill="#E9EFF0"/>
<path d="M28.1679 36.7228L21.6129 21.7458V38.0998C23.869 38.0931 26.0998 37.6245 28.1679 36.7228Z" fill="#829495"/>
<path d="M14.995 6.44387L21.55 21.4209V5.06787C19.294 5.07425 17.0632 5.54253 14.995 6.44387Z" fill="#829495"/>
<path d="M27.5679 6.19485C25.6715 5.45503 23.6544 5.07324 21.6189 5.06885V21.4038L27.5679 6.19485Z" fill="#E9EFF0"/>
<path d="M23.6541 25.3711V34.0851L21.5841 36.3961L19.5131 34.0851V25.3711H23.6541Z" fill="#CF0D1B"/>
<path d="M23.6541 25.3711V34.0851L21.5841 36.3961V25.3711H23.6541Z" fill="#A50C1B"/>
<path d="M21.5831 0.916016C21.0814 0.916016 20.6292 1.21824 20.4373 1.68172C20.2455 2.1452 20.3518 2.67862 20.7066 3.03318C21.0614 3.38774 21.595 3.49358 22.0583 3.30134C22.5216 3.1091 22.8235 2.65664 22.8231 2.15502C22.8231 1.82624 22.6924 1.51094 22.4598 1.27856C22.2272 1.04617 21.9118 0.915751 21.5831 0.916016Z" fill="#FFD300"/>
<path d="M21.5831 39.77C21.0814 39.77 20.6292 40.0722 20.4373 40.5357C20.2455 40.9992 20.3518 41.5326 20.7066 41.8872C21.0614 42.2417 21.595 42.3476 22.0583 42.1553C22.5216 41.9631 22.8235 41.5106 22.8231 41.009C22.8231 40.6802 22.6924 40.3649 22.4598 40.1326C22.2272 39.9002 21.9118 39.7698 21.5831 39.77V39.77Z" fill="#FFD300"/>
<path d="M41.011 20.343C40.5094 20.343 40.0572 20.6452 39.8653 21.1087C39.6735 21.5722 39.7797 22.1056 40.1346 22.4602C40.4894 22.8147 41.0229 22.9206 41.4863 22.7283C41.9496 22.5361 42.2514 22.0836 42.251 21.582C42.251 21.2532 42.1204 20.9379 41.8878 20.7056C41.6552 20.4732 41.3398 20.3428 41.011 20.343V20.343Z" fill="#FFD300"/>
<path d="M3.39602 21.582C3.39602 20.8972 2.84085 20.342 2.15602 20.342C1.47118 20.342 0.916016 20.8972 0.916016 21.582C0.916016 22.2669 1.47118 22.822 2.15602 22.822C2.48497 22.8223 2.80052 22.6917 3.03312 22.4591C3.26572 22.2265 3.39628 21.911 3.39602 21.582Z" fill="#FFD300"/>
<path d="M34.444 6.969C33.9605 7.45298 33.9607 8.23727 34.4446 8.72095C34.9284 9.20463 35.7127 9.20463 36.1965 8.72095C36.6803 8.23727 36.6806 7.45298 36.197 6.969C35.9647 6.7364 35.6493 6.60571 35.3205 6.60571C34.9917 6.60571 34.6764 6.7364 34.444 6.969Z" fill="#FFD300"/>
<path d="M6.97004 34.448C6.48651 34.932 6.48674 35.7163 6.97057 36.2C7.4544 36.6836 8.23869 36.6836 8.72252 36.2C9.20635 35.7163 9.20658 34.932 8.72304 34.448C8.49065 34.2154 8.17534 34.0847 7.84654 34.0847C7.51775 34.0847 7.20243 34.2154 6.97004 34.448Z" fill="#FFD300"/>
<path d="M34.444 34.447C33.9605 34.931 33.9607 35.7153 34.4446 36.199C34.9284 36.6827 35.7127 36.6827 36.1965 36.199C36.6803 35.7153 36.6806 34.931 36.197 34.447C35.9647 34.2144 35.6493 34.0837 35.3205 34.0837C34.9917 34.0837 34.6764 34.2144 34.444 34.447Z" fill="#FFD300"/>
<circle cx="7.84606" cy="7.84496" r="1.239" fill="#FFD300"/>
<path d="M39.9631 15.166C40.5932 14.8997 40.8883 14.173 40.6222 13.5428C40.3561 12.9125 39.6295 12.6172 38.9992 12.8832C38.3688 13.1491 38.0733 13.8756 38.3391 14.506C38.6055 15.1365 39.3324 15.4319 39.9631 15.166Z" fill="#FFD300"/>
<path d="M3.20307 27.9949C2.57289 28.2613 2.27782 28.9879 2.54394 29.6182C2.81007 30.2484 3.53665 30.5437 4.16698 30.2778C4.79732 30.0119 5.09282 29.2854 4.82707 28.6549C4.56068 28.0244 3.83378 27.729 3.20307 27.9949Z" fill="#FFD300"/>
<path d="M28.655 38.3389C28.0248 38.6052 27.7297 39.3319 27.9958 39.9622C28.262 40.5924 28.9885 40.8877 29.6189 40.6218C30.2492 40.3558 30.5447 39.6293 30.279 38.9989C30.1513 38.696 29.9084 38.4562 29.6038 38.3324C29.2992 38.2086 28.9578 38.2109 28.655 38.3389Z" fill="#FFD300"/>
<path d="M14.511 4.82696C14.9732 4.63208 15.2725 4.17791 15.2692 3.67631C15.2659 3.17471 14.9608 2.72447 14.4961 2.53562C14.0314 2.34676 13.4987 2.45648 13.1464 2.8136C12.7942 3.17072 12.6918 3.70489 12.887 4.16696C13.0147 4.46994 13.2576 4.70972 13.5622 4.83351C13.8668 4.95731 14.2081 4.95495 14.511 4.82696Z" fill="#FFD300"/>
<path d="M40.048 27.7481C39.5833 27.5592 39.0506 27.6688 38.6983 28.0259C38.346 28.3829 38.2435 28.9171 38.4387 29.3792C38.6338 29.8413 39.0881 30.1403 39.5897 30.1367C40.0913 30.1332 40.5413 29.8279 40.73 29.3631C40.9874 28.7288 40.6821 28.0059 40.048 27.7481Z" fill="#FFD300"/>
<path d="M3.12097 15.417C3.75493 15.6742 4.47731 15.3688 4.73465 14.7349C4.992 14.1011 4.6869 13.3786 4.05311 13.121C3.41933 12.8635 2.69674 13.1683 2.43897 13.802C2.31508 14.1066 2.31734 14.448 2.44526 14.7509C2.57318 15.0538 2.81626 15.2934 3.12097 15.417Z" fill="#FFD300"/>
<path d="M14.738 38.432C14.104 38.1749 13.3816 38.4802 13.1243 39.1141C12.8669 39.7479 13.172 40.4704 13.8058 40.728C14.4396 40.9855 15.1622 40.6807 15.42 40.047C15.5439 39.7424 15.5416 39.4011 15.4137 39.0981C15.2858 38.7952 15.0427 38.5556 14.738 38.432Z" fill="#FFD300"/>
<path d="M28.4311 4.73294C28.8957 4.92185 29.4284 4.8122 29.7807 4.45514C30.133 4.09807 30.2355 3.56393 30.0404 3.10185C29.8452 2.63976 29.3909 2.34075 28.8893 2.34427C28.3877 2.34779 27.9377 2.65316 27.7491 3.11794C27.4916 3.75224 27.7969 4.47514 28.4311 4.73294Z" fill="#FFD300"/>
<circle cx="21.584" cy="21.5819" r="7.6" fill="#E7E7E8"/>
<circle cx="21.584" cy="21.5829" r="5.81" fill="#6E398D"/>
<path d="M21.3081 20.7801H19.7251V20.2271C19.7363 20.0081 19.7212 19.7885 19.6801 19.5731C19.6421 19.4959 19.5651 19.4455 19.4792 19.4416C19.3933 19.4376 19.312 19.4807 19.2671 19.5541C19.2186 19.743 19.2007 19.9385 19.2141 20.1331V23.0571C19.2033 23.2387 19.2212 23.421 19.2671 23.5971C19.2988 23.6836 19.3855 23.7373 19.4771 23.7271C19.5793 23.7354 19.6748 23.6756 19.7121 23.5801C19.7646 23.3946 19.7856 23.2015 19.7741 23.0091V22.2871H19.4551V21.3571H21.3081V24.6241H20.3131L20.1671 24.1881C20.0717 24.3633 19.9307 24.5095 19.7591 24.6111C19.5812 24.7084 19.3808 24.757 19.1781 24.7521C18.9165 24.7532 18.6591 24.6863 18.4311 24.5581C18.217 24.4458 18.035 24.2809 17.9021 24.0791C17.7849 23.8975 17.7078 23.6929 17.6761 23.4791C17.6405 23.1664 17.6254 22.8517 17.6311 22.5371V20.7291C17.6179 20.3046 17.6494 19.88 17.7251 19.4621C17.8125 19.1641 18.0037 18.9073 18.2641 18.7381C18.6022 18.5064 19.0066 18.3909 19.4161 18.4091C19.82 18.3939 20.22 18.4931 20.5701 18.6951C20.8422 18.8453 21.0541 19.0848 21.1701 19.3731C21.2772 19.7435 21.3242 20.1288 21.3091 20.5141L21.3081 20.7801Z" fill="white"/>
<path fill-rule="evenodd" clip-rule="evenodd" d="M25.493 23.4041C25.5217 23.1488 25.536 22.7154 25.536 22.1041V21.0631C25.5435 20.6239 25.5285 20.1847 25.491 19.7471C25.4244 19.2195 25.0767 18.7696 24.583 18.5721C24.3036 18.4618 24.0053 18.4074 23.705 18.4121C23.3966 18.4058 23.0902 18.4633 22.805 18.5811C22.3172 18.785 21.9783 19.2376 21.92 19.7631C21.8914 20.0184 21.877 20.4518 21.877 21.0631V22.1041C21.8695 22.5432 21.8845 22.9825 21.922 23.4201C21.9884 23.9478 22.3362 24.3977 22.83 24.5951C23.1094 24.7055 23.4077 24.7599 23.708 24.7551C24.0165 24.7613 24.3229 24.7038 24.608 24.5861C25.096 24.3823 25.4349 23.9297 25.493 23.4041ZM23.906 19.5611C23.9479 19.7389 23.9637 19.9218 23.953 20.1041L23.951 22.9061C23.9619 23.1337 23.9468 23.3619 23.906 23.5861C23.8815 23.6781 23.7938 23.7387 23.699 23.7291C23.6116 23.7394 23.5287 23.6879 23.499 23.6051C23.459 23.3895 23.4446 23.17 23.456 22.9511V20.1091C23.4378 19.9179 23.4603 19.725 23.522 19.5431C23.5631 19.4784 23.6354 19.4404 23.712 19.4431C23.7959 19.4342 23.8754 19.4825 23.906 19.5611Z" fill="white"/>
</svg>
