<svg width="34" height="18" viewBox="0 0 34 18" fill="none" xmlns="http://www.w3.org/2000/svg">
<g filter="url(#filter0_d_7859_26238)">
<path d="M4.47266 0.750488H26.0003C28.2095 0.750488 30.0003 2.54135 30.0003 4.75049V9.65549H4.47266V0.750488Z" fill="url(#paint0_linear_7859_26238)"/>
</g>
<path d="M11.3166 7.81531V2.7244H12.393V6.92788H14.5755V7.81531H11.3166ZM18.3496 3.99713L17.0147 7.81531H15.8215L14.4866 3.99713H15.6052L16.3982 6.72902H16.438L17.2285 3.99713H18.3496ZM19.2712 7.87994C19.1071 7.87994 18.9662 7.82194 18.8486 7.70593C18.7326 7.58827 18.6746 7.44741 18.6746 7.28335C18.6746 7.12094 18.7326 6.98174 18.8486 6.86573C18.9662 6.74973 19.1071 6.69173 19.2712 6.69173C19.4303 6.69173 19.5695 6.74973 19.6888 6.86573C19.8081 6.98174 19.8678 7.12094 19.8678 7.28335C19.8678 7.39272 19.8396 7.49298 19.7832 7.58413C19.7285 7.67362 19.6565 7.74571 19.567 7.80039C19.4775 7.85342 19.3789 7.87994 19.2712 7.87994ZM23.9674 7.88491C23.6161 7.88491 23.3029 7.82028 23.0278 7.69102C22.7544 7.56176 22.5373 7.38361 22.3765 7.15657C22.2158 6.92954 22.1321 6.66936 22.1255 6.37603H23.1695C23.1811 6.57324 23.264 6.73316 23.4181 6.85579C23.5722 6.97842 23.7553 7.03974 23.9674 7.03974C24.1365 7.03974 24.2856 7.00245 24.4149 6.92788C24.5458 6.85165 24.6477 6.74642 24.7206 6.61218C24.7952 6.47629 24.8325 6.32052 24.8325 6.14485C24.8325 5.96588 24.7944 5.80844 24.7182 5.67255C24.6436 5.53666 24.54 5.4306 24.4074 5.35437C24.2749 5.27814 24.1232 5.23919 23.9525 5.23754C23.8034 5.23754 23.6584 5.2682 23.5175 5.32951C23.3783 5.39083 23.2698 5.47452 23.1919 5.58058L22.2348 5.40906L22.476 2.7244H25.5882V3.60437H23.3634L23.2317 4.87958H23.2615C23.351 4.75364 23.486 4.64923 23.6667 4.56637C23.8473 4.48351 24.0495 4.44208 24.2732 4.44208C24.5798 4.44208 24.8532 4.51417 25.0935 4.65835C25.3338 4.80252 25.5236 5.00056 25.6628 5.25245C25.802 5.50269 25.8707 5.79104 25.8691 6.11751C25.8707 6.46055 25.7912 6.76547 25.6304 7.03228C25.4714 7.29743 25.2485 7.50624 24.9618 7.6587C24.6767 7.80951 24.3453 7.88491 23.9674 7.88491Z" fill="white"/>
<defs>
<filter id="filter0_d_7859_26238" x="0.472656" y="0.750488" width="33.5277" height="16.905" filterUnits="userSpaceOnUse" color-interpolation-filters="sRGB">
<feFlood flood-opacity="0" result="BackgroundImageFix"/>
<feColorMatrix in="SourceAlpha" type="matrix" values="0 0 0 0 0 0 0 0 0 0 0 0 0 0 0 0 0 0 127 0" result="hardAlpha"/>
<feOffset dy="4"/>
<feGaussianBlur stdDeviation="2"/>
<feComposite in2="hardAlpha" operator="out"/>
<feColorMatrix type="matrix" values="0 0 0 0 0 0 0 0 0 0 0 0 0 0 0 0 0 0 0.25 0"/>
<feBlend mode="normal" in2="BackgroundImageFix" result="effect1_dropShadow_7859_26238"/>
<feBlend mode="normal" in="SourceGraphic" in2="effect1_dropShadow_7859_26238" result="shape"/>
</filter>
<linearGradient id="paint0_linear_7859_26238" x1="30.0003" y1="4.90616" x2="4.89461" y2="5.21112" gradientUnits="userSpaceOnUse">
<stop stop-color="#2B4486"/>
<stop offset="1" stop-color="#4589D7"/>
</linearGradient>
</defs>
</svg>
