<svg width="12" height="8" viewBox="0 0 12 8" fill="none" xmlns="http://www.w3.org/2000/svg">
<path d="M12 5.3C12 5.6 11.4 5.8 10.7 5.9C10.25 5.05 9.35 4.4 8.3 3.95C8.4 3.8 8.5 3.7 8.6 3.55H9C10.55 3.5 12 4.45 12 5.3ZM3.4 3.5H3C1.45 3.5 0 4.45 0 5.3C0 5.6 0.6 5.8 1.3 5.9C1.75 5.05 2.65 4.4 3.7 3.95L3.4 3.5ZM6 4C7.1 4 8 3.1 8 2C8 0.9 7.1 0 6 0C4.9 0 4 0.9 4 2C4 3.1 4.9 4 6 4ZM6 4.5C3.95 4.5 2 5.8 2 7C2 8 6 8 6 8C6 8 10 8 10 7C10 5.8 8.05 4.5 6 4.5ZM8.85 3H9C9.85 3 10.5 2.35 10.5 1.5C10.5 0.65 9.85 0 9 0C8.75 0 8.55 0.0500001 8.35 0.15C8.75 0.65 9 1.3 9 2C9 2.35 8.95 2.7 8.85 3ZM3 3H3.15C3.05 2.7 3 2.35 3 2C3 1.3 3.25 0.65 3.65 0.15C3.45 0.0500001 3.25 0 3 0C2.15 0 1.5 0.65 1.5 1.5C1.5 2.35 2.15 3 3 3Z" fill="#777777"/>
</svg>
