<svg width="15" height="13" viewBox="0 0 15 13" fill="none" xmlns="http://www.w3.org/2000/svg">
<path d="M7.37425 11.0163L7.30694 11.0872L7.2329 11.0163C4.03579 7.96294 1.92233 5.94387 1.92233 3.89646C1.92233 2.47956 2.93194 1.41689 4.2781 1.41689C5.31463 1.41689 6.32425 2.12534 6.68098 3.08883H7.9329C8.28963 2.12534 9.29925 1.41689 10.3358 1.41689C11.6819 1.41689 12.6916 2.47956 12.6916 3.89646C12.6916 5.94387 10.5781 7.96294 7.37425 11.0163ZM10.3358 0C9.16463 0 8.0406 0.573842 7.30694 1.47357C6.57329 0.573842 5.44925 0 4.2781 0C2.20502 0 0.576172 1.70736 0.576172 3.89646C0.576172 6.5673 2.86463 8.7564 6.33098 12.0649L7.30694 13L8.2829 12.0649C11.7492 8.7564 14.0377 6.5673 14.0377 3.89646C14.0377 1.70736 12.4089 0 10.3358 0Z" fill="#2C50ED"/>
</svg>
