<svg width="14" height="14" viewBox="0 0 14 14" fill="none" xmlns="http://www.w3.org/2000/svg">
<path fill-rule="evenodd" clip-rule="evenodd" d="M2.42794 10.3711V13.0261L2.55294 13.0891C2.77052 12.8697 2.98938 12.6517 3.20822 12.4336C3.7407 11.9031 4.27312 11.3726 4.78694 10.8241C5.05713 10.5099 5.45823 10.3395 5.87194 10.3631C8.03794 10.3871 10.2049 10.3791 12.3719 10.3711C13.2449 10.3671 13.6449 9.97708 13.6449 9.12808C13.6536 6.81141 13.6536 4.49441 13.6449 2.17708C13.6898 1.84645 13.5761 1.51403 13.3381 1.28017C13.1001 1.04632 12.7657 0.938429 12.4359 0.989079H1.23594C0.390942 0.990079 0.0119422 1.35708 0.0119422 2.20508C0.00394225 4.52241 0.00394225 6.83941 0.0119422 9.15608C-0.0379803 9.48678 0.0703467 9.82173 0.304468 10.0606C0.53859 10.2994 0.871309 10.4144 1.20294 10.3711C1.46271 10.3777 1.72291 10.3756 1.995 10.3734C2.13561 10.3722 2.2794 10.3711 2.42794 10.3711ZM3.49894 10.7641L3.38294 10.7081V9.42008H0.996942V1.95608H12.6349V9.41308H12.0879C11.5248 9.41308 10.9619 9.41364 10.399 9.4142C8.71075 9.41589 7.02335 9.41758 5.33594 9.40408C5.00484 9.37963 4.68208 9.51536 4.46794 9.76908C4.2509 10.0152 4.01775 10.2467 3.78457 10.4783C3.689 10.5732 3.59342 10.6681 3.49894 10.7641Z" fill="#2C50ED"/>
<path d="M3.79278 6.41611C3.59165 6.42004 3.39797 6.33999 3.2583 6.1952C3.11864 6.05041 3.04561 5.85398 3.05678 5.65311C3.05506 5.25291 3.37466 4.9253 3.77478 4.91711C4.19026 4.92281 4.53221 5.24565 4.56178 5.66011C4.55102 6.07815 4.21094 6.41248 3.79278 6.41611Z" fill="#2C50ED"/>
<path d="M10.5898 5.67902C10.5928 5.87996 10.5125 6.07319 10.368 6.21281C10.2234 6.35244 10.0275 6.42599 9.82682 6.41602C9.42757 6.4017 9.10677 6.0822 9.09082 5.68302C9.1016 5.26743 9.43339 4.93171 9.84882 4.91602C10.0494 4.91537 10.2416 4.99628 10.3813 5.14016C10.5211 5.28405 10.5963 5.47855 10.5898 5.67902Z" fill="#2C50ED"/>
<path d="M6.84713 6.41503C6.64612 6.42287 6.45048 6.34909 6.30471 6.21047C6.15893 6.07185 6.07541 5.88018 6.07313 5.67903C6.06015 5.26481 6.38542 4.91851 6.79963 4.90553C7.21384 4.89255 7.56015 5.21781 7.57313 5.63203C7.58344 5.83285 7.51214 6.02932 7.37541 6.17678C7.23869 6.32424 7.04816 6.41016 6.84713 6.41503Z" fill="#2C50ED"/>
</svg>
