<svg width="27" height="27" viewBox="0 0 27 27" fill="none" xmlns="http://www.w3.org/2000/svg">
<g clip-path="url(#clip0_3861_27411)">
<g filter="url(#filter0_d_3861_27411)">
<path d="M19.125 12.375C19.5075 12.375 19.8787 12.42 20.25 12.4762V7.05375L11.8125 3.375L3.375 7.05375V12.5775C3.375 17.685 6.975 22.4662 11.8125 23.625C12.4312 23.4788 13.0275 23.265 13.6125 23.0063C12.8363 21.9038 12.375 20.565 12.375 19.125C12.375 15.4012 15.4012 12.375 19.125 12.375Z" fill="#2C50ED"/>
</g>
<g filter="url(#filter1_d_3861_27411)">
<path d="M19.125 14.625C16.6388 14.625 14.625 16.6388 14.625 19.125C14.625 21.6112 16.6388 23.625 19.125 23.625C21.6112 23.625 23.625 21.6112 23.625 19.125C23.625 16.6388 21.6112 14.625 19.125 14.625ZM19.125 16.1775C19.8225 16.1775 20.385 16.7513 20.385 17.4375C20.385 18.1237 19.8113 18.6975 19.125 18.6975C18.4388 18.6975 17.865 18.1237 17.865 17.4375C17.865 16.7513 18.4275 16.1775 19.125 16.1775ZM19.125 22.2188C18.0787 22.2188 17.1675 21.7013 16.605 20.9025C16.6613 20.0925 18.3038 19.6875 19.125 19.6875C19.9462 19.6875 21.5887 20.0925 21.645 20.9025C21.0825 21.7013 20.1712 22.2188 19.125 22.2188Z" fill="#2C50ED"/>
</g>
</g>
<defs>
<filter id="filter0_d_3861_27411" x="-0.625" y="3.375" width="24.875" height="28.25" filterUnits="userSpaceOnUse" color-interpolation-filters="sRGB">
<feFlood flood-opacity="0" result="BackgroundImageFix"/>
<feColorMatrix in="SourceAlpha" type="matrix" values="0 0 0 0 0 0 0 0 0 0 0 0 0 0 0 0 0 0 127 0" result="hardAlpha"/>
<feOffset dy="4"/>
<feGaussianBlur stdDeviation="2"/>
<feComposite in2="hardAlpha" operator="out"/>
<feColorMatrix type="matrix" values="0 0 0 0 0 0 0 0 0 0 0 0 0 0 0 0 0 0 0.25 0"/>
<feBlend mode="normal" in2="BackgroundImageFix" result="effect1_dropShadow_3861_27411"/>
<feBlend mode="normal" in="SourceGraphic" in2="effect1_dropShadow_3861_27411" result="shape"/>
</filter>
<filter id="filter1_d_3861_27411" x="10.625" y="14.625" width="17" height="17" filterUnits="userSpaceOnUse" color-interpolation-filters="sRGB">
<feFlood flood-opacity="0" result="BackgroundImageFix"/>
<feColorMatrix in="SourceAlpha" type="matrix" values="0 0 0 0 0 0 0 0 0 0 0 0 0 0 0 0 0 0 127 0" result="hardAlpha"/>
<feOffset dy="4"/>
<feGaussianBlur stdDeviation="2"/>
<feComposite in2="hardAlpha" operator="out"/>
<feColorMatrix type="matrix" values="0 0 0 0 0 0 0 0 0 0 0 0 0 0 0 0 0 0 0.25 0"/>
<feBlend mode="normal" in2="BackgroundImageFix" result="effect1_dropShadow_3861_27411"/>
<feBlend mode="normal" in="SourceGraphic" in2="effect1_dropShadow_3861_27411" result="shape"/>
</filter>
<clipPath id="clip0_3861_27411">
<rect width="27" height="27" fill="white"/>
</clipPath>
</defs>
</svg>
