<svg width="14" height="29" viewBox="0 0 14 29" fill="none" xmlns="http://www.w3.org/2000/svg">
<path d="M0.767334 27.8442L1.19325 27.3576L1.1606 27.2613L0.848968 27.357C0.926697 27.2101 0.957931 27.0961 1.00762 27.0662C1.3338 26.8699 1.66424 26.6918 1.99291 26.5073C2.06247 26.456 2.13968 26.4401 2.21474 26.4615L1.96629 26.7324C2.19828 26.7865 2.43391 26.69 2.62397 26.4633C2.73837 26.3377 2.84396 26.1915 2.93879 26.0272C2.96932 25.9791 2.97429 25.8862 2.99097 25.8139L2.9427 25.7681C3.18618 25.5566 3.42931 25.3427 3.67421 25.1358C3.7097 25.1053 3.7711 25.0729 3.79772 25.1005C4.01068 25.3262 4.19205 25.1194 4.37555 24.9871C4.57537 24.8432 4.77272 24.6898 4.96615 24.5247C5.02004 24.4607 5.06788 24.3839 5.10812 24.2967L5.05417 24.1639L3.95389 25.0118L3.92514 24.9237C4.12461 24.7157 4.3255 24.5123 4.5232 24.2978C4.59355 24.2192 4.65991 24.1311 4.72161 24.0346C4.83944 23.8554 4.92746 23.6491 5.12906 23.6473C5.27849 23.5933 5.41581 23.4712 5.52552 23.2948C4.87387 23.2695 4.02665 23.8119 3.94573 24.2655L3.1191 24.5546L3.08928 24.4636C3.18557 24.1036 3.31146 23.7674 3.46338 23.4646C3.6071 23.2681 3.7971 23.1909 3.97945 23.2548C4.23928 23.3724 4.51623 23.3264 4.75674 23.1255C4.94202 23.018 5.12729 22.9099 5.30724 22.78C5.37992 22.7247 5.44276 22.6393 5.48967 22.532C5.52764 22.4215 5.53363 22.2886 5.506 22.17C5.78994 21.8345 6.07389 21.496 6.35783 21.1634C6.70531 20.7586 7.04214 20.3231 7.40771 19.97C7.62067 19.7625 7.89326 19.7214 8.12183 19.5445C8.35041 19.3676 8.54775 19.1144 8.76071 18.9046C9.26604 18.4969 9.73661 17.9804 10.1602 17.3685C10.2882 17.1611 10.4091 16.9422 10.5226 16.7127C10.5467 16.6622 10.5169 16.5071 10.4871 16.4266C10.2636 15.9329 9.90445 15.66 9.53268 15.7014C9.00809 15.6315 8.48209 15.5839 7.95856 15.4958C7.53363 15.4336 7.14515 15.0729 6.89143 14.5052C6.63772 13.9374 6.54308 13.2168 6.63148 12.5259C6.76379 11.227 7.16618 10.0455 7.76903 9.1858C8.30673 8.31808 8.98328 7.72346 9.71866 7.47227C10.0655 7.37673 10.4207 7.40498 10.7604 7.55513C11.1464 7.69538 11.549 7.64136 11.9164 7.4C12.1396 7.27366 12.3547 6.95575 12.5673 6.96985C12.8548 6.98866 12.9251 6.64019 13.0845 6.41748C13.2192 6.58264 13.2812 6.86512 13.242 7.13498C13.2037 7.65956 13.2054 8.19004 13.247 8.71393C13.2759 9.34419 13.1975 9.97523 13.0209 10.5356C12.9215 10.9392 12.7831 11.3135 12.6113 11.6439C12.2259 12.3584 11.8862 12.4536 11.3975 11.7332C11.0716 11.1585 10.6685 10.7192 10.2209 10.451C10.1314 10.4104 9.97563 10.4739 9.94972 10.3969C9.82124 10.0179 9.67252 10.334 9.54155 10.344C9.4876 10.3481 9.44146 10.5203 9.38538 10.6014C9.3377 10.6816 9.28213 10.7477 9.22105 10.7971C8.8051 11.0536 8.47599 11.5942 8.31775 12.2808C8.21525 12.6479 8.21487 13.0709 8.3167 13.4385C8.41854 13.8061 8.6124 14.0815 8.84731 14.1924C9.1813 14.3005 9.51671 14.4086 9.85389 14.4792C10.573 14.6302 11.3134 14.5749 11.9923 15.0932C12.343 15.368 12.6352 15.8119 12.8307 16.3666C13.0268 16.8721 13.0506 17.5098 12.8935 18.0514C12.7496 18.4938 12.5689 18.9006 12.3569 19.2601C12.2044 19.5495 12.042 19.8241 11.8706 20.0828C11.5763 20.4176 11.2713 20.726 10.957 21.0065C10.8814 21.0788 10.7703 21.0547 10.699 21.1329C10.4303 21.4267 10.1708 21.747 9.90855 22.0572C9.76658 22.2241 9.62709 22.3922 9.47837 22.569L9.66258 22.6525C8.86327 23.6009 8.0168 24.4354 7.13229 25.147C6.731 25.4192 6.29404 25.5151 5.86377 25.4255L7.12838 24.2021L7.11419 24.1151C7.03804 24.1357 6.96294 24.1658 6.88952 24.205C6.61149 24.3899 6.33512 24.5811 6.0604 24.7785C5.86483 24.9196 5.67211 25.0723 5.48009 25.2251C5.32439 25.3652 5.1522 25.4478 4.97538 25.4672C4.75102 25.5595 4.53872 25.7188 4.34893 25.9373C4.20057 25.6006 4.005 25.6935 3.8137 25.8421C3.21576 26.3071 2.61912 26.7773 2.02379 27.2524C1.79202 27.4375 1.56735 27.6462 1.33913 27.8442H0.767334Z" fill="#2C50ED" stroke="white" stroke-width="0.6"/>
<path d="M8.86574 0.517578C8.83753 0.66819 8.80314 0.815439 8.76281 0.9583C8.67657 1.22156 8.57825 1.47365 8.48526 1.73044L8.5424 1.78509L8.91401 0.990032L8.95802 0.99532C8.94494 1.13611 8.92621 1.27529 8.90195 1.41195C8.7795 1.97255 8.65101 2.52844 8.52466 3.08845L8.60061 3.16015L9.05102 2.23933L9.11064 2.29104V3.11372C8.77488 3.1055 8.76601 3.64259 8.72022 3.90408C8.46219 5.39137 7.78818 6.49611 7.44532 7.89467C7.18231 8.96709 6.89411 10.0236 6.65063 11.1078C6.42692 12.0776 6.23463 13.0664 6.07458 14.0701C5.82213 15.539 5.69185 17.0581 5.68735 18.5854C5.70524 18.9993 5.58401 19.3959 5.37196 19.6172C5.15991 19.8385 4.8915 19.8484 4.67367 19.6431C4.64066 19.6179 4.59807 19.5438 4.59878 19.4939C4.60233 19.1272 4.4419 18.9397 4.30596 18.7247C4.1285 18.4408 3.94464 18.1623 3.76931 17.8726C3.63891 17.5982 3.60811 17.2286 3.68874 16.906C3.735 16.4307 3.71743 15.9443 3.63727 15.4815C3.60498 15.2259 3.65857 14.9421 3.63727 14.68C3.60646 14.2246 3.54965 13.775 3.46762 13.3373C3.29867 12.5287 3.09885 11.7372 2.89973 10.9468C2.8724 10.8381 2.77622 10.7788 2.71623 10.6888C2.68037 10.6408 2.65109 10.5807 2.63034 10.5126C2.4582 9.82033 2.29422 9.1234 2.11889 8.43353C2.03548 8.10563 1.93361 7.79125 1.83885 7.47158C1.83317 7.45219 1.81649 7.42692 1.80548 7.42809C1.55064 7.45277 1.52935 6.92978 1.36395 6.89041C1.30574 6.5825 1.25215 6.3304 1.2124 6.07243C1.19987 5.97238 1.20404 5.86857 1.22446 5.77216C1.24682 5.66051 1.33094 5.55121 1.32029 5.45895C1.27344 4.99413 1.45126 4.64567 1.53325 4.25137C1.60968 3.95237 1.69839 3.66238 1.79874 3.38344C1.85223 3.38678 1.90466 3.40923 1.95242 3.44926C2.12314 3.62555 2.25021 3.48452 2.3968 3.35406C2.48755 3.29903 2.58528 3.28325 2.68074 3.30823C2.81419 3.32057 2.94658 3.36346 3.10666 3.39872V3.62202L3.15173 3.56326C3.27702 3.79831 3.40977 4.02513 3.52476 4.2737C3.57599 4.39595 3.61106 4.53471 3.62769 4.68093C3.79699 5.94198 3.95174 7.20773 4.13027 8.46585C4.26373 9.40605 4.42557 10.3363 4.57429 11.2706C4.62717 11.6032 4.68077 11.9358 4.74217 12.3283C4.78499 12.2586 4.82188 12.1795 4.85184 12.0933C5.31325 9.93022 5.76401 7.7601 6.23607 5.60292C6.43128 4.70972 6.66199 3.84003 6.89198 2.96623C6.94777 2.7885 7.03169 2.63921 7.13475 2.53432C7.22109 2.50812 7.30368 2.4553 7.37823 2.3786C7.55286 2.10124 7.71009 1.79097 7.87514 1.49716L7.92092 1.54828L7.83645 1.99899L7.91702 2.07891C8.17552 1.59677 8.40483 1.07382 8.60168 0.517578L8.86574 0.517578Z" fill="#2C50ED" stroke="white" stroke-width="0.6"/>
</svg>
