<svg width="13" height="15" viewBox="0 0 13 15" fill="none" xmlns="http://www.w3.org/2000/svg">
<rect x="0.202148" width="12.5285" height="14.0021" rx="2" fill="#56478E"/>
<ellipse cx="6.76776" cy="6.90734" rx="2.14373" ry="2.2362" fill="white"/>
<path d="M5.79004 4.02781L6.68367 2.04565L7.52034 4.02781H5.79004Z" fill="white"/>
<path d="M5.79004 9.78687L6.68367 11.769L7.52034 9.78687H5.79004Z" fill="white"/>
<path d="M9.63448 5.8645L11.5337 6.79565L9.63448 7.66842V5.8645Z" fill="white"/>
<path d="M3.76025 5.8645L1.86006 6.79565L3.76025 7.66842V5.8645Z" fill="white"/>
<path d="M8.23294 4.26755L9.79586 3.64801L9.22143 5.26426L8.23294 4.26755Z" fill="white"/>
<path d="M8.23291 9.54919L9.79583 10.1687L9.2214 8.55248L8.23291 9.54919Z" fill="white"/>
<path d="M5.16064 4.26746L3.59772 3.64792L4.17215 5.26417L5.16064 4.26746Z" fill="white"/>
<path d="M5.16159 9.54922L3.59867 10.1688L4.1731 8.55251L5.16159 9.54922Z" fill="white"/>
</svg>
