<svg width="13" height="15" viewBox="0 0 13 15" fill="none" xmlns="http://www.w3.org/2000/svg">
<rect x="0.202148" width="12.5285" height="14.0021" rx="2" fill="#BF5C97"/>
<path fill-rule="evenodd" clip-rule="evenodd" d="M10.1747 5.76862C10.241 5.98105 10.1861 6.21427 10.0331 6.37055L8.67985 7.74628C8.65381 7.77296 8.64174 7.81111 8.64744 7.84871L8.96659 9.79502C9.00037 10.0145 8.91259 10.2351 8.73975 10.3651C8.5669 10.4951 8.33854 10.5124 8.14956 10.4096L6.48014 9.49283C6.44725 9.4748 6.40796 9.4748 6.37507 9.49283L4.70565 10.4096C4.51666 10.5124 4.2883 10.4951 4.11546 10.3651C3.94261 10.2351 3.85484 10.0145 3.88861 9.79502L4.20777 7.84871C4.21347 7.81111 4.20139 7.77296 4.17536 7.74628L2.82313 6.37157C2.67013 6.21529 2.61523 5.98207 2.68145 5.76964C2.74767 5.55722 2.92355 5.40227 3.13541 5.36974L5.00123 5.08599C5.03782 5.08021 5.06937 5.0561 5.08568 5.02146L5.92138 3.25442C6.01642 3.05398 6.21224 2.92712 6.42662 2.92712C6.641 2.92712 6.83682 3.05398 6.93187 3.25442L7.7705 5.02043C7.78682 5.05508 7.81837 5.07919 7.85496 5.08497L9.72078 5.36872C9.93263 5.40125 10.1085 5.55619 10.1747 5.76862ZM8.52371 9.87594L8.20455 7.92964C8.18591 7.58793 8.19636 7.24564 8.23555 6.90678L7.98164 7.09785C7.93419 7.09071 7.89579 7.08924 7.86351 7.088C7.77084 7.08445 7.72857 7.08283 7.66739 6.95444L7.85201 7.58545L6.84938 8.72045C6.83998 8.70086 6.79865 8.50208 6.74673 8.24444L6.51844 9.03289C6.51162 9.07427 5.65077 9.43967 5.02114 9.70693C4.65322 9.8631 4.36426 9.98576 4.37078 9.99067C4.38846 10.004 4.24214 9.94765 4.29811 9.91692L6.16393 9.08308C6.20089 9.06264 6.41351 8.58348 6.64322 8.0658C6.65871 8.03089 6.67428 7.9958 6.68988 7.96068C6.68488 7.93567 6.67987 7.91053 6.67484 7.88534C6.58362 7.42831 6.48904 6.95444 6.47818 6.95444C6.47467 6.95444 6.41781 6.94714 6.32573 6.93533C6.24679 6.92519 6.14195 6.91174 6.02265 6.89671C6.13159 7.21956 6.19608 7.46232 6.13349 7.47175L6.16393 7.58648C6.13265 7.59107 5.37598 7.17201 4.62313 6.75285C4.59103 6.75327 4.57155 6.75589 4.56762 6.76114L4.58532 6.7318C4.50067 6.68466 4.41623 6.63762 4.33303 6.59126C3.8685 6.33245 3.44264 6.09519 3.23606 5.98436C3.4048 6.06099 3.71365 6.19407 4.02636 6.32882C4.25372 6.42679 4.48313 6.52565 4.66223 6.60432L5.48929 5.2335C5.45096 5.31442 5.627 5.79745 5.80803 6.29419C5.86588 6.4529 5.92423 6.61301 5.97626 6.76186H6.47621C6.60939 7.11647 6.69533 7.48785 6.7321 7.86564C6.98144 7.30483 7.22701 6.76186 7.27066 6.76186C7.30892 6.76186 7.52317 6.63646 7.7622 6.49656C8.08154 6.30966 8.44511 6.09688 8.49228 6.12265L8.49032 6.16532L9.01962 6.04583C9.05438 6.01183 9.01438 5.96948 8.98782 5.94137C8.97837 5.93136 8.97062 5.92316 8.96856 5.91778C8.96428 5.90663 9.18695 5.88667 9.38063 5.86932C9.50536 5.85814 9.61806 5.84804 9.6504 5.84206L8.46418 6.73473L8.41274 7.85486C8.44728 7.87416 8.4919 8.54701 8.52469 9.04146C8.5441 9.33417 8.55936 9.56436 8.56593 9.55941C8.58361 9.54609 8.53451 9.94048 8.52371 9.87594ZM9.65597 5.83788C9.66257 5.83885 9.66011 5.84027 9.6504 5.84206L9.65597 5.83788ZM3.10497 5.9188C3.1057 5.91585 3.15328 5.93996 3.23606 5.98436C3.1531 5.94669 3.104 5.92267 3.10497 5.9188ZM4.56718 6.76186C4.5673 6.76161 4.56744 6.76137 4.56762 6.76114L4.56718 6.76186Z" fill="white"/>
<path d="M9.0587 3.25444C9.0104 3.21787 8.95014 3.20282 8.8912 3.21262C8.83226 3.22242 8.77947 3.25626 8.74446 3.30669L8.50485 3.64985C8.43163 3.75479 8.45383 3.90178 8.55444 3.97816C8.65504 4.05453 8.79596 4.03137 8.86917 3.92643L9.10878 3.58326C9.14416 3.53281 9.15877 3.46971 9.14936 3.40798C9.13996 3.34624 9.10733 3.29098 9.0587 3.25444Z" fill="white"/>
<path d="M4.34718 3.65193L4.10757 3.30876C4.03435 3.20382 3.89344 3.18066 3.79284 3.25703C3.69223 3.33341 3.67003 3.4804 3.74324 3.58534L3.98285 3.92851C4.03022 3.9964 4.1087 4.03277 4.18875 4.02393C4.26879 4.01508 4.33823 3.96237 4.37091 3.88564C4.40359 3.80891 4.39454 3.71982 4.34718 3.65193Z" fill="white"/>
<path d="M2.982 8.2001C2.96357 8.14083 2.92329 8.09164 2.87005 8.06339C2.81681 8.03514 2.75498 8.03015 2.6982 8.04952L2.31129 8.18064C2.23481 8.20662 2.17742 8.27319 2.16075 8.35528C2.14409 8.43737 2.17066 8.52249 2.23048 8.57859C2.29029 8.63469 2.37425 8.65325 2.45074 8.62726L2.83765 8.49614C2.89447 8.47692 2.94162 8.4349 2.9687 8.37936C2.99578 8.32382 3.00057 8.25933 2.982 8.2001Z" fill="white"/>
<path d="M6.42606 10.8102C6.30186 10.8102 6.20118 10.9152 6.20118 11.0448V11.4688C6.20118 11.5987 6.30208 11.7039 6.42655 11.7039C6.55102 11.7039 6.65192 11.5987 6.65192 11.4688V11.0448C6.65193 10.9824 6.6281 10.9225 6.58571 10.8785C6.54333 10.8345 6.48587 10.8099 6.42606 10.8102Z" fill="white"/>
<path d="M10.5418 8.18057L10.1548 8.04945C10.0784 8.02347 9.9944 8.04202 9.93458 8.09812C9.87477 8.15423 9.84819 8.23935 9.86486 8.32144C9.88153 8.40352 9.93891 8.4701 10.0154 8.49608L10.4023 8.6272C10.5205 8.66737 10.6476 8.59995 10.6861 8.47662C10.7246 8.35328 10.66 8.22074 10.5418 8.18057Z" fill="white"/>
</svg>
