<svg width="22" height="22" viewBox="0 0 22 22" fill="none" xmlns="http://www.w3.org/2000/svg">
<path fill-rule="evenodd" clip-rule="evenodd" d="M7.24955 1H14.7505C18.2017 1.00067 20.9993 3.79829 21 7.24955V14.7505C20.9993 18.2017 18.2017 20.9993 14.7505 21H7.24955C3.79829 20.9993 1.00067 18.2017 1 14.7505V7.24955C1.00067 3.79829 3.79829 1.00067 7.24955 1ZM14.7505 19.1253C17.1656 19.1226 19.1228 17.1655 19.1254 14.7504V7.24948C19.1228 4.83438 17.1656 2.87723 14.7505 2.87455H7.24959C4.83449 2.87723 2.87734 4.83438 2.87467 7.24948V14.7504C2.87734 17.1655 4.83449 19.1226 7.24959 19.1253H14.7505Z" fill="#777777"/>
<path fill-rule="evenodd" clip-rule="evenodd" d="M6.0007 11.0011C6.0007 8.23934 8.23955 6.00049 11.0013 6.00049C13.7631 6.00049 16.0019 8.23934 16.0019 11.0011C16.0019 13.7629 13.7631 16.0017 11.0013 16.0017C8.23955 16.0017 6.0007 13.7629 6.0007 11.0011ZM7.87639 10.9999C7.87639 12.7257 9.2754 14.1247 11.0012 14.1247C12.7258 14.122 14.1233 12.7245 14.1259 10.9999C14.1259 9.27413 12.7269 7.87512 11.0012 7.87512C9.2754 7.87512 7.87639 9.27413 7.87639 10.9999Z" fill="#777777"/>
<circle cx="16.3741" cy="5.62468" r="0.665697" fill="#777777"/>
</svg>
