<svg width="40" height="40" viewBox="0 0 40 40" fill="none" xmlns="http://www.w3.org/2000/svg">
<g clip-path="url(#clip0_1414_36219)">
<g filter="url(#filter0_d_1414_36219)">
<path d="M37.7445 19.1703C36.0875 11.6789 33.5938 7.68044 29.8945 6.58825C29.1169 6.36016 28.3103 6.24621 27.5 6.24997C26.4289 6.24997 25.4961 6.51091 24.5094 6.78747C23.3203 7.12106 21.9695 7.49997 20 7.49997C18.0305 7.49997 16.6789 7.12184 15.4875 6.78825C14.5 6.51091 13.568 6.24997 12.5 6.24997C11.662 6.24706 10.8278 6.36065 10.0211 6.58747C6.34141 7.67497 3.84922 11.6718 2.16797 19.1656C0.360154 27.2297 1.25 32.3211 4.66328 33.5023C5.13116 33.6672 5.62344 33.7523 6.11953 33.7539C8.45781 33.7539 10.3328 31.8062 11.6141 30.2117C13.0617 28.407 14.7562 27.4914 20 27.4914C24.6836 27.4914 26.6219 28.1265 28.2961 30.2117C29.3484 31.5226 30.343 32.4398 31.3352 33.0172C32.6547 33.7843 33.9734 33.9547 35.2539 33.5148C37.2711 32.8265 38.4273 31.007 38.6914 28.1054C38.8922 25.8804 38.5828 22.9578 37.7445 19.1703ZM16.25 18.75H13.75V21.25C13.75 21.5815 13.6183 21.8994 13.3839 22.1339C13.1495 22.3683 12.8315 22.5 12.5 22.5C12.1685 22.5 11.8505 22.3683 11.6161 22.1339C11.3817 21.8994 11.25 21.5815 11.25 21.25V18.75H8.75C8.41848 18.75 8.10054 18.6183 7.86612 18.3839C7.63169 18.1494 7.5 17.8315 7.5 17.5C7.5 17.1684 7.63169 16.8505 7.86612 16.6161C8.10054 16.3817 8.41848 16.25 8.75 16.25H11.25V13.75C11.25 13.4184 11.3817 13.1005 11.6161 12.8661C11.8505 12.6317 12.1685 12.5 12.5 12.5C12.8315 12.5 13.1495 12.6317 13.3839 12.8661C13.6183 13.1005 13.75 13.4184 13.75 13.75V16.25H16.25C16.5815 16.25 16.8995 16.3817 17.1339 16.6161C17.3683 16.8505 17.5 17.1684 17.5 17.5C17.5 17.8315 17.3683 18.1494 17.1339 18.3839C16.8995 18.6183 16.5815 18.75 16.25 18.75ZM22.8125 19.0625C22.5035 19.0625 22.2014 18.9708 21.9444 18.7991C21.6875 18.6274 21.4872 18.3834 21.3689 18.0979C21.2507 17.8124 21.2197 17.4982 21.28 17.1951C21.3403 16.892 21.4891 16.6136 21.7076 16.3951C21.9262 16.1766 22.2046 16.0278 22.5077 15.9675C22.8108 15.9072 23.1249 15.9381 23.4104 16.0564C23.696 16.1747 23.94 16.3749 24.1117 16.6319C24.2834 16.8888 24.375 17.1909 24.375 17.5C24.375 17.9144 24.2104 18.3118 23.9174 18.6048C23.6243 18.8978 23.2269 19.0625 22.8125 19.0625ZM26.25 22.5C25.9408 22.5 25.6386 22.4082 25.3815 22.2364C25.1245 22.0645 24.9242 21.8202 24.8061 21.5345C24.6879 21.2488 24.6572 20.9344 24.7178 20.6312C24.7784 20.328 24.9276 20.0496 25.1465 19.8312C25.3654 19.6129 25.6442 19.4644 25.9476 19.4045C26.2509 19.3447 26.5652 19.3762 26.8507 19.495C27.1361 19.6139 27.3799 19.8148 27.5511 20.0722C27.7223 20.3297 27.8133 20.6322 27.8125 20.9414C27.8115 21.3551 27.6464 21.7515 27.3535 22.0437C27.0606 22.3359 26.6637 22.5 26.25 22.5ZM26.25 15.625C25.941 15.625 25.6389 15.5333 25.3819 15.3616C25.125 15.1899 24.9247 14.9459 24.8064 14.6604C24.6882 14.3749 24.6572 14.0607 24.7175 13.7576C24.7778 13.4545 24.9266 13.1761 25.1451 12.9576C25.3637 12.7391 25.6421 12.5903 25.9452 12.53C26.2483 12.4697 26.5624 12.5006 26.8479 12.6189C27.1335 12.7372 27.3775 12.9374 27.5492 13.1944C27.7209 13.4513 27.8125 13.7534 27.8125 14.0625C27.8125 14.4769 27.6479 14.8743 27.3549 15.1673C27.0618 15.4603 26.6644 15.625 26.25 15.625ZM29.6875 19.0625C29.3785 19.0625 29.0764 18.9708 28.8194 18.7991C28.5625 18.6274 28.3622 18.3834 28.2439 18.0979C28.1257 17.8124 28.0947 17.4982 28.155 17.1951C28.2153 16.892 28.3641 16.6136 28.5826 16.3951C28.8012 16.1766 29.0796 16.0278 29.3827 15.9675C29.6858 15.9072 29.9999 15.9381 30.2854 16.0564C30.571 16.1747 30.815 16.3749 30.9867 16.6319C31.1584 16.8888 31.25 17.1909 31.25 17.5C31.25 17.9144 31.0854 18.3118 30.7924 18.6048C30.4993 18.8978 30.1019 19.0625 29.6875 19.0625Z" fill="#2C50ED"/>
</g>
</g>
<defs>
<filter id="filter0_d_1414_36219" x="-2.74731" y="6.24988" width="45.4978" height="35.504" filterUnits="userSpaceOnUse" color-interpolation-filters="sRGB">
<feFlood flood-opacity="0" result="BackgroundImageFix"/>
<feColorMatrix in="SourceAlpha" type="matrix" values="0 0 0 0 0 0 0 0 0 0 0 0 0 0 0 0 0 0 127 0" result="hardAlpha"/>
<feOffset dy="4"/>
<feGaussianBlur stdDeviation="2"/>
<feComposite in2="hardAlpha" operator="out"/>
<feColorMatrix type="matrix" values="0 0 0 0 0 0 0 0 0 0 0 0 0 0 0 0 0 0 0.25 0"/>
<feBlend mode="normal" in2="BackgroundImageFix" result="effect1_dropShadow_1414_36219"/>
<feBlend mode="normal" in="SourceGraphic" in2="effect1_dropShadow_1414_36219" result="shape"/>
</filter>
<clipPath id="clip0_1414_36219">
<rect width="40" height="40" fill="white"/>
</clipPath>
</defs>
</svg>
