<svg width="24" height="23" viewBox="0 0 24 23" fill="none" xmlns="http://www.w3.org/2000/svg">
<g filter="url(#filter0_d_3861_27406)">
<path d="M5.52379 0.231319C5.45338 0.232928 5.3836 0.244933 5.3167 0.266944C5.05302 0.354038 4.84021 0.597319 4.72607 1.00293C4.61193 1.40854 4.62037 1.95309 4.80426 2.50504C4.98815 3.05699 5.30835 3.49869 5.64332 3.75594C5.97834 4.01319 6.29488 4.08154 6.5586 3.99444C6.82227 3.90735 7.03499 3.66416 7.14909 3.25851C7.26323 2.8529 7.25484 2.3083 7.0709 1.75635C6.88701 1.20435 6.56685 0.762788 6.23184 0.505538C5.98059 0.312601 5.73974 0.225882 5.52379 0.231319ZM14.1456 0.811304C13.9834 0.818663 13.8407 0.893288 13.7589 1.0618L13.1198 2.22173L11.8667 3.73621C11.8667 3.73621 9.34331 3.28959 8.48985 3.41451C8.31271 3.44016 8.13585 3.46777 7.95932 3.49734C7.78991 4.09059 7.40577 4.60321 6.82532 4.79493C6.28565 4.9732 5.7156 4.82784 5.24277 4.50534C5.02879 4.66991 4.83088 4.86069 4.65416 5.0833C3.77882 5.77049 3.41737 6.24332 2.68073 6.72018C2.82524 6.02343 3.18149 5.32907 3.57257 4.7571C3.63679 4.66321 4.1114 4.26234 4.1767 4.17557C4.52732 3.48623 3.77995 2.24357 3.07626 3.43213C3.00946 3.5249 2.73191 4.31699 2.66296 4.42101C1.97981 5.77415 1.55315 6.66243 1.93762 7.99874C2.06681 8.44771 3.38652 7.76882 4.52652 6.96004C5.76726 8.71035 7.30921 9.23835 8.20026 9.91682C7.10966 13.8254 8.68152 16.8198 9.57257 19.6537L8.20621 21.3453C7.79052 21.8434 10.4895 21.9599 10.663 21.3804L11.0244 19.7942C9.67298 15.5516 10.8771 12.4026 11.8504 10.0572C14.4382 7.28957 17.2518 6.19921 19.7676 4.02013L21.8911 3.56849C22.3996 2.63493 22.3709 2.17405 21.2417 2.12957L19.1359 2.95434C16.4834 4.44529 12.2916 5.45502 10.3939 7.54762C10.3518 6.88926 9.57824 5.33043 9.41409 4.80838C10.3222 4.92899 11.5548 5.00634 12.2567 4.68266C13.0069 4.33673 13.8331 2.77035 13.8331 2.77035L14.7548 2.08827C15.5547 1.6168 14.7253 0.785241 14.1457 0.811398L14.1456 0.811304Z" fill="#2C50ED"/>
</g>
<defs>
<filter id="filter0_d_3861_27406" x="-2.20752" y="0.231079" width="28.415" height="29.5378" filterUnits="userSpaceOnUse" color-interpolation-filters="sRGB">
<feFlood flood-opacity="0" result="BackgroundImageFix"/>
<feColorMatrix in="SourceAlpha" type="matrix" values="0 0 0 0 0 0 0 0 0 0 0 0 0 0 0 0 0 0 127 0" result="hardAlpha"/>
<feOffset dy="4"/>
<feGaussianBlur stdDeviation="2"/>
<feComposite in2="hardAlpha" operator="out"/>
<feColorMatrix type="matrix" values="0 0 0 0 0 0 0 0 0 0 0 0 0 0 0 0 0 0 0.25 0"/>
<feBlend mode="normal" in2="BackgroundImageFix" result="effect1_dropShadow_3861_27406"/>
<feBlend mode="normal" in="SourceGraphic" in2="effect1_dropShadow_3861_27406" result="shape"/>
</filter>
</defs>
</svg>
