<svg width="246" height="26" viewBox="0 0 246 26" fill="none" xmlns="http://www.w3.org/2000/svg">
<rect y="5" width="246" height="9" rx="4.5" fill="#2C50ED"/>
<rect y="5" width="246" height="9" rx="4.5" fill="#F4F5F9"/>
<rect y="5" width="246" height="9" rx="4.5" fill="#D3CACA" fill-opacity="0.2"/>
<rect y="5" width="69" height="9" rx="4.5" fill="#2C50ED"/>
<g filter="url(#filter0_d_162_35513)">
<rect x="59" width="35" height="18" rx="9" fill="#EEF5FD"/>
<rect x="59.5" y="0.5" width="34" height="17" rx="8.5" stroke="#2C50ED"/>
</g>
<path d="M62.5738 13L65.6668 6.87784V6.82812H62.0766V5.72727H67.0305V6.85298L63.941 13H62.5738ZM70.6153 13.0994C70.0874 13.0994 69.6186 13.0107 69.2091 12.8331C68.8019 12.6555 68.4823 12.4129 68.2503 12.1051C68.0206 11.795 67.907 11.4434 67.9094 11.0504C67.907 10.745 67.9733 10.4645 68.1082 10.2088C68.2432 9.95312 68.4255 9.74006 68.6551 9.5696C68.8871 9.39678 69.1452 9.28669 69.4292 9.23935V9.18963C69.0552 9.10677 68.7522 8.91619 68.5202 8.6179C68.2905 8.31723 68.1769 7.97041 68.1792 7.57741C68.1769 7.20336 68.281 6.86955 68.4917 6.57599C68.7024 6.28243 68.9913 6.05161 69.3582 5.88352C69.7252 5.71307 70.1442 5.62784 70.6153 5.62784C71.0817 5.62784 71.4972 5.71307 71.8618 5.88352C72.2287 6.05161 72.5175 6.28243 72.7282 6.57599C72.9413 6.86955 73.0479 7.20336 73.0479 7.57741C73.0479 7.97041 72.9307 8.31723 72.6963 8.6179C72.4643 8.91619 72.1648 9.10677 71.7979 9.18963V9.23935C72.0819 9.28669 72.3376 9.39678 72.5649 9.5696C72.7945 9.74006 72.9768 9.95312 73.1118 10.2088C73.2491 10.4645 73.3177 10.745 73.3177 11.0504C73.3177 11.4434 73.2017 11.795 72.9697 12.1051C72.7377 12.4129 72.4181 12.6555 72.0109 12.8331C71.6061 13.0107 71.1409 13.0994 70.6153 13.0994ZM70.6153 12.0838C70.8876 12.0838 71.1243 12.0376 71.3256 11.9453C71.5268 11.8506 71.683 11.718 71.7943 11.5476C71.9056 11.3771 71.9624 11.1806 71.9648 10.9581C71.9624 10.7261 71.902 10.5213 71.7836 10.3438C71.6676 10.1638 71.5078 10.023 71.3042 9.92116C71.103 9.81937 70.8734 9.76847 70.6153 9.76847C70.3549 9.76847 70.1229 9.81937 69.9193 9.92116C69.7157 10.023 69.5547 10.1638 69.4363 10.3438C69.3203 10.5213 69.2635 10.7261 69.2659 10.9581C69.2635 11.1806 69.318 11.3771 69.4292 11.5476C69.5405 11.7157 69.6968 11.8471 69.898 11.9418C70.1016 12.0365 70.3407 12.0838 70.6153 12.0838ZM70.6153 8.7706C70.8379 8.7706 71.0344 8.72562 71.2048 8.63565C71.3776 8.54569 71.5138 8.42022 71.6132 8.25923C71.7126 8.09825 71.7635 7.91241 71.7659 7.7017C71.7635 7.49337 71.7138 7.31108 71.6167 7.15483C71.5197 6.99621 71.3847 6.87429 71.2119 6.78906C71.0391 6.70147 70.8402 6.65767 70.6153 6.65767C70.3857 6.65767 70.1833 6.70147 70.0081 6.78906C69.8353 6.87429 69.7003 6.99621 69.6032 7.15483C69.5086 7.31108 69.4624 7.49337 69.4648 7.7017C69.4624 7.91241 69.5097 8.09825 69.6068 8.25923C69.7062 8.41785 69.8424 8.54332 70.0152 8.63565C70.1904 8.72562 70.3904 8.7706 70.6153 8.7706ZM75.0764 13.0781C74.861 13.0781 74.6763 13.0024 74.5225 12.8509C74.3686 12.6993 74.2928 12.5147 74.2952 12.2969C74.2928 12.0838 74.3686 11.9015 74.5225 11.75C74.6763 11.5985 74.861 11.5227 75.0764 11.5227C75.2848 11.5227 75.4659 11.5985 75.6198 11.75C75.776 11.9015 75.8553 12.0838 75.8577 12.2969C75.8553 12.4413 75.8174 12.5727 75.7441 12.6911C75.673 12.8094 75.5783 12.9041 75.46 12.9751C75.344 13.0438 75.2161 13.0781 75.0764 13.0781ZM79.5882 5.62784C79.9362 5.63021 80.2747 5.69176 80.6038 5.8125C80.9352 5.93087 81.2335 6.125 81.4987 6.39489C81.7638 6.66241 81.9745 7.02107 82.1308 7.47088C82.287 7.92069 82.3651 8.47704 82.3651 9.13991C82.3675 9.76491 82.3012 10.3236 82.1663 10.8161C82.0337 11.3061 81.8431 11.7204 81.5945 12.0589C81.346 12.3975 81.0465 12.6555 80.6961 12.8331C80.3457 13.0107 79.9516 13.0994 79.5136 13.0994C79.0543 13.0994 78.6471 13.0095 78.292 12.8295C77.9392 12.6496 77.654 12.4034 77.4362 12.0909C77.2184 11.7784 77.0846 11.4209 77.0349 11.0185H78.3311C78.3973 11.3073 78.5323 11.5369 78.7359 11.7074C78.9419 11.8755 79.2011 11.9595 79.5136 11.9595C80.0178 11.9595 80.4061 11.7405 80.6784 11.3026C80.9506 10.8646 81.0867 10.2562 81.0867 9.47727H81.037C80.921 9.68561 80.7707 9.86553 80.586 10.017C80.4014 10.1662 80.1919 10.281 79.9575 10.3615C79.7255 10.442 79.4793 10.4822 79.2188 10.4822C78.7927 10.4822 78.4092 10.3804 78.0683 10.1768C77.7297 9.97325 77.461 9.69389 77.2622 9.33878C77.0657 8.98366 76.9662 8.57765 76.9639 8.12074C76.9639 7.64725 77.0728 7.2223 77.2906 6.84588C77.5107 6.46709 77.8173 6.1688 78.2103 5.95099C78.6033 5.73082 79.0626 5.62311 79.5882 5.62784ZM79.5917 6.69318C79.336 6.69318 79.1052 6.75592 78.8992 6.88139C78.6956 7.0045 78.5347 7.17259 78.4163 7.38565C78.3003 7.59635 78.2423 7.83191 78.2423 8.09233C78.2446 8.35038 78.3026 8.58475 78.4163 8.79545C78.5323 9.00616 78.6897 9.17306 78.8886 9.29616C79.0898 9.41927 79.3195 9.48082 79.5775 9.48082C79.7693 9.48082 79.948 9.44413 80.1137 9.37074C80.2794 9.29735 80.4239 9.19555 80.547 9.06534C80.6724 8.93277 80.7695 8.78243 80.8382 8.61435C80.9092 8.44626 80.9435 8.2687 80.9411 8.08168C80.9411 7.8331 80.882 7.60346 80.7636 7.39276C80.6476 7.18205 80.4878 7.01278 80.2842 6.88494C80.0829 6.7571 79.8521 6.69318 79.5917 6.69318ZM87.4362 11.6364V11.2528C87.4362 10.9711 87.4954 10.7119 87.6137 10.4751C87.7345 10.2384 87.9097 10.0478 88.1393 9.90341C88.3689 9.759 88.6471 9.68679 88.9738 9.68679C89.31 9.68679 89.5917 9.759 89.819 9.90341C90.0463 10.0455 90.2179 10.2348 90.3339 10.4716C90.4523 10.7083 90.5115 10.9687 90.5115 11.2528V11.6364C90.5115 11.9181 90.4523 12.1773 90.3339 12.4141C90.2155 12.6508 90.0415 12.8414 89.8119 12.9858C89.5846 13.1302 89.3052 13.2024 88.9738 13.2024C88.6424 13.2024 88.3618 13.1302 88.1322 12.9858C87.9026 12.8414 87.7285 12.6508 87.6102 12.4141C87.4942 12.1773 87.4362 11.9181 87.4362 11.6364ZM88.363 11.2528V11.6364C88.363 11.8234 88.408 11.995 88.498 12.1513C88.5879 12.3075 88.7465 12.3857 88.9738 12.3857C89.2035 12.3857 89.3609 12.3087 89.4461 12.1548C89.5337 11.9986 89.5775 11.8258 89.5775 11.6364V11.2528C89.5775 11.0634 89.5361 10.8906 89.4532 10.7344C89.3704 10.5758 89.2106 10.4964 88.9738 10.4964C88.7513 10.4964 88.5938 10.5758 88.5015 10.7344C88.4092 10.8906 88.363 11.0634 88.363 11.2528ZM83.7394 7.47443V7.09091C83.7394 6.80682 83.7998 6.5464 83.9205 6.30966C84.0413 6.07292 84.2165 5.88352 84.4461 5.74148C84.6758 5.59706 84.9539 5.52486 85.2806 5.52486C85.6144 5.52486 85.895 5.59706 86.1222 5.74148C86.3519 5.88352 86.5247 6.07292 86.6407 6.30966C86.7567 6.5464 86.8147 6.80682 86.8147 7.09091V7.47443C86.8147 7.75852 86.7555 8.01894 86.6372 8.25568C86.5212 8.49006 86.3483 8.67827 86.1187 8.82031C85.8891 8.96236 85.6097 9.03338 85.2806 9.03338C84.9468 9.03338 84.6651 8.96236 84.4355 8.82031C84.2082 8.67827 84.0354 8.48887 83.917 8.25213C83.7986 8.01539 83.7394 7.75616 83.7394 7.47443ZM84.6734 7.09091V7.47443C84.6734 7.66383 84.7172 7.83665 84.8048 7.9929C84.8947 8.14678 85.0534 8.22372 85.2806 8.22372C85.5079 8.22372 85.6642 8.14678 85.7494 7.9929C85.837 7.83665 85.8808 7.66383 85.8808 7.47443V7.09091C85.8808 6.90152 85.8393 6.72869 85.7565 6.57244C85.6736 6.41383 85.515 6.33452 85.2806 6.33452C85.0557 6.33452 84.8983 6.41383 84.8083 6.57244C84.7184 6.73106 84.6734 6.90388 84.6734 7.09091ZM84.1443 13L89.1443 5.72727H90.032L85.032 13H84.1443Z" fill="black"/>
<defs>
<filter id="filter0_d_162_35513" x="55" y="0" width="43" height="26" filterUnits="userSpaceOnUse" color-interpolation-filters="sRGB">
<feFlood flood-opacity="0" result="BackgroundImageFix"/>
<feColorMatrix in="SourceAlpha" type="matrix" values="0 0 0 0 0 0 0 0 0 0 0 0 0 0 0 0 0 0 127 0" result="hardAlpha"/>
<feOffset dy="4"/>
<feGaussianBlur stdDeviation="2"/>
<feComposite in2="hardAlpha" operator="out"/>
<feColorMatrix type="matrix" values="0 0 0 0 0 0 0 0 0 0 0 0 0 0 0 0 0 0 0.25 0"/>
<feBlend mode="normal" in2="BackgroundImageFix" result="effect1_dropShadow_162_35513"/>
<feBlend mode="normal" in="SourceGraphic" in2="effect1_dropShadow_162_35513" result="shape"/>
</filter>
</defs>
</svg>
