<svg width="24" height="24" viewBox="0 0 24 24" fill="none" xmlns="http://www.w3.org/2000/svg">
<path d="M3.35981 10.495V17.652H6.38981L6.54281 17.67C9.35581 18.326 11.2198 18.799 12.1488 19.092C13.3828 19.481 13.8428 19.576 14.6798 19.632C15.3058 19.675 16.0168 19.434 16.3408 19.104C16.5198 18.922 16.6538 18.548 16.7068 17.968C16.7178 17.8464 16.7613 17.73 16.8327 17.6309C16.9041 17.5319 17.0009 17.4538 17.1128 17.405C17.3618 17.297 17.5688 17.121 17.7418 16.865C17.9018 16.631 18.0058 16.195 18.0248 15.564C18.0281 15.448 18.061 15.3348 18.1204 15.235C18.1797 15.1353 18.2635 15.0523 18.3638 14.994C18.9458 14.657 19.2338 14.277 19.2938 13.831C19.3598 13.338 19.1998 12.783 18.7808 12.151C18.6825 12.0028 18.6459 11.8221 18.6788 11.6473C18.7116 11.4725 18.8114 11.3174 18.9568 11.215C19.3578 10.933 19.5778 10.541 19.6328 9.98502C19.7208 9.09902 19.1558 8.44402 17.8768 8.31302C16.7377 8.20035 15.5875 8.29626 14.4828 8.59602C14.3575 8.62877 14.2254 8.62504 14.1021 8.58529C13.9789 8.54553 13.8695 8.47139 13.787 8.37159C13.7044 8.27179 13.652 8.15049 13.6361 8.02195C13.6201 7.89341 13.6412 7.76299 13.6968 7.64602C14.1968 6.58802 14.4748 5.71502 14.5398 5.03902C14.6248 4.14202 14.4178 3.49202 13.9338 2.95602C13.5668 2.55002 12.9798 2.31802 12.7598 2.36602C12.4698 2.42802 12.2808 2.59602 12.0348 3.18402C11.8898 3.53202 11.8198 3.82802 11.6998 4.51902C11.5848 5.17502 11.5218 5.47102 11.3908 5.85902C10.9958 7.03502 10.0268 8.25402 8.72581 9.09502C7.814 9.68373 6.82581 10.1447 5.78881 10.465C5.72402 10.485 5.6566 10.4951 5.58881 10.495H3.35981ZM3.31781 19.015C2.99481 19.024 2.70481 18.952 2.46181 18.782C2.15181 18.565 2.00581 18.223 2.00281 17.829L2.00581 10.506C1.97181 10.116 2.08681 9.75802 2.35881 9.49202C2.61381 9.24202 2.94681 9.12402 3.29881 9.13202H5.48381C6.36766 8.85039 7.21033 8.45294 7.98981 7.95002C9.03781 7.27202 9.80981 6.30002 10.1048 5.42402C10.2058 5.12202 10.2598 4.87202 10.3618 4.28402C10.4998 3.49502 10.5858 3.12802 10.7838 2.65602C11.1938 1.67402 11.7318 1.19402 12.4738 1.03302C13.2038 0.875018 14.2668 1.29602 14.9388 2.04002C15.6838 2.86402 16.0128 3.89502 15.8908 5.16902C15.8388 5.71702 15.6868 6.33002 15.4368 7.01302C16.2906 6.8886 17.1564 6.86979 18.0148 6.95702C20.0218 7.16202 21.1488 8.46902 20.9848 10.121C20.9128 10.833 20.6548 11.438 20.2158 11.913C20.5848 12.624 20.7318 13.327 20.6398 14.013C20.5338 14.803 20.0938 15.461 19.3618 15.972C19.3048 16.665 19.1458 17.218 18.8638 17.632C18.6416 17.9665 18.3517 18.2506 18.0128 18.466C17.9048 19.15 17.6778 19.685 17.3068 20.061C16.6918 20.687 15.5928 21.06 14.5888 20.992C13.6358 20.928 13.0718 20.812 11.7418 20.392C10.8648 20.115 9.04881 19.655 6.31181 19.015H3.31781ZM5.01881 10.184C5.01854 10.0946 5.03594 10.0059 5.06999 9.92318C5.10405 9.84045 5.1541 9.76525 5.21727 9.70189C5.28044 9.63854 5.35549 9.58827 5.43812 9.55397C5.52075 9.51967 5.60934 9.50202 5.69881 9.50202C5.78811 9.50228 5.87648 9.52013 5.95888 9.55454C6.04128 9.58896 6.1161 9.63927 6.17905 9.7026C6.24201 9.76593 6.29188 9.84104 6.32581 9.92364C6.35974 10.0062 6.37707 10.0947 6.37681 10.184V17.862C6.37694 17.9513 6.35948 18.0398 6.32543 18.1223C6.29138 18.2049 6.2414 18.2799 6.17835 18.3431C6.1153 18.4064 6.04041 18.4566 5.95796 18.4909C5.8755 18.5252 5.78711 18.5429 5.69781 18.543C5.60851 18.5429 5.52011 18.5252 5.43766 18.4909C5.35521 18.4566 5.28032 18.4064 5.21727 18.3431C5.15422 18.2799 5.10424 18.2049 5.07019 18.1223C5.03613 18.0398 5.01868 17.9513 5.01881 17.862V10.184Z" fill="#2C50ED"/>
</svg>
