<svg width="20" height="20" viewBox="0 0 20 20" fill="none" xmlns="http://www.w3.org/2000/svg">
<path d="M1.43134 9.49503V16.652H4.62072L4.78177 16.67C7.74273 17.326 9.70478 17.799 10.6827 18.092C11.9816 18.481 12.4658 18.576 13.3468 18.632C14.0057 18.675 14.7541 18.434 15.0952 18.104C15.2836 17.922 15.4246 17.548 15.4804 16.968C15.492 16.8464 15.5377 16.73 15.6129 16.6309C15.6881 16.5319 15.7899 16.4539 15.9078 16.405C16.1699 16.297 16.3878 16.121 16.5699 15.865C16.7383 15.631 16.8477 15.195 16.8677 14.564C16.8713 14.448 16.9059 14.3348 16.9683 14.2351C17.0308 14.1353 17.119 14.0524 17.2246 13.994C17.8372 13.657 18.1403 13.277 18.2035 12.831C18.273 12.338 18.1045 11.783 17.6635 11.151C17.56 11.0028 17.5215 10.8221 17.5561 10.6473C17.5907 10.4725 17.6957 10.3174 17.8488 10.215C18.2709 9.93303 18.5024 9.54103 18.5603 8.98503C18.653 8.09903 18.0582 7.44403 16.712 7.31303C15.5129 7.20036 14.3023 7.29627 13.1394 7.59603C13.0075 7.62878 12.8685 7.62506 12.7387 7.5853C12.609 7.54554 12.4939 7.4714 12.407 7.3716C12.3201 7.2718 12.2649 7.1505 12.2481 7.02196C12.2313 6.89342 12.2535 6.763 12.3121 6.64603C12.8384 5.58803 13.131 4.71502 13.1994 4.03902C13.2889 3.14202 13.071 2.49202 12.5615 1.95602C12.1752 1.55002 11.5574 1.31802 11.3258 1.36602C11.0205 1.42802 10.8216 1.59602 10.5627 2.18402C10.41 2.53202 10.3363 2.82802 10.21 3.51902C10.089 4.17502 10.0227 4.47103 9.88478 4.85903C9.469 6.03503 8.44903 7.25403 7.0796 8.09503C6.11983 8.68375 5.07965 9.1447 3.9881 9.46503C3.91991 9.485 3.84894 9.49512 3.77758 9.49503H1.43134ZM1.38713 18.015C1.04714 18.024 0.741881 17.952 0.486099 17.782C0.159792 17.565 0.00611242 17.223 0.00295462 16.829L0.00611242 9.50603C-0.029676 9.11603 0.0913731 8.75803 0.377681 8.49203C0.646094 8.24203 0.996611 8.12403 1.36713 8.13203H3.66706C4.59741 7.8504 5.4844 7.45295 6.30488 6.95003C7.40801 6.27203 8.22062 5.30003 8.53113 4.42402C8.63745 4.12202 8.69429 3.87202 8.80165 3.28402C8.94691 2.49502 9.03743 2.12802 9.24585 1.65602C9.67742 0.674019 10.2437 0.194019 11.0247 0.0330184C11.7931 -0.124982 12.9121 0.296019 13.6194 1.04002C14.4036 1.86402 14.7499 2.89502 14.6215 4.16902C14.5668 4.71703 14.4068 5.33003 14.1436 6.01303C15.0423 5.8886 15.9537 5.86979 16.8572 5.95703C18.9698 6.16203 20.1561 7.46903 19.9834 9.12103C19.9077 9.83303 19.6361 10.438 19.174 10.913C19.5624 11.624 19.7171 12.327 19.6203 13.013C19.5087 13.803 19.0456 14.461 18.2751 14.972C18.2151 15.665 18.0477 16.218 17.7509 16.632C17.517 16.9665 17.2118 17.2506 16.8551 17.466C16.7414 18.15 16.5025 18.685 16.112 19.061C15.4646 19.687 14.3078 20.06 13.251 19.992C12.2479 19.928 11.6542 19.812 10.2542 19.392C9.33111 19.115 7.41959 18.655 4.53861 18.015H1.38713ZM3.1776 9.18403C3.17732 9.09456 3.19563 9.00592 3.23148 8.92319C3.26733 8.84046 3.32001 8.76526 3.3865 8.7019C3.45299 8.63855 3.53199 8.58828 3.61897 8.55398C3.70595 8.51968 3.7992 8.50203 3.89337 8.50203C3.98737 8.50229 4.08039 8.52014 4.16712 8.55456C4.25386 8.58897 4.33261 8.63928 4.39888 8.70261C4.46515 8.76594 4.51764 8.84105 4.55336 8.92365C4.58907 9.00626 4.60731 9.09473 4.60703 9.18403L8.35678 5.53613L9.5 4.5L11.5 4L12 3L12.0499 1.5L11.3258 1.18445L13.6194 2.18402V6.64603L17.8488 6.95003L19.174 8.92319L17.6635 15.6502L14.1436 19.061L4.60703 16.862C4.60717 16.9513 4.5888 17.0398 4.55295 17.1223C4.51711 17.2049 4.4645 17.2799 4.39813 17.3432C4.33177 17.4064 4.25294 17.4566 4.16615 17.4909C4.07936 17.5252 3.98631 17.5429 3.89232 17.543C3.79832 17.5429 3.70527 17.5252 3.61848 17.4909C3.5317 17.4566 3.45287 17.4064 3.3865 17.3432C3.32013 17.2799 3.26753 17.2049 3.23168 17.1223C3.19584 17.0398 3.17746 16.9513 3.1776 16.862V9.18403Z" fill="#2C50ED"/>
</svg>
