<svg width="17" height="12" viewBox="0 0 17 12" fill="none" xmlns="http://www.w3.org/2000/svg">
<path d="M11.2814 0.544902C9.76616 0.544902 8.25195 0.539902 6.73674 0.544902C6.23118 0.53451 5.7852 0.873144 5.66075 1.3619C5.52269 1.83009 5.71882 2.33221 6.13808 2.5839C6.3362 2.69382 6.55822 2.75389 6.78488 2.7589C9.78588 2.77024 12.7872 2.77224 15.7889 2.7649C16.1001 2.79016 16.4076 2.6839 16.6365 2.47206C16.8653 2.26021 16.9944 1.96226 16.9922 1.6509C16.9918 1.3408 16.8617 1.04492 16.6333 0.834451C16.4049 0.623979 16.0989 0.517962 15.7889 0.541902C14.2827 0.539902 12.7815 0.543902 11.2814 0.544902Z" fill="white"/>
<path d="M11.3144 7.22592C12.8005 7.22592 14.2867 7.22592 15.7738 7.22592C16.0845 7.25849 16.3946 7.15812 16.6269 6.94974C16.8591 6.74135 16.9919 6.4445 16.9922 6.13292C16.9965 5.82201 16.8703 5.52347 16.644 5.30957C16.4177 5.09568 16.112 4.98594 15.8009 5.00692C12.7992 5.00225 9.79787 5.00225 6.79687 5.00692C6.22771 4.97063 5.72466 5.373 5.63665 5.93492C5.54193 6.46203 5.84486 6.97977 6.35163 7.15692C6.52911 7.20791 6.71357 7.23052 6.89815 7.22392C8.37024 7.22792 9.84233 7.22592 11.3144 7.22592Z" fill="white"/>
<path d="M11.3226 11.6869C12.8378 11.6869 14.352 11.6939 15.8672 11.6869C16.439 11.7097 16.929 11.283 16.9833 10.7149C17.0523 10.1698 16.7073 9.65747 16.1751 9.51492C16.0648 9.48595 15.9512 9.47182 15.8372 9.47292C12.8221 9.47292 9.80675 9.47292 6.79104 9.47292C6.34948 9.44812 5.93652 9.69134 5.74513 10.0889C5.54906 10.4511 5.58031 10.8937 5.82535 11.2249C6.04844 11.5497 6.42857 11.7309 6.82212 11.6999C8.32129 11.6839 9.82145 11.6869 11.3226 11.6869Z" fill="white"/>
<path d="M2.74965 2.76694C3.0214 2.76694 3.29416 2.77994 3.56491 2.76694C4.16657 2.741 4.63776 2.24139 4.62686 1.64094C4.61936 1.05639 4.15466 0.579807 3.56892 0.55594C3.01138 0.53394 2.45182 0.53294 1.89527 0.55594C1.30782 0.579791 0.848568 1.06985 0.864412 1.65594C0.849479 2.2414 1.30479 2.73225 1.89126 2.76294C2.17605 2.78194 2.46285 2.76294 2.74965 2.76294V2.76694Z" fill="white"/>
<path d="M2.76759 11.6859C3.02531 11.6859 3.28303 11.6959 3.53974 11.6859C4.14267 11.6772 4.62682 11.1873 4.62676 10.5859C4.63519 9.98338 4.15588 9.48622 3.55177 9.47094C3.00927 9.45094 2.46475 9.44994 1.92124 9.47094C1.63129 9.47874 1.35653 9.60199 1.15832 9.81318C0.96011 10.0244 0.854948 10.3059 0.866313 10.5949C0.863085 10.8838 0.97624 11.1618 1.18041 11.3668C1.38457 11.5717 1.66266 11.6863 1.95233 11.6849C2.22408 11.6949 2.49584 11.6859 2.76759 11.6859Z" fill="white"/>
<path d="M2.7305 7.22391C3.00225 7.22391 3.27501 7.23291 3.54576 7.22391C4.14633 7.21193 4.62688 6.72294 4.62676 6.12391C4.63099 5.53859 4.17482 5.05249 3.58888 5.01791C3.01729 4.99191 2.4437 4.99191 1.87211 5.01791C1.28607 5.0565 0.83956 5.55698 0.869326 6.14191C0.866346 6.72694 1.33183 7.20755 1.91824 7.22491C2.18699 7.23391 2.45874 7.22391 2.7305 7.22391Z" fill="white"/>
</svg>
