<svg width="92" height="25" viewBox="0 0 92 25" fill="none" xmlns="http://www.w3.org/2000/svg">
<path d="M39.6969 0H38.017V23.515H39.6969V0Z" fill="#AEB0AF"/>
<path opacity="0.3" d="M74.3947 0H72.7148V23.515H74.3947V0Z" fill="#AEB0AF"/>
<path d="M41.4241 6.83813V23.5163H43.0758V6.83813H41.4241Z" fill="#AEB0AF"/>
<path opacity="0.3" d="M76.1177 6.83813V23.5163H77.7694V6.83813H76.1177Z" fill="#AEB0AF"/>
<path d="M34.5389 8.55005V9.1972C34.5389 13.97 34.5389 18.7428 34.5389 23.5157H36.2402V8.55005H34.5389Z" fill="#AEB0AF"/>
<path opacity="0.4" d="M69.2366 8.55005V9.1972C69.2366 13.97 69.2366 18.7428 69.2366 23.5157H70.9379V8.55005H69.2366Z" fill="#AEB0AF"/>
<path d="M49.9438 13.9153C49.8671 13.8026 49.7488 13.6346 49.6371 13.6256C49.1941 13.5929 48.7476 13.612 48.2842 13.612V23.5166H49.9596C49.9596 20.4086 49.9596 17.3003 49.9596 14.1915C49.9539 14.098 49.9866 13.9807 49.9438 13.9153Z" fill="#AEB0AF"/>
<path opacity="0.2" d="M84.6374 13.9153C84.5607 13.8026 84.4423 13.6346 84.3307 13.6256C83.8876 13.5929 83.4412 13.612 82.9778 13.612V23.5166H84.6532C84.6532 20.4086 84.6532 17.3003 84.6532 14.1915C84.6475 14.098 84.6802 13.9807 84.6374 13.9153Z" fill="#AEB0AF"/>
<path d="M46.5291 17.334C46.4626 17.2111 46.3408 17.0409 46.2314 17.033C45.7726 16.9992 45.3092 17.0195 44.8312 17.0195V23.5146H46.5381C46.5381 21.5657 46.5381 19.6163 46.5381 17.6666C46.5404 17.5539 46.5764 17.422 46.5291 17.334Z" fill="#AEB0AF"/>
<path opacity="0.3" d="M81.2226 17.334C81.1561 17.2111 81.0344 17.0409 80.925 17.033C80.4661 16.9992 80.0028 17.0195 79.5247 17.0195V23.5146H81.2317C81.2317 21.5657 81.2317 19.6163 81.2317 17.6666C81.2339 17.5539 81.27 17.422 81.2226 17.334Z" fill="#AEB0AF"/>
<path d="M31.7647 17.0111C31.2765 16.9592 31.1254 17.1238 31.1277 17.6323C31.1374 19.5933 31.1419 21.5546 31.1412 23.5164H32.8132V17.0223C32.4637 17.0362 32.1138 17.0324 31.7647 17.0111Z" fill="#AEB0AF"/>
<path opacity="0.4" d="M66.4499 17.0111C65.9617 16.9592 65.8106 17.1238 65.8129 17.6323C65.8226 19.5933 65.8272 21.5546 65.8264 23.5164H67.4984V17.0223C67.1489 17.0362 66.799 17.0324 66.4499 17.0111Z" fill="#AEB0AF"/>
<path opacity="0.6" d="M51.6955 20.5029V23.5143H53.3212V20.5029H51.6955Z" fill="#AEB0AF"/>
<path opacity="0.2" d="M86.3807 20.5029V23.5143H88.0064V20.5029H86.3807Z" fill="#AEB0AF"/>
<path opacity="0.4" d="M62.4727 20.4956V23.5149H64.0962V20.4956H62.4727Z" fill="#AEB0AF"/>
<path opacity="0.6" d="M55.4134 23.3976C55.8566 23.5022 56.3151 23.5247 56.7664 23.4641V17.8991H55.0842C55.0842 19.2802 55.091 20.65 55.0989 22.0187C55.1023 22.5103 55.1192 23.3198 55.4134 23.3976Z" fill="#AEB0AF"/>
<path opacity="0.6" d="M59.5198 23.5157H58.5807V18.8008H58.5953C58.5807 17.8988 58.5807 16.8255 58.5807 15.5481H60.282V22.8764C60.2672 23.0987 60.2672 23.3217 60.282 23.5439H59.9178C59.7846 23.5466 59.6514 23.5372 59.5198 23.5157Z" fill="#AEB0AF" stroke="black" stroke-opacity="0.01"/>
<path opacity="0.2" d="M89.8992 22.1748C89.8665 22.1748 89.8361 22.2075 89.7752 22.2425V23.5165H91.4765C91.4776 22.0598 91.4449 22.061 89.8992 22.1748Z" fill="#AEB0AF"/>
<path d="M15.3374 0H13.6575V23.515H15.3374V0Z" fill="#AEB0AF"/>
<path d="M17.0562 6.83813V23.5163H18.7079V6.83813H17.0562Z" fill="#AEB0AF"/>
<path d="M10.1752 8.55005V9.1972C10.1752 13.97 10.1752 18.7428 10.1752 23.5157H11.8765V8.55005H10.1752Z" fill="#AEB0AF"/>
<path d="M25.5718 13.9153C25.4951 13.8026 25.3767 13.6346 25.2651 13.6256C24.822 13.5929 24.3756 13.612 23.9122 13.612V23.5166H25.5876C25.5876 20.4086 25.5876 17.3003 25.5876 14.1915C25.5819 14.098 25.6146 13.9807 25.5718 13.9153Z" fill="#AEB0AF"/>
<path d="M22.1654 17.334C22.0989 17.2111 21.9771 17.0409 21.8678 17.033C21.4089 16.9992 20.9455 17.0195 20.4675 17.0195V23.5146H22.1744C22.1744 21.5657 22.1744 19.6163 22.1744 17.6666C22.1767 17.5539 22.2128 17.422 22.1654 17.334Z" fill="#AEB0AF"/>
<path d="M7.39264 17.0111C6.90445 16.9592 6.75338 17.1238 6.75563 17.6323C6.7654 19.5933 6.76991 21.5546 6.76916 23.5164H8.44115V17.0223C8.09168 17.0362 7.74173 17.0324 7.39264 17.0111Z" fill="#AEB0AF"/>
<path d="M27.3276 20.5029V23.5143H28.9534V20.5029H27.3276Z" fill="#AEB0AF"/>
<path d="M3.41543 20.4956V23.5149H5.03894V20.4956H3.41543Z" fill="#AEB0AF"/>
<path d="M1.35293 22.1744C0.912098 22.1338 0.465632 22.1586 0 22.1586V23.5116H1.68214C1.68214 23.1733 1.67537 22.8407 1.66748 22.507C1.62713 22.3492 1.5082 22.2235 1.35293 22.1744Z" fill="#AEB0AF"/>
</svg>
