<svg width="14" height="16" viewBox="0 0 14 16" fill="none" xmlns="http://www.w3.org/2000/svg">
<path d="M6.86523 8C7.29492 8 7.66289 7.8432 7.96914 7.5296C8.27539 7.216 8.42825 6.83947 8.42773 6.4C8.42773 5.96 8.27461 5.5832 7.96836 5.2696C7.66211 4.956 7.2944 4.79947 6.86523 4.8C6.43555 4.8 6.06758 4.9568 5.76133 5.2704C5.45508 5.584 5.30221 5.96053 5.30273 6.4C5.30273 6.84 5.45586 7.2168 5.76211 7.5304C6.06836 7.844 6.43607 8.00053 6.86523 8ZM6.86523 13.88C8.45377 12.3867 9.63216 11.0299 10.4004 9.8096C11.1686 8.58933 11.5527 7.50613 11.5527 6.56C11.5527 5.10667 11.1001 3.9168 10.1949 2.9904C9.28971 2.064 8.17982 1.60053 6.86523 1.6C5.55013 1.6 4.43997 2.06347 3.53477 2.9904C2.62956 3.91733 2.17721 5.1072 2.17773 6.56C2.17773 7.50667 2.56185 8.59013 3.33008 9.8104C4.09831 11.0307 5.27669 12.3872 6.86523 13.88ZM6.86523 16C4.76888 14.1733 3.20325 12.4768 2.16836 10.9104C1.13346 9.344 0.615755 7.89387 0.615234 6.56C0.615234 4.56 1.24362 2.96667 2.50039 1.78C3.75716 0.593333 5.21211 0 6.86523 0C8.51888 0 9.97409 0.593333 11.2309 1.78C12.4876 2.96667 13.1158 4.56 13.1152 6.56C13.1152 7.89333 12.5975 9.34347 11.5621 10.9104C10.5267 12.4773 8.96107 14.1739 6.86523 16Z" fill="#2C50ED"/>
</svg>
