<svg width="14" height="17" viewBox="0 0 14 17" fill="none" xmlns="http://www.w3.org/2000/svg">
<path d="M3 6.0533V4.04147C3 1.84104 4.78125 0.0178223 7 0.0178223C9.1875 0.0178223 11 1.84104 11 4.04147V6.0533H11.5C12.875 6.0533 14 7.18495 14 8.56808V13.5976C14 15.0122 12.875 16.1124 11.5 16.1124H2.5C1.09375 16.1124 0 15.0122 0 13.5976V8.56808C0 7.18495 1.09375 6.0533 2.5 6.0533H3ZM4 6.0533H10V4.04147C10 2.37543 8.65625 1.02374 7 1.02374C5.3125 1.02374 4 2.37543 4 4.04147V6.0533ZM1 13.5976C1 14.4464 1.65625 15.1065 2.5 15.1065H11.5C12.3125 15.1065 13 14.4464 13 13.5976V8.56808C13 7.75078 12.3125 7.05921 11.5 7.05921H2.5C1.65625 7.05921 1 7.75078 1 8.56808V13.5976Z" fill="#1F1F1F"/>
</svg>
