<svg width="35" height="12" viewBox="0 0 35 12" fill="none" xmlns="http://www.w3.org/2000/svg">
<path fill-rule="evenodd" clip-rule="evenodd" d="M8.03211 4.15564C7.94411 8.09964 9.38411 10.1046 12.6841 10.6556L12.6871 10.6526C14.5531 10.511 16.2021 9.38563 17.0141 7.69964C17.5566 6.27933 17.6268 4.72196 17.2141 3.25864C16.1101 1.18464 14.6611 0.176636 12.7871 0.176636C12.2392 0.184713 11.6937 0.251766 11.1601 0.376636C8.99411 0.876636 8.26311 3.13764 8.05011 4.08564C8.04638 4.10949 8.04035 4.13294 8.03211 4.15564ZM10.8991 5.19464C10.9675 4.18733 11.7956 3.40005 12.8051 3.38264V3.37964C13.6701 3.37964 14.0391 3.83164 14.0401 4.88164C13.9894 5.93254 13.1918 6.79549 12.1481 6.92864C11.3311 6.92864 10.8991 6.32964 10.8991 5.19464Z" fill="white"/>
<path d="M20.479 0.964725C20.479 0.964725 23.854 -1.31727 25.76 1.68273C25.6333 2.41725 25.2022 3.06408 24.573 3.46373L22.404 3.01173L21.951 3.93373L24.651 5.68373C24.651 5.68373 28.339 9.80873 22.76 10.4967C22.51 10.4347 19.666 11.3557 18.838 9.46572C18.416 7.82473 19.182 7.23173 19.182 7.23173C19.8958 7.30935 20.6043 7.42889 21.304 7.58973C21.5745 7.66806 21.8616 7.66806 22.132 7.58973C22.21 7.54273 22.366 7.35573 22.288 7.23073C22.21 7.10573 20.319 5.83973 20.319 5.83973C19.8218 5.07267 19.531 4.19016 19.475 3.27773C19.5705 2.42356 19.9202 1.61774 20.479 0.964725Z" fill="white"/>
<path d="M28.8041 0.460647C28.8041 0.460647 30.7261 -0.351353 31.9291 0.444647C33.1321 1.24065 33.4131 1.42865 33.5231 1.99165C33.6331 2.55465 34.4141 2.50765 33.5231 3.10065C32.6983 3.60388 31.755 3.87989 30.7891 3.90065C30.1021 3.91665 29.2111 4.13465 29.9771 4.24465C30.7431 4.35465 32.1021 4.24465 32.3211 4.47865C32.5401 4.71265 33.1341 5.02565 33.2121 5.55665C33.2901 6.08765 34.1811 6.54065 32.5711 7.11965C32.0507 7.34356 31.4955 7.47584 30.9301 7.51065C30.9981 7.51065 30.8451 7.18565 30.7891 7.19865C31.5153 7.41932 32.2051 7.74582 32.8361 8.16765C33.4451 8.77665 33.5081 8.96765 33.4141 9.43365C33.3201 9.89965 33.7891 10.4336 31.2421 10.6526C28.6951 10.8716 28.2891 10.4966 27.6171 9.76165C27.2171 9.32565 26.9893 8.75914 26.9761 8.16765L27.0701 3.99565L27.8701 1.12065L28.8041 0.460647Z" fill="white"/>
<path d="M0.821201 0.498744C1.35106 0.423275 1.88607 0.389837 2.4212 0.398744L3.0912 1.04874L3.3552 2.20674C3.3752 3.01974 3.7002 2.26774 3.4362 3.93374C3.22853 4.64554 3.173 5.39307 3.2732 6.12774C3.3542 6.61574 3.1112 6.73674 3.4362 6.87874C3.7202 7.54874 5.6912 7.02074 5.7512 7.02074C5.8112 7.02074 6.7872 7.99574 7.0712 8.25974C7.3552 8.52374 6.9092 9.07174 6.6042 9.51874C6.2992 9.96574 2.4202 10.6567 2.4202 10.6567L0.820201 9.33674L0.312201 8.11774L0.231201 6.28974V1.23074L0.821201 0.498744Z" fill="white"/>
<path fill-rule="evenodd" clip-rule="evenodd" d="M27.507 9.8257L27.546 9.8647L28.015 10.3167L28.47 10.7847C28.487 10.8047 28.496 10.8047 28.496 10.8047C28.4897 10.7882 28.4809 10.7727 28.47 10.7587C28.4585 10.7403 28.4455 10.7229 28.431 10.7067C28.3704 10.6114 28.3704 10.581 28.431 10.6157C29.1548 10.9156 29.9368 11.0489 30.719 11.0057C31.4987 11.0381 32.2746 10.882 32.9811 10.5507C33.2301 10.4408 33.4395 10.2573 33.5811 10.0247C33.6801 9.73797 33.696 9.42909 33.6271 9.1337C33.6037 8.86257 33.4837 8.60885 33.2891 8.4187L32.834 7.9637C32.6298 7.76494 32.3725 7.62949 32.0931 7.5737C33.3671 7.5217 33.8914 6.9237 33.666 5.7797C33.6192 5.5129 33.4975 5.26491 33.3151 5.0647L32.8601 4.6097C32.7005 4.45526 32.5033 4.34528 32.2881 4.2907C32.0833 4.22975 31.8707 4.19909 31.657 4.1997C31.471 4.20436 31.235 4.21536 30.949 4.2327C30.663 4.25003 30.4724 4.2587 30.377 4.2587C30.5264 4.15869 30.7047 4.11087 30.884 4.1227C31.144 4.10936 31.43 4.10703 31.742 4.1157C32.0567 4.12446 32.3717 4.11378 32.6851 4.0837C32.986 4.05917 33.2742 3.95111 33.5171 3.7717C33.7601 3.58663 33.9213 3.3139 33.966 3.0117C34.088 2.41641 33.8909 1.80059 33.446 1.3867L32.9911 0.931696C32.3946 0.373669 31.6163 0.0504203 30.8 0.0216957C29.94 -0.0703088 29.0742 0.132042 28.344 0.595696C27.266 1.3237 26.766 3.08303 26.844 5.8737C26.844 6.0297 26.8377 6.28536 26.825 6.6407C26.8117 6.9967 26.8074 7.2937 26.812 7.5317C26.8167 7.7697 26.834 8.0427 26.864 8.3507C26.889 8.63727 26.9593 8.91807 27.072 9.1827C27.1755 9.42239 27.323 9.64052 27.507 9.8257ZM20.694 6.4517C21.0211 6.7723 21.411 7.02186 21.839 7.1847H21.838C21.9608 7.23245 22.0809 7.28652 22.198 7.3467C22.1738 7.43687 22.1123 7.51249 22.029 7.5547C21.8442 7.65299 21.6267 7.66966 21.429 7.6007C21.1741 7.53592 20.9275 7.44197 20.694 7.3207C20.4467 7.19489 20.1817 7.10723 19.908 7.0607C19.6557 7.00364 19.3914 7.0358 19.16 7.1517C18.9189 7.28104 18.7338 7.49462 18.64 7.7517C18.5286 8.02719 18.4798 8.32401 18.497 8.6207C18.5088 8.89759 18.5751 9.16945 18.692 9.4207C18.7787 9.59395 18.8928 9.752 19.0301 9.8887L19.4851 10.3437C19.9924 10.8037 20.6466 11.0688 21.331 11.0917C22.1164 11.1677 22.9089 11.0791 23.658 10.8317C24.2806 10.6687 24.8375 10.3169 25.2521 9.8247C26.2834 8.43003 26.2617 7.19936 25.187 6.1327L24.732 5.6647C24.3636 5.31235 23.9532 5.00672 23.51 4.7547C23.4487 4.7207 23.2687 4.63203 22.97 4.4887C22.6714 4.34536 22.444 4.22603 22.288 4.1307C22.2021 3.94168 22.2419 3.71918 22.3881 3.5717C22.5202 3.38427 22.7459 3.28627 22.973 3.3177C23.2381 3.32969 23.4994 3.38439 23.747 3.4797C24.0104 3.57947 24.2821 3.65545 24.559 3.7067C24.7904 3.76639 25.0344 3.75489 25.2591 3.6737C25.6518 3.46407 25.934 3.09396 26.032 2.6597C26.19 2.24848 26.1638 1.78926 25.9601 1.3987L25.505 0.943696C25.4416 0.844894 25.3675 0.753348 25.284 0.670696C24.921 0.340174 24.46 0.137224 23.971 0.0926957C23.4236 0.0103875 22.8668 0.0127484 22.32 0.0996957C21.8655 0.163881 21.423 0.295319 21.007 0.489696C20.6035 0.693423 20.2573 0.994915 20 1.3667C19.7344 1.7368 19.5448 2.15587 19.442 2.5997C19.3411 3.0428 19.3074 3.49856 19.342 3.9517C19.3684 4.38196 19.4788 4.80289 19.667 5.1907C19.8076 5.48448 19.9966 5.75254 20.226 5.9837L20.694 6.4517ZM15.6241 10.1017C16.3451 9.58845 16.9443 8.92268 17.379 8.1517C17.7874 7.45114 18.0319 6.6672 18.094 5.8587C18.1555 5.14818 18.0486 4.43318 17.782 3.7717C17.5168 3.14295 17.1277 2.574 16.638 2.0987L16.1831 1.6437C15.6732 1.13158 15.0682 0.72395 14.4021 0.443696C13.7389 0.162562 13.0218 0.0314367 12.3021 0.0596957C11.5862 0.0808561 10.8887 0.291706 10.281 0.670696C9.52535 1.12289 8.89324 1.755 8.44105 2.5107C7.98236 3.28314 7.74632 4.16742 7.75905 5.0657C7.78071 5.85491 7.95031 6.63305 8.25905 7.3597C8.55288 8.11459 8.99374 8.80359 9.55605 9.3867L10.0111 9.8417C10.2435 10.0783 10.5057 10.2837 10.791 10.4527C11.5397 10.9105 12.4182 11.1094 13.291 11.0187C14.134 10.9161 14.9369 10.6005 15.6241 10.1017ZM4.43105 11.0067C3.81526 11.0194 3.20025 10.956 2.60005 10.8177C2.15414 10.7145 1.74459 10.4923 1.41505 10.1747L0.94705 9.7197C0.282484 8.85813 -0.0212284 7.77201 0.10005 6.6907C0.10005 6.2907 0.0893833 5.70336 0.06805 4.9287C0.0467167 4.15403 0.0363833 3.5757 0.03705 3.1937C0.03705 3.1157 0.0307167 2.9187 0.01805 2.6027C0.00538333 2.2867 -0.000616667 2.04603 5e-05 1.8807C0.0104076 1.67817 0.0408911 1.47718 0.09105 1.2807C0.13418 1.07017 0.225197 0.872393 0.35705 0.702696C0.679112 0.362144 1.13157 0.175775 1.60005 0.190696C2.07022 0.108814 2.55265 0.237098 2.92005 0.541696L2.97205 0.593696L3.44005 1.0487C3.63656 1.31832 3.7599 1.63424 3.79805 1.9657C3.8542 2.34683 3.85622 2.73399 3.80405 3.1157C3.75205 3.5057 3.69805 3.9237 3.64205 4.3697C3.58605 4.8157 3.54272 5.2187 3.51205 5.5787C3.48134 5.92156 3.51113 6.26715 3.60005 6.5997C3.65726 6.77764 3.72676 6.95139 3.80805 7.1197C3.97862 7.17317 4.16004 7.18212 4.33505 7.1457C4.53168 7.11294 4.72509 7.06308 4.91305 6.9967C5.11609 6.92893 5.33062 6.90241 5.54405 6.9187C5.78582 6.93259 6.01845 7.01592 6.21405 7.1587C6.33441 7.24454 6.44746 7.3402 6.55205 7.4447L7.00705 7.8997C7.24653 8.12099 7.40437 8.41659 7.45505 8.7387C7.4956 9.03109 7.43111 9.32839 7.27305 9.5777C7.09754 9.85461 6.87523 10.0989 6.61605 10.2997C6.31695 10.5322 5.97812 10.7083 5.61605 10.8197C5.2333 10.9438 4.83341 11.0069 4.43105 11.0067ZM3.97605 10.2917C4.66724 10.3028 5.34387 10.0926 5.90705 9.6917C6.37674 9.43473 6.69006 8.96325 6.74505 8.4307C6.71189 7.98452 6.45162 7.58675 6.05605 7.3777C5.92096 7.27797 5.7558 7.22751 5.58805 7.2347C5.39705 7.23488 5.20696 7.26112 5.02305 7.3127C4.8267 7.36509 4.62578 7.39857 4.42305 7.4127C4.22517 7.43076 4.0257 7.41964 3.83105 7.3797C3.62212 7.32321 3.4374 7.19994 3.30505 7.0287C3.11402 6.78717 2.97602 6.50811 2.90005 6.2097C2.7904 5.75165 2.75295 5.27929 2.78905 4.8097C2.81595 4.29031 2.87877 3.77341 2.97705 3.2627C3.07125 2.79076 3.11251 2.30978 3.10005 1.8287C3.11417 1.44776 3.00164 1.07288 2.78005 0.762696C2.50261 0.518132 2.13246 0.406431 1.76605 0.456696C1.36956 0.429928 0.975642 0.537745 0.64805 0.762696C0.619315 0.789849 0.5932 0.819647 0.57005 0.851696C0.462413 1.00048 0.388995 1.17122 0.35505 1.3517C0.312683 1.52658 0.286572 1.70501 0.27705 1.8847C0.27305 2.02736 0.275383 2.2607 0.28405 2.5847C0.292717 2.9087 0.29805 3.1117 0.30005 3.1937C0.30005 3.5657 0.31005 4.14203 0.33005 4.9227C0.35005 5.70336 0.360717 6.2927 0.36205 6.6907C0.338959 7.30945 0.400187 7.92846 0.54405 8.5307C0.645873 8.95857 0.879962 9.34347 1.21305 9.6307C1.5344 9.89087 1.91382 10.0696 2.31905 10.1517C2.86513 10.255 3.42038 10.3019 3.97605 10.2917ZM11.5161 6.6127C11.5734 6.64593 11.6345 6.67212 11.6981 6.6907C12.0867 6.84699 12.5256 6.81564 12.8881 6.6057C13.2944 6.3894 13.6066 6.03086 13.765 5.5987C13.8752 5.3197 13.924 5.02024 13.9081 4.7207C13.8942 4.4419 13.8092 4.1713 13.661 3.9347C13.6041 3.89752 13.543 3.86699 13.4791 3.8437C13.0942 3.68761 12.6584 3.7213 12.3021 3.9347C11.8957 4.15564 11.5838 4.51724 11.425 4.9517C11.315 5.23038 11.2662 5.52949 11.2821 5.8287C11.2959 6.10505 11.3761 6.37399 11.5161 6.6127ZM17.39 4.8777C17.4305 5.82225 17.1867 6.75723 16.6901 7.5617C16.2728 8.29755 15.7006 8.93391 15.013 9.4267C14.3643 9.90259 13.6025 10.2008 12.8031 10.2917C11.9875 10.3726 11.1675 10.1904 10.463 9.7717C9.70029 9.27924 9.09497 8.57813 8.71905 7.7517C8.28284 6.91686 8.0434 5.9933 8.01905 5.0517C8.00722 4.20321 8.23232 3.36825 8.66905 2.6407C9.10138 1.92696 9.6988 1.32748 10.411 0.892696C11.086 0.4966 11.8588 0.298382 12.641 0.320696C13.426 0.351973 14.1913 0.575149 14.87 0.970696C15.5725 1.36341 16.1729 1.91556 16.623 2.5827C17.0789 3.26554 17.3438 4.05795 17.39 4.8777ZM14.0001 5.7027C13.8199 6.19324 13.4634 6.599 13.0001 6.8407C12.5761 7.08498 12.0636 7.12182 11.6091 6.9407C11.1516 6.76118 10.8032 6.3796 10.666 5.9077C10.4961 5.41309 10.5167 4.87285 10.7241 4.3927C10.9086 3.89963 11.2667 3.49077 11.7311 3.2427C12.1555 2.99826 12.6694 2.96464 13.1221 3.1517C13.5821 3.33308 13.9324 3.717 14.0711 4.1917C14.2399 4.68614 14.2145 5.22626 14.0001 5.7027ZM21.475 6.4847C21.4993 6.48891 21.5231 6.49561 21.546 6.5047C21.5847 6.51803 21.6237 6.53303 21.663 6.5497C21.7024 6.56636 21.7544 6.58803 21.819 6.6147C21.8797 6.63833 21.9385 6.66641 21.9951 6.6987C22.0471 6.7287 22.1054 6.7657 22.17 6.8097C22.226 6.84525 22.2762 6.88908 22.319 6.9397C22.3563 6.98908 22.3897 7.04123 22.4191 7.0957C22.4521 7.15044 22.4677 7.21388 22.4641 7.2777C22.459 7.3435 22.4483 7.40874 22.4321 7.4727C22.379 7.59747 22.288 7.70241 22.1721 7.7727C21.9905 7.87905 21.7823 7.93111 21.5721 7.9227C21.3546 7.92003 21.14 7.87343 20.941 7.7857C20.7464 7.69903 20.5384 7.61236 20.317 7.5257C20.1301 7.44882 19.9392 7.38206 19.7451 7.3257C19.5871 7.28204 19.4188 7.29586 19.2701 7.3647C18.9825 7.55654 18.8 7.87083 18.7761 8.2157C18.6992 8.58344 18.7497 8.96637 18.9191 9.3017C19.167 9.75127 19.5909 10.0774 20.0891 10.2017C20.6879 10.3862 21.3187 10.4438 21.941 10.3707C22.5632 10.3132 23.1693 10.1413 23.729 9.8637C24.0597 9.71351 24.3495 9.48614 24.574 9.2007C24.8684 8.82738 25.089 8.40147 25.2241 7.9457C25.329 7.59939 25.322 7.22879 25.2041 6.8867C25.0963 6.59095 24.9379 6.31619 24.736 6.0747C24.5094 5.81395 24.2545 5.57918 23.976 5.3747C23.7941 5.2447 23.5904 5.11136 23.365 4.9747C23.3304 4.95736 23.2504 4.92403 23.125 4.8747C22.9997 4.82536 22.872 4.76703 22.7421 4.6997C22.6087 4.63303 22.4634 4.55736 22.306 4.4727C22.1533 4.39095 22.0115 4.29015 21.8841 4.1727C21.7706 4.06981 21.672 3.95168 21.591 3.8217C21.5171 3.69862 21.4874 3.55394 21.507 3.4117C21.5325 3.24178 21.6045 3.08223 21.715 2.9507C21.8854 2.73134 22.1454 2.60024 22.423 2.5937C22.7214 2.57179 23.0212 2.6057 23.3071 2.6937C23.5884 2.78036 23.8657 2.86036 24.139 2.9337C24.31 3.00276 24.4978 3.01879 24.678 2.9797C24.9998 2.79529 25.2289 2.48378 25.309 2.1217C25.4497 1.78563 25.4332 1.40436 25.264 1.0817C24.9994 0.71066 24.5913 0.467614 24.139 0.411696C23.5946 0.294985 23.034 0.272997 22.482 0.346696C22.0088 0.396737 21.5473 0.526219 21.1171 0.729696C20.7535 0.918917 20.4413 1.19342 20.2071 1.5297C19.9594 1.87266 19.7826 2.26158 19.687 2.6737C19.5937 3.08472 19.5643 3.50771 19.6 3.9277C19.6282 4.33075 19.7298 4.72526 19.9 5.0917C20.223 5.74304 20.7879 6.24225 21.4741 6.4827L21.475 6.4847ZM30.08 4.2337L29.859 4.0127C29.8673 4.06331 29.8898 4.11051 29.924 4.1487C29.9663 4.19213 30.0207 4.22176 30.08 4.2337ZM28.078 9.9147C27.9475 9.85361 27.8286 9.77 27.727 9.6677C27.5587 9.51206 27.4251 9.32258 27.335 9.1117C27.2274 8.86641 27.1599 8.60541 27.135 8.3387C27.105 8.04403 27.0857 7.7817 27.077 7.5517C27.0657 7.32436 27.0667 7.0287 27.08 6.6647C27.0934 6.3007 27.1 6.03203 27.1 5.8587C27.0827 5.40003 27.087 4.9517 27.113 4.5137C27.1435 4.03863 27.1999 3.56559 27.282 3.0967C27.358 2.6225 27.5046 2.16237 27.717 1.7317C27.8886 1.36658 28.1501 1.05104 28.477 0.814696C28.8645 0.562804 29.3012 0.396437 29.758 0.326696C30.2247 0.244444 30.7023 0.246815 31.168 0.333696C31.7783 0.422935 32.3473 0.694865 32.8001 1.1137C33.1834 1.46653 33.3544 1.99406 33.2511 2.5047C33.2148 2.76701 33.0648 3.00002 32.8411 3.1417C32.61 3.28328 32.345 3.35965 32.0741 3.3627L31.1381 3.3887L30.2381 3.4147C30.0664 3.43627 29.903 3.50095 29.7631 3.6027C29.6281 3.70319 29.5644 3.87328 29.6 4.0377C29.6155 4.21356 29.7211 4.36879 29.879 4.4477C30.0613 4.53418 30.2628 4.57208 30.4641 4.5577C30.6934 4.5497 30.9424 4.54336 31.2111 4.5387C31.4797 4.53403 31.7334 4.53836 31.972 4.5517C32.1989 4.56087 32.4179 4.63746 32.6011 4.7717C32.7907 4.91929 32.9163 5.13409 32.9521 5.3717C33.0431 5.69173 33.034 6.03197 32.9261 6.3467C32.8475 6.55977 32.6624 6.71562 32.4391 6.7567C32.1856 6.79746 31.9284 6.81054 31.672 6.7957C31.3887 6.78345 31.1065 6.75306 30.827 6.7047C30.5806 6.65789 30.3287 6.64677 30.0791 6.6717C29.8928 6.67441 29.721 6.77259 29.6241 6.9317C29.5758 7.00387 29.5625 7.09385 29.5876 7.17693C29.6128 7.26001 29.6739 7.32744 29.754 7.3607C29.9919 7.49296 30.2518 7.58105 30.521 7.6207C30.8504 7.68736 31.1884 7.75403 31.535 7.8207C31.8595 7.8821 32.173 7.99165 32.465 8.1457C32.7027 8.24679 32.8718 8.46275 32.9131 8.7177C32.9707 8.95954 32.9662 9.21204 32.9001 9.4517C32.7742 9.63428 32.5986 9.77693 32.3941 9.8627C31.7269 10.17 30.9958 10.3127 30.262 10.2787C29.516 10.3216 28.7698 10.1972 28.078 9.9147Z" fill="#07509E"/>
</svg>
