<svg width="7" height="7" viewBox="0 0 7 7" fill="none" xmlns="http://www.w3.org/2000/svg">
<path fill-rule="evenodd" clip-rule="evenodd" d="M6.75801 0.381999C6.76622 0.403893 6.77159 0.426744 6.77401 0.449999H6.77701V0.467999V0.484999V2.404C6.78312 2.5042 6.73313 2.59952 6.64723 2.65146C6.56133 2.70341 6.4537 2.70341 6.3678 2.65146C6.2819 2.59952 6.23191 2.5042 6.23801 2.404V1.147L4.62901 2.782C4.9745 3.22082 5.16162 3.76349 5.16001 4.322C5.16944 5.67317 4.08317 6.7769 2.73201 6.789C1.36953 6.789 0.265015 5.68448 0.265015 4.322C0.265015 2.95951 1.36953 1.855 2.73201 1.855C3.28425 1.85449 3.81961 2.04531 4.24701 2.395L5.85701 0.758999H4.62001C4.54788 0.75847 4.4789 0.729305 4.42827 0.67792C4.37763 0.626534 4.34948 0.557138 4.35001 0.484999C4.34948 0.412859 4.37763 0.343463 4.42827 0.292078C4.4789 0.240692 4.54788 0.211527 4.62001 0.210999H6.50501C6.53008 0.211147 6.55499 0.214851 6.57901 0.221999L6.59501 0.226999C6.61725 0.234167 6.63843 0.244255 6.65801 0.256999C6.67557 0.271032 6.69135 0.287151 6.70501 0.304999L6.72101 0.317999C6.73612 0.337603 6.74856 0.359124 6.75801 0.381999ZM0.856818 4.3225C0.856818 5.36527 1.68952 6.2172 2.73201 6.241C3.78256 6.23165 4.62723 5.37356 4.62001 4.323C4.62172 3.81517 4.423 3.32717 4.06701 2.965C3.71574 2.60582 3.23441 2.40355 2.73201 2.404C1.68952 2.4278 0.856818 3.27973 0.856818 4.3225Z" fill="white"/>
</svg>
