<svg width="34" height="34" viewBox="0 0 34 34" fill="none" xmlns="http://www.w3.org/2000/svg">
<path d="M17 11.3334C19.7861 11.3334 22.5311 11.8944 25.2351 13.0164C27.939 14.1384 30.3412 15.8204 32.4416 18.0625C32.725 18.3459 32.8666 18.6764 32.8666 19.0542C32.8666 19.432 32.725 19.7625 32.4416 20.0459L29.1833 23.2334C28.9236 23.4931 28.6223 23.6348 28.2795 23.6584C27.9366 23.682 27.624 23.5875 27.3416 23.375L23.2333 20.2584C23.0444 20.1167 22.9027 19.9514 22.8083 19.7625C22.7139 19.5737 22.6666 19.3612 22.6666 19.125V15.0875C21.7694 14.8042 20.8486 14.5799 19.9041 14.4146C18.9597 14.2493 17.9916 14.1667 17 14.1667C16.0083 14.1667 15.0402 14.2493 14.0958 14.4146C13.1514 14.5799 12.2305 14.8042 11.3333 15.0875V19.125C11.3333 19.3612 11.2861 19.5737 11.1916 19.7625C11.0972 19.9514 10.9555 20.1167 10.7666 20.2584L6.6583 23.375C6.37497 23.5875 6.06188 23.682 5.71905 23.6584C5.37622 23.6348 5.07541 23.4931 4.81663 23.2334L1.5583 20.0459C1.27497 19.7625 1.1333 19.432 1.1333 19.0542C1.1333 18.6764 1.27497 18.3459 1.5583 18.0625C3.63608 15.8195 6.03261 14.1374 8.74788 13.0164C11.4632 11.8953 14.2139 11.3343 17 11.3334Z" fill="#F94343"/>
</svg>
