<svg width="31" height="31" viewBox="0 0 31 31" fill="none" xmlns="http://www.w3.org/2000/svg">
<path d="M9.68751 7.23331L6.45835 9.04165L8.26668 5.81248L6.45835 2.58331L9.68751 4.39165L12.9167 2.58331L11.1083 5.81248L12.9167 9.04165L9.68751 7.23331ZM25.1875 19.8916L28.4167 18.0833L26.6083 21.3125L28.4167 24.5416L25.1875 22.7333L21.9583 24.5416L23.7667 21.3125L21.9583 18.0833L25.1875 19.8916ZM28.4167 2.58331L26.6083 5.81248L28.4167 9.04165L25.1875 7.23331L21.9583 9.04165L23.7667 5.81248L21.9583 2.58331L25.1875 4.39165L28.4167 2.58331ZM17.2308 16.5075L20.3825 13.3558L17.6442 10.6175L14.4925 13.7691L17.2308 16.5075ZM18.5613 9.41623L21.5838 12.4387C22.0875 12.9166 22.0875 13.7562 21.5838 14.26L6.51001 29.3337C6.00626 29.8375 5.16668 29.8375 4.68876 29.3337L1.66626 26.3112C1.16251 25.8333 1.16251 24.9937 1.66626 24.49L16.74 9.41623C17.2438 8.91248 18.0833 8.91248 18.5613 9.41623Z" fill="#9747FF"/>
</svg>
