<svg width="26" height="26" viewBox="0 0 26 26" fill="none" xmlns="http://www.w3.org/2000/svg">
<path d="M20.5833 18.4166V20.5833H7.58333V18.4166C7.58333 18.4166 7.58333 14.0833 14.0833 14.0833C20.5833 14.0833 20.5833 18.4166 20.5833 18.4166ZM17.3333 8.66663C17.3333 8.02384 17.1427 7.39548 16.7856 6.86102C16.4285 6.32656 15.9209 5.91 15.3271 5.66402C14.7332 5.41803 14.0797 5.35367 13.4493 5.47908C12.8189 5.60448 12.2398 5.91401 11.7852 6.36853C11.3307 6.82305 11.0212 7.40215 10.8958 8.03258C10.7704 8.66302 10.8347 9.31649 11.0807 9.91035C11.3267 10.5042 11.7433 11.0118 12.2777 11.3689C12.8122 11.726 13.4405 11.9166 14.0833 11.9166C14.9453 11.9166 15.7719 11.5742 16.3814 10.9647C16.9909 10.3552 17.3333 9.52858 17.3333 8.66663ZM20.8 14.1483C21.3922 14.6946 21.8696 15.3534 22.2044 16.0863C22.5392 16.8191 22.7247 17.6113 22.75 18.4166V20.5833H26V18.4166C26 18.4166 26 14.6791 20.8 14.1483ZM19.5 5.41663C19.1727 5.41682 18.8474 5.46799 18.5358 5.56829C19.1696 6.47718 19.5095 7.55858 19.5095 8.66663C19.5095 9.77468 19.1696 10.8561 18.5358 11.765C18.8474 11.8653 19.1727 11.9164 19.5 11.9166C20.362 11.9166 21.1886 11.5742 21.7981 10.9647C22.4076 10.3552 22.75 9.52858 22.75 8.66663C22.75 7.80467 22.4076 6.97802 21.7981 6.36853C21.1886 5.75904 20.362 5.41663 19.5 5.41663ZM8.66667 10.8333H5.41667V7.58329H3.25V10.8333H0V13H3.25V16.25H5.41667V13H8.66667V10.8333Z" fill="#2C50ED"/>
</svg>
