<svg width="81" height="91" viewBox="0 0 81 91" fill="none" xmlns="http://www.w3.org/2000/svg">
<g filter="url(#filter0_dd_1297_34615)">
<mask id="path-1-inside-1_1297_34615" fill="white">
<path d="M37.4838 19.1421C39.1288 17.4285 41.8712 17.4285 43.5162 19.1421C44.5395 20.2081 46.0504 20.6545 47.4886 20.315C49.7887 19.7721 52.0882 21.2823 52.5506 23.6001C52.8404 25.0528 53.8743 26.2683 55.2684 26.7692C57.5007 27.5712 58.6238 30.0824 57.7685 32.2949C57.2328 33.6807 57.4542 35.2661 58.3569 36.4462C59.8039 38.3379 59.4208 41.0582 57.4993 42.4654C56.3022 43.3422 55.651 44.8025 55.7782 46.2809C55.981 48.6374 54.2005 50.7366 51.8391 50.8705C50.3625 50.9542 49.0329 51.8209 48.3496 53.1326C47.256 55.232 44.6251 56.0221 42.5702 54.8468C41.2876 54.1132 39.7124 54.1132 38.4298 54.8468C36.3749 56.0221 33.744 55.232 32.6504 53.1326C31.9671 51.8209 30.6375 50.9542 29.1609 50.8705C26.7995 50.7366 25.019 48.6374 25.2218 46.2809C25.349 44.8025 24.6978 43.3422 23.5007 42.4654C21.5792 41.0582 21.1961 38.3379 22.6431 36.4462C23.5458 35.2661 23.7672 33.6807 23.2315 32.2949C22.3762 30.0824 23.4993 27.5712 25.7316 26.7692C27.1257 26.2683 28.1596 25.0528 28.4494 23.6001C28.9118 21.2823 31.2113 19.7721 33.5114 20.315C34.9496 20.6545 36.4605 20.2081 37.4838 19.1421Z"/>
</mask>
<path d="M37.4838 19.1421C39.1288 17.4285 41.8712 17.4285 43.5162 19.1421C44.5395 20.2081 46.0504 20.6545 47.4886 20.315C49.7887 19.7721 52.0882 21.2823 52.5506 23.6001C52.8404 25.0528 53.8743 26.2683 55.2684 26.7692C57.5007 27.5712 58.6238 30.0824 57.7685 32.2949C57.2328 33.6807 57.4542 35.2661 58.3569 36.4462C59.8039 38.3379 59.4208 41.0582 57.4993 42.4654C56.3022 43.3422 55.651 44.8025 55.7782 46.2809C55.981 48.6374 54.2005 50.7366 51.8391 50.8705C50.3625 50.9542 49.0329 51.8209 48.3496 53.1326C47.256 55.232 44.6251 56.0221 42.5702 54.8468C41.2876 54.1132 39.7124 54.1132 38.4298 54.8468C36.3749 56.0221 33.744 55.232 32.6504 53.1326C31.9671 51.8209 30.6375 50.9542 29.1609 50.8705C26.7995 50.7366 25.019 48.6374 25.2218 46.2809C25.349 44.8025 24.6978 43.3422 23.5007 42.4654C21.5792 41.0582 21.1961 38.3379 22.6431 36.4462C23.5458 35.2661 23.7672 33.6807 23.2315 32.2949C22.3762 30.0824 23.4993 27.5712 25.7316 26.7692C27.1257 26.2683 28.1596 25.0528 28.4494 23.6001C28.9118 21.2823 31.2113 19.7721 33.5114 20.315C34.9496 20.6545 36.4605 20.2081 37.4838 19.1421Z" fill="#2C50ED"/>
<path d="M25.2218 46.2809L-49.5686 39.8441L25.2218 46.2809ZM29.1609 50.8705L24.9112 125.817L29.1609 50.8705ZM32.6504 53.1326L-33.9245 87.8143L32.6504 53.1326ZM38.4298 54.8468L75.6983 120.009L38.4298 54.8468ZM42.5702 54.8468L5.3017 120.009L5.3017 120.009L42.5702 54.8468ZM48.3496 53.1326L-18.2252 18.4508L48.3496 53.1326ZM51.8391 50.8705L56.0888 125.817L51.8391 50.8705ZM55.7782 46.2809L-19.0121 52.7178L55.7782 46.2809ZM58.3569 36.4462L-1.26665 82.0539L58.3569 36.4462ZM57.7685 32.2949L127.786 59.3617L57.7685 32.2949ZM55.2684 26.7692L29.8874 97.4151L55.2684 26.7692ZM52.5506 23.6001L-21.0659 38.2851V38.2851L52.5506 23.6001ZM47.4886 20.315L30.2428 -52.744L47.4886 20.315ZM16.2657 93.374C43.5712 99.8195 72.2305 91.344 91.6381 71.1262L-16.6705 -32.842C0.690584 -50.9278 26.328 -58.5106 50.7572 -52.744L16.2657 93.374ZM102.066 38.285C94.3955 76.7369 56.1976 102.8 16.2657 93.374L50.7572 -52.744C6.22494 -63.2559 -36.572 -34.1722 -45.1671 8.91508L102.066 38.285ZM51.1126 97.4151C77.6787 87.8707 96.707 65.1494 102.066 38.285L-45.1671 8.91508C-40.3877 -15.0438 -23.4273 -35.334 0.350653 -43.8767L51.1126 97.4151ZM93.2488 5.22811C107.339 41.6765 89.2282 83.7213 51.1126 97.4151L0.350653 -43.8767C-42.2296 -28.5789 -62.5863 18.4884 -46.7858 59.3617L93.2488 5.22811ZM82.2666 82.0539C99.1779 59.9457 103.135 30.8011 93.2488 5.22811L-46.7858 59.3617C-55.6002 36.5603 -52.0863 10.5865 -36.9804 -9.16157L82.2666 82.0539ZM67.8554 -18.0961C100.084 5.50764 106.223 50.7354 82.2666 82.0539L-36.9804 -9.16157C-63.8309 25.9404 -56.9252 76.6087 -20.854 103.027L67.8554 -18.0961ZM100.012 52.7178C102.349 25.5666 90.5545 -1.47145 67.8554 -18.0961L-20.854 103.027C-41.1588 88.1559 -51.6509 64.0385 -49.5686 39.8441L100.012 52.7178ZM33.4106 -24.076C74.2558 -21.7599 103.355 13.8744 100.012 52.7178L-49.5686 39.8441C-53.3173 83.4004 -20.6568 123.233 24.9112 125.817L33.4106 -24.076ZM99.2252 18.4508C86.4361 -6.0991 61.5655 -22.4795 33.4106 -24.076L24.9112 125.817C-0.290464 124.388 -22.502 109.741 -33.9245 87.8143L99.2252 18.4508ZM1.16124 -10.3152C36.5872 -30.5766 80.8921 -16.7412 99.2252 18.4508L-33.9245 87.8143C-13.404 127.205 36.1627 142.621 75.6983 120.009L1.16124 -10.3152ZM79.8388 -10.3152C55.4653 -24.2552 25.5347 -24.2552 1.16124 -10.3152L75.6983 120.009C53.8902 132.482 27.1098 132.482 5.3017 120.009L79.8388 -10.3152ZM-18.2252 18.4508C0.107876 -16.7412 44.4128 -30.5766 79.8388 -10.3152L5.3017 120.009C44.8373 142.621 94.404 127.205 114.924 87.8143L-18.2252 18.4508ZM47.5894 -24.076C19.4345 -22.4795 -5.43608 -6.09911 -18.2252 18.4508L114.924 87.8143C103.502 109.741 81.2905 124.388 56.0888 125.817L47.5894 -24.076ZM-19.0121 52.7178C-22.3552 13.8744 6.74418 -21.7599 47.5894 -24.076L56.0888 125.817C101.657 123.233 134.317 83.4004 130.569 39.8441L-19.0121 52.7178ZM13.1446 -18.0961C-9.55451 -1.47146 -21.3489 25.5666 -19.0121 52.7178L130.569 39.8441C132.651 64.0385 122.159 88.1559 101.854 103.027L13.1446 -18.0961ZM-1.26665 82.0539C-25.2231 50.7354 -19.0837 5.50764 13.1446 -18.0961L101.854 103.027C137.925 76.6087 144.831 25.9404 117.98 -9.16157L-1.26665 82.0539ZM-12.2488 5.22811C-22.1346 30.8011 -18.1779 59.9457 -1.26665 82.0539L117.98 -9.16157C133.086 10.5865 136.6 36.5603 127.786 59.3617L-12.2488 5.22811ZM29.8874 97.4151C-8.22822 83.7213 -26.3388 41.6765 -12.2488 5.22811L127.786 59.3617C143.586 18.4884 123.23 -28.5789 80.6494 -43.8767L29.8874 97.4151ZM-21.0659 38.2851C-15.707 65.1494 3.32125 87.8706 29.8874 97.4151L80.6494 -43.8767C104.427 -35.334 121.388 -15.0438 126.167 8.91506L-21.0659 38.2851ZM64.7343 93.374C24.8024 102.8 -13.3955 76.7369 -21.0659 38.2851L126.167 8.91506C117.572 -34.1722 74.7751 -63.2559 30.2428 -52.744L64.7343 93.374ZM-10.6381 71.1262C8.76951 91.3441 37.4289 99.8195 64.7343 93.374L30.2428 -52.744C54.672 -58.5106 80.3094 -50.9279 97.6705 -32.842L-10.6381 71.1262ZM97.6705 -32.842C66.4819 -65.3326 14.5181 -65.3326 -16.6705 -32.842L91.6381 71.1262C63.7394 100.19 17.2606 100.19 -10.6381 71.1262L97.6705 -32.842Z" fill="#929292" fill-opacity="0.1" mask="url(#path-1-inside-1_1297_34615)"/>
<path d="M26.6486 36.8617C26.6486 29.0119 33.0121 22.6484 40.8619 22.6484C48.7116 22.6484 55.0752 29.0119 55.0752 36.8617V37.1541C55.0752 45.0038 48.7116 51.3673 40.8619 51.3673C33.0121 51.3673 26.6486 45.0038 26.6486 37.1541V36.8617Z" fill="black" fill-opacity="0.04"/>
<path d="M33.1184 36.8617C33.1184 32.5851 36.5853 29.1183 40.8619 29.1183C45.1385 29.1183 48.6053 32.5851 48.6053 36.8617V37.1541C48.6053 41.4307 45.1385 44.8975 40.8619 44.8975C36.5853 44.8975 33.1184 41.4307 33.1184 37.1541V36.8617Z" stroke="white" stroke-opacity="0.3" stroke-width="12.9397"/>
<path d="M55.1151 37.0304C55.1151 44.969 48.7443 51.4045 40.8857 51.4045C33.027 51.4045 26.6562 44.969 26.6562 37.0304C26.6562 29.0918 33.027 22.6562 40.8857 22.6562C48.7443 22.6562 55.1151 29.0918 55.1151 37.0304ZM29.6244 37.0304C29.6244 43.313 34.6662 48.4062 40.8857 48.4062C47.1051 48.4062 52.1469 43.313 52.1469 37.0304C52.1469 30.7477 47.1051 25.6546 40.8857 25.6546C34.6662 25.6546 29.6244 30.7477 29.6244 37.0304Z" fill="url(#paint0_linear_1297_34615)" fill-opacity="0.5"/>
</g>
<defs>
<filter id="filter0_dd_1297_34615" x="-1.17168" y="-1.64307" width="83.3434" height="93.9292" filterUnits="userSpaceOnUse" color-interpolation-filters="sRGB">
<feFlood flood-opacity="0" result="BackgroundImageFix"/>
<feColorMatrix in="SourceAlpha" type="matrix" values="0 0 0 0 0 0 0 0 0 0 0 0 0 0 0 0 0 0 127 0" result="hardAlpha"/>
<feOffset dy="14.1145"/>
<feGaussianBlur stdDeviation="10.5858"/>
<feComposite in2="hardAlpha" operator="out"/>
<feColorMatrix type="matrix" values="0 0 0 0 0.983523 0 0 0 0 0.811406 0 0 0 0 0.904349 0 0 0 0.4 0"/>
<feBlend mode="normal" in2="BackgroundImageFix" result="effect1_dropShadow_1297_34615"/>
<feColorMatrix in="SourceAlpha" type="matrix" values="0 0 0 0 0 0 0 0 0 0 0 0 0 0 0 0 0 0 127 0" result="hardAlpha"/>
<feOffset/>
<feGaussianBlur stdDeviation="8.82153"/>
<feComposite in2="hardAlpha" operator="out"/>
<feColorMatrix type="matrix" values="0 0 0 0 0 0 0 0 0 0 0 0 0 0 0 0 0 0 0.11 0"/>
<feBlend mode="normal" in2="effect1_dropShadow_1297_34615" result="effect2_dropShadow_1297_34615"/>
<feBlend mode="normal" in="SourceGraphic" in2="effect2_dropShadow_1297_34615" result="shape"/>
</filter>
<linearGradient id="paint0_linear_1297_34615" x1="40.8857" y1="22.6562" x2="40.8857" y2="51.4045" gradientUnits="userSpaceOnUse">
<stop stop-color="white"/>
<stop offset="0.0001" stop-color="white" stop-opacity="0.81"/>
<stop offset="1" stop-color="white" stop-opacity="0"/>
</linearGradient>
</defs>
</svg>
