<svg width="40" height="40" viewBox="0 0 40 40" fill="none" xmlns="http://www.w3.org/2000/svg">
<g clip-path="url(#clip0_1414_40609)">
<g filter="url(#filter0_d_1414_40609)">
<path d="M3.33325 30.19V9.80996C3.33325 6.97329 3.33325 5.55496 4.23659 5.08996C5.14159 4.62329 6.29492 5.44996 8.60325 7.09829L11.2399 8.98163C12.2666 9.71496 12.7799 10.0816 13.0566 10.6183C13.3333 11.1566 13.3333 11.7883 13.3333 13.05V26.95C13.3333 28.2116 13.3333 28.8433 13.0566 29.3816C12.7799 29.92 12.2666 30.2866 11.2399 31.02L8.60325 32.9033C6.29492 34.55 5.14159 35.375 4.23659 34.91C3.33325 34.4433 3.33325 33.0266 3.33325 30.19ZM36.6666 30.19V9.80996C36.6666 6.97329 36.6666 5.55496 35.7633 5.08996C34.8583 4.62329 33.7049 5.44996 31.3966 7.09829L28.7599 8.98163C27.7333 9.71496 27.2199 10.0816 26.9433 10.6183C26.6666 11.1566 26.6666 11.7883 26.6666 13.05V26.95C26.6666 28.2116 26.6666 28.8433 26.9433 29.3816C27.2199 29.92 27.7333 30.2866 28.7599 31.02L31.3949 32.9033C33.7049 34.55 34.8583 35.375 35.7616 34.91C36.6666 34.4433 36.6666 33.0266 36.6666 30.19Z" fill="#2C50ED"/>
<path fill-rule="evenodd" clip-rule="evenodd" d="M20 2.08331C20.3315 2.08331 20.6495 2.21501 20.8839 2.44943C21.1183 2.68385 21.25 3.00179 21.25 3.33331V9.99998C21.25 10.3315 21.1183 10.6494 20.8839 10.8839C20.6495 11.1183 20.3315 11.25 20 11.25C19.6685 11.25 19.3505 11.1183 19.1161 10.8839C18.8817 10.6494 18.75 10.3315 18.75 9.99998V3.33331C18.75 3.00179 18.8817 2.68385 19.1161 2.44943C19.3505 2.21501 19.6685 2.08331 20 2.08331ZM20 15.4166C20.3315 15.4166 20.6495 15.5483 20.8839 15.7828C21.1183 16.0172 21.25 16.3351 21.25 16.6666V23.3333C21.25 23.6648 21.1183 23.9828 20.8839 24.2172C20.6495 24.4516 20.3315 24.5833 20 24.5833C19.6685 24.5833 19.3505 24.4516 19.1161 24.2172C18.8817 23.9828 18.75 23.6648 18.75 23.3333V16.6666C18.75 16.3351 18.8817 16.0172 19.1161 15.7828C19.3505 15.5483 19.6685 15.4166 20 15.4166ZM20 28.75C20.3315 28.75 20.6495 28.8817 20.8839 29.1161C21.1183 29.3505 21.25 29.6685 21.25 30V36.6666C21.25 36.9982 21.1183 37.3161 20.8839 37.5505C20.6495 37.785 20.3315 37.9166 20 37.9166C19.6685 37.9166 19.3505 37.785 19.1161 37.5505C18.8817 37.3161 18.75 36.9982 18.75 36.6666V30C18.75 29.6685 18.8817 29.3505 19.1161 29.1161C19.3505 28.8817 19.6685 28.75 20 28.75Z" fill="#2C50ED"/>
</g>
</g>
<defs>
<filter id="filter0_d_1414_40609" x="-0.666748" y="2.08331" width="41.3333" height="43.8333" filterUnits="userSpaceOnUse" color-interpolation-filters="sRGB">
<feFlood flood-opacity="0" result="BackgroundImageFix"/>
<feColorMatrix in="SourceAlpha" type="matrix" values="0 0 0 0 0 0 0 0 0 0 0 0 0 0 0 0 0 0 127 0" result="hardAlpha"/>
<feOffset dy="4"/>
<feGaussianBlur stdDeviation="2"/>
<feComposite in2="hardAlpha" operator="out"/>
<feColorMatrix type="matrix" values="0 0 0 0 0 0 0 0 0 0 0 0 0 0 0 0 0 0 0.25 0"/>
<feBlend mode="normal" in2="BackgroundImageFix" result="effect1_dropShadow_1414_40609"/>
<feBlend mode="normal" in="SourceGraphic" in2="effect1_dropShadow_1414_40609" result="shape"/>
</filter>
<clipPath id="clip0_1414_40609">
<rect width="40" height="40" fill="white"/>
</clipPath>
</defs>
</svg>
