<svg width="12" height="19" viewBox="0 0 12 19" fill="none" xmlns="http://www.w3.org/2000/svg">
<path d="M9.125 0.263184H2.375C1.10938 0.263184 0.125 1.28874 0.125 2.52649V16.1063C0.125 17.3794 1.10938 18.3696 2.375 18.3696H9.125C10.3555 18.3696 11.375 17.3794 11.375 16.1063V2.52649C11.375 1.28874 10.3555 0.263184 9.125 0.263184ZM10.25 16.1063C10.25 16.7429 9.72266 17.238 9.125 17.238H2.375C1.74219 17.238 1.25 16.7429 1.25 16.1063V2.52649C1.25 1.9253 1.74219 1.39484 2.375 1.39484H9.125C9.72266 1.39484 10.25 1.9253 10.25 2.52649V16.1063ZM6.875 14.4088H4.625C4.30859 14.4088 4.0625 14.6917 4.0625 14.9747C4.0625 15.2929 4.30859 15.5405 4.625 15.5405H6.875C7.15625 15.5405 7.4375 15.2929 7.4375 14.9747C7.4375 14.6917 7.15625 14.4088 6.875 14.4088Z" fill="#1F1F1F"/>
</svg>
