<svg width="42" height="36" viewBox="0 0 42 36" fill="none" xmlns="http://www.w3.org/2000/svg">
<g filter="url(#filter0_d_162_49188)">
<path d="M20.7988 8.25C22.0983 8.25 23.3446 8.75226 24.2634 9.64629C25.1823 10.5403 25.6985 11.7529 25.6985 13.0172C25.6985 14.2816 25.1823 15.4942 24.2634 16.3882C23.3446 17.2822 22.0983 17.7845 20.7988 17.7845C19.4994 17.7845 18.2531 17.2822 17.3343 16.3882C16.4154 15.4942 15.8992 14.2816 15.8992 13.0172C15.8992 11.7529 16.4154 10.5403 17.3343 9.64629C18.2531 8.75226 19.4994 8.25 20.7988 8.25ZM10.9995 11.6552C11.7835 11.6552 12.5114 11.8595 13.1414 12.2272C12.9314 14.175 13.5193 16.1091 14.7233 17.621C14.0233 18.9286 12.6234 19.8276 10.9995 19.8276C9.88569 19.8276 8.81747 19.3971 8.02988 18.6308C7.24228 17.8645 6.79981 16.8251 6.79981 15.7414C6.79981 14.6576 7.24228 13.6183 8.02988 12.852C8.81747 12.0857 9.88569 11.6552 10.9995 11.6552ZM30.5982 11.6552C31.712 11.6552 32.7802 12.0857 33.5678 12.852C34.3554 13.6183 34.7979 14.6576 34.7979 15.7414C34.7979 16.8251 34.3554 17.8645 33.5678 18.6308C32.7802 19.3971 31.712 19.8276 30.5982 19.8276C28.9743 19.8276 27.5744 18.9286 26.8744 17.621C28.095 16.0879 28.6615 14.1562 28.4563 12.2272C29.0863 11.8595 29.8142 11.6552 30.5982 11.6552ZM11.6995 25.6164C11.6995 22.7969 15.7732 20.5086 20.7988 20.5086C25.8245 20.5086 29.8982 22.7969 29.8982 25.6164V28H11.6995V25.6164ZM4 28V25.9569C4 24.0636 6.64582 22.47 10.2296 22.0069C9.40363 22.9331 8.89966 24.2134 8.89966 25.6164V28H4ZM37.5977 28H32.698V25.6164C32.698 24.2134 32.1941 22.9331 31.3681 22.0069C34.9519 22.47 37.5977 24.0636 37.5977 25.9569V28Z" fill="#2C50ED"/>
</g>
<defs>
<filter id="filter0_d_162_49188" x="0" y="0" width="45" height="44" filterUnits="userSpaceOnUse" color-interpolation-filters="sRGB">
<feFlood flood-opacity="0" result="BackgroundImageFix"/>
<feColorMatrix in="SourceAlpha" type="matrix" values="0 0 0 0 0 0 0 0 0 0 0 0 0 0 0 0 0 0 127 0" result="hardAlpha"/>
<feOffset dy="4"/>
<feGaussianBlur stdDeviation="2"/>
<feComposite in2="hardAlpha" operator="out"/>
<feColorMatrix type="matrix" values="0 0 0 0 0 0 0 0 0 0 0 0 0 0 0 0 0 0 0.25 0"/>
<feBlend mode="normal" in2="BackgroundImageFix" result="effect1_dropShadow_162_49188"/>
<feBlend mode="normal" in="SourceGraphic" in2="effect1_dropShadow_162_49188" result="shape"/>
</filter>
</defs>
</svg>
