<svg width="38" height="37" viewBox="0 0 38 37" fill="none" xmlns="http://www.w3.org/2000/svg">
<g filter="url(#filter0_d_1414_36222)">
<path d="M33.2688 1.01721C33.1198 0.89911 32.9455 0.817069 32.7596 0.777495C32.5736 0.737921 32.381 0.741886 32.1969 0.789081L12.1969 5.78908C11.9267 5.85661 11.6868 6.01242 11.5153 6.2318C11.3438 6.45117 11.2504 6.72154 11.25 7.00002V24.2031C10.2071 23.5063 8.9613 23.1781 7.71047 23.2705C6.45964 23.3629 5.27559 23.8708 4.34647 24.7133C3.41735 25.5558 2.79646 26.6847 2.58248 27.9205C2.36849 29.1564 2.57369 30.4283 3.16545 31.5342C3.75721 32.64 4.7016 33.5164 5.84853 34.024C6.99546 34.5316 8.27914 34.6413 9.49558 34.3357C10.712 34.0301 11.7914 33.3267 12.5623 32.3373C13.3331 31.3479 13.7512 30.1293 13.75 28.875V14.2266L31.25 9.85158V19.2031C30.2071 18.5063 28.9613 18.1781 27.7105 18.2705C26.4596 18.3629 25.2756 18.8708 24.3465 19.7133C23.4173 20.5558 22.7965 21.6847 22.5825 22.9205C22.3685 24.1564 22.5737 25.4283 23.1655 26.5342C23.7572 27.64 24.7016 28.5164 25.8485 29.024C26.9955 29.5316 28.2791 29.6413 29.4956 29.3357C30.712 29.0301 31.7914 28.3267 32.5623 27.3373C33.3331 26.3479 33.7512 25.1293 33.75 23.875V2.00002C33.7496 1.81043 33.706 1.62342 33.6226 1.45315C33.5393 1.28288 33.4183 1.1338 33.2688 1.01721Z" fill="#2C50ED"/>
</g>
<defs>
<filter id="filter0_d_1414_36222" x="-1.5" y="0.750488" width="39.25" height="41.7548" filterUnits="userSpaceOnUse" color-interpolation-filters="sRGB">
<feFlood flood-opacity="0" result="BackgroundImageFix"/>
<feColorMatrix in="SourceAlpha" type="matrix" values="0 0 0 0 0 0 0 0 0 0 0 0 0 0 0 0 0 0 127 0" result="hardAlpha"/>
<feOffset dy="4"/>
<feGaussianBlur stdDeviation="2"/>
<feComposite in2="hardAlpha" operator="out"/>
<feColorMatrix type="matrix" values="0 0 0 0 0 0 0 0 0 0 0 0 0 0 0 0 0 0 0.25 0"/>
<feBlend mode="normal" in2="BackgroundImageFix" result="effect1_dropShadow_1414_36222"/>
<feBlend mode="normal" in="SourceGraphic" in2="effect1_dropShadow_1414_36222" result="shape"/>
</filter>
</defs>
</svg>
