<svg width="20" height="24" viewBox="0 0 20 24" fill="none" xmlns="http://www.w3.org/2000/svg">
<path d="M8.1 20.4C8.86 20.4 9.5 20.14 10.02 19.62C10.54 19.1 10.8 18.46 10.8 17.7V13.2H14.4V10.8H9.6V15.45C9.38 15.29 9.1448 15.1748 8.8944 15.1044C8.644 15.034 8.3792 14.9992 8.1 15C7.34 15 6.7 15.26 6.18 15.78C5.66 16.3 5.4 16.94 5.4 17.7C5.4 18.46 5.66 19.1 6.18 19.62C6.7 20.14 7.34 20.4 8.1 20.4ZM2.4 24C1.74 24 1.1748 23.7648 0.704402 23.2944C0.234002 22.824 -0.000797962 22.2592 2.03735e-06 21.6V2.4C2.03735e-06 1.74 0.235202 1.1748 0.705602 0.704402C1.176 0.234002 1.7408 -0.000797963 2.4 2.03735e-06H12L19.2 7.2V21.6C19.2 22.26 18.9648 22.8252 18.4944 23.2956C18.024 23.766 17.4592 24.0008 16.8 24H2.4ZM10.8 8.4V2.4H2.4V21.6H16.8V8.4H10.8Z" fill="#7A8FA6"/>
</svg>
