<svg width="20" height="23" viewBox="0 0 20 23" fill="none" xmlns="http://www.w3.org/2000/svg">
<path d="M7.5 12.5C6.45833 12.5 5.57292 12.1354 4.84375 11.4062C4.11458 10.6771 3.75 9.79167 3.75 8.75C3.75 8.29167 3.82292 7.85917 3.96875 7.4525C4.11458 7.04583 4.33333 6.67625 4.625 6.34375C4.54167 6.13542 4.47917 5.91667 4.4375 5.6875C4.39583 5.45833 4.375 5.22917 4.375 5C4.375 4.20833 4.58875 3.505 5.01625 2.89C5.44375 2.275 6.00083 1.8225 6.6875 1.5325C7.10417 1.05333 7.59375 0.678334 8.15625 0.4075C8.71875 0.136667 9.33333 0.000833333 10 0C10.6667 0 11.2813 0.135416 11.8438 0.40625C12.4062 0.677083 12.8958 1.05208 13.3125 1.53125C14 1.82292 14.5575 2.27625 14.985 2.89125C15.4125 3.50625 15.6258 4.20917 15.625 5C15.625 5.22917 15.6042 5.45833 15.5625 5.6875C15.5208 5.91667 15.4583 6.13542 15.375 6.34375C15.6667 6.67708 15.8854 7.04708 16.0312 7.45375C16.1771 7.86042 16.25 8.2925 16.25 8.75C16.25 9.79167 15.8854 10.6771 15.1562 11.4062C14.4271 12.1354 13.5417 12.5 12.5 12.5H7.5ZM0 22.5V19C0 18.2917 0.1825 17.6408 0.5475 17.0475C0.9125 16.4542 1.39667 16.0008 2 15.6875C3.29167 15.0417 4.60417 14.5571 5.9375 14.2338C7.27083 13.9104 8.625 13.7492 10 13.75C11.375 13.75 12.7292 13.9117 14.0625 14.235C15.3958 14.5583 16.7083 15.0425 18 15.6875C18.6042 16 19.0887 16.4533 19.4538 17.0475C19.8188 17.6417 20.0008 18.2925 20 19V22.5H0Z" fill="#2C50ED"/>
</svg>
