<svg width="9" height="9" viewBox="0 0 9 9" fill="none" xmlns="http://www.w3.org/2000/svg">
<path d="M6.97729 4.47595C6.97729 3.27595 6.97729 2.07595 6.97729 0.875949C6.97729 0.475949 7.05329 0.403949 7.45329 0.397949H7.51629C8.17129 0.397949 8.18929 0.411949 8.18929 1.05695C8.18929 3.39028 8.18929 5.72595 8.18929 8.06395C8.18929 8.52895 8.13029 8.58495 7.66629 8.58895C7.59329 8.58895 7.52029 8.58895 7.44729 8.58895C7.07029 8.58895 6.98229 8.50195 6.98129 8.13095C6.98129 6.99762 6.98129 5.86095 6.98129 4.72095C6.97863 4.64095 6.97729 4.55928 6.97729 4.47595Z" fill="white"/>
<path d="M5.23125 5.37011C5.23125 4.45278 5.23125 3.53578 5.23125 2.61911C5.23125 2.23111 5.32025 2.14611 5.71025 2.14111H5.77325C6.41825 2.14111 6.44725 2.16811 6.44725 2.80311C6.44725 4.55378 6.44725 6.30445 6.44725 8.05511C6.44725 8.53011 6.38025 8.59511 5.90325 8.59211C5.82025 8.59211 5.73625 8.59211 5.65325 8.59211C5.31825 8.58111 5.23325 8.49211 5.23125 8.15411C5.23025 7.22511 5.23225 6.29711 5.23125 5.37011Z" fill="white"/>
<path d="M4.70125 6.08814C4.70125 6.77714 4.70125 7.46714 4.70125 8.15614C4.70125 8.49514 4.61125 8.57914 4.27425 8.59014C3.50325 8.61614 3.48425 8.59714 3.48425 7.82614C3.48425 6.58348 3.48425 5.34081 3.48425 4.09814C3.48425 3.68014 3.56125 3.60514 3.97625 3.59814C4.07025 3.59814 4.16425 3.59814 4.25825 3.59814C4.61225 3.60414 4.69825 3.68814 4.70025 4.04714C4.70325 4.73114 4.70125 5.41014 4.70125 6.08814Z" fill="white"/>
<path d="M2.95323 6.83815C2.95323 7.28615 2.94623 7.73815 2.95323 8.18115C2.95923 8.48115 2.81323 8.58915 2.53523 8.59715C1.77223 8.62015 1.73523 8.58915 1.73523 7.83915C1.73523 7.06915 1.73523 6.29815 1.73523 5.52815C1.73523 5.13615 1.81923 5.05915 2.21623 5.05615H2.24723C2.94723 5.05615 2.94723 5.05615 2.94723 5.74415C2.95123 6.10949 2.95323 6.47415 2.95323 6.83815Z" fill="white"/>
<path d="M1.20425 7.70115C1.20425 7.74315 1.20425 7.78415 1.20425 7.82615C1.22825 8.63315 1.19525 8.60415 0.331247 8.58715C0.240323 8.59667 0.15002 8.56421 0.0859621 8.49899C0.0219044 8.43376 -0.00891588 8.34289 0.00224709 8.25215C0.00224709 7.87715 0.00224709 7.50315 0.00224709 7.12815C-0.00117844 7.08636 0.00604665 7.04439 0.0232471 7.00615C0.246247 6.63715 0.606247 6.84315 0.904247 6.81515C1.11525 6.79615 1.20425 6.96215 1.20425 7.17015C1.20225 7.34815 1.20425 7.52515 1.20425 7.70115Z" fill="white"/>
</svg>
