<svg width="23" height="22" viewBox="0 0 23 22" fill="none" xmlns="http://www.w3.org/2000/svg">
<path d="M12.5523 3.80284V4.40496C14.9618 4.80637 16.8359 6.91376 16.8359 9.42256V10.5599C16.8359 12.0652 17.3379 13.537 18.2749 14.7412L18.7769 15.3433C18.9777 15.6109 19.0111 15.9454 18.8773 16.2131C18.7434 16.4807 18.4757 16.6479 18.1745 16.6479H4.78824C4.45358 16.6479 4.18586 16.4807 4.052 16.2131C3.91813 15.9454 3.9516 15.6109 4.15239 15.3433L4.65438 14.7412C5.59142 13.537 6.12687 12.0652 6.12687 10.5599V9.42256C6.12687 6.91376 7.96748 4.80637 10.4105 4.40496V3.80284C10.4105 3.23418 10.879 2.73242 11.4814 2.73242C12.0503 2.73242 12.5523 3.23418 12.5523 3.80284ZM11.2136 5.94369C9.27264 5.94369 7.73322 7.51587 7.73322 9.42256V10.5599C7.73322 12.1655 7.2647 13.7043 6.39459 15.0423H16.5347C15.6646 13.7043 15.2295 12.1655 15.2295 10.5599V9.42256C15.2295 7.51587 13.6566 5.94369 11.7491 5.94369H11.2136ZM13.6232 17.7183C13.6232 18.287 13.3889 18.8557 12.9873 19.2571C12.5857 19.6585 12.0168 19.8592 11.4814 19.8592C10.9125 19.8592 10.3435 19.6585 9.94195 19.2571C9.54036 18.8557 9.33957 18.287 9.33957 17.7183H13.6232Z" fill="white"/>
</svg>
