<svg width="15" height="18" viewBox="0 0 15 18" fill="none" xmlns="http://www.w3.org/2000/svg">
<path d="M7.21428 0.375682C7.26838 0.375682 7.31921 0.363538 7.37167 0.367586C7.52125 0.37079 7.67012 0.388965 7.81599 0.42183C8.23325 0.524736 8.62199 0.718356 8.95382 0.988558C9.28173 1.26464 9.77359 1.02175 10.1548 1.25249C10.6707 1.58557 11.0236 2.115 11.1295 2.71465C11.342 3.57085 11.3588 4.46304 11.1787 5.32645C11.1448 5.43143 11.1419 5.54378 11.1705 5.6503C11.4653 6.43492 11.2735 7.31717 10.6786 7.91316C10.5149 8.08398 10.3917 8.28862 10.3179 8.51227C10.1664 8.95039 9.95156 9.36459 9.68014 9.74207C9.22189 10.4189 9.41863 10.9079 10.2318 11.0787C11.2647 11.2816 12.2511 11.6699 13.142 12.2243C13.4307 12.4074 13.6972 12.6226 13.9364 12.8655C14.38 13.3051 14.6147 13.9095 14.5823 14.5293C14.5545 15.6976 14.5094 15.7971 13.4002 16.2368C12.2007 16.679 10.9444 16.9532 9.66784 17.0512C8.0473 17.1955 6.41677 17.1925 4.79678 17.0423C3.82065 17.0005 2.85732 16.8068 1.94236 16.4683C1.05291 16.1048 0.892234 15.7874 0.820914 14.8572C0.728231 13.765 1.31051 12.725 2.29649 12.2219C3.17464 11.6739 4.14714 11.2898 5.16568 11.0885C5.5493 11.0193 5.85772 10.7372 5.95675 10.3647C6.03658 10.161 5.99451 9.93045 5.84773 9.76717C5.63813 9.51511 5.46792 9.23348 5.34275 8.93165C5.16839 8.49058 4.93008 8.07687 4.63529 7.70347C4.1185 7.14089 3.99855 6.32509 4.33198 5.64058C4.391 5.52157 4.31066 5.42603 4.28443 5.32079C3.92889 4.00484 4.18681 2.60085 4.98779 1.49214C5.42442 0.859711 6.12635 0.455253 6.89867 0.391065C6.94949 0.385398 6.92572 0.383779 6.98064 0.378921C7.03273 0.374289 7.08513 0.374289 7.13722 0.378921L7.21428 0.375682Z" fill="white"/>
</svg>
