<svg width="9" height="9" viewBox="0 0 9 9" fill="none" xmlns="http://www.w3.org/2000/svg">
<path fill-rule="evenodd" clip-rule="evenodd" d="M6.80442 1.76201L4.90442 3.66201C3.80065 2.87657 2.27485 3.09473 1.43542 4.15801C0.672901 5.12517 0.724741 6.50268 1.55779 7.4098C2.39084 8.31691 3.75897 8.4856 4.78742 7.80801C5.28251 7.48924 5.64525 7.00179 5.80842 6.43601C6.03965 5.69237 5.91217 4.88349 5.46342 4.24701L7.36342 2.32501V4.25101H8.06342V1.06201H4.86342V1.76201H6.80442ZM3.41909 7.511C2.4259 7.50971 1.62143 6.70421 1.62142 5.71101V5.71001C1.61762 5.23034 1.80704 4.76933 2.14698 4.43089C2.48692 4.09246 2.94877 3.90508 3.42842 3.91101C4.42161 3.91487 5.22399 4.72246 5.22141 5.71566C5.21884 6.70886 4.41229 7.51228 3.41909 7.511Z" fill="white"/>
<path d="M4.90442 3.66201L4.81745 3.78423L4.9208 3.85777L5.01049 3.76808L4.90442 3.66201ZM6.80442 1.76201L6.91049 1.86808L7.16655 1.61201H6.80442V1.76201ZM1.43542 4.15801L1.31769 4.06507L1.31763 4.06514L1.43542 4.15801ZM4.78742 7.80801L4.70621 7.68189L4.70489 7.68275L4.78742 7.80801ZM5.80842 6.43601L5.66515 6.39146L5.66429 6.39445L5.80842 6.43601ZM5.46342 4.24701L5.35674 4.14156L5.26848 4.23084L5.34083 4.33345L5.46342 4.24701ZM7.36342 2.32501H7.51342V1.95991L7.25674 2.21956L7.36342 2.32501ZM7.36342 4.25101H7.21342V4.40101H7.36342V4.25101ZM8.06342 4.25101V4.40101H8.21342V4.25101H8.06342ZM8.06342 1.06201H8.21342V0.912012H8.06342V1.06201ZM4.86342 1.06201V0.912012H4.71342V1.06201H4.86342ZM4.86342 1.76201H4.71342V1.91201H4.86342V1.76201ZM1.62142 5.71101H1.47142V5.71101L1.62142 5.71101ZM3.41909 7.511L3.4189 7.661L3.41909 7.511ZM1.62142 5.71001H1.77142L1.77141 5.70882L1.62142 5.71001ZM2.14698 4.43089L2.25281 4.53719L2.14698 4.43089ZM3.42842 3.91101L3.42657 4.06101L3.42784 4.06101L3.42842 3.91101ZM5.22141 5.71566L5.07141 5.71527L5.22141 5.71566ZM5.01049 3.76808L6.91049 1.86808L6.69835 1.65595L4.79835 3.55595L5.01049 3.76808ZM1.55315 4.25096C2.34305 3.25042 3.77882 3.04513 4.81745 3.78423L4.99139 3.5398C3.82249 2.708 2.20665 2.93904 1.31769 4.06507L1.55315 4.25096ZM1.66827 7.30834C0.885005 6.45543 0.836263 5.16024 1.55321 4.25088L1.31763 4.06514C0.509539 5.0901 0.564477 6.54993 1.44731 7.51126L1.66827 7.30834ZM4.70489 7.68275C3.73791 8.31985 2.45154 8.16124 1.66827 7.30834L1.44731 7.51126C2.33015 8.47258 3.78004 8.65135 4.86994 7.93327L4.70489 7.68275ZM5.66429 6.39445C5.51118 6.92536 5.17079 7.38276 4.70621 7.68189L4.86862 7.93413C5.39422 7.59571 5.77932 7.07822 5.95254 6.47758L5.66429 6.39445ZM5.34083 4.33345C5.76273 4.93184 5.88258 5.69232 5.66518 6.39147L5.95165 6.48055C6.19672 5.69241 6.06161 4.83514 5.58601 4.16058L5.34083 4.33345ZM7.25674 2.21956L5.35674 4.14156L5.57009 4.35247L7.47009 2.43047L7.25674 2.21956ZM7.51342 4.25101V2.32501H7.21342V4.25101H7.51342ZM8.06342 4.10101H7.36342V4.40101H8.06342V4.10101ZM7.91342 1.06201V4.25101H8.21342V1.06201H7.91342ZM4.86342 1.21201H8.06342V0.912012H4.86342V1.21201ZM5.01342 1.76201V1.06201H4.71342V1.76201H5.01342ZM6.80442 1.61201H4.86342V1.91201H6.80442V1.61201ZM1.47142 5.71101C1.47143 6.78698 2.34294 7.65961 3.4189 7.661L3.41929 7.361C2.50886 7.35982 1.77143 6.62144 1.77142 5.71101L1.47142 5.71101ZM1.47142 5.71001V5.71101H1.77142V5.71001H1.47142ZM2.04115 4.32459C1.67264 4.69147 1.46731 5.19122 1.47142 5.7112L1.77141 5.70882C1.76793 5.26946 1.94144 4.84719 2.25281 4.53719L2.04115 4.32459ZM3.43027 3.76102C2.91032 3.7546 2.40966 3.95772 2.04115 4.32459L2.25281 4.53719C2.56419 4.2272 2.98722 4.05557 3.42657 4.061L3.43027 3.76102ZM5.37141 5.71605C5.3742 4.64009 4.50496 3.7652 3.429 3.76101L3.42784 4.06101C4.33826 4.06455 5.07377 4.80484 5.07141 5.71527L5.37141 5.71605ZM3.4189 7.661C4.49487 7.66239 5.36863 6.79201 5.37141 5.71605L5.07141 5.71527C5.06906 6.6257 4.32972 7.36217 3.41929 7.361L3.4189 7.661Z" fill="white"/>
</svg>
