<svg width="16" height="16" viewBox="0 0 16 16" fill="none" xmlns="http://www.w3.org/2000/svg">
<path d="M11.6562 0.65625C12.5312 -0.21875 13.9375 -0.21875 14.8125 0.65625L15.2188 1.0625C16.0938 1.9375 16.0938 3.34375 15.2188 4.21875L9.03125 10.4062C8.78125 10.6562 8.4375 10.875 8.0625 10.9688L4.9375 11.875C4.6875 11.9375 4.40625 11.875 4.21875 11.6562C4 11.4688 3.9375 11.1875 4 10.9375L4.90625 7.8125C5 7.4375 5.21875 7.09375 5.46875 6.84375L11.6562 0.65625ZM13.75 1.71875C13.4688 1.4375 13 1.4375 12.7188 1.71875L11.7812 2.625L13.25 4.09375L14.1562 3.15625C14.4375 2.875 14.4375 2.40625 14.1562 2.125L13.75 1.71875ZM6.34375 8.21875L5.8125 10.0625L7.65625 9.53125C7.78125 9.5 7.875 9.4375 7.96875 9.34375L12.1875 5.125L10.75 3.6875L6.53125 7.90625C6.4375 8 6.375 8.09375 6.34375 8.21875ZM6.25 1.875C6.65625 1.875 7 2.21875 7 2.625C7 3.0625 6.65625 3.375 6.25 3.375H2.75C2.03125 3.375 1.5 3.9375 1.5 4.625V13.125C1.5 13.8438 2.03125 14.375 2.75 14.375H11.25C11.9375 14.375 12.5 13.8438 12.5 13.125V9.625C12.5 9.21875 12.8125 8.875 13.25 8.875C13.6562 8.875 14 9.21875 14 9.625V13.125C14 14.6562 12.75 15.875 11.25 15.875H2.75C1.21875 15.875 0 14.6562 0 13.125V4.625C0 3.125 1.21875 1.875 2.75 1.875H6.25Z" fill="white"/>
</svg>
