<svg width="22" height="25" viewBox="0 0 22 25" fill="none" xmlns="http://www.w3.org/2000/svg">
<path d="M10.8292 0C14.2146 0 16.8305 2.6929 16.8305 6.00133C16.8305 9.30976 14.2146 12.0027 10.8292 12.0027C7.52078 12.0027 4.82788 9.30976 4.82788 6.00133C4.82788 2.6929 7.52078 0 10.8292 0ZM10.8292 1.9235C8.59794 1.9235 6.82832 3.77007 6.82832 6.00133C6.82832 8.23259 8.59794 10.0792 10.8292 10.0792C13.0605 10.0792 14.907 8.23259 14.907 6.00133C14.907 3.77007 13.0605 1.9235 10.8292 1.9235Z" fill="#7A8FA6"/>
<path d="M21.5233 23.4669C21.5233 24.6979 19.5229 24.6979 19.5229 23.4669C19.5229 18.6197 15.6759 14.7726 10.8287 14.7726C6.44309 14.7726 2.67302 18.0811 2.21138 22.4666H16.9069C18.2149 22.4666 18.2149 24.3901 16.9069 24.3901H1.21116C0.672578 24.3901 0.210938 24.0055 0.210938 23.4669C0.210938 17.5425 4.98122 12.7722 10.8287 12.7722C16.7531 12.7722 21.5233 17.5425 21.5233 23.4669Z" fill="#7A8FA6"/>
</svg>
