<svg width="29" height="22" viewBox="0 0 29 22" fill="none" xmlns="http://www.w3.org/2000/svg">
<path d="M20.9682 7.00833C21.0271 7.00833 21.0825 6.99699 21.1397 7.00077C21.3027 7.00376 21.4649 7.02074 21.6238 7.05143C22.0785 7.14753 22.5021 7.32834 22.8637 7.58067C23.221 7.83849 23.7569 7.61167 24.1723 7.82715C24.7344 8.1382 25.119 8.63261 25.2344 9.1926C25.466 9.99217 25.4843 10.8254 25.288 11.6317C25.2511 11.7297 25.248 11.8346 25.279 11.9341C25.6003 12.6668 25.3913 13.4907 24.7431 14.0473C24.5647 14.2068 24.4304 14.3979 24.3501 14.6068C24.1849 15.0159 23.9509 15.4027 23.6551 15.7552C23.1558 16.3873 23.3701 16.844 24.2563 17.0035C25.3817 17.1929 26.4565 17.5555 27.4273 18.0733C27.7419 18.2443 28.0323 18.4452 28.2929 18.6721C28.7763 19.0826 29.032 19.647 28.9968 20.2259C29.0008 21 29 21 27.6356 21C26.2711 21 24.9067 21 23.5422 21C22.1778 21 20.1311 21 18.158 21C16.1848 21 16.0378 21 15.0145 21C13.9912 21 13.9919 21 14.0017 20.5321C14.0114 20.0641 14.5352 18.5409 15.6095 18.0711C16.5664 17.5594 17.6261 17.2006 18.7359 17.0126C19.1539 16.948 19.49 16.6845 19.5979 16.3367C19.6849 16.1465 19.6391 15.9312 19.4791 15.7787C19.2507 15.5433 19.0653 15.2803 18.9289 14.9984C18.7389 14.5865 18.4792 14.2002 18.158 13.8515C17.5949 13.3261 17.4642 12.5643 17.8275 11.925C17.8918 11.8139 17.8043 11.7247 17.7757 11.6264C17.3883 10.3975 17.6693 9.08633 18.5421 8.05095C19.0179 7.46035 19.7827 7.08264 20.6243 7.0227C20.6797 7.0174 20.6538 7.01589 20.7136 7.01136C20.7704 7.00703 20.8275 7.00703 20.8842 7.01136L20.9682 7.00833Z" fill="#2C50ED"/>
<path d="M11.22 0.761749V0.761903C11.2463 0.761903 11.2716 0.759821 11.3083 0.756788C11.3141 0.756313 11.3202 0.755814 11.3265 0.755296C11.3675 0.751971 11.4221 0.747938 11.4813 0.75124C11.7325 0.756023 11.9826 0.781644 12.2278 0.827776L12.232 0.828568L12.232 0.828604C12.9291 0.972114 13.5814 1.24266 14.1406 1.62278L14.1438 1.62497L14.1438 1.625C14.3327 1.75776 14.5801 1.77465 14.9304 1.77828C14.95 1.77849 14.9699 1.77865 14.9901 1.77881C15.3014 1.78129 15.6875 1.78437 16.0321 1.95851L16.038 1.9615L16.038 1.96157C16.9133 2.43334 17.5303 3.192 17.7196 4.07055C18.0692 5.25263 18.0963 6.48503 17.7982 7.67729L17.7945 7.69235L17.7889 7.70683C17.7567 7.79007 17.7529 7.87698 17.7771 7.96074C18.2894 9.11603 17.9403 10.4022 16.9189 11.2577C16.6858 11.4611 16.5143 11.7012 16.4126 11.9587L16.4111 11.9626L16.411 11.9625C16.1586 12.5717 15.8018 13.1458 15.3527 13.6678C15.0059 14.0964 14.9818 14.3745 15.0641 14.5421C15.157 14.7312 15.4495 14.9327 16.0843 15.0442C17.7595 15.319 19.3608 15.845 20.8087 16.5972L20.8104 16.5981C21.2866 16.8502 21.7272 17.1469 22.1235 17.4829C22.8831 18.1116 23.2994 18.9882 23.2453 19.901L23.2454 19.9151C23.2468 20.1717 23.2481 20.4009 23.2126 20.5816C23.1719 20.7885 23.0768 20.9664 22.8708 21.0805C22.6924 21.1792 22.4544 21.2149 22.1712 21.2323C21.8821 21.25 21.5006 21.25 21.0083 21.25H20.9988H20.9871H20.9754H20.9636H20.9519H20.9402H20.9285H20.9167H20.905H20.8933H20.8816H20.8698H20.8581H20.8464H20.8347H20.8229H20.8112H20.7995H20.7878H20.776H20.7643H20.7526H20.7409H20.7291H20.7174H20.7057H20.694H20.6822H20.6705H20.6588H20.6471H20.6353H20.6236H20.6119H20.6002H20.5884H20.5767H20.565H20.5533H20.5415H20.5298H20.5181H20.5063H20.4946H20.4829H20.4712H20.4594H20.4477H20.436H20.4243H20.4125H20.4008H20.3891H20.3774H20.3656H20.3539H20.3422H20.3305H20.3187H20.307H20.2953H20.2836H20.2718H20.2601H20.2484H20.2367H20.2249H20.2132H20.2015H20.1898H20.178H20.1663H20.1546H20.1429H20.1311H20.1194H20.1077H20.096H20.0842H20.0725H20.0608H20.049H20.0373H20.0256H20.0139H20.0021H19.9904H19.9787H19.967H19.9552H19.9435H19.9318H19.9201H19.9083H19.8966H19.8849H19.8732H19.8614H19.8497H19.838H19.8263H19.8145H19.8028H19.7911H19.7794H19.7676H19.7559H19.7442H19.7325H19.7207H19.709H19.6973H19.6856H19.6738H19.6621H19.6504H19.6386H19.6269H19.6152H19.6035H19.5917H19.58H19.5683H19.5566H19.5448H19.5331H19.5214H19.5097H19.4979H19.4862H19.4745H19.4628H19.451H19.4393H19.4276H19.4159H19.4041H19.3924H19.3807H19.369H19.3572H19.3455H19.3338H19.3221H19.3103H19.2986H19.2869H19.2752H19.2634H19.2517H19.24H19.2283H19.2165H19.2048H19.1931H19.1813H19.1696H19.1579H19.1462H19.1344H19.1227H19.111H19.0993H19.0875H19.0758H19.0641H19.0524H19.0406H19.0289H19.0172H19.0055H18.9937H18.982H18.9703H18.9586H18.9468H18.9351H18.9234H18.9117H18.8999H18.8882H18.8765H18.8648H18.853H18.8413H18.8296H18.8179H18.8061H18.7944H18.7827H18.771H18.7592H18.7475H18.7358H18.724H18.7123H18.7006H18.6889H18.6771H18.6654H18.6537H18.642H18.6302H18.6185H18.6068H18.5951H18.5833H18.5716H18.5599H18.5482H18.5364H18.5247H18.513H18.5013H18.4895H18.4778H18.4661H18.4544H18.4426H18.4309H18.4192H18.4075H18.3957H18.384H18.3723H18.3605H18.3488H18.3371H18.3254H18.3136H18.3019H18.2902H18.2785H18.2667H18.255H18.2433H18.2316H18.2198H18.2081H18.1964H18.1847H18.1729H18.1612H18.1495H18.1378H18.126H18.1143H18.1026H18.0909H18.0791H18.0674H18.0557H18.044H18.0322H18.0205H18.0088H17.9971H17.9853H17.9736H17.9619H17.9502H17.9384H17.9267H17.915H17.9032H17.8915H17.8798H17.8681H17.8563H17.8446H17.8329H17.8212H17.8094H17.7977H17.786H17.7743H17.7625H17.7508H17.7391H17.7274H17.7156H17.7039H17.6922H17.6805H17.6687H17.657H17.6453H17.6336H17.6218H17.6101H17.5984H17.5867H17.5749H17.5632H17.5515H17.5398H17.528H17.5163H17.5046H17.4928H17.4811H17.4694H17.4577H17.4459H17.4342H17.4225H17.4108H17.399H17.3873H17.3756H17.3639H17.3521H17.3404H17.3287H17.317H17.3052H17.2935H17.2818H17.2701H17.2583H17.2466H17.2349H17.2232H17.2114H17.1997H17.188H17.1763H17.1645H17.1528H17.1411H17.1294H17.1176H17.1059H17.0942H17.0825H17.0707H17.059H17.0473H17.0355H17.0238H17.0121H17.0004H16.9886H16.9769H16.9652H16.9535H16.9417H16.93H16.9183H16.9066H16.8948H16.8831H16.8714H16.8597H16.8479H16.8362H16.8245H16.8128H16.801H16.7893H16.7776H16.7659H16.7541H16.7424H16.7307H16.719H16.7072H16.6955H16.6838H16.6721H16.6603H16.6486H16.6369H16.6251H16.6134H16.6017H16.59H16.5782H16.5665H16.5548H16.5431H16.5313H16.5196H16.5079H16.4962H16.4844H16.4727H16.461H16.4493H16.4375H16.4258H16.4141H16.4024H16.3906H16.3789H16.3672H16.3555H16.3437H16.332H16.3203H16.3086H16.2968H16.2851H16.2734H16.2617H16.2499H16.2382H16.2265H16.2148H16.203H16.1913H16.1796H16.1678H16.1561H16.1444H16.1327H16.1209H16.1092H16.0975H16.0858H16.074H16.0623H16.0506H16.0389H16.0271H16.0154H16.0037H15.992H15.9802H15.9685H15.9568H15.9451H15.9333H15.9216H15.9099H15.8982H15.8864H15.8747H15.863H15.8513H15.8395H15.8278H15.8161H15.8044H15.7926H15.7809H15.7692H15.7575H15.7457H15.734H15.7223H15.7105H15.6988H15.6871H15.6754H15.6636H15.6519H15.6402H15.6285H15.6167H15.605H15.5933H15.5816H15.5698H15.5581H15.5464H15.5347H15.5229H15.5112H15.4995H15.4878H15.476H15.4643H15.4526H15.4409H15.4291H15.4174H15.4057H15.394H15.3822H15.3705H15.3588H15.3471H15.3353H15.3236H15.3119H15.3002H15.2884H15.2767H15.265H15.2532H15.2415H15.2298H15.2181H15.2063H15.1946H15.1829H15.1712H15.1594H15.1477H15.136H15.1243H15.1125H15.1008H15.0891H15.0774H15.0656H15.0539H15.0422H15.0305H15.0187H15.007H14.9953H14.9835H14.9718H14.96H14.9482H14.9364H14.9245H14.9126H14.9008H14.8888H14.8769H14.8649H14.8529H14.8409H14.8289H14.8169H14.8048H14.7927H14.7806H14.7684H14.7563H14.7441H14.7319H14.7196H14.7074H14.6951H14.6828H14.6705H14.6582H14.6458H14.6334H14.621H14.6086H14.5962H14.5837H14.5712H14.5587H14.5462H14.5336H14.5211H14.5085H14.4959H14.4832H14.4706H14.4579H14.4452H14.4325H14.4197H14.407H14.3942H14.3814H14.3686H14.3557H14.3429H14.33H14.3171H14.3042H14.2912H14.2783H14.2653H14.2523H14.2393H14.2262H14.2132H14.2001H14.187H14.1739H14.1607H14.1476H14.1344H14.1212H14.108H14.0948H14.0815H14.0682H14.0549H14.0416H14.0283H14.0149H14.0016H13.9882H13.9748H13.9613H13.9479H13.9344H13.9209H13.9074H13.8939H13.8804H13.8668H13.8532H13.8397H13.826H13.8124H13.7988H13.7851H13.7714H13.7577H13.744H13.7302H13.7165H13.7027H13.6889H13.6751H13.6613H13.6474H13.6335H13.6197H13.6058H13.5918H13.5779H13.5639H13.55H13.536H13.522H13.508H13.4939H13.4799H13.4658H13.4517H13.4376H13.4235H13.4093H13.3952H13.381H13.3668H13.3526H13.3384H13.3241H13.3099H13.2956H13.2813H13.267H13.2527H13.2383H13.224H13.2096H13.1952H13.1808H13.1664H13.1519H13.1375H13.123H13.1085H13.094H13.0795H13.065H13.0504H13.0358H13.0213H13.0067H12.9921H12.9774H12.9628H12.9481H12.9335H12.9188H12.9041H12.8893H12.8746H12.8599H12.8451H12.8303H12.8155H12.8007H12.7859H12.7711H12.7562H12.7413H12.7265H12.7116H12.6967H12.6817H12.6668H12.6518H12.6369H12.6219H12.6069H12.5919H12.5769H12.5618H12.5468H12.5317H12.5166H12.5015H12.4864H12.4713H12.4562H12.441H12.4259H12.4107H12.3955H12.3803H12.3651H12.3498H12.3346H12.3193H12.3041H12.2888H12.2735H12.2582H12.2429H12.2275H12.2122H12.1968H12.1815H12.1661H12.1507H12.1353H12.1198H12.1044H12.089H12.0735H12.058H12.0425H12.027H12.0115H11.996H11.9805H11.9649H11.9494H11.9338H11.9182H11.9026H11.887H11.8714H11.8558H11.8401H11.8245H11.8088H11.7931H11.7774H11.7617H11.746H11.7303H11.7146H11.6988H11.6831H11.6673H11.6515H11.6357H11.6199H11.6041H11.5883H11.5725H11.5566H11.5408H11.5249H11.509H11.4931H11.4772H11.4613H11.4454H11.4295H11.4135H11.3976H11.3816H11.3657H11.3497H11.3337H11.3177H11.3017H11.2857H11.2696H11.2536H11.2375H11.2215H11.2054H11.1893H11.1732H11.1571H11.141H11.1249H11.1088H11.0927H11.0765H11.0604H11.0442H11.028H11.0118H10.9956H10.9794H10.9632H10.947H10.9308H10.9146H10.8983H10.8821H10.8658H10.8495H10.8332H10.817H10.8007H10.7844H10.768H10.7517H10.7354H10.7191H10.7027H10.6864H10.67H10.6536H10.6372H10.6209H10.6045H10.5881H10.5717H10.5552H10.5388H10.5224H10.5059H10.4895H10.473H10.4566H10.4401H10.4236H10.4071H10.3906H10.3741H10.3576H10.3411H10.3246H10.3081H10.2915H10.275H10.2584H10.2419H10.2253H10.2088H10.1922H10.1756H10.159H10.1424H10.1258H10.1092H10.0926H10.076H10.0594H10.0427H10.0261H10.0094H9.99278H9.97613H9.95946H9.94279H9.92612H9.90944H9.89275H9.87606H9.85936H9.84266H9.82595H9.80923H9.79251H9.77579H9.75906H9.74232H9.72558H9.70883H9.69208H9.67533H9.65856H9.6418H9.62502H9.60825H9.59147H9.57468H9.55789H9.54109H9.52429H9.50749H9.49068H9.47386H9.45704H9.44022H9.42339H9.40656H9.38972H9.37288H9.35604H9.33919H9.32234H9.30548H9.28862H9.27176H9.25489H9.23801H9.22114H9.20426H9.18737H9.17049H9.1536H9.1367H9.1198H9.1029H9.086H9.06909H9.05218H9.03526H9.01835H9.00143H8.9845H8.96758H8.95065H8.93371H8.91678H8.89984H8.8829H8.86595H8.84901H8.83206H8.8151H8.79815H8.78119H8.76423H8.74727H8.73031H8.71334H8.69637H8.6794H8.66243H8.64545H8.62848H8.6115H8.59452H8.57753H8.56055H8.54356H8.52657H8.50958H8.49259H8.4756H8.4586H8.44161H8.42461H8.40761H8.39061H8.37361H8.35661H8.3396H8.3226H8.30559H8.28858H8.27157H8.25456H8.23755H8.22054H8.20353H8.18652H8.1695H8.15249H8.13547H8.11846H8.10144H8.08443H8.06741H8.05039H8.03338H8.01636H7.99934H7.98232H7.9653H7.94829H7.93127H7.91425H7.89723H7.88021H7.8632H7.84618H7.82916H7.81214H7.79513H7.77811H7.7611H7.74408H7.72707H7.71005H7.69304H7.67603H7.65902H7.64201H7.625H7.60799H7.59098H7.57397H7.55697H7.53996H7.52296H7.50596H7.48895H7.47195H7.45496H7.43796H7.42096H7.40397H7.38698H7.36999H7.353H7.33601H7.31902H7.30204H7.28506H7.26808H7.2511H7.23413H7.21715H7.20018H7.18321H7.16624H7.14928H7.13232H7.11535H7.0984H7.08147H7.06461H7.0478H7.03106H7.01438H6.99775H6.98119H6.96469H6.94825H6.93186H6.91554H6.89928H6.88307H6.86693H6.85084H6.83481H6.81885H6.80293H6.78708H6.77129H6.75555H6.73987H6.72425H6.70868H6.69317H6.67772H6.66233H6.64699H6.63171H6.61648H6.60131H6.5862H6.57114H6.55614H6.54119H6.5263H6.51146H6.49668H6.48195H6.46728H6.45266H6.43809H6.42358H6.40912H6.39472H6.38037H6.36607H6.35183H6.33764H6.3235H6.30941H6.29537H6.28139H6.26746H6.25358H6.23975H6.22598H6.21225H6.19858H6.18496H6.17139H6.15786H6.14439H6.13097H6.1176H6.10428H6.09101H6.07778H6.06461H6.05149H6.03841H6.02538H6.01241H5.99948H5.98659H5.97376H5.96098H5.94824H5.93555H5.9229H5.91031H5.89776H5.88526H5.8728H5.86039H5.84803H5.83571H5.82344H5.81122H5.79904H5.7869H5.77481H5.76277H5.75077H5.73881H5.7269H5.71504H5.70321H5.69144H5.6797H5.66801H5.65636H5.64476H5.6332H5.62168H5.61021H5.59877H5.58738H5.57603H5.56473H5.55346H5.54224H5.53106H5.51992H5.50882H5.49776H5.48674H5.47577H5.46483H5.45393H5.44308H5.43226H5.42148H5.41075H5.40005H5.38939H5.37877H5.36819H5.35765H5.34714H5.33668H5.32625H5.31586H5.30551H5.29519H5.28492H5.27468H5.26447H5.25431H5.24418H5.23409H5.22403H5.21401H5.20403H5.19408H5.18417H5.17429H5.16445H5.15464H5.14487H5.13513H5.12543H5.11576H5.10612H5.09652H5.08696H5.07742H5.06792H5.05846H5.04903H5.03963H5.03026H5.02092H5.01162H5.00235H4.99311H4.98391H4.97473H4.96559H4.95648H4.9474H4.93835H4.92933H4.92034H4.91139H4.90246H4.89356H4.8847H4.87586H4.86705H4.85827H4.84952H4.84081H4.83211H4.82345H4.81482H4.80621H4.79764H4.78909H4.78056H4.77207H4.7636H4.75517H4.74675H4.73837H4.73001H4.72168H4.71337H4.70509H4.69684H4.68861H4.68041H4.67224H4.66409H4.65596H4.64786H4.63978H4.63173H4.62371H4.6157H4.60773H4.59977H4.59184H4.58393H4.57605H4.56819H4.56035H4.55254H4.54475H4.53698H4.52923H4.52151H4.5138H4.50612H4.49846H4.49082H4.48321H4.47561H4.46804H4.46048H4.45295H4.44544H4.43794H4.43047H4.42302H4.41558H4.40817H4.40077H4.3934H4.38604H4.3787H4.37138H4.36408H4.3568H4.34954H4.34229H4.33506H4.32785H4.32066H4.31348H4.30632H4.29918H4.29205H4.28494H4.27785H4.27077H4.26371H4.25666H4.24963H4.24262H4.23562H4.22863H4.22166H4.21471H4.20777H4.20084H4.19393H4.18703H4.18015H4.17328H4.16642H4.15958H4.15275H4.14593H4.13912H4.13233H4.12555H4.11878H4.11203H4.10528H4.09855H4.09183H4.08512H4.07842H4.07174H4.06506H4.0584H4.05174H4.0451H4.03846H4.03184H4.02522H4.01862H4.01202H4.00543H3.99885H3.99229H3.98572H3.97917H3.97263H3.96609H3.95957H3.95305H3.94653H3.94003H3.93353H3.92704H3.92056H3.91408H3.90761H3.90115H3.89469H3.88824H3.88179H3.87535H3.86892H3.86249H3.85607H3.84965H3.84323H3.83682H3.83042H3.82402H3.81762H3.81123H3.80484H3.79845H3.79207H3.78569H3.77931H3.77294H3.76657H3.7602H3.75383H3.74747H3.74111H3.73475H3.72839H3.72203H3.71568H3.70932H3.70297H3.69661H3.69026H3.68391H3.67756H3.6712H3.66485H3.6585H3.65215H3.64579H3.63944H3.63308H3.62672H3.62036H3.614H3.60764H3.60128H3.59491H3.58854H3.58217H3.5758H3.56942H3.56304H3.55666H3.55027H3.54389H3.53749H3.53109H3.52469H3.51829H3.51188H3.50546H3.49904H3.49262H3.48619H3.47976H3.47332H3.46687H3.46042H3.45396H3.4475H3.44103H3.43455H3.42806H3.42157H3.41508H3.40857H3.40206H3.39554H3.38901H3.38247H3.37593H3.36938H3.36282H3.35625H3.34967H3.34308H3.33649H3.32988H3.32326H3.31664H3.31H3.30336H3.2967H3.29004H3.28336H3.27667H3.26997H3.26326H3.25654H3.24981H3.24307H3.23631H3.22954H3.22276H3.21597H3.20916H3.20234H3.19551H3.18867H3.18181H3.17494H3.16805H3.16116H3.15424H3.14732H3.14038H3.13342H3.12645H3.11947H3.11246H3.10545H3.09842H3.09137H3.08431H3.07723H3.07014H3.06303H3.0559H3.04876H3.04159H3.03442H3.02722H3.02001H3.01278H3.00553H2.99827H2.99098H2.98368H2.97636H2.96902H2.96167H2.95429H2.94689H2.93948H2.93204H2.92459H2.91712H2.90962H2.90211H2.89457H2.88702H2.87944H2.87185H2.86423H2.85659H2.84893H2.84125H2.83354H2.82582H2.81807H2.8103H2.8025H2.79469H2.78685H2.77899H2.7711H2.76319H2.75526H2.74731H2.73933H2.73132H2.7233H2.71524H2.70717H2.69907H2.69094H2.68279H2.67461H2.66641H2.65818H2.64992H2.64164H2.63334H2.62501H2.61665H2.60826H2.59985H2.59141H2.58294H2.57444H2.56592H2.55737H2.54879H2.54018H2.53155H2.52289H2.51419H2.50547H2.49672H2.48794H2.48037C2.11155 21.25 1.8252 21.25 1.60826 21.2392C1.39756 21.2288 1.21448 21.2075 1.07435 21.1444C0.998018 21.11 0.928613 21.061 0.873788 20.9912C0.819597 20.9221 0.790192 20.8461 0.773665 20.7733C0.745411 20.6488 0.748771 20.4963 0.751999 20.3498C0.752174 20.3419 0.752347 20.334 0.752516 20.3262C0.760852 19.9369 0.975357 19.1854 1.3769 18.4543C1.77919 17.7219 2.39732 16.958 3.25361 16.5897C4.67924 15.8483 6.25584 15.3292 7.90534 15.057L7.90885 15.0564L7.90886 15.0565C8.44946 14.9752 8.84882 14.6492 8.97208 14.2622L8.97705 14.2466L8.98401 14.2318C9.06129 14.0673 9.02805 13.8747 8.86593 13.7242L8.85879 13.7175L8.85893 13.7174C8.50603 13.3631 8.2178 12.9656 8.00513 12.5376L8.00304 12.5333L8.00308 12.5333C7.73751 11.9725 7.37414 11.4446 6.92306 10.9663C6.0238 10.1437 5.80277 8.93273 6.39585 7.91297C6.39505 7.91023 6.39389 7.90662 6.3922 7.90206C6.38546 7.88377 6.37661 7.86544 6.36119 7.83347C6.35931 7.82957 6.35733 7.82548 6.35525 7.82116C6.33916 7.78774 6.31577 7.73865 6.29905 7.68372C5.70341 5.84056 6.13974 3.87931 7.47088 2.33986C8.21771 1.43826 9.4046 0.873548 10.6952 0.783239C10.711 0.781738 10.7184 0.78076 10.7214 0.780311L10.7302 0.778652C10.7554 0.773687 10.7787 0.770556 10.8281 0.766909L11.22 0.761749ZM11.22 0.761749L11.2112 0.762057M11.22 0.761749L11.2112 0.762057M11.2112 0.762057L11.1013 0.765915M11.2112 0.762057L11.1013 0.765915M11.1013 0.765915C11.0104 0.759835 10.919 0.760164 10.8282 0.766902L11.1013 0.765915Z" fill="#2C50ED" stroke="white" stroke-width="0.5"/>
</svg>
