<svg width="27" height="20" viewBox="0 0 27 20" fill="none" xmlns="http://www.w3.org/2000/svg">
<path d="M21.8818 12.3337C21.5406 12.3337 21.2543 12.2217 21.0231 11.9977C20.7919 11.7737 20.6767 11.4968 20.6775 11.167V8.83366H18.2689C17.9276 8.83366 17.6414 8.72166 17.4102 8.49766C17.179 8.27366 17.0638 7.99677 17.0646 7.66699C17.0646 7.33644 17.1802 7.05916 17.4114 6.83516C17.6426 6.61116 17.9285 6.49955 18.2689 6.50033H20.6775V4.16699C20.6775 3.83644 20.7931 3.55916 21.0243 3.33516C21.2555 3.11116 21.5414 2.99955 21.8818 3.00033C22.223 3.00033 22.5092 3.11233 22.7404 3.33633C22.9717 3.56033 23.0869 3.83721 23.0861 4.16699V6.50033H25.4947C25.8359 6.50033 26.1221 6.61233 26.3533 6.83633C26.5846 7.06033 26.6998 7.33722 26.699 7.66699C26.699 7.99755 26.5834 8.27483 26.3521 8.49883C26.1209 8.72283 25.8351 8.83444 25.4947 8.83366H23.0861V11.167C23.0861 11.4976 22.9705 11.7748 22.7392 11.9988C22.508 12.2228 22.2222 12.3344 21.8818 12.3337ZM9.83876 10.0003C8.51403 10.0003 7.37998 9.54338 6.43661 8.62949C5.49324 7.7156 5.02155 6.61699 5.02155 5.33366C5.02155 4.05033 5.49324 2.95171 6.43661 2.03783C7.37998 1.12394 8.51403 0.666992 9.83876 0.666992C11.1635 0.666992 12.2975 1.12394 13.2409 2.03783C14.1843 2.95171 14.656 4.05033 14.656 5.33366C14.656 6.61699 14.1843 7.7156 13.2409 8.62949C12.2975 9.54338 11.1635 10.0003 9.83876 10.0003ZM1.40865 19.3337C1.06743 19.3337 0.78121 19.2217 0.549984 18.9977C0.318758 18.7737 0.203547 18.4968 0.20435 18.167V16.067C0.20435 15.4059 0.380178 14.798 0.731834 14.2435C1.08349 13.6889 1.54996 13.2662 2.13123 12.9753C3.37568 12.3726 4.64019 11.9203 5.92478 11.6185C7.20937 11.3167 8.51403 11.1662 9.83876 11.167C11.1635 11.167 12.4682 11.3179 13.7527 11.6197C15.0373 11.9214 16.3018 12.3733 17.5463 12.9753C18.1284 13.267 18.5952 13.6901 18.9469 14.2447C19.2985 14.7992 19.474 15.4067 19.4732 16.067V18.167C19.4732 18.4976 19.3576 18.7748 19.1263 18.9988C18.8951 19.2228 18.6093 19.3344 18.2689 19.3337H1.40865Z" fill="#2C50ED"/>
</svg>
