<svg width="24" height="30" viewBox="0 0 24 30" fill="none" xmlns="http://www.w3.org/2000/svg">
<path d="M11.2269 1.01488C11.3134 1.01488 11.3945 0.994627 11.4783 1.00138C11.7172 1.00672 11.955 1.03703 12.188 1.09184C12.8544 1.26344 13.4753 1.58632 14.0054 2.03692C14.5291 2.49731 15.3147 2.09227 15.9235 2.47705C16.7475 3.0325 17.3112 3.91538 17.4803 4.91536C17.8198 6.34317 17.8466 7.83101 17.5589 9.27084C17.5048 9.4459 17.5002 9.63325 17.5458 9.81088C18.0167 11.1193 17.7104 12.5906 16.7602 13.5845C16.4987 13.8693 16.3019 14.2106 16.1841 14.5835C15.942 15.3142 15.599 16.0049 15.1654 16.6344C14.4335 17.7631 14.7477 18.5785 16.0466 18.8634C17.6963 19.2017 19.2718 19.8492 20.6948 20.7738C21.1559 21.0792 21.5816 21.4379 21.9635 21.8431C22.6721 22.5761 23.0469 23.584 22.9953 24.6176C22.9508 26.5658 22.8788 26.7319 21.1072 27.465C19.1913 28.2025 17.1847 28.6597 15.1458 28.8232C12.5574 29.0638 9.95315 29.0588 7.36569 28.8084C5.8066 28.7386 4.26796 28.4156 2.80657 27.8511C1.38593 27.2449 1.1293 26.7157 1.01539 25.1644C0.867354 23.343 1.79738 21.6088 3.3722 20.7698C4.77478 19.856 6.32807 19.2153 7.95489 18.8796C8.56761 18.7644 9.06023 18.2938 9.21841 17.6726C9.34591 17.3331 9.2787 16.9485 9.04426 16.6762C8.7095 16.2559 8.43763 15.7862 8.23771 15.2829C7.95922 14.5474 7.57859 13.8575 7.10775 13.2348C6.28233 12.2966 6.09075 10.9362 6.62329 9.79468C6.71757 9.59622 6.58925 9.4369 6.54735 9.26139C5.97947 7.06691 6.39144 4.72559 7.67077 2.87669C8.36816 1.82205 9.48928 1.14757 10.7228 1.04053C10.804 1.03108 10.766 1.02838 10.8538 1.02028C10.937 1.01256 11.0207 1.01256 11.1039 1.02028L11.2269 1.01488Z" stroke="#2C50ED" stroke-width="1.8"/>
</svg>
