<svg width="41" height="41" viewBox="0 0 41 41" fill="none" xmlns="http://www.w3.org/2000/svg">
<g clip-path="url(#clip0_1414_36211)">
<g filter="url(#filter0_d_1414_36211)">
<path d="M25.625 12.8125H7.6875C7.00788 12.8125 6.3561 13.0825 5.87554 13.563C5.39498 14.0436 5.125 14.6954 5.125 15.375V33.3125C5.125 33.9921 5.39498 34.6439 5.87554 35.1245C6.3561 35.605 7.00788 35.875 7.6875 35.875H25.625C26.3046 35.875 26.9564 35.605 27.437 35.1245C27.9175 34.6439 28.1875 33.9921 28.1875 33.3125V15.375C28.1875 14.6954 27.9175 14.0436 27.437 13.563C26.9564 13.0825 26.3046 12.8125 25.625 12.8125ZM25.625 33.3125H7.6875V15.375H25.625V33.3125ZM21.7812 6.40625C21.7812 6.06644 21.9162 5.74055 22.1565 5.50027C22.3968 5.25999 22.7227 5.125 23.0625 5.125H25.625C25.9648 5.125 26.2907 5.25999 26.531 5.50027C26.7713 5.74055 26.9062 6.06644 26.9062 6.40625C26.9062 6.74606 26.7713 7.07195 26.531 7.31223C26.2907 7.55251 25.9648 7.6875 25.625 7.6875H23.0625C22.7227 7.6875 22.3968 7.55251 22.1565 7.31223C21.9162 7.07195 21.7812 6.74606 21.7812 6.40625ZM35.875 7.6875V8.96875C35.875 9.30856 35.74 9.63445 35.4997 9.87473C35.2595 10.115 34.9336 10.25 34.5938 10.25C34.2539 10.25 33.928 10.115 33.6878 9.87473C33.4475 9.63445 33.3125 9.30856 33.3125 8.96875V7.6875H32.0312C31.6914 7.6875 31.3655 7.55251 31.1253 7.31223C30.885 7.07195 30.75 6.74606 30.75 6.40625C30.75 6.06644 30.885 5.74055 31.1253 5.50027C31.3655 5.25999 31.6914 5.125 32.0312 5.125H33.3125C33.9921 5.125 34.6439 5.39498 35.1245 5.87554C35.605 6.3561 35.875 7.00788 35.875 7.6875ZM35.875 15.375V17.9375C35.875 18.2773 35.74 18.6032 35.4997 18.8435C35.2595 19.0838 34.9336 19.2188 34.5938 19.2188C34.2539 19.2188 33.928 19.0838 33.6878 18.8435C33.4475 18.6032 33.3125 18.2773 33.3125 17.9375V15.375C33.3125 15.0352 33.4475 14.7093 33.6878 14.469C33.928 14.2287 34.2539 14.0938 34.5938 14.0938C34.9336 14.0938 35.2595 14.2287 35.4997 14.469C35.74 14.7093 35.875 15.0352 35.875 15.375ZM35.875 24.3438V25.625C35.875 26.3046 35.605 26.9564 35.1245 27.437C34.6439 27.9175 33.9921 28.1875 33.3125 28.1875H32.0312C31.6914 28.1875 31.3655 28.0525 31.1253 27.8122C30.885 27.572 30.75 27.2461 30.75 26.9062C30.75 26.5664 30.885 26.2405 31.1253 26.0003C31.3655 25.76 31.6914 25.625 32.0312 25.625H33.3125V24.3438C33.3125 24.0039 33.4475 23.678 33.6878 23.4378C33.928 23.1975 34.2539 23.0625 34.5938 23.0625C34.9336 23.0625 35.2595 23.1975 35.4997 23.4378C35.74 23.678 35.875 24.0039 35.875 24.3438ZM12.8125 8.96875V7.6875C12.8125 7.00788 13.0825 6.3561 13.563 5.87554C14.0436 5.39498 14.6954 5.125 15.375 5.125H16.6562C16.9961 5.125 17.3219 5.25999 17.5622 5.50027C17.8025 5.74055 17.9375 6.06644 17.9375 6.40625C17.9375 6.74606 17.8025 7.07195 17.5622 7.31223C17.3219 7.55251 16.9961 7.6875 16.6562 7.6875H15.375V8.96875C15.375 9.30856 15.24 9.63445 14.9997 9.87473C14.7594 10.115 14.4336 10.25 14.0938 10.25C13.7539 10.25 13.4281 10.115 13.1878 9.87473C12.9475 9.63445 12.8125 9.30856 12.8125 8.96875Z" fill="#2C50ED"/>
</g>
</g>
<defs>
<filter id="filter0_d_1414_36211" x="1.125" y="5.125" width="38.75" height="38.75" filterUnits="userSpaceOnUse" color-interpolation-filters="sRGB">
<feFlood flood-opacity="0" result="BackgroundImageFix"/>
<feColorMatrix in="SourceAlpha" type="matrix" values="0 0 0 0 0 0 0 0 0 0 0 0 0 0 0 0 0 0 127 0" result="hardAlpha"/>
<feOffset dy="4"/>
<feGaussianBlur stdDeviation="2"/>
<feComposite in2="hardAlpha" operator="out"/>
<feColorMatrix type="matrix" values="0 0 0 0 0 0 0 0 0 0 0 0 0 0 0 0 0 0 0.25 0"/>
<feBlend mode="normal" in2="BackgroundImageFix" result="effect1_dropShadow_1414_36211"/>
<feBlend mode="normal" in="SourceGraphic" in2="effect1_dropShadow_1414_36211" result="shape"/>
</filter>
<clipPath id="clip0_1414_36211">
<rect width="41" height="41" fill="white"/>
</clipPath>
</defs>
</svg>
