<svg width="20" height="20" viewBox="0 0 20 20" fill="none" xmlns="http://www.w3.org/2000/svg">
<path d="M16.95 20C14.8 20 12.704 19.5207 10.662 18.562C8.62 17.6033 6.81167 16.3367 5.237 14.762C3.66233 13.1873 2.39567 11.379 1.437 9.337C0.478334 7.295 -0.000665972 5.19933 6.94927e-07 3.05V2H5.9L6.825 7L4 9.9C4.7 11.1 5.575 12.225 6.625 13.275C7.675 14.325 8.83333 15.2333 10.1 16L13 13.1L18 14.1V20H16.95ZM15 10C13.6167 10 12.4373 9.51233 11.462 8.537C10.4867 7.56167 9.99933 6.38267 10 5C10 3.61667 10.4877 2.43733 11.463 1.462C12.4383 0.486667 13.6173 -0.000665984 15 6.8306e-07C16.3833 6.8306e-07 17.5627 0.487667 18.538 1.463C19.5133 2.43833 20.0007 3.61733 20 5C20 6.38333 19.5123 7.56267 18.537 8.538C17.5617 9.51333 16.3827 10.0007 15 10ZM14.5 8H15.5V4H14.5V8ZM15 3C15.1333 3 15.25 2.95 15.35 2.85C15.45 2.75 15.5 2.63333 15.5 2.5C15.5 2.36667 15.45 2.25 15.35 2.15C15.25 2.05 15.1333 2 15 2C14.8667 2 14.75 2.05 14.65 2.15C14.55 2.25 14.5 2.36667 14.5 2.5C14.5 2.63333 14.55 2.75 14.65 2.85C14.75 2.95 14.8667 3 15 3Z" fill="#FEFEFF" fill-opacity="0.5"/>
</svg>
