<svg width="86" height="85" viewBox="0 0 86 85" fill="none" xmlns="http://www.w3.org/2000/svg">
<circle cx="43" cy="42.5" r="42.5" fill="#3AAF69"/>
<path fill-rule="evenodd" clip-rule="evenodd" d="M30.21 41.983V25.157C30.21 21.716 31.934 20.006 35.373 20.005H51.302C52.6295 19.8851 53.9428 20.3542 54.8938 21.2881C55.8449 22.2221 56.3378 23.5265 56.242 24.856C56.2628 26.0461 56.2577 27.2371 56.2526 28.4281V28.4281C56.2503 28.9575 56.248 29.4868 56.248 30.016V58.845C56.248 61.582 55.028 63.313 52.709 63.874C52.2711 63.9649 51.8241 64.0048 51.377 63.993C45.9183 64.0004 40.4593 64.0004 35 63.993C33.7099 64.0982 32.4383 63.6339 31.5194 62.7223C30.6005 61.8107 30.1262 60.5429 30.221 59.252C30.2012 55.1791 30.2044 51.1036 30.2076 47.0295C30.209 45.347 30.2103 43.6648 30.21 41.983ZM33.851 55.401H52.561V25.905H33.851V55.401ZM44.6565 60.9624C44.2246 61.3843 43.6383 61.6101 43.035 61.587V61.583C42.4515 61.5854 41.891 61.3559 41.4767 60.945C41.0625 60.5341 40.8284 59.9755 40.826 59.392C40.8036 58.5791 41.2222 57.8175 41.9205 57.4007C42.6188 56.9839 43.4878 56.977 44.1927 57.3825C44.8976 57.7881 45.3284 58.5428 45.319 59.356C45.328 59.9597 45.0884 60.5405 44.6565 60.9624Z" fill="white"/>
</svg>
