<svg width="10" height="9" viewBox="0 0 10 9" fill="none" xmlns="http://www.w3.org/2000/svg">
<path d="M6.79266 3.03075C6.80905 3.03075 6.82446 3.02678 6.84035 3.0281C6.88568 3.02915 6.93078 3.03509 6.97498 3.04584C7.10141 3.07949 7.2192 3.14281 7.31975 3.23117C7.41911 3.32145 7.56814 3.24202 7.68365 3.31747C7.83996 3.42639 7.9469 3.59952 7.97899 3.79561C8.04339 4.0756 8.04848 4.36736 7.99389 4.6497C7.98362 4.68403 7.98276 4.72077 7.99141 4.7556C8.08074 5.01218 8.02263 5.30068 7.84237 5.49558C7.79276 5.55144 7.75543 5.61836 7.73308 5.69149C7.68716 5.83476 7.62207 5.97021 7.53983 6.09365C7.40097 6.31498 7.46059 6.47489 7.70699 6.53075C8.01995 6.59708 8.31884 6.72406 8.58879 6.90538C8.67627 6.96525 8.75702 7.0356 8.82948 7.11506C8.96391 7.25879 9.03502 7.45644 9.02522 7.65912C9.02634 7.9302 9.02611 7.9302 8.6467 7.9302C8.26728 7.9302 7.88786 7.9302 7.50844 7.9302C7.12903 7.9302 6.5599 7.9302 6.01122 7.9302C5.46253 7.9302 5.42165 7.9302 5.13709 7.9302C4.85253 7.9302 4.85273 7.9302 4.85545 7.76634C4.85816 7.60249 5.0038 7.06911 5.30255 6.90458C5.56863 6.72539 5.86331 6.59976 6.17193 6.53393C6.28817 6.51133 6.38162 6.41905 6.41163 6.29724C6.43582 6.23066 6.42307 6.15525 6.37859 6.10186C6.31508 6.01943 6.26351 5.92734 6.22558 5.82863C6.17275 5.6844 6.10054 5.54911 6.01122 5.42701C5.85463 5.24304 5.81828 4.97626 5.91931 4.75242C5.9372 4.7135 5.91285 4.68226 5.90491 4.64785C5.79717 4.21752 5.87533 3.7584 6.11803 3.39584C6.25033 3.18903 6.46301 3.05677 6.69703 3.03578C6.71243 3.03393 6.70523 3.0334 6.72187 3.03181C6.73765 3.03029 6.75353 3.03029 6.76931 3.03181L6.79266 3.03075Z" fill="white"/>
<path d="M4.08135 0.680973L4.07138 0.681414L4.05212 0.682265C4.01991 0.68026 3.98759 0.680758 3.95544 0.683756L4.08135 0.680973ZM4.08135 0.680973L4.09224 0.679865L4.09293 0.679795C4.10481 0.678579 4.13162 0.675835 4.16345 0.677587C4.24563 0.679813 4.32737 0.690495 4.40743 0.709459L4.41256 0.710674L4.41255 0.710728C4.63529 0.768473 4.84209 0.876944 5.01804 1.02755L5.02038 1.02956C5.02551 1.03125 5.04723 1.03618 5.11672 1.03709C5.12246 1.03717 5.1288 1.03719 5.13568 1.03722C5.21835 1.03754 5.37931 1.03817 5.5234 1.12986L5.52964 1.13383L5.52958 1.13392C5.8146 1.32737 6.00773 1.63193 6.06748 1.9741C6.16844 2.40657 6.17594 2.85679 6.08943 3.29263L6.08695 3.30514L6.0832 3.31734C6.08214 3.3208 6.08172 3.32456 6.08199 3.32827C6.23521 3.77682 6.13 4.27881 5.80529 4.62237C5.75812 4.67456 5.72204 4.73754 5.70022 4.80707L5.69918 4.81038L5.69916 4.81037C5.62492 5.036 5.51975 5.24966 5.38674 5.44475C5.34799 5.50542 5.33053 5.55053 5.32397 5.58028C5.32077 5.59482 5.32046 5.60431 5.32073 5.60957C5.32097 5.61448 5.32174 5.61645 5.32186 5.61676L5.32187 5.61677L5.32187 5.61679C5.32198 5.61706 5.32249 5.61839 5.32475 5.62108C5.32726 5.62406 5.33278 5.62971 5.34361 5.637C5.36611 5.65214 5.40724 5.67143 5.47581 5.68672C5.9652 5.78799 6.43216 5.98144 6.8536 6.25714L6.85542 6.25833L6.85541 6.25834C6.9994 6.35433 7.13215 6.46694 7.25117 6.59388C7.49466 6.8481 7.62251 7.19454 7.60685 7.54842C7.60686 7.55091 7.60688 7.5534 7.60689 7.5559C7.60728 7.64021 7.60771 7.73077 7.59604 7.80554C7.58215 7.89459 7.54455 8.00826 7.43151 8.08706C7.3376 8.15253 7.22586 8.16716 7.14267 8.17359C7.05468 8.18039 6.94223 8.18039 6.81163 8.18038H6.80166H6.7984H6.79514H6.79188H6.78862H6.78536H6.7821H6.77884H6.77558H6.77232H6.76906H6.7658H6.76253H6.75927H6.75601H6.75275H6.74949H6.74623H6.74297H6.73971H6.73645H6.73319H6.72993H6.72667H6.72341H6.72015H6.71689H6.71363H6.71036H6.7071H6.70384H6.70058H6.69732H6.69406H6.6908H6.68754H6.68428H6.68102H6.67776H6.6745H6.67124H6.66798H6.66472H6.66146H6.6582H6.65493H6.65167H6.64841H6.64515H6.64189H6.63863H6.63537H6.63211H6.62885H6.62559H6.62233H6.61907H6.61581H6.61255H6.60929H6.60603H6.60276H6.5995H6.59624H6.59298H6.58972H6.58646H6.5832H6.57994H6.57668H6.57342H6.57016H6.5669H6.56364H6.56038H6.55712H6.55385H6.55059H6.54733H6.54407H6.54081H6.53755H6.53429H6.53103H6.52777H6.52451H6.52125H6.51799H6.51473H6.51147H6.50821H6.50495H6.50169H6.49842H6.49516H6.4919H6.48864H6.48538H6.48212H6.47886H6.4756H6.47234H6.46908H6.46582H6.46256H6.4593H6.45604H6.45278H6.44952H6.44625H6.44299H6.43973H6.43647H6.43321H6.42995H6.42669H6.42343H6.42017H6.41691H6.41365H6.41039H6.40713H6.40387H6.40061H6.39735H6.39408H6.39082H6.38756H6.3843H6.38104H6.37778H6.37452H6.37126H6.368H6.36474H6.36148H6.35822H6.35496H6.3517H6.34844H6.34518H6.34191H6.33865H6.33539H6.33213H6.32887H6.32561H6.32235H6.31909H6.31583H6.31257H6.30931H6.30605H6.30279H6.29953H6.29627H6.29301H6.28974H6.28648H6.28322H6.27996H6.2767H6.27344H6.27018H6.26692H6.26366H6.2604H6.25714H6.25388H6.25062H6.24736H6.2441H6.24084H6.23758H6.23431H6.23105H6.22779H6.22453H6.22127H6.21801H6.21475H6.21149H6.20823H6.20497H6.20171H6.19845H6.19519H6.19193H6.18867H6.1854H6.18214H6.17888H6.17562H6.17236H6.1691H6.16584H6.16258H6.15932H6.15606H6.1528H6.14954H6.14628H6.14302H6.13976H6.1365H6.13323H6.12997H6.12671H6.12345H6.12019H6.11693H6.11367H6.11041H6.10715H6.10389H6.10063H6.09737H6.09411H6.09085H6.08759H6.08433H6.08106H6.0778H6.07454H6.07128H6.06802H6.06476H6.0615H6.05824H6.05498H6.05172H6.04846H6.0452H6.04194H6.03868H6.03542H6.03216H6.02889H6.02563H6.02237H6.01911H6.01585H6.01259H6.00933H6.00607H6.00281H5.99955H5.99629H5.99303H5.98977H5.98651H5.98325H5.97999H5.97673H5.97346H5.9702H5.96694H5.96368H5.96042H5.95716H5.9539H5.95064H5.94738H5.94412H5.94086H5.9376H5.93434H5.93108H5.92782H5.92455H5.92129H5.91803H5.91477H5.91151H5.90825H5.90499H5.90173H5.89847H5.89521H5.89195H5.88869H5.88543H5.88217H5.87891H5.87565H5.87239H5.86912H5.86586H5.8626H5.85934H5.85608H5.85282H5.84956H5.8463H5.84304H5.83978H5.83652H5.83326H5.83H5.82674H5.82348H5.82021H5.81695H5.81369H5.81043H5.80717H5.80391H5.80065H5.79739H5.79413H5.79087H5.78761H5.78435H5.78109H5.77783H5.77457H5.77131H5.76804H5.76478H5.76152H5.75826H5.755H5.75174H5.74848H5.74522H5.74196H5.7387H5.73544H5.73218H5.72892H5.72566H5.7224H5.71914H5.71588H5.71261H5.70935H5.70609H5.70283H5.69957H5.69631H5.69305H5.68979H5.68653H5.68327H5.68001H5.67675H5.67349H5.67023H5.66697H5.6637H5.66044H5.65718H5.65392H5.65066H5.6474H5.64414H5.64088H5.63762H5.63436H5.6311H5.62784H5.62458H5.62132H5.61806H5.6148H5.61154H5.60827H5.60501H5.60175H5.59849H5.59523H5.59197H5.58871H5.58545H5.58219H5.57893H5.57567H5.57241H5.56915H5.56589H5.56263H5.55937H5.5561H5.55284H5.54958H5.54632H5.54306H5.5398H5.53654H5.53328H5.53002H5.52676H5.5235H5.52024H5.51698H5.51372H5.51046H5.50719H5.50393H5.50067H5.49741H5.49415H5.49089H5.48763H5.48437H5.48111H5.47785H5.47459H5.47133H5.46807H5.46481H5.46155H5.45829H5.45503H5.45176H5.4485H5.44524H5.44198H5.43872H5.43546H5.4322H5.42894H5.42568H5.42242H5.41916H5.4159H5.41264H5.40938H5.40612H5.40286H5.39959H5.39633H5.39307H5.38981H5.38655H5.38329H5.38003H5.37677H5.37351H5.37025H5.36699H5.36373H5.36047H5.35721H5.35395H5.35069H5.34742H5.34416H5.3409H5.33764H5.33438H5.33112H5.32786H5.3246H5.32134H5.31808H5.31482H5.31156H5.3083H5.30504H5.30178H5.29852H5.29525H5.29199H5.28873H5.28547H5.28221H5.27895H5.27569H5.27243H5.26917H5.26591H5.26265H5.25939H5.25613H5.25287H5.24961H5.24635H5.24308H5.23982H5.23656H5.2333H5.23004H5.22678H5.22352H5.22026H5.217H5.21374H5.21048H5.20722H5.20396H5.2007H5.19744H5.19418H5.19092H5.18765H5.18439H5.18113H5.17787H5.17461H5.17135H5.16809H5.16483H5.16157H5.15831H5.15505H5.15179H5.14853H5.14527H5.14201H5.13875H5.13548H5.13222H5.12896H5.12569H5.12241H5.11913H5.11584H5.11255H5.10924H5.10594H5.10262H5.0993H5.09598H5.09264H5.0893H5.08596H5.08261H5.07925H5.07588H5.07251H5.06914H5.06576H5.06237H5.05897H5.05557H5.05217H5.04875H5.04534H5.04191H5.03848H5.03504H5.0316H5.02815H5.0247H5.02124H5.01777H5.0143H5.01082H5.00734H5.00385H5.00035H4.99685H4.99334H4.98983H4.98631H4.98279H4.97926H4.97572H4.97218H4.96863H4.96508H4.96152H4.95796H4.95439H4.95081H4.94723H4.94364H4.94005H4.93645H4.93285H4.92924H4.92562H4.922H4.91837H4.91474H4.9111H4.90746H4.90381H4.90016H4.8965H4.89284H4.88917H4.88549H4.88181H4.87812H4.87443H4.87074H4.86703H4.86333H4.85961H4.8559H4.85217H4.84844H4.84471H4.84097H4.83723H4.83348H4.82972H4.82596H4.8222H4.81843H4.81465H4.81087H4.80709H4.80329H4.7995H4.7957H4.79189H4.78808H4.78426H4.78044H4.77662H4.77279H4.76895H4.76511H4.76126H4.75741H4.75356H4.7497H4.74583H4.74196H4.73808H4.7342H4.73032H4.72643H4.72253H4.71864H4.71473H4.71082H4.70691H4.70299H4.69907H4.69514H4.69121H4.68727H4.68333H4.67938H4.67543H4.67147H4.66751H4.66355H4.65958H4.6556H4.65162H4.64764H4.64365H4.63966H4.63566H4.63166H4.62766H4.62364H4.61963H4.61561H4.61159H4.60756H4.60353H4.59949H4.59545H4.5914H4.58735H4.5833H4.57924H4.57518H4.57111H4.56704H4.56296H4.55888H4.5548H4.55071H4.54662H4.54252H4.53842H4.53431H4.5302H4.52609H4.52197H4.51785H4.51372H4.50959H4.50546H4.50132H4.49718H4.49303H4.48888H4.48473H4.48057H4.47641H4.47224H4.46807H4.4639H4.45972H4.45554H4.45135H4.44716H4.44297H4.43877H4.43457H4.43037H4.42616H4.42195H4.41773H4.41351H4.40929H4.40506H4.40083H4.39659H4.39235H4.38811H4.38387H4.37962H4.37536H4.37111H4.36684H4.36258H4.35831H4.35404H4.34977H4.34549H4.34121H4.33692H4.33263H4.32834H4.32404H4.31974H4.31544H4.31114H4.30683H4.30251H4.2982H4.29388H4.28955H4.28523H4.2809H4.27656H4.27223H4.26789H4.26354H4.2592H4.25485H4.2505H4.24614H4.24178H4.23742H4.23305H4.22868H4.22431H4.21994H4.21556H4.21118H4.20679H4.2024H4.19801H4.19362H4.18922H4.18482H4.18042H4.17601H4.17161H4.16719H4.16278H4.15836H4.15394H4.14952H4.14509H4.14066H4.13623H4.13179H4.12736H4.12292H4.11847H4.11402H4.10958H4.10512H4.10067H4.09621H4.09175H4.08729H4.08282H4.07835H4.07388H4.06941H4.06493H4.06045H4.05597H4.05149H4.047H4.04251H4.03802H4.03352H4.02903H4.02453H4.02002H4.01552H4.01101H4.0065H4.00199H3.99747H3.99296H3.98844H3.98391H3.97939H3.97486H3.97033H3.9658H3.96127H3.95673H3.95219H3.94765H3.94311H3.93856H3.93402H3.92947H3.92491H3.92036H3.9158H3.91124H3.90668H3.90212H3.89755H3.89299H3.88842H3.88385H3.87927H3.8747H3.87012H3.86554H3.86096H3.85637H3.85179H3.8472H3.84261H3.83802H3.83342H3.82883H3.82423H3.81963H3.81503H3.81042H3.80582H3.80121H3.7966H3.79199H3.78738H3.78276H3.77815H3.77353H3.76891H3.76429H3.75966H3.75504H3.75041H3.74578H3.74115H3.73652H3.73189H3.72725H3.72261H3.71798H3.71334H3.70869H3.70405H3.69941H3.69476H3.69011H3.68546H3.68081H3.67616H3.6715H3.66685H3.66219H3.65753H3.65287H3.64821H3.64355H3.63889H3.63422H3.62955H3.62489H3.62022H3.61555H3.61088H3.6062H3.60153H3.59685H3.59218H3.5875H3.58282H3.57814H3.57346H3.56877H3.56409H3.5594H3.55472H3.55003H3.54534H3.54065H3.53596H3.53127H3.52658H3.52188H3.51719H3.51249H3.50779H3.5031H3.4984H3.4937H3.489H3.48429H3.47959H3.47489H3.47018H3.46548H3.46077H3.45607H3.45136H3.44665H3.44194H3.43723H3.43252H3.42781H3.42309H3.41838H3.41367H3.40895H3.40424H3.39952H3.39481H3.39009H3.38537H3.38065H3.37593H3.37121H3.36649H3.36177H3.35705H3.35233H3.3476H3.34288H3.33816H3.33343H3.32871H3.32398H3.31926H3.31453H3.30981H3.30508H3.30035H3.29563H3.2909H3.28617H3.28144H3.27671H3.27198H3.26725H3.26252H3.25779H3.25306H3.24833H3.2436H3.23887H3.23414H3.22941H3.22468H3.21995H3.21522H3.21048H3.20575H3.20102H3.19629H3.19156H3.18682H3.18209H3.17736H3.17263H3.16789H3.16316H3.15843H3.1537H3.14897H3.14423H3.1395H3.13477H3.13004H3.12531H3.12057H3.11584H3.11111H3.10638H3.10165H3.09692H3.09219H3.08746H3.08273H3.078H3.07327H3.06854H3.06381H3.05908H3.05435H3.04963H3.0449H3.04017H3.03544H3.03072H3.02599H3.02127H3.01654H3.01182H3.00709H3.00237H2.99764H2.99292H2.9882H2.98348H2.97876H2.97404H2.96932H2.9646H2.95988H2.95516H2.95044H2.94573H2.94101H2.93629H2.93159H2.9269H2.92222H2.91757H2.91293H2.90831H2.9037H2.89911H2.89454H2.88998H2.88545H2.88092H2.87642H2.87193H2.86745H2.863H2.85856H2.85413H2.84972H2.84533H2.84096H2.8366H2.83225H2.82792H2.82361H2.81931H2.81503H2.81077H2.80652H2.80228H2.79807H2.79386H2.78968H2.7855H2.78135H2.77721H2.77308H2.76897H2.76488H2.76079H2.75673H2.75268H2.74864H2.74462H2.74062H2.73663H2.73265H2.72869H2.72474H2.72081H2.7169H2.71299H2.7091H2.70523H2.70137H2.69753H2.6937H2.68988H2.68608H2.68229H2.67851H2.67475H2.67101H2.66728H2.66356H2.65985H2.65616H2.65249H2.64882H2.64517H2.64154H2.63791H2.63431H2.63071H2.62713H2.62356H2.62H2.61646H2.61293H2.60942H2.60591H2.60243H2.59895H2.59549H2.59203H2.5886H2.58517H2.58176H2.57836H2.57497H2.5716H2.56824H2.56489H2.56155H2.55823H2.55491H2.55161H2.54833H2.54505H2.54179H2.53854H2.5353H2.53207H2.52886H2.52565H2.52246H2.51928H2.51612H2.51296H2.50982H2.50668H2.50356H2.50045H2.49736H2.49427H2.4912H2.48813H2.48508H2.48204H2.47901H2.47599H2.47298H2.46998H2.467H2.46402H2.46106H2.45811H2.45517H2.45223H2.44931H2.4464H2.4435H2.44061H2.43773H2.43487H2.43201H2.42916H2.42632H2.4235H2.42068H2.41787H2.41508H2.41229H2.40952H2.40675H2.40399H2.40125H2.39851H2.39578H2.39306H2.39036H2.38766H2.38497H2.38229H2.37962H2.37696H2.37431H2.37167H2.36904H2.36641H2.3638H2.36119H2.3586H2.35601H2.35343H2.35087H2.34831H2.34575H2.34321H2.34068H2.33815H2.33564H2.33313H2.33063H2.32814H2.32566H2.32318H2.32072H2.31826H2.31581H2.31337H2.31094H2.30851H2.3061H2.30369H2.30129H2.29889H2.29651H2.29413H2.29176H2.2894H2.28704H2.2847H2.28236H2.28003H2.2777H2.27539H2.27308H2.27077H2.26848H2.26619H2.26391H2.26164H2.25937H2.25711H2.25486H2.25261H2.25037H2.24814H2.24592H2.2437H2.24149H2.23928H2.23708H2.23489H2.2327H2.23053H2.22835H2.22619H2.22403H2.22187H2.21972H2.21758H2.21544H2.21331H2.21119H2.20907H2.20696H2.20485H2.20275H2.20066H2.19857H2.19649H2.19441H2.19234H2.19027H2.18821H2.18615H2.1841H2.18205H2.18001H2.17798H2.17595H2.17392H2.1719H2.16989H2.16788H2.16587H2.16387H2.16188H2.15988H2.1579H2.15592H2.15394H2.15197H2.15H2.14804H2.14608H2.14412H2.14217H2.14022H2.13828H2.13634H2.13441H2.13248H2.13055H2.12863H2.12671H2.1248H2.12289H2.12098H2.11908H2.11718H2.11528H2.11339H2.1115H2.10962H2.10774H2.10586H2.10398H2.10211H2.10024H2.09838H2.09651H2.09465H2.0928H2.09094H2.08909H2.08725H2.0854H2.08356H2.08172H2.07988H2.07805H2.07622H2.07439H2.07256H2.07074H2.06891H2.06709H2.06528H2.06346H2.06165H2.05984H2.05803H2.05622H2.05442H2.05261H2.05081H2.04901H2.04722H2.04542H2.04363H2.04183H2.04004H2.03825H2.03647H2.03468H2.0329H2.03111H2.02933H2.02755H2.02577H2.02399H2.02221H2.02043H2.01866H2.01688H2.01511H2.01334H2.01156H2.00979H2.00802H2.00625H2.00448H2.00271H2.00094H1.99918H1.99741H1.99564H1.99387H1.99211H1.99034H1.98857H1.98681H1.98504H1.98327H1.98151H1.97974H1.97798H1.97621H1.97444H1.97267H1.97091H1.96914H1.96737H1.9656H1.96383H1.96206H1.96029H1.95852H1.95675H1.95497H1.9532H1.95142H1.94965H1.94787H1.94609H1.94431H1.94253H1.94075H1.93897H1.93719H1.9354H1.93361H1.93183H1.93004H1.92825H1.92645H1.92466H1.92286H1.92107H1.91927H1.91747H1.91566H1.91386H1.91205H1.91024H1.90843H1.90662H1.9048H1.90299H1.90117H1.89934H1.89752H1.89569H1.89386H1.89203H1.8902H1.88836H1.88652H1.88468H1.88283H1.88099H1.87914H1.87728H1.87542H1.87357H1.8717H1.86984H1.86797H1.8661H1.86422H1.86234H1.86046H1.85857H1.85668H1.85479H1.8529H1.851H1.84909H1.84719H1.84528H1.84336H1.84144H1.83952H1.83759H1.83566H1.83373H1.83179H1.82985H1.8279H1.82595H1.824H1.82204H1.82007H1.81811H1.81613H1.81416H1.81217H1.81019H1.8082H1.8062H1.8042H1.80219H1.80018H1.79817H1.79615H1.79412H1.79209H1.79006H1.78802H1.78597H1.78392H1.78186H1.7798H1.77773H1.77566H1.77358H1.7715H1.76941H1.76731H1.76521H1.76311H1.76099H1.75887H1.75675H1.75462H1.75248H1.75034H1.74819H1.74604H1.74388H1.74171H1.73954H1.73736H1.73517H1.73298H1.73078H1.72857H1.72636H1.72414H1.72192H1.71969H1.71745H1.7152H1.71295H1.71069H1.70842H1.70615H1.70387H1.70158H1.69928H1.69698H1.69467H1.69235H1.69003H1.6877H1.68536H1.68301H1.68065H1.67829H1.67592H1.67354H1.67116H1.66877H1.66636H1.66396H1.66154H1.65911H1.65668H1.65424H1.64628C1.54875 8.18039 1.46396 8.18039 1.39749 8.17624C1.33722 8.17248 1.24654 8.16405 1.16638 8.11859C1.05824 8.05727 1.01429 7.95916 0.9993 7.87598C0.988837 7.81793 0.990097 7.75092 0.99099 7.70345C0.991065 7.69951 0.991136 7.69571 0.991198 7.69205C0.993932 7.53134 1.06031 7.24883 1.17707 6.98117C1.29109 6.71975 1.47965 6.41029 1.76843 6.25053C2.18243 5.98049 2.6408 5.79074 3.12115 5.69094L3.12548 5.69004L3.12548 5.69008C3.19621 5.67668 3.25998 5.62016 3.28119 5.53629L3.28454 5.52303L3.28932 5.51022C3.29122 5.50515 3.29177 5.4994 3.29078 5.49372C3.2898 5.48804 3.28753 5.48377 3.28511 5.48095L3.27889 5.47368L3.27903 5.47356C3.17054 5.33641 3.08267 5.18346 3.01814 5.01989L3.01666 5.01616L3.01669 5.01615C2.94849 4.83478 2.85573 4.66478 2.74143 4.51126C2.46513 4.18926 2.39346 3.73558 2.54999 3.34291C2.54962 3.34184 2.54925 3.34075 2.54888 3.33965C2.54536 3.32926 2.54138 3.31644 2.5378 3.30185M4.08135 0.680973L2.5707 3.2952L2.58658 3.29112L2.58906 3.29048L2.78037 3.24131M2.5378 3.30185C2.53757 3.3009 2.53734 3.29995 2.53711 3.29899L2.57235 3.29063C2.57312 3.28895 2.57389 3.28727 2.57467 3.2856L2.5754 3.28403C2.57515 3.28455 2.57491 3.28507 2.57467 3.2856C2.57393 3.28722 2.57321 3.28889 2.5725 3.29059L2.58107 3.28856L2.58369 3.28794L2.78037 3.24131M2.5378 3.30185C2.36288 2.61926 2.48959 1.8906 2.88546 1.31325M2.5378 3.30185C2.53795 3.30241 2.53809 3.30298 2.53824 3.30354L2.57022 3.29532L3.91305 0.690073M2.78037 3.24131C2.62236 2.62656 2.73699 1.97067 3.09295 1.45273M2.78037 3.24131C2.78364 3.2551 2.7888 3.26853 2.79396 3.28195C2.80718 3.31638 2.82037 3.3507 2.8015 3.3907C2.65332 3.71048 2.70663 4.09158 2.93629 4.35439L3.09295 1.45273M3.09295 1.45273C3.28699 1.15729 3.59893 0.968342 3.94215 0.938356M3.09295 1.45273L3.95532 0.683768M3.09295 1.45273L2.88399 1.31549C2.88448 1.31474 2.88497 1.314 2.88546 1.31325M3.09295 1.45273L2.88691 1.31113C2.88643 1.31184 2.88594 1.31254 2.88546 1.31325M3.94215 0.938356C3.95276 0.937113 3.95605 0.936287 3.95909 0.935526C3.96253 0.934665 3.96563 0.933887 3.97858 0.932683L3.95532 0.683768M3.94215 0.938356L3.91305 0.690073M3.94215 0.938356L3.92039 0.689305L3.91305 0.690073M3.95532 0.683768C3.94692 0.68455 3.93745 0.685564 3.92763 0.68708C3.92231 0.687902 3.91692 0.688863 3.91139 0.690013C3.91107 0.690079 3.91075 0.690145 3.91044 0.690211M3.95532 0.683768L3.91044 0.690211M3.91305 0.690073C3.91206 0.69022 3.91034 0.690492 3.90812 0.690907C3.90325 0.691814 3.89849 0.692975 3.89845 0.692989C3.89844 0.692992 3.89872 0.692923 3.89937 0.692761C3.90142 0.692253 3.90539 0.691279 3.91044 0.690211M3.91044 0.690211C3.49358 0.729723 3.11849 0.959867 2.88546 1.31325M5.01905 1.02899C5.01912 1.02897 5.01951 1.02911 5.02006 1.02945L5.01905 1.02899Z" fill="white" stroke="white" stroke-width="0.5"/>
</svg>
