<svg width="22" height="22" viewBox="0 0 22 22" fill="none" xmlns="http://www.w3.org/2000/svg">
<path d="M19 18.4877L14.5176 14.0053C15.4877 12.8345 16.0229 11.3293 16.0229 9.69017C16.0229 5.87679 12.8785 2.73242 9.06517 2.73242C5.21833 2.73242 2.14087 5.87679 2.14087 9.69017C2.14087 13.537 5.25179 16.6479 9.06517 16.6479C10.6708 16.6479 12.1761 16.1127 13.3803 15.1426L17.8627 19.625C18.03 19.7923 18.2307 19.8592 18.4648 19.8592C18.6655 19.8592 18.8662 19.7923 19 19.625C19.3345 19.324 19.3345 18.8222 19 18.4877ZM3.7465 9.69017C3.7465 6.74651 6.1215 4.33806 9.09862 4.33806C12.0423 4.33806 14.4507 6.74651 14.4507 9.69017C14.4507 12.6673 12.0423 15.0423 9.09862 15.0423C6.1215 15.0423 3.7465 12.6673 3.7465 9.69017Z" fill="white"/>
</svg>
