<svg width="56" height="33" viewBox="0 0 56 33" fill="none" xmlns="http://www.w3.org/2000/svg">
<path d="M41.9874 11.9428C41.9874 11.9428 41.2389 9.12489 41.1324 8.56108C41.0259 7.99728 41.4529 6.9831 42.2015 7.65922C42.95 8.33534 45.9423 11.9439 45.9423 11.9439L46.4768 13.6342C46.4768 13.6342 41.9874 14.9864 41.9874 11.9428Z" fill="#E67D2C"/>
<path d="M41.6207 7.45117C41.2448 7.55248 41.0569 8.16694 41.1321 8.56116C41.2365 9.12496 41.9871 11.9429 41.9871 11.9429C41.9695 12.4524 42.1497 12.9475 42.4861 13.3137C42.8224 13.6799 43.2859 13.8856 43.7693 13.8831L41.6207 7.45117Z" fill="#DF574B"/>
<path d="M16.2297 13.4085L1.05244 3.71817C1.05244 3.71817 -1.08471 2.36483 0.731922 1.1249C2.54855 -0.115021 7.46495 0.561101 9.06859 1.01479C10.6722 1.46847 33.5441 11.7237 33.5441 11.7237L16.2297 13.4085Z" fill="#E67D2C"/>
<path d="M19.082 13.1299C15.7682 11.2458 4.08853 4.59357 0.0115467 2.07959C-0.122091 2.96934 1.05559 3.71373 1.05559 3.71373L16.2328 13.4041L19.082 13.1299Z" fill="#DF574B"/>
<path d="M49.5753 15.8884C49.449 20.0266 39.1067 24.4555 26.0614 24.4555C13.0161 24.4555 4.57812 21.0991 4.57812 16.9587C4.57812 12.8183 13.0161 9.46191 26.0614 9.46191C39.1067 9.46191 49.6828 12.3932 49.5753 15.8884Z" fill="#5D9EA4"/>
<path d="M4.57812 16.9587C4.57812 19.5156 7.79795 21.7719 13.3303 23.1253C13.84 21.442 14.0964 19.6848 14.0904 17.9178C14.1104 15.5167 13.6259 13.1407 12.6715 10.9606C7.54216 12.3271 4.57812 14.5053 4.57812 16.9587Z" fill="#463E77"/>
<path d="M4.57812 16.9587C4.57812 19.2436 7.15273 21.2885 11.6494 22.6639C12.0688 21.1208 12.2797 19.523 12.2758 17.9178C12.2904 15.6945 11.8777 13.4911 11.0627 11.4407C6.92722 12.8094 4.57812 14.7717 4.57812 16.9587Z" fill="#5D9EA4"/>
<path d="M20.6115 16.114C20.6115 16.114 19.8639 17.3539 21.573 18.4816C23.2821 19.6092 48.8225 32.1218 48.8225 32.1218C50.1911 32.7304 51.7346 32.7304 53.1031 32.1218C56.325 30.7321 55.2403 28.9647 51.7135 26.2592C50.0503 24.984 38.3498 15.7749 38.3498 15.7749C38.3498 15.7749 20.0769 13.6342 20.6115 16.114Z" fill="#E67D2C"/>
<path d="M53.0237 32.1516C45.0242 28.586 27.3789 19.0146 20.9716 15.5084C20.6928 15.6692 20.5603 15.8696 20.6125 16.1141C20.6125 16.1141 19.8649 17.354 21.574 18.4816C23.2831 19.6092 48.8235 32.1219 48.8235 32.1219C50.165 32.7159 51.6747 32.7266 53.0237 32.1516Z" fill="#DF574B"/>
<path d="M44.94 12.7962L49.4293 12.4582C49.4293 12.4582 50.1779 9.8649 50.819 7.15931C51.46 4.45372 51.9956 0.73395 51.9956 0.73395C51.9956 0.73395 50.819 -1.1821 48.8958 1.29775C46.9727 3.7776 42.5898 9.8649 42.5898 9.8649C42.5898 9.8649 40.7722 12.2335 44.94 12.7962Z" fill="#5D9EA4"/>
<path d="M48.8948 1.29883C46.9717 3.77868 42.5888 9.86598 42.5888 9.86598C42.2583 10.2415 42.1313 10.7685 42.2516 11.2649C42.3719 11.7614 42.7231 12.1594 43.1839 12.3216L50.7115 1.18651C51.0779 0.891113 51.5306 0.739642 51.9915 0.758153V0.73613C51.9915 0.73613 50.8232 -1.18212 48.8948 1.29883Z" fill="#463E77"/>
<path d="M44.1079 12.4835L49.2383 12.2633L53.8321 16.3211C53.8321 16.3211 55.0077 18.0114 53.19 18.2372C51.3723 18.4629 43.7842 14.2917 43.7842 14.2917C43.7842 14.2917 42.7183 13.4977 44.1079 12.4835Z" fill="#E67D2C"/>
<path d="M53.1919 18.2327C53.4217 18.2132 53.6451 18.143 53.8476 18.0268L43.688 12.8601C43.4886 13.0468 43.3829 13.3209 43.4021 13.6014C43.4214 13.882 43.5633 14.1371 43.7862 14.2916C43.7862 14.2916 51.3753 18.4585 53.1919 18.2327Z" fill="#DF574B"/>
<path d="M43.5208 11.7446C41.1424 7.42577 26.3901 4.03635 22.6399 3.26553C18.7916 2.47598 18.2549 4.05507 17.402 5.06925C16.7755 5.81805 14.629 9.08194 13.5474 10.7414C17.4103 11.4792 21.4455 12.3117 26.3045 12.8182C32.7222 13.4866 42.7586 14.2883 43.5208 11.7446Z" fill="#463E77"/>
<ellipse cx="27.3445" cy="7.20782" rx="1.17559" ry="1.23992" fill="#F5F1D6"/>
<path d="M31.8338 7.77264C31.8338 7.36244 31.5995 6.99263 31.2402 6.83565C30.8809 6.67868 30.4673 6.76545 30.1923 7.0555C29.9173 7.34555 29.835 7.78177 29.9839 8.16075C30.1327 8.53972 30.4833 8.78682 30.8722 8.78682C31.4033 8.78682 31.8338 8.33275 31.8338 7.77264Z" fill="#F5F1D6"/>
<path d="M34.6123 8.56114C34.6117 8.12599 34.277 7.7736 33.8644 7.7738C33.4518 7.77401 33.1174 8.12672 33.1172 8.56188C33.117 8.99704 33.4511 9.35008 33.8637 9.35069C34.0623 9.35098 34.2529 9.26789 34.3933 9.11976C34.5338 8.97163 34.6125 8.77063 34.6123 8.56114Z" fill="#F5F1D6"/>
<path d="M24.3813 3.63993C23.6766 3.48026 23.0804 3.35253 22.6409 3.26223C18.7926 2.47269 18.2559 4.05177 17.4029 5.06596C16.7765 5.81476 14.63 9.07864 13.5483 10.7381C16.8632 11.3713 20.3064 12.0716 24.2842 12.5793C24.5006 9.60489 24.5331 6.61878 24.3813 3.63993Z" fill="#FBC348"/>
</svg>
