<svg width="96" height="97" viewBox="0 0 96 97" fill="none" xmlns="http://www.w3.org/2000/svg">
<circle cx="48" cy="48.1523" r="48" fill="#2C50ED"/>
<path fill-rule="evenodd" clip-rule="evenodd" d="M63.1979 36.9918V52.6918C62.9979 52.6219 62.8013 52.5485 62.6063 52.4758C62.1737 52.3143 61.749 52.1558 61.3119 52.0448C60.6705 51.8874 60.0179 51.7801 59.3599 51.7238C55.7498 51.3114 52.2942 53.3063 50.8459 56.6388C50.3849 57.5529 50.1702 58.5714 50.2229 59.5938C50.4366 61.8212 51.5745 63.8569 53.3599 65.2058C55.0257 66.4302 57.0619 67.0445 59.1269 66.9458C61.3582 67.0008 63.5166 66.1489 65.1088 64.5847C66.7011 63.0206 67.5912 60.8777 67.5759 58.6458V43.1238C67.5759 42.3227 67.5767 41.5216 67.5775 40.7205C67.5795 38.6376 67.5815 36.5547 67.5699 34.4718C67.6082 33.7619 67.3047 33.0765 66.7534 32.6278C66.202 32.179 65.4692 32.0211 64.7819 32.2028C62.7219 32.6121 60.6622 33.0241 58.6029 33.4388C57.7741 33.5397 57.0725 34.0983 56.7884 34.8835C56.5044 35.6687 56.6863 36.5469 57.2589 37.1547C57.8314 37.7624 58.6972 37.9964 59.4979 37.7598C60.4435 37.5614 61.3885 37.366 62.3457 37.1681C62.6286 37.1096 62.9126 37.0509 63.1979 36.9918ZM55.4369 57.3628C56.3623 56.4994 57.5854 56.0268 58.8509 56.0438C60.0517 56.0253 61.22 56.4335 62.1479 57.1958C62.7916 57.664 63.1854 58.4012 63.2166 59.1965C63.2477 59.9918 62.9129 60.7576 62.3079 61.2748C60.3407 62.9939 57.4041 62.9887 55.4429 61.2628C54.8684 60.7784 54.5364 60.0656 54.5353 59.3142C54.5341 58.5627 54.8639 57.8489 55.4369 57.3628Z" fill="white"/>
<path fill-rule="evenodd" clip-rule="evenodd" d="M41.5103 55.236C41.5121 55.8418 41.5139 56.4537 41.5139 57.0749C41.4644 57.0578 41.4226 57.0442 41.3862 57.0323C41.3097 57.0073 41.2574 56.9903 41.2079 56.9659C39.8002 56.3243 38.2667 56.0058 36.7199 56.0339C33.2392 56.0123 30.1217 58.1842 28.9359 61.4569C28.5674 62.3194 28.4268 63.2623 28.5279 64.1949C28.9108 67.0485 30.7747 69.4868 33.4279 70.6049C34.7248 71.1121 36.1141 71.3398 37.5049 71.2729C41.3281 71.3579 44.6931 68.7653 45.5859 65.0469C45.795 63.8129 45.8748 62.5604 45.8239 61.3099C45.8478 58.7839 45.8419 56.258 45.836 53.732C45.8345 53.087 45.833 52.4419 45.8319 51.7969C45.8656 51.0148 45.4736 50.2758 44.8072 49.8651C44.1408 49.4544 43.3044 49.4364 42.6209 49.818C41.9375 50.1996 41.514 50.9211 41.5139 51.7039C41.5033 52.8733 41.5068 54.0427 41.5103 55.236ZM33.8889 61.5409C34.7754 60.7912 35.9021 60.3858 37.0629 60.3989V60.4009C38.2805 60.3553 39.4727 60.7565 40.4149 61.5289C41.0861 62.0077 41.4904 62.7764 41.5046 63.6007C41.5188 64.425 41.1412 65.2073 40.4869 65.7089C38.5434 67.3039 35.7414 67.2951 33.8079 65.6879C33.1677 65.1839 32.8008 64.4089 32.8168 63.5942C32.8327 62.7796 33.2295 62.0195 33.8889 61.5409Z" fill="white"/>
<path d="M41.515 34.3406C41.515 32.8016 41.499 31.3606 41.52 29.9196C41.546 28.8605 42.3377 27.9772 43.3877 27.8358C44.4377 27.6945 45.4348 28.337 45.74 29.3516C45.8123 29.63 45.8459 29.9171 45.84 30.2046C45.849 31.3916 45.867 32.5806 45.83 33.7666C45.815 34.2546 45.987 34.3586 46.436 34.3496C47.725 34.3246 49.015 34.3206 50.303 34.3496C51.3487 34.3738 52.2172 35.1638 52.34 36.2026C52.4993 37.2731 51.8351 38.2943 50.792 38.5826C50.5282 38.6437 50.2576 38.6703 49.987 38.6616C48.633 38.6696 47.279 38.6616 45.87 38.6616C45.859 38.8816 45.843 39.0616 45.843 39.2406C45.843 40.4786 45.851 41.7176 45.843 42.9556C45.863 43.7382 45.4583 44.4705 44.7849 44.8698C44.1115 45.2691 43.2748 45.273 42.5977 44.8799C41.9207 44.4869 41.5092 43.7584 41.522 42.9756C41.506 41.7376 41.494 40.4986 41.532 39.2606C41.548 38.7526 41.378 38.6386 40.9 38.6506C39.629 38.6816 38.355 38.6796 37.084 38.6506C36.0388 38.636 35.1622 37.8577 35.024 36.8216C34.8511 35.7518 35.5046 34.7214 36.546 34.4216C36.7919 34.3586 37.0452 34.3294 37.299 34.3346C38.499 34.3256 39.708 34.3346 40.912 34.3346L41.515 34.3406Z" fill="white"/>
</svg>
