<svg width="38" height="20" viewBox="0 0 38 20" fill="none" xmlns="http://www.w3.org/2000/svg">
<g filter="url(#filter0_d_1471_37126)">
<path d="M4 0H28C31.3137 0 34 2.68629 34 6V12H4V0Z" fill="url(#paint0_linear_1471_37126)"/>
</g>
<path d="M12.0176 8.20001V3.1091H13.0939V7.31258H15.2765V8.20001H12.0176ZM19.0505 4.38183L17.7156 8.20001H16.5225L15.1876 4.38183H16.3062L17.0992 7.11372H17.1389L17.9294 4.38183H19.0505ZM19.9721 8.26464C19.8081 8.26464 19.6672 8.20664 19.5495 8.09064C19.4335 7.97298 19.3755 7.83211 19.3755 7.66805C19.3755 7.50565 19.4335 7.36644 19.5495 7.25044C19.6672 7.13443 19.8081 7.07643 19.9721 7.07643C20.1312 7.07643 20.2704 7.13443 20.3897 7.25044C20.5091 7.36644 20.5687 7.50565 20.5687 7.66805C20.5687 7.77743 20.5405 7.87769 20.4842 7.96883C20.4295 8.05832 20.3574 8.13041 20.2679 8.1851C20.1784 8.23813 20.0798 8.26464 19.9721 8.26464ZM22.809 8.20001V7.42444L24.6212 5.74653C24.7753 5.59738 24.9046 5.46315 25.009 5.34383C25.115 5.22451 25.1954 5.10768 25.2501 4.99334C25.3048 4.87733 25.3321 4.75221 25.3321 4.61798C25.3321 4.46883 25.2982 4.3404 25.2302 4.23268C25.1623 4.12331 25.0695 4.03962 24.9518 3.98162C24.8341 3.92196 24.7007 3.89213 24.5516 3.89213C24.3958 3.89213 24.2599 3.92362 24.1439 3.98659C24.0279 4.04956 23.9384 4.13988 23.8754 4.25754C23.8125 4.3752 23.781 4.51523 23.781 4.67764H22.7593C22.7593 4.34454 22.8347 4.05536 22.9855 3.8101C23.1363 3.56483 23.3476 3.37508 23.6194 3.24085C23.8912 3.10662 24.2044 3.0395 24.559 3.0395C24.9236 3.0395 25.241 3.10413 25.5111 3.23339C25.7829 3.361 25.9942 3.53832 26.145 3.76535C26.2958 3.99239 26.3712 4.25257 26.3712 4.54589C26.3712 4.73813 26.3331 4.92788 26.2568 5.11514C26.1823 5.3024 26.0489 5.51038 25.8566 5.73907C25.6644 5.96611 25.3934 6.23872 25.0438 6.5569L24.3005 7.28524V7.32004H26.4383V8.20001H22.809ZM29.2143 8.31187C28.7868 8.31022 28.4189 8.20498 28.1106 7.99618C27.804 7.78737 27.5679 7.48493 27.4022 7.08886C27.2381 6.69279 27.1569 6.21635 27.1586 5.65953C27.1586 5.10437 27.2406 4.63124 27.4047 4.24014C27.5704 3.84904 27.8065 3.55157 28.1131 3.34774C28.4213 3.14225 28.7884 3.0395 29.2143 3.0395C29.6402 3.0395 30.0065 3.14225 30.313 3.34774C30.6213 3.55323 30.8583 3.85153 31.024 4.24263C31.1897 4.63207 31.2717 5.10437 31.2701 5.65953C31.2701 6.218 31.1872 6.69528 31.0215 7.09135C30.8574 7.48742 30.6221 7.78986 30.3155 7.99866C30.0089 8.20747 29.6419 8.31187 29.2143 8.31187ZM29.2143 7.41947C29.506 7.41947 29.7388 7.27281 29.9128 6.97949C30.0868 6.68616 30.173 6.24618 30.1713 5.65953C30.1713 5.2734 30.1316 4.95191 30.052 4.69504C29.9741 4.43817 29.8631 4.24511 29.7189 4.11585C29.5764 3.98659 29.4082 3.92196 29.2143 3.92196C28.9243 3.92196 28.6923 4.06696 28.5183 4.35697C28.3443 4.64698 28.2565 5.08117 28.2548 5.65953C28.2548 6.05063 28.2937 6.3771 28.3716 6.63893C28.4512 6.89911 28.563 7.09466 28.7072 7.22558C28.8514 7.35484 29.0204 7.41947 29.2143 7.41947Z" fill="white"/>
<defs>
<filter id="filter0_d_1471_37126" x="0" y="0" width="38" height="20" filterUnits="userSpaceOnUse" color-interpolation-filters="sRGB">
<feFlood flood-opacity="0" result="BackgroundImageFix"/>
<feColorMatrix in="SourceAlpha" type="matrix" values="0 0 0 0 0 0 0 0 0 0 0 0 0 0 0 0 0 0 127 0" result="hardAlpha"/>
<feOffset dy="4"/>
<feGaussianBlur stdDeviation="2"/>
<feComposite in2="hardAlpha" operator="out"/>
<feColorMatrix type="matrix" values="0 0 0 0 0 0 0 0 0 0 0 0 0 0 0 0 0 0 0.25 0"/>
<feBlend mode="normal" in2="BackgroundImageFix" result="effect1_dropShadow_1471_37126"/>
<feBlend mode="normal" in="SourceGraphic" in2="effect1_dropShadow_1471_37126" result="shape"/>
</filter>
<linearGradient id="paint0_linear_1471_37126" x1="34" y1="5.6" x2="4.49484" y2="5.91256" gradientUnits="userSpaceOnUse">
<stop stop-color="#1E2A4B"/>
<stop offset="1" stop-color="#493DA9"/>
</linearGradient>
</defs>
</svg>
