<svg width="18" height="23" viewBox="0 0 18 23" fill="none" xmlns="http://www.w3.org/2000/svg">
<path d="M6.43956 5.7246C5.55337 5.7246 3.77458 3.93698 3.07124 3.19354C3.41249 3.03492 3.5717 2.63839 3.4349 2.28782C3.29809 1.93725 2.91238 1.75337 2.55389 1.86782C2.19539 1.98227 1.98758 2.35563 2.07921 2.72062C2.17085 3.08561 2.53038 3.31653 2.90041 3.24808L5.02888 9.68639H9.33151V0.696167C9.33151 0.696167 8.47259 5.7246 6.43956 5.7246Z" fill="#FE7738"/>
<path d="M7.57695 4.63224C7.178 4.06044 6.813 3.46568 6.48385 2.85103C6.73453 2.77308 6.88374 2.51614 6.82722 2.25978C6.77069 2.00343 6.52726 1.83306 6.26704 1.86776C6.00683 1.90245 5.81654 2.13065 5.82915 2.39286C5.84177 2.65507 6.05309 2.86394 6.31544 2.87349C6.24765 3.64819 6.06157 4.40792 5.76367 5.12626C5.76367 5.12626 6.66991 6.15199 7.57695 4.63224Z" fill="#FE7738"/>
<path d="M12.9046 5.12713C12.6068 4.40876 12.4207 3.64904 12.3528 2.87436C12.6129 2.86453 12.8222 2.65723 12.8346 2.39722C12.8469 2.13722 12.6582 1.91104 12.4002 1.87663C12.1421 1.84223 11.9007 2.01106 11.8445 2.26521C11.7883 2.51937 11.936 2.77427 12.1844 2.8519C11.8552 3.46653 11.4902 4.06129 11.0913 4.63311C11.9984 6.15206 12.9046 5.12713 12.9046 5.12713Z" fill="#FDBF9E"/>
<path d="M15.8886 1.86947C15.5641 1.87176 15.2844 2.09819 15.2145 2.41507C15.1446 2.73194 15.3032 3.05501 15.5967 3.19354C14.8949 3.93698 13.1169 5.7246 12.2283 5.7246C10.1961 5.7246 9.33398 0.696167 9.33398 0.696167V9.68639H13.6366L15.7651 3.24808C16.0235 3.29332 16.2855 3.18922 16.4423 2.9789C16.5992 2.76857 16.6243 2.48785 16.5073 2.25301C16.3902 2.01817 16.151 1.86922 15.8886 1.86786V1.86947Z" fill="#FDBF9E"/>
<path d="M10.0292 0.696121C10.0292 0.977675 9.85962 1.23151 9.5995 1.33925C9.33938 1.447 9.03996 1.38744 8.84087 1.18835C8.64178 0.989263 8.58223 0.689849 8.68997 0.429727C8.79772 0.169604 9.05155 0 9.3331 0C9.71756 0 10.0292 0.311664 10.0292 0.696121Z" fill="#FE7738"/>
<path d="M10.7029 6.33333C9.36345 6.24956 8.01952 6.39355 6.72825 6.75918C5.65279 7.20508 5.30794 6.98694 4.4827 7.80978C3.65746 8.63261 2.96855 8.80664 2.52345 9.8821C2.07835 10.9576 1.29963 11.7563 1.29963 12.92C1.29963 14.0837 0.854529 14.8592 1.29963 15.9339C1.74473 17.0085 1.35978 17.6044 2.18181 18.428C3.00384 19.2517 4.05925 20.85 5.13471 21.2959C6.21017 21.7418 6.32726 22.2046 7.49093 22.2046C8.65461 22.2046 10.7598 22.365 11.8353 21.9207C12.9107 21.4764 13.1128 21.8629 13.9365 21.0385C15.2095 19.4638 16.3015 17.751 17.1917 15.9323C17.6368 14.8576 17.1917 15.0757 17.1917 13.9121C17.0845 12.6877 16.7508 11.4939 16.2077 10.3914C15.7213 9.40027 15.0348 8.52071 14.1915 7.80817C13.3687 6.98534 14.0175 7.51545 12.942 7.07035C11.8666 6.62525 11.8666 6.33333 10.7029 6.33333Z" fill="url(#paint0_linear_1471_42308)"/>
<path fill-rule="evenodd" clip-rule="evenodd" d="M0.913818 14.2892C0.913671 9.68567 4.64529 5.95357 9.24882 5.95313C11.4599 5.95291 13.5805 6.83116 15.1439 8.39463C16.7074 9.95809 17.5856 12.0787 17.5854 14.2897C17.585 18.8933 13.8529 22.6249 9.24936 22.6247C4.64583 22.6246 0.913966 18.8927 0.913818 14.2892ZM16.427 11.3158C15.2244 8.41246 12.3914 6.51946 9.24884 6.51946C4.96 6.52476 1.48454 10.0002 1.47923 14.2891C1.47923 17.4316 3.37224 20.2647 6.27554 21.4672C9.17884 22.6698 12.5207 22.0051 14.7428 19.783C16.9649 17.5609 17.6296 14.2191 16.427 11.3158Z" fill="#333333"/>
<path d="M16.5839 14.289C16.5839 18.34 13.3 21.624 9.24899 21.624C5.19802 21.624 1.91406 18.34 1.91406 14.289C1.91406 10.2381 5.19802 6.9541 9.24899 6.9541C13.3 6.9541 16.5839 10.2381 16.5839 14.289Z" fill="#E0E0E0"/>
<defs>
<linearGradient id="paint0_linear_1471_42308" x1="1.10181" y1="22.2328" x2="17.3895" y2="22.2328" gradientUnits="userSpaceOnUse">
<stop stop-color="#FE7738"/>
<stop offset="0.291" stop-color="#FFA06D"/>
<stop offset="0.342" stop-color="#FDBF9E"/>
<stop offset="0.435" stop-color="#FDBF9E"/>
<stop offset="0.485" stop-color="#FDBF9E"/>
<stop offset="0.533" stop-color="#FDBF9E"/>
<stop offset="0.598" stop-color="#FDBF9E"/>
<stop offset="0.667" stop-color="#FDBF9E"/>
<stop offset="0.73" stop-color="#FDBF9E"/>
<stop offset="0.847" stop-color="#FFA06D"/>
<stop offset="1" stop-color="#FE7738"/>
</linearGradient>
</defs>
</svg>
