<svg width="31" height="23" viewBox="0 0 31 23" fill="none" xmlns="http://www.w3.org/2000/svg">
<path d="M12.6953 5.72762C11.8087 5.72762 10.0291 3.93914 9.32539 3.19535C9.6668 3.03665 9.82609 2.63993 9.68922 2.28919C9.55235 1.93846 9.16645 1.75449 8.80779 1.86899C8.44912 1.98349 8.24121 2.35704 8.33289 2.7222C8.42457 3.08737 8.78427 3.3184 9.15448 3.24991L11.284 9.69132H15.5887V0.696777C15.5887 0.696777 14.7293 5.72762 12.6953 5.72762Z" fill="#DB9C32"/>
<path d="M13.8332 4.63467C13.434 4.06259 13.0689 3.46754 12.7396 2.85261C12.9904 2.77462 13.1397 2.51755 13.0831 2.26107C13.0265 2.00459 12.783 1.83415 12.5227 1.86886C12.2623 1.90357 12.0719 2.13187 12.0846 2.39421C12.0972 2.65655 12.3086 2.86552 12.5711 2.87507C12.5033 3.65014 12.3171 4.41024 12.019 5.12892C12.019 5.12892 12.9257 6.15515 13.8332 4.63467Z" fill="#DB9C32"/>
<path d="M19.1633 5.12979C18.8653 4.41108 18.6792 3.65099 18.6112 2.87594C18.8715 2.86611 19.0809 2.65871 19.0932 2.39858C19.1056 2.13844 18.9167 1.91215 18.6586 1.87774C18.4005 1.84332 18.1589 2.01222 18.1027 2.2665C18.0464 2.52078 18.1942 2.7758 18.4427 2.85347C18.1134 3.46839 17.7482 4.06344 17.3491 4.63553C18.2566 6.15521 19.1633 5.12979 19.1633 5.12979Z" fill="#E4BC67"/>
<path d="M22.1488 1.87064C21.8242 1.87294 21.5443 2.09947 21.4744 2.4165C21.4045 2.73353 21.5632 3.05675 21.8568 3.19535C21.1547 3.93914 19.3758 5.72762 18.4868 5.72762C16.4536 5.72762 15.5911 0.696777 15.5911 0.696777V9.69132H19.8958L22.0252 3.24991C22.2838 3.29518 22.5459 3.19103 22.7028 2.9806C22.8598 2.77018 22.8849 2.48932 22.7678 2.25437C22.6507 2.01942 22.4113 1.8704 22.1488 1.86904V1.87064Z" fill="#E4BC67"/>
<path d="M16.2867 0.696455C16.2867 0.978145 16.117 1.2321 15.8568 1.3399C15.5965 1.44769 15.297 1.38811 15.0978 1.18892C14.8986 0.989738 14.839 0.690181 14.9468 0.429933C15.0546 0.169686 15.3086 0 15.5903 0C15.9749 0 16.2867 0.311813 16.2867 0.696455Z" fill="#DB9C32"/>
<path d="M16.9604 6.33615C15.6203 6.25233 14.2758 6.3964 12.9839 6.7622C11.9079 7.20832 11.5629 6.99008 10.7372 7.8133C9.91161 8.63653 9.22238 8.81065 8.77707 9.88662C8.33175 10.9626 7.55265 11.7618 7.55265 12.926C7.55265 14.0902 7.10734 14.8661 7.55265 15.9413C7.99797 17.0165 7.61283 17.6126 8.43526 18.4366C9.25768 19.2607 10.3136 20.8598 11.3896 21.3059C12.4655 21.752 12.5827 22.215 13.7469 22.215C14.9112 22.215 17.0174 22.3755 18.0934 21.931C19.1693 21.4864 19.3715 21.8732 20.1956 21.0484C21.4692 19.4729 22.5617 17.7593 23.4524 15.9397C23.8977 14.8645 23.4524 15.0828 23.4524 13.9185C23.3451 12.6936 23.0113 11.4992 22.4679 10.3961C21.9812 9.40456 21.2944 8.52458 20.4507 7.8117C19.6275 6.98847 20.2766 7.51884 19.2006 7.07352C18.1246 6.62821 18.1246 6.33615 16.9604 6.33615Z" fill="url(#paint0_linear_1471_42262)"/>
<path fill-rule="evenodd" clip-rule="evenodd" d="M7.16675 14.2959C7.1666 9.69015 10.9 5.95625 15.5058 5.95581C17.7179 5.9556 19.8395 6.83427 21.4037 8.39848C22.9679 9.9627 23.8466 12.0843 23.8464 14.2964C23.8459 18.9022 20.112 22.6356 15.5063 22.6354C10.9005 22.6353 7.1669 18.9016 7.16675 14.2959ZM22.6873 11.3211C21.4841 8.41637 18.6497 6.52245 15.5057 6.52245C11.2148 6.52776 7.73764 10.0049 7.73233 14.2958C7.73233 17.4398 9.62624 20.2742 12.5309 21.4774C15.4356 22.6806 18.7791 22.0155 21.0022 19.7924C23.2254 17.5692 23.8905 14.2258 22.6873 11.3211Z" fill="#333333"/>
<path d="M29.4647 8.42743C29.4519 8.44749 29.4343 8.47878 29.4118 8.5189C29.3669 8.59914 29.3003 8.71548 29.224 8.86151C29.1478 9.00754 29.0363 9.17684 28.9296 9.37021C28.8691 9.46329 28.8055 9.56251 28.7386 9.66789C28.7049 9.71924 28.6728 9.7722 28.6391 9.82836C28.6054 9.88453 28.5629 9.93428 28.5244 9.98884C28.3783 10.2087 28.2034 10.4309 28.0205 10.6604L27.7284 11.0014C27.6209 11.1113 27.5198 11.2269 27.4075 11.3392L27.2382 11.5053C27.2093 11.5326 27.182 11.5607 27.1579 11.5855C27.1339 11.6104 27.0994 11.6401 27.0705 11.6658C26.9501 11.7733 26.8346 11.8856 26.707 11.9867C26.6452 12.0389 26.5818 12.0918 26.5201 12.1472L26.3227 12.2972C26.1927 12.3991 26.0555 12.4946 25.9215 12.5901C25.7875 12.6856 25.6407 12.7706 25.5043 12.8653C25.3679 12.96 25.221 13.0394 25.0742 13.1173C24.9274 13.1951 24.7877 13.2777 24.6417 13.3516C24.4957 13.4254 24.3529 13.4992 24.2108 13.5682C24.141 13.6043 24.0672 13.6348 23.9966 13.6677L23.7864 13.7648C23.6452 13.8242 23.5088 13.8867 23.3724 13.9421C23.236 13.9975 23.1052 14.052 22.976 14.1026C22.8468 14.1531 22.7216 14.1997 22.6021 14.2454L22.5154 14.2767C22.2828 14.865 21.8292 15.339 21.2517 15.5974C21.3267 15.9041 21.3396 16.2228 21.2894 16.5345L21.3151 16.695H21.3528L21.4748 16.683C21.5735 16.671 21.7155 16.6541 21.8872 16.6268C22.0589 16.5995 22.2715 16.5586 22.5074 16.5025C22.7433 16.4463 23.0089 16.3741 23.2945 16.2866C23.5802 16.1992 23.8859 16.0876 24.2028 15.9552C24.5377 15.8181 24.8655 15.6641 25.1849 15.4939C25.351 15.404 25.5211 15.315 25.6856 15.2098C25.8501 15.1047 26.0194 15.002 26.1855 14.8889C26.3516 14.7758 26.5112 14.6522 26.6749 14.5334C26.8386 14.4147 26.9959 14.2807 27.1451 14.1419C27.2943 14.0031 27.4516 13.8707 27.5912 13.7198L27.8038 13.5L28.0044 13.2705C28.2646 12.9699 28.4989 12.6478 28.7049 12.3077C28.8068 12.1472 28.8902 11.9707 28.9761 11.8086C29.062 11.6465 29.1237 11.4724 29.1927 11.3119C29.2256 11.2319 29.2543 11.1502 29.2786 11.0672C29.3043 10.987 29.3307 10.9067 29.3588 10.8265C29.3845 10.7501 29.4051 10.6721 29.4206 10.593C29.4372 10.516 29.454 10.4403 29.4712 10.3659C29.4864 10.2913 29.5017 10.2199 29.5137 10.1493C29.5257 10.0787 29.5329 10.0073 29.5402 9.93909C29.553 9.80189 29.5723 9.67511 29.5763 9.55315C29.5803 9.43119 29.5763 9.31806 29.5763 9.21375C29.5781 9.11842 29.5746 9.02305 29.5658 8.92811C29.5482 8.7548 29.5281 8.6208 29.5145 8.52692C29.5081 8.48199 29.5025 8.44669 29.4976 8.42422L29.4912 8.38892L29.4728 8.42101" fill="url(#paint1_linear_1471_42262)"/>
<path d="M29.7734 14.1168C29.6466 14.1682 29.4958 14.2292 29.3225 14.2918C29.1492 14.3543 28.9566 14.4225 28.7472 14.4875C28.5378 14.5525 28.3123 14.6191 28.0748 14.6793C27.8373 14.7395 27.5894 14.7957 27.3342 14.8478C27.2058 14.8727 27.0775 14.8976 26.9459 14.9184C26.8801 14.9288 26.8151 14.9417 26.7485 14.9521C26.6819 14.9625 26.6153 14.9682 26.5487 14.9794C26.2839 15.0195 26.0127 15.0452 25.7463 15.0701L25.5433 15.0813C25.4759 15.0869 25.4093 15.0933 25.3419 15.0941C25.2063 15.0941 25.074 15.1062 24.9408 15.1062C24.8076 15.1062 24.6768 15.1142 24.5452 15.1062C24.4136 15.0981 24.286 15.1062 24.1585 15.0997L23.7837 15.0869C23.6602 15.0765 23.543 15.0725 23.4235 15.066C23.1892 15.046 22.9669 15.0364 22.7599 15.0147C22.6572 15.0043 22.5577 14.9962 22.4631 14.9898C22.3684 14.9834 22.2785 14.969 22.1943 14.9625L22.1084 14.9545C21.8748 15.231 21.5812 15.4506 21.2499 15.5964C21.3528 16.0203 21.3379 16.4642 21.2065 16.8802L21.3205 16.9203C21.4553 16.9685 21.6214 17.015 21.8147 17.0639C22.0081 17.1129 22.2272 17.1618 22.4695 17.2044L22.6556 17.2373L22.8506 17.2613C22.983 17.2758 23.1202 17.2966 23.2622 17.3047C23.4042 17.3127 23.5503 17.3239 23.6995 17.3287C23.8487 17.3335 24.0028 17.3287 24.1585 17.3287C24.3141 17.3287 24.4738 17.3127 24.6351 17.3055C24.7963 17.2982 24.956 17.271 25.1213 17.2525C25.4518 17.2077 25.7794 17.1439 26.1026 17.0615C26.2631 17.0166 26.4235 16.9717 26.584 16.9211C26.7445 16.8706 26.9001 16.8136 27.0518 16.7494C27.3511 16.6283 27.6419 16.4873 27.9224 16.3274C28.1827 16.1772 28.4323 16.0091 28.6694 15.8243C28.8814 15.6607 29.0811 15.4818 29.2671 15.2891C29.4246 15.1286 29.5709 14.9575 29.7052 14.7772C29.8084 14.6384 29.903 14.4934 29.9885 14.3431C30.0642 14.2127 30.1276 14.0754 30.1778 13.9331C30.1778 13.9331 30.0294 14.0053 29.7766 14.1072" fill="url(#paint2_linear_1471_42262)"/>
<path d="M28.1463 17.134C28.0347 17.1404 27.8999 17.1452 27.7451 17.1492C27.5902 17.1532 27.4241 17.154 27.2428 17.1492C26.4016 17.1452 25.5649 17.027 24.7555 16.7978L24.5998 16.7504L24.4466 16.6959C24.3447 16.6622 24.2452 16.6229 24.1465 16.5827C23.9507 16.5025 23.7621 16.4159 23.5848 16.3244C23.4933 16.2843 23.4099 16.2289 23.3248 16.1848C23.2398 16.1406 23.1596 16.0901 23.0841 16.0428L22.967 15.9729L22.8571 15.8999C22.7849 15.851 22.7126 15.8093 22.6468 15.7619C22.5169 15.6656 22.3909 15.587 22.2874 15.5036C22.1839 15.4201 22.0852 15.3599 22.013 15.2966C21.9584 15.2524 21.9119 15.2163 21.8742 15.1882C21.7327 15.3154 21.5768 15.4256 21.4096 15.5164L21.2636 15.6769C21.3616 16.1563 21.3113 16.6542 21.1191 17.1043C21.2459 17.2054 21.4008 17.3041 21.5645 17.4148C21.6535 17.471 21.7506 17.5255 21.8477 17.5817L22.0001 17.6667L22.1606 17.747C22.3892 17.8604 22.6245 17.9598 22.8651 18.0447C23.1219 18.1365 23.3846 18.211 23.6514 18.2677C23.787 18.2966 23.9242 18.3255 24.063 18.3431L24.2724 18.372L24.4819 18.3905C24.7584 18.4126 25.0361 18.4163 25.3131 18.4017C25.5781 18.3872 25.8417 18.3537 26.1018 18.3014C26.2278 18.279 26.3498 18.2461 26.4693 18.2172C26.5889 18.1883 26.7028 18.1522 26.8111 18.1113C27.0168 18.0411 27.2177 17.958 27.4129 17.8625C27.5764 17.7822 27.7353 17.6927 27.8887 17.5945C28.0065 17.5189 28.12 17.4369 28.2289 17.349C28.2994 17.2933 28.3669 17.2338 28.4311 17.1709C28.4545 17.1491 28.4767 17.126 28.4977 17.1019C28.4977 17.1019 28.3645 17.1147 28.1423 17.1284" fill="url(#paint3_linear_1471_42262)"/>
<path d="M25.5512 19.4915C25.5055 19.4755 25.4397 19.4482 25.3594 19.4161C25.2792 19.384 25.1837 19.3431 25.0786 19.2853C24.9735 19.2275 24.8604 19.1698 24.7408 19.1048C24.6814 19.0695 24.6213 19.0293 24.5595 18.9916L24.4664 18.9347L24.3741 18.8665C24.3116 18.8223 24.249 18.7798 24.1864 18.7333C24.1238 18.6867 24.0636 18.6314 24.0002 18.5832C23.9362 18.5334 23.8751 18.4798 23.8173 18.4228C23.7571 18.3674 23.6953 18.3144 23.6368 18.2551C23.5782 18.1957 23.5244 18.1299 23.4683 18.0681L23.388 17.9758C23.3599 17.9445 23.3367 17.9076 23.3078 17.8747C23.2024 17.7447 23.1043 17.6089 23.0141 17.4679C22.9692 17.3973 22.9259 17.3275 22.8809 17.2601C22.8601 17.2256 22.836 17.1951 22.8167 17.1582L22.7598 17.0507C22.6852 16.9079 22.6081 16.7779 22.5431 16.6495C22.4781 16.5211 22.4244 16.3863 22.369 16.27C22.3417 16.2122 22.3121 16.1577 22.2888 16.1031C22.2655 16.0485 22.2471 15.994 22.2278 15.9426L22.1235 15.6875C22.0625 15.5479 22.0256 15.4692 22.0256 15.4692L21.2842 15.7701C21.371 16.3054 21.2758 16.8543 21.0138 17.3291C20.9986 17.3941 20.9817 17.4591 20.9617 17.5217C20.9769 17.545 20.9906 17.5674 21.0066 17.5899C21.1149 17.7423 21.2473 17.894 21.3765 18.0537C21.6606 18.382 21.98 18.678 22.3289 18.9363C22.3738 18.9692 22.4156 19.0045 22.4629 19.0342L22.6057 19.1232C22.7012 19.1818 22.7959 19.2396 22.889 19.2941C22.982 19.3487 23.0871 19.3904 23.1834 19.4361C23.2779 19.4837 23.3758 19.5242 23.4763 19.5573C23.575 19.5918 23.6737 19.6199 23.7684 19.6496C23.863 19.6793 23.9625 19.6897 24.0548 19.7089L24.192 19.7322C24.2377 19.7362 24.2835 19.741 24.3276 19.7434C24.4175 19.7475 24.5009 19.7563 24.5836 19.7547C24.7318 19.7533 24.8796 19.7398 25.0257 19.7146C25.137 19.6951 25.2469 19.6683 25.3546 19.6343C25.4234 19.6119 25.4907 19.5851 25.556 19.5541C25.5795 19.5436 25.602 19.5313 25.6234 19.5172L25.5512 19.4923" fill="url(#paint4_linear_1471_42262)"/>
<path d="M24.0859 20.2582C24.0579 20.2398 24.0282 20.2133 23.9961 20.1908C23.964 20.1683 23.9303 20.1435 23.895 20.1106C23.8597 20.0777 23.8228 20.0504 23.7851 20.0215L23.6647 19.9236C23.5845 19.8586 23.5042 19.776 23.424 19.703C23.3839 19.6596 23.3438 19.6227 23.3028 19.5786L23.2419 19.5176L23.1841 19.451C23.1464 19.4053 23.1038 19.3652 23.0677 19.3218C23.0316 19.2785 22.9947 19.2288 22.9586 19.183C22.9402 19.1606 22.9225 19.1381 22.9033 19.1172C22.884 19.0964 22.8704 19.0683 22.8535 19.0442C22.8206 18.9969 22.7893 18.9487 22.7548 18.9038C22.7203 18.8589 22.6962 18.8043 22.6674 18.7562L22.5815 18.6142C22.5582 18.5628 22.5342 18.5131 22.5093 18.4649C22.4628 18.3935 22.4178 18.3213 22.3769 18.2491C22.336 18.1769 22.2967 18.103 22.2573 18.0292C21.985 17.4038 21.748 16.7635 21.5473 16.1116C21.0185 16.5047 21.2793 17.2959 20.8131 17.888C20.7866 17.9434 20.7569 17.9955 20.7264 18.0485C20.6333 18.205 20.5229 18.3506 20.3975 18.4826L20.4456 18.5805C20.5066 18.6952 20.566 18.8212 20.647 18.9471C20.728 19.0731 20.8243 19.2023 20.923 19.3323C21.0217 19.4623 21.1509 19.5834 21.272 19.7054C21.3932 19.8273 21.5408 19.9349 21.6845 20.0368C21.7575 20.0857 21.8345 20.1314 21.9083 20.1772C21.9452 20.1996 21.9821 20.2229 22.0198 20.2446C22.0576 20.2662 22.1001 20.2831 22.1378 20.3007C22.218 20.3368 22.2927 20.3729 22.3697 20.405C22.4467 20.4371 22.5302 20.458 22.6056 20.4853C22.7535 20.5282 22.9045 20.5593 23.0573 20.5784C23.1929 20.5926 23.3295 20.5966 23.4657 20.5904C23.5796 20.5865 23.6929 20.5725 23.8043 20.5487C23.8903 20.5317 23.975 20.509 24.0579 20.4805C24.1126 20.4624 24.1662 20.441 24.2183 20.4163C24.2366 20.4083 24.2541 20.3987 24.2705 20.3874C24.2705 20.3874 24.1991 20.34 24.0892 20.2606" fill="url(#paint5_linear_1471_42262)"/>
<path d="M19.6868 18.9995C19.6932 19.0501 19.7004 19.1006 19.7084 19.1528C19.7365 19.2715 19.7694 19.3935 19.8063 19.5202C19.8254 19.5854 19.8487 19.6492 19.8761 19.7112C19.9026 19.7754 19.9307 19.8396 19.9564 19.903C19.9854 19.9682 20.0192 20.0312 20.0575 20.0915L20.169 20.2753C20.2091 20.3346 20.2573 20.3916 20.3006 20.447C20.3432 20.5035 20.3896 20.5571 20.4394 20.6074C20.5346 20.7068 20.6391 20.7968 20.7515 20.8762C20.8537 20.9506 20.9631 21.0146 21.0781 21.0672C21.1302 21.0918 21.1838 21.1132 21.2385 21.1314C21.2886 21.1502 21.3398 21.1658 21.3918 21.1779C21.4811 21.2015 21.5724 21.2163 21.6646 21.2221C21.7351 21.2282 21.806 21.2282 21.8764 21.2221C21.9223 21.2192 21.9679 21.2127 22.0128 21.2028C22.0286 21.2004 22.0442 21.1967 22.0594 21.1916C22.0594 21.1916 22.0201 21.1346 21.9639 21.0423C21.9486 21.0199 21.935 20.9918 21.9198 20.9621C21.9018 20.9339 21.8855 20.9047 21.8708 20.8746L21.8203 20.7767L21.7713 20.6684C21.7384 20.5946 21.7079 20.5144 21.679 20.4349C21.667 20.3932 21.6534 20.3547 21.6397 20.3122C21.6261 20.2697 21.6181 20.2279 21.6068 20.1862C21.582 20.106 21.5723 20.0161 21.5547 19.9359C21.537 19.8556 21.533 19.7674 21.5258 19.6863V19.562C21.4038 19.0075 21.606 18.2838 21.2755 17.9572C20.8823 17.4285 20.4843 18.218 20.1899 18.6794C20.1401 18.7227 20.0871 18.7596 20.0334 18.8005C19.9239 18.8771 19.8082 18.9444 19.6876 19.0019" fill="url(#paint6_linear_1471_42262)"/>
<path d="M27.5084 4.6804C27.4658 4.82242 27.4281 4.96284 27.3984 5.10165C27.3808 5.17145 27.3663 5.24046 27.3519 5.30946L27.2973 5.51406C27.262 5.64966 27.2291 5.78446 27.1986 5.91525C27.1681 6.04603 27.1184 6.18083 27.0871 6.31242L27.035 6.5098L26.974 6.70397C26.9323 6.83316 26.8994 6.96314 26.8576 7.08991C26.7678 7.34426 26.6972 7.59942 26.5969 7.84735C26.5166 8.09929 26.4059 8.34321 26.3056 8.58713C26.2053 8.83105 26.0922 9.06855 25.9662 9.30445C25.8547 9.54516 25.7183 9.77142 25.5963 10.0057C25.4615 10.2344 25.3307 10.4639 25.1879 10.6877L25.0828 10.857L24.9721 11.0223C24.8983 11.1322 24.8292 11.2462 24.7506 11.3545L24.5195 11.6811L24.2788 12.002C24.1184 12.213 23.9482 12.4232 23.7725 12.6262C23.6867 12.7298 23.5976 12.83 23.5086 12.9303C23.4195 13.0306 23.3304 13.1309 23.2382 13.2296C23.1459 13.3283 23.056 13.4286 22.9637 13.5273C22.8715 13.626 22.7792 13.7247 22.6845 13.821C22.4952 14.0135 22.3074 14.2101 22.1124 14.3979L21.8204 14.6827L21.5243 14.9643L21.2258 15.2428L20.7677 15.5677L20.7725 15.9489C20.7725 16.0219 20.7805 16.0909 20.7877 16.1583C20.7949 16.2257 20.7877 16.2955 20.7957 16.3629V16.5635L20.7797 16.7616C20.7717 16.8266 20.7588 16.8924 20.7492 16.9574C20.7396 17.0224 20.7155 17.085 20.7003 17.1484L20.6337 17.3345L20.5534 17.5127L20.4531 17.682C20.413 17.7341 20.3777 17.7887 20.34 17.8424C20.3023 17.8962 20.255 17.9419 20.2116 17.9901C20.1683 18.0382 20.1177 18.0815 20.0696 18.1249C20.0215 18.1682 19.9677 18.2051 19.9156 18.2452C19.8634 18.2853 19.8056 18.319 19.7551 18.3519C19.7045 18.3848 19.658 18.4049 19.601 18.4322L19.3748 18.5261L19.7238 19.4295L19.9541 19.3493C20.0447 19.3092 20.1442 19.2602 20.2373 19.2137C20.3304 19.1671 20.405 19.111 20.4892 19.0596C20.5735 19.0083 20.6441 18.9393 20.7211 18.8791C20.7982 18.8189 20.8631 18.7451 20.9338 18.6769C21.0044 18.6087 21.0621 18.5293 21.1255 18.4546C21.1889 18.38 21.2395 18.2942 21.294 18.2139C21.3486 18.1337 21.3895 18.0438 21.436 17.9572C21.4826 17.8705 21.5163 17.779 21.5516 17.6884C21.5869 17.5977 21.6118 17.503 21.6382 17.41C21.6647 17.3169 21.6808 17.2198 21.6968 17.1243C21.7129 17.0288 21.7209 16.9318 21.7273 16.8347C21.7337 16.7376 21.7273 16.6405 21.7273 16.5442C21.7273 16.4479 21.7064 16.3508 21.688 16.257C21.6679 16.1767 21.6471 16.0965 21.623 16.0163C21.6623 15.9962 21.7032 15.9761 21.7409 15.9545C21.8701 15.8863 21.9945 15.8124 22.1189 15.737C22.3692 15.5886 22.6075 15.4241 22.841 15.2556C22.9573 15.169 23.0745 15.0839 23.1884 14.9948L23.3609 14.8616L23.5278 14.722C23.6396 14.6295 23.7495 14.5348 23.8576 14.438C23.9683 14.3441 24.0734 14.2438 24.1785 14.1435L24.339 13.9927L24.4915 13.8362C24.5942 13.7327 24.6953 13.6284 24.7923 13.5153C24.9905 13.3018 25.1807 13.0804 25.3676 12.8557L25.6428 12.5139L25.9052 12.1609C25.9935 12.0437 26.0729 11.9202 26.1572 11.799C26.2414 11.6778 26.3176 11.5535 26.3979 11.4267C26.5584 11.1796 26.6931 10.9164 26.8328 10.6572C26.9724 10.3981 27.0879 10.1245 27.197 9.84845C27.2524 9.71205 27.3062 9.57404 27.3527 9.43283C27.3992 9.29161 27.4498 9.1536 27.4939 9.01238C27.5741 8.72594 27.6544 8.4427 27.7089 8.15144C27.7682 7.86227 27.8113 7.57002 27.8381 7.27606C27.8494 7.12923 27.8542 6.98159 27.8582 6.83396L27.8638 6.61411L27.8542 6.39346C27.8453 6.24582 27.8373 6.10059 27.8237 5.95537C27.81 5.81014 27.7804 5.66491 27.7563 5.52128C27.7418 5.44987 27.7314 5.37766 27.7154 5.30705C27.6993 5.23644 27.6785 5.16503 27.6584 5.09443C27.6183 4.95321 27.5782 4.8136 27.5268 4.67639" fill="url(#paint7_linear_1471_42262)"/>
<path d="M1.53568 8.42743C1.54851 8.44749 1.56617 8.47878 1.58863 8.5189C1.63356 8.59914 1.70016 8.71548 1.77639 8.86151C1.85261 9.00754 1.96414 9.17684 2.07085 9.37021C2.1313 9.46329 2.19495 9.56251 2.26182 9.66789C2.29552 9.71924 2.32761 9.7722 2.36131 9.82836C2.39501 9.88453 2.43754 9.93428 2.47605 9.98884C2.62208 10.2087 2.797 10.4309 2.97994 10.6604L3.272 11.0014C3.37952 11.1113 3.48061 11.2269 3.59295 11.3392L3.76224 11.5053C3.79113 11.5326 3.81841 11.5607 3.84248 11.5855C3.86655 11.6104 3.90105 11.6401 3.92994 11.6658C4.05029 11.7733 4.16584 11.8856 4.29341 11.9867C4.35519 12.0389 4.41858 12.0918 4.48036 12.1472L4.67775 12.2972C4.80773 12.3991 4.94493 12.4946 5.07893 12.5901C5.21293 12.6856 5.35976 12.7706 5.49616 12.8653C5.63256 12.96 5.7794 13.0394 5.92623 13.1173C6.07306 13.1951 6.21267 13.2777 6.35871 13.3516C6.50474 13.4254 6.64756 13.4992 6.78958 13.5682C6.85938 13.6043 6.9332 13.6348 7.00381 13.6677L7.21403 13.7648C7.35605 13.8242 7.49165 13.8867 7.62805 13.9421C7.76445 13.9975 7.89524 14.052 8.02442 14.1026C8.1536 14.1531 8.27877 14.1997 8.39832 14.2454L8.48418 14.2767C8.71685 14.865 9.1704 15.339 9.74791 15.5974C9.67288 15.9041 9.66006 16.2228 9.71019 16.5345L9.68452 16.695H9.64681L9.52485 16.683C9.42616 16.671 9.28414 16.6541 9.11243 16.6268C8.94072 16.5995 8.7281 16.5586 8.4922 16.5025C8.2563 16.4463 7.99072 16.3741 7.70508 16.2866C7.41944 16.1992 7.11373 16.0876 6.7968 15.9552C6.46189 15.8181 6.1341 15.6641 5.8147 15.4939C5.64861 15.404 5.47851 15.315 5.31402 15.2098C5.14954 15.1047 4.98024 15.002 4.81415 14.8889C4.64806 14.7758 4.48839 14.6522 4.3247 14.5334C4.16102 14.4147 4.00376 14.2807 3.85452 14.1419C3.70528 14.0031 3.54801 13.8707 3.4084 13.7198L3.19577 13.5L2.99518 13.2705C2.735 12.9699 2.50068 12.6478 2.29471 12.3077C2.19281 12.1472 2.10937 11.9707 2.02351 11.8086C1.93766 11.6465 1.87588 11.4724 1.80688 11.3119C1.774 11.2319 1.74534 11.1502 1.72102 11.0672C1.69535 10.987 1.66967 10.9067 1.64079 10.8265C1.61512 10.7501 1.59448 10.6721 1.579 10.593C1.56215 10.5128 1.5453 10.4406 1.52926 10.3659C1.51321 10.2913 1.49877 10.2199 1.48673 10.1493C1.4747 10.0787 1.46747 10.0073 1.46025 9.93909C1.44741 9.80189 1.42816 9.67511 1.42415 9.55315C1.42013 9.43119 1.42415 9.31806 1.42415 9.21375C1.42232 9.11842 1.4258 9.02305 1.43458 8.92811C1.45223 8.7548 1.47229 8.6208 1.48593 8.52692C1.49235 8.48199 1.49796 8.44669 1.50278 8.42422L1.51 8.38892L1.52845 8.42101" fill="url(#paint8_linear_1471_42262)"/>
<path d="M1.23084 14.1169C1.35762 14.1683 1.50846 14.2292 1.68177 14.2918C1.85509 14.3544 2.04765 14.4226 2.25707 14.4876C2.46649 14.5526 2.69195 14.6192 2.92946 14.6794C3.16696 14.7396 3.41489 14.7957 3.67004 14.8479C3.79842 14.8727 3.9268 14.8976 4.05839 14.9185C4.12418 14.9289 4.18917 14.9417 4.25577 14.9522C4.32237 14.9626 4.38896 14.9682 4.45556 14.9795C4.72034 15.0196 4.99234 15.0453 5.25793 15.0701L5.46092 15.0814C5.52832 15.087 5.59492 15.0934 5.66232 15.0942C5.79792 15.0942 5.93031 15.1062 6.0635 15.1062C6.1967 15.1062 6.32748 15.1143 6.45827 15.1062C6.58905 15.0982 6.71743 15.1062 6.84501 15.0998L7.21971 15.087C7.34328 15.0765 7.46042 15.0725 7.57998 15.0661C7.81427 15.0461 8.03652 15.0364 8.24353 15.0148C8.34624 15.0043 8.44573 14.9963 8.54041 14.9899C8.63509 14.9835 8.72496 14.969 8.8092 14.9626L8.89506 14.9546C9.12866 15.2311 9.42229 15.4506 9.75359 15.5965C9.65062 16.0203 9.66561 16.4643 9.79692 16.8803L9.68298 16.9204C9.54818 16.9685 9.38209 17.0151 9.18872 17.064C8.99535 17.113 8.77631 17.1627 8.53399 17.2044L8.35105 17.2421L8.15608 17.2662C8.02369 17.2807 7.88648 17.3015 7.74446 17.3095C7.60244 17.3176 7.45641 17.3288 7.30717 17.3336C7.15793 17.3384 7.00388 17.3336 6.84822 17.3336C6.69256 17.3336 6.53289 17.3176 6.37161 17.3103C6.21034 17.3031 6.05066 17.2758 5.88538 17.2574C5.55489 17.2126 5.22726 17.1488 4.90408 17.0664C4.74361 17.0215 4.58313 16.9766 4.42266 16.926C4.26219 16.8755 4.10653 16.8185 3.95488 16.7543C3.65561 16.6332 3.36477 16.4922 3.08431 16.3323C2.82397 16.1821 2.57436 16.014 2.33731 15.8292C2.1253 15.6656 1.92552 15.4867 1.73954 15.294C1.5821 15.1335 1.43573 14.9624 1.30145 14.7821C1.1983 14.6433 1.10371 14.4983 1.01822 14.348C0.942437 14.2175 0.879041 14.0803 0.828857 13.938C0.828857 13.938 0.977295 14.0102 1.23004 14.1121" fill="url(#paint9_linear_1471_42262)"/>
<path d="M2.8573 17.134C2.96883 17.1404 3.10362 17.1452 3.25848 17.1492C3.41334 17.1532 3.57943 17.154 3.76076 17.1492C4.60196 17.1452 5.43872 17.027 6.2481 16.7978L6.40376 16.7504L6.55701 16.6959C6.65891 16.6622 6.75841 16.6229 6.8571 16.5827C7.05288 16.5025 7.24143 16.4159 7.41876 16.3244C7.51022 16.2843 7.59367 16.2289 7.67872 16.1848C7.76377 16.1406 7.84401 16.0901 7.91943 16.0428L8.03658 15.9729L8.1465 15.8999C8.21872 15.851 8.29093 15.8093 8.35672 15.7619C8.48671 15.6656 8.61268 15.587 8.71618 15.5036C8.81969 15.4201 8.91838 15.3599 8.99059 15.2966C9.04515 15.2524 9.09169 15.2163 9.1294 15.1882C9.27089 15.3154 9.42681 15.4256 9.59397 15.5164L9.74 15.6769C9.64193 16.1563 9.69231 16.6542 9.88443 17.1043C9.75766 17.2054 9.6028 17.3041 9.43912 17.4148C9.35005 17.471 9.25297 17.5255 9.15588 17.5817L9.00343 17.6667L8.84296 17.747C8.61436 17.8603 8.3791 17.9598 8.13848 18.0447C7.88166 18.1365 7.61896 18.211 7.35216 18.2677C7.21656 18.2966 7.07935 18.3255 6.94054 18.3431L6.73113 18.372L6.52171 18.3905C6.24518 18.4126 5.96748 18.4163 5.69046 18.4017C5.42549 18.3872 5.1619 18.3537 4.90173 18.3014C4.77576 18.279 4.6538 18.2461 4.53424 18.2172C4.41469 18.1883 4.30076 18.1522 4.19244 18.1113C3.98682 18.0411 3.78583 17.958 3.59066 17.8625C3.42717 17.7822 3.26832 17.6927 3.11486 17.5945C2.99713 17.5189 2.88356 17.4369 2.77465 17.349C2.70415 17.2933 2.63666 17.2338 2.57246 17.1709C2.54905 17.1491 2.52682 17.126 2.50586 17.1019C2.50586 17.1019 2.63905 17.1147 2.86131 17.1284" fill="url(#paint10_linear_1471_42262)"/>
<path d="M5.45283 19.4915C5.49856 19.4755 5.56436 19.4482 5.64459 19.4161C5.72483 19.384 5.82031 19.3431 5.92542 19.2853C6.03053 19.2275 6.14367 19.1698 6.26322 19.1048C6.32259 19.0695 6.38277 19.0293 6.44455 18.9916L6.53763 18.9347L6.6299 18.8665C6.69249 18.8223 6.75507 18.7798 6.81766 18.7333C6.88024 18.6867 6.94042 18.6314 7.0038 18.5832C7.06787 18.5334 7.12896 18.4798 7.18674 18.4228C7.24692 18.3674 7.3087 18.3144 7.36728 18.2551C7.42585 18.1957 7.47961 18.1299 7.53577 18.0681L7.61601 17.9758C7.64409 17.9445 7.66736 17.9076 7.69625 17.8747C7.80165 17.7447 7.8997 17.6089 7.98991 17.4679C8.03485 17.3973 8.07817 17.3275 8.12311 17.2601C8.14397 17.2256 8.16804 17.1951 8.1873 17.1582L8.24426 17.0507C8.31888 16.9079 8.39591 16.7779 8.4609 16.6495C8.5259 16.5211 8.57965 16.3863 8.63502 16.27C8.6623 16.2122 8.69199 16.1577 8.71525 16.1031C8.73852 16.0485 8.75698 15.994 8.77623 15.9426L8.88054 15.6875C8.94152 15.5479 8.97843 15.4692 8.97843 15.4692L9.71982 15.7701C9.63303 16.3054 9.72823 16.8543 9.99022 17.3291C10.0055 17.3941 10.0223 17.4591 10.0424 17.5217C10.0271 17.545 10.0135 17.5674 9.99744 17.5899C9.88912 17.7423 9.75673 17.894 9.62755 18.0537C9.34347 18.382 9.02407 18.678 8.67514 18.9363C8.6302 18.9692 8.58848 19.0045 8.54114 19.0342L8.39832 19.1232C8.30284 19.1818 8.20816 19.2396 8.11508 19.2941C8.02201 19.3487 7.9169 19.3904 7.82061 19.4361C7.7261 19.4834 7.62821 19.5237 7.52775 19.5565C7.42906 19.591 7.33037 19.6191 7.23569 19.6488C7.14101 19.6785 7.04152 19.6889 6.94924 19.7081L6.81204 19.7314C6.7663 19.7354 6.72057 19.7402 6.67644 19.7426C6.58657 19.7467 6.50313 19.7555 6.42048 19.7539C6.27227 19.7525 6.12442 19.739 5.97838 19.7138C5.86707 19.6943 5.75717 19.6675 5.64941 19.6335C5.58062 19.6111 5.51335 19.5843 5.44801 19.5533C5.42458 19.5428 5.40204 19.5305 5.38062 19.5164L5.45283 19.4915Z" fill="url(#paint11_linear_1471_42262)"/>
<path d="M6.91718 20.258C6.94446 20.2395 6.97495 20.213 7.00704 20.1906C7.03914 20.1681 7.07284 20.1432 7.10814 20.1103C7.14344 20.0774 7.18035 20.0502 7.21806 20.0213L7.33521 19.9218C7.41545 19.8568 7.49568 19.7742 7.57592 19.7011C7.61604 19.6578 7.65616 19.6209 7.69708 19.5768L7.75806 19.5158L7.81583 19.4492C7.85354 19.4035 7.89606 19.3633 7.93217 19.32C7.96828 19.2767 8.00519 19.2269 8.04129 19.1812C8.05975 19.1587 8.0774 19.1363 8.09666 19.1154C8.11591 19.0945 8.12955 19.0665 8.1464 19.0424C8.1793 18.9951 8.21059 18.9469 8.24509 18.902C8.2796 18.857 8.30367 18.8025 8.33255 18.7543L8.41841 18.6123C8.44167 18.561 8.46575 18.5112 8.49062 18.4631C8.53716 18.3917 8.58209 18.3195 8.62381 18.2472C8.66553 18.175 8.70405 18.1012 8.74336 18.0274C9.01566 17.4019 9.25273 16.7617 9.45346 16.1097C9.98222 16.5029 9.72145 17.294 10.1876 17.8862C10.2141 17.9415 10.2438 17.9937 10.2743 18.0467C10.3674 18.2032 10.4778 18.3488 10.6033 18.4807L10.5551 18.5786C10.4941 18.6934 10.4348 18.8193 10.3537 18.9453C10.2727 19.0713 10.1764 19.2005 10.0777 19.3304C9.97901 19.4604 9.84983 19.5816 9.72867 19.7035C9.60751 19.8255 9.45988 19.933 9.31625 20.0349C9.24324 20.0839 9.16621 20.1296 9.09239 20.1753C9.05549 20.1978 9.01858 20.2211 8.98087 20.2427C8.94315 20.2644 8.90063 20.2812 8.86292 20.2989C8.78268 20.335 8.70806 20.3711 8.63103 20.4032C8.55401 20.4353 8.47056 20.4562 8.39514 20.4834C8.24725 20.5263 8.0962 20.5574 7.9434 20.5765C7.80777 20.5908 7.67124 20.5948 7.535 20.5886C7.3335 20.5799 7.13419 20.5432 6.94285 20.4794C6.88808 20.4614 6.83448 20.44 6.78238 20.4152C6.76411 20.4073 6.74665 20.3976 6.73022 20.3864C6.73022 20.3864 6.80164 20.339 6.91156 20.2596" fill="url(#paint12_linear_1471_42262)"/>
<path d="M11.316 18.9995C11.3095 19.0501 11.3023 19.1006 11.2943 19.1528C11.2662 19.2715 11.2333 19.3935 11.1964 19.5202C11.1774 19.5854 11.154 19.6492 11.1266 19.7112C11.1001 19.7754 11.072 19.8396 11.0464 19.903C11.0173 19.9682 10.9835 20.0312 10.9453 20.0915L10.8337 20.2753C10.7936 20.3346 10.7455 20.3916 10.7021 20.447C10.6595 20.5035 10.6131 20.5571 10.5633 20.6074C10.4681 20.7068 10.3636 20.7968 10.2512 20.8762C10.149 20.9506 10.0396 21.0146 9.92465 21.0672C9.87249 21.0918 9.81891 21.1132 9.76418 21.1314C9.71417 21.1503 9.66298 21.1658 9.61093 21.1779C9.52166 21.2015 9.43028 21.2163 9.33812 21.2221C9.26765 21.2282 9.19677 21.2282 9.1263 21.2221C9.0804 21.2192 9.0348 21.2127 8.9899 21.2028C8.97408 21.2005 8.95851 21.1967 8.94336 21.1916C8.94336 21.1916 8.98268 21.1346 9.03884 21.0423C9.05409 21.0199 9.06773 20.9918 9.08297 20.9621C9.10091 20.9339 9.11725 20.9047 9.13192 20.8746L9.18246 20.7767L9.23141 20.6684C9.26431 20.5946 9.2948 20.5144 9.32368 20.4349C9.33572 20.3932 9.34936 20.3547 9.363 20.3122C9.37664 20.2697 9.38466 20.2279 9.39589 20.1862C9.42077 20.106 9.4304 20.0161 9.44805 19.9359C9.4657 19.8556 9.46971 19.7674 9.47693 19.6863V19.562C9.59889 19.0075 9.3967 18.2838 9.72727 17.9572C10.1204 17.4285 10.5192 18.218 10.8129 18.6794C10.8634 18.7227 10.9156 18.7596 10.9693 18.8005C11.0789 18.8771 11.1945 18.9444 11.3152 19.0019" fill="url(#paint13_linear_1471_42262)"/>
<path d="M3.49321 4.6804C3.53574 4.82242 3.57345 4.96284 3.60314 5.10165C3.61999 5.17145 3.63523 5.24046 3.64968 5.30946L3.70424 5.51406C3.73954 5.64966 3.77244 5.78446 3.80293 5.91525C3.83342 6.04603 3.88316 6.18083 3.91446 6.31242L3.96661 6.5098L4.02759 6.70397C4.06931 6.83316 4.10221 6.96314 4.14393 7.08991C4.2338 7.34426 4.30441 7.59942 4.4047 7.84735C4.48494 8.09929 4.59567 8.34321 4.69596 8.58713C4.79626 8.83105 4.90939 9.06855 5.03536 9.30445C5.14689 9.54516 5.2833 9.77142 5.40526 10.0057C5.54005 10.2344 5.67084 10.4639 5.81366 10.6877L5.91877 10.857L6.0295 11.0223C6.10331 11.1322 6.17232 11.2462 6.25095 11.3545L6.48203 11.6811L6.72274 12.002C6.88322 12.213 7.05332 12.4232 7.22904 12.6262C7.31489 12.7298 7.40395 12.83 7.49301 12.9303C7.58208 13.0306 7.67114 13.1309 7.76341 13.2296C7.85568 13.3283 7.94555 13.4286 8.03782 13.5273C8.13009 13.626 8.22237 13.7247 8.31705 13.821C8.5064 14.0135 8.69416 14.2101 8.88913 14.3979L9.1812 14.6827L9.47727 14.9643L9.77575 15.2428L10.2339 15.5677L10.2291 15.9489C10.2291 16.0219 10.2211 16.0909 10.2138 16.1583C10.2066 16.2257 10.2138 16.2955 10.2058 16.3629V16.5635L10.2219 16.7616C10.2299 16.8266 10.2427 16.8924 10.2524 16.9574C10.262 17.0224 10.2861 17.085 10.3013 17.1484L10.3679 17.3345L10.4481 17.5127L10.5484 17.682C10.5885 17.7341 10.6239 17.7887 10.6616 17.8424C10.6993 17.8962 10.7466 17.9419 10.7899 17.9901C10.8333 18.0382 10.8838 18.0815 10.932 18.1249C10.9801 18.1682 11.0339 18.2051 11.086 18.2452C11.1382 18.2853 11.1959 18.319 11.2465 18.3519C11.297 18.3848 11.3436 18.4049 11.4005 18.4322L11.626 18.5261L11.277 19.4295L11.0467 19.3493C10.956 19.3092 10.8565 19.2602 10.7635 19.2137C10.6704 19.1671 10.5958 19.111 10.5115 19.0596C10.4273 19.0083 10.3567 18.9393 10.2796 18.8791C10.2026 18.8189 10.1376 18.7451 10.067 18.6769C9.9964 18.6087 9.93863 18.5293 9.87524 18.4546C9.81186 18.38 9.76131 18.2942 9.70675 18.2139C9.65219 18.1337 9.61126 18.0438 9.56473 17.9572C9.51819 17.8705 9.48449 17.779 9.44919 17.6884C9.41388 17.5977 9.38901 17.503 9.36253 17.41C9.33605 17.3169 9.32001 17.2198 9.30396 17.1243C9.28791 17.0288 9.27989 16.9318 9.27347 16.8347C9.26705 16.7376 9.27347 16.6405 9.27347 16.5442C9.27347 16.4479 9.29433 16.3508 9.31278 16.257C9.33284 16.1767 9.3537 16.0965 9.37778 16.0163C9.33846 15.9962 9.29754 15.9761 9.25983 15.9545C9.13065 15.8863 9.00628 15.8124 8.88191 15.737C8.63157 15.5886 8.39327 15.4241 8.15978 15.2556C8.04344 15.169 7.92629 15.0839 7.81236 14.9948L7.63985 14.8616L7.47296 14.722C7.36116 14.6295 7.25124 14.5348 7.14318 14.438C7.03246 14.3441 6.92735 14.2438 6.82224 14.1435L6.66176 13.9927L6.50931 13.8362C6.40661 13.7327 6.30551 13.6284 6.20843 13.5153C6.01024 13.3018 5.82008 13.0804 5.63313 12.8557L5.35792 12.5139L5.09554 12.1609C5.00728 12.0437 4.92785 11.9202 4.8436 11.799C4.75935 11.6778 4.68312 11.5535 4.60289 11.4267C4.44241 11.1796 4.30762 10.9164 4.168 10.6572C4.02839 10.3981 3.91285 10.1245 3.80373 9.84845C3.74837 9.71205 3.69461 9.57404 3.64807 9.43283C3.60153 9.29161 3.55098 9.1536 3.50685 9.01238C3.42662 8.72594 3.34638 8.4427 3.29182 8.15144C3.23259 7.86227 3.18946 7.57002 3.16264 7.27606C3.15141 7.12923 3.14659 6.98159 3.14258 6.83396L3.13696 6.61411L3.14659 6.39346C3.15542 6.24582 3.16344 6.10059 3.17708 5.95537C3.19072 5.81014 3.22041 5.66491 3.24448 5.52128C3.25892 5.44987 3.26935 5.37766 3.2854 5.30705C3.30145 5.23644 3.32231 5.16503 3.34237 5.09443C3.38249 4.95321 3.42261 4.8136 3.47396 4.67639" fill="url(#paint14_linear_1471_42262)"/>
<path d="M22.8441 14.2957C22.8441 18.3486 19.5586 21.6342 15.5057 21.6342C11.4528 21.6342 8.16724 18.3486 8.16724 14.2957C8.16724 10.2428 11.4528 6.95728 15.5057 6.95728C19.5586 6.95728 22.8441 10.2428 22.8441 14.2957Z" fill="#E0E0E0"/>
<defs>
<linearGradient id="paint0_linear_1471_42262" x1="7.35474" y1="22.2432" x2="23.6503" y2="22.2432" gradientUnits="userSpaceOnUse">
<stop stop-color="#BA7418"/>
<stop offset="0.291" stop-color="#F9D876"/>
<stop offset="0.342" stop-color="#FADB82"/>
<stop offset="0.435" stop-color="#FDE3A4"/>
<stop offset="0.485" stop-color="#FFE9B9"/>
<stop offset="0.533" stop-color="#FDE5AC"/>
<stop offset="0.62" stop-color="#FADD8A"/>
<stop offset="0.667" stop-color="#F9D876"/>
<stop offset="0.73" stop-color="#F0CB69"/>
<stop offset="0.847" stop-color="#DBA94A"/>
<stop offset="1" stop-color="#BA7418"/>
</linearGradient>
<linearGradient id="paint1_linear_1471_42262" x1="25.7911" y1="6.41617" x2="20.4053" y2="14.3493" gradientUnits="userSpaceOnUse">
<stop stop-color="#F3CC74"/>
<stop offset="0.556" stop-color="#F2BC53"/>
<stop offset="1" stop-color="#BC8821"/>
</linearGradient>
<linearGradient id="paint2_linear_1471_42262" x1="5.59801" y1="8.70923" x2="4.77582" y2="26.6257" gradientUnits="userSpaceOnUse">
<stop stop-color="#F3C86C"/>
<stop offset="1" stop-color="#EFBF5F"/>
</linearGradient>
<linearGradient id="paint3_linear_1471_42262" x1="25.9453" y1="17.2237" x2="24.2324" y2="20.583" gradientUnits="userSpaceOnUse">
<stop stop-color="#F2C86B"/>
<stop offset="1" stop-color="#DFA93D"/>
</linearGradient>
<linearGradient id="paint4_linear_1471_42262" x1="27.8261" y1="43.9717" x2="31.3529" y2="48.9095" gradientUnits="userSpaceOnUse">
<stop stop-color="#F3CC74"/>
<stop offset="1" stop-color="#F2B33F"/>
</linearGradient>
<linearGradient id="paint5_linear_1471_42262" x1="20.3975" y1="16.1116" x2="20.3975" y2="20.5932" gradientUnits="userSpaceOnUse">
<stop stop-color="#EA9E2A"/>
<stop offset="1" stop-color="#F2C668"/>
</linearGradient>
<linearGradient id="paint6_linear_1471_42262" x1="19.6868" y1="17.7815" x2="19.6868" y2="21.2267" gradientUnits="userSpaceOnUse">
<stop stop-color="#EA9E2A"/>
<stop offset="1" stop-color="#E1B965"/>
</linearGradient>
<linearGradient id="paint7_linear_1471_42262" x1="19.3748" y1="4.67639" x2="19.3748" y2="19.4295" gradientUnits="userSpaceOnUse">
<stop stop-color="#F3CC74"/>
<stop offset="1" stop-color="#F2B33F"/>
</linearGradient>
<linearGradient id="paint8_linear_1471_42262" x1="-2.72978" y1="11.8075" x2="2.65626" y2="19.7386" gradientUnits="userSpaceOnUse">
<stop stop-color="#F3CC74"/>
<stop offset="0.556" stop-color="#F2BC53"/>
<stop offset="1" stop-color="#BC8821"/>
</linearGradient>
<linearGradient id="paint9_linear_1471_42262" x1="-21.2861" y1="10.8623" x2="-20.4636" y2="28.7662" gradientUnits="userSpaceOnUse">
<stop stop-color="#F3C86C"/>
<stop offset="1" stop-color="#EFBF5F"/>
</linearGradient>
<linearGradient id="paint10_linear_1471_42262" x1="0.956962" y1="19.3149" x2="2.66985" y2="22.6742" gradientUnits="userSpaceOnUse">
<stop stop-color="#F2C86B"/>
<stop offset="1" stop-color="#DFA93D"/>
</linearGradient>
<linearGradient id="paint11_linear_1471_42262" x1="-1.88106" y1="40.3634" x2="-5.40697" y2="45.3026" gradientUnits="userSpaceOnUse">
<stop stop-color="#F3CC74"/>
<stop offset="1" stop-color="#F2B33F"/>
</linearGradient>
<linearGradient id="paint12_linear_1471_42262" x1="6.73022" y1="16.1097" x2="6.73022" y2="20.5914" gradientUnits="userSpaceOnUse">
<stop stop-color="#EA9E2A"/>
<stop offset="1" stop-color="#F2C668"/>
</linearGradient>
<linearGradient id="paint13_linear_1471_42262" x1="8.94336" y1="17.7815" x2="8.94336" y2="21.2267" gradientUnits="userSpaceOnUse">
<stop stop-color="#EA9E2A"/>
<stop offset="1" stop-color="#E1B965"/>
</linearGradient>
<linearGradient id="paint14_linear_1471_42262" x1="3.13696" y1="4.67639" x2="3.13696" y2="19.4295" gradientUnits="userSpaceOnUse">
<stop stop-color="#F3CC74"/>
<stop offset="1" stop-color="#F2B33F"/>
</linearGradient>
</defs>
</svg>
