<svg width="26" height="35" viewBox="0 0 26 35" fill="none" xmlns="http://www.w3.org/2000/svg">
<path d="M8.97642 8.74333C7.62295 8.74333 4.90622 6.01312 3.83202 4.87768C4.35321 4.63542 4.59638 4.0298 4.38743 3.49438C4.17849 2.95896 3.5894 2.67813 3.04188 2.85292C2.49436 3.02772 2.17697 3.59795 2.31692 4.15539C2.45687 4.71284 3.00597 5.06552 3.57113 4.96097L6.8219 14.7941H13.3933V1.06348C13.3933 1.06348 12.0814 8.74333 8.97642 8.74333Z" fill="#818181"/>
<path d="M10.7135 7.07481C10.1042 6.20151 9.54671 5.29314 9.04401 4.35441C9.42686 4.23535 9.65476 3.84293 9.56843 3.4514C9.4821 3.05987 9.1103 2.79967 8.71288 2.85266C8.31546 2.90565 8.02483 3.25417 8.0441 3.65464C8.06337 4.05511 8.38612 4.37412 8.78679 4.3887C8.68326 5.57189 8.39907 6.73222 7.94409 7.82933C7.94409 7.82933 9.32818 9.39592 10.7135 7.07481Z" fill="#818181"/>
<path d="M18.8502 7.83071C18.3954 6.73357 18.1112 5.57325 18.0075 4.39009C18.4048 4.37508 18.7245 4.05848 18.7433 3.66137C18.7621 3.26426 18.4739 2.91882 18.0798 2.86628C17.6857 2.81374 17.317 3.07158 17.2311 3.45975C17.1453 3.84792 17.3708 4.23722 17.7503 4.3558C17.2475 5.2945 16.6901 6.20287 16.0808 7.0762C17.4661 9.39608 18.8502 7.83071 18.8502 7.83071Z" fill="#A1A1A1"/>
<path d="M23.408 2.85544C22.9124 2.85895 22.4851 3.20476 22.3784 3.68873C22.2717 4.17269 22.514 4.66611 22.9621 4.87768C21.8904 6.01312 19.1749 8.74333 17.8177 8.74333C14.7139 8.74333 13.3972 1.06348 13.3972 1.06348V14.7941H19.9686L23.2193 4.96097C23.6141 5.03008 24.0141 4.87108 24.2537 4.54986C24.4933 4.22863 24.5317 3.79988 24.3529 3.44122C24.1741 3.08256 23.8087 2.85507 23.408 2.85299V2.85544Z" fill="#A1A1A1"/>
<path d="M14.4589 1.06318C14.4589 1.49319 14.1999 1.88086 13.8026 2.04542C13.4053 2.20998 12.948 2.11902 12.6439 1.81495C12.3399 1.51089 12.2489 1.0536 12.4135 0.656316C12.578 0.259034 12.9657 0 13.3957 0C13.9829 0 14.4589 0.476 14.4589 1.06318Z" fill="#818181"/>
<path d="M15.4878 9.6728C13.4421 9.54486 11.3895 9.76478 9.41741 10.3232C7.77487 11.0042 7.24818 10.6711 5.98781 11.9278C4.72743 13.1845 3.67528 13.4503 2.99548 15.0928C2.31569 16.7353 1.12635 17.9553 1.12635 19.7325C1.12635 21.5098 0.446555 22.6943 1.12635 24.3356C1.80615 25.9769 1.21821 26.8869 2.47369 28.1449C3.72917 29.4028 5.34108 31.8439 6.98361 32.525C8.62615 33.206 8.80498 33.9127 10.5822 33.9127C12.3595 33.9127 15.5748 34.1577 17.2173 33.4791C18.8598 32.8005 19.1685 33.3909 20.4264 32.1318C22.3707 29.7268 24.0384 27.1108 25.3981 24.3331C26.0779 22.6918 25.3981 23.025 25.3981 21.2477C25.2344 19.3777 24.7248 17.5544 23.8952 15.8706C23.1523 14.3569 22.1039 13.0136 20.8159 11.9253C19.5592 10.6686 20.5501 11.4782 18.9076 10.7984C17.2651 10.1187 17.2651 9.6728 15.4878 9.6728Z" fill="url(#paint0_linear_1485_43561)"/>
<path fill-rule="evenodd" clip-rule="evenodd" d="M0.537354 21.8236C0.537128 14.7927 6.23638 9.09272 13.2673 9.09204C16.6442 9.09172 19.8829 10.4331 22.2708 12.8209C24.6587 15.2088 26 18.4475 25.9997 21.8244C25.999 28.8553 20.299 34.5546 13.2681 34.5544C6.2372 34.5541 0.537579 28.8545 0.537354 21.8236ZM24.2308 17.2825C22.3941 12.8483 18.0672 9.95716 13.2677 9.95716C6.71738 9.96526 1.40935 15.2733 1.40125 21.8236C1.40125 26.6231 4.29241 30.95 8.72658 32.7867C13.1608 34.6234 18.2647 33.6082 21.6585 30.2144C25.0523 26.8206 26.0675 21.7167 24.2308 17.2825Z" fill="#333333"/>
<path d="M24.47 21.8235C24.47 28.0105 19.4545 33.026 13.2675 33.026C7.08049 33.026 2.06494 28.0105 2.06494 21.8235C2.06494 15.6365 7.08049 10.621 13.2675 10.621C19.4545 10.621 24.47 15.6365 24.47 21.8235Z" fill="#E0E0E0"/>
<defs>
<linearGradient id="paint0_linear_1485_43561" x1="0.824219" y1="33.9558" x2="25.7002" y2="33.9558" gradientUnits="userSpaceOnUse">
<stop stop-color="#818181"/>
<stop offset="0.291" stop-color="#C8C8C8"/>
<stop offset="0.342" stop-color="#D8D8D8"/>
<stop offset="0.435" stop-color="#D8D8D8"/>
<stop offset="0.485" stop-color="#D8D8D8"/>
<stop offset="0.533" stop-color="#D8D8D8"/>
<stop offset="0.62" stop-color="#D2D2D2"/>
<stop offset="0.667" stop-color="#DFDFDF"/>
<stop offset="0.73" stop-color="#DCDCDC"/>
<stop offset="0.847" stop-color="#B5B5B5"/>
<stop offset="1" stop-color="#818181"/>
</linearGradient>
</defs>
</svg>
