<svg width="251" height="28" viewBox="0 0 251 28" fill="none" xmlns="http://www.w3.org/2000/svg">
<rect opacity="0.3" x="0.840088" y="2" width="249.445" height="3" rx="1.5" fill="white"/>
<rect x="0.840088" y="2" width="184" height="3" rx="1.5" fill="white"/>
<circle cx="183.376" cy="3.5" r="3.5" fill="white"/>
<path d="M1.52409 24V23.088C2.06809 22.656 2.58809 22.22 3.08409 21.78C3.58009 21.34 4.02009 20.908 4.40409 20.484C4.79609 20.052 5.10409 19.632 5.32809 19.224C5.55209 18.808 5.66409 18.408 5.66409 18.024C5.66409 17.768 5.62009 17.528 5.53209 17.304C5.44409 17.072 5.30009 16.888 5.10009 16.752C4.90009 16.608 4.63209 16.536 4.29609 16.536C3.79209 16.536 3.41209 16.696 3.15609 17.016C2.90809 17.336 2.78809 17.72 2.79609 18.168H1.56009C1.56809 17.576 1.69209 17.08 1.93209 16.68C2.18009 16.28 2.50809 15.976 2.91609 15.768C3.33209 15.56 3.80009 15.456 4.32009 15.456C5.11209 15.456 5.74409 15.68 6.21609 16.128C6.69609 16.568 6.93609 17.184 6.93609 17.976C6.93609 18.448 6.82009 18.916 6.58809 19.38C6.36409 19.844 6.06809 20.292 5.70009 20.724C5.34009 21.148 4.95209 21.548 4.53609 21.924C4.12009 22.3 3.72409 22.64 3.34809 22.944H7.18809V24H1.52409ZM9.01528 24.072C8.77528 24.072 8.57528 23.996 8.41528 23.844C8.26328 23.684 8.18728 23.496 8.18728 23.28C8.18728 23.056 8.26328 22.868 8.41528 22.716C8.57528 22.556 8.77528 22.476 9.01528 22.476C9.25528 22.476 9.45128 22.556 9.60328 22.716C9.75528 22.868 9.83128 23.056 9.83128 23.28C9.83128 23.496 9.75528 23.684 9.60328 23.844C9.45128 23.996 9.25528 24.072 9.01528 24.072ZM9.01528 19.5C8.77528 19.5 8.57528 19.424 8.41528 19.272C8.26328 19.112 8.18728 18.924 8.18728 18.708C8.18728 18.484 8.26328 18.296 8.41528 18.144C8.57528 17.984 8.77528 17.904 9.01528 17.904C9.25528 17.904 9.45128 17.984 9.60328 18.144C9.75528 18.296 9.83128 18.484 9.83128 18.708C9.83128 18.924 9.75528 19.112 9.60328 19.272C9.45128 19.424 9.25528 19.5 9.01528 19.5ZM11.028 24V23.088C11.572 22.656 12.092 22.22 12.588 21.78C13.084 21.34 13.524 20.908 13.908 20.484C14.3 20.052 14.608 19.632 14.832 19.224C15.056 18.808 15.168 18.408 15.168 18.024C15.168 17.768 15.124 17.528 15.036 17.304C14.948 17.072 14.804 16.888 14.604 16.752C14.404 16.608 14.136 16.536 13.8 16.536C13.296 16.536 12.916 16.696 12.66 17.016C12.412 17.336 12.292 17.72 12.3 18.168H11.064C11.072 17.576 11.196 17.08 11.436 16.68C11.684 16.28 12.012 15.976 12.42 15.768C12.836 15.56 13.304 15.456 13.824 15.456C14.616 15.456 15.248 15.68 15.72 16.128C16.2 16.568 16.44 17.184 16.44 17.976C16.44 18.448 16.324 18.916 16.092 19.38C15.868 19.844 15.572 20.292 15.204 20.724C14.844 21.148 14.456 21.548 14.04 21.924C13.624 22.3 13.228 22.64 12.852 22.944H16.692V24H11.028ZM21.7388 24V22.32H17.5268V21.312L21.5348 15.6H22.9988V21.216H24.1748V22.32H22.9988V24H21.7388ZM18.9068 21.216H21.8108V17.004L18.9068 21.216Z" fill="white"/>
<path d="M223.536 21.048V19.98H228.42V21.048H223.536ZM230.802 24V17.04L229.446 17.352V16.416L231.306 15.6H232.122V24H230.802ZM234.285 24.072C234.045 24.072 233.845 23.996 233.685 23.844C233.533 23.684 233.457 23.496 233.457 23.28C233.457 23.056 233.533 22.868 233.685 22.716C233.845 22.556 234.045 22.476 234.285 22.476C234.525 22.476 234.721 22.556 234.873 22.716C235.025 22.868 235.101 23.056 235.101 23.28C235.101 23.496 235.025 23.684 234.873 23.844C234.721 23.996 234.525 24.072 234.285 24.072ZM234.285 19.5C234.045 19.5 233.845 19.424 233.685 19.272C233.533 19.112 233.457 18.924 233.457 18.708C233.457 18.484 233.533 18.296 233.685 18.144C233.845 17.984 234.045 17.904 234.285 17.904C234.525 17.904 234.721 17.984 234.873 18.144C235.025 18.296 235.101 18.484 235.101 18.708C235.101 18.924 235.025 19.112 234.873 19.272C234.721 19.424 234.525 19.5 234.285 19.5ZM237.33 24V17.04L235.974 17.352V16.416L237.834 15.6H238.65V24H237.33ZM244.184 24V22.32H239.972V21.312L243.98 15.6H245.444V21.216H246.62V22.32H245.444V24H244.184ZM241.352 21.216H244.256V17.004L241.352 21.216Z" fill="white"/>
</svg>
