<svg width="36" height="35" viewBox="0 0 36 35" fill="none" xmlns="http://www.w3.org/2000/svg">
<g filter="url(#filter0_d_1414_36260)">
<path d="M18.3958 0.958374C14.8319 0.958374 11.414 2.37411 8.894 4.89413C6.37398 7.41415 4.95825 10.832 4.95825 14.3959C4.95825 17.9597 6.37398 21.3776 8.894 23.8976C11.414 26.4176 14.8319 27.8334 18.3958 27.8334C21.9596 27.8334 25.3775 26.4176 27.8975 23.8976C30.4175 21.3776 31.8333 17.9597 31.8333 14.3959C31.8333 10.832 30.4175 7.41415 27.8975 4.89413C25.3775 2.37411 21.9596 0.958374 18.3958 0.958374ZM8.54159 9.91671H12.1249C12.6001 9.91671 13.0558 10.1055 13.3918 10.4415C13.7278 10.7775 13.9166 11.2332 13.9166 11.7084V13.5C13.9166 14.3959 13.2358 15.1125 12.3758 15.238L14.472 18.875H12.3937L10.3333 15.2917V18.875H8.54159M17.4999 9.91671H21.0833V11.7084H17.4999V13.5H21.0833V15.2917H17.4999V17.0834H21.0833V18.875H17.4999C17.0247 18.875 16.569 18.6863 16.233 18.3503C15.897 18.0143 15.7083 17.5586 15.7083 17.0834V11.7084C15.7083 11.2332 15.897 10.7775 16.233 10.4415C16.569 10.1055 17.0247 9.91671 17.4999 9.91671ZM24.6666 9.91671H28.2499V11.7084H24.6666V17.0834H28.2499V18.875H24.6666C24.1914 18.875 23.7357 18.6863 23.3997 18.3503C23.0637 18.0143 22.8749 17.5586 22.8749 17.0834V11.7084C22.8749 11.2332 23.0637 10.7775 23.3997 10.4415C23.7357 10.1055 24.1914 9.91671 24.6666 9.91671ZM10.3333 11.7084V13.5H12.1249V11.7084" fill="#2C50ED"/>
</g>
<defs>
<filter id="filter0_d_1414_36260" x="0.958252" y="0.958374" width="34.875" height="34.875" filterUnits="userSpaceOnUse" color-interpolation-filters="sRGB">
<feFlood flood-opacity="0" result="BackgroundImageFix"/>
<feColorMatrix in="SourceAlpha" type="matrix" values="0 0 0 0 0 0 0 0 0 0 0 0 0 0 0 0 0 0 127 0" result="hardAlpha"/>
<feOffset dy="4"/>
<feGaussianBlur stdDeviation="2"/>
<feComposite in2="hardAlpha" operator="out"/>
<feColorMatrix type="matrix" values="0 0 0 0 0 0 0 0 0 0 0 0 0 0 0 0 0 0 0.25 0"/>
<feBlend mode="normal" in2="BackgroundImageFix" result="effect1_dropShadow_1414_36260"/>
<feBlend mode="normal" in="SourceGraphic" in2="effect1_dropShadow_1414_36260" result="shape"/>
</filter>
</defs>
</svg>
