<svg width="22" height="22" viewBox="0 0 22 22" fill="none" xmlns="http://www.w3.org/2000/svg">
<path d="M19.5268 11.7356C19.125 11.649 18.7679 11.9087 18.6786 12.2981C18.0982 15.976 14.8393 18.6154 10.9554 18.6154C8.72321 18.6154 6.66964 17.7067 5.19643 16.1923L7.875 13.5962C8.09821 13.3798 8.1875 13.0769 8.05357 12.8173C7.96429 12.5577 7.69643 12.3846 7.42857 12.3846H1.71429C1.3125 12.3846 1 12.7308 1 13.0769V18.6154C1 18.9183 1.13393 19.1779 1.40179 19.2644C1.49107 19.3077 1.58036 19.3077 1.71429 19.3077C1.89286 19.3077 2.07143 19.2644 2.20536 19.1346L4.21429 17.1442C5.95536 18.9183 8.36607 20 11 20C15.5089 20 19.3929 16.8846 20.1518 12.5144C20.1964 12.125 19.9286 11.7788 19.5268 11.7356ZM2.42857 16.9712V13.7692H5.6875L2.42857 16.9712ZM20.5536 2.77885C20.4643 2.73558 20.375 2.69231 20.2857 2.69231C20.0625 2.69231 19.8839 2.77885 19.75 2.90865L17.7411 4.89904C16 3.125 13.5893 2 11 2C6.44643 2 2.5625 5.15865 1.80357 9.52885C1.75893 9.91827 2.02679 10.2644 2.42857 10.3077C2.78571 10.3942 3.14286 10.1346 3.23214 9.74519C3.85714 6.06731 7.11607 3.38462 11 3.38462C13.1875 3.38462 15.2857 4.33654 16.7143 5.85096L14.0357 8.44712C13.8571 8.66346 13.7679 8.96635 13.9018 9.22596C13.9911 9.48558 14.2589 9.61539 14.5714 9.61539H20.2857C20.6429 9.61539 21 9.3125 21 8.92308V3.38462C21 3.125 20.8214 2.86538 20.5536 2.77885ZM19.5714 8.23077H16.2679L19.5714 5.07212V8.23077Z" fill="white"/>
</svg>
