<svg width="15" height="12" viewBox="0 0 15 12" fill="none" xmlns="http://www.w3.org/2000/svg">
<g opacity="0.9">
<path d="M11.854 0.781982L12.5619 3.18198H14.4323L11.854 0.781982Z" fill="url(#paint0_linear_1868_32681)"/>
<path d="M11.854 0.781982L12.5619 3.18198H13.038L11.854 0.781982Z" fill="url(#paint1_linear_1868_32681)"/>
<path d="M12.5609 3.18091L10.0344 8.23091L14.4342 3.18091H12.5609Z" fill="url(#paint2_linear_1868_32681)"/>
<path opacity="0.3" d="M12.5609 3.18091L10.0344 8.23091L13.037 3.18091H12.5609Z" fill="url(#paint3_linear_1868_32681)"/>
<path opacity="0.3" d="M13.1065 4.70291L14.4313 3.18091H12.56L12.2412 3.81791L13.1065 4.70291Z" fill="url(#paint4_linear_1868_32681)"/>
<path opacity="0.3" d="M11.4414 5.41602L10.0334 8.23102L11.9889 5.98002L11.4414 5.41602Z" fill="url(#paint5_linear_1868_32681)"/>
<path d="M12.5608 3.18091L8.17668 8.50891L7.21753 11.2259L10.0353 8.23091L12.5608 3.18091Z" fill="url(#paint6_linear_1868_32681)"/>
<path opacity="0.3" d="M12.5609 3.18091L8.17578 8.50891L10.5135 7.27391L12.5609 3.18091Z" fill="url(#paint7_linear_1868_32681)"/>
<path opacity="0.3" d="M8.47293 8.14697L8.17961 8.50797L7.22046 11.225L9.35093 8.96097C8.99448 8.77168 8.69201 8.49125 8.47293 8.14697V8.14697Z" fill="url(#paint8_linear_1868_32681)"/>
<path opacity="0.3" d="M11.6536 4.99591L12.5609 3.18091L11.2537 4.76991C11.394 4.83132 11.528 4.90704 11.6536 4.99591Z" fill="url(#paint9_linear_1868_32681)"/>
<path d="M8.17578 8.50793L10.0335 3.17993H12.5599L8.17578 8.50793Z" fill="url(#paint10_linear_1868_32681)"/>
<path opacity="0.3" d="M8.17578 8.50793L10.0335 3.17993H10.7863L8.17578 8.50793Z" fill="url(#paint11_linear_1868_32681)"/>
<path opacity="0.3" d="M11.4727 3.18091V4.50791L12.5648 3.18091H11.4727Z" fill="url(#paint12_linear_1868_32681)"/>
<path opacity="0.3" d="M9.80076 3.85693L8.17871 8.50793L9.80076 6.53693V3.85693Z" fill="url(#paint13_linear_1868_32681)"/>
<path d="M10.0345 3.18101L9.32666 0.781006L12.561 3.18101H10.0345Z" fill="url(#paint14_linear_1868_32681)"/>
<path d="M11.06 2.06689C10.8501 2.53258 10.5059 2.92134 10.0735 3.18089H12.5608L11.06 2.06689Z" fill="url(#paint15_linear_1868_32681)"/>
<path d="M9.32666 0.781982H11.8531L12.561 3.18198L9.32666 0.781982Z" fill="url(#paint16_linear_1868_32681)"/>
<path opacity="0.3" d="M9.32666 0.781982H9.88788L12.56 3.18198L9.32666 0.781982Z" fill="url(#paint17_linear_1868_32681)"/>
<path d="M9.32747 0.781982L7.21753 3.18198H10.0353L9.32747 0.781982Z" fill="url(#paint18_linear_1868_32681)"/>
<path d="M7.21753 3.18101V0.781006H9.32747L7.21753 3.18101Z" fill="url(#paint19_linear_1868_32681)"/>
<path opacity="0.3" d="M7.21753 3.18101L8.62644 0.781006H9.32747L7.21753 3.18101Z" fill="url(#paint20_linear_1868_32681)"/>
<path d="M7.21753 3.18091L8.17668 8.50891L10.0344 3.18091H7.21753Z" fill="url(#paint21_linear_1868_32681)"/>
<path opacity="0.3" d="M9.31191 3.18091L8.17188 8.50891L10.0296 3.18091H9.31191Z" fill="url(#paint22_linear_1868_32681)"/>
<path opacity="0.3" d="M9.48207 4.76591L10.0355 3.18091H7.93237L9.48207 4.76591Z" fill="url(#paint23_linear_1868_32681)"/>
<path d="M7.21754 3.18091V11.2259L8.17669 8.50891L7.21754 3.18091Z" fill="url(#paint24_linear_1868_32681)"/>
<path d="M2.5812 0.781982L1.87332 3.18198H0.00292969L2.5812 0.781982Z" fill="url(#paint25_linear_1868_32681)"/>
<path d="M2.58031 0.781982L1.87243 3.18198H1.56836L2.58031 0.781982Z" fill="url(#paint26_linear_1868_32681)"/>
<path d="M1.87333 3.18091L4.39978 8.23091L0 3.18091H1.87333Z" fill="url(#paint27_linear_1868_32681)"/>
<path d="M1.87243 3.18091L4.39791 8.23091L1.56836 3.18091H1.87243Z" fill="url(#paint28_linear_1868_32681)"/>
<path opacity="0.2" d="M2.79332 5.021C2.59621 5.25161 2.35712 5.44079 2.08936 5.578L4.39973 8.231L2.79332 5.021Z" fill="url(#paint29_linear_1868_32681)"/>
<path d="M1.87329 3.18091L6.2584 8.50891L7.21755 11.2259L4.39974 8.23091L1.87329 3.18091Z" fill="url(#paint30_linear_1868_32681)"/>
<path d="M1.87329 3.18091L6.2584 8.50891L7.21755 11.2259L5.80865 8.83391L1.87329 3.18091Z" fill="url(#paint31_linear_1868_32681)"/>
<path opacity="0.3" d="M6.25853 8.50903C6.24009 9.01231 6.17626 9.51276 6.06787 10.004L7.21768 11.226L6.25853 8.50903Z" fill="#FF80AD"/>
<path d="M6.25742 8.50793L4.39974 3.17993H1.87329L6.25742 8.50793Z" fill="url(#paint32_linear_1868_32681)"/>
<path opacity="0.3" d="M6.25738 8.50793L4.3997 3.17993H3.74951L6.25738 8.50793Z" fill="url(#paint33_linear_1868_32681)"/>
<path opacity="0.5" d="M4.12304 3.18091H1.87427L2.90284 4.42991L4.12304 3.18091Z" fill="url(#paint34_linear_1868_32681)"/>
<path opacity="0.5" d="M4.89258 6.85399L6.2614 8.51299L5.47921 6.26099L4.89258 6.85399Z" fill="url(#paint35_linear_1868_32681)"/>
<path d="M4.39974 3.18101L5.10762 0.781006L1.87329 3.18101H4.39974Z" fill="url(#paint36_linear_1868_32681)"/>
<path d="M5.10664 0.781982H2.58117L1.87329 3.18198L5.10664 0.781982Z" fill="url(#paint37_linear_1868_32681)"/>
<path opacity="0.3" d="M5.10664 0.781982H4.54445L1.87231 3.18198L5.10664 0.781982Z" fill="url(#paint38_linear_1868_32681)"/>
<path opacity="0.3" d="M2.49317 1.0769L1.87231 3.1769L3.7476 1.7859C3.25768 1.71771 2.81032 1.46486 2.49317 1.0769Z" fill="url(#paint39_linear_1868_32681)"/>
<path d="M5.10656 0.781982L7.21649 3.18198H4.39868L5.10656 0.781982Z" fill="url(#paint40_linear_1868_32681)"/>
<path opacity="0.3" d="M7.21668 3.18086L6.48729 2.35186L5.67676 3.18086H7.21668Z" fill="url(#paint41_linear_1868_32681)"/>
<path opacity="0.3" d="M5.71966 1.47393L5.10662 0.773926L4.54736 2.67393L5.71966 1.47393Z" fill="url(#paint42_linear_1868_32681)"/>
<path d="M7.21663 3.18101V0.781006H5.10669L7.21663 3.18101Z" fill="url(#paint43_linear_1868_32681)"/>
<path opacity="0.3" d="M7.21661 3.18101V0.781006H6.86659L7.21661 3.18101Z" fill="url(#paint44_linear_1868_32681)"/>
<path d="M7.21649 3.18091L6.25734 8.50891L4.39966 3.18091H7.21649Z" fill="url(#paint45_linear_1868_32681)"/>
<path opacity="0.3" d="M7.21673 3.18091L6.25758 8.50891L6.6428 3.18091H7.21673Z" fill="url(#paint46_linear_1868_32681)"/>
<path opacity="0.3" d="M6.13122 3.37291C6.1964 3.30624 6.26158 3.24224 6.32676 3.18091H4.39673L5.02443 4.98091C5.30007 4.38372 5.67451 3.83972 6.13122 3.37291Z" fill="url(#paint47_linear_1868_32681)"/>
<path d="M7.21673 3.18091V11.2259L6.25758 8.50891L7.21673 3.18091Z" fill="url(#paint48_linear_1868_32681)"/>
<path d="M7.21673 3.18091V5.53491L6.25758 8.50891L7.21673 3.18091Z" fill="url(#paint49_linear_1868_32681)"/>
</g>
<defs>
<linearGradient id="paint0_linear_1868_32681" x1="10.2434" y1="1.30599" x2="11.7535" y2="4.35122" gradientUnits="userSpaceOnUse">
<stop stop-color="#FF80AD"/>
<stop offset="1" stop-color="#9C0F42"/>
</linearGradient>
<linearGradient id="paint1_linear_1868_32681" x1="8.37608" y1="6.13297" x2="13.5711" y2="6.59932" gradientUnits="userSpaceOnUse">
<stop stop-color="#FF80AD"/>
<stop offset="1" stop-color="#9C0F42"/>
</linearGradient>
<linearGradient id="paint2_linear_1868_32681" x1="10.0344" y1="8.23091" x2="14.4342" y2="8.23091" gradientUnits="userSpaceOnUse">
<stop stop-color="#FF4084"/>
<stop offset="1" stop-color="#FF80AD"/>
</linearGradient>
<linearGradient id="paint3_linear_1868_32681" x1="10.0344" y1="8.23091" x2="13.037" y2="8.23091" gradientUnits="userSpaceOnUse">
<stop stop-color="#FF4084"/>
<stop offset="1" stop-color="#FF80AD"/>
</linearGradient>
<linearGradient id="paint4_linear_1868_32681" x1="10.0336" y1="5.47" x2="14.4313" y2="5.47" gradientUnits="userSpaceOnUse">
<stop stop-color="#FF4084"/>
<stop offset="1" stop-color="#FF80AD"/>
</linearGradient>
<linearGradient id="paint5_linear_1868_32681" x1="10.0334" y1="9.98195" x2="14.4215" y2="9.98195" gradientUnits="userSpaceOnUse">
<stop stop-color="#FF4084"/>
<stop offset="1" stop-color="#FF80AD"/>
</linearGradient>
<linearGradient id="paint6_linear_1868_32681" x1="13.0107" y1="-5.47845" x2="0.215846" y2="-1.58844" gradientUnits="userSpaceOnUse">
<stop stop-color="#FF80AD"/>
<stop offset="1" stop-color="#9C0F42"/>
</linearGradient>
<linearGradient id="paint7_linear_1868_32681" x1="11.0471" y1="-0.083964" x2="4.81498" y2="4.38057" gradientUnits="userSpaceOnUse">
<stop stop-color="#FF80AD"/>
<stop offset="1" stop-color="#9C0F42"/>
</linearGradient>
<linearGradient id="paint8_linear_1868_32681" x1="13.9141" y1="-4.50731" x2="1.95683" y2="-0.221979" gradientUnits="userSpaceOnUse">
<stop stop-color="#FF80AD"/>
<stop offset="1" stop-color="#9C0F42"/>
</linearGradient>
<linearGradient id="paint9_linear_1868_32681" x1="10.2413" y1="-3.59176" x2="-0.954465" y2="1.11531" gradientUnits="userSpaceOnUse">
<stop stop-color="#FF80AD"/>
<stop offset="1" stop-color="#9C0F42"/>
</linearGradient>
<linearGradient id="paint10_linear_1868_32681" x1="9.53256" y1="11.0772" x2="14.5481" y2="6.83955" gradientUnits="userSpaceOnUse">
<stop stop-color="#FF4084"/>
<stop offset="1" stop-color="#FF80AD"/>
</linearGradient>
<linearGradient id="paint11_linear_1868_32681" x1="3.68807" y1="18.6746" x2="14.2787" y2="17.549" gradientUnits="userSpaceOnUse">
<stop stop-color="#FF4084"/>
<stop offset="1" stop-color="#FF80AD"/>
</linearGradient>
<linearGradient id="paint12_linear_1868_32681" x1="9.61725" y1="11.3949" x2="14.632" y2="7.15988" gradientUnits="userSpaceOnUse">
<stop stop-color="#FF4084"/>
<stop offset="1" stop-color="#FF80AD"/>
</linearGradient>
<linearGradient id="paint13_linear_1868_32681" x1="2.07203" y1="41.7889" x2="25.5013" y2="41.1508" gradientUnits="userSpaceOnUse">
<stop stop-color="#FF4084"/>
<stop offset="1" stop-color="#FF80AD"/>
</linearGradient>
<linearGradient id="paint14_linear_1868_32681" x1="14.8928" y1="4.04492" x2="13.1024" y2="-0.848904" gradientUnits="userSpaceOnUse">
<stop stop-color="#FF80AD"/>
<stop offset="1" stop-color="#9C0F42"/>
</linearGradient>
<linearGradient id="paint15_linear_1868_32681" x1="25.5729" y1="7.24616" x2="24.9721" y2="-5.12133" gradientUnits="userSpaceOnUse">
<stop stop-color="#FF80AD"/>
<stop offset="1" stop-color="#9C0F42"/>
</linearGradient>
<linearGradient id="paint16_linear_1868_32681" x1="12.4834" y1="3.09558" x2="12.4834" y2="0.810782" gradientUnits="userSpaceOnUse">
<stop stop-color="#FF4084"/>
<stop offset="1" stop-color="#7D0C35"/>
</linearGradient>
<linearGradient id="paint17_linear_1868_32681" x1="12.4824" y1="3.09558" x2="12.4824" y2="0.810782" gradientUnits="userSpaceOnUse">
<stop stop-color="#FF4084"/>
<stop offset="1" stop-color="#7D0C35"/>
</linearGradient>
<linearGradient id="paint18_linear_1868_32681" x1="9.997" y1="5.43656" x2="11.5997" y2="1.92672" gradientUnits="userSpaceOnUse">
<stop stop-color="#FFE6EF"/>
<stop offset="1" stop-color="#FF80AD"/>
</linearGradient>
<linearGradient id="paint19_linear_1868_32681" x1="9.27683" y1="3.09461" x2="9.27683" y2="0.809806" gradientUnits="userSpaceOnUse">
<stop stop-color="#FF4084"/>
<stop offset="1" stop-color="#7D0C35"/>
</linearGradient>
<linearGradient id="paint20_linear_1868_32681" x1="9.27683" y1="3.09461" x2="9.27683" y2="0.809806" gradientUnits="userSpaceOnUse">
<stop stop-color="#FF4084"/>
<stop offset="1" stop-color="#7D0C35"/>
</linearGradient>
<linearGradient id="paint21_linear_1868_32681" x1="7.22739" y1="3.18091" x2="7.22739" y2="8.47161" gradientUnits="userSpaceOnUse">
<stop stop-color="#FF80AD"/>
<stop offset="1" stop-color="#9C0F42"/>
</linearGradient>
<linearGradient id="paint22_linear_1868_32681" x1="8.17838" y1="3.18091" x2="8.17838" y2="8.47161" gradientUnits="userSpaceOnUse">
<stop stop-color="#FF80AD"/>
<stop offset="1" stop-color="#9C0F42"/>
</linearGradient>
<linearGradient id="paint23_linear_1868_32681" x1="5.47491" y1="3.18091" x2="5.47491" y2="8.47005" gradientUnits="userSpaceOnUse">
<stop stop-color="#FF80AD"/>
<stop offset="1" stop-color="#9C0F42"/>
</linearGradient>
<linearGradient id="paint24_linear_1868_32681" x1="8.18011" y1="11.1776" x2="8.18011" y2="3.22918" gradientUnits="userSpaceOnUse">
<stop stop-color="#FF80AD"/>
<stop offset="1" stop-color="#FF4084"/>
</linearGradient>
<linearGradient id="paint25_linear_1868_32681" x1="0.00292969" y1="3.18198" x2="2.5812" y2="3.18198" gradientUnits="userSpaceOnUse">
<stop stop-color="#FFE6EF"/>
<stop offset="1" stop-color="#FF80AD"/>
</linearGradient>
<linearGradient id="paint26_linear_1868_32681" x1="1.56836" y1="3.18198" x2="2.58031" y2="3.18198" gradientUnits="userSpaceOnUse">
<stop stop-color="#FFE6EF"/>
<stop offset="1" stop-color="#FF80AD"/>
</linearGradient>
<linearGradient id="paint27_linear_1868_32681" x1="0" y1="8.23091" x2="4.39978" y2="8.23091" gradientUnits="userSpaceOnUse">
<stop stop-color="#FF80AD"/>
<stop offset="1" stop-color="#9C0F42"/>
</linearGradient>
<linearGradient id="paint28_linear_1868_32681" x1="1.56836" y1="8.23091" x2="4.39791" y2="8.23091" gradientUnits="userSpaceOnUse">
<stop stop-color="#FF80AD"/>
<stop offset="1" stop-color="#9C0F42"/>
</linearGradient>
<linearGradient id="paint29_linear_1868_32681" x1="0.00308982" y1="9.68031" x2="4.39973" y2="9.68031" gradientUnits="userSpaceOnUse">
<stop stop-color="#FF80AD"/>
<stop offset="1" stop-color="#9C0F42"/>
</linearGradient>
<linearGradient id="paint30_linear_1868_32681" x1="-4.14504" y1="11.9725" x2="8.92118" y2="15.9321" gradientUnits="userSpaceOnUse">
<stop stop-color="#FFE6EF"/>
<stop offset="1" stop-color="#FF80AD"/>
</linearGradient>
<linearGradient id="paint31_linear_1868_32681" x1="-3.5546" y1="11.7794" x2="9.51161" y2="15.7391" gradientUnits="userSpaceOnUse">
<stop stop-color="#FFE6EF"/>
<stop offset="1" stop-color="#FF80AD"/>
</linearGradient>
<linearGradient id="paint32_linear_1868_32681" x1="8.97749" y1="5.94841" x2="4.09471" y2="1.72114" gradientUnits="userSpaceOnUse">
<stop stop-color="#FF80AD"/>
<stop offset="1" stop-color="#FF4084"/>
</linearGradient>
<linearGradient id="paint33_linear_1868_32681" x1="12.8942" y1="-3.2092" x2="1.90468" y2="-4.22933" gradientUnits="userSpaceOnUse">
<stop stop-color="#FF80AD"/>
<stop offset="1" stop-color="#FF4084"/>
</linearGradient>
<linearGradient id="paint34_linear_1868_32681" x1="21.7536" y1="18.8362" x2="20.8634" y2="1.15544" gradientUnits="userSpaceOnUse">
<stop stop-color="#FF80AD"/>
<stop offset="1" stop-color="#FF4084"/>
</linearGradient>
<linearGradient id="paint35_linear_1868_32681" x1="8.69388" y1="2.21243" x2="0.456373" y2="0.0933552" gradientUnits="userSpaceOnUse">
<stop stop-color="#FF80AD"/>
<stop offset="1" stop-color="#FF4084"/>
</linearGradient>
<linearGradient id="paint36_linear_1868_32681" x1="5.18203" y1="6.56153" x2="7.03066" y2="1.82353" gradientUnits="userSpaceOnUse">
<stop stop-color="#FFE6EF"/>
<stop offset="1" stop-color="#FF80AD"/>
</linearGradient>
<linearGradient id="paint37_linear_1868_32681" x1="5.02904" y1="3.09558" x2="5.02904" y2="0.810782" gradientUnits="userSpaceOnUse">
<stop stop-color="#FF4084"/>
<stop offset="1" stop-color="#7D0C35"/>
</linearGradient>
<linearGradient id="paint38_linear_1868_32681" x1="5.02902" y1="3.09558" x2="5.02902" y2="0.810782" gradientUnits="userSpaceOnUse">
<stop stop-color="#FF4084"/>
<stop offset="1" stop-color="#7D0C35"/>
</linearGradient>
<linearGradient id="paint39_linear_1868_32681" x1="3.8273" y1="3.0908" x2="3.8273" y2="0.812304" gradientUnits="userSpaceOnUse">
<stop stop-color="#FF4084"/>
<stop offset="1" stop-color="#7D0C35"/>
</linearGradient>
<linearGradient id="paint40_linear_1868_32681" x1="4.80851" y1="1.28885" x2="3.62191" y2="3.80098" gradientUnits="userSpaceOnUse">
<stop stop-color="#FF80AD"/>
<stop offset="1" stop-color="#FF4084"/>
</linearGradient>
<linearGradient id="paint41_linear_1868_32681" x1="3.16716" y1="1.98905" x2="2.50644" y2="6.98352" gradientUnits="userSpaceOnUse">
<stop stop-color="#FF80AD"/>
<stop offset="1" stop-color="#FF4084"/>
</linearGradient>
<linearGradient id="paint42_linear_1868_32681" x1="5.25939" y1="-1.96163" x2="1.25526" y2="-1.31377" gradientUnits="userSpaceOnUse">
<stop stop-color="#FF80AD"/>
<stop offset="1" stop-color="#FF4084"/>
</linearGradient>
<linearGradient id="paint43_linear_1868_32681" x1="7.1586" y1="3.02261" x2="7.1586" y2="0.754606" gradientUnits="userSpaceOnUse">
<stop stop-color="#FF80AD"/>
<stop offset="1" stop-color="#FF2472"/>
</linearGradient>
<linearGradient id="paint44_linear_1868_32681" x1="7.50358" y1="3.02261" x2="7.50358" y2="0.754606" gradientUnits="userSpaceOnUse">
<stop stop-color="#FF80AD"/>
<stop offset="1" stop-color="#FF2472"/>
</linearGradient>
<linearGradient id="paint45_linear_1868_32681" x1="4.40366" y1="5.5909" x2="8.61124" y2="8.09287" gradientUnits="userSpaceOnUse">
<stop stop-color="#FF80AD"/>
<stop offset="1" stop-color="#9C0F42"/>
</linearGradient>
<linearGradient id="paint46_linear_1868_32681" x1="-3.30139" y1="57.9566" x2="16.7516" y2="58.1269" gradientUnits="userSpaceOnUse">
<stop stop-color="#FF80AD"/>
<stop offset="1" stop-color="#9C0F42"/>
</linearGradient>
<linearGradient id="paint47_linear_1868_32681" x1="1.92594" y1="3.4509" x2="2.56478" y2="9.89412" gradientUnits="userSpaceOnUse">
<stop stop-color="#FF80AD"/>
<stop offset="1" stop-color="#9C0F42"/>
</linearGradient>
<linearGradient id="paint48_linear_1868_32681" x1="6.25807" y1="3.20504" x2="6.25807" y2="11.0891" gradientUnits="userSpaceOnUse">
<stop stop-color="#FFE6EF"/>
<stop offset="1" stop-color="#FF80AD"/>
</linearGradient>
<linearGradient id="paint49_linear_1868_32681" x1="6.25807" y1="3.19689" x2="6.25807" y2="8.41833" gradientUnits="userSpaceOnUse">
<stop stop-color="#FFE6EF"/>
<stop offset="1" stop-color="#FF80AD"/>
</linearGradient>
</defs>
</svg>
