<svg width="17" height="12" viewBox="0 0 17 12" fill="none" xmlns="http://www.w3.org/2000/svg">
<g opacity="0.9">
<path d="M13.9612 0.00927734L14.7949 2.76473H16.9978L13.9612 0.00927734Z" fill="url(#paint0_linear_3750_27762)"/>
<path d="M13.9612 0.00927734L14.7949 2.76473H15.3557L13.9612 0.00927734Z" fill="url(#paint1_linear_3750_27762)"/>
<path d="M14.7937 2.76343L11.8181 8.56136L17 2.76343H14.7937Z" fill="url(#paint2_linear_3750_27762)"/>
<path opacity="0.3" d="M14.7937 2.76343L11.8181 8.56136L15.3545 2.76343H14.7937Z" fill="url(#paint3_linear_3750_27762)"/>
<path opacity="0.3" d="M15.4363 4.51084L16.9967 2.76343H14.7926L14.4172 3.49477L15.4363 4.51084Z" fill="url(#paint4_linear_3750_27762)"/>
<path opacity="0.3" d="M13.4751 5.32959L11.8169 8.56151L14.12 5.97712L13.4751 5.32959Z" fill="url(#paint5_linear_3750_27762)"/>
<path d="M14.7936 2.76343L9.63014 8.88053L8.50049 11.9999L11.8192 8.56136L14.7936 2.76343Z" fill="url(#paint6_linear_3750_27762)"/>
<path opacity="0.3" d="M14.7938 2.76343L9.62915 8.88053L12.3825 7.46262L14.7938 2.76343Z" fill="url(#paint7_linear_3750_27762)"/>
<path opacity="0.3" d="M9.97926 8.46509L9.6338 8.87955L8.50415 11.999L11.0133 9.39965C10.5935 9.18232 10.2373 8.86036 9.97926 8.46509V8.46509Z" fill="url(#paint8_linear_3750_27762)"/>
<path opacity="0.3" d="M13.7251 4.84724L14.7937 2.76343L13.2542 4.58777C13.4195 4.65828 13.5773 4.74521 13.7251 4.84724Z" fill="url(#paint9_linear_3750_27762)"/>
<path d="M9.62915 8.87956L11.8171 2.76245H14.7926L9.62915 8.87956Z" fill="url(#paint10_linear_3750_27762)"/>
<path opacity="0.3" d="M9.62915 8.87956L11.8171 2.76245H12.7037L9.62915 8.87956Z" fill="url(#paint11_linear_3750_27762)"/>
<path opacity="0.3" d="M13.512 2.76343V4.28696L14.7982 2.76343H13.512Z" fill="url(#paint12_linear_3750_27762)"/>
<path opacity="0.3" d="M11.543 3.53955L9.63257 8.87939L11.543 6.61647V3.53955Z" fill="url(#paint13_linear_3750_27762)"/>
<path d="M11.8181 2.76351L10.9844 0.00805664L14.7936 2.76351H11.8181Z" fill="url(#paint14_linear_3750_27762)"/>
<path d="M13.0261 1.48462C12.779 2.01927 12.3735 2.46562 11.8643 2.76361H14.7937L13.0261 1.48462Z" fill="url(#paint15_linear_3750_27762)"/>
<path d="M10.9844 0.00927734H13.9599L14.7936 2.76473L10.9844 0.00927734Z" fill="url(#paint16_linear_3750_27762)"/>
<path opacity="0.3" d="M10.9844 0.00927734H11.6454L14.7925 2.76473L10.9844 0.00927734Z" fill="url(#paint17_linear_3750_27762)"/>
<path d="M10.9855 0.00927734L8.50049 2.76473H11.8192L10.9855 0.00927734Z" fill="url(#paint18_linear_3750_27762)"/>
<path d="M8.50049 2.76351V0.00805664H10.9855L8.50049 2.76351Z" fill="url(#paint19_linear_3750_27762)"/>
<path opacity="0.3" d="M8.50049 2.76351L10.1598 0.00805664H10.9855L8.50049 2.76351Z" fill="url(#paint20_linear_3750_27762)"/>
<path d="M8.50049 2.76343L9.63014 8.88053L11.818 2.76343H8.50049Z" fill="url(#paint21_linear_3750_27762)"/>
<path opacity="0.3" d="M10.9672 2.76343L9.62451 8.88053L11.8124 2.76343H10.9672Z" fill="url(#paint22_linear_3750_27762)"/>
<path opacity="0.3" d="M11.1675 4.58317L11.8192 2.76343H9.34229L11.1675 4.58317Z" fill="url(#paint23_linear_3750_27762)"/>
<path d="M8.50069 2.76343V11.9999L9.63033 8.88053L8.50069 2.76343Z" fill="url(#paint24_linear_3750_27762)"/>
<path d="M3.04 0.00927734L2.20629 2.76473H0.00341797L3.04 0.00927734Z" fill="url(#paint25_linear_3750_27762)"/>
<path d="M3.039 0.00927734L2.20529 2.76473H1.84717L3.039 0.00927734Z" fill="url(#paint26_linear_3750_27762)"/>
<path d="M2.20633 2.76343L5.18187 8.56136L0 2.76343H2.20633Z" fill="url(#paint27_linear_3750_27762)"/>
<path d="M2.20529 2.76343L5.17969 8.56136L1.84717 2.76343H2.20529Z" fill="url(#paint28_linear_3750_27762)"/>
<path opacity="0.2" d="M3.28979 4.87598C3.05765 5.14075 2.77605 5.35795 2.46069 5.51547L5.18175 8.5614L3.28979 4.87598Z" fill="url(#paint29_linear_3750_27762)"/>
<path d="M2.2063 2.76343L7.3709 8.88053L8.50055 11.9999L5.18185 8.56136L2.2063 2.76343Z" fill="url(#paint30_linear_3750_27762)"/>
<path d="M2.2063 2.76343L7.3709 8.88053L8.50055 11.9999L6.8412 9.25367L2.2063 2.76343Z" fill="url(#paint31_linear_3750_27762)"/>
<path opacity="0.3" d="M7.37103 8.88062C7.34931 9.45842 7.27414 10.033 7.14648 10.597L8.50068 12L7.37103 8.88062Z" fill="#000080"/>
<path d="M7.36975 8.87956L5.18185 2.76245H2.2063L7.36975 8.87956Z" fill="url(#paint32_linear_3750_27762)"/>
<path opacity="0.3" d="M7.36968 8.87956L5.18178 2.76245H4.41602L7.36968 8.87956Z" fill="url(#paint33_linear_3750_27762)"/>
<path opacity="0.5" d="M4.85603 2.76343H2.20752L3.41893 4.19741L4.85603 2.76343Z" fill="url(#paint34_linear_3750_27762)"/>
<path opacity="0.5" d="M5.76221 6.98039L7.37435 8.8851L6.45312 6.29956L5.76221 6.98039Z" fill="url(#paint35_linear_3750_27762)"/>
<path d="M5.18185 2.76351L6.01555 0.00805664L2.2063 2.76351H5.18185Z" fill="url(#paint36_linear_3750_27762)"/>
<path d="M6.0144 0.00927734H3.04L2.2063 2.76473L6.0144 0.00927734Z" fill="url(#paint37_linear_3750_27762)"/>
<path opacity="0.3" d="M6.01433 0.00927734H5.3522L2.20508 2.76473L6.01433 0.00927734Z" fill="url(#paint38_linear_3750_27762)"/>
<path opacity="0.3" d="M2.9363 0.3479L2.20508 2.75892L4.41371 1.16191C3.8367 1.08362 3.30982 0.793319 2.9363 0.3479Z" fill="url(#paint39_linear_3750_27762)"/>
<path d="M6.01437 0.00927734L8.49937 2.76473H5.18066L6.01437 0.00927734Z" fill="url(#paint40_linear_3750_27762)"/>
<path opacity="0.3" d="M8.49945 2.76357L7.64041 1.81179L6.68579 2.76357H8.49945Z" fill="url(#paint41_linear_3750_27762)"/>
<path opacity="0.3" d="M6.73639 0.803674L6.01439 0L5.35571 2.1814L6.73639 0.803674Z" fill="url(#paint42_linear_3750_27762)"/>
<path d="M8.4994 2.76351V0.00805664H6.0144L8.4994 2.76351Z" fill="url(#paint43_linear_3750_27762)"/>
<path opacity="0.3" d="M8.49942 2.76351V0.00805664H8.08717L8.49942 2.76351Z" fill="url(#paint44_linear_3750_27762)"/>
<path d="M8.49944 2.76343L7.36979 8.88053L5.18188 2.76343H8.49944Z" fill="url(#paint45_linear_3750_27762)"/>
<path opacity="0.3" d="M8.49947 2.76343L7.36983 8.88053L7.82353 2.76343H8.49947Z" fill="url(#paint46_linear_3750_27762)"/>
<path opacity="0.3" d="M7.22128 2.98386C7.29804 2.90732 7.37481 2.83384 7.45158 2.76343H5.17847L5.91775 4.83002C6.24239 4.14438 6.68338 3.51982 7.22128 2.98386Z" fill="url(#paint47_linear_3750_27762)"/>
<path d="M8.49947 2.76343V11.9999L7.36983 8.88053L8.49947 2.76343Z" fill="url(#paint48_linear_3750_27762)"/>
<path d="M8.49947 2.76343V5.46607L7.36983 8.88053L8.49947 2.76343Z" fill="url(#paint49_linear_3750_27762)"/>
</g>
<defs>
<linearGradient id="paint0_linear_3750_27762" x1="12.0642" y1="0.610898" x2="13.7711" y2="4.14179" gradientUnits="userSpaceOnUse">
<stop stop-color="#1877F2"/>
<stop offset="1" stop-color="#AEC1FF"/>
</linearGradient>
<linearGradient id="paint1_linear_3750_27762" x1="9.86502" y1="6.15277" x2="15.9809" y2="6.71597" gradientUnits="userSpaceOnUse">
<stop stop-color="#1877F2"/>
<stop offset="1" stop-color="#C2CEE2"/>
</linearGradient>
<linearGradient id="paint2_linear_3750_27762" x1="11.8181" y1="8.56136" x2="17" y2="8.56136" gradientUnits="userSpaceOnUse">
<stop stop-color="#1877F2"/>
<stop offset="1" stop-color="#98AEF8"/>
</linearGradient>
<linearGradient id="paint3_linear_3750_27762" x1="11.8181" y1="8.56136" x2="15.3545" y2="8.56136" gradientUnits="userSpaceOnUse">
<stop stop-color="#1877F2"/>
<stop offset="1" stop-color="#98AEF8"/>
</linearGradient>
<linearGradient id="paint4_linear_3750_27762" x1="11.8172" y1="5.39154" x2="16.9967" y2="5.39154" gradientUnits="userSpaceOnUse">
<stop stop-color="#A1B4D2"/>
<stop offset="1" stop-color="#E6EBF3"/>
</linearGradient>
<linearGradient id="paint5_linear_3750_27762" x1="11.8169" y1="10.5718" x2="16.985" y2="10.5718" gradientUnits="userSpaceOnUse">
<stop stop-color="#1877F2"/>
<stop offset="1" stop-color="#FF80AD"/>
</linearGradient>
<linearGradient id="paint6_linear_3750_27762" x1="15.3235" y1="-7.17843" x2="0.320617" y2="-2.49932" gradientUnits="userSpaceOnUse">
<stop stop-color="#1877F2"/>
<stop offset="1" stop-color="#386298"/>
</linearGradient>
<linearGradient id="paint7_linear_3750_27762" x1="13.0108" y1="-0.98499" x2="5.79891" y2="4.31491" gradientUnits="userSpaceOnUse">
<stop stop-color="#1877F2"/>
<stop offset="1" stop-color="#1877F2"/>
</linearGradient>
<linearGradient id="paint8_linear_3750_27762" x1="16.3876" y1="-6.06336" x2="2.38824" y2="-0.91658" gradientUnits="userSpaceOnUse">
<stop stop-color="#000080"/>
<stop offset="1" stop-color="#1877F2"/>
</linearGradient>
<linearGradient id="paint9_linear_3750_27762" x1="12.0619" y1="-5.01231" x2="-1.02125" y2="0.630308" gradientUnits="userSpaceOnUse">
<stop stop-color="#80ABFF"/>
<stop offset="1" stop-color="#E6B7C8"/>
</linearGradient>
<linearGradient id="paint10_linear_3750_27762" x1="11.2271" y1="11.8293" x2="17.0082" y2="6.81872" gradientUnits="userSpaceOnUse">
<stop stop-color="#D9D9D9"/>
<stop offset="1" stop-color="#C2CEE2"/>
</linearGradient>
<linearGradient id="paint11_linear_3750_27762" x1="4.34371" y1="20.552" x2="16.8097" y2="19.1928" gradientUnits="userSpaceOnUse">
<stop stop-color="#4053FF"/>
<stop offset="1" stop-color="#294A8A"/>
</linearGradient>
<linearGradient id="paint12_linear_3750_27762" x1="11.3267" y1="12.194" x2="17.107" y2="7.18638" gradientUnits="userSpaceOnUse">
<stop stop-color="#1877F2"/>
<stop offset="1" stop-color="#1877F2"/>
</linearGradient>
<linearGradient id="paint13_linear_3750_27762" x1="2.44038" y1="47.0895" x2="30.0333" y2="46.3186" gradientUnits="userSpaceOnUse">
<stop stop-color="#1877F2"/>
<stop offset="1" stop-color="#1840CD"/>
</linearGradient>
<linearGradient id="paint14_linear_3750_27762" x1="17.5399" y1="3.75537" x2="15.5243" y2="-1.89642" gradientUnits="userSpaceOnUse">
<stop stop-color="#1877F2"/>
<stop offset="1" stop-color="#AEC1FF"/>
</linearGradient>
<linearGradient id="paint15_linear_3750_27762" x1="30.1189" y1="7.43097" x2="29.4464" y2="-6.76988" gradientUnits="userSpaceOnUse">
<stop stop-color="#1877F2"/>
<stop offset="1" stop-color="#9C0F42"/>
</linearGradient>
<linearGradient id="paint16_linear_3750_27762" x1="14.7022" y1="2.66553" x2="14.7022" y2="0.0423429" gradientUnits="userSpaceOnUse">
<stop stop-color="#AEC1FF"/>
<stop offset="1" stop-color="#7B95BF"/>
</linearGradient>
<linearGradient id="paint17_linear_3750_27762" x1="14.7011" y1="2.66553" x2="14.7011" y2="0.0423429" gradientUnits="userSpaceOnUse">
<stop stop-color="#AEC1FF"/>
<stop offset="1" stop-color="#7B95BF"/>
</linearGradient>
<linearGradient id="paint18_linear_3750_27762" x1="11.774" y1="5.35322" x2="13.5833" y2="1.28869" gradientUnits="userSpaceOnUse">
<stop stop-color="#493DA9"/>
<stop offset="0.528286" stop-color="#493DA9"/>
<stop offset="1" stop-color="#493DA9"/>
</linearGradient>
<linearGradient id="paint19_linear_3750_27762" x1="10.9258" y1="2.66431" x2="10.9258" y2="0.0411222" gradientUnits="userSpaceOnUse">
<stop stop-color="#AEC1FF"/>
<stop offset="1" stop-color="#7B95BF"/>
</linearGradient>
<linearGradient id="paint20_linear_3750_27762" x1="10.9258" y1="2.66431" x2="10.9258" y2="0.0411222" gradientUnits="userSpaceOnUse">
<stop stop-color="#AEC1FF"/>
<stop offset="1" stop-color="#7B95BF"/>
</linearGradient>
<linearGradient id="paint21_linear_3750_27762" x1="8.5121" y1="2.76343" x2="8.5121" y2="8.83771" gradientUnits="userSpaceOnUse">
<stop stop-color="#084493"/>
<stop offset="1" stop-color="#6767CA"/>
</linearGradient>
<linearGradient id="paint22_linear_3750_27762" x1="9.63217" y1="2.76343" x2="9.63217" y2="8.83771" gradientUnits="userSpaceOnUse">
<stop stop-color="#084493"/>
<stop offset="1" stop-color="#6767CA"/>
</linearGradient>
<linearGradient id="paint23_linear_3750_27762" x1="6.44799" y1="2.76343" x2="6.44799" y2="8.83592" gradientUnits="userSpaceOnUse">
<stop stop-color="#1877F2"/>
<stop offset="1" stop-color="#1877F2"/>
</linearGradient>
<linearGradient id="paint24_linear_3750_27762" x1="9.63436" y1="11.9445" x2="9.63436" y2="2.81885" gradientUnits="userSpaceOnUse">
<stop stop-color="#1877F2"/>
<stop offset="1" stop-color="#1877F2"/>
</linearGradient>
<linearGradient id="paint25_linear_3750_27762" x1="0.00341797" y1="2.76473" x2="3.04" y2="2.76473" gradientUnits="userSpaceOnUse">
<stop stop-color="#DADADA"/>
<stop offset="1" stop-color="#1877F2"/>
</linearGradient>
<linearGradient id="paint26_linear_3750_27762" x1="1.84717" y1="2.76473" x2="3.039" y2="2.76473" gradientUnits="userSpaceOnUse">
<stop stop-color="#1C3A61"/>
<stop offset="1" stop-color="#1877F2"/>
</linearGradient>
<linearGradient id="paint27_linear_3750_27762" x1="0" y1="8.56136" x2="5.18187" y2="8.56136" gradientUnits="userSpaceOnUse">
<stop stop-color="#A1B4D2"/>
<stop offset="1" stop-color="#7B95BF"/>
</linearGradient>
<linearGradient id="paint28_linear_3750_27762" x1="1.84717" y1="8.56136" x2="5.17969" y2="8.56136" gradientUnits="userSpaceOnUse">
<stop stop-color="#A1B4D2"/>
<stop offset="1" stop-color="#7B95BF"/>
</linearGradient>
<linearGradient id="paint29_linear_3750_27762" x1="0.00357651" y1="10.2254" x2="5.18175" y2="10.2254" gradientUnits="userSpaceOnUse">
<stop stop-color="#7B95BF"/>
<stop offset="1" stop-color="#1877F2"/>
</linearGradient>
<linearGradient id="paint30_linear_3750_27762" x1="-4.88184" y1="12.8571" x2="10.4396" y2="17.6201" gradientUnits="userSpaceOnUse">
<stop stop-color="#FFE6EF"/>
<stop offset="1" stop-color="#12D3CF"/>
</linearGradient>
<linearGradient id="paint31_linear_3750_27762" x1="-4.18645" y1="12.6354" x2="11.135" y2="17.3984" gradientUnits="userSpaceOnUse">
<stop stop-color="#1877F2"/>
<stop offset="1" stop-color="#98AEF8"/>
</linearGradient>
<linearGradient id="paint32_linear_3750_27762" x1="10.5733" y1="5.94096" x2="4.94868" y2="0.94564" gradientUnits="userSpaceOnUse">
<stop stop-color="#57BAE5"/>
<stop offset="1" stop-color="#4589D7"/>
</linearGradient>
<linearGradient id="paint33_linear_3750_27762" x1="15.1863" y1="-4.57295" x2="2.24903" y2="-5.80489" gradientUnits="userSpaceOnUse">
<stop stop-color="#1877F2"/>
<stop offset="1" stop-color="#FF4084"/>
</linearGradient>
<linearGradient id="paint34_linear_3750_27762" x1="25.6206" y1="20.7373" x2="24.6241" y2="0.435429" gradientUnits="userSpaceOnUse">
<stop stop-color="#000080"/>
<stop offset="1" stop-color="#1877F2"/>
</linearGradient>
<linearGradient id="paint35_linear_3750_27762" x1="10.2392" y1="1.65139" x2="0.568834" y2="-0.900541" gradientUnits="userSpaceOnUse">
<stop stop-color="#9E26BC"/>
<stop offset="1" stop-color="#1877F2"/>
</linearGradient>
<linearGradient id="paint36_linear_3750_27762" x1="6.10319" y1="6.64471" x2="8.18586" y2="1.16902" gradientUnits="userSpaceOnUse">
<stop stop-color="#000080"/>
<stop offset="1" stop-color="#00CDB3"/>
</linearGradient>
<linearGradient id="paint37_linear_3750_27762" x1="5.92301" y1="2.66553" x2="5.92301" y2="0.0423429" gradientUnits="userSpaceOnUse">
<stop stop-color="#AEC1FF"/>
<stop offset="1" stop-color="#7B95BF"/>
</linearGradient>
<linearGradient id="paint38_linear_3750_27762" x1="5.92291" y1="2.66553" x2="5.92291" y2="0.0423429" gradientUnits="userSpaceOnUse">
<stop stop-color="#AEC1FF"/>
<stop offset="1" stop-color="#7B95BF"/>
</linearGradient>
<linearGradient id="paint39_linear_3750_27762" x1="4.50757" y1="2.66007" x2="4.50757" y2="0.0441116" gradientUnits="userSpaceOnUse">
<stop stop-color="#000080"/>
<stop offset="1" stop-color="#1877F2"/>
</linearGradient>
<linearGradient id="paint40_linear_3750_27762" x1="5.66334" y1="0.591218" x2="4.32314" y2="3.5018" gradientUnits="userSpaceOnUse">
<stop stop-color="#1877F2"/>
<stop offset="1" stop-color="#000080"/>
</linearGradient>
<linearGradient id="paint41_linear_3750_27762" x1="3.73009" y1="1.39524" x2="2.98998" y2="7.13434" gradientUnits="userSpaceOnUse">
<stop stop-color="#1877F2"/>
<stop offset="1" stop-color="#FF4084"/>
</linearGradient>
<linearGradient id="paint42_linear_3750_27762" x1="6.19431" y1="-3.14071" x2="1.48469" y2="-2.35903" gradientUnits="userSpaceOnUse">
<stop stop-color="#7B95BF"/>
<stop offset="1" stop-color="#1877F2"/>
</linearGradient>
<linearGradient id="paint43_linear_3750_27762" x1="8.43106" y1="2.58165" x2="8.43106" y2="-0.0222533" gradientUnits="userSpaceOnUse">
<stop stop-color="#AEC1FF"/>
<stop offset="1" stop-color="#AEC1FF"/>
</linearGradient>
<linearGradient id="paint44_linear_3750_27762" x1="8.83739" y1="2.58165" x2="8.83739" y2="-0.0222533" gradientUnits="userSpaceOnUse">
<stop stop-color="#AEC1FF"/>
<stop offset="1" stop-color="#AEC1FF"/>
</linearGradient>
<linearGradient id="paint45_linear_3750_27762" x1="5.1866" y1="5.53036" x2="10.0753" y2="8.51241" gradientUnits="userSpaceOnUse">
<stop stop-color="#A1B4D2"/>
<stop offset="1" stop-color="#3971CD"/>
</linearGradient>
<linearGradient id="paint46_linear_3750_27762" x1="-3.88833" y1="65.6517" x2="19.7292" y2="65.8574" gradientUnits="userSpaceOnUse">
<stop stop-color="#C2CEE2"/>
<stop offset="1" stop-color="#A1B4D2"/>
</linearGradient>
<linearGradient id="paint47_linear_3750_27762" x1="2.26847" y1="3.07341" x2="2.98381" y2="10.4745" gradientUnits="userSpaceOnUse">
<stop stop-color="#2B3951"/>
<stop offset="1" stop-color="#0A54B4"/>
</linearGradient>
<linearGradient id="paint48_linear_3750_27762" x1="7.3704" y1="2.79114" x2="7.3704" y2="11.8429" gradientUnits="userSpaceOnUse">
<stop stop-color="#7B95BF"/>
<stop offset="1" stop-color="#011C3F"/>
</linearGradient>
<linearGradient id="paint49_linear_3750_27762" x1="7.3704" y1="2.78178" x2="7.3704" y2="8.77654" gradientUnits="userSpaceOnUse">
<stop stop-color="#000080"/>
<stop offset="1" stop-color="#4589D7"/>
</linearGradient>
</defs>
</svg>
