<svg width="15" height="12" viewBox="0 0 15 12" fill="none" xmlns="http://www.w3.org/2000/svg">
<g opacity="0.9">
<path d="M11.854 0.782104L12.5619 3.1821H14.4323L11.854 0.782104Z" fill="url(#paint0_linear_162_57152)"/>
<path d="M11.854 0.782104L12.5619 3.1821H13.038L11.854 0.782104Z" fill="url(#paint1_linear_162_57152)"/>
<path d="M12.5611 3.18103L10.0347 8.23103L14.4344 3.18103H12.5611Z" fill="url(#paint2_linear_162_57152)"/>
<path opacity="0.3" d="M12.5611 3.18103L10.0347 8.23103L13.0373 3.18103H12.5611Z" fill="url(#paint3_linear_162_57152)"/>
<path opacity="0.3" d="M13.1065 4.70303L14.4313 3.18103H12.56L12.2412 3.81803L13.1065 4.70303Z" fill="url(#paint4_linear_162_57152)"/>
<path opacity="0.3" d="M11.4411 5.41602L10.0332 8.23102L11.9887 5.98002L11.4411 5.41602Z" fill="url(#paint5_linear_162_57152)"/>
<path d="M12.5611 3.18103L8.17692 8.50903L7.21777 11.226L10.0356 8.23103L12.5611 3.18103Z" fill="url(#paint6_linear_162_57152)"/>
<path opacity="0.3" d="M12.5609 3.18103L8.17578 8.50903L10.5135 7.27403L12.5609 3.18103Z" fill="url(#paint7_linear_162_57152)"/>
<path opacity="0.3" d="M8.47317 8.14709L8.17985 8.50809L7.2207 11.2251L9.35117 8.96109C8.99473 8.7718 8.69225 8.49138 8.47317 8.14709V8.14709Z" fill="url(#paint8_linear_162_57152)"/>
<path opacity="0.3" d="M11.6533 4.99603L12.5606 3.18103L11.2534 4.77003C11.3938 4.83144 11.5278 4.90716 11.6533 4.99603Z" fill="url(#paint9_linear_162_57152)"/>
<path d="M8.17578 8.50805L10.0335 3.18005H12.5599L8.17578 8.50805Z" fill="url(#paint10_linear_162_57152)"/>
<path opacity="0.3" d="M8.17578 8.50805L10.0335 3.18005H10.7863L8.17578 8.50805Z" fill="url(#paint11_linear_162_57152)"/>
<path opacity="0.3" d="M11.4727 3.18103V4.50803L12.5648 3.18103H11.4727Z" fill="url(#paint12_linear_162_57152)"/>
<path opacity="0.3" d="M9.80076 3.85706L8.17871 8.50806L9.80076 6.53706V3.85706Z" fill="url(#paint13_linear_162_57152)"/>
<path d="M10.0345 3.18101L9.32666 0.781006L12.561 3.18101H10.0345Z" fill="url(#paint14_linear_162_57152)"/>
<path d="M11.0603 2.06702C10.8504 2.5327 10.5061 2.92146 10.0737 3.18102H12.5611L11.0603 2.06702Z" fill="url(#paint15_linear_162_57152)"/>
<path d="M9.32666 0.782104H11.8531L12.561 3.1821L9.32666 0.782104Z" fill="url(#paint16_linear_162_57152)"/>
<path opacity="0.3" d="M9.32666 0.782104H9.88788L12.56 3.1821L9.32666 0.782104Z" fill="url(#paint17_linear_162_57152)"/>
<path d="M9.32771 0.782104L7.21777 3.1821H10.0356L9.32771 0.782104Z" fill="url(#paint18_linear_162_57152)"/>
<path d="M7.21777 3.18101V0.781006H9.32771L7.21777 3.18101Z" fill="url(#paint19_linear_162_57152)"/>
<path opacity="0.3" d="M7.21777 3.18101L8.62668 0.781006H9.32771L7.21777 3.18101Z" fill="url(#paint20_linear_162_57152)"/>
<path d="M7.21777 3.18103L8.17692 8.50903L10.0346 3.18103H7.21777Z" fill="url(#paint21_linear_162_57152)"/>
<path opacity="0.3" d="M9.31191 3.18103L8.17188 8.50903L10.0296 3.18103H9.31191Z" fill="url(#paint22_linear_162_57152)"/>
<path opacity="0.3" d="M9.48183 4.76603L10.0352 3.18103H7.93213L9.48183 4.76603Z" fill="url(#paint23_linear_162_57152)"/>
<path d="M7.21778 3.18103V11.226L8.17694 8.50903L7.21778 3.18103Z" fill="url(#paint24_linear_162_57152)"/>
<path d="M2.5812 0.782104L1.87332 3.1821H0.00292969L2.5812 0.782104Z" fill="url(#paint25_linear_162_57152)"/>
<path d="M2.58031 0.782104L1.87243 3.1821H1.56836L2.58031 0.782104Z" fill="url(#paint26_linear_162_57152)"/>
<path d="M1.87333 3.18103L4.39978 8.23103L0 3.18103H1.87333Z" fill="url(#paint27_linear_162_57152)"/>
<path d="M1.87243 3.18103L4.39791 8.23103L1.56836 3.18103H1.87243Z" fill="url(#paint28_linear_162_57152)"/>
<path opacity="0.2" d="M2.79332 5.021C2.59621 5.25161 2.35712 5.44079 2.08936 5.578L4.39973 8.231L2.79332 5.021Z" fill="url(#paint29_linear_162_57152)"/>
<path d="M1.87354 3.18103L6.25865 8.50903L7.2178 11.226L4.39999 8.23103L1.87354 3.18103Z" fill="url(#paint30_linear_162_57152)"/>
<path d="M1.87354 3.18103L6.25865 8.50903L7.2178 11.226L5.80889 8.83403L1.87354 3.18103Z" fill="url(#paint31_linear_162_57152)"/>
<path opacity="0.3" d="M6.25853 8.50903C6.24009 9.01231 6.17626 9.51276 6.06787 10.004L7.21768 11.226L6.25853 8.50903Z" fill="#FF80AD"/>
<path d="M6.25767 8.50805L4.39999 3.18005H1.87354L6.25767 8.50805Z" fill="url(#paint32_linear_162_57152)"/>
<path opacity="0.3" d="M6.25738 8.50805L4.3997 3.18005H3.74951L6.25738 8.50805Z" fill="url(#paint33_linear_162_57152)"/>
<path opacity="0.5" d="M4.12329 3.18103H1.87451L2.90308 4.43003L4.12329 3.18103Z" fill="url(#paint34_linear_162_57152)"/>
<path opacity="0.5" d="M4.89258 6.85411L6.2614 8.51311L5.47921 6.26111L4.89258 6.85411Z" fill="url(#paint35_linear_162_57152)"/>
<path d="M4.39999 3.18101L5.10786 0.781006L1.87354 3.18101H4.39999Z" fill="url(#paint36_linear_162_57152)"/>
<path d="M5.10688 0.782104H2.58141L1.87354 3.1821L5.10688 0.782104Z" fill="url(#paint37_linear_162_57152)"/>
<path opacity="0.3" d="M5.10688 0.782104H4.54469L1.87256 3.1821L5.10688 0.782104Z" fill="url(#paint38_linear_162_57152)"/>
<path opacity="0.3" d="M2.49342 1.07703L1.87256 3.17703L3.74784 1.78603C3.25792 1.71783 2.81056 1.46499 2.49342 1.07703Z" fill="url(#paint39_linear_162_57152)"/>
<path d="M5.1068 0.782104L7.21674 3.1821H4.39893L5.1068 0.782104Z" fill="url(#paint40_linear_162_57152)"/>
<path opacity="0.3" d="M7.21668 3.1811L6.48729 2.3521L5.67676 3.1811H7.21668Z" fill="url(#paint41_linear_162_57152)"/>
<path opacity="0.3" d="M5.71966 1.47405L5.10662 0.774048L4.54736 2.67405L5.71966 1.47405Z" fill="url(#paint42_linear_162_57152)"/>
<path d="M7.21638 3.18101V0.781006H5.10645L7.21638 3.18101Z" fill="url(#paint43_linear_162_57152)"/>
<path opacity="0.3" d="M7.21661 3.18101V0.781006H6.86659L7.21661 3.18101Z" fill="url(#paint44_linear_162_57152)"/>
<path d="M7.21674 3.18103L6.25759 8.50903L4.3999 3.18103H7.21674Z" fill="url(#paint45_linear_162_57152)"/>
<path opacity="0.3" d="M7.21649 3.18103L6.25734 8.50903L6.64256 3.18103H7.21649Z" fill="url(#paint46_linear_162_57152)"/>
<path opacity="0.3" d="M6.13146 3.37303C6.19664 3.30636 6.26183 3.24236 6.32701 3.18103H4.39697L5.02467 4.98103C5.30032 4.38384 5.67475 3.83984 6.13146 3.37303Z" fill="url(#paint47_linear_162_57152)"/>
<path d="M7.21649 3.18103V11.226L6.25734 8.50903L7.21649 3.18103Z" fill="url(#paint48_linear_162_57152)"/>
<path d="M7.21649 3.18103V5.53503L6.25734 8.50903L7.21649 3.18103Z" fill="url(#paint49_linear_162_57152)"/>
</g>
<defs>
<linearGradient id="paint0_linear_162_57152" x1="10.2434" y1="1.30612" x2="11.7535" y2="4.35134" gradientUnits="userSpaceOnUse">
<stop stop-color="#FF80AD"/>
<stop offset="1" stop-color="#9C0F42"/>
</linearGradient>
<linearGradient id="paint1_linear_162_57152" x1="8.37608" y1="6.13309" x2="13.5711" y2="6.59944" gradientUnits="userSpaceOnUse">
<stop stop-color="#FF80AD"/>
<stop offset="1" stop-color="#9C0F42"/>
</linearGradient>
<linearGradient id="paint2_linear_162_57152" x1="10.0347" y1="8.23103" x2="14.4344" y2="8.23103" gradientUnits="userSpaceOnUse">
<stop stop-color="#FF4084"/>
<stop offset="1" stop-color="#FF80AD"/>
</linearGradient>
<linearGradient id="paint3_linear_162_57152" x1="10.0347" y1="8.23103" x2="13.0373" y2="8.23103" gradientUnits="userSpaceOnUse">
<stop stop-color="#FF4084"/>
<stop offset="1" stop-color="#FF80AD"/>
</linearGradient>
<linearGradient id="paint4_linear_162_57152" x1="10.0336" y1="5.47012" x2="14.4313" y2="5.47012" gradientUnits="userSpaceOnUse">
<stop stop-color="#FF4084"/>
<stop offset="1" stop-color="#FF80AD"/>
</linearGradient>
<linearGradient id="paint5_linear_162_57152" x1="10.0332" y1="9.98195" x2="14.4212" y2="9.98195" gradientUnits="userSpaceOnUse">
<stop stop-color="#FF4084"/>
<stop offset="1" stop-color="#FF80AD"/>
</linearGradient>
<linearGradient id="paint6_linear_162_57152" x1="13.011" y1="-5.47833" x2="0.21609" y2="-1.58831" gradientUnits="userSpaceOnUse">
<stop stop-color="#FF80AD"/>
<stop offset="1" stop-color="#9C0F42"/>
</linearGradient>
<linearGradient id="paint7_linear_162_57152" x1="11.0471" y1="-0.0838419" x2="4.81498" y2="4.38069" gradientUnits="userSpaceOnUse">
<stop stop-color="#FF80AD"/>
<stop offset="1" stop-color="#9C0F42"/>
</linearGradient>
<linearGradient id="paint8_linear_162_57152" x1="13.9144" y1="-4.50718" x2="1.95707" y2="-0.221857" gradientUnits="userSpaceOnUse">
<stop stop-color="#FF80AD"/>
<stop offset="1" stop-color="#9C0F42"/>
</linearGradient>
<linearGradient id="paint9_linear_162_57152" x1="10.2411" y1="-3.59164" x2="-0.95471" y2="1.11543" gradientUnits="userSpaceOnUse">
<stop stop-color="#FF80AD"/>
<stop offset="1" stop-color="#9C0F42"/>
</linearGradient>
<linearGradient id="paint10_linear_162_57152" x1="9.53256" y1="11.0773" x2="14.5481" y2="6.83967" gradientUnits="userSpaceOnUse">
<stop stop-color="#FF4084"/>
<stop offset="1" stop-color="#FF80AD"/>
</linearGradient>
<linearGradient id="paint11_linear_162_57152" x1="3.68807" y1="18.6748" x2="14.2787" y2="17.5491" gradientUnits="userSpaceOnUse">
<stop stop-color="#FF4084"/>
<stop offset="1" stop-color="#FF80AD"/>
</linearGradient>
<linearGradient id="paint12_linear_162_57152" x1="9.61725" y1="11.395" x2="14.632" y2="7.16" gradientUnits="userSpaceOnUse">
<stop stop-color="#FF4084"/>
<stop offset="1" stop-color="#FF80AD"/>
</linearGradient>
<linearGradient id="paint13_linear_162_57152" x1="2.07203" y1="41.7891" x2="25.5013" y2="41.1509" gradientUnits="userSpaceOnUse">
<stop stop-color="#FF4084"/>
<stop offset="1" stop-color="#FF80AD"/>
</linearGradient>
<linearGradient id="paint14_linear_162_57152" x1="14.8928" y1="4.04492" x2="13.1024" y2="-0.848904" gradientUnits="userSpaceOnUse">
<stop stop-color="#FF80AD"/>
<stop offset="1" stop-color="#9C0F42"/>
</linearGradient>
<linearGradient id="paint15_linear_162_57152" x1="25.5732" y1="7.24628" x2="24.9724" y2="-5.12121" gradientUnits="userSpaceOnUse">
<stop stop-color="#FF80AD"/>
<stop offset="1" stop-color="#9C0F42"/>
</linearGradient>
<linearGradient id="paint16_linear_162_57152" x1="12.4834" y1="3.0957" x2="12.4834" y2="0.810905" gradientUnits="userSpaceOnUse">
<stop stop-color="#FF4084"/>
<stop offset="1" stop-color="#7D0C35"/>
</linearGradient>
<linearGradient id="paint17_linear_162_57152" x1="12.4824" y1="3.0957" x2="12.4824" y2="0.810905" gradientUnits="userSpaceOnUse">
<stop stop-color="#FF4084"/>
<stop offset="1" stop-color="#7D0C35"/>
</linearGradient>
<linearGradient id="paint18_linear_162_57152" x1="9.99724" y1="5.43668" x2="11.6" y2="1.92684" gradientUnits="userSpaceOnUse">
<stop stop-color="#FFE6EF"/>
<stop offset="1" stop-color="#FF80AD"/>
</linearGradient>
<linearGradient id="paint19_linear_162_57152" x1="9.27707" y1="3.09461" x2="9.27707" y2="0.809806" gradientUnits="userSpaceOnUse">
<stop stop-color="#FF4084"/>
<stop offset="1" stop-color="#7D0C35"/>
</linearGradient>
<linearGradient id="paint20_linear_162_57152" x1="9.27707" y1="3.09461" x2="9.27707" y2="0.809806" gradientUnits="userSpaceOnUse">
<stop stop-color="#FF4084"/>
<stop offset="1" stop-color="#7D0C35"/>
</linearGradient>
<linearGradient id="paint21_linear_162_57152" x1="7.22763" y1="3.18103" x2="7.22763" y2="8.47173" gradientUnits="userSpaceOnUse">
<stop stop-color="#FF80AD"/>
<stop offset="1" stop-color="#9C0F42"/>
</linearGradient>
<linearGradient id="paint22_linear_162_57152" x1="8.17838" y1="3.18103" x2="8.17838" y2="8.47173" gradientUnits="userSpaceOnUse">
<stop stop-color="#FF80AD"/>
<stop offset="1" stop-color="#9C0F42"/>
</linearGradient>
<linearGradient id="paint23_linear_162_57152" x1="5.47466" y1="3.18103" x2="5.47466" y2="8.47018" gradientUnits="userSpaceOnUse">
<stop stop-color="#FF80AD"/>
<stop offset="1" stop-color="#9C0F42"/>
</linearGradient>
<linearGradient id="paint24_linear_162_57152" x1="8.18036" y1="11.1778" x2="8.18036" y2="3.2293" gradientUnits="userSpaceOnUse">
<stop stop-color="#FF80AD"/>
<stop offset="1" stop-color="#FF4084"/>
</linearGradient>
<linearGradient id="paint25_linear_162_57152" x1="0.00292969" y1="3.1821" x2="2.5812" y2="3.1821" gradientUnits="userSpaceOnUse">
<stop stop-color="#FFE6EF"/>
<stop offset="1" stop-color="#FF80AD"/>
</linearGradient>
<linearGradient id="paint26_linear_162_57152" x1="1.56836" y1="3.1821" x2="2.58031" y2="3.1821" gradientUnits="userSpaceOnUse">
<stop stop-color="#FFE6EF"/>
<stop offset="1" stop-color="#FF80AD"/>
</linearGradient>
<linearGradient id="paint27_linear_162_57152" x1="0" y1="8.23103" x2="4.39978" y2="8.23103" gradientUnits="userSpaceOnUse">
<stop stop-color="#FF80AD"/>
<stop offset="1" stop-color="#9C0F42"/>
</linearGradient>
<linearGradient id="paint28_linear_162_57152" x1="1.56836" y1="8.23103" x2="4.39791" y2="8.23103" gradientUnits="userSpaceOnUse">
<stop stop-color="#FF80AD"/>
<stop offset="1" stop-color="#9C0F42"/>
</linearGradient>
<linearGradient id="paint29_linear_162_57152" x1="0.00308982" y1="9.68031" x2="4.39973" y2="9.68031" gradientUnits="userSpaceOnUse">
<stop stop-color="#FF80AD"/>
<stop offset="1" stop-color="#9C0F42"/>
</linearGradient>
<linearGradient id="paint30_linear_162_57152" x1="-4.14479" y1="11.9726" x2="8.92142" y2="15.9323" gradientUnits="userSpaceOnUse">
<stop stop-color="#FFE6EF"/>
<stop offset="1" stop-color="#FF80AD"/>
</linearGradient>
<linearGradient id="paint31_linear_162_57152" x1="-3.55436" y1="11.7795" x2="9.51186" y2="15.7392" gradientUnits="userSpaceOnUse">
<stop stop-color="#FFE6EF"/>
<stop offset="1" stop-color="#FF80AD"/>
</linearGradient>
<linearGradient id="paint32_linear_162_57152" x1="8.97773" y1="5.94854" x2="4.09496" y2="1.72126" gradientUnits="userSpaceOnUse">
<stop stop-color="#FF80AD"/>
<stop offset="1" stop-color="#FF4084"/>
</linearGradient>
<linearGradient id="paint33_linear_162_57152" x1="12.8942" y1="-3.20908" x2="1.90468" y2="-4.22921" gradientUnits="userSpaceOnUse">
<stop stop-color="#FF80AD"/>
<stop offset="1" stop-color="#FF4084"/>
</linearGradient>
<linearGradient id="paint34_linear_162_57152" x1="21.7538" y1="18.8363" x2="20.8636" y2="1.15557" gradientUnits="userSpaceOnUse">
<stop stop-color="#FF80AD"/>
<stop offset="1" stop-color="#FF4084"/>
</linearGradient>
<linearGradient id="paint35_linear_162_57152" x1="8.69388" y1="2.21256" x2="0.456373" y2="0.0934772" gradientUnits="userSpaceOnUse">
<stop stop-color="#FF80AD"/>
<stop offset="1" stop-color="#FF4084"/>
</linearGradient>
<linearGradient id="paint36_linear_162_57152" x1="5.18227" y1="6.56153" x2="7.03091" y2="1.82353" gradientUnits="userSpaceOnUse">
<stop stop-color="#FFE6EF"/>
<stop offset="1" stop-color="#FF80AD"/>
</linearGradient>
<linearGradient id="paint37_linear_162_57152" x1="5.02928" y1="3.0957" x2="5.02928" y2="0.810905" gradientUnits="userSpaceOnUse">
<stop stop-color="#FF4084"/>
<stop offset="1" stop-color="#7D0C35"/>
</linearGradient>
<linearGradient id="paint38_linear_162_57152" x1="5.02926" y1="3.0957" x2="5.02926" y2="0.810905" gradientUnits="userSpaceOnUse">
<stop stop-color="#FF4084"/>
<stop offset="1" stop-color="#7D0C35"/>
</linearGradient>
<linearGradient id="paint39_linear_162_57152" x1="3.82754" y1="3.09093" x2="3.82754" y2="0.812426" gradientUnits="userSpaceOnUse">
<stop stop-color="#FF4084"/>
<stop offset="1" stop-color="#7D0C35"/>
</linearGradient>
<linearGradient id="paint40_linear_162_57152" x1="4.80875" y1="1.28897" x2="3.62215" y2="3.8011" gradientUnits="userSpaceOnUse">
<stop stop-color="#FF80AD"/>
<stop offset="1" stop-color="#FF4084"/>
</linearGradient>
<linearGradient id="paint41_linear_162_57152" x1="3.16716" y1="1.98929" x2="2.50644" y2="6.98377" gradientUnits="userSpaceOnUse">
<stop stop-color="#FF80AD"/>
<stop offset="1" stop-color="#FF4084"/>
</linearGradient>
<linearGradient id="paint42_linear_162_57152" x1="5.25939" y1="-1.96151" x2="1.25526" y2="-1.31365" gradientUnits="userSpaceOnUse">
<stop stop-color="#FF80AD"/>
<stop offset="1" stop-color="#FF4084"/>
</linearGradient>
<linearGradient id="paint43_linear_162_57152" x1="7.15836" y1="3.02261" x2="7.15836" y2="0.754606" gradientUnits="userSpaceOnUse">
<stop stop-color="#FF80AD"/>
<stop offset="1" stop-color="#FF2472"/>
</linearGradient>
<linearGradient id="paint44_linear_162_57152" x1="7.50358" y1="3.02261" x2="7.50358" y2="0.754606" gradientUnits="userSpaceOnUse">
<stop stop-color="#FF80AD"/>
<stop offset="1" stop-color="#FF2472"/>
</linearGradient>
<linearGradient id="paint45_linear_162_57152" x1="4.4039" y1="5.59102" x2="8.61148" y2="8.09299" gradientUnits="userSpaceOnUse">
<stop stop-color="#FF80AD"/>
<stop offset="1" stop-color="#9C0F42"/>
</linearGradient>
<linearGradient id="paint46_linear_162_57152" x1="-3.30164" y1="57.9567" x2="16.7514" y2="58.127" gradientUnits="userSpaceOnUse">
<stop stop-color="#FF80AD"/>
<stop offset="1" stop-color="#9C0F42"/>
</linearGradient>
<linearGradient id="paint47_linear_162_57152" x1="1.92618" y1="3.45103" x2="2.56503" y2="9.89425" gradientUnits="userSpaceOnUse">
<stop stop-color="#FF80AD"/>
<stop offset="1" stop-color="#9C0F42"/>
</linearGradient>
<linearGradient id="paint48_linear_162_57152" x1="6.25782" y1="3.20517" x2="6.25782" y2="11.0893" gradientUnits="userSpaceOnUse">
<stop stop-color="#FFE6EF"/>
<stop offset="1" stop-color="#FF80AD"/>
</linearGradient>
<linearGradient id="paint49_linear_162_57152" x1="6.25782" y1="3.19701" x2="6.25782" y2="8.41845" gradientUnits="userSpaceOnUse">
<stop stop-color="#FFE6EF"/>
<stop offset="1" stop-color="#FF80AD"/>
</linearGradient>
</defs>
</svg>
