<svg width="20" height="20" viewBox="0 0 20 20" fill="none" xmlns="http://www.w3.org/2000/svg">
<path d="M5.33334 15.8333H6.66667C6.90278 15.8333 7.10084 15.9133 7.26084 16.0733C7.42084 16.2333 7.50056 16.4311 7.5 16.6667C7.5 16.9028 7.42 17.1008 7.26 17.2608C7.1 17.4208 6.90223 17.5006 6.66667 17.5H3.33334C3.09723 17.5 2.89917 17.42 2.73917 17.26C2.57917 17.1 2.49945 16.9022 2.5 16.6667V13.3333C2.5 13.0972 2.58 12.8992 2.74 12.7392C2.9 12.5792 3.09778 12.4994 3.33334 12.5C3.56945 12.5 3.7675 12.58 3.9275 12.74C4.0875 12.9 4.16723 13.0978 4.16667 13.3333V14.6667L6.16667 12.6667C6.31945 12.5139 6.51389 12.4375 6.75 12.4375C6.98611 12.4375 7.18056 12.5139 7.33334 12.6667C7.48611 12.8194 7.5625 13.0139 7.5625 13.25C7.5625 13.4861 7.48611 13.6806 7.33334 13.8333L5.33334 15.8333ZM15.8333 5.33334L13.8333 7.33334C13.6806 7.48611 13.4861 7.5625 13.25 7.5625C13.0139 7.5625 12.8194 7.48611 12.6667 7.33334C12.5139 7.18056 12.4375 6.98611 12.4375 6.75C12.4375 6.51389 12.5139 6.31945 12.6667 6.16667L14.6667 4.16667H13.3333C13.0972 4.16667 12.8992 4.08667 12.7392 3.92667C12.5792 3.76667 12.4994 3.56889 12.5 3.33334C12.5 3.09723 12.58 2.89917 12.74 2.73917C12.9 2.57917 13.0978 2.49945 13.3333 2.5H16.6667C16.9028 2.5 17.1008 2.58 17.2608 2.74C17.4208 2.9 17.5006 3.09778 17.5 3.33334V6.66667C17.5 6.90278 17.42 7.10084 17.26 7.26084C17.1 7.42084 16.9022 7.50056 16.6667 7.5C16.4306 7.5 16.2325 7.42 16.0725 7.26C15.9125 7.1 15.8328 6.90223 15.8333 6.66667V5.33334Z" fill="white"/>
</svg>
