<svg width="26" height="19" viewBox="0 0 26 19" fill="none" xmlns="http://www.w3.org/2000/svg">
<g opacity="0.9">
<path d="M21.3523 0.263763L22.6274 4.39694H25.9965L21.3523 0.263763Z" fill="url(#paint0_linear_3661_27369)"/>
<path d="M21.3523 0.263763L22.6274 4.39694H23.4851L21.3523 0.263763Z" fill="url(#paint1_linear_3661_27369)"/>
<path d="M22.6256 4.39523L18.0748 13.0921L26 4.39523H22.6256Z" fill="url(#paint2_linear_3661_27369)"/>
<path opacity="0.3" d="M22.6256 4.39523L18.0748 13.0921L23.4833 4.39523H22.6256Z" fill="url(#paint3_linear_3661_27369)"/>
<path opacity="0.3" d="M23.6084 7.01636L25.9947 4.39523H22.6239L22.0497 5.49225L23.6084 7.01636Z" fill="url(#paint4_linear_3661_27369)"/>
<path opacity="0.3" d="M20.6091 8.24426L18.073 13.0921L21.5953 9.21556L20.6091 8.24426Z" fill="url(#paint5_linear_3661_27369)"/>
<path d="M22.6256 4.39523L14.7286 13.5709L13.0009 18.25L18.0765 13.0921L22.6256 4.39523Z" fill="url(#paint6_linear_3661_27369)"/>
<path opacity="0.3" d="M22.6256 4.39523L14.7268 13.5709L18.9377 11.444L22.6256 4.39523Z" fill="url(#paint7_linear_3661_27369)"/>
<path opacity="0.3" d="M15.2622 12.9475L14.7339 13.5692L13.0062 18.2483L16.8437 14.3493C16.2017 14.0233 15.6568 13.5404 15.2622 12.9475V12.9475Z" fill="url(#paint8_linear_3661_27369)"/>
<path opacity="0.3" d="M20.9912 7.52095L22.6256 4.39523L20.2709 7.13174C20.5238 7.23751 20.7651 7.3679 20.9912 7.52095Z" fill="url(#paint9_linear_3661_27369)"/>
<path d="M14.7268 13.5692L18.073 4.39352H22.6238L14.7268 13.5692Z" fill="url(#paint10_linear_3661_27369)"/>
<path opacity="0.3" d="M14.7268 13.5692L18.073 4.39352H19.4291L14.7268 13.5692Z" fill="url(#paint11_linear_3661_27369)"/>
<path opacity="0.3" d="M20.6655 4.39523V6.68054L22.6327 4.39523H20.6655Z" fill="url(#paint12_linear_3661_27369)"/>
<path opacity="0.3" d="M17.6539 5.55942L14.7321 13.5692L17.6539 10.1748V5.55942Z" fill="url(#paint13_linear_3661_27369)"/>
<path d="M18.0748 4.39524L16.7997 0.262054L22.6256 4.39524H18.0748Z" fill="url(#paint14_linear_3661_27369)"/>
<path d="M19.9222 2.47675C19.5442 3.27872 18.924 3.94824 18.1452 4.39523H22.6256L19.9222 2.47675Z" fill="url(#paint15_linear_3661_27369)"/>
<path d="M16.7997 0.263763H21.3505L22.6256 4.39694L16.7997 0.263763Z" fill="url(#paint16_linear_3661_27369)"/>
<path opacity="0.3" d="M16.7997 0.263763H17.8106L22.6238 4.39694L16.7997 0.263763Z" fill="url(#paint17_linear_3661_27369)"/>
<path d="M16.8014 0.263763L13.0009 4.39694H18.0765L16.8014 0.263763Z" fill="url(#paint18_linear_3661_27369)"/>
<path d="M13.0009 4.39524V0.262054H16.8014L13.0009 4.39524Z" fill="url(#paint19_linear_3661_27369)"/>
<path opacity="0.3" d="M13.0009 4.39524L15.5387 0.262054H16.8014L13.0009 4.39524Z" fill="url(#paint20_linear_3661_27369)"/>
<path d="M13.0009 4.39523L14.7286 13.5709L18.0748 4.39523H13.0009Z" fill="url(#paint21_linear_3661_27369)"/>
<path opacity="0.3" d="M16.7733 4.39523L14.7198 13.5709L18.066 4.39523H16.7733Z" fill="url(#paint22_linear_3661_27369)"/>
<path opacity="0.3" d="M17.0797 7.12485L18.0765 4.39523H14.2883L17.0797 7.12485Z" fill="url(#paint23_linear_3661_27369)"/>
<path d="M13.0009 4.39523V18.25L14.7286 13.5709L13.0009 4.39523Z" fill="url(#paint24_linear_3661_27369)"/>
<path d="M4.64949 0.263763L3.37441 4.39694H0.00531006L4.64949 0.263763Z" fill="url(#paint25_linear_3661_27369)"/>
<path d="M4.64769 0.263763L3.37261 4.39694H2.82489L4.64769 0.263763Z" fill="url(#paint26_linear_3661_27369)"/>
<path d="M3.37438 4.39523L7.92522 13.0921L0 4.39523H3.37438Z" fill="url(#paint27_linear_3661_27369)"/>
<path d="M3.37261 4.39523L7.92169 13.0921L2.82489 4.39523H3.37261Z" fill="url(#paint28_linear_3661_27369)"/>
<path opacity="0.2" d="M5.03165 7.564C4.6766 7.96115 4.24592 8.28695 3.76361 8.52324L7.92523 13.0921L5.03165 7.564Z" fill="url(#paint29_linear_3661_27369)"/>
<path d="M3.37439 4.39523L11.2732 13.5709L13.0009 18.25L7.92523 13.0921L3.37439 4.39523Z" fill="url(#paint30_linear_3661_27369)"/>
<path d="M3.37439 4.39523L11.2732 13.5709L13.0009 18.25L10.4631 14.1306L3.37439 4.39523Z" fill="url(#paint31_linear_3661_27369)"/>
<path opacity="0.3" d="M11.2732 13.5709C11.24 14.4376 11.125 15.2995 10.9297 16.1455L13.0009 18.25L11.2732 13.5709Z" fill="#000080"/>
<path d="M11.2714 13.5692L7.92523 4.39352H3.37439L11.2714 13.5692Z" fill="url(#paint32_linear_3661_27369)"/>
<path opacity="0.3" d="M11.2714 13.5692L7.9252 4.39352H6.75403L11.2714 13.5692Z" fill="url(#paint33_linear_3661_27369)"/>
<path opacity="0.5" d="M7.42683 4.39523H3.37616L5.2289 6.54621L7.42683 4.39523Z" fill="url(#paint34_linear_3661_27369)"/>
<path opacity="0.5" d="M8.81287 10.7207L11.2785 13.5778L9.86956 9.69949L8.81287 10.7207Z" fill="url(#paint35_linear_3661_27369)"/>
<path d="M7.92523 4.39524L9.20031 0.262054L3.37439 4.39524H7.92523Z" fill="url(#paint36_linear_3661_27369)"/>
<path d="M9.19854 0.263763H4.64947L3.37439 4.39694L9.19854 0.263763Z" fill="url(#paint37_linear_3661_27369)"/>
<path opacity="0.3" d="M9.19854 0.263763H8.18587L3.37262 4.39694L9.19854 0.263763Z" fill="url(#paint38_linear_3661_27369)"/>
<path opacity="0.3" d="M4.49096 0.77182L3.37262 4.38835L6.75052 1.99283C5.86805 1.87539 5.06222 1.43995 4.49096 0.77182Z" fill="url(#paint39_linear_3661_27369)"/>
<path d="M9.19854 0.263763L12.9991 4.39694H7.92346L9.19854 0.263763Z" fill="url(#paint40_linear_3661_27369)"/>
<path opacity="0.3" d="M12.9991 4.39523L11.6853 2.96756L10.2253 4.39523H12.9991Z" fill="url(#paint41_linear_3661_27369)"/>
<path opacity="0.3" d="M10.3028 1.45551L9.19855 0.25L8.19116 3.5221L10.3028 1.45551Z" fill="url(#paint42_linear_3661_27369)"/>
<path d="M12.9991 4.39524V0.262054H9.19855L12.9991 4.39524Z" fill="url(#paint43_linear_3661_27369)"/>
<path opacity="0.3" d="M12.9991 4.39524V0.262054H12.3686L12.9991 4.39524Z" fill="url(#paint44_linear_3661_27369)"/>
<path d="M12.9991 4.39523L11.2714 13.5709L7.92523 4.39523H12.9991Z" fill="url(#paint45_linear_3661_27369)"/>
<path opacity="0.3" d="M12.9991 4.39523L11.2714 13.5709L11.9653 4.39523H12.9991Z" fill="url(#paint46_linear_3661_27369)"/>
<path opacity="0.3" d="M11.0442 4.72589C11.1616 4.61108 11.279 4.50086 11.3965 4.39523H7.91992L9.05059 7.49512C9.54709 6.46667 10.2216 5.52982 11.0442 4.72589Z" fill="url(#paint47_linear_3661_27369)"/>
<path d="M12.9991 4.39523V18.25L11.2714 13.5709L12.9991 4.39523Z" fill="url(#paint48_linear_3661_27369)"/>
<path d="M12.9991 4.39523V8.44919L11.2714 13.5709L12.9991 4.39523Z" fill="url(#paint49_linear_3661_27369)"/>
</g>
<defs>
<linearGradient id="paint0_linear_3661_27369" x1="18.4511" y1="1.16619" x2="20.9804" y2="6.50102" gradientUnits="userSpaceOnUse">
<stop stop-color="#1877F2"/>
<stop offset="1" stop-color="#AEC1FF"/>
</linearGradient>
<linearGradient id="paint1_linear_3661_27369" x1="15.0876" y1="9.479" x2="24.4382" y2="10.357" gradientUnits="userSpaceOnUse">
<stop stop-color="#1877F2"/>
<stop offset="1" stop-color="#C2CEE2"/>
</linearGradient>
<linearGradient id="paint2_linear_3661_27369" x1="18.0748" y1="13.0921" x2="26" y2="13.0921" gradientUnits="userSpaceOnUse">
<stop stop-color="#1877F2"/>
<stop offset="1" stop-color="#98AEF8"/>
</linearGradient>
<linearGradient id="paint3_linear_3661_27369" x1="18.0748" y1="13.0921" x2="23.4833" y2="13.0921" gradientUnits="userSpaceOnUse">
<stop stop-color="#1877F2"/>
<stop offset="1" stop-color="#98AEF8"/>
</linearGradient>
<linearGradient id="paint4_linear_3661_27369" x1="18.0732" y1="8.33741" x2="25.9947" y2="8.33741" gradientUnits="userSpaceOnUse">
<stop stop-color="#A1B4D2"/>
<stop offset="1" stop-color="#E6EBF3"/>
</linearGradient>
<linearGradient id="paint5_linear_3661_27369" x1="18.073" y1="16.1075" x2="25.9771" y2="16.1075" gradientUnits="userSpaceOnUse">
<stop stop-color="#1877F2"/>
<stop offset="1" stop-color="#FF80AD"/>
</linearGradient>
<linearGradient id="paint6_linear_3661_27369" x1="23.436" y1="-10.5176" x2="0.570731" y2="-3.24648" gradientUnits="userSpaceOnUse">
<stop stop-color="#1877F2"/>
<stop offset="1" stop-color="#386298"/>
</linearGradient>
<linearGradient id="paint7_linear_3661_27369" x1="19.8988" y1="-1.22739" x2="9.01986" y2="6.92408" gradientUnits="userSpaceOnUse">
<stop stop-color="#1877F2"/>
<stop offset="1" stop-color="#1877F2"/>
</linearGradient>
<linearGradient id="paint8_linear_3661_27369" x1="25.0633" y1="-8.84519" x2="3.7529" y2="-0.856965" gradientUnits="userSpaceOnUse">
<stop stop-color="#000080"/>
<stop offset="1" stop-color="#1877F2"/>
</linearGradient>
<linearGradient id="paint9_linear_3661_27369" x1="18.4474" y1="-7.26837" x2="-1.43852" y2="1.47641" gradientUnits="userSpaceOnUse">
<stop stop-color="#80ABFF"/>
<stop offset="1" stop-color="#E6B7C8"/>
</linearGradient>
<linearGradient id="paint10_linear_3661_27369" x1="17.1707" y1="17.9938" x2="25.8648" y2="10.3108" gradientUnits="userSpaceOnUse">
<stop stop-color="#D9D9D9"/>
<stop offset="1" stop-color="#C2CEE2"/>
</linearGradient>
<linearGradient id="paint11_linear_3661_27369" x1="6.6432" y1="31.0779" x2="25.6999" y2="28.9593" gradientUnits="userSpaceOnUse">
<stop stop-color="#4053FF"/>
<stop offset="1" stop-color="#294A8A"/>
</linearGradient>
<linearGradient id="paint12_linear_3661_27369" x1="17.3234" y1="18.5411" x2="26.0162" y2="10.8626" gradientUnits="userSpaceOnUse">
<stop stop-color="#1877F2"/>
<stop offset="1" stop-color="#1877F2"/>
</linearGradient>
<linearGradient id="paint13_linear_3661_27369" x1="3.7323" y1="70.8843" x2="45.932" y2="69.6822" gradientUnits="userSpaceOnUse">
<stop stop-color="#1877F2"/>
<stop offset="1" stop-color="#1840CD"/>
</linearGradient>
<linearGradient id="paint14_linear_3661_27369" x1="26.8258" y1="5.88303" x2="23.8477" y2="-2.63126" gradientUnits="userSpaceOnUse">
<stop stop-color="#1877F2"/>
<stop offset="1" stop-color="#AEC1FF"/>
</linearGradient>
<linearGradient id="paint15_linear_3661_27369" x1="46.064" y1="11.3963" x2="45.0746" y2="-9.90682" gradientUnits="userSpaceOnUse">
<stop stop-color="#1877F2"/>
<stop offset="1" stop-color="#9C0F42"/>
</linearGradient>
<linearGradient id="paint16_linear_3661_27369" x1="22.4858" y1="4.24815" x2="22.4858" y2="0.313362" gradientUnits="userSpaceOnUse">
<stop stop-color="#AEC1FF"/>
<stop offset="1" stop-color="#7B95BF"/>
</linearGradient>
<linearGradient id="paint17_linear_3661_27369" x1="22.4841" y1="4.24815" x2="22.4841" y2="0.313362" gradientUnits="userSpaceOnUse">
<stop stop-color="#AEC1FF"/>
<stop offset="1" stop-color="#7B95BF"/>
</linearGradient>
<linearGradient id="paint18_linear_3661_27369" x1="18.0074" y1="8.27968" x2="20.6861" y2="2.14422" gradientUnits="userSpaceOnUse">
<stop stop-color="#493DA9"/>
<stop offset="0.528286" stop-color="#493DA9"/>
<stop offset="1" stop-color="#493DA9"/>
</linearGradient>
<linearGradient id="paint19_linear_3661_27369" x1="16.7102" y1="4.24644" x2="16.7102" y2="0.311653" gradientUnits="userSpaceOnUse">
<stop stop-color="#AEC1FF"/>
<stop offset="1" stop-color="#7B95BF"/>
</linearGradient>
<linearGradient id="paint20_linear_3661_27369" x1="16.7102" y1="4.24644" x2="16.7102" y2="0.311653" gradientUnits="userSpaceOnUse">
<stop stop-color="#AEC1FF"/>
<stop offset="1" stop-color="#7B95BF"/>
</linearGradient>
<linearGradient id="paint21_linear_3661_27369" x1="13.0186" y1="4.39523" x2="13.0186" y2="13.5067" gradientUnits="userSpaceOnUse">
<stop stop-color="#084493"/>
<stop offset="1" stop-color="#6767CA"/>
</linearGradient>
<linearGradient id="paint22_linear_3661_27369" x1="14.7315" y1="4.39523" x2="14.7315" y2="13.5067" gradientUnits="userSpaceOnUse">
<stop stop-color="#084493"/>
<stop offset="1" stop-color="#6767CA"/>
</linearGradient>
<linearGradient id="paint23_linear_3661_27369" x1="9.86169" y1="4.39523" x2="9.86169" y2="13.504" gradientUnits="userSpaceOnUse">
<stop stop-color="#1877F2"/>
<stop offset="1" stop-color="#1877F2"/>
</linearGradient>
<linearGradient id="paint24_linear_3661_27369" x1="14.7347" y1="18.1669" x2="14.7347" y2="4.47836" gradientUnits="userSpaceOnUse">
<stop stop-color="#1877F2"/>
<stop offset="1" stop-color="#1877F2"/>
</linearGradient>
<linearGradient id="paint25_linear_3661_27369" x1="0.00531006" y1="4.39694" x2="4.64949" y2="4.39694" gradientUnits="userSpaceOnUse">
<stop stop-color="#DADADA"/>
<stop offset="1" stop-color="#1877F2"/>
</linearGradient>
<linearGradient id="paint26_linear_3661_27369" x1="2.82489" y1="4.39694" x2="4.64769" y2="4.39694" gradientUnits="userSpaceOnUse">
<stop stop-color="#1C3A61"/>
<stop offset="1" stop-color="#1877F2"/>
</linearGradient>
<linearGradient id="paint27_linear_3661_27369" x1="0" y1="13.0921" x2="7.92522" y2="13.0921" gradientUnits="userSpaceOnUse">
<stop stop-color="#A1B4D2"/>
<stop offset="1" stop-color="#7B95BF"/>
</linearGradient>
<linearGradient id="paint28_linear_3661_27369" x1="2.82489" y1="13.0921" x2="7.92169" y2="13.0921" gradientUnits="userSpaceOnUse">
<stop stop-color="#A1B4D2"/>
<stop offset="1" stop-color="#7B95BF"/>
</linearGradient>
<linearGradient id="paint29_linear_3661_27369" x1="0.00566775" y1="15.5881" x2="7.92523" y2="15.5881" gradientUnits="userSpaceOnUse">
<stop stop-color="#7B95BF"/>
<stop offset="1" stop-color="#1877F2"/>
</linearGradient>
<linearGradient id="paint30_linear_3661_27369" x1="-7.46629" y1="19.5357" x2="15.885" y2="26.9373" gradientUnits="userSpaceOnUse">
<stop stop-color="#FFE6EF"/>
<stop offset="1" stop-color="#12D3CF"/>
</linearGradient>
<linearGradient id="paint31_linear_3661_27369" x1="-6.40275" y1="19.2032" x2="16.9485" y2="26.6048" gradientUnits="userSpaceOnUse">
<stop stop-color="#1877F2"/>
<stop offset="1" stop-color="#98AEF8"/>
</linearGradient>
<linearGradient id="paint32_linear_3661_27369" x1="16.171" y1="9.16129" x2="7.71625" y2="1.50527" gradientUnits="userSpaceOnUse">
<stop stop-color="#57BAE5"/>
<stop offset="1" stop-color="#4589D7"/>
</linearGradient>
<linearGradient id="paint33_linear_3661_27369" x1="23.2262" y1="-6.60958" x2="3.44686" y2="-8.52999" gradientUnits="userSpaceOnUse">
<stop stop-color="#1877F2"/>
<stop offset="1" stop-color="#FF4084"/>
</linearGradient>
<linearGradient id="paint34_linear_3661_27369" x1="39.1843" y1="31.3561" x2="37.7183" y2="0.900448" gradientUnits="userSpaceOnUse">
<stop stop-color="#000080"/>
<stop offset="1" stop-color="#1877F2"/>
</linearGradient>
<linearGradient id="paint35_linear_3661_27369" x1="15.6601" y1="2.72724" x2="0.908095" y2="-1.24201" gradientUnits="userSpaceOnUse">
<stop stop-color="#9E26BC"/>
<stop offset="1" stop-color="#1877F2"/>
</linearGradient>
<linearGradient id="paint36_linear_3661_27369" x1="9.33435" y1="10.217" x2="12.4131" y2="1.96377" gradientUnits="userSpaceOnUse">
<stop stop-color="#000080"/>
<stop offset="1" stop-color="#00CDB3"/>
</linearGradient>
<linearGradient id="paint37_linear_3661_27369" x1="9.05876" y1="4.24815" x2="9.05876" y2="0.313362" gradientUnits="userSpaceOnUse">
<stop stop-color="#AEC1FF"/>
<stop offset="1" stop-color="#7B95BF"/>
</linearGradient>
<linearGradient id="paint38_linear_3661_27369" x1="9.05871" y1="4.24815" x2="9.05871" y2="0.313362" gradientUnits="userSpaceOnUse">
<stop stop-color="#AEC1FF"/>
<stop offset="1" stop-color="#7B95BF"/>
</linearGradient>
<linearGradient id="paint39_linear_3661_27369" x1="6.89408" y1="4.24007" x2="6.89408" y2="0.316137" gradientUnits="userSpaceOnUse">
<stop stop-color="#000080"/>
<stop offset="1" stop-color="#1877F2"/>
</linearGradient>
<linearGradient id="paint40_linear_3661_27369" x1="8.66167" y1="1.13667" x2="6.67681" y2="5.53183" gradientUnits="userSpaceOnUse">
<stop stop-color="#1877F2"/>
<stop offset="1" stop-color="#000080"/>
</linearGradient>
<linearGradient id="paint41_linear_3661_27369" x1="5.70479" y1="2.34274" x2="4.61531" y2="10.9567" gradientUnits="userSpaceOnUse">
<stop stop-color="#1877F2"/>
<stop offset="1" stop-color="#FF4084"/>
</linearGradient>
<linearGradient id="paint42_linear_3661_27369" x1="9.47373" y1="-4.46106" x2="2.27842" y2="-3.2434" gradientUnits="userSpaceOnUse">
<stop stop-color="#7B95BF"/>
<stop offset="1" stop-color="#1877F2"/>
</linearGradient>
<linearGradient id="paint43_linear_3661_27369" x1="12.8946" y1="4.12245" x2="12.8946" y2="0.21659" gradientUnits="userSpaceOnUse">
<stop stop-color="#AEC1FF"/>
<stop offset="1" stop-color="#AEC1FF"/>
</linearGradient>
<linearGradient id="paint44_linear_3661_27369" x1="13.516" y1="4.12245" x2="13.516" y2="0.21659" gradientUnits="userSpaceOnUse">
<stop stop-color="#AEC1FF"/>
<stop offset="1" stop-color="#AEC1FF"/>
</linearGradient>
<linearGradient id="paint45_linear_3661_27369" x1="7.93244" y1="8.54563" x2="15.3298" y2="13.1464" gradientUnits="userSpaceOnUse">
<stop stop-color="#A1B4D2"/>
<stop offset="1" stop-color="#3971CD"/>
</linearGradient>
<linearGradient id="paint46_linear_3661_27369" x1="-5.94693" y1="98.7277" x2="30.1738" y2="99.0485" gradientUnits="userSpaceOnUse">
<stop stop-color="#C2CEE2"/>
<stop offset="1" stop-color="#A1B4D2"/>
</linearGradient>
<linearGradient id="paint47_linear_3661_27369" x1="3.46934" y1="4.86021" x2="4.52209" y2="15.9657" gradientUnits="userSpaceOnUse">
<stop stop-color="#2B3951"/>
<stop offset="1" stop-color="#0A54B4"/>
</linearGradient>
<linearGradient id="paint48_linear_3661_27369" x1="11.2723" y1="4.4368" x2="11.2723" y2="18.0145" gradientUnits="userSpaceOnUse">
<stop stop-color="#7B95BF"/>
<stop offset="1" stop-color="#011C3F"/>
</linearGradient>
<linearGradient id="paint49_linear_3661_27369" x1="11.2723" y1="4.42276" x2="11.2723" y2="13.4149" gradientUnits="userSpaceOnUse">
<stop stop-color="#000080"/>
<stop offset="1" stop-color="#4589D7"/>
</linearGradient>
</defs>
</svg>
