<svg width="22" height="24" viewBox="0 0 22 24" fill="none" xmlns="http://www.w3.org/2000/svg">
<path d="M7.96575 3.85742L8.70289 1.95456C8.82721 1.63239 9.04593 1.35527 9.33041 1.1595C9.61488 0.963731 9.95185 0.858442 10.2972 0.857422H11.7029C12.0482 0.858442 12.3852 0.963731 12.6697 1.1595C12.9541 1.35527 13.1729 1.63239 13.2972 1.95456L14.0343 3.85742L16.5372 5.29742L18.56 4.98885C18.8969 4.94313 19.2397 4.99858 19.5449 5.14815C19.8502 5.29772 20.1041 5.53465 20.2743 5.82885L20.96 7.02885C21.1357 7.32773 21.2167 7.67287 21.1922 8.01871C21.1677 8.36456 21.039 8.69485 20.8229 8.96599L19.5715 10.5603V13.4403L20.8572 15.0346C21.0732 15.3057 21.202 15.636 21.2265 15.9818C21.251 16.3277 21.17 16.6728 20.9943 16.9717L20.3086 18.1717C20.1383 18.4659 19.8845 18.7028 19.5792 18.8524C19.274 19.002 18.9312 19.0574 18.5943 19.0117L16.5715 18.7031L14.0686 20.1431L13.3315 22.046C13.2071 22.3682 12.9884 22.6453 12.704 22.8411C12.4195 23.0368 12.0825 23.1421 11.7372 23.1431H10.2972C9.95185 23.1421 9.61488 23.0368 9.33041 22.8411C9.04593 22.6453 8.82721 22.3682 8.70289 22.046L7.96575 20.1431L5.46289 18.7031L3.44004 19.0117C3.10321 19.0574 2.76039 19.002 2.45515 18.8524C2.14991 18.7028 1.89602 18.4659 1.72575 18.1717L1.04004 16.9717C0.864325 16.6728 0.783369 16.3277 0.807854 15.9818C0.832338 15.636 0.961112 15.3057 1.17718 15.0346L2.42861 13.4403V10.5603L1.14289 8.96599C0.926826 8.69485 0.798053 8.36456 0.773568 8.01871C0.749084 7.67287 0.830039 7.32773 1.00575 7.02885L1.69147 5.82885C1.86173 5.53465 2.11562 5.29772 2.42086 5.14815C2.72611 4.99858 3.06892 4.94313 3.40575 4.98885L5.42861 5.29742L7.96575 3.85742ZM7.57147 12.0003C7.57147 12.6784 7.77255 13.3413 8.14928 13.9051C8.52602 14.4689 9.06149 14.9084 9.68798 15.1679C10.3145 15.4274 11.0038 15.4953 11.6689 15.363C12.334 15.2307 12.9449 14.9041 13.4244 14.4246C13.9039 13.9452 14.2304 13.3342 14.3627 12.6692C14.495 12.0041 14.4271 11.3147 14.1676 10.6882C13.9081 10.0617 13.4687 9.52626 12.9048 9.14953C12.341 8.77279 11.6781 8.57171 11 8.57171C10.0907 8.57171 9.21865 8.93293 8.57567 9.57591C7.93269 10.2189 7.57147 11.091 7.57147 12.0003Z" stroke="#2C50ED" stroke-linecap="round" stroke-linejoin="round"/>
</svg>
