<svg width="17" height="17" viewBox="0 0 17 17" fill="none" xmlns="http://www.w3.org/2000/svg">
<path d="M11.9006 0.347459L3.98876 2.97596C-1.32959 4.75459 -1.32959 7.6547 3.98876 9.42456L6.33689 10.2044L7.11668 12.5525C8.88654 17.8708 11.7954 17.8708 13.5653 12.5525L16.2025 4.64945C17.3766 1.10096 15.449 -0.835368 11.9006 0.347459ZM12.1809 5.06124L8.85149 8.40821C8.72007 8.53963 8.55359 8.60097 8.38712 8.60097C8.22065 8.60097 8.05418 8.53963 7.92275 8.40821C7.66866 8.15412 7.66866 7.73356 7.92275 7.47947L11.2522 4.13251C11.5063 3.87842 11.9268 3.87842 12.1809 4.13251C12.435 4.3866 12.435 4.80716 12.1809 5.06124Z" fill="#2C50ED"/>
</svg>
