<svg width="38" height="37" viewBox="0 0 38 37" fill="none" xmlns="http://www.w3.org/2000/svg">
<g filter="url(#filter0_d_1414_36227)">
<path d="M10.0383 4.51343C7.58667 4.55843 6.175 4.76509 5.22167 5.72176C4 6.94176 4 8.90509 4 12.8334V21.1668C4 25.0951 4 27.0601 5.22 28.2801C6.175 29.2351 7.58667 29.4434 10.0383 29.4884C9.83333 27.9584 9.83333 26.0484 9.83333 23.8318V10.1701C9.83333 7.95343 9.83333 6.04176 10.0383 4.51343Z" fill="#2C50ED"/>
<path fill-rule="evenodd" clip-rule="evenodd" d="M13.7983 1.79837C12.3333 3.26171 12.3333 5.62004 12.3333 10.3334V23.6667C12.3333 28.38 12.3333 30.7384 13.7983 32.2017C15.2616 33.6667 17.6199 33.6667 22.3333 33.6667H23.9999C28.7133 33.6667 31.0716 33.6667 32.5349 32.2017C33.9999 30.7384 33.9999 28.38 33.9999 23.6667V10.3334C33.9999 5.62004 33.9999 3.26171 32.5349 1.79837C31.0716 0.333374 28.7133 0.333374 23.9999 0.333374H22.3333C17.6199 0.333374 15.2616 0.333374 13.7983 1.79837ZM24.0499 9.44837C23.8155 9.21429 23.4978 9.08281 23.1666 9.08281C22.8353 9.08281 22.5176 9.21429 22.2833 9.44837L18.1166 13.615C17.9971 13.7303 17.9019 13.8682 17.8363 14.0207C17.7707 14.1731 17.7361 14.3371 17.7346 14.5031C17.7331 14.6691 17.7646 14.8337 17.8274 14.9873C17.8902 15.141 17.9829 15.2806 18.1003 15.398C18.2176 15.5154 18.3571 15.6083 18.5107 15.6712C18.6643 15.7342 18.8289 15.7659 18.9948 15.7645C19.1608 15.7631 19.3248 15.7287 19.4774 15.6633C19.6299 15.5979 19.7679 15.5027 19.8833 15.3834L21.9166 13.35V23.6667C21.9166 23.9982 22.0483 24.3162 22.2827 24.5506C22.5171 24.785 22.8351 24.9167 23.1666 24.9167C23.4981 24.9167 23.816 24.785 24.0505 24.5506C24.2849 24.3162 24.4166 23.9982 24.4166 23.6667V13.35L26.4499 15.3834C26.5644 15.5062 26.7024 15.6047 26.8557 15.673C27.009 15.7413 27.1745 15.7781 27.3424 15.781C27.5102 15.784 27.6769 15.7531 27.8326 15.6902C27.9882 15.6274 28.1296 15.5338 28.2483 15.4151C28.367 15.2964 28.4606 15.155 28.5235 14.9994C28.5863 14.8437 28.6172 14.677 28.6142 14.5092C28.6113 14.3413 28.5745 14.1758 28.5062 14.0225C28.4379 13.8691 28.3394 13.7311 28.2166 13.6167L24.0499 9.44837Z" fill="#2C50ED"/>
</g>
<defs>
<filter id="filter0_d_1414_36227" x="0" y="0.333374" width="38" height="41.3334" filterUnits="userSpaceOnUse" color-interpolation-filters="sRGB">
<feFlood flood-opacity="0" result="BackgroundImageFix"/>
<feColorMatrix in="SourceAlpha" type="matrix" values="0 0 0 0 0 0 0 0 0 0 0 0 0 0 0 0 0 0 127 0" result="hardAlpha"/>
<feOffset dy="4"/>
<feGaussianBlur stdDeviation="2"/>
<feComposite in2="hardAlpha" operator="out"/>
<feColorMatrix type="matrix" values="0 0 0 0 0 0 0 0 0 0 0 0 0 0 0 0 0 0 0.25 0"/>
<feBlend mode="normal" in2="BackgroundImageFix" result="effect1_dropShadow_1414_36227"/>
<feBlend mode="normal" in="SourceGraphic" in2="effect1_dropShadow_1414_36227" result="shape"/>
</filter>
</defs>
</svg>
