<svg width="22" height="20" viewBox="0 0 22 20" fill="none" xmlns="http://www.w3.org/2000/svg">
<path d="M10.22 0.0119031C10.3065 0.0119031 10.3877 -0.00429833 10.4715 0.00110214C10.7106 0.00537646 10.9485 0.0296225 11.1816 0.0734684C11.8485 0.210754 12.4697 0.469059 13.0001 0.829533C13.5241 1.19784 14.3102 0.873817 14.9194 1.18164C15.7438 1.626 16.3079 2.33231 16.4771 3.13229C16.8168 4.27454 16.8436 5.4648 16.5557 6.61667C16.5016 6.75672 16.497 6.9066 16.5426 7.04871C17.0138 8.09547 16.7073 9.27246 15.7565 10.0676C15.4949 10.2955 15.298 10.5685 15.1801 10.8668C14.9379 11.4513 14.5946 12.0039 14.1608 12.5075C13.4285 13.4105 13.7429 14.0628 15.0425 14.2907C16.6932 14.5613 18.2696 15.0794 19.6934 15.8191C20.1548 16.0633 20.5807 16.3503 20.9629 16.6745C21.6719 17.2609 22.047 18.0672 21.9953 18.8941C22.0012 20 22 20 19.9988 20C17.9977 20 15.9965 20 13.9953 20C11.9941 20 8.99235 20 6.0984 20C3.20445 20 2.98882 20 1.48794 20C-0.0129393 20 -0.0118574 20 0.00245851 19.3315C0.0167745 18.663 0.784912 16.487 2.36065 15.8158C3.76406 15.0848 5.31825 14.5723 6.94604 14.3037C7.55911 14.2115 8.05202 13.835 8.21029 13.3381C8.33787 13.0665 8.27062 12.7588 8.03605 12.541C7.70108 12.2047 7.42906 11.829 7.22902 11.4263C6.95037 10.8379 6.56952 10.286 6.0984 9.78782C5.27249 9.03729 5.0808 7.94895 5.61366 7.03575C5.70798 6.87697 5.57959 6.74952 5.53767 6.60911C4.96946 4.85353 5.38166 2.98047 6.66174 1.50135C7.35954 0.65764 8.48132 0.118058 9.71561 0.0324248C9.79683 0.0248642 9.75884 0.022704 9.84662 0.0162234C9.92986 0.0100447 10.0136 0.0100447 10.0969 0.0162234L10.22 0.0119031Z" fill="#2C50ED"/>
</svg>
