<svg width="40" height="40" viewBox="0 0 40 40" fill="none" xmlns="http://www.w3.org/2000/svg">
<g clip-path="url(#clip0_1414_36200)">
<g filter="url(#filter0_d_1414_36200)">
<path d="M3.33325 20C3.33325 29.205 10.7949 36.6667 19.9999 36.6667C21.0799 36.6667 22.0833 36.1667 22.8466 35.4034L35.4033 22.8467C36.1666 22.0834 36.6666 21.08 36.6666 20C36.6666 10.795 29.2049 3.33337 19.9999 3.33337C10.7949 3.33337 3.33325 10.795 3.33325 20Z" stroke="#2C50ED" stroke-width="1.5"/>
<path d="M14.855 26.5568C16.6873 27.0023 18.5927 27.059 20.4483 26.7234" stroke="#2C50ED" stroke-width="1.5" stroke-linecap="round"/>
<path d="M24.8288 18.7053C25.7179 18.467 26.149 17.1928 25.7916 15.8591C25.4343 14.5254 24.4238 13.6374 23.5347 13.8756C22.6456 14.1139 22.2145 15.3882 22.5719 16.7218C22.9292 18.0555 23.9397 18.9435 24.8288 18.7053Z" fill="#2C50ED"/>
<path d="M15.1703 21.2949C16.0594 21.0566 16.4905 19.7824 16.1332 18.4487C15.7758 17.115 14.7653 16.227 13.8762 16.4652C12.9871 16.7035 12.5561 17.9778 12.9134 19.3114C13.2708 20.6451 14.2812 21.5331 15.1703 21.2949Z" fill="#2C50ED"/>
<path d="M20 36.6667C20 32.0117 20 29.6833 20.655 27.8133C21.2339 26.1591 22.178 24.6566 23.4173 23.4173C24.6566 22.178 26.1591 21.2339 27.8133 20.655C29.685 20 32.0133 20 36.6667 20" stroke="#2C50ED" stroke-width="1.5"/>
</g>
</g>
<defs>
<filter id="filter0_d_1414_36200" x="-1.41675" y="2.58337" width="42.8333" height="42.8334" filterUnits="userSpaceOnUse" color-interpolation-filters="sRGB">
<feFlood flood-opacity="0" result="BackgroundImageFix"/>
<feColorMatrix in="SourceAlpha" type="matrix" values="0 0 0 0 0 0 0 0 0 0 0 0 0 0 0 0 0 0 127 0" result="hardAlpha"/>
<feOffset dy="4"/>
<feGaussianBlur stdDeviation="2"/>
<feComposite in2="hardAlpha" operator="out"/>
<feColorMatrix type="matrix" values="0 0 0 0 0 0 0 0 0 0 0 0 0 0 0 0 0 0 0.25 0"/>
<feBlend mode="normal" in2="BackgroundImageFix" result="effect1_dropShadow_1414_36200"/>
<feBlend mode="normal" in="SourceGraphic" in2="effect1_dropShadow_1414_36200" result="shape"/>
</filter>
<clipPath id="clip0_1414_36200">
<rect width="40" height="40" fill="white"/>
</clipPath>
</defs>
</svg>
