<svg width="24" height="24" viewBox="0 0 24 24" fill="none" xmlns="http://www.w3.org/2000/svg">
<g clip-path="url(#clip0_3861_27396)">
<g filter="url(#filter0_d_3861_27396)">
<path d="M14.5559 15.548L14.1009 16.028C14.1009 16.028 13.0179 17.167 10.0629 14.056C7.10786 10.945 8.19086 9.80605 8.19086 9.80605L8.47786 9.50305C9.18386 8.75905 9.25086 7.56505 8.63386 6.69305L7.37386 4.91005C6.60986 3.83005 5.13486 3.68805 4.25986 4.60905L2.69086 6.26005C2.25786 6.71705 1.96786 7.30805 2.00286 7.96505C2.09286 9.64505 2.81086 13.258 6.81486 17.475C11.0619 21.945 15.0469 22.123 16.6759 21.962C17.1919 21.912 17.6399 21.633 18.0009 21.253L19.4209 19.757C20.3809 18.747 20.1109 17.017 18.8829 16.311L16.9729 15.211C16.1669 14.748 15.1859 14.884 14.5559 15.547V15.548Z" fill="#2C50ED"/>
</g>
<g filter="url(#filter1_d_3861_27396)">
<path d="M16.9999 12C18.0872 11.9998 19.1448 11.6452 20.0125 10.9899C20.8802 10.3345 21.5105 9.41425 21.8081 8.36843C22.1057 7.32262 22.0543 6.20831 21.6616 5.19436C21.2689 4.18041 20.5564 3.32209 19.6321 2.74949C18.7078 2.17688 17.622 1.9212 16.5392 2.02119C15.4565 2.12118 14.4359 2.57139 13.6321 3.30358C12.8282 4.03578 12.285 5.01006 12.0846 6.07878C11.8843 7.14749 12.0378 8.25238 12.5219 9.22601C12.6134 9.40279 12.6372 9.6069 12.5889 9.80001L12.2909 10.913C12.2614 11.0232 12.2614 11.1392 12.2909 11.2494C12.3205 11.3596 12.3785 11.4601 12.4591 11.5407C12.5398 11.6214 12.6403 11.6794 12.7505 11.709C12.8607 11.7385 12.9767 11.7385 13.0869 11.709L14.1999 11.411C14.393 11.3627 14.5971 11.3865 14.7739 11.478C15.4653 11.8223 16.2274 12.001 16.9999 12Z" fill="#2C50ED"/>
</g>
</g>
<defs>
<filter id="filter0_d_3861_27396" x="-2" y="4" width="26" height="25.999" filterUnits="userSpaceOnUse" color-interpolation-filters="sRGB">
<feFlood flood-opacity="0" result="BackgroundImageFix"/>
<feColorMatrix in="SourceAlpha" type="matrix" values="0 0 0 0 0 0 0 0 0 0 0 0 0 0 0 0 0 0 127 0" result="hardAlpha"/>
<feOffset dy="4"/>
<feGaussianBlur stdDeviation="2"/>
<feComposite in2="hardAlpha" operator="out"/>
<feColorMatrix type="matrix" values="0 0 0 0 0 0 0 0 0 0 0 0 0 0 0 0 0 0 0.25 0"/>
<feBlend mode="normal" in2="BackgroundImageFix" result="effect1_dropShadow_3861_27396"/>
<feBlend mode="normal" in="SourceGraphic" in2="effect1_dropShadow_3861_27396" result="shape"/>
</filter>
<filter id="filter1_d_3861_27396" x="7.99902" y="2" width="18" height="18" filterUnits="userSpaceOnUse" color-interpolation-filters="sRGB">
<feFlood flood-opacity="0" result="BackgroundImageFix"/>
<feColorMatrix in="SourceAlpha" type="matrix" values="0 0 0 0 0 0 0 0 0 0 0 0 0 0 0 0 0 0 127 0" result="hardAlpha"/>
<feOffset dy="4"/>
<feGaussianBlur stdDeviation="2"/>
<feComposite in2="hardAlpha" operator="out"/>
<feColorMatrix type="matrix" values="0 0 0 0 0 0 0 0 0 0 0 0 0 0 0 0 0 0 0.25 0"/>
<feBlend mode="normal" in2="BackgroundImageFix" result="effect1_dropShadow_3861_27396"/>
<feBlend mode="normal" in="SourceGraphic" in2="effect1_dropShadow_3861_27396" result="shape"/>
</filter>
<clipPath id="clip0_3861_27396">
<rect width="24" height="24" fill="white"/>
</clipPath>
</defs>
</svg>
