<svg width="15" height="13" viewBox="0 0 15 13" fill="none" xmlns="http://www.w3.org/2000/svg">
<g opacity="0.56">
<path d="M7.36706 0.965856C7.19765 0.964302 7.03501 1.03225 6.91706 1.15386L3.59006 4.43986H0.97206C0.802802 4.43804 0.640183 4.50562 0.52206 4.62686C0.39933 4.74171 0.330405 4.90278 0.33206 5.07086V8.85986C0.330405 9.02794 0.39933 9.189 0.52206 9.30386C0.640013 9.42546 0.802654 9.49341 0.97206 9.49186H3.59006L6.91806 12.7779C7.03696 12.898 7.199 12.9657 7.36806 12.9657C7.53712 12.9657 7.69916 12.898 7.81806 12.7779C7.94079 12.663 8.00972 12.5019 8.00806 12.3339V1.59786C8.00972 1.42978 7.94079 1.26871 7.81806 1.15386C7.69987 1.032 7.53681 0.964028 7.36706 0.965856Z" fill="white"/>
<path d="M11.2821 8.37971C11.5602 7.96068 11.7081 7.46867 11.7071 6.96571C11.7077 6.46095 11.5599 5.96713 11.2821 5.54571C11.0181 5.12233 10.6236 4.79627 10.1581 4.61671C10.0797 4.58098 9.99415 4.56386 9.90807 4.56671C9.7392 4.56484 9.5768 4.6316 9.45807 4.75171C9.33364 4.86996 9.26468 5.03509 9.26807 5.20671C9.26415 5.33562 9.30674 5.46163 9.38807 5.56171C9.47029 5.66047 9.56828 5.74494 9.67807 5.81171C9.7914 5.87838 9.90474 5.95505 10.0181 6.04171C10.1407 6.1362 10.24 6.25768 10.3081 6.39671C10.4679 6.75956 10.4679 7.17286 10.3081 7.53571C10.24 7.67475 10.1407 7.79622 10.0181 7.89071C9.90474 7.97405 9.7914 8.05071 9.67807 8.12071C9.56829 8.1875 9.4703 8.27197 9.38807 8.37071C9.3069 8.47088 9.26432 8.59683 9.26807 8.72571C9.26455 8.89736 9.33353 9.06254 9.45807 9.18071C9.5768 9.30082 9.7392 9.36759 9.90807 9.36571C9.99414 9.36849 10.0797 9.35138 10.1581 9.31571C10.6223 9.13044 11.0158 8.80274 11.2821 8.37971Z" fill="white"/>
<path d="M13.377 9.74419C14.2066 8.49623 14.4351 6.94281 13.9998 5.50887C13.5646 4.07492 12.5113 2.91052 11.128 2.33419C11.0451 2.30215 10.957 2.28555 10.868 2.28519C10.6988 2.28349 10.5362 2.35105 10.418 2.47219C10.2958 2.58657 10.2269 2.7468 10.228 2.91419C10.2274 3.16902 10.3818 3.39863 10.618 3.49419C10.8809 3.62057 11.1345 3.76526 11.377 3.92719C11.8626 4.27261 12.2583 4.72936 12.531 5.25919C13.0839 6.32934 13.0839 7.60104 12.531 8.67119C12.2583 9.20101 11.8626 9.65777 11.377 10.0032C11.1345 10.1651 10.8809 10.3098 10.618 10.4362C10.3818 10.5317 10.2274 10.7614 10.228 11.0162C10.2269 11.1836 10.2958 11.3438 10.418 11.4582C10.5394 11.5808 10.7056 11.6483 10.878 11.6452C10.9636 11.6441 11.0483 11.6275 11.128 11.5962C12.0477 11.2205 12.8319 10.5748 13.377 9.74419Z" fill="white"/>
</g>
</svg>
