<svg width="14" height="14" viewBox="0 0 14 14" fill="none" xmlns="http://www.w3.org/2000/svg">
<path d="M4.66675 10.9999C3.93341 10.9999 3.34008 11.5999 3.34008 12.3333C3.34008 13.0666 3.93341 13.6666 4.66675 13.6666C5.40008 13.6666 6.00008 13.0666 6.00008 12.3333C6.00008 11.5999 5.40008 10.9999 4.66675 10.9999ZM0.666748 0.333252V1.66659H2.00008L4.40008 6.72658L3.50008 8.35992C3.39341 8.54659 3.33341 8.76658 3.33341 8.99992C3.33341 9.73325 3.93341 10.3333 4.66675 10.3333H12.6667V8.99992H4.94675C4.85341 8.99992 4.78008 8.92659 4.78008 8.83325L4.80008 8.75325L5.40008 7.66658H10.3667C10.8667 7.66658 11.3067 7.39325 11.5334 6.97992L13.9201 2.65325C13.9751 2.55151 14.0028 2.43724 14.0004 2.3216C13.998 2.20597 13.9657 2.09292 13.9066 1.99351C13.8475 1.8941 13.7636 1.81172 13.6632 1.75442C13.5627 1.69711 13.4491 1.66685 13.3334 1.66659H3.47341L2.84675 0.333252H0.666748ZM11.3334 10.9999C10.6001 10.9999 10.0067 11.5999 10.0067 12.3333C10.0067 13.0666 10.6001 13.6666 11.3334 13.6666C12.0667 13.6666 12.6667 13.0666 12.6667 12.3333C12.6667 11.5999 12.0667 10.9999 11.3334 10.9999Z" fill="white"/>
</svg>
