<svg width="11" height="12" viewBox="0 0 11 12" fill="none" xmlns="http://www.w3.org/2000/svg">
<circle cx="1.31908" cy="8.2495" r="0.333" fill="#FF4B4E"/>
<circle cx="2.86303" cy="4.38146" r="0.333" fill="#FFCA54"/>
<circle cx="7.43407" cy="3.57848" r="0.333" fill="#00CDB3"/>
<circle cx="10.2561" cy="8.24944" r="0.333" fill="#57BAE5"/>
<circle cx="4.18407" cy="1.89147" r="0.333" fill="#57BAE5"/>
<path d="M9.90503 5.94647L7.07903 5.53547L5.81603 2.97347C5.76252 2.86556 5.65248 2.7973 5.53203 2.7973C5.41159 2.7973 5.30154 2.86556 5.24803 2.97347L3.98403 5.53447L1.15803 5.94547C1.03887 5.96292 0.939896 6.04639 0.902576 6.16089C0.865257 6.2754 0.896043 6.40116 0.982034 6.48547L3.02703 8.47847L2.54403 11.2925C2.5237 11.4114 2.57263 11.5315 2.67025 11.6024C2.76787 11.6733 2.89726 11.6826 3.00403 11.6265L5.53103 10.2975C8.28103 11.7435 8.09503 11.6625 8.20603 11.6625C8.29928 11.6623 8.38773 11.6211 8.44784 11.5498C8.50795 11.4785 8.53362 11.3844 8.51803 11.2925L8.03503 8.47847L10.08 6.48547C10.1654 6.40123 10.1959 6.27603 10.1589 6.16197C10.1218 6.04791 10.0236 5.96451 9.90503 5.94647Z" fill="#FFCA54"/>
<path d="M2.48403 3.45045C2.29203 3.41345 1.96003 3.17445 2.07303 2.52945C2.11403 2.29445 2.06303 2.27445 1.78703 2.21245C1.51103 2.15045 1.10803 2.05845 1.07803 1.48645C1.07098 1.41952 1.10145 1.35415 1.15725 1.31652C1.21305 1.27888 1.28507 1.27511 1.3445 1.30672C1.40392 1.33832 1.44105 1.40015 1.44103 1.46745C1.45603 1.75245 1.59003 1.79545 1.86703 1.85845C2.11603 1.91545 2.53303 2.00945 2.43103 2.59345C2.35303 3.03545 2.55003 3.09345 2.55203 3.09345C2.61892 3.10231 2.67543 3.14746 2.69883 3.21075C2.72224 3.27404 2.70871 3.34508 2.66367 3.39534C2.61864 3.44559 2.5495 3.4668 2.48403 3.45045Z" fill="#F99830"/>
<circle cx="1.43009" cy="3.91245" r="0.236" fill="#57BAE5"/>
<circle cx="9.231" cy="8.72147" r="0.236" fill="#00CDB3"/>
<circle cx="1.64005" cy="10.1885" r="0.236" fill="#FFCA54"/>
<path d="M8.57709 3.60749C8.50627 3.53646 8.50627 3.42152 8.57709 3.35049L8.83009 3.09049C8.90102 3.02462 9.0111 3.0258 9.08061 3.09318C9.15011 3.16055 9.15472 3.27054 9.09109 3.34349L8.83809 3.60349C8.80437 3.63927 8.7576 3.65988 8.70844 3.66064C8.65927 3.66139 8.6119 3.64222 8.57709 3.60749Z" fill="#FF4B4E"/>
<path d="M3.66409 3.5075L3.32809 3.3715C3.24082 3.33034 3.20083 3.22824 3.23694 3.13877C3.27305 3.0493 3.3727 3.00355 3.46409 3.0345L3.80009 3.1705C3.88735 3.21165 3.92734 3.31375 3.89124 3.40322C3.85513 3.49269 3.75547 3.53844 3.66409 3.5075Z" fill="#FF4B4E"/>
<path d="M2.00503 9.47649L1.66903 9.34049C1.58176 9.29934 1.54177 9.19724 1.57788 9.10776C1.61399 9.01829 1.71364 8.97254 1.80503 9.00349L2.14103 9.13949C2.2283 9.18064 2.26829 9.28274 2.23218 9.37222C2.19607 9.46169 2.09642 9.50744 2.00503 9.47649Z" fill="#00CDB3"/>
<path d="M9.67007 10.0965L9.33407 9.96049C9.2468 9.91933 9.20681 9.81723 9.24292 9.72776C9.27903 9.63829 9.37868 9.59254 9.47007 9.62349L9.80607 9.75949C9.89334 9.80064 9.93332 9.90274 9.89722 9.99221C9.86111 10.0817 9.76145 10.1274 9.67007 10.0965Z" fill="#57BAE5"/>
<path d="M7.51207 0.46048C7.49032 0.36614 7.39852 0.305337 7.30318 0.322116C7.20783 0.338895 7.1423 0.427383 7.15407 0.52348C7.20407 0.80448 7.08307 0.87548 6.82607 0.99948C6.59607 1.11048 6.21107 1.29948 6.44107 1.84148C6.61607 2.25648 6.43507 2.35648 6.43507 2.35648C6.38407 2.39048 6.22307 2.44948 6.29207 2.61348C6.41107 2.89648 7.14707 2.57848 6.77507 1.69948C6.68207 1.47948 6.72707 1.44948 6.98307 1.32548C7.36091 1.22309 7.59306 0.843481 7.51207 0.46048Z" fill="#F99830"/>
<path d="M10.28 3.10847C10.1976 3.05121 10.0845 3.07133 10.027 3.15347C9.91517 3.34084 9.85257 3.55342 9.84497 3.77147C9.80597 4.11647 9.79097 4.24547 9.42997 4.22247C9.11304 4.17251 8.79022 4.2651 8.54797 4.47547C8.31597 4.71347 8.32397 5.04147 8.54297 5.04447C8.72497 5.04447 8.73697 4.85347 8.73697 4.85347C8.73697 4.85347 8.77497 4.54447 9.40697 4.58447C10.407 4.64747 10.084 3.70547 10.324 3.36047C10.3808 3.27859 10.3612 3.16626 10.28 3.10847Z" fill="#F99830"/>
<path d="M4.78701 5.17445L5.84301 3.03445L5.81601 2.97945C5.7625 2.87154 5.65246 2.80328 5.53201 2.80328C5.41156 2.80328 5.30152 2.87154 5.24801 2.97945L3.98401 5.54045L4.41201 5.46445C4.57439 5.42938 4.71222 5.32279 4.78701 5.17445Z" fill="#F99830"/>
<path d="M3.22501 11.1725L3.65501 8.66648C3.68497 8.49326 3.63745 8.31561 3.52501 8.18048L1.66501 6.36548C1.59474 6.29588 1.56098 6.19747 1.57373 6.09939C1.58648 6.00131 1.64428 5.9148 1.73001 5.86548L1.15901 5.94848C1.03985 5.96593 0.940872 6.0494 0.903553 6.1639C0.866234 6.2784 0.89702 6.40416 0.983011 6.48848L3.02801 8.48148L2.54501 11.2955C2.52468 11.4144 2.57361 11.5345 2.67122 11.6054C2.76884 11.6763 2.89823 11.6856 3.00501 11.6295L3.32601 11.4615C3.24481 11.389 3.20665 11.2798 3.22501 11.1725Z" fill="#F99830"/>
</svg>
