<svg width="34" height="25" viewBox="0 0 34 25" fill="none" xmlns="http://www.w3.org/2000/svg">
<path d="M33.1525 22.1807L31.5185 18.6346C32.4919 16.9658 33.0134 15.0537 33.0134 13.1068C33.0134 6.98796 28.0419 2.01642 21.9231 2.01642C20.1848 2.01642 18.516 2.43361 17.0559 3.1637C15.3176 1.21681 12.8144 0 9.99836 0C4.7487 0 0.507254 4.24144 0.507254 9.45634C0.507254 11.0903 0.924446 12.6896 1.72406 14.115L0.402956 17.0353C0.124828 17.6263 0.263892 18.2869 0.71585 18.7389C0.993978 19.017 1.3764 19.1908 1.75883 19.1908C1.96743 19.1908 2.17602 19.156 2.38462 19.0517L5.30496 17.7306C6.73036 18.5303 8.3296 18.9474 9.9636 18.9474C10.7632 18.9474 11.5281 18.8431 12.2929 18.6693C14.205 21.9721 17.7859 24.2319 21.8883 24.2319C23.8352 24.2319 25.7474 23.7104 27.4161 22.7369L30.9622 24.3709C31.1708 24.4752 31.4142 24.51 31.6228 24.51C32.04 24.51 32.4572 24.3362 32.7701 24.0233C33.2916 23.5366 33.4306 22.8065 33.1525 22.1807ZM9.9636 17.0353C8.50343 17.0353 7.11279 16.6181 5.89598 15.8533C5.72215 15.749 5.54832 15.7142 5.37449 15.7142C5.23543 15.7142 5.09636 15.749 4.99206 15.8185L2.59321 16.8963L3.67096 14.4974C3.81002 14.1845 3.77526 13.8716 3.60143 13.5935C2.83657 12.3072 2.41938 10.9165 2.41938 9.45634C2.41938 5.28442 5.82645 1.91213 9.9636 1.91213C12.0496 1.91213 13.9617 2.78127 15.3523 4.17191C13.1661 5.77697 11.5747 8.15301 10.94 11.3337C10.8732 11.622 10.798 12.355 10.798 13.1068C10.798 14.4279 11.0413 15.6794 11.4585 16.8615C10.9718 16.9658 10.4851 17.0353 9.9636 17.0353ZM29.5716 18.9822L31.0665 22.285L27.7638 20.79C27.4509 20.651 27.138 20.6857 26.8599 20.8596C25.3649 21.7983 23.6614 22.3197 21.8883 22.3197C16.8125 22.3197 12.7101 18.1826 12.7101 13.1415C12.7101 8.10047 16.8473 3.96332 21.8883 3.96332C26.9294 3.96332 31.0665 8.10047 31.0665 13.1415C31.0665 14.9146 30.5798 16.6181 29.6064 18.1131C29.4673 18.3217 29.4325 18.6693 29.5716 18.9822Z" fill="#7A8FA6"/>
<circle cx="16.6016" cy="13.107" r="1.7383" fill="#7A8FA6"/>
<circle cx="21.8828" cy="13.107" r="1.7383" fill="#7A8FA6"/>
<circle cx="27.211" cy="13.107" r="1.7383" fill="#7A8FA6"/>
</svg>
