<svg width="40" height="40" viewBox="0 0 40 40" fill="none" xmlns="http://www.w3.org/2000/svg">
<g clip-path="url(#clip0_1414_36239)">
<g filter="url(#filter0_d_1414_36239)">
<path d="M23.3227 2.83998C23.5281 2.95609 23.6991 3.12465 23.8181 3.32845C23.9371 3.53225 23.9999 3.76398 24 3.99998V36C24 36.2359 23.9375 36.4676 23.8188 36.6714C23.7 36.8753 23.5293 37.044 23.3241 37.1603C23.1188 37.2766 22.8864 37.3363 22.6505 37.3335C22.4146 37.3306 22.1837 37.2652 21.9813 37.144L8.96533 29.3333H4C2.93913 29.3333 1.92172 28.9119 1.17157 28.1617C0.421427 27.4116 0 26.3942 0 25.3333L0 14.6586C0.000706936 13.5982 0.422446 12.5815 1.17252 11.8319C1.92258 11.0824 2.9396 10.6613 4 10.6613H8.96533L21.9787 2.85598C22.1812 2.73452 22.4124 2.66904 22.6485 2.66623C22.8846 2.66342 23.1173 2.72338 23.3227 2.83998ZM36.944 11.0506L36 10.1093L34.1147 11.9946L35.0507 12.9333L35.0587 12.9386L35.112 12.9973C35.5133 13.488 35.8585 14.022 36.1413 14.5893C36.728 15.76 37.3333 17.5546 37.3333 19.9893C37.3333 22.424 36.7253 24.2186 36.1413 25.3893C35.9165 25.8441 35.6514 26.2778 35.3493 26.6853C35.2567 26.8077 35.1589 26.9261 35.056 27.04L35.0507 27.048L34.1147 27.9813L36 29.8693L36.944 28.928L36.9467 28.9226L36.952 28.9173L36.9653 28.904L37.0027 28.8666L37.1173 28.7386C37.2107 28.632 37.336 28.48 37.4827 28.2853C37.776 27.896 38.152 27.3253 38.5253 26.5813C39.272 25.088 40 22.8853 40 19.9893C40 17.0933 39.2747 14.8933 38.5253 13.3973C38.2302 12.7994 37.8821 12.2291 37.4853 11.6933C37.334 11.4927 37.1729 11.2995 37.0027 11.1146L36.9653 11.0746L36.952 11.0613L36.9467 11.056C36.9467 11.0533 36.9413 11.0506 36 11.9946L36.944 11.0506Z" fill="#2C50ED"/>
</g>
</g>
<defs>
<filter id="filter0_d_1414_36239" x="-4" y="2.66614" width="48" height="42.6675" filterUnits="userSpaceOnUse" color-interpolation-filters="sRGB">
<feFlood flood-opacity="0" result="BackgroundImageFix"/>
<feColorMatrix in="SourceAlpha" type="matrix" values="0 0 0 0 0 0 0 0 0 0 0 0 0 0 0 0 0 0 127 0" result="hardAlpha"/>
<feOffset dy="4"/>
<feGaussianBlur stdDeviation="2"/>
<feComposite in2="hardAlpha" operator="out"/>
<feColorMatrix type="matrix" values="0 0 0 0 0 0 0 0 0 0 0 0 0 0 0 0 0 0 0.25 0"/>
<feBlend mode="normal" in2="BackgroundImageFix" result="effect1_dropShadow_1414_36239"/>
<feBlend mode="normal" in="SourceGraphic" in2="effect1_dropShadow_1414_36239" result="shape"/>
</filter>
<clipPath id="clip0_1414_36239">
<rect width="40" height="40" fill="white"/>
</clipPath>
</defs>
</svg>
