<svg width="19" height="14" viewBox="0 0 19 14" fill="none" xmlns="http://www.w3.org/2000/svg">
<path d="M6.48909 13.1178C6.10978 13.1182 5.74595 12.9647 5.47809 12.6913L0.420092 7.54197C0.153493 7.30992 0 6.97074 0 6.61369C0 6.25663 0.153493 5.91746 0.420092 5.6854C0.979092 5.11642 1.75909 5.52254 2.32009 6.09254L6.49209 10.4785L15.8861 0.934044C16.4451 0.365062 17.0611 0.162508 17.6201 0.730473C17.8831 0.922843 18.0391 1.23237 18.0391 1.56206C18.0391 1.89176 17.8831 2.20128 17.6201 2.39365L7.50009 12.6913C7.23217 12.9646 6.86838 13.118 6.48909 13.1178Z" fill="#F1567D"/>
</svg>
