<svg width="14" height="15" viewBox="0 0 14 15" fill="none" xmlns="http://www.w3.org/2000/svg">
<path d="M0 7.75C0 3.89453 3.11719 0.75 7 0.75C10.8555 0.75 14 3.89453 14 7.75C14 11.6328 10.8555 14.75 7 14.75C3.11719 14.75 0 11.6328 0 7.75ZM7 13.4375C10.1172 13.4375 12.6875 10.8945 12.6875 7.75C12.6875 4.63281 10.1172 2.0625 7 2.0625C3.85547 2.0625 1.3125 4.63281 1.3125 7.75C1.3125 10.8945 3.85547 13.4375 7 13.4375ZM11.2109 7.75L10.7461 6.35547C10.6094 5.91797 10.8281 5.45312 11.2656 5.26172L12.6875 4.6875L13.125 8.625L11.8398 8.32422C11.5391 8.24219 11.293 8.02344 11.2109 7.75ZM1.83203 6.49219L1.3125 5.5625L1.75 4.25L3.9375 2.0625L6.78125 1.1875L7.32812 2.19922C7.51953 2.52734 7.49219 2.91016 7.24609 3.21094L6.80859 3.70312C6.53516 4.03125 6.53516 4.49609 6.80859 4.82422L7.16406 5.26172C7.32812 5.45312 7.32812 5.69922 7.21875 5.89062C7.08203 6.08203 6.83594 6.19141 6.61719 6.10938L5.96094 5.89062C5.76953 5.83594 5.57812 5.83594 5.38672 5.94531L5.22266 6.02734C4.97656 6.13672 4.86719 6.4375 4.94922 6.68359C5.00391 6.82031 5.08594 6.92969 5.19531 6.98438L6.15234 7.53125C6.39844 7.69531 6.69922 7.75 7 7.75H8.20312C8.53125 7.75 8.88672 7.91406 9.13281 8.16016L9.21484 8.24219C9.46094 8.48828 9.625 8.84375 9.625 9.17188V9.41797C9.625 9.88281 9.35156 10.3203 8.94141 10.5391L8.69531 10.7031C8.3125 10.9219 8.01172 11.2773 7.875 11.7422L7.84766 11.8789C7.71094 12.3164 7.38281 12.6445 6.94531 12.7812C6.53516 12.8906 6.09766 12.5898 6.09766 12.1523V11.3047C6.09766 11.0039 5.93359 10.7305 5.66016 10.5938C5.41406 10.4844 5.22266 10.2109 5.22266 9.91016V8.81641C5.22266 8.32422 4.92188 7.88672 4.42969 7.75L2.87109 7.3125C2.40625 7.17578 2.05078 6.875 1.83203 6.49219Z" fill="#9E9E9E"/>
</svg>
