<svg width="32" height="32" viewBox="0 0 32 32" fill="none" xmlns="http://www.w3.org/2000/svg">
<ellipse cx="15.5756" cy="15.9446" rx="15.5756" ry="15.3826" fill="#55ACEE"/>
<path d="M25.034 11.6814C24.3619 11.9756 23.6489 12.1688 22.9188 12.2542C23.6889 11.7994 24.2652 11.0835 24.5402 10.2399C23.8165 10.6642 23.0246 10.9631 22.1988 11.1238C21.0557 9.92406 19.24 9.63074 17.7695 10.4082C16.299 11.1857 15.5394 12.8407 15.9165 14.4453C12.9516 14.299 10.1892 12.9161 8.31703 10.6409C7.33853 12.3042 7.83713 14.4322 9.45601 15.5019C8.87065 15.4841 8.29816 15.3279 7.78659 15.0463C7.78659 15.0616 7.78659 15.0777 7.78659 15.0921C7.78697 16.8254 9.02375 18.3183 10.7439 18.662C10.2011 18.8075 9.63179 18.829 9.07933 18.7247C9.5623 20.2076 10.9461 21.2237 12.5231 21.2532C10.9754 22.4478 9.01226 22.9896 7.06171 22.7605C10.2895 24.8033 14.3888 24.9433 17.7517 23.1256C21.1147 21.308 23.205 17.8225 23.2027 14.0364C23.2027 13.8757 23.2027 13.7214 23.1921 13.5655C23.9143 13.0507 24.5375 12.4127 25.0324 11.6814H25.034Z" fill="#F1F2F2"/>
</svg>
