<svg width="85" height="85" viewBox="0 0 85 85" fill="none" xmlns="http://www.w3.org/2000/svg">
<path d="M42.5 85C65.9721 85 85 65.9721 85 42.5C85 19.0279 65.9721 0 42.5 0C19.0279 0 0 19.0279 0 42.5C0 65.9721 19.0279 85 42.5 85Z" fill="#55ACEE"/>
<path d="M65.3341 28.4581C63.5994 29.2285 61.7589 29.7341 59.8741 29.9581C61.8592 28.7707 63.3449 26.9019 64.0541 24.7001C62.1882 25.8072 60.1468 26.5871 58.0181 27.0061C56.5851 25.481 54.6892 24.4709 52.6241 24.1323C50.559 23.7936 48.4399 24.1453 46.5948 25.1328C44.7498 26.1204 43.2818 27.6887 42.4183 29.5949C41.5547 31.5011 41.3438 33.6389 41.8181 35.6771C38.0381 35.4881 34.3402 34.5061 30.9645 32.7948C27.5888 31.0835 24.6109 28.6813 22.2241 25.7441C21.0083 27.837 20.6356 30.3144 21.182 32.6723C21.7284 35.0302 23.1527 37.0913 25.1651 38.4361C23.6555 38.3896 22.1792 37.9815 20.8601 37.2461C20.8601 37.2861 20.8601 37.3271 20.8601 37.3671C20.8606 39.562 21.6202 41.6891 23.0102 43.3878C24.4001 45.0864 26.3348 46.2521 28.4861 46.6871C27.0861 47.0674 25.6179 47.1235 24.1931 46.8511C24.8006 48.7396 25.9831 50.3909 27.5753 51.5743C29.1675 52.7577 31.0897 53.4138 33.0731 53.4511C29.0834 56.5672 24.024 57.9805 18.9971 57.3831C23.3426 60.1769 28.4009 61.6597 33.5671 61.6541C51.0521 61.6541 60.6141 47.1691 60.6141 34.6071C60.6141 34.1951 60.6051 33.7851 60.5861 33.3781C62.4478 32.0338 64.0544 30.3676 65.3301 28.4581H65.3341Z" fill="white"/>
</svg>
