<svg width="20" height="17" viewBox="0 0 20 17" fill="none" xmlns="http://www.w3.org/2000/svg">
<path d="M20 2.01072C19.2511 2.35795 18.4567 2.58561 17.6432 2.68612C18.4999 2.15006 19.1409 1.30645 19.4469 0.312544C18.6417 0.812293 17.7607 1.16432 16.842 1.35341C15.5704 -0.0615222 13.5494 -0.407948 11.9125 0.508445C10.2757 1.42484 9.43036 3.37606 9.85062 5.26762C6.55177 5.09495 3.47818 3.46513 1.39506 0.783902C0.306132 2.74491 0.861774 5.25353 2.6642 6.51381C2.01479 6.49177 1.37984 6.30757 0.812346 5.97659C0.812346 5.99467 0.812346 6.01275 0.812346 6.03083C0.812957 8.07371 2.18945 9.83329 4.1037 10.2382C3.49978 10.4096 2.86647 10.4347 2.25185 10.3118C2.78824 12.0582 4.32573 13.2556 6.07901 13.2923C4.35675 14.7018 2.17147 15.3415 0 15.0719C3.59171 17.479 8.153 17.6438 11.8949 15.5016C15.6368 13.3594 17.9628 9.25181 17.9605 4.7898C17.9605 4.60384 17.9605 4.41917 17.9481 4.2345C18.7515 3.62755 19.4447 2.87533 19.9951 2.01331L20 2.01072Z" fill="#55ACEE"/>
</svg>
