<svg width="40" height="40" viewBox="0 0 40 40" fill="none" xmlns="http://www.w3.org/2000/svg">
<g clip-path="url(#clip0_1414_36242)">
<g filter="url(#filter0_d_1414_36242)">
<path d="M36.1666 4.76661C35.973 4.60998 35.7468 4.49873 35.5045 4.44105C35.2622 4.38336 35.0101 4.38071 34.7666 4.43328C34.099 4.57176 33.4101 4.57223 32.7423 4.43465C32.0745 4.29707 31.4418 4.02436 30.8833 3.63328C30.6027 3.43604 30.268 3.3302 29.925 3.3302C29.582 3.3302 29.2473 3.43604 28.9666 3.63328C28.4081 4.02436 27.7755 4.29707 27.1077 4.43465C26.4398 4.57223 25.7509 4.57176 25.0833 4.43328C24.8399 4.38071 24.5878 4.38336 24.3455 4.44105C24.1032 4.49873 23.8769 4.60998 23.6833 4.76661C23.4921 4.9217 23.3377 5.11722 23.231 5.33911C23.1244 5.56101 23.0683 5.80377 23.0666 6.04994V11.6666C23.0695 12.8734 23.3598 14.0622 23.9133 15.1345C24.4669 16.2069 25.2679 17.132 26.25 17.8333L28.95 19.7666C29.2338 19.9714 29.575 20.0816 29.925 20.0816C30.275 20.0816 30.6161 19.9714 30.9 19.7666L33.6 17.8333C34.5821 17.132 35.383 16.2069 35.9366 15.1345C36.4902 14.0622 36.7804 12.8734 36.7833 11.6666V6.04994C36.7817 5.80377 36.7255 5.56101 36.6189 5.33911C36.5123 5.11722 36.3578 4.9217 36.1666 4.76661ZM33.45 11.6666C33.4276 12.3216 33.2551 12.9628 32.9459 13.5407C32.6368 14.1186 32.1991 14.6178 31.6666 14.9999L30 16.2333L28.1833 14.9999C27.6508 14.6178 27.2132 14.1186 26.904 13.5407C26.5948 12.9628 26.4224 12.3216 26.4 11.6666V7.86661C27.6524 7.82644 28.8809 7.51362 30 6.94994C31.0928 7.50446 32.2922 7.81711 33.5166 7.86661L33.45 11.6666ZM31.55 23.3333C31.1235 23.227 30.6723 23.2935 30.2947 23.5182C29.917 23.7429 29.6433 24.1078 29.5333 24.5333C28.8953 27.0503 27.4358 29.2825 25.386 30.8765C23.3362 32.4704 20.8133 33.335 18.2166 33.3333H8.91665L9.99998 32.2833C10.2906 31.9742 10.4524 31.5659 10.4524 31.1416C10.4524 30.7173 10.2906 30.309 9.99998 29.9999C8.34137 28.3749 7.20541 26.2919 6.73749 24.0175C6.26958 21.7431 6.49098 19.3808 7.37338 17.233C8.25578 15.0852 9.75902 13.2495 11.6907 11.961C13.6224 10.6724 15.8947 9.98963 18.2166 9.99994C18.6587 9.99994 19.0826 9.82435 19.3952 9.51179C19.7077 9.19923 19.8833 8.77531 19.8833 8.33328C19.8833 7.89125 19.7077 7.46733 19.3952 7.15477C19.0826 6.84221 18.6587 6.66661 18.2166 6.66661C15.3958 6.67588 12.6346 7.48041 10.2503 8.98784C7.86593 10.4953 5.95496 12.6445 4.73676 15.1888C3.51856 17.7331 3.04249 20.5694 3.36322 23.372C3.68395 26.1746 4.78846 28.83 6.54998 31.0333L3.71665 33.8166C3.48261 34.0487 3.32266 34.345 3.25702 34.6681C3.19137 34.9911 3.22299 35.3263 3.34787 35.6314C3.47274 35.9364 3.68527 36.1976 3.95858 36.3819C4.23188 36.5661 4.55369 36.6652 4.88331 36.6666H18.2166C21.5437 36.6688 24.7771 35.5647 27.4081 33.5281C30.039 31.4915 31.9182 28.6381 32.75 25.4166C32.8127 25.201 32.8312 24.9749 32.8044 24.752C32.7775 24.5291 32.7059 24.3139 32.5938 24.1193C32.4818 23.9247 32.3315 23.7548 32.1522 23.6197C31.9728 23.4846 31.7679 23.3872 31.55 23.3333Z" fill="#2C50ED"/>
</g>
</g>
<defs>
<filter id="filter0_d_1414_36242" x="-0.776367" y="3.3302" width="41.5596" height="41.3364" filterUnits="userSpaceOnUse" color-interpolation-filters="sRGB">
<feFlood flood-opacity="0" result="BackgroundImageFix"/>
<feColorMatrix in="SourceAlpha" type="matrix" values="0 0 0 0 0 0 0 0 0 0 0 0 0 0 0 0 0 0 127 0" result="hardAlpha"/>
<feOffset dy="4"/>
<feGaussianBlur stdDeviation="2"/>
<feComposite in2="hardAlpha" operator="out"/>
<feColorMatrix type="matrix" values="0 0 0 0 0 0 0 0 0 0 0 0 0 0 0 0 0 0 0.25 0"/>
<feBlend mode="normal" in2="BackgroundImageFix" result="effect1_dropShadow_1414_36242"/>
<feBlend mode="normal" in="SourceGraphic" in2="effect1_dropShadow_1414_36242" result="shape"/>
</filter>
<clipPath id="clip0_1414_36242">
<rect width="40" height="40" fill="white"/>
</clipPath>
</defs>
</svg>
