<svg width="11" height="13" viewBox="0 0 11 13" fill="none" xmlns="http://www.w3.org/2000/svg">
<path fill-rule="evenodd" clip-rule="evenodd" d="M6.2115 11.7185C6.21452 11.7122 6.21784 11.7053 6.222 11.6983C6.24086 11.6992 6.25967 11.6958 6.277 11.6883C6.32581 11.6627 6.37484 11.6376 6.42382 11.6125C6.55651 11.5446 6.68892 11.4768 6.816 11.3993C7.58549 10.9448 8.282 10.3767 8.882 9.71434C9.46005 9.12975 9.84979 8.38544 10.001 7.57734C10.024 7.44044 10.0373 7.3021 10.041 7.16334V4.44034C10.041 4.36534 10.0375 4.29034 10.034 4.21534C10.0305 4.14034 10.027 4.06534 10.027 3.99034C10.0265 3.94065 10.0302 3.89148 10.0339 3.8419C10.0374 3.79469 10.041 3.74711 10.041 3.69834V1.63034V1.44634H9.935C9.82942 1.44037 9.72404 1.43568 9.61892 1.43101C9.38949 1.42081 9.16131 1.41066 8.935 1.38734C8.27764 1.31705 7.63064 1.17074 7.007 0.95134C6.53589 0.789384 6.07899 0.588699 5.641 0.35134C5.452 0.248343 5.26801 0.135345 5.08401 0.0223479L5.084 0.0223405C5.04728 -0.00744683 4.99472 -0.00744683 4.958 0.0223405C4.47154 0.336063 3.95457 0.599741 3.415 0.80934C2.91229 1.00579 2.3933 1.15771 1.864 1.26334C1.27753 1.38334 0.680617 1.44498 0.082 1.44734C0.016 1.44734 0 1.46334 0 1.52934V4.20734V7.12434C0.000416006 7.56197 0.0948824 7.9944 0.277 8.39234C0.597164 9.06765 1.04822 9.67268 1.604 10.1723C1.95537 10.5099 2.33697 10.8145 2.744 11.0823C2.81001 11.1251 2.87518 11.169 2.9403 11.2128C3.04879 11.2859 3.15714 11.3588 3.269 11.4263C3.69863 11.6971 4.15971 11.9144 4.642 12.0733C4.78626 12.1271 4.94048 12.149 5.094 12.1373C5.47909 12.0646 5.85031 11.9316 6.194 11.7433C6.20118 11.7401 6.20581 11.7304 6.2115 11.7185ZM8.97 2.36834L9.038 2.37934L9.046 2.44634V4.74634C9.046 4.99879 9.04444 5.25034 9.04288 5.50145C9.03977 6.00234 9.03668 6.50145 9.046 7.00234C9.05037 7.51074 8.90158 8.00868 8.619 8.43134C8.35028 8.84489 8.02967 9.2223 7.665 9.55434C6.95931 10.2003 6.14739 10.7196 5.265 11.0893C5.10553 11.1616 4.92207 11.1587 4.765 11.0813C4.18632 10.8299 3.63647 10.5168 3.125 10.1473C2.59496 9.77283 2.11914 9.32695 1.711 8.82234C1.39036 8.45404 1.16388 8.01343 1.051 7.53834C1.02137 7.38782 1.00663 7.23475 1.007 7.08134V3.22334V2.41334V2.35534C1.08393 2.34457 1.16085 2.33454 1.23777 2.32451C1.36085 2.30846 1.48392 2.29242 1.607 2.27334C2.6802 2.11122 3.72227 1.78579 4.697 1.30834C4.786 1.26434 4.874 1.21834 4.961 1.17034C4.99483 1.14747 5.03917 1.14747 5.073 1.17034C5.45654 1.38256 5.85413 1.56832 6.263 1.72634C6.75487 1.92092 7.2628 2.07216 7.781 2.17834C8.05781 2.23385 8.3402 2.27517 8.62419 2.31673C8.73928 2.33358 8.85464 2.35046 8.97 2.36834Z" fill="#DD4E45"/>
<path d="M4.84403 6.34229L4.74003 4.15829V2.16629H5.54003V4.15829L5.43603 6.34229H4.84403ZM5.14803 8.09429C5.00403 8.09429 4.8787 8.04096 4.77203 7.93429C4.66536 7.82762 4.61203 7.70229 4.61203 7.55829C4.61203 7.39296 4.66003 7.26229 4.75603 7.16629C4.85203 7.07029 4.9827 7.02229 5.14803 7.02229C5.2867 7.02229 5.40936 7.07562 5.51603 7.18229C5.62803 7.28896 5.68403 7.41429 5.68403 7.55829C5.68403 7.71829 5.63336 7.84896 5.53203 7.95029C5.4307 8.04629 5.3027 8.09429 5.14803 8.09429Z" fill="#DD4E45"/>
</svg>
