<svg width="15" height="18" viewBox="0 0 15 18" fill="none" xmlns="http://www.w3.org/2000/svg">
<g opacity="0.56">
<path d="M2.72248 9.88148C2.62128 9.4921 2.56822 9.09178 2.56448 8.68948V7.34248C2.56448 6.96969 2.26227 6.66748 1.88948 6.66748C1.51669 6.66748 1.21448 6.96969 1.21448 7.34248V8.69248C1.21392 9.4641 1.36406 10.2284 1.65648 10.9425L2.72248 9.88148Z" fill="white"/>
<path d="M7.21843 12.0366C9.06078 12.0322 10.5538 10.5409 10.5604 8.69859V7.36758L14.3354 3.60258C14.402 3.54054 14.4399 3.45361 14.4399 3.36258C14.4399 3.27156 14.402 3.18463 14.3354 3.12258L13.4794 2.26758C13.4172 2.20093 13.3301 2.16309 13.2389 2.16309C13.1477 2.16309 13.0607 2.20093 12.9984 2.26758L0.104429 15.1366C0.0378256 15.1986 0 15.2856 0 15.3766C0 15.4676 0.0378256 15.5545 0.104429 15.6166L0.961429 16.4716C1.02365 16.5382 1.11074 16.5761 1.20193 16.5761C1.29311 16.5761 1.38021 16.5382 1.44243 16.4716L4.09543 13.8216C4.83857 14.2869 5.67834 14.5759 6.55043 14.6666V16.0466H3.87543C3.51683 16.0605 3.23327 16.3552 3.23327 16.7141C3.23327 17.073 3.51683 17.3677 3.87543 17.3816H10.5604C10.919 17.3677 11.2026 17.073 11.2026 16.7141C11.2026 16.3552 10.919 16.0605 10.5604 16.0466H7.88643V14.6696C10.9284 14.333 13.2316 11.7641 13.2354 8.70358V7.36758C13.2215 7.00844 12.9263 6.72444 12.5669 6.72444C12.2075 6.72444 11.9123 7.00844 11.8984 7.36758V8.70258C11.9033 10.3355 11.053 11.8518 9.65723 12.6991C8.26143 13.5465 6.52386 13.6013 5.07743 12.8436L6.07743 11.8436C6.44402 11.9723 6.82989 12.0376 7.21843 12.0366Z" fill="white"/>
<path d="M9.16644 0.62254C7.82734 -0.33086 5.9949 -0.174701 4.83644 0.99154C4.19109 1.61528 3.83242 2.47813 3.84544 3.37554V8.77554L10.3954 2.22554C10.1606 1.57739 9.73141 1.01756 9.16644 0.62254Z" fill="white"/>
</g>
</svg>
