<svg width="32" height="32" viewBox="0 0 32 32" fill="none" xmlns="http://www.w3.org/2000/svg">
<ellipse cx="15.7849" cy="15.9446" rx="15.5756" ry="15.3826" fill="#4C75A3"/>
<path d="M15.2143 7.37568C15.2684 7.37568 15.3192 7.36354 15.3717 7.36759C15.5213 7.37079 15.6701 7.38896 15.816 7.42183C16.2333 7.52474 16.622 7.71836 16.9538 7.98856C17.2817 8.26464 17.7736 8.02175 18.1548 8.25249C18.6707 8.58557 19.0236 9.115 19.1295 9.71465C19.342 10.5708 19.3588 11.463 19.1787 12.3265C19.1448 12.4314 19.1419 12.5438 19.1705 12.6503C19.4653 13.4349 19.2735 14.3172 18.6786 14.9132C18.5149 15.084 18.3917 15.2886 18.3179 15.5123C18.1664 15.9504 17.9516 16.3646 17.6801 16.7421C17.2219 17.4189 17.4186 17.9079 18.2318 18.0787C19.2647 18.2816 20.2511 18.6699 21.142 19.2243C21.4307 19.4074 21.6972 19.6226 21.9364 19.8655C22.38 20.3051 22.6147 20.9095 22.5823 21.5293C22.5545 22.6976 22.5094 22.7971 21.4002 23.2368C20.2007 23.679 18.9444 23.9532 17.6678 24.0512C16.0473 24.1955 14.4168 24.1925 12.7968 24.0423C11.8207 24.0005 10.8573 23.8068 9.94236 23.4683C9.05291 23.1048 8.89223 22.7874 8.82091 21.8572C8.72823 20.765 9.31051 19.725 10.2965 19.2219C11.1746 18.6739 12.1471 18.2898 13.1657 18.0885C13.5493 18.0193 13.8577 17.7372 13.9568 17.3647C14.0366 17.161 13.9945 16.9304 13.8477 16.7672C13.6381 16.5151 13.4679 16.2335 13.3427 15.9317C13.1684 15.4906 12.9301 15.0769 12.6353 14.7035C12.1185 14.1409 11.9986 13.3251 12.332 12.6406C12.391 12.5216 12.3107 12.426 12.2844 12.3208C11.9289 11.0048 12.1868 9.60085 12.9878 8.49214C13.4244 7.85971 14.1263 7.45525 14.8987 7.39107C14.9495 7.3854 14.9257 7.38378 14.9806 7.37892C15.0327 7.37429 15.0851 7.37429 15.1372 7.37892L15.2143 7.37568Z" fill="white"/>
</svg>
