<svg width="14" height="14" viewBox="0 0 14 14" fill="none" xmlns="http://www.w3.org/2000/svg">
<path d="M6.99864 7.4201C8.87431 7.2597 10.2736 5.60607 10.1381 3.71005C10.1381 0.868827 8.73208 0 6.99864 0C5.2652 0 3.85916 0.868827 3.85916 3.71005C3.72365 5.60607 5.12296 7.2597 6.99864 7.4201Z" fill="#9E9E9E"/>
<path d="M13.9309 12.8763L12.3477 9.27364C12.2747 9.10811 12.1483 8.97241 11.9891 8.88861L9.53142 7.6004C9.47716 7.57198 9.41156 7.57755 9.36276 7.61471C7.9692 8.69656 6.02938 8.69656 4.63583 7.61471C4.58702 7.57755 4.52142 7.57198 4.46716 7.6004L2.00944 8.88861C1.85031 8.97241 1.72392 9.10811 1.65084 9.27364L0.0676424 12.8763C-0.0406473 13.1237 -0.0178303 13.4096 0.128295 13.6363C0.274421 13.863 0.524069 13.9998 0.791919 13.9999H13.2081C13.4759 13.9998 13.7256 13.863 13.8717 13.6363C14.0178 13.4096 14.0406 13.1237 13.9324 12.8763H13.9309Z" fill="#9E9E9E"/>
</svg>
