<svg width="26" height="30" viewBox="0 0 26 30" fill="none" xmlns="http://www.w3.org/2000/svg">
<path fill-rule="evenodd" clip-rule="evenodd" d="M4.69444 8.73253V8.31325C4.69444 5.69783 5.48311 3.57831 7.00844 2.11807C8.52511 0.666506 10.6282 0 13 0C15.3718 0 17.4749 0.666506 18.9916 2.11807C20.5169 3.57831 21.3056 5.69783 21.3056 8.31325V8.73253C24.0269 9.7388 26 12.4655 26 15.6867C26 21.2357 21.7129 24.4366 18.0613 27.1619C17.6829 27.4453 17.3102 27.7229 16.9491 27.9976C15.6 29.0284 14.3 30 13 30C11.7 30 10.4 29.0284 9.05089 27.9976C8.68169 27.717 8.31094 27.4384 7.93867 27.1619C4.28711 24.4366 0 21.2342 0 15.6853C0 12.467 1.97311 9.74169 4.69444 8.73253ZM6.86111 8.31325C6.86111 6.13735 7.50678 4.64241 8.50633 3.68675C9.51311 2.72096 11.0197 2.16867 13 2.16867C14.9789 2.16867 16.4869 2.72096 17.4937 3.68675C18.4932 4.64241 19.1389 6.13735 19.1389 8.31325C17.1672 8.26699 15.0078 9.08385 13 11.1051C10.9922 9.08385 8.83278 8.26843 6.86111 8.31325ZM13 14.4578C13.2873 14.4578 13.5629 14.5721 13.766 14.7754C13.9692 14.9788 14.0833 15.2546 14.0833 15.5422V19.1566C14.0833 19.4442 13.9692 19.72 13.766 19.9234C13.5629 20.1267 13.2873 20.241 13 20.241C12.7127 20.241 12.4371 20.1267 12.234 19.9234C12.0308 19.72 11.9167 19.4442 11.9167 19.1566V15.5422C11.9167 15.2546 12.0308 14.9788 12.234 14.7754C12.4371 14.5721 12.7127 14.4578 13 14.4578Z" fill="#454E54"/>
</svg>
