<svg width="22" height="22" viewBox="0 0 22 22" fill="none" xmlns="http://www.w3.org/2000/svg">
<path d="M0 1.21367C0 0.543889 0.543889 0 1.21367 0H20.7863C21.4561 0 22 0.543889 22 1.21367V20.7863C21.9997 21.1081 21.8717 21.4166 21.6442 21.6442C21.4166 21.8717 21.1081 21.9997 20.7863 22H1.21367C0.891782 22 0.583081 21.8721 0.355475 21.6445C0.127868 21.4169 0 21.1082 0 20.7863V1.21367ZM2.44444 2.44444V19.5556H19.5556V2.44444H2.44444ZM9.31578 6.61833L15.279 10.593C15.3461 10.6376 15.4011 10.6981 15.4391 10.7691C15.4771 10.8401 15.497 10.9194 15.497 11C15.497 11.0806 15.4771 11.1599 15.4391 11.2309C15.4011 11.3019 15.3461 11.3624 15.279 11.407L9.31456 15.3817C9.24101 15.4304 9.15565 15.4584 9.06751 15.4625C8.97937 15.4667 8.89176 15.4469 8.81394 15.4053C8.73613 15.3637 8.67103 15.3018 8.62554 15.2262C8.58005 15.1506 8.55587 15.0641 8.55556 14.9759V7.02411C8.55572 6.93568 8.57986 6.84896 8.62542 6.77317C8.67097 6.69737 8.73622 6.63536 8.81423 6.59372C8.89224 6.55208 8.98009 6.53238 9.06841 6.53671C9.15673 6.54105 9.24222 6.56926 9.31578 6.61833Z" fill="#7A8FA6"/>
</svg>
