<svg width="23" height="23" viewBox="0 0 23 23" fill="none" xmlns="http://www.w3.org/2000/svg">
<g clip-path="url(#clip0_7904_26675)">
<g filter="url(#filter0_d_7904_26675)">
<path d="M15.3333 15.5729C15.3333 16.399 15.0051 17.1912 14.4211 17.7753C13.837 18.3594 13.0447 18.6875 12.2187 18.6875H5.03121C4.20517 18.6875 3.41296 18.3594 2.82887 17.7753C2.24477 17.1912 1.91663 16.399 1.91663 15.5729V7.42708C1.91663 6.60104 2.24477 5.80884 2.82887 5.22474C3.41296 4.64064 4.20517 4.3125 5.03121 4.3125H12.2187C13.0447 4.3125 13.837 4.64064 14.4211 5.22474C15.0051 5.80884 15.3333 6.60104 15.3333 7.42708V15.5729ZM20.8552 5.64746C21.0025 5.82082 21.0834 6.04095 21.0833 6.26846V16.7315C21.0834 16.9145 21.031 17.0938 20.9325 17.248C20.8339 17.4022 20.6933 17.5249 20.5272 17.6017C20.361 17.6785 20.1764 17.7062 19.9951 17.6814C19.8138 17.6566 19.6433 17.5804 19.504 17.4618L16.2916 14.7296V8.2685L19.504 5.53821C19.5998 5.45662 19.7109 5.39473 19.8307 5.35607C19.9505 5.3174 20.0767 5.30273 20.2022 5.31287C20.3277 5.32302 20.45 5.35779 20.562 5.4152C20.674 5.47261 20.7737 5.55153 20.8552 5.64746Z" fill="white"/>
</g>
</g>
<defs>
<filter id="filter0_d_7904_26675" x="-2.08337" y="4.3125" width="27.1666" height="22.375" filterUnits="userSpaceOnUse" color-interpolation-filters="sRGB">
<feFlood flood-opacity="0" result="BackgroundImageFix"/>
<feColorMatrix in="SourceAlpha" type="matrix" values="0 0 0 0 0 0 0 0 0 0 0 0 0 0 0 0 0 0 127 0" result="hardAlpha"/>
<feOffset dy="4"/>
<feGaussianBlur stdDeviation="2"/>
<feComposite in2="hardAlpha" operator="out"/>
<feColorMatrix type="matrix" values="0 0 0 0 0 0 0 0 0 0 0 0 0 0 0 0 0 0 0.25 0"/>
<feBlend mode="normal" in2="BackgroundImageFix" result="effect1_dropShadow_7904_26675"/>
<feBlend mode="normal" in="SourceGraphic" in2="effect1_dropShadow_7904_26675" result="shape"/>
</filter>
<clipPath id="clip0_7904_26675">
<rect width="23" height="23" fill="white"/>
</clipPath>
</defs>
</svg>
