<svg width="30" height="18" viewBox="0 0 30 18" fill="none" xmlns="http://www.w3.org/2000/svg">
<path d="M3.32409 17.1486C2.53618 17.1486 1.86145 16.9439 1.29989 16.5344C0.738334 16.125 0.458032 15.6333 0.458987 15.0595V2.52468C0.458987 1.95017 0.739767 1.45818 1.30133 1.04871C1.86289 0.639239 2.53714 0.434852 3.32409 0.435549H20.5147C21.3026 0.435549 21.9773 0.640284 22.5389 1.04975C23.1004 1.45922 23.3807 1.95087 23.3798 2.52468V7.22524L27.8923 3.93485C28.1072 3.77816 28.3636 3.73882 28.6616 3.81681C28.9596 3.89481 29.109 4.05602 29.11 4.30045V13.2837C29.11 13.5275 28.9605 13.6887 28.6616 13.7674C28.3627 13.8461 28.1062 13.8067 27.8923 13.6493L23.3798 10.3589V15.0595C23.3798 15.634 23.099 16.126 22.5375 16.5355C21.9759 16.9449 21.3016 17.1493 20.5147 17.1486H3.32409ZM6.225 12.9704H17.6138C17.9242 12.9704 18.1453 12.8746 18.277 12.6831C18.4088 12.4916 18.3788 12.3088 18.1868 12.1347L14.7129 8.8182C14.5696 8.67893 14.3786 8.60929 14.1398 8.60929C13.9011 8.60929 13.7101 8.67893 13.5668 8.8182L10.845 11.4035L9.19754 9.83666C9.05429 9.69738 8.86328 9.62774 8.62452 9.62774C8.38576 9.62774 8.19476 9.69738 8.0515 9.83666L5.65198 12.1347C5.46097 12.3088 5.43089 12.4916 5.56173 12.6831C5.69257 12.8746 5.91366 12.9704 6.225 12.9704Z" fill="white"/>
<path d="M4.04036 14.761V6.4045H18.3659L19.5597 8.79209V14.761H4.04036Z" fill="white"/>
</svg>
