<svg width="17" height="15" viewBox="0 0 17 15" fill="none" xmlns="http://www.w3.org/2000/svg">
<path d="M1.41461 6.15041C1.4147 6.21552 1.40195 6.28001 1.37707 6.34018C1.3522 6.40036 1.3157 6.45503 1.26965 6.50107C1.22361 6.54711 1.16894 6.58362 1.10876 6.60849C1.04859 6.63336 0.9841 6.64612 0.918988 6.64603C0.853782 6.64621 0.78918 6.63353 0.728883 6.60871C0.668586 6.58389 0.613781 6.54741 0.567607 6.50137C0.521432 6.45533 0.484796 6.40063 0.459799 6.3404C0.434803 6.28018 0.421936 6.21561 0.421936 6.15041C0.421936 6.0852 0.434803 6.02063 0.459799 5.96041C0.484796 5.90018 0.521432 5.84548 0.567607 5.79944C0.613781 5.7534 0.668586 5.71692 0.728883 5.6921C0.78918 5.66728 0.853782 5.6546 0.918988 5.65479C0.9841 5.65469 1.04859 5.66745 1.10876 5.69232C1.16894 5.7172 1.22361 5.7537 1.26965 5.79974C1.3157 5.84578 1.3522 5.90046 1.37707 5.96063C1.40195 6.0208 1.4147 6.08529 1.41461 6.15041Z" fill="#B47A1A"/>
<path d="M17.0001 6.1504C17.0002 6.21552 16.9875 6.28001 16.9626 6.34018C16.9377 6.40036 16.9012 6.45503 16.8552 6.50107C16.8091 6.54711 16.7544 6.58362 16.6943 6.60849C16.6341 6.63336 16.5696 6.64612 16.5045 6.64602C16.3729 6.64602 16.2467 6.59385 16.1535 6.50095C16.0604 6.40804 16.0078 6.28198 16.0074 6.1504C16.0078 6.01883 16.0604 5.89277 16.1535 5.79986C16.2467 5.70696 16.3729 5.65479 16.5045 5.65479C16.5696 5.65469 16.6341 5.66745 16.6943 5.69232C16.7544 5.71719 16.8091 5.7537 16.8552 5.79974C16.9012 5.84578 16.9377 5.90045 16.9626 5.96063C16.9875 6.0208 17.0002 6.08529 17.0001 6.1504Z" fill="#B47A1A"/>
<path d="M4.66409 4.05202C4.66428 4.11716 4.65159 4.18169 4.62675 4.24191C4.60191 4.30212 4.56541 4.35683 4.51935 4.40289C4.47329 4.44895 4.41858 4.48545 4.35836 4.51029C4.29814 4.53513 4.23361 4.54782 4.16847 4.54764C4.10333 4.54782 4.0388 4.53513 3.97858 4.51029C3.91837 4.48545 3.86366 4.44895 3.8176 4.40289C3.77154 4.35683 3.73504 4.30212 3.7102 4.24191C3.68535 4.18169 3.67266 4.11716 3.67285 4.05202C3.67276 3.9869 3.68551 3.92241 3.71039 3.86224C3.73526 3.80207 3.77177 3.74739 3.81781 3.70135C3.86385 3.65531 3.91852 3.61881 3.9787 3.59393C4.03887 3.56906 4.10336 3.5563 4.16847 3.5564C4.23358 3.5563 4.29808 3.56906 4.35825 3.59393C4.41842 3.61881 4.4731 3.65531 4.51914 3.70135C4.56518 3.74739 4.60168 3.80207 4.62656 3.86224C4.65143 3.92241 4.66419 3.9869 4.66409 4.05202Z" fill="#B47A1A"/>
<path d="M13.7886 4.05202C13.7882 4.18335 13.7359 4.30919 13.643 4.40205C13.5501 4.49492 13.4243 4.54726 13.2929 4.54764C13.2277 4.54782 13.1631 4.53514 13.1028 4.51032C13.0425 4.4855 12.9877 4.44902 12.9416 4.40298C12.8954 4.35694 12.8588 4.30224 12.8338 4.24201C12.8088 4.18179 12.7959 4.11722 12.7959 4.05202C12.796 3.98684 12.8089 3.92231 12.834 3.86213C12.859 3.80195 12.8956 3.74729 12.9418 3.70126C12.9879 3.65524 13.0427 3.61876 13.103 3.5939C13.1632 3.56905 13.2278 3.5563 13.2929 3.5564C13.4239 3.55789 13.5491 3.61058 13.6418 3.70321C13.7344 3.79583 13.7871 3.92103 13.7886 4.05202Z" fill="#B47A1A"/>
<path d="M9.46694 0.981969C9.46704 1.09667 9.44449 1.21027 9.40059 1.31624C9.3567 1.42222 9.29232 1.51849 9.21114 1.59953C9.12997 1.68057 9.03359 1.7448 8.92755 1.78852C8.8215 1.83224 8.70787 1.8546 8.59316 1.85432C8.47871 1.85432 8.36537 1.83174 8.25966 1.78787C8.15394 1.74401 8.05791 1.67971 7.97708 1.59868C7.89625 1.51765 7.83219 1.42146 7.78859 1.31564C7.74498 1.20981 7.72268 1.09643 7.72296 0.981969C7.72268 0.867512 7.74498 0.754124 7.78859 0.648299C7.83219 0.542473 7.89625 0.446289 7.97708 0.365256C8.05791 0.284223 8.15394 0.219932 8.25966 0.176067C8.36537 0.132201 8.47871 0.109621 8.59316 0.109622C8.70787 0.109339 8.8215 0.131699 8.92755 0.175421C9.03359 0.219143 9.12997 0.283366 9.21114 0.364409C9.29232 0.445451 9.3567 0.541719 9.40059 0.647693C9.44449 0.753667 9.46704 0.867264 9.46694 0.981969Z" fill="#B47A1A"/>
<path d="M13.9598 12.4356L14.1668 11.9085L14.4612 11.1622L15.0492 9.66749L15.3435 8.92119L16.5045 6.1208L12.9564 8.92119L13.2751 4.02301L10.739 8.5767L8.60253 0.886719L6.54414 8.32387L4.15056 4.02301L4.46641 8.92119L0.916138 6.12009L2.07497 8.92048L2.36933 9.66677L2.96021 11.1615L3.25171 11.9078L3.54177 12.6426C6.97926 11.9994 10.4995 11.9295 13.9598 12.4356Z" fill="#B47A1A"/>
<path d="M14.1173 12.6304L13.9605 13.0264C10.5014 12.5209 6.98252 12.5904 3.54605 13.232L3.31041 12.6304H2.94586L2.96377 12.6726L3.25527 13.4189L3.54533 14.1538C6.98165 13.5109 10.5006 13.441 13.9598 13.9468L14.1668 13.4196L14.4611 12.6733L14.479 12.6311L14.1173 12.6304Z" fill="#B47A1A"/>
<path d="M3.19435 5.51392V5.52752C3.10236 5.8513 3.10349 6.19444 3.19761 6.5176C3.29173 6.84076 3.47503 7.13084 3.72649 7.35458C3.42496 6.90588 3.26389 6.37754 3.26382 5.83693C3.28972 5.9 3.32767 5.95741 3.37555 6.00595C3.65656 6.30077 3.86702 6.6555 3.99108 7.04343C4.11514 7.43136 4.14956 7.84239 4.09176 8.24555C3.8163 8.17146 3.5636 8.02997 3.35646 7.83385C3.14932 7.63773 2.99424 7.39314 2.90521 7.12214C2.81617 6.85113 2.79598 6.56223 2.84646 6.28147C2.89694 6.00072 3.01649 5.73694 3.19435 5.51392Z" fill="#B47A1A"/>
<path d="M14.1308 5.58789V5.6015C14.223 5.92514 14.2221 6.2682 14.1282 6.59135C14.0344 6.9145 13.8513 7.20466 13.6001 7.42856C13.9012 6.97926 14.0613 6.45031 14.0599 5.90947C14.0356 5.97266 13.9985 6.03018 13.9511 6.0785C13.6697 6.37307 13.459 6.72778 13.3349 7.11578C13.2109 7.50378 13.1766 7.91492 13.2349 8.31809C13.51 8.24372 13.7623 8.10212 13.969 7.90602C14.1758 7.70993 14.3306 7.4655 14.4195 7.19473C14.5083 6.92396 14.5285 6.63535 14.4781 6.35486C14.4277 6.07437 14.3084 5.81081 14.1308 5.58789Z" fill="#B47A1A"/>
<path d="M6.403 4.50562V4.51922C6.21884 4.80128 6.11841 5.12976 6.11334 5.46657C6.10827 5.80338 6.19877 6.13473 6.37435 6.4222C6.21544 5.90509 6.21544 5.35218 6.37435 4.83507C6.3788 4.90281 6.39786 4.96878 6.43021 5.02845C6.61463 5.39196 6.71413 5.79258 6.7212 6.20014C6.72827 6.60769 6.64273 7.01152 6.47103 7.38121C6.22859 7.23058 6.02746 7.02195 5.88582 6.77414C5.74418 6.52633 5.66647 6.24716 5.65972 5.9618C5.65297 5.67645 5.71738 5.39391 5.84715 5.13968C5.97691 4.88546 6.16794 4.66754 6.403 4.50562Z" fill="#B47A1A"/>
<path d="M10.8693 4.50562V4.51922C11.0519 4.80215 11.1508 5.13091 11.1546 5.46761C11.1584 5.80431 11.0669 6.13523 10.8908 6.4222C11.0475 5.90477 11.0475 5.35251 10.8908 4.83507C10.884 4.90275 10.864 4.96844 10.832 5.02845C10.6476 5.392 10.5483 5.79271 10.5415 6.20029C10.5346 6.60788 10.6205 7.01169 10.7927 7.38121C11.0356 7.23131 11.2374 7.02327 11.3798 6.77587C11.5222 6.52847 11.6008 6.24949 11.6084 5.96413C11.616 5.67877 11.5524 5.396 11.4234 5.14137C11.2943 4.88673 11.1039 4.66824 10.8693 4.50562Z" fill="#B47A1A"/>
<path d="M0.992672 6.04079C0.992766 6.1059 0.98001 6.17039 0.955137 6.23056C0.930263 6.29074 0.89376 6.34541 0.847719 6.39145C0.801677 6.43749 0.747003 6.474 0.686829 6.49887C0.626655 6.52375 0.562164 6.5365 0.497052 6.53641C0.431846 6.5366 0.367244 6.52391 0.306947 6.49909C0.24665 6.47427 0.191845 6.43779 0.145671 6.39175C0.0994963 6.34571 0.06286 6.29101 0.0378633 6.23078C0.0128666 6.17056 -2.72334e-07 6.10599 0 6.04079C-2.72334e-07 5.97558 0.0128666 5.91102 0.0378633 5.85079C0.06286 5.79057 0.0994963 5.73587 0.145671 5.68982C0.191845 5.64378 0.24665 5.60731 0.306947 5.58248C0.367244 5.55766 0.431846 5.54498 0.497052 5.54517C0.562164 5.54507 0.626655 5.55783 0.686829 5.5827C0.747003 5.60758 0.801677 5.64408 0.847719 5.69012C0.89376 5.73616 0.930263 5.79084 0.955137 5.85101C0.98001 5.91118 0.992766 5.97568 0.992672 6.04079Z" fill="url(#paint0_linear_3960_28839)"/>
<path d="M16.5782 6.04079C16.5783 6.1059 16.5655 6.17039 16.5406 6.23056C16.5158 6.29074 16.4793 6.34541 16.4332 6.39145C16.3872 6.43749 16.3325 6.474 16.2723 6.49887C16.2122 6.52374 16.1477 6.5365 16.0826 6.53641C15.951 6.53641 15.8248 6.48423 15.7316 6.39133C15.6384 6.29842 15.5859 6.17236 15.5855 6.04079C15.5859 5.90921 15.6384 5.78315 15.7316 5.69024C15.8248 5.59734 15.951 5.54517 16.0826 5.54517C16.1477 5.54507 16.2122 5.55783 16.2723 5.5827C16.3325 5.60758 16.3872 5.64408 16.4332 5.69012C16.4793 5.73616 16.5158 5.79084 16.5406 5.85101C16.5655 5.91118 16.5783 5.97567 16.5782 6.04079Z" fill="url(#paint1_linear_3960_28839)"/>
<path d="M4.24216 3.9424C4.24234 4.00754 4.22965 4.07207 4.20481 4.13229C4.17997 4.1925 4.14347 4.24721 4.09741 4.29327C4.05135 4.33933 3.99664 4.37583 3.93643 4.40067C3.87621 4.42552 3.81168 4.43821 3.74654 4.43802C3.6814 4.43821 3.61686 4.42552 3.55665 4.40067C3.49643 4.37583 3.44172 4.33933 3.39566 4.29327C3.3496 4.24721 3.3131 4.1925 3.28826 4.13229C3.26342 4.07207 3.25073 4.00754 3.25092 3.9424C3.25082 3.87729 3.26358 3.81279 3.28845 3.75262C3.31333 3.69245 3.34983 3.63777 3.39587 3.59173C3.44191 3.54569 3.49659 3.50919 3.55676 3.48431C3.61693 3.45944 3.68142 3.44668 3.74654 3.44678C3.81165 3.44668 3.87614 3.45944 3.93631 3.48431C3.99649 3.50919 4.05116 3.54569 4.0972 3.59173C4.14324 3.63777 4.17975 3.69245 4.20462 3.75262C4.2295 3.81279 4.24225 3.87729 4.24216 3.9424Z" fill="url(#paint2_linear_3960_28839)"/>
<path d="M13.3667 3.9424C13.3663 4.07373 13.314 4.19957 13.2211 4.29244C13.1282 4.3853 13.0024 4.43764 12.8711 4.43802C12.8059 4.43821 12.7413 4.42552 12.681 4.4007C12.6207 4.37588 12.5659 4.3394 12.5197 4.29336C12.4735 4.24732 12.4369 4.19262 12.4119 4.13239C12.3869 4.07217 12.374 4.0076 12.374 3.9424C12.3741 3.87722 12.387 3.81269 12.4121 3.75251C12.4371 3.69233 12.4737 3.63767 12.5199 3.59164C12.5661 3.54562 12.6208 3.50914 12.6811 3.48428C12.7413 3.45943 12.8059 3.44668 12.8711 3.44678C13.0021 3.44827 13.1273 3.50096 13.2199 3.59359C13.3125 3.68621 13.3652 3.81141 13.3667 3.9424Z" fill="url(#paint3_linear_3960_28839)"/>
<path d="M9.04501 0.87235C9.0451 0.987055 9.02255 1.10065 8.97866 1.20663C8.93476 1.3126 8.87038 1.40887 8.78921 1.48991C8.70803 1.57095 8.61166 1.63518 8.50561 1.6789C8.39956 1.72262 8.28593 1.74498 8.17123 1.7447C8.05677 1.7447 7.94344 1.72212 7.83772 1.67825C7.732 1.63439 7.63598 1.5701 7.55514 1.48906C7.47431 1.40803 7.41025 1.31185 7.36665 1.20602C7.32304 1.10019 7.30075 0.986807 7.30103 0.87235C7.30075 0.757893 7.32304 0.644505 7.36665 0.538679C7.41025 0.432854 7.47431 0.33667 7.55514 0.255637C7.63598 0.174604 7.732 0.110313 7.83772 0.0664475C7.94344 0.0225816 8.05677 2.30035e-06 8.17123 2.64926e-06C8.28593 -0.000280148 8.39956 0.0220803 8.50561 0.065802C8.61166 0.109524 8.70803 0.173747 8.78921 0.254789C8.87038 0.335832 8.93476 0.4321 8.97866 0.538074C9.02255 0.644048 9.0451 0.757644 9.04501 0.87235Z" fill="url(#paint4_linear_3960_28839)"/>
<path d="M13.5379 12.327L13.7449 11.7999L14.0392 11.0536L14.6272 9.55885L14.9216 8.81255L16.0826 6.01216L12.5345 8.81255L12.8532 3.91437L10.3171 8.46805L8.1806 0.778076L6.1222 8.21523L3.72862 3.91437L4.04447 8.81255L0.494202 6.01144L1.65303 8.81183L1.9474 9.55813L2.53827 11.0529L2.82977 11.7992L3.11984 12.534C6.55732 11.8908 10.0776 11.8208 13.5379 12.327Z" fill="url(#paint5_linear_3960_28839)"/>
<path d="M13.6954 12.5208L13.5386 12.9168C10.0794 12.4113 6.56059 12.4808 3.12411 13.1224L2.88848 12.5208H2.52393L2.54183 12.563L2.83333 13.3093L3.1234 14.0441C6.55971 13.4013 10.0787 13.3314 13.5378 13.8372L13.7448 13.31L14.0392 12.5637L14.0571 12.5215L13.6954 12.5208Z" fill="url(#paint6_linear_3960_28839)"/>
<path d="M2.77247 5.40698V5.42059C2.68048 5.74436 2.68161 6.08751 2.77573 6.41067C2.86986 6.73383 3.05316 7.02391 3.30462 7.24765C3.00309 6.79894 2.84202 6.2706 2.84195 5.72999C2.86784 5.79307 2.9058 5.85048 2.95368 5.89902C3.23469 6.19384 3.44514 6.54857 3.5692 6.9365C3.69326 7.32443 3.72769 7.73545 3.66989 8.13862C3.39442 8.06452 3.14173 7.92304 2.93458 7.72692C2.72744 7.5308 2.57236 7.28621 2.48333 7.0152C2.3943 6.7442 2.37411 6.45529 2.42459 6.17454C2.47506 5.89378 2.59462 5.63 2.77247 5.40698Z" fill="url(#paint7_linear_3960_28839)"/>
<path d="M13.709 5.48071V5.49432C13.8012 5.81796 13.8003 6.16102 13.7064 6.48417C13.6126 6.80732 13.4295 7.09748 13.1783 7.32138C13.4794 6.87208 13.6395 6.34314 13.6381 5.80229C13.6138 5.86548 13.5767 5.92301 13.5293 5.97132C13.2479 6.26589 13.0372 6.6206 12.9131 7.0086C12.789 7.3966 12.7548 7.80774 12.813 8.21092C13.0881 8.13654 13.3404 7.99494 13.5472 7.79884C13.754 7.60275 13.9088 7.35832 13.9977 7.08755C14.0865 6.81678 14.1067 6.52817 14.0563 6.24768C14.0059 5.96719 13.8866 5.70363 13.709 5.48071Z" fill="url(#paint8_linear_3960_28839)"/>
<path d="M5.98112 4.39648V4.41009C5.79697 4.69215 5.69653 5.02062 5.69146 5.35744C5.68639 5.69425 5.77689 6.0256 5.95247 6.31307C5.79356 5.79596 5.79356 5.24305 5.95247 4.72594C5.95693 4.79368 5.97598 4.85964 6.00834 4.91932C6.19276 5.28283 6.29225 5.68345 6.29932 6.091C6.3064 6.49855 6.22086 6.90239 6.04916 7.27208C5.80671 7.12145 5.60559 6.91281 5.46395 6.66501C5.3223 6.4172 5.2446 6.13802 5.23785 5.85267C5.2311 5.56732 5.29551 5.28478 5.42527 5.03055C5.55504 4.77632 5.74607 4.55841 5.98112 4.39648Z" fill="url(#paint9_linear_3960_28839)"/>
<path d="M10.4474 4.39648V4.41009C10.63 4.69301 10.7289 5.02178 10.7327 5.35848C10.7365 5.69518 10.645 6.0261 10.4689 6.31307C10.6256 5.79564 10.6256 5.24338 10.4689 4.72594C10.4621 4.79361 10.4422 4.85931 10.4102 4.91932C10.2258 5.28287 10.1264 5.68358 10.1196 6.09116C10.1128 6.49875 10.1987 6.90256 10.3708 7.27208C10.6137 7.12218 10.8155 6.91414 10.9579 6.66674C11.1003 6.41934 11.1789 6.14036 11.1865 5.855C11.1941 5.56964 11.1305 5.28687 11.0015 5.03224C10.8724 4.7776 10.682 4.55911 10.4474 4.39648Z" fill="url(#paint10_linear_3960_28839)"/>
<defs>
<linearGradient id="paint0_linear_3960_28839" x1="0.000992673" y1="6.04079" x2="0.992673" y2="6.04079" gradientUnits="userSpaceOnUse">
<stop stop-color="#B47A1A"/>
<stop offset="0.053" stop-color="#B8801E"/>
<stop offset="0.129" stop-color="#C69329"/>
<stop offset="0.219" stop-color="#DBB23C"/>
<stop offset="0.318" stop-color="#FADD55"/>
<stop offset="0.333" stop-color="#FFE55A"/>
<stop offset="0.516" stop-color="#FFEC88"/>
<stop offset="0.661" stop-color="#FFE55A"/>
<stop offset="1" stop-color="#B47A1A"/>
</linearGradient>
<linearGradient id="paint1_linear_3960_28839" x1="15.5865" y1="6.04079" x2="16.5782" y2="6.04079" gradientUnits="userSpaceOnUse">
<stop stop-color="#B47A1A"/>
<stop offset="0.053" stop-color="#B8801E"/>
<stop offset="0.129" stop-color="#C69329"/>
<stop offset="0.219" stop-color="#DBB23C"/>
<stop offset="0.318" stop-color="#FADD55"/>
<stop offset="0.333" stop-color="#FFE55A"/>
<stop offset="0.516" stop-color="#FFEC88"/>
<stop offset="0.661" stop-color="#FFE55A"/>
<stop offset="1" stop-color="#B47A1A"/>
</linearGradient>
<linearGradient id="paint2_linear_3960_28839" x1="3.25092" y1="3.9424" x2="4.24216" y2="3.9424" gradientUnits="userSpaceOnUse">
<stop stop-color="#B47A1A"/>
<stop offset="0.053" stop-color="#B8801E"/>
<stop offset="0.129" stop-color="#C69329"/>
<stop offset="0.219" stop-color="#DBB23C"/>
<stop offset="0.318" stop-color="#FADD55"/>
<stop offset="0.333" stop-color="#FFE55A"/>
<stop offset="0.516" stop-color="#FFEC88"/>
<stop offset="0.661" stop-color="#FFE55A"/>
<stop offset="1" stop-color="#B47A1A"/>
</linearGradient>
<linearGradient id="paint3_linear_3960_28839" x1="12.375" y1="3.9424" x2="13.3667" y2="3.9424" gradientUnits="userSpaceOnUse">
<stop stop-color="#B47A1A"/>
<stop offset="0.053" stop-color="#B8801E"/>
<stop offset="0.129" stop-color="#C69329"/>
<stop offset="0.219" stop-color="#DBB23C"/>
<stop offset="0.318" stop-color="#FADD55"/>
<stop offset="0.333" stop-color="#FFE55A"/>
<stop offset="0.516" stop-color="#FFEC88"/>
<stop offset="0.661" stop-color="#FFE55A"/>
<stop offset="1" stop-color="#B47A1A"/>
</linearGradient>
<linearGradient id="paint4_linear_3960_28839" x1="7.30103" y1="0.87235" x2="9.04501" y2="0.87235" gradientUnits="userSpaceOnUse">
<stop stop-color="#B47A1A"/>
<stop offset="0.053" stop-color="#B8801E"/>
<stop offset="0.129" stop-color="#C69329"/>
<stop offset="0.219" stop-color="#DBB23C"/>
<stop offset="0.318" stop-color="#FADD55"/>
<stop offset="0.333" stop-color="#FFE55A"/>
<stop offset="0.516" stop-color="#FFEC88"/>
<stop offset="0.661" stop-color="#FFE55A"/>
<stop offset="1" stop-color="#B47A1A"/>
</linearGradient>
<linearGradient id="paint5_linear_3960_28839" x1="0.494202" y1="6.65603" x2="16.0826" y2="6.65603" gradientUnits="userSpaceOnUse">
<stop stop-color="#B47A1A"/>
<stop offset="0.053" stop-color="#B8801E"/>
<stop offset="0.129" stop-color="#C69329"/>
<stop offset="0.219" stop-color="#DBB23C"/>
<stop offset="0.318" stop-color="#FADD55"/>
<stop offset="0.333" stop-color="#FFE55A"/>
<stop offset="0.516" stop-color="#FFEC88"/>
<stop offset="0.661" stop-color="#FFE55A"/>
<stop offset="1" stop-color="#B47A1A"/>
</linearGradient>
<linearGradient id="paint6_linear_3960_28839" x1="2.52393" y1="13.2824" x2="14.0571" y2="13.2824" gradientUnits="userSpaceOnUse">
<stop stop-color="#B47A1A"/>
<stop offset="0.053" stop-color="#B8801E"/>
<stop offset="0.129" stop-color="#C69329"/>
<stop offset="0.219" stop-color="#DBB23C"/>
<stop offset="0.318" stop-color="#FADD55"/>
<stop offset="0.333" stop-color="#FFE55A"/>
<stop offset="0.516" stop-color="#FFEC88"/>
<stop offset="0.661" stop-color="#FFE55A"/>
<stop offset="1" stop-color="#B47A1A"/>
</linearGradient>
<linearGradient id="paint7_linear_3960_28839" x1="2.39746" y1="6.7728" x2="3.69714" y2="6.7728" gradientUnits="userSpaceOnUse">
<stop stop-color="#B47A1A"/>
<stop offset="0.053" stop-color="#B8801E"/>
<stop offset="0.129" stop-color="#C69329"/>
<stop offset="0.219" stop-color="#DBB23C"/>
<stop offset="0.318" stop-color="#FADD55"/>
<stop offset="0.333" stop-color="#FFE55A"/>
<stop offset="0.516" stop-color="#FFEC88"/>
<stop offset="0.661" stop-color="#FFE55A"/>
<stop offset="1" stop-color="#B47A1A"/>
</linearGradient>
<linearGradient id="paint8_linear_3960_28839" x1="12.7855" y1="6.84581" x2="14.0834" y2="6.84581" gradientUnits="userSpaceOnUse">
<stop stop-color="#B47A1A"/>
<stop offset="0.053" stop-color="#B8801E"/>
<stop offset="0.129" stop-color="#C69329"/>
<stop offset="0.219" stop-color="#DBB23C"/>
<stop offset="0.318" stop-color="#FADD55"/>
<stop offset="0.333" stop-color="#FFE55A"/>
<stop offset="0.516" stop-color="#FFEC88"/>
<stop offset="0.661" stop-color="#FFE55A"/>
<stop offset="1" stop-color="#B47A1A"/>
</linearGradient>
<linearGradient id="paint9_linear_3960_28839" x1="5.23737" y1="5.83428" x2="6.29973" y2="5.83428" gradientUnits="userSpaceOnUse">
<stop stop-color="#B47A1A"/>
<stop offset="0.053" stop-color="#B8801E"/>
<stop offset="0.129" stop-color="#C69329"/>
<stop offset="0.219" stop-color="#DBB23C"/>
<stop offset="0.318" stop-color="#FADD55"/>
<stop offset="0.333" stop-color="#FFE55A"/>
<stop offset="0.516" stop-color="#FFEC88"/>
<stop offset="0.661" stop-color="#FFE55A"/>
<stop offset="1" stop-color="#B47A1A"/>
</linearGradient>
<linearGradient id="paint10_linear_3960_28839" x1="10.1192" y1="5.83428" x2="11.1871" y2="5.83428" gradientUnits="userSpaceOnUse">
<stop stop-color="#B47A1A"/>
<stop offset="0.053" stop-color="#B8801E"/>
<stop offset="0.129" stop-color="#C69329"/>
<stop offset="0.219" stop-color="#DBB23C"/>
<stop offset="0.318" stop-color="#FADD55"/>
<stop offset="0.333" stop-color="#FFE55A"/>
<stop offset="0.516" stop-color="#FFEC88"/>
<stop offset="0.661" stop-color="#FFE55A"/>
<stop offset="1" stop-color="#B47A1A"/>
</linearGradient>
</defs>
</svg>
