<svg width="39" height="39" viewBox="0 0 39 39" fill="none" xmlns="http://www.w3.org/2000/svg">
<g clip-path="url(#clip0_1414_40584)">
<g filter="url(#filter0_d_1414_40584)">
<path d="M32.5 6.5C33.362 6.5 34.1886 6.84241 34.7981 7.4519C35.4076 8.0614 35.75 8.88805 35.75 9.75V26C35.75 27.8037 34.3037 29.25 32.5 29.25H39V32.5H0V29.25H6.5C5.63805 29.25 4.8114 28.9076 4.2019 28.2981C3.59241 27.6886 3.25 26.862 3.25 26V9.75C3.25 7.94625 4.69625 6.5 6.5 6.5H32.5ZM32.5 9.75H6.5V26H32.5V9.75ZM19.5 19.5C23.0912 19.5 26 20.9625 26 22.75V24.375H13V22.75C13 20.9625 15.9087 19.5 19.5 19.5ZM19.5 11.375C20.362 11.375 21.1886 11.7174 21.7981 12.3269C22.4076 12.9364 22.75 13.763 22.75 14.625C22.75 15.487 22.4076 16.3136 21.7981 16.9231C21.1886 17.5326 20.362 17.875 19.5 17.875C17.6963 17.875 16.25 16.4288 16.25 14.625C16.25 12.8212 17.7125 11.375 19.5 11.375Z" fill="#2C50ED"/>
</g>
</g>
<defs>
<filter id="filter0_d_1414_40584" x="-4" y="6.5" width="47" height="34" filterUnits="userSpaceOnUse" color-interpolation-filters="sRGB">
<feFlood flood-opacity="0" result="BackgroundImageFix"/>
<feColorMatrix in="SourceAlpha" type="matrix" values="0 0 0 0 0 0 0 0 0 0 0 0 0 0 0 0 0 0 127 0" result="hardAlpha"/>
<feOffset dy="4"/>
<feGaussianBlur stdDeviation="2"/>
<feComposite in2="hardAlpha" operator="out"/>
<feColorMatrix type="matrix" values="0 0 0 0 0 0 0 0 0 0 0 0 0 0 0 0 0 0 0.25 0"/>
<feBlend mode="normal" in2="BackgroundImageFix" result="effect1_dropShadow_1414_40584"/>
<feBlend mode="normal" in="SourceGraphic" in2="effect1_dropShadow_1414_40584" result="shape"/>
</filter>
<clipPath id="clip0_1414_40584">
<rect width="39" height="39" fill="white"/>
</clipPath>
</defs>
</svg>
