<svg width="26" height="19" viewBox="0 0 26 19" fill="none" xmlns="http://www.w3.org/2000/svg">
<path fill-rule="evenodd" clip-rule="evenodd" d="M7.69235 9.6286e-09C7.58014 -1.5718e-05 7.46902 0.0196022 7.36535 0.0577321C7.26167 0.0958619 7.16747 0.151757 7.08813 0.222225C7.00878 0.292693 6.94584 0.376354 6.90291 0.468429C6.85998 0.560503 6.83789 0.659187 6.83791 0.758844V18.2122C6.83791 18.4135 6.92793 18.6065 7.08817 18.7488C7.24841 18.8911 7.46574 18.9711 7.69235 18.9711C7.91896 18.9711 8.13629 18.8911 8.29653 18.7488C8.45677 18.6065 8.54679 18.4135 8.54679 18.2122V0.758842C8.54681 0.659185 8.52472 0.560501 8.48178 0.468427C8.43885 0.376353 8.37591 0.292693 8.29657 0.222225C8.21722 0.151757 8.12302 0.095861 8.01935 0.0577312C7.91568 0.0196015 7.80456 -1.58665e-05 7.69235 9.6286e-09ZM3.94454 3.48012C4.04821 3.44217 4.15933 3.42265 4.27154 3.42266C4.38375 3.42265 4.49487 3.44217 4.59854 3.48012C4.70221 3.51807 4.79641 3.57371 4.87576 3.64384C4.95511 3.71398 5.01804 3.79725 5.06098 3.88889C5.10391 3.98054 5.126 4.07876 5.12598 4.17795V14.794C5.12598 14.9943 5.03596 15.1864 4.87572 15.328C4.71548 15.4697 4.49815 15.5493 4.27154 15.5493C4.04493 15.5493 3.8276 15.4697 3.66736 15.328C3.50712 15.1864 3.4171 14.9943 3.4171 14.794V4.17795C3.41708 4.07876 3.43917 3.98054 3.4821 3.88889C3.52504 3.79725 3.58797 3.71398 3.66732 3.64385C3.74667 3.57371 3.84086 3.51807 3.94454 3.48012ZM0.527439 6.38096C0.631113 6.34308 0.742228 6.3236 0.85444 6.32361C0.966652 6.3236 1.07777 6.34308 1.18144 6.38096C1.28511 6.41884 1.37931 6.47436 1.45866 6.54436C1.53801 6.61436 1.60094 6.69747 1.64388 6.78893C1.68681 6.88039 1.7089 6.97842 1.70888 7.07742V11.8935C1.70888 11.9925 1.68678 12.0905 1.64384 12.182C1.6009 12.2734 1.53796 12.3565 1.45862 12.4265C1.37928 12.4965 1.28509 12.552 1.18142 12.5899C1.07776 12.6278 0.966647 12.6473 0.85444 12.6473C0.742234 12.6473 0.631126 12.6278 0.52746 12.5899C0.423795 12.552 0.329602 12.4965 0.25026 12.4265C0.170918 12.3565 0.107981 12.2734 0.065041 12.182C0.0221013 12.0905 1.08597e-08 11.9925 1.08597e-08 11.8935V7.07742C-1.78803e-05 6.97842 0.0220707 6.88039 0.065004 6.78893C0.107937 6.69747 0.170875 6.61436 0.25022 6.54436C0.329566 6.47436 0.423766 6.41884 0.527439 6.38096ZM10.7787 3.48012C10.8824 3.44217 10.9935 3.42265 11.1057 3.42266C11.2179 3.42265 11.3291 3.44217 11.4327 3.48012C11.5364 3.51807 11.6306 3.57371 11.71 3.64384C11.7893 3.71398 11.8522 3.79725 11.8952 3.88889C11.9381 3.98054 11.9602 4.07876 11.9602 4.17795V14.794C11.9602 14.9943 11.8702 15.1864 11.7099 15.328C11.5497 15.4697 11.3323 15.5493 11.1057 15.5493C10.8791 15.5493 10.6618 15.4697 10.5016 15.328C10.3413 15.1864 10.2513 14.9943 10.2513 14.794V4.17795C10.2513 4.07876 10.2734 3.98054 10.3163 3.88889C10.3592 3.79725 10.4222 3.71398 10.5015 3.64384C10.5809 3.57371 10.6751 3.51807 10.7787 3.48012ZM14.5253 6.32361C14.4131 6.3236 14.302 6.34308 14.1983 6.38096C14.0946 6.41884 14.0004 6.47436 13.9211 6.54436C13.8417 6.61436 13.7788 6.69747 13.7359 6.78893C13.6929 6.88039 13.6709 6.97842 13.6709 7.07742V11.8935C13.6709 12.0934 13.7609 12.2851 13.9211 12.4265C14.0814 12.5679 14.2987 12.6473 14.5253 12.6473C14.7519 12.6473 14.9693 12.5679 15.1295 12.4265C15.2897 12.2851 15.3798 12.0934 15.3798 11.8935V7.07742C15.3798 6.97842 15.3577 6.88039 15.3147 6.78893C15.2718 6.69747 15.2089 6.61436 15.1295 6.54436C15.0502 6.47436 14.956 6.41884 14.8523 6.38096C14.7486 6.34308 14.6375 6.3236 14.5253 6.32361ZM17.6154 3.48012C17.7191 3.44217 17.8302 3.42265 17.9424 3.42266C18.0546 3.42265 18.1657 3.44217 18.2694 3.48012C18.3731 3.51807 18.4673 3.57371 18.5466 3.64384C18.626 3.71398 18.6889 3.79725 18.7318 3.88889C18.7748 3.98054 18.7969 4.07876 18.7968 4.17795V14.794C18.7968 14.9943 18.7068 15.1864 18.5466 15.328C18.3864 15.4697 18.169 15.5493 17.9424 15.5493C17.7158 15.5493 17.4985 15.4697 17.3382 15.328C17.178 15.1864 17.088 14.9943 17.088 14.794V4.17795C17.088 4.07876 17.11 3.98054 17.153 3.88889C17.1959 3.79725 17.2588 3.71398 17.3382 3.64384C17.4175 3.57371 17.5117 3.51807 17.6154 3.48012ZM21.362 6.32361C21.2498 6.3236 21.1387 6.34308 21.035 6.38096C20.9313 6.41884 20.8371 6.47436 20.7578 6.54436C20.6784 6.61436 20.6155 6.69747 20.5725 6.78893C20.5296 6.88039 20.5075 6.97842 20.5075 7.07742V11.8935C20.5075 12.0934 20.5976 12.2851 20.7578 12.4265C20.918 12.5679 21.1354 12.6473 21.362 12.6473C21.5886 12.6473 21.8059 12.5679 21.9662 12.4265C22.1264 12.2851 22.2164 12.0934 22.2164 11.8935V7.07742C22.2164 6.97842 22.1943 6.88039 22.1514 6.78893C22.1085 6.69747 22.0455 6.61436 21.9662 6.54436C21.8869 6.47436 21.7927 6.41884 21.689 6.38096C21.5853 6.34308 21.4742 6.3236 21.362 6.32361ZM24.6698 8.70408C24.259 8.70408 23.9259 9.03717 23.9259 9.44805C23.9259 9.85893 24.259 10.192 24.6698 10.192H24.8908C25.3017 10.192 25.6348 9.85893 25.6348 9.44805C25.6348 9.03717 25.3017 8.70408 24.8908 8.70408H24.6698Z" fill="url(#paint0_linear_3865_27545)"/>
<path fill-rule="evenodd" clip-rule="evenodd" d="M7.69235 9.6286e-09C7.58014 -1.5718e-05 7.46902 0.0196022 7.36535 0.0577321C7.26167 0.0958619 7.16747 0.151757 7.08813 0.222225C7.00878 0.292693 6.94584 0.376354 6.90291 0.468429C6.85998 0.560503 6.83789 0.659187 6.83791 0.758844V18.2122C6.83791 18.4135 6.92793 18.6065 7.08817 18.7488C7.24841 18.8911 7.46574 18.9711 7.69235 18.9711C7.91896 18.9711 8.13629 18.8911 8.29653 18.7488C8.45677 18.6065 8.54679 18.4135 8.54679 18.2122V0.758842C8.54681 0.659185 8.52472 0.560501 8.48178 0.468427C8.43885 0.376353 8.37591 0.292693 8.29657 0.222225C8.21722 0.151757 8.12302 0.095861 8.01935 0.0577312C7.91568 0.0196015 7.80456 -1.58665e-05 7.69235 9.6286e-09ZM3.94454 3.48012C4.04821 3.44217 4.15933 3.42265 4.27154 3.42266C4.38375 3.42265 4.49487 3.44217 4.59854 3.48012C4.70221 3.51807 4.79641 3.57371 4.87576 3.64384C4.95511 3.71398 5.01804 3.79725 5.06098 3.88889C5.10391 3.98054 5.126 4.07876 5.12598 4.17795V14.794C5.12598 14.9943 5.03596 15.1864 4.87572 15.328C4.71548 15.4697 4.49815 15.5493 4.27154 15.5493C4.04493 15.5493 3.8276 15.4697 3.66736 15.328C3.50712 15.1864 3.4171 14.9943 3.4171 14.794V4.17795C3.41708 4.07876 3.43917 3.98054 3.4821 3.88889C3.52504 3.79725 3.58797 3.71398 3.66732 3.64385C3.74667 3.57371 3.84086 3.51807 3.94454 3.48012ZM0.527439 6.38096C0.631113 6.34308 0.742228 6.3236 0.85444 6.32361C0.966652 6.3236 1.07777 6.34308 1.18144 6.38096C1.28511 6.41884 1.37931 6.47436 1.45866 6.54436C1.53801 6.61436 1.60094 6.69747 1.64388 6.78893C1.68681 6.88039 1.7089 6.97842 1.70888 7.07742V11.8935C1.70888 11.9925 1.68678 12.0905 1.64384 12.182C1.6009 12.2734 1.53796 12.3565 1.45862 12.4265C1.37928 12.4965 1.28509 12.552 1.18142 12.5899C1.07776 12.6278 0.966647 12.6473 0.85444 12.6473C0.742234 12.6473 0.631126 12.6278 0.52746 12.5899C0.423795 12.552 0.329602 12.4965 0.25026 12.4265C0.170918 12.3565 0.107981 12.2734 0.065041 12.182C0.0221013 12.0905 1.08597e-08 11.9925 1.08597e-08 11.8935V7.07742C-1.78803e-05 6.97842 0.0220707 6.88039 0.065004 6.78893C0.107937 6.69747 0.170875 6.61436 0.25022 6.54436C0.329566 6.47436 0.423766 6.41884 0.527439 6.38096ZM10.7787 3.48012C10.8824 3.44217 10.9935 3.42265 11.1057 3.42266C11.2179 3.42265 11.3291 3.44217 11.4327 3.48012C11.5364 3.51807 11.6306 3.57371 11.71 3.64384C11.7893 3.71398 11.8522 3.79725 11.8952 3.88889C11.9381 3.98054 11.9602 4.07876 11.9602 4.17795V14.794C11.9602 14.9943 11.8702 15.1864 11.7099 15.328C11.5497 15.4697 11.3323 15.5493 11.1057 15.5493C10.8791 15.5493 10.6618 15.4697 10.5016 15.328C10.3413 15.1864 10.2513 14.9943 10.2513 14.794V4.17795C10.2513 4.07876 10.2734 3.98054 10.3163 3.88889C10.3592 3.79725 10.4222 3.71398 10.5015 3.64384C10.5809 3.57371 10.6751 3.51807 10.7787 3.48012ZM14.5253 6.32361C14.4131 6.3236 14.302 6.34308 14.1983 6.38096C14.0946 6.41884 14.0004 6.47436 13.9211 6.54436C13.8417 6.61436 13.7788 6.69747 13.7359 6.78893C13.6929 6.88039 13.6709 6.97842 13.6709 7.07742V11.8935C13.6709 12.0934 13.7609 12.2851 13.9211 12.4265C14.0814 12.5679 14.2987 12.6473 14.5253 12.6473C14.7519 12.6473 14.9693 12.5679 15.1295 12.4265C15.2897 12.2851 15.3798 12.0934 15.3798 11.8935V7.07742C15.3798 6.97842 15.3577 6.88039 15.3147 6.78893C15.2718 6.69747 15.2089 6.61436 15.1295 6.54436C15.0502 6.47436 14.956 6.41884 14.8523 6.38096C14.7486 6.34308 14.6375 6.3236 14.5253 6.32361ZM17.6154 3.48012C17.7191 3.44217 17.8302 3.42265 17.9424 3.42266C18.0546 3.42265 18.1657 3.44217 18.2694 3.48012C18.3731 3.51807 18.4673 3.57371 18.5466 3.64384C18.626 3.71398 18.6889 3.79725 18.7318 3.88889C18.7748 3.98054 18.7969 4.07876 18.7968 4.17795V14.794C18.7968 14.9943 18.7068 15.1864 18.5466 15.328C18.3864 15.4697 18.169 15.5493 17.9424 15.5493C17.7158 15.5493 17.4985 15.4697 17.3382 15.328C17.178 15.1864 17.088 14.9943 17.088 14.794V4.17795C17.088 4.07876 17.11 3.98054 17.153 3.88889C17.1959 3.79725 17.2588 3.71398 17.3382 3.64384C17.4175 3.57371 17.5117 3.51807 17.6154 3.48012ZM21.362 6.32361C21.2498 6.3236 21.1387 6.34308 21.035 6.38096C20.9313 6.41884 20.8371 6.47436 20.7578 6.54436C20.6784 6.61436 20.6155 6.69747 20.5725 6.78893C20.5296 6.88039 20.5075 6.97842 20.5075 7.07742V11.8935C20.5075 12.0934 20.5976 12.2851 20.7578 12.4265C20.918 12.5679 21.1354 12.6473 21.362 12.6473C21.5886 12.6473 21.8059 12.5679 21.9662 12.4265C22.1264 12.2851 22.2164 12.0934 22.2164 11.8935V7.07742C22.2164 6.97842 22.1943 6.88039 22.1514 6.78893C22.1085 6.69747 22.0455 6.61436 21.9662 6.54436C21.8869 6.47436 21.7927 6.41884 21.689 6.38096C21.5853 6.34308 21.4742 6.3236 21.362 6.32361ZM24.6698 8.70408C24.259 8.70408 23.9259 9.03717 23.9259 9.44805C23.9259 9.85893 24.259 10.192 24.6698 10.192H24.8908C25.3017 10.192 25.6348 9.85893 25.6348 9.44805C25.6348 9.03717 25.3017 8.70408 24.8908 8.70408H24.6698Z" fill="url(#paint1_linear_3865_27545)"/>
<path fill-rule="evenodd" clip-rule="evenodd" d="M7.69235 9.6286e-09C7.58014 -1.5718e-05 7.46902 0.0196022 7.36535 0.0577321C7.26167 0.0958619 7.16747 0.151757 7.08813 0.222225C7.00878 0.292693 6.94584 0.376354 6.90291 0.468429C6.85998 0.560503 6.83789 0.659187 6.83791 0.758844V18.2122C6.83791 18.4135 6.92793 18.6065 7.08817 18.7488C7.24841 18.8911 7.46574 18.9711 7.69235 18.9711C7.91896 18.9711 8.13629 18.8911 8.29653 18.7488C8.45677 18.6065 8.54679 18.4135 8.54679 18.2122V0.758842C8.54681 0.659185 8.52472 0.560501 8.48178 0.468427C8.43885 0.376353 8.37591 0.292693 8.29657 0.222225C8.21722 0.151757 8.12302 0.095861 8.01935 0.0577312C7.91568 0.0196015 7.80456 -1.58665e-05 7.69235 9.6286e-09ZM3.94454 3.48012C4.04821 3.44217 4.15933 3.42265 4.27154 3.42266C4.38375 3.42265 4.49487 3.44217 4.59854 3.48012C4.70221 3.51807 4.79641 3.57371 4.87576 3.64384C4.95511 3.71398 5.01804 3.79725 5.06098 3.88889C5.10391 3.98054 5.126 4.07876 5.12598 4.17795V14.794C5.12598 14.9943 5.03596 15.1864 4.87572 15.328C4.71548 15.4697 4.49815 15.5493 4.27154 15.5493C4.04493 15.5493 3.8276 15.4697 3.66736 15.328C3.50712 15.1864 3.4171 14.9943 3.4171 14.794V4.17795C3.41708 4.07876 3.43917 3.98054 3.4821 3.88889C3.52504 3.79725 3.58797 3.71398 3.66732 3.64385C3.74667 3.57371 3.84086 3.51807 3.94454 3.48012ZM0.527439 6.38096C0.631113 6.34308 0.742228 6.3236 0.85444 6.32361C0.966652 6.3236 1.07777 6.34308 1.18144 6.38096C1.28511 6.41884 1.37931 6.47436 1.45866 6.54436C1.53801 6.61436 1.60094 6.69747 1.64388 6.78893C1.68681 6.88039 1.7089 6.97842 1.70888 7.07742V11.8935C1.70888 11.9925 1.68678 12.0905 1.64384 12.182C1.6009 12.2734 1.53796 12.3565 1.45862 12.4265C1.37928 12.4965 1.28509 12.552 1.18142 12.5899C1.07776 12.6278 0.966647 12.6473 0.85444 12.6473C0.742234 12.6473 0.631126 12.6278 0.52746 12.5899C0.423795 12.552 0.329602 12.4965 0.25026 12.4265C0.170918 12.3565 0.107981 12.2734 0.065041 12.182C0.0221013 12.0905 1.08597e-08 11.9925 1.08597e-08 11.8935V7.07742C-1.78803e-05 6.97842 0.0220707 6.88039 0.065004 6.78893C0.107937 6.69747 0.170875 6.61436 0.25022 6.54436C0.329566 6.47436 0.423766 6.41884 0.527439 6.38096ZM10.7787 3.48012C10.8824 3.44217 10.9935 3.42265 11.1057 3.42266C11.2179 3.42265 11.3291 3.44217 11.4327 3.48012C11.5364 3.51807 11.6306 3.57371 11.71 3.64384C11.7893 3.71398 11.8522 3.79725 11.8952 3.88889C11.9381 3.98054 11.9602 4.07876 11.9602 4.17795V14.794C11.9602 14.9943 11.8702 15.1864 11.7099 15.328C11.5497 15.4697 11.3323 15.5493 11.1057 15.5493C10.8791 15.5493 10.6618 15.4697 10.5016 15.328C10.3413 15.1864 10.2513 14.9943 10.2513 14.794V4.17795C10.2513 4.07876 10.2734 3.98054 10.3163 3.88889C10.3592 3.79725 10.4222 3.71398 10.5015 3.64384C10.5809 3.57371 10.6751 3.51807 10.7787 3.48012ZM14.5253 6.32361C14.4131 6.3236 14.302 6.34308 14.1983 6.38096C14.0946 6.41884 14.0004 6.47436 13.9211 6.54436C13.8417 6.61436 13.7788 6.69747 13.7359 6.78893C13.6929 6.88039 13.6709 6.97842 13.6709 7.07742V11.8935C13.6709 12.0934 13.7609 12.2851 13.9211 12.4265C14.0814 12.5679 14.2987 12.6473 14.5253 12.6473C14.7519 12.6473 14.9693 12.5679 15.1295 12.4265C15.2897 12.2851 15.3798 12.0934 15.3798 11.8935V7.07742C15.3798 6.97842 15.3577 6.88039 15.3147 6.78893C15.2718 6.69747 15.2089 6.61436 15.1295 6.54436C15.0502 6.47436 14.956 6.41884 14.8523 6.38096C14.7486 6.34308 14.6375 6.3236 14.5253 6.32361ZM17.6154 3.48012C17.7191 3.44217 17.8302 3.42265 17.9424 3.42266C18.0546 3.42265 18.1657 3.44217 18.2694 3.48012C18.3731 3.51807 18.4673 3.57371 18.5466 3.64384C18.626 3.71398 18.6889 3.79725 18.7318 3.88889C18.7748 3.98054 18.7969 4.07876 18.7968 4.17795V14.794C18.7968 14.9943 18.7068 15.1864 18.5466 15.328C18.3864 15.4697 18.169 15.5493 17.9424 15.5493C17.7158 15.5493 17.4985 15.4697 17.3382 15.328C17.178 15.1864 17.088 14.9943 17.088 14.794V4.17795C17.088 4.07876 17.11 3.98054 17.153 3.88889C17.1959 3.79725 17.2588 3.71398 17.3382 3.64384C17.4175 3.57371 17.5117 3.51807 17.6154 3.48012ZM21.362 6.32361C21.2498 6.3236 21.1387 6.34308 21.035 6.38096C20.9313 6.41884 20.8371 6.47436 20.7578 6.54436C20.6784 6.61436 20.6155 6.69747 20.5725 6.78893C20.5296 6.88039 20.5075 6.97842 20.5075 7.07742V11.8935C20.5075 12.0934 20.5976 12.2851 20.7578 12.4265C20.918 12.5679 21.1354 12.6473 21.362 12.6473C21.5886 12.6473 21.8059 12.5679 21.9662 12.4265C22.1264 12.2851 22.2164 12.0934 22.2164 11.8935V7.07742C22.2164 6.97842 22.1943 6.88039 22.1514 6.78893C22.1085 6.69747 22.0455 6.61436 21.9662 6.54436C21.8869 6.47436 21.7927 6.41884 21.689 6.38096C21.5853 6.34308 21.4742 6.3236 21.362 6.32361ZM24.6698 8.70408C24.259 8.70408 23.9259 9.03717 23.9259 9.44805C23.9259 9.85893 24.259 10.192 24.6698 10.192H24.8908C25.3017 10.192 25.6348 9.85893 25.6348 9.44805C25.6348 9.03717 25.3017 8.70408 24.8908 8.70408H24.6698Z" fill="url(#paint2_linear_3865_27545)"/>
<defs>
<linearGradient id="paint0_linear_3865_27545" x1="12.8174" y1="0" x2="12.8174" y2="18.9711" gradientUnits="userSpaceOnUse">
<stop stop-color="#D284A0"/>
<stop offset="1" stop-color="#FF4084"/>
</linearGradient>
<linearGradient id="paint1_linear_3865_27545" x1="2.21839" y1="-9.70872" x2="7.27407" y2="9.88529" gradientUnits="userSpaceOnUse">
<stop stop-color="#F7C7DE"/>
<stop offset="1" stop-color="#FF4084"/>
</linearGradient>
<linearGradient id="paint2_linear_3865_27545" x1="17.3528" y1="32.3996" x2="13.0392" y2="13.7433" gradientUnits="userSpaceOnUse">
<stop stop-color="#CA728D"/>
<stop offset="1" stop-color="#FF4084"/>
</linearGradient>
</defs>
</svg>
