<svg width="12" height="12" viewBox="0 0 12 12" fill="none" xmlns="http://www.w3.org/2000/svg">
<path d="M6.60445 12C5.3302 10.7184 4.10059 9.48829 2.88101 8.24699C2.73257 8.0784 2.51583 7.98658 2.29186 7.99739C1.53423 8.01306 0.775485 7.99739 0 7.99739V3.99702C0.781064 3.99702 1.53423 3.98694 2.29186 4.00261C2.51622 4.01377 2.73344 3.92191 2.88213 3.75301C4.1017 2.51283 5.3369 1.2816 6.60669 0L6.60445 12Z" fill="#777777"/>
<path d="M7.99811 10.6726C7.99811 10.2909 7.98025 9.91035 8.0115 9.53315C8.01819 9.44473 8.17664 9.33168 8.2871 9.29586C9.63394 8.85496 10.582 7.64176 10.6872 6.2245C10.7743 4.67468 9.82468 3.25537 8.36186 2.74908C8.0684 2.65394 7.96686 2.52522 7.99253 2.23309C8.01819 1.94095 7.99253 1.63874 7.99253 1.33765C10.2958 1.68368 12 3.66828 12 6.00456C12 8.34085 10.2958 10.3254 7.99253 10.6715L7.99811 10.6726Z" fill="#777777"/>
<path d="M8.00479 7.96042V4.07422C8.6408 4.08765 9.28016 4.99652 9.33595 5.8651C9.43821 6.79055 8.88423 7.66256 8.00479 7.96042Z" fill="#777777"/>
</svg>
