<svg width="32" height="32" viewBox="0 0 32 32" fill="none" xmlns="http://www.w3.org/2000/svg">
<g clip-path="url(#clip0_1414_40615)">
<g filter="url(#filter0_d_1414_40615)">
<path d="M17.94 13.29C17.998 11.557 19.635 10 21.633 10C22.466 10 23.245 10.3 23.839 10.616C24.439 10.936 24.939 11.321 25.235 11.602C25.3304 11.6924 25.407 11.8006 25.4605 11.9206C25.514 12.0405 25.5434 12.1698 25.5469 12.3011C25.5504 12.4324 25.5281 12.5632 25.4811 12.6858C25.4341 12.8085 25.3634 12.9207 25.273 13.016C25.1827 13.1114 25.0744 13.188 24.9545 13.2415C24.8345 13.295 24.7052 13.3243 24.5739 13.3279C24.4426 13.3314 24.3119 13.309 24.1892 13.262C24.0666 13.215 23.9544 13.1444 23.859 13.054C23.5678 12.7904 23.245 12.564 22.898 12.38C22.454 12.143 22.009 12 21.633 12C20.606 12 19.958 12.805 19.94 13.357C19.928 13.697 20.05 13.978 20.402 14.272C20.793 14.597 21.44 14.902 22.38 15.164C23.667 15.521 24.655 16.198 25.162 17.16C25.68 18.143 25.602 19.242 25.102 20.203C24.8434 20.7047 24.4656 21.1354 24.0019 21.4572C23.5382 21.7791 23.0026 21.9823 22.442 22.049C21.175 22.208 19.727 21.738 18.178 20.531C18.0744 20.4502 17.9877 20.3499 17.9229 20.2356C17.8581 20.1213 17.8164 19.9954 17.8003 19.865C17.7841 19.7347 17.7938 19.6024 17.8287 19.4758C17.8637 19.3491 17.9233 19.2306 18.004 19.127C18.0848 19.0234 18.1852 18.9367 18.2995 18.8719C18.4137 18.8071 18.5396 18.7654 18.67 18.7492C18.8004 18.7331 18.9327 18.7428 19.0593 18.7777C19.1859 18.8127 19.3044 18.8722 19.408 18.953C20.698 19.96 21.626 20.135 22.193 20.064C22.4322 20.0378 22.661 19.9525 22.859 19.8158C23.057 19.6791 23.2178 19.4954 23.327 19.281C23.575 18.804 23.557 18.404 23.393 18.093C23.219 17.763 22.783 17.351 21.845 17.091C20.793 16.798 19.831 16.398 19.122 15.809C18.375 15.187 17.906 14.344 17.941 13.291L17.94 13.29ZM7.07604 10.083C7.32323 9.98705 7.5984 9.99319 7.84106 10.1001C8.08372 10.207 8.274 10.4059 8.37004 10.653L11.219 17.994C11.259 18.1 11.409 18.101 11.451 17.996L14.433 10.64C14.4801 10.5152 14.5517 10.4011 14.6435 10.3044C14.7353 10.2076 14.8456 10.1302 14.9678 10.0768C15.09 10.0233 15.2216 9.99479 15.355 9.99295C15.4883 9.99112 15.6207 10.016 15.7443 10.0661C15.8679 10.1162 15.9803 10.1905 16.0747 10.2847C16.1692 10.3788 16.2439 10.491 16.2943 10.6144C16.3448 10.7379 16.3701 10.8702 16.3687 11.0036C16.3672 11.1369 16.3391 11.2687 16.286 11.391L12.239 21.376C12.1638 21.5617 12.0345 21.7204 11.8679 21.8317C11.7013 21.943 11.5051 22.0017 11.3048 22.0002C11.1045 21.9987 10.9092 21.9371 10.7443 21.8233C10.5794 21.7095 10.4525 21.5488 10.38 21.362L6.50504 11.377C6.40908 11.1298 6.41522 10.8546 6.52211 10.612C6.629 10.3693 6.82789 10.1791 7.07504 10.083H7.07604Z" fill="#2C50ED"/>
<path d="M6 1C5.34339 1 4.69321 1.12933 4.08658 1.3806C3.47995 1.63188 2.92876 2.00017 2.46447 2.46447C1.52678 3.40215 1 4.67392 1 6V26C1 27.3261 1.52678 28.5979 2.46447 29.5355C2.92876 29.9998 3.47995 30.3681 4.08658 30.6194C4.69321 30.8707 5.34339 31 6 31H26C27.3261 31 28.5979 30.4732 29.5355 29.5355C30.4732 28.5979 31 27.3261 31 26V6C31 5.34339 30.8707 4.69321 30.6194 4.08658C30.3681 3.47995 29.9998 2.92876 29.5355 2.46447C29.0712 2.00017 28.52 1.63188 27.9134 1.3806C27.3068 1.12933 26.6566 1 26 1H6ZM3 6C3 5.20435 3.31607 4.44129 3.87868 3.87868C4.44129 3.31607 5.20435 3 6 3H26C26.7956 3 27.5587 3.31607 28.1213 3.87868C28.6839 4.44129 29 5.20435 29 6V26C29 26.7956 28.6839 27.5587 28.1213 28.1213C27.5587 28.6839 26.7956 29 26 29H6C5.20435 29 4.44129 28.6839 3.87868 28.1213C3.31607 27.5587 3 26.7956 3 26V6Z" fill="#2C50ED"/>
</g>
</g>
<defs>
<filter id="filter0_d_1414_40615" x="-3" y="1" width="38" height="38" filterUnits="userSpaceOnUse" color-interpolation-filters="sRGB">
<feFlood flood-opacity="0" result="BackgroundImageFix"/>
<feColorMatrix in="SourceAlpha" type="matrix" values="0 0 0 0 0 0 0 0 0 0 0 0 0 0 0 0 0 0 127 0" result="hardAlpha"/>
<feOffset dy="4"/>
<feGaussianBlur stdDeviation="2"/>
<feComposite in2="hardAlpha" operator="out"/>
<feColorMatrix type="matrix" values="0 0 0 0 0 0 0 0 0 0 0 0 0 0 0 0 0 0 0.25 0"/>
<feBlend mode="normal" in2="BackgroundImageFix" result="effect1_dropShadow_1414_40615"/>
<feBlend mode="normal" in="SourceGraphic" in2="effect1_dropShadow_1414_40615" result="shape"/>
</filter>
<clipPath id="clip0_1414_40615">
<rect width="32" height="32" fill="white"/>
</clipPath>
</defs>
</svg>
