<svg width="33" height="32" viewBox="0 0 33 32" fill="none" xmlns="http://www.w3.org/2000/svg">
<path d="M19.463 4.18802C19.5039 4.13628 19.5546 4.09315 19.6123 4.0611C19.6699 4.02906 19.7333 4.00873 19.7989 4.0013C19.8644 3.99386 19.9307 3.99946 19.9941 4.01778C20.0574 4.03609 20.1165 4.06676 20.168 4.10801L21.248 4.97401L17.299 10H19.843L22.811 6.22401L25.315 8.23001C25.3675 8.27202 25.4109 8.32418 25.4428 8.38337C25.4746 8.44256 25.4942 8.50756 25.5004 8.57449C25.5065 8.64142 25.4991 8.7089 25.4786 8.77291C25.4581 8.83692 25.4249 8.89613 25.381 8.94701L24.473 10H27.087C27.4313 9.47977 27.5686 8.8496 27.472 8.23327C27.3755 7.61695 27.0519 7.059 26.565 6.66901L21.418 2.54701C21.1609 2.34115 20.8656 2.18813 20.5492 2.09673C20.2327 2.00534 19.9014 1.97738 19.5741 2.01446C19.2468 2.05153 18.9301 2.15292 18.6421 2.31279C18.3541 2.47265 18.1005 2.68785 17.896 2.94602L12.309 10H14.86L19.463 4.18802ZM21.5 19C21.2348 19 20.9804 19.1054 20.7929 19.2929C20.6054 19.4804 20.5 19.7348 20.5 20C20.5 20.2652 20.6054 20.5196 20.7929 20.7071C20.9804 20.8947 21.2348 21 21.5 21H24.5C24.7652 21 25.0196 20.8947 25.2071 20.7071C25.3946 20.5196 25.5 20.2652 25.5 20C25.5 19.7348 25.3946 19.4804 25.2071 19.2929C25.0196 19.1054 24.7652 19 24.5 19H21.5ZM6.5 7.00001C5.70435 7.00001 4.94129 7.31609 4.37868 7.87869C3.81607 8.4413 3.5 9.20437 3.5 10V24.5C3.5 25.6935 3.97411 26.8381 4.81802 27.682C5.66193 28.5259 6.80653 29 8 29H25C26.1935 29 27.3381 28.5259 28.182 27.682C29.0259 26.8381 29.5 25.6935 29.5 24.5V15.5C29.5 14.3065 29.0259 13.1619 28.182 12.318C27.3381 11.4741 26.1935 11 25 11H6.5C6.23478 11 5.98043 10.8947 5.79289 10.7071C5.60536 10.5196 5.5 10.2652 5.5 10C5.5 9.7348 5.60536 9.48044 5.79289 9.29291C5.98043 9.10537 6.23478 9.00001 6.5 9.00001H11.08L12.676 7.00001H6.5ZM5.5 24.5V12.83C5.813 12.94 6.15 13 6.5 13H25C25.663 13 26.2989 13.2634 26.7678 13.7322C27.2366 14.2011 27.5 14.837 27.5 15.5V24.5C27.5 25.1631 27.2366 25.7989 26.7678 26.2678C26.2989 26.7366 25.663 27 25 27H8C7.33696 27 6.70107 26.7366 6.23223 26.2678C5.76339 25.7989 5.5 25.1631 5.5 24.5Z" fill="#2C50ED"/>
</svg>
