<svg width="31" height="13" viewBox="0 0 31 13" fill="none" xmlns="http://www.w3.org/2000/svg">
<path d="M1.32411 1.8972L3.10911 1.5892L3.50911 2.4222C3.95395 3.61493 4.2642 4.85361 4.43411 6.1152L5.04311 5.8342C5.04311 5.8342 6.08711 4.5582 6.21811 4.4282C6.34911 4.2982 6.79111 3.4902 7.02611 3.4642C7.35807 3.31691 7.74554 3.37796 8.01611 3.6202C8.45911 4.0112 9.50111 5.2092 9.70911 5.3912C9.91711 5.5732 10.3091 5.9432 10.3091 5.9432C10.3091 5.9432 10.8031 6.0432 10.9591 5.8342C11.2651 5.11585 11.5175 4.37583 11.7141 3.6202C11.7442 3.21224 11.8231 2.80935 11.9491 2.4202C12.1051 2.1332 12.1261 1.9312 12.4651 1.7202C12.7172 1.56364 12.9992 1.46145 13.2931 1.4202C13.5531 1.3682 14.1371 1.7792 14.1371 1.7792C14.1371 1.7792 14.4501 2.4402 14.5541 2.7532C14.6581 3.0662 14.6841 2.8052 14.7361 3.4532C14.7804 3.86221 14.7176 4.2757 14.5541 4.6532C14.4241 5.1222 14.1371 8.9532 14.1371 8.9532L12.9371 11.3762C12.9371 11.3762 11.8171 11.8972 11.7131 11.8972C11.6091 11.8972 10.8281 11.7142 10.5411 11.6622C10.305 11.5937 10.0778 11.4977 9.86411 11.3762C9.65869 11.1985 9.47507 10.9971 9.31711 10.7762C9.05711 10.4372 8.66811 9.8102 8.66811 9.8102L8.01511 8.9522H8.21511C8.11511 8.8742 7.78111 7.9102 7.33811 8.2232C6.89511 8.5362 6.76511 8.7442 6.71311 8.9522C6.66111 9.1602 6.40111 9.2382 6.21811 9.7072C5.97702 10.1314 5.69823 10.533 5.38511 10.9072C5.17859 11.3283 4.93461 11.7299 4.65611 12.1072C4.34208 12.1912 4.01671 12.225 3.69211 12.2072C3.16266 12.139 2.69359 11.8321 2.41911 11.3742C2.18511 10.9312 1.75811 10.7742 1.49711 10.1222C1.20544 9.48274 0.988993 8.81158 0.852114 8.1222C0.852114 7.7572 0.570114 7.7942 0.544114 7.0132C0.516152 6.61288 0.453585 6.21573 0.357114 5.8262C0.331114 5.4612 0.357114 5.0712 0.357114 4.6542C0.357114 4.2372 0.226114 3.7682 0.434114 3.6122C0.642114 3.4562 0.705114 2.7522 0.734114 2.6222C0.906767 2.36194 1.10437 2.11913 1.32411 1.8972Z" fill="white"/>
<path d="M16.713 0.499223L17.281 0.178223L18.236 0.255223L18.736 0.879223L19.13 1.49422C19.0582 1.89828 18.9425 2.29329 18.785 2.67222C18.5603 2.78116 18.3207 2.8563 18.074 2.89522L16.874 2.40722L16.386 1.73722V1.06722L16.514 0.990223V0.879223" fill="white"/>
<path d="M18 4.41321L18.953 5.67921L19.141 10.5852L18.422 12.0232L16.828 11.2732L16.25 9.16421L16.344 6.78921L16.688 5.02321L16.969 4.55421L18 4.41321Z" fill="white"/>
<path d="M21.688 1.75614C21.969 1.61514 23.407 0.912143 24.235 2.91214C24.8273 4.29667 25.4949 5.64769 26.235 6.95914H26.798L27.048 6.45914L26.798 2.74014C26.798 2.74014 28.126 0.428143 29.998 2.74014C30.123 3.54014 31.373 11.6311 28.029 11.9121C25.592 11.3961 24.717 9.17814 24.467 9.25614C24.0045 10.127 23.6329 11.0432 23.358 11.9901L21.389 11.2401L20.764 9.58414L20.592 5.69314C20.592 5.69314 20.547 2.28814 21.688 1.75614Z" fill="white"/>
<path fill-rule="evenodd" clip-rule="evenodd" d="M16.6321 2.4162C16.3695 2.15035 16.2253 1.7898 16.2321 1.4162C16.2264 1.04104 16.3741 0.679829 16.6411 0.416198C16.9 0.144605 17.2608 -0.00624278 17.6361 0.00019813C18.0125 -0.00497087 18.3744 0.145562 18.6361 0.416198L19.1041 0.871198C19.3667 1.13704 19.5109 1.49759 19.5041 1.8712C19.5095 2.2465 19.3614 2.60774 19.0941 2.8712C18.8353 3.14253 18.4749 3.29336 18.1001 3.2872C17.7236 3.29237 17.3618 3.14183 17.1001 2.8712L16.6321 2.4162ZM8.52007 3.7822C7.87207 3.12353 7.24807 3.03253 6.64807 3.5092C6.42789 3.74292 6.23406 4.00013 6.07007 4.2762C5.81033 4.674 5.53029 5.05818 5.23107 5.4272C4.94507 5.77786 4.70674 5.96186 4.51607 5.9792C4.42523 5.68177 4.3728 5.37393 4.36007 5.0632C4.33407 4.67787 4.3234 4.32253 4.32807 3.9972C4.33167 3.66654 4.29439 3.33671 4.21707 3.0152C4.16622 2.73941 4.04027 2.483 3.85307 2.2742L3.38507 1.8062C3.15917 1.59598 2.86165 1.47976 2.55307 1.4812C2.05403 1.44412 1.55882 1.59222 1.16207 1.8972C0.79142 2.20265 0.529402 2.61971 0.415069 3.0862C0.272203 3.63826 0.198637 4.20596 0.196069 4.7762C0.191239 5.42725 0.251539 6.07715 0.376069 6.7162C0.501403 7.38286 0.652403 8.0232 0.829069 8.6372C0.987099 9.19345 1.18769 9.73672 1.42907 10.2622C1.59049 10.6382 1.80244 10.9905 2.05907 11.3092L2.15007 11.4002L2.60907 11.8552C2.84635 12.1078 3.16495 12.2689 3.50907 12.3102C3.85149 12.3546 4.19955 12.3052 4.51607 12.1672C4.83575 12.0291 5.1199 11.8202 5.34707 11.5562C5.5146 11.3362 5.6625 11.102 5.78907 10.8562C5.99707 10.4835 6.1944 10.1282 6.38107 9.7902C6.55362 9.47097 6.77043 9.17773 7.02507 8.9192C7.26774 8.67653 7.4844 8.5942 7.67507 8.6722C7.76169 8.70684 7.84447 8.75041 7.92207 8.8022C8.13196 9.12442 8.31459 9.4636 8.46807 9.8162C8.60751 10.1402 8.77271 10.4526 8.96207 10.7502C9.07427 10.9125 9.20041 11.0648 9.33907 11.2052L9.80707 11.6732C10.1626 12.0628 10.654 12.3011 11.1801 12.3392C11.7492 12.3514 12.3072 12.1807 12.7721 11.8522C12.9935 11.7006 13.1928 11.5188 13.3641 11.3122C13.536 11.108 13.6884 10.888 13.8191 10.6552C13.9641 10.3851 14.0839 10.1022 14.1771 9.8102C14.2924 9.4722 14.3834 9.1622 14.4501 8.8802C14.5201 8.59886 14.5917 8.23487 14.6651 7.7882C14.7384 7.34153 14.7967 6.9602 14.8401 6.6442C14.8834 6.32753 14.9417 5.90286 15.0151 5.3702C15.0884 4.83753 15.1467 4.4022 15.1901 4.0642C15.3601 3.38278 15.1798 2.66144 14.7091 2.1402L14.2541 1.6852C14.0063 1.42575 13.6638 1.27813 13.3051 1.2762C12.9359 1.27404 12.5808 1.41781 12.3171 1.6762C12.1958 1.80889 12.087 1.9525 11.9921 2.1052C11.8984 2.2515 11.8139 2.40346 11.7391 2.5602C11.658 2.73867 11.5912 2.92324 11.5391 3.1122C11.4744 3.3422 11.4291 3.51786 11.4031 3.6392C11.3744 3.76053 11.3354 3.94686 11.2861 4.1982C11.2367 4.44953 11.2034 4.60553 11.1861 4.6662C11.1313 5.01221 10.9853 5.33737 10.7631 5.6082C10.6152 5.79616 10.3502 5.84384 10.1461 5.7192C10.0954 5.65853 10.0067 5.5392 9.88007 5.3612C9.7534 5.1832 9.6534 5.04453 9.58007 4.9452C9.50607 4.8452 9.41274 4.7282 9.30007 4.5942C9.1874 4.4602 9.0834 4.3412 8.98807 4.2372L8.52007 3.7822ZM4.13607 5.7192L4.39607 5.9792C4.34192 5.96051 4.29293 5.92933 4.25307 5.8882C4.20527 5.83849 4.16577 5.78143 4.13607 5.7192ZM10.0771 5.6792L10.0752 5.67744L10.0801 5.6802L10.0771 5.6792ZM10.0752 5.67744C10.0141 5.64225 9.9579 5.59913 9.90807 5.5492C9.85185 5.49228 9.79972 5.43146 9.75207 5.3672L10.0752 5.67744ZM6.64207 3.9502C6.69073 3.86541 6.74949 3.78684 6.81707 3.7162C6.91738 3.6387 7.02772 3.57512 7.14507 3.5272C7.24782 3.48483 7.35967 3.46934 7.47007 3.4822C7.57201 3.49366 7.67253 3.51544 7.77007 3.5472C7.88249 3.59047 7.9859 3.65421 8.07507 3.7352C8.18774 3.83053 8.28307 3.9172 8.36107 3.9952C8.46444 4.10251 8.56191 4.21534 8.65307 4.3332C8.7704 4.4812 8.86574 4.60487 8.93907 4.7042L9.24507 5.1202L9.54507 5.5292C9.7086 5.76786 9.94617 5.94604 10.2211 6.0362C10.5114 6.11052 10.8173 5.99645 10.9881 5.7502C11.2157 5.44681 11.3713 5.09561 11.4431 4.7232C11.4431 4.6972 11.4734 4.5412 11.5341 4.2552C11.5914 3.96986 11.6324 3.78353 11.6571 3.6962C11.6817 3.60886 11.7274 3.4462 11.7941 3.2082C11.8443 3.02396 11.9074 2.84351 11.9831 2.6682C12.0397 2.54686 12.1134 2.4082 12.2041 2.2522C12.2823 2.11258 12.3811 1.9855 12.4971 1.8752C12.7412 1.62658 13.0874 1.50634 13.4331 1.5502C13.7918 1.61004 14.1033 1.83121 14.2781 2.1502C14.5102 2.58654 14.5811 3.09079 14.4781 3.5742C14.4347 3.90353 14.3741 4.3432 14.2961 4.8932C14.2121 5.44386 14.1484 5.86853 14.1051 6.1672C14.0617 6.46587 14.0011 6.84053 13.9231 7.2912C13.8451 7.74187 13.7737 8.0972 13.7091 8.3572C13.6444 8.6172 13.5601 8.91387 13.4561 9.2472C13.3729 9.53041 13.262 9.80473 13.1251 10.0662C13.0037 10.285 12.8621 10.4919 12.7021 10.6842C12.5486 10.8732 12.3692 11.0395 12.1691 11.1782C11.7176 11.5678 11.1123 11.7286 10.527 11.6145C9.94164 11.5003 9.4411 11.1239 9.16907 10.5932C9.04052 10.4048 8.93162 10.2038 8.84407 9.9932L8.48607 9.2062C8.36237 8.94475 8.20247 8.70204 8.01107 8.4852C7.82594 8.25963 7.58976 8.08138 7.32207 7.9652C7.09016 7.88093 6.83145 7.91848 6.63307 8.0652C6.36753 8.23902 6.13967 8.4645 5.96307 8.7282C5.76152 9.01503 5.57493 9.31209 5.40407 9.6182C5.23407 9.91953 5.0824 10.2035 4.94907 10.4702C4.8743 10.6292 4.7898 10.7835 4.69607 10.9322C4.64483 10.9931 4.589 11.0499 4.52907 11.1022C4.21077 11.3982 3.79984 11.5748 3.36607 11.6022C2.94473 11.6236 2.53619 11.4539 2.25407 11.1402C1.66266 10.2838 1.24136 9.32165 1.01307 8.3062C0.624516 7.06127 0.437819 5.76216 0.460069 4.4582C0.538069 2.59486 1.2364 1.6892 2.55507 1.7412C2.81859 1.73832 3.07171 1.84391 3.25507 2.0332C3.42245 2.23993 3.51825 2.49538 3.52807 2.7612C3.55407 3.06853 3.56507 3.38686 3.56107 3.7162C3.55876 4.08156 3.58047 4.44668 3.62607 4.8092C3.66252 5.16419 3.76173 5.50989 3.91907 5.8302C3.94417 5.8892 3.97463 5.94577 4.01007 5.9992C4.10934 6.1346 4.26438 6.218 4.43207 6.2262C4.60895 6.22536 4.78056 6.16593 4.92007 6.0572C5.09941 5.92745 5.26675 5.78186 5.42007 5.6222C5.59667 5.43953 5.75945 5.24399 5.90707 5.0372C6.06307 4.82386 6.20174 4.62387 6.32307 4.4372L6.64207 3.9502ZM17.6651 4.2752C17.3547 4.23287 17.0419 4.33323 16.8141 4.5482V4.5492C16.5629 4.90943 16.4046 5.32609 16.3531 5.7622C16.2134 6.43875 16.1308 7.12583 16.1061 7.8162C16.0779 8.54437 16.1325 9.27338 16.2691 9.9892C16.3318 10.5483 16.5603 11.0759 16.9251 11.5042L17.3801 11.9722C17.4964 12.0904 17.6389 12.1795 17.7961 12.2322C18.02 12.317 18.2651 12.3286 18.4961 12.2652C18.687 12.2027 18.859 12.093 18.9961 11.9462C19.1457 11.7846 19.2586 11.5925 19.3271 11.3832C19.4045 11.1563 19.4568 10.9215 19.4831 10.6832C19.5089 10.4508 19.5133 10.2164 19.4961 9.9832C19.4797 9.52746 19.4871 9.07118 19.5181 8.6162C19.5526 8.06685 19.5569 7.51602 19.5311 6.9662C19.5133 6.51344 19.4256 6.06615 19.2711 5.6402C19.201 5.45709 19.0898 5.29253 18.9461 5.1592L18.4911 4.6912C18.2679 4.46692 17.9781 4.32097 17.6651 4.2752ZM16.9961 4.7302C16.7763 5.06521 16.6423 5.44917 16.6061 5.8482C16.4895 6.4947 16.4194 7.14869 16.3961 7.8052C16.3652 8.50351 16.4088 9.20312 16.5261 9.8922C16.5744 10.4131 16.7708 10.9093 17.0921 11.3222C17.179 11.4071 17.2825 11.4731 17.3961 11.5162C18.0114 11.7069 18.4274 11.4425 18.6441 10.7232C18.7589 10.34 18.8029 9.93915 18.7741 9.5402C18.7567 9.21087 18.7634 8.7442 18.7941 8.1402C18.8247 7.5362 18.8291 6.99686 18.8071 6.5222C18.7955 6.09591 18.7144 5.67437 18.5671 5.2742C18.4612 5.00366 18.2568 4.78323 17.9951 4.6572C17.7685 4.51912 17.4926 4.48802 17.2411 4.5722C17.1508 4.61056 17.0679 4.66436 16.9961 4.7312V4.7302ZM16.4891 1.4152C16.4838 1.10723 16.6061 0.810794 16.8271 0.596198V0.597198C17.0398 0.376449 17.3345 0.253716 17.6411 0.258198C17.9468 0.25401 18.2406 0.376327 18.4531 0.596198C18.674 0.810794 18.7964 1.10723 18.7911 1.4152C18.7964 1.72316 18.674 2.0196 18.4531 2.2342C18.2404 2.45432 17.9461 2.57666 17.6401 2.5722C17.334 2.57666 17.0398 2.45432 16.8271 2.2342C16.6061 2.0196 16.4838 1.72316 16.4891 1.4152ZM29.6061 11.6862C29.3238 11.9601 28.9761 12.157 28.5961 12.2582C28.1898 12.3505 27.7652 12.3188 27.3771 12.1672C26.8814 11.979 26.4346 11.6813 26.0701 11.2962L25.6021 10.8282C25.5587 10.7849 25.5111 10.7329 25.4591 10.6722C25.3824 10.5917 25.3128 10.5047 25.2511 10.4122L24.9911 10.0352C24.8957 9.89653 24.8177 9.7882 24.7571 9.7102C24.6984 9.6748 24.6244 9.67715 24.5681 9.7162C24.4923 9.78786 24.4403 9.88105 24.4191 9.9832C24.3686 10.1661 24.3352 10.3532 24.3191 10.5422C24.3096 10.5849 24.3052 10.6285 24.3061 10.6722L24.2471 11.1012C24.2272 11.2267 24.1988 11.3506 24.1621 11.4722C24.1307 11.597 24.0742 11.714 23.9961 11.8162C23.9142 11.909 23.82 11.9901 23.7161 12.0572C23.586 12.1434 23.4402 12.2032 23.2871 12.2332C22.7892 12.3698 22.2563 12.225 21.8961 11.8552L21.4411 11.4002C21.091 11.0191 20.8469 10.553 20.7331 10.0482C20.5618 9.42777 20.4572 8.79083 20.4211 8.1482C20.3824 7.48953 20.3737 6.80053 20.3951 6.0812C20.4164 5.36186 20.4554 4.74853 20.5121 4.2412C20.5687 3.73453 20.6274 3.3292 20.6881 3.0252C20.7653 2.55856 20.9991 2.13214 21.3511 1.8162C21.6687 1.53249 22.0899 1.39342 22.5141 1.4322C22.976 1.47987 23.4038 1.69766 23.7141 2.0432L24.1821 2.4982C24.4227 2.74535 24.6204 3.03094 24.7671 3.3432C24.7844 3.3692 24.9844 3.86086 25.3671 4.8182C25.6189 5.51586 25.9412 6.186 26.3291 6.8182C26.7104 7.0262 26.9184 6.8182 26.9531 6.1942C26.9617 5.91686 26.9011 5.17586 26.7711 3.9712C26.7075 3.56715 26.6901 3.15719 26.7191 2.7492C26.7637 2.46945 26.8981 2.21181 27.1021 2.0152C27.304 1.80939 27.5513 1.65359 27.8241 1.5602C28.094 1.46902 28.3824 1.44668 28.6631 1.4952C28.9391 1.53582 29.1959 1.66087 29.3981 1.8532C29.4501 1.91386 29.4977 1.97453 29.5411 2.0352L29.9961 2.4902C30.3591 3.08391 30.5972 3.74537 30.6961 4.4342C30.8624 5.31701 30.9428 6.21387 30.9361 7.1122C30.9339 8.01817 30.8159 8.92014 30.5851 9.7962C30.4381 10.504 30.0994 11.1578 29.6061 11.6862ZM29.8691 9.2422C29.7423 9.91245 29.4306 10.5339 28.9691 11.0362C28.7173 11.2892 28.4007 11.468 28.0541 11.5532C27.6703 11.6263 27.2734 11.5809 26.9161 11.4232C26.4311 11.2153 25.9999 10.8996 25.6551 10.5002C25.5279 10.3438 25.4148 10.1765 25.3171 10.0002C25.1689 9.7507 24.9968 9.51626 24.8031 9.3002C24.6673 9.1299 24.4763 9.01245 24.2631 8.9682C24.065 8.93174 23.8688 9.04073 23.7951 9.2282C23.6827 9.49296 23.6125 9.7737 23.5871 10.0602C23.5859 10.1081 23.5816 10.1559 23.5741 10.2032C23.5567 10.3939 23.5417 10.5325 23.5291 10.6192C23.5117 10.7246 23.4876 10.8288 23.4571 10.9312C23.4333 11.0303 23.389 11.1233 23.3271 11.2042C23.2647 11.2731 23.1922 11.3321 23.1121 11.3792C23.0051 11.4422 22.8891 11.4884 22.7681 11.5162C22.5854 11.5611 22.3954 11.5675 22.2101 11.5352C21.7666 11.4201 21.4103 11.0904 21.2611 10.6572C21.0031 10.0852 20.8406 9.47476 20.7801 8.8502C20.6994 8.11202 20.6623 7.36974 20.6691 6.6272C20.6704 5.83386 20.7007 5.13386 20.7601 4.5272C20.8194 3.92053 20.8824 3.43953 20.9491 3.0842C21.0099 2.55145 21.3314 2.08373 21.8071 1.8362C21.9785 1.74984 22.1671 1.70303 22.3591 1.6992C22.5644 1.6965 22.7683 1.73421 22.9591 1.8102C23.1869 1.90636 23.3915 2.05026 23.5591 2.2322C23.7743 2.45941 23.9501 2.72102 24.0791 3.0062C24.1224 3.10153 24.2697 3.4892 24.5211 4.1692C24.7475 4.79276 25.0148 5.40074 25.3211 5.9892C25.5071 6.41084 25.8062 6.77284 26.1851 7.0352C26.2798 7.08254 26.3808 7.11621 26.4851 7.1352C26.5896 7.15323 26.697 7.14428 26.7971 7.1092C27.0137 7.01453 27.1504 6.75687 27.2071 6.3362C27.2634 5.90035 27.2634 5.45905 27.2071 5.0232C27.1511 4.5712 27.0927 4.11186 27.0321 3.6452C26.9821 3.35969 26.9603 3.06997 26.9671 2.7802C27.023 2.46205 27.2122 2.18296 27.4871 2.0132C27.7742 1.79885 28.13 1.69711 28.4871 1.7272C28.8226 1.73346 29.1356 1.89719 29.3321 2.1692C29.6695 2.74391 29.8881 3.38047 29.9751 4.0412C30.1284 4.90159 30.2024 5.77426 30.1961 6.6482C30.194 7.52301 30.0841 8.39423 29.8691 9.2422Z" fill="#2C50ED"/>
</svg>
