<svg width="14" height="13" viewBox="0 0 14 13" fill="none" xmlns="http://www.w3.org/2000/svg">
<path d="M2.88164 2.90977C2.7623 2.9377 2.83848 2.93262 2.73945 2.94531C2.31543 3.03672 2.63027 3.11797 2.88164 2.90977ZM10.3389 3.07988C10.3693 3.05957 10.476 2.95547 10.1434 2.85391C10.1637 2.95801 10.0748 2.94785 10.0748 3.00625C10.3211 3.22969 10.4227 3.61816 10.7375 3.69941C10.7984 3.42012 10.4582 3.28301 10.3389 3.07988ZM2.65566 2.82852C2.69375 3.05449 2.86387 2.58984 2.86641 2.4248C2.80039 2.46289 2.73438 2.50098 2.66582 2.53145C2.82578 2.6127 2.68613 2.69902 2.51348 2.82852C2.16309 3.26523 2.84102 2.48828 2.65566 2.82852ZM7 0C3.40977 0 0.5 2.90977 0.5 6.5C0.5 10.0877 3.40977 13 7 13C10.5902 13 13.5 10.0877 13.5 6.5C13.5 2.90977 10.5902 0 7 0ZM7.17266 2.17852L7.20312 2.18867C7.08125 2.34609 7.83789 2.80566 7.29453 2.84375C6.78672 2.98848 7.50781 2.71172 7.11426 2.75996C7.32246 2.47051 6.94922 2.46543 7.17266 2.17852ZM4.09023 2.59492C3.90742 2.44258 3.33359 2.80312 3.53418 2.7168C4.03184 2.52129 3.56719 2.73711 3.68398 2.9707C3.57734 3.1916 3.64844 2.75234 3.38437 3.01387C3.19395 3.05703 2.72676 3.48867 2.78516 3.35664C2.76992 3.5623 2.2291 3.80605 2.15547 4.14883C1.97773 4.62363 2.1123 4.13105 2.0793 3.9457C1.82539 3.62324 1.36328 4.4916 1.50039 4.83437C1.73145 4.42812 1.71367 4.79121 1.54609 4.97148C1.71621 5.28379 1.39121 5.69004 1.71367 5.92109C1.85586 5.9541 2.14023 5.44375 2.01582 5.97441C2.10215 5.51484 2.25449 6.08359 2.50078 5.95664C2.51602 6.19785 2.66582 6.08613 2.69883 6.37812C3.11016 6.34766 3.48594 7.04336 2.9959 7.17539C3.06953 7.15508 3.21426 7.28457 3.38184 7.18555C3.66621 7.41152 4.41523 7.43945 4.43555 7.99805C3.92012 8.24434 4.30859 8.91973 3.86172 9.16094C3.34883 9.08477 3.68652 9.79316 3.4707 9.71191C3.55703 10.2223 2.95273 9.6459 3.18633 9.92773C3.61543 10.1918 2.99844 10.1385 3.19141 10.3314C2.97559 10.2857 3.32598 10.7326 3.38437 10.8977C3.69414 11.4004 3.11777 10.7859 2.94766 10.6184C2.78516 10.2934 2.40176 9.67129 2.29512 9.16094C2.23418 8.41953 1.66035 7.92188 1.52832 7.19824C1.39629 6.79453 1.89141 6.14707 1.6248 5.92109C1.39375 5.74082 1.4877 5.12383 1.35059 4.79883C1.69336 3.31348 2.78262 2.06172 4.09023 1.32031C3.95566 1.41934 4.85957 1.06387 4.75547 1.1502C4.72754 1.21367 5.28359 0.908984 5.61875 0.863281C5.5832 0.868359 4.74785 1.16797 4.97891 1.12734C4.6209 1.30254 4.94336 1.20352 5.12109 1.11465C4.76562 1.37617 4.49141 1.30254 4.0877 1.53359C3.68145 1.64023 3.76523 2.06172 3.47578 2.27246C3.6459 2.30293 4.07246 1.8332 4.32129 1.66816C4.89258 1.39141 4.03184 2.1709 4.5752 1.83574C4.39238 2.00586 4.43047 2.27754 4.31875 2.35371C4.26289 2.33848 4.53965 2.48574 4.09023 2.59492ZM4.97891 1.42695C4.92051 1.50566 4.83926 1.67578 4.79102 1.57168C4.725 1.60469 4.69961 1.74688 4.5752 1.63262C4.64883 1.5793 4.725 1.45234 4.58027 1.53105C4.64629 1.45996 5.23535 1.25937 5.20234 1.1832C5.30645 1.11719 5.29629 1.08418 5.17695 1.1248C5.11602 1.10449 5.32168 0.931836 5.5959 0.908984C5.63398 0.908984 5.64922 0.934375 5.58066 0.926758C5.1668 1.05371 5.34453 1.01816 5.62383 0.926758C5.51719 0.987695 5.44355 1.00547 5.42578 1.0334C5.70508 0.931836 5.41055 1.10703 5.47402 1.09434C5.39531 1.13496 5.48672 1.14766 5.33437 1.20605C5.3623 1.1832 5.08555 1.37109 5.25059 1.31523C5.09063 1.46758 5.01953 1.47012 4.97891 1.42695ZM5.22266 1.79004C5.22773 1.54629 5.57812 1.39141 5.53496 1.37871C5.9666 1.17559 5.38516 1.38633 5.72539 1.20352C5.85234 1.19082 6.12148 0.78457 6.49473 0.75918C6.90605 0.634766 6.71562 0.766797 7.02031 0.65L6.95937 0.700781C6.90605 0.708398 6.97207 0.802344 6.7791 0.944531C6.75879 1.16543 6.41094 1.06387 6.58359 1.3C6.47188 1.14004 6.3043 1.29492 6.51504 1.31016C6.28906 1.48281 5.76348 1.51328 5.51211 1.8002C5.34961 2.03379 5.1998 1.96016 5.22266 1.79004ZM7.02793 2.60254C6.85527 3.01895 6.6877 2.5416 6.99238 2.46543C7.06855 2.50605 7.09902 2.51875 7.02793 2.60254ZM6.37793 1.76973C6.32715 1.58184 6.36777 1.68086 6.66992 1.59199C6.87813 1.7418 6.48457 1.84082 6.37793 1.76973ZM11.1057 9.22188C10.867 8.81055 11.3951 8.42969 11.5729 8.08437C11.55 8.48809 11.4992 8.88672 11.1057 9.22188ZM12.0045 4.52207C11.7455 4.54238 11.5119 4.60332 11.2783 4.45605C10.74 3.86699 11.3773 5.12129 11.5551 4.6084C12.1949 4.85215 11.5449 5.90332 11.1412 5.79414C10.9152 5.30664 10.6359 4.7709 10.1434 4.53223C10.5217 4.95117 10.7096 5.4666 11.1158 5.84492C11.1438 6.37305 11.6795 5.65195 11.6465 6.06074C11.6973 6.76406 10.8518 7.18555 10.999 7.89141C11.3139 8.53379 10.3922 8.65059 10.4963 9.22695C10.1256 9.64082 9.72949 10.1994 9.06426 10.1105C9.06426 9.76016 8.88652 9.46309 8.8459 9.10254C8.48535 8.64551 9.22676 8.15547 8.76719 7.67812C8.23652 7.55879 8.87637 6.82754 8.33047 6.89609C8.00293 6.56855 7.52305 6.88594 7.05332 6.88848C6.46426 6.94434 5.85742 6.16484 6.11895 5.61387C5.91074 5.04004 6.7791 4.87246 6.80195 4.36719C7.21836 4.01934 7.80996 4.0625 8.37363 3.98125C8.33301 4.38496 8.75957 4.3875 9.08203 4.52207C9.2623 4.08535 9.82344 4.59316 10.2068 4.31641C10.3389 3.67148 9.83359 4.05996 9.54414 3.8543C9.19375 3.34141 10.2932 3.59023 10.1789 3.32109C9.75234 3.31855 9.99356 2.79551 9.69141 3.0875C9.96309 3.13574 9.64316 3.34902 9.65078 3.10527C9.23945 2.98594 9.63555 3.57246 9.42734 3.62832C9.10996 3.49629 9.25977 3.77813 9.29277 3.82129C9.15566 4.11836 8.98809 3.38457 8.59961 3.40488C8.21367 3.05195 8.44727 3.56484 8.78242 3.64863C8.71133 3.66895 8.82305 3.96094 8.73418 3.83652C8.45742 3.45566 7.93184 3.20176 7.61953 3.66895C7.58652 4.10566 6.69785 4.23008 6.84004 3.71973C6.63184 3.1916 7.48496 3.70449 7.40625 3.28301C6.85781 2.91992 7.55606 3.03672 7.74141 2.69648C8.16289 2.70918 7.75918 2.35117 7.95723 2.24707C7.93691 2.63555 8.27969 2.56191 8.55137 2.48828C8.48535 2.26484 8.71387 2.27246 8.57422 2.08711C9.20391 1.83574 8.09434 2.20391 8.31777 1.65293C8.04609 1.46504 8.20352 2.0668 8.31777 2.13027C8.32539 2.31562 8.16797 2.54414 7.95215 2.15566C7.6373 2.36133 7.67031 1.94746 7.65 1.99063C7.61445 1.83066 7.88867 1.82305 7.89121 1.54375C7.86836 1.36602 7.87344 1.27207 8.00039 1.26191C8.01055 1.2873 8.5209 1.29492 8.70117 1.50566C8.20859 1.40664 8.62754 1.58691 8.84844 1.68848C8.6123 1.50312 8.94238 1.68848 8.74941 1.47773C8.82559 1.49297 8.53867 1.18828 8.8332 1.45488C8.67324 1.26445 9.14551 1.32031 8.86621 1.17813C9.275 1.29238 9.03379 1.18828 8.79258 1.08418C8.12734 0.688086 9.96816 1.61992 9.2166 1.20605C9.69648 1.31016 8.19082 0.835352 8.87637 1.04355C8.61484 0.929297 8.86875 0.992773 9.10488 1.06641C8.68086 0.934375 8.04609 0.688086 8.07148 0.67793C8.21875 0.688086 8.36348 0.721094 8.50313 0.761719C8.93731 0.891211 8.37871 0.73125 8.49805 0.733789C9.99102 1.11719 11.2986 2.11758 12.0934 3.4252C12.2787 3.6207 12.784 4.91309 12.5199 4.33926C12.6393 4.79629 12.657 5.28887 12.7205 5.75605C12.5885 5.60879 12.4412 5.06543 12.3143 4.76328C12.2609 4.88008 12.2 4.59824 12.0045 4.52207Z" fill="#797A7C"/>
</svg>
